<svg id="svg" version="1.1" xmlns="http://www.w3.org/2000/svg" xmlns:xlink="http://www.w3.org/1999/xlink" width="400" height="400" viewBox="0, 0, 400,400"><g id="svgg"><path id="path0" d="M255.778 137.270 C 255.636 137.716,255.718 138.278,255.960 138.520 C 256.470 139.030,256.579 148.426,256.082 149.020 C 255.907 149.229,255.520 150.120,255.224 151.000 C 253.662 155.629,246.725 162.000,243.246 162.000 C 242.869 162.000,242.387 162.173,242.177 162.383 C 241.955 162.605,236.467 162.834,229.197 162.926 C 214.598 163.111,214.692 163.100,210.224 165.249 C 199.715 170.307,197.344 185.774,205.785 194.215 C 206.679 195.108,210.205 197.600,210.576 197.600 C 210.704 197.600,211.572 197.943,212.504 198.362 C 214.200 199.123,215.372 199.337,221.439 199.990 C 227.949 200.690,232.837 204.198,235.916 210.379 L 237.400 213.359 237.400 218.800 L 237.400 224.241 235.899 227.279 C 234.280 230.554,230.893 234.124,228.006 235.597 C 224.260 237.508,223.598 237.588,211.500 237.594 L 200.000 237.600 200.000 249.335 C 200.000 261.220,199.690 265.055,198.216 271.400 C 189.784 307.709,151.451 329.933,115.800 319.182 C 113.011 318.341,112.658 318.221,110.000 317.207 C 98.817 312.942,86.212 302.608,79.498 292.200 C 74.819 284.948,69.200 270.138,69.200 265.058 C 69.200 262.189,68.494 264.135,68.433 267.173 C 68.390 269.301,68.529 270.833,68.780 270.988 C 69.011 271.131,69.200 272.497,69.200 274.024 C 69.200 275.608,69.372 276.800,69.600 276.800 C 69.822 276.800,70.000 277.867,70.000 279.200 C 70.000 280.533,70.178 281.600,70.400 281.600 C 70.620 281.600,70.800 282.399,70.800 283.376 C 70.800 284.353,70.980 285.264,71.200 285.400 C 71.420 285.536,71.600 286.357,71.600 287.224 C 71.600 288.091,71.780 288.800,72.000 288.800 C 72.220 288.800,72.400 289.430,72.400 290.200 C 72.400 290.970,72.580 291.600,72.800 291.600 C 73.020 291.600,73.200 292.140,73.200 292.800 C 73.200 293.460,73.380 294.000,73.600 294.000 C 73.820 294.000,74.000 294.619,74.000 295.376 C 74.000 296.133,74.180 296.864,74.400 297.000 C 74.620 297.136,74.800 297.687,74.800 298.224 C 74.800 298.761,74.960 299.200,75.156 299.200 C 75.351 299.200,75.494 299.425,75.473 299.700 C 75.398 300.685,76.096 303.200,76.445 303.200 C 76.640 303.200,76.800 303.650,76.800 304.200 C 76.800 304.750,76.980 305.200,77.200 305.200 C 77.420 305.200,77.600 305.543,77.600 305.962 C 77.600 306.645,78.191 308.038,79.842 311.244 C 80.137 311.818,80.264 312.403,80.123 312.544 C 79.982 312.685,80.077 312.800,80.333 312.800 C 80.590 312.800,80.800 313.160,80.800 313.600 C 80.800 314.040,80.980 314.400,81.200 314.400 C 81.420 314.400,81.600 314.760,81.600 315.200 C 81.600 315.640,81.780 316.000,82.000 316.000 C 82.220 316.000,82.400 316.360,82.400 316.800 C 82.400 317.240,82.580 317.600,82.800 317.600 C 83.020 317.600,83.200 317.960,83.200 318.400 C 83.200 318.840,83.380 319.200,83.600 319.200 C 83.820 319.200,84.000 319.470,84.000 319.800 C 84.000 320.130,84.180 320.400,84.400 320.400 C 84.620 320.400,84.800 320.670,84.800 321.000 C 84.800 321.330,84.980 321.600,85.200 321.600 C 85.420 321.600,85.600 321.960,85.600 322.400 C 85.600 322.840,85.736 323.200,85.902 323.200 C 86.069 323.200,86.429 323.706,86.703 324.325 C 86.976 324.944,87.515 325.799,87.900 326.225 C 88.285 326.651,88.855 327.495,89.168 328.100 C 89.480 328.705,89.885 329.200,90.068 329.200 C 90.250 329.200,90.400 329.494,90.400 329.853 C 90.400 330.212,90.734 330.797,91.143 331.153 C 91.551 331.509,92.003 332.173,92.147 332.629 C 92.291 333.086,92.722 333.812,93.105 334.245 C 93.487 334.677,94.243 335.653,94.785 336.414 C 96.110 338.276,97.461 339.840,99.500 341.874 C 100.435 342.807,101.200 343.760,101.200 343.991 C 101.200 344.913,114.206 357.281,116.895 358.916 C 117.589 359.339,118.644 360.205,119.239 360.842 C 119.834 361.479,120.569 362.000,120.872 362.000 C 121.175 362.000,121.683 362.360,122.000 362.800 C 122.317 363.240,122.780 363.600,123.029 363.600 C 123.278 363.600,124.046 364.140,124.737 364.800 C 125.428 365.460,126.275 366.000,126.620 366.000 C 126.965 366.000,127.136 366.180,127.000 366.400 C 126.864 366.620,127.033 366.800,127.376 366.800 C 127.719 366.800,128.000 366.980,128.000 367.200 C 128.000 367.420,128.270 367.600,128.600 367.600 C 128.930 367.600,129.200 367.780,129.200 368.000 C 129.200 368.220,129.436 368.400,129.725 368.400 C 130.013 368.400,130.636 368.760,131.108 369.200 C 131.580 369.640,132.244 370.000,132.583 370.000 C 132.922 370.000,133.200 370.180,133.200 370.400 C 133.200 370.620,133.560 370.800,134.000 370.800 C 134.440 370.800,134.800 370.980,134.800 371.200 C 134.800 371.420,135.070 371.600,135.400 371.600 C 135.730 371.600,136.000 371.736,136.000 371.902 C 136.000 372.182,136.546 372.468,139.200 373.579 C 139.750 373.810,140.470 374.167,140.800 374.374 C 142.058 375.161,144.153 376.000,144.861 376.000 C 145.268 376.000,145.601 376.135,145.603 376.300 C 145.607 376.659,147.544 377.600,148.280 377.600 C 148.566 377.600,148.800 377.780,148.800 378.000 C 148.800 378.220,149.149 378.400,149.576 378.400 C 150.003 378.400,150.464 378.580,150.600 378.800 C 150.736 379.020,151.287 379.200,151.824 379.200 C 152.361 379.200,152.800 379.380,152.800 379.600 C 152.800 379.820,153.340 380.000,154.000 380.000 C 154.660 380.000,155.200 380.180,155.200 380.400 C 155.200 380.620,155.549 380.800,155.976 380.800 C 156.403 380.800,156.864 380.980,157.000 381.200 C 157.136 381.420,157.676 381.600,158.200 381.600 C 158.724 381.600,159.264 381.780,159.400 382.000 C 159.536 382.220,160.177 382.400,160.824 382.400 C 161.471 382.400,162.000 382.580,162.000 382.800 C 162.000 383.020,162.630 383.200,163.400 383.200 C 164.170 383.200,164.800 383.380,164.800 383.600 C 164.800 383.820,165.430 384.000,166.200 384.000 C 166.970 384.000,167.600 384.180,167.600 384.400 C 167.600 384.620,168.309 384.800,169.176 384.800 C 170.043 384.800,170.864 384.980,171.000 385.200 C 171.136 385.420,172.011 385.600,172.944 385.600 C 173.877 385.600,174.811 385.763,175.020 385.963 C 175.419 386.345,177.863 386.690,182.700 387.048 C 184.295 387.167,185.600 387.429,185.600 387.632 C 185.600 387.836,187.741 388.000,190.400 388.000 C 195.738 388.000,196.236 387.708,193.003 386.470 C 178.980 381.104,176.866 361.419,189.407 352.992 C 193.916 349.962,193.579 350.000,216.230 350.000 C 241.076 350.000,242.835 349.796,247.919 346.330 C 253.955 342.214,257.142 334.437,255.549 327.706 C 253.470 318.917,245.898 312.851,236.923 312.782 C 220.628 312.659,212.368 291.987,223.991 280.419 C 226.169 278.252,230.594 275.600,232.033 275.600 C 232.429 275.600,232.864 275.420,233.000 275.200 C 233.163 274.937,249.937 274.800,282.024 274.800 L 330.800 274.800 330.800 273.024 C 330.800 272.047,330.980 271.136,331.200 271.000 C 331.455 270.843,331.600 265.537,331.600 256.400 C 331.600 247.263,331.455 241.957,331.200 241.800 C 330.980 241.664,330.800 240.213,330.800 238.576 C 330.800 236.939,330.637 235.600,330.437 235.600 C 330.237 235.600,329.972 234.655,329.846 233.500 C 329.271 228.201,329.099 227.200,328.761 227.200 C 328.563 227.200,328.400 226.480,328.400 225.600 C 328.400 224.720,328.220 224.000,328.000 224.000 C 327.780 224.000,327.600 223.269,327.600 222.376 C 327.600 221.396,327.442 220.851,327.200 221.000 C 326.962 221.147,326.800 220.671,326.800 219.824 C 326.800 219.041,326.620 218.400,326.400 218.400 C 326.180 218.400,326.000 217.800,326.000 217.067 C 326.000 216.333,325.871 215.605,325.714 215.447 C 325.557 215.290,325.217 214.405,324.960 213.481 C 324.172 210.655,322.218 205.408,321.900 205.267 C 321.735 205.193,321.600 204.884,321.600 204.579 C 321.600 204.274,321.240 203.383,320.800 202.600 C 320.360 201.817,320.000 200.821,320.000 200.388 C 320.000 199.955,319.820 199.600,319.600 199.600 C 319.380 199.600,319.200 199.240,319.200 198.800 C 319.200 198.360,319.020 198.000,318.800 198.000 C 318.580 198.000,318.400 197.640,318.400 197.200 C 318.400 196.760,318.220 196.400,318.000 196.400 C 317.780 196.400,317.600 196.130,317.600 195.800 C 317.600 195.470,317.420 195.200,317.200 195.200 C 316.980 195.200,316.800 194.862,316.800 194.449 C 316.800 194.036,316.526 193.470,316.190 193.192 C 315.855 192.914,315.664 192.602,315.766 192.500 C 315.868 192.398,315.603 191.940,315.176 191.482 C 314.749 191.024,314.400 190.413,314.400 190.125 C 314.400 189.836,314.220 189.600,314.000 189.600 C 313.780 189.600,313.600 189.240,313.600 188.800 C 313.600 188.360,313.420 188.000,313.200 188.000 C 312.980 188.000,312.800 187.764,312.800 187.475 C 312.800 187.187,312.440 186.564,312.000 186.092 C 311.560 185.620,311.200 184.996,311.200 184.705 C 311.200 184.414,310.840 183.917,310.400 183.600 C 309.960 183.283,309.600 182.786,309.600 182.495 C 309.600 182.204,309.421 181.749,309.203 181.483 C 307.006 178.810,306.000 177.478,306.000 177.240 C 306.000 177.084,305.370 176.269,304.600 175.428 C 303.830 174.587,303.200 173.770,303.200 173.612 C 303.200 173.454,302.255 172.344,301.100 171.146 C 299.945 169.947,298.746 168.482,298.436 167.890 C 298.126 167.298,297.541 166.708,297.136 166.580 C 296.731 166.451,296.400 166.161,296.400 165.934 C 296.400 165.458,291.615 160.800,291.126 160.800 C 290.947 160.800,290.800 160.542,290.800 160.227 C 290.800 159.912,290.440 159.540,290.000 159.400 C 289.560 159.260,289.200 158.978,289.200 158.773 C 289.200 158.568,289.029 158.400,288.820 158.400 C 288.611 158.400,287.356 157.320,286.032 156.000 C 284.708 154.680,283.439 153.600,283.212 153.600 C 282.986 153.600,282.800 153.420,282.800 153.200 C 282.800 152.980,282.602 152.800,282.360 152.800 C 282.119 152.800,281.442 152.305,280.857 151.700 C 280.271 151.095,279.567 150.554,279.291 150.498 C 279.015 150.442,278.225 149.857,277.535 149.198 C 276.846 148.539,276.078 148.000,275.829 148.000 C 275.580 148.000,275.117 147.640,274.800 147.200 C 274.483 146.760,274.087 146.400,273.919 146.400 C 273.752 146.400,272.577 145.729,271.308 144.910 C 270.038 144.090,268.910 143.411,268.800 143.399 C 268.375 143.356,264.593 141.013,264.467 140.715 C 264.393 140.542,263.988 140.400,263.567 140.400 C 263.145 140.400,262.800 140.220,262.800 140.000 C 262.800 139.780,262.440 139.600,262.000 139.600 C 261.560 139.600,261.200 139.420,261.200 139.200 C 261.200 138.980,260.855 138.800,260.433 138.800 C 260.012 138.800,259.607 138.665,259.533 138.500 C 259.072 137.461,256.033 136.466,255.778 137.270 M107.600 161.600 C 105.352 163.826,103.602 165.736,103.711 165.844 C 103.982 166.115,109.600 160.447,109.600 159.903 C 109.600 159.663,109.709 159.576,109.842 159.709 C 109.976 159.842,110.535 159.502,111.085 158.952 C 111.635 158.402,111.995 157.862,111.886 157.752 C 111.776 157.643,109.848 159.374,107.600 161.600 M102.060 167.079 C 100.793 168.392,101.279 168.757,102.572 167.464 C 103.134 166.902,103.460 166.367,103.297 166.274 C 103.133 166.181,102.577 166.544,102.060 167.079 M97.270 172.822 C 96.758 173.470,96.451 174.000,96.588 174.000 C 96.894 174.000,98.800 172.120,98.800 171.818 C 98.800 171.294,98.129 171.734,97.270 172.822 M94.886 175.854 C 94.383 176.374,94.130 176.800,94.324 176.800 C 94.748 176.800,96.197 175.255,95.964 175.051 C 95.874 174.972,95.389 175.333,94.886 175.854 M92.893 178.400 C 92.616 178.843,92.567 179.200,92.783 179.200 C 92.997 179.200,93.365 178.840,93.600 178.400 C 93.835 177.960,93.885 177.600,93.710 177.600 C 93.535 177.600,93.168 177.960,92.893 178.400 M87.660 186.242 C 86.931 187.066,87.400 187.457,88.181 186.676 C 88.521 186.336,88.800 185.954,88.800 185.829 C 88.800 185.409,88.206 185.624,87.660 186.242 M68.612 241.717 C 68.441 242.112,68.413 242.547,68.551 242.684 C 68.957 243.090,69.284 242.520,69.097 241.731 C 68.932 241.033,68.910 241.032,68.612 241.717 " stroke="none" fill="#24ace3" fill-rule="evenodd"></path><path id="path1" d="M110.200 31.866 C 106.557 33.791,105.382 37.311,107.316 40.506 C 107.817 41.334,122.901 56.724,140.837 74.706 C 173.409 107.363,177.086 111.268,176.627 112.714 C 176.465 113.226,176.781 113.880,177.610 114.747 C 178.282 115.450,178.724 116.200,178.592 116.413 C 178.460 116.626,178.543 116.800,178.776 116.800 C 179.009 116.800,179.200 116.988,179.200 117.217 C 179.200 117.446,179.562 118.022,180.004 118.496 C 180.446 118.971,181.234 120.215,181.756 121.261 C 182.277 122.307,182.815 123.052,182.952 122.915 C 183.088 122.778,183.200 123.057,183.200 123.533 C 183.200 124.010,183.380 124.400,183.600 124.400 C 184.192 124.400,184.085 125.172,183.399 125.858 C 182.988 126.270,182.158 126.425,180.771 126.352 C 179.407 126.279,178.635 126.420,178.411 126.782 C 178.172 127.169,177.570 127.250,176.254 127.069 C 174.809 126.871,174.353 126.954,174.066 127.467 C 173.784 127.971,173.294 128.070,171.869 127.909 C 170.632 127.770,170.061 127.848,170.117 128.151 C 170.168 128.424,169.613 128.582,168.700 128.554 C 167.615 128.521,167.200 128.674,167.200 129.107 C 167.200 129.574,166.849 129.658,165.600 129.491 C 164.337 129.321,164.000 129.405,164.000 129.888 C 164.000 130.355,163.715 130.443,162.800 130.260 C 161.869 130.074,161.600 130.163,161.600 130.657 C 161.600 131.120,161.328 131.241,160.603 131.103 C 160.020 130.991,159.409 131.149,159.132 131.482 C 158.844 131.829,158.296 131.960,157.730 131.818 C 157.041 131.645,156.800 131.754,156.800 132.239 C 156.800 132.718,156.537 132.843,155.820 132.706 C 155.195 132.586,154.759 132.730,154.616 133.102 C 154.467 133.491,154.076 133.605,153.438 133.445 C 152.781 133.280,152.409 133.400,152.245 133.828 C 152.113 134.171,151.804 134.326,151.558 134.174 C 151.312 134.022,150.996 134.070,150.855 134.280 C 150.408 134.950,147.981 135.968,147.379 135.737 C 147.061 135.614,146.800 135.714,146.800 135.957 C 146.800 136.201,146.440 136.400,146.000 136.400 C 145.560 136.400,145.199 136.535,145.197 136.700 C 145.193 137.059,143.256 138.000,142.520 138.000 C 142.234 138.000,142.000 138.180,142.000 138.400 C 142.000 138.620,141.640 138.800,141.200 138.800 C 140.760 138.800,140.400 138.946,140.400 139.125 C 140.400 139.304,139.770 139.698,139.000 140.000 C 138.230 140.302,137.600 140.696,137.600 140.875 C 137.600 141.054,137.240 141.200,136.800 141.200 C 136.360 141.200,136.000 141.401,136.000 141.647 C 136.000 141.903,135.589 142.015,135.037 141.909 C 134.384 141.784,134.134 141.884,134.262 142.218 C 134.366 142.489,133.901 142.954,133.226 143.253 C 132.552 143.551,132.000 143.931,132.000 144.098 C 132.000 144.264,131.706 144.400,131.347 144.400 C 130.988 144.400,130.403 144.716,130.047 145.103 C 129.691 145.489,128.905 146.060,128.300 146.370 C 127.695 146.681,127.200 147.085,127.200 147.268 C 127.200 147.450,126.964 147.600,126.675 147.600 C 126.387 147.600,125.745 147.978,125.249 148.440 C 124.753 148.902,124.261 149.194,124.156 149.089 C 124.050 148.984,123.440 149.371,122.799 149.949 C 120.295 152.208,118.482 153.600,118.042 153.600 C 117.789 153.600,116.615 154.631,115.432 155.891 L 113.283 158.182 114.563 159.052 C 118.677 161.848,121.357 162.400,130.818 162.400 C 139.443 162.400,140.090 162.501,144.400 164.528 C 161.826 172.722,155.625 199.931,136.313 200.014 C 115.854 200.102,107.974 224.903,125.225 234.908 C 129.661 237.480,128.354 237.400,165.800 237.400 L 199.800 237.400 199.901 181.100 C 199.991 131.220,199.934 124.800,199.401 124.800 C 199.071 124.800,198.800 124.547,198.800 124.238 C 198.800 123.753,198.248 122.480,196.750 119.505 C 196.557 119.123,196.400 118.538,196.400 118.205 C 196.400 117.872,196.220 117.600,196.000 117.600 C 195.780 117.600,195.600 117.330,195.600 117.000 C 195.600 116.670,195.420 116.400,195.200 116.400 C 194.980 116.400,194.800 116.130,194.800 115.800 C 194.800 115.470,194.620 115.200,194.400 115.200 C 194.180 115.200,194.000 114.874,194.000 114.475 C 194.000 114.077,193.640 113.364,193.200 112.892 C 192.760 112.420,192.400 111.756,192.400 111.417 C 192.400 111.078,192.232 110.800,192.027 110.800 C 191.822 110.800,191.527 110.401,191.372 109.913 C 190.843 108.244,188.601 105.231,187.400 104.573 C 186.740 104.211,185.733 103.311,185.162 102.573 C 184.592 101.835,183.342 100.279,182.385 99.116 C 178.624 94.541,116.600 32.780,114.974 31.990 C 113.030 31.046,111.812 31.014,110.200 31.866 M190.707 125.486 C 190.106 125.577,189.026 125.579,188.307 125.490 C 187.588 125.401,188.080 125.326,189.400 125.324 C 190.720 125.322,191.308 125.395,190.707 125.486 M44.000 156.400 C 44.000 156.620,43.550 156.800,43.000 156.800 C 42.450 156.800,42.000 156.980,42.000 157.200 C 42.000 157.420,41.741 157.600,41.424 157.600 C 40.641 157.600,37.200 161.040,37.200 161.821 C 37.200 162.193,37.012 162.331,36.738 162.162 C 36.482 162.004,36.384 162.050,36.518 162.267 C 36.650 162.482,36.498 163.160,36.180 163.774 C 35.499 165.086,35.345 172.800,36.000 172.800 C 36.220 172.800,36.400 173.216,36.400 173.725 C 36.400 174.233,36.760 175.036,37.200 175.508 C 37.640 175.980,38.000 176.601,38.000 176.888 C 38.000 177.175,38.480 177.768,39.066 178.205 C 39.652 178.642,40.359 179.225,40.637 179.500 C 40.915 179.775,41.336 180.000,41.571 180.000 C 41.807 180.000,42.000 180.180,42.000 180.400 C 42.000 180.620,42.270 180.800,42.600 180.800 C 42.930 180.800,43.200 180.980,43.200 181.200 C 43.200 181.420,43.571 181.600,44.024 181.600 C 44.477 181.600,44.736 181.780,44.600 182.000 C 44.464 182.220,44.598 182.400,44.897 182.400 C 45.651 182.400,47.593 183.335,47.597 183.700 C 47.599 183.865,47.870 184.000,48.200 184.000 C 48.530 184.000,48.800 184.180,48.800 184.400 C 48.800 184.620,49.160 184.800,49.600 184.800 C 50.040 184.800,50.400 184.980,50.400 185.200 C 50.400 185.420,50.670 185.600,51.000 185.600 C 51.330 185.600,51.600 185.780,51.600 186.000 C 51.600 186.220,51.870 186.400,52.200 186.400 C 52.530 186.400,52.800 186.580,52.800 186.800 C 52.800 187.020,53.239 187.200,53.776 187.200 C 54.313 187.200,54.864 187.380,55.000 187.600 C 55.139 187.825,57.071 188.000,59.424 188.000 C 61.941 188.000,63.600 187.841,63.600 187.600 C 63.600 187.380,63.872 187.200,64.205 187.200 C 65.194 187.200,67.293 185.837,68.950 184.119 C 70.439 182.576,70.800 182.049,70.800 181.417 C 70.800 181.078,70.944 180.800,71.120 180.800 C 73.299 180.800,72.715 171.338,70.313 167.728 C 69.701 166.808,69.200 165.885,69.200 165.676 C 69.200 165.468,68.660 165.073,68.000 164.800 C 67.340 164.527,66.800 164.165,66.800 163.996 C 66.800 163.826,65.945 163.288,64.900 162.800 C 63.855 162.311,62.280 161.436,61.400 160.855 C 60.520 160.275,59.080 159.440,58.200 159.000 C 57.320 158.560,56.510 158.110,56.400 158.000 C 55.914 157.514,54.356 156.800,53.782 156.800 C 53.436 156.800,53.264 156.620,53.400 156.400 C 53.560 156.142,51.937 156.000,48.824 156.000 C 45.875 156.000,44.000 156.155,44.000 156.400 M346.333 156.300 C 346.260 156.465,345.480 156.976,344.600 157.435 C 340.410 159.623,338.800 160.585,338.800 160.902 C 338.800 161.092,338.620 161.136,338.400 161.000 C 338.180 160.864,338.000 160.973,338.000 161.243 C 338.000 161.513,337.885 161.619,337.745 161.478 C 337.605 161.338,336.992 161.578,336.383 162.012 C 335.775 162.445,335.071 162.800,334.820 162.800 C 334.569 162.800,333.928 163.236,333.395 163.769 C 332.862 164.302,332.057 164.855,331.607 164.998 C 331.157 165.141,330.871 165.392,330.973 165.556 C 331.074 165.720,330.717 166.329,330.179 166.910 C 329.640 167.490,329.200 168.153,329.200 168.383 C 329.200 168.612,329.040 168.800,328.845 168.800 C 327.917 168.800,327.316 176.308,328.041 178.847 C 328.316 179.811,328.510 180.735,328.471 180.900 C 328.432 181.065,328.580 181.200,328.800 181.200 C 329.020 181.200,329.200 181.388,329.200 181.617 C 329.200 181.847,329.640 182.510,330.179 183.090 C 330.717 183.671,331.049 184.321,330.917 184.535 C 330.785 184.749,330.851 184.815,331.065 184.683 C 331.279 184.551,331.935 184.889,332.523 185.434 C 334.885 187.624,344.007 189.207,345.000 187.600 C 345.136 187.380,345.552 187.196,345.924 187.191 C 346.296 187.186,347.050 186.830,347.600 186.400 C 348.150 185.970,348.915 185.614,349.300 185.609 C 349.685 185.604,350.000 185.420,350.000 185.200 C 350.000 184.980,350.270 184.800,350.600 184.800 C 350.930 184.800,351.200 184.620,351.200 184.400 C 351.200 184.180,351.560 184.000,352.000 184.000 C 352.440 184.000,352.800 183.848,352.800 183.663 C 352.800 183.477,353.610 182.909,354.600 182.400 C 355.590 181.891,356.400 181.323,356.400 181.137 C 356.400 180.952,356.720 180.800,357.112 180.800 C 357.503 180.800,358.083 180.440,358.400 180.000 C 358.717 179.560,359.215 179.200,359.506 179.200 C 359.798 179.200,360.478 178.758,361.018 178.218 C 361.558 177.678,362.000 176.998,362.000 176.706 C 362.000 176.415,362.360 175.917,362.800 175.600 C 363.240 175.283,363.600 174.714,363.600 174.335 C 363.600 173.957,363.780 173.536,364.000 173.400 C 364.229 173.258,364.400 171.188,364.400 168.553 C 364.400 165.588,364.258 164.041,364.000 164.200 C 363.772 164.341,363.600 163.998,363.600 163.405 C 363.600 162.832,363.195 161.929,362.700 161.397 C 362.205 160.866,361.440 159.976,361.000 159.420 C 360.560 158.863,360.009 158.406,359.775 158.404 C 359.542 158.402,358.964 158.040,358.492 157.600 C 358.020 157.160,357.367 156.800,357.040 156.800 C 356.714 156.800,356.336 156.620,356.200 156.400 C 355.914 155.937,346.537 155.842,346.333 156.300 M20.241 243.800 C 19.824 244.116,19.331 244.281,19.146 244.167 C 18.962 244.053,18.414 244.328,17.930 244.780 C 17.445 245.231,16.802 245.600,16.501 245.600 C 16.199 245.600,16.064 245.780,16.200 246.000 C 16.336 246.220,16.281 246.400,16.078 246.400 C 15.405 246.400,13.600 248.496,13.600 249.278 C 13.600 249.701,13.420 249.936,13.200 249.800 C 12.973 249.660,12.800 249.996,12.800 250.576 C 12.800 251.139,12.612 251.600,12.381 251.600 C 12.111 251.600,11.985 253.223,12.027 256.200 C 12.062 258.730,12.250 260.800,12.445 260.800 C 12.640 260.800,12.800 261.049,12.800 261.354 C 12.800 262.184,13.840 264.027,14.139 263.727 C 14.283 263.584,14.400 263.772,14.400 264.146 C 14.400 264.519,14.669 264.928,14.998 265.054 C 15.326 265.181,15.496 265.445,15.374 265.642 C 15.252 265.839,15.399 266.000,15.701 266.000 C 16.002 266.000,16.618 266.343,17.068 266.763 C 19.525 269.052,20.392 269.200,31.360 269.200 C 37.724 269.200,41.646 269.050,41.800 268.800 C 41.936 268.580,42.447 268.400,42.935 268.400 C 43.424 268.400,44.083 268.040,44.400 267.600 C 44.717 267.160,45.231 266.800,45.542 266.800 C 46.161 266.800,47.999 264.847,48.000 264.188 C 48.000 263.962,48.360 263.517,48.800 263.200 C 49.240 262.883,49.600 262.213,49.600 261.712 C 49.600 261.210,49.780 260.800,50.000 260.800 C 50.837 260.800,50.478 252.558,49.556 250.596 C 49.092 249.608,48.552 248.800,48.356 248.800 C 48.160 248.800,48.000 248.532,48.000 248.203 C 48.000 247.875,47.640 247.382,47.200 247.107 C 46.760 246.832,46.400 246.370,46.400 246.080 C 46.400 245.790,46.232 245.656,46.028 245.783 C 45.823 245.909,45.536 245.821,45.391 245.585 C 44.018 243.364,22.806 241.858,20.241 243.800 M358.180 243.567 C 357.971 243.768,357.440 243.993,357.000 244.067 C 356.560 244.140,355.997 244.380,355.749 244.600 C 355.501 244.820,354.892 245.270,354.395 245.600 C 353.142 246.433,352.000 247.667,352.000 248.187 C 352.000 248.427,351.640 248.883,351.200 249.200 C 350.760 249.517,350.400 250.097,350.400 250.488 C 350.400 250.880,350.212 251.200,349.982 251.200 C 349.711 251.200,349.585 252.952,349.625 256.200 C 349.658 258.950,349.802 261.200,349.945 261.200 C 350.088 261.200,350.427 261.695,350.698 262.300 C 351.290 263.623,353.951 266.800,354.467 266.800 C 354.668 266.800,355.220 267.160,355.692 267.600 C 356.164 268.040,356.787 268.400,357.075 268.400 C 357.364 268.400,357.600 268.569,357.600 268.776 C 357.600 269.458,378.472 269.323,379.804 268.632 C 380.430 268.307,381.058 268.112,381.198 268.199 C 381.339 268.286,381.707 268.007,382.015 267.579 C 382.324 267.150,382.820 266.800,383.117 266.800 C 383.762 266.800,384.800 265.831,384.800 265.229 C 384.800 264.993,384.980 264.800,385.200 264.800 C 385.420 264.800,385.600 264.530,385.600 264.200 C 385.600 263.870,385.760 263.600,385.956 263.600 C 388.582 263.600,388.547 249.966,385.919 248.867 C 385.743 248.793,385.600 248.560,385.600 248.349 C 385.600 247.389,382.082 244.637,380.276 244.183 C 379.684 244.035,379.200 243.753,379.200 243.557 C 379.200 243.083,358.672 243.092,358.180 243.567 M109.863 276.195 C 92.271 282.288,93.303 307.103,111.343 311.802 C 114.662 312.667,135.351 312.663,138.680 311.797 C 156.936 307.050,157.882 282.223,140.038 276.186 C 135.631 274.695,114.175 274.701,109.863 276.195 M54.400 325.200 C 54.400 325.420,54.265 325.556,54.100 325.502 C 53.698 325.371,49.277 327.551,48.984 328.026 C 48.857 328.232,48.393 328.400,47.953 328.400 C 47.513 328.400,47.247 328.552,47.362 328.738 C 47.477 328.925,46.678 329.495,45.586 330.007 C 44.493 330.518,43.600 331.086,43.600 331.268 C 43.600 331.451,43.255 331.600,42.833 331.600 C 42.412 331.600,42.007 331.767,41.933 331.970 C 41.860 332.174,41.530 332.399,41.200 332.470 C 40.526 332.616,38.000 335.167,38.000 335.702 C 38.000 335.892,37.820 335.936,37.600 335.800 C 37.380 335.664,37.200 335.913,37.200 336.353 C 37.200 336.793,37.020 337.264,36.800 337.400 C 36.580 337.536,36.400 338.087,36.400 338.624 C 36.400 339.161,36.220 339.600,36.000 339.600 C 35.759 339.600,35.600 341.259,35.600 343.776 C 35.600 346.129,35.775 348.061,36.000 348.200 C 36.220 348.336,36.400 348.763,36.400 349.148 C 36.400 349.534,36.760 350.236,37.200 350.708 C 37.640 351.180,38.000 351.666,38.000 351.787 C 38.000 352.275,40.168 354.400,40.666 354.400 C 40.960 354.400,41.200 354.556,41.200 354.747 C 41.200 356.192,50.593 357.563,52.705 356.426 C 53.087 356.221,53.985 355.817,54.700 355.529 C 55.415 355.240,56.000 354.869,56.000 354.702 C 56.000 354.536,56.270 354.400,56.600 354.400 C 56.930 354.400,57.200 354.220,57.200 354.000 C 57.200 353.780,57.560 353.600,58.000 353.600 C 58.440 353.600,58.800 353.442,58.800 353.249 C 58.800 353.055,59.340 352.673,60.000 352.400 C 60.660 352.127,61.200 351.745,61.200 351.551 C 61.200 351.358,61.560 351.200,62.000 351.200 C 62.440 351.200,62.800 351.009,62.800 350.776 C 62.800 350.543,62.965 350.455,63.168 350.580 C 63.370 350.705,63.807 350.536,64.139 350.204 C 64.471 349.872,64.986 349.600,65.283 349.600 C 65.580 349.600,66.083 349.240,66.400 348.800 C 66.717 348.360,67.268 348.000,67.624 348.000 C 67.980 348.000,68.477 347.550,68.727 347.000 C 68.978 346.450,69.367 346.000,69.591 346.000 C 69.816 346.000,70.000 345.745,70.000 345.433 C 70.000 345.122,70.135 344.807,70.300 344.733 C 72.310 343.840,73.208 335.463,71.600 332.600 C 71.160 331.817,70.800 330.994,70.800 330.771 C 70.800 330.185,68.908 328.032,67.091 326.549 C 66.380 325.968,64.743 325.416,64.100 325.539 C 63.825 325.592,63.600 325.447,63.600 325.218 C 63.600 324.952,61.929 324.800,59.000 324.800 C 56.200 324.800,54.400 324.957,54.400 325.200 M334.900 325.512 C 333.965 325.871,333.200 326.409,333.200 326.706 C 333.200 327.004,333.032 327.144,332.828 327.017 C 332.448 326.783,330.400 328.447,330.400 328.989 C 330.400 329.153,330.010 329.693,329.533 330.188 C 329.056 330.683,328.602 331.511,328.523 332.027 C 328.444 332.543,328.231 333.063,328.049 333.183 C 326.786 334.011,327.955 342.818,329.607 344.918 C 330.029 345.454,330.245 346.022,330.087 346.180 C 329.929 346.338,329.980 346.410,330.200 346.340 C 330.420 346.271,331.020 346.571,331.534 347.007 C 332.047 347.443,332.947 348.205,333.534 348.700 C 334.120 349.194,334.780 349.603,335.000 349.608 C 335.220 349.614,335.850 349.970,336.400 350.400 C 336.950 350.830,337.726 351.186,338.124 351.191 C 338.522 351.196,338.756 351.347,338.645 351.527 C 338.534 351.707,339.063 352.079,339.821 352.353 C 340.580 352.627,341.200 353.020,341.200 353.226 C 341.200 353.432,341.560 353.600,342.000 353.600 C 342.440 353.600,342.800 353.759,342.800 353.953 C 342.800 354.148,343.115 354.416,343.500 354.550 C 343.885 354.683,344.993 355.244,345.963 355.796 C 348.979 357.513,357.247 356.919,358.792 354.874 C 358.906 354.723,359.450 354.366,360.000 354.081 C 361.077 353.523,363.600 349.982,363.600 349.028 C 363.600 348.709,363.780 348.336,364.000 348.200 C 364.486 347.900,364.539 340.275,364.062 339.295 C 363.601 338.345,362.765 336.758,362.238 335.830 C 361.652 334.801,359.408 332.631,358.768 332.476 C 358.486 332.408,357.766 332.003,357.166 331.576 C 356.567 331.149,355.879 330.800,355.638 330.800 C 355.397 330.800,355.200 330.654,355.200 330.475 C 355.200 330.296,354.578 329.905,353.818 329.607 C 353.058 329.309,352.546 328.887,352.680 328.671 C 352.814 328.454,352.761 328.377,352.562 328.499 C 352.363 328.621,351.480 328.301,350.600 327.786 C 347.423 325.929,346.000 325.218,346.000 325.486 C 346.000 325.637,345.784 325.544,345.520 325.280 C 344.774 324.534,337.004 324.704,334.900 325.512 " stroke="none" fill="#93cb3c" fill-rule="evenodd"></path><path id="path2" d="M131.633 12.144 C 132.070 12.520,135.621 12.757,135.397 12.395 C 135.263 12.178,134.323 12.000,133.310 12.000 C 132.296 12.000,131.542 12.065,131.633 12.144 M264.800 12.414 C 264.800 12.627,263.911 12.800,262.824 12.800 C 261.737 12.800,260.736 12.980,260.600 13.200 C 260.464 13.420,259.834 13.600,259.200 13.600 C 258.566 13.600,257.936 13.780,257.800 14.000 C 257.664 14.220,257.023 14.400,256.376 14.400 C 255.729 14.400,255.200 14.580,255.200 14.800 C 255.200 15.020,254.660 15.200,254.000 15.200 C 253.340 15.200,252.800 15.347,252.800 15.528 C 252.800 15.708,251.900 16.100,250.800 16.400 C 249.700 16.700,248.800 17.092,248.800 17.272 C 248.800 17.453,248.440 17.600,248.000 17.600 C 247.560 17.600,247.200 17.780,247.200 18.000 C 247.200 18.220,246.840 18.400,246.400 18.400 C 245.960 18.400,245.600 18.546,245.600 18.725 C 245.600 18.904,244.970 19.298,244.200 19.600 C 243.430 19.902,242.800 20.296,242.800 20.475 C 242.800 20.654,242.519 20.800,242.176 20.800 C 241.833 20.800,241.664 20.980,241.800 21.200 C 241.936 21.420,241.677 21.600,241.224 21.600 C 240.771 21.600,240.400 21.780,240.400 22.000 C 240.400 22.220,240.157 22.400,239.859 22.400 C 239.562 22.400,238.754 22.940,238.063 23.600 C 237.372 24.260,236.602 24.800,236.351 24.800 C 236.099 24.800,235.558 25.188,235.147 25.661 C 234.736 26.135,234.400 26.413,234.400 26.279 C 234.400 26.145,232.825 27.644,230.900 29.611 C 225.780 34.841,224.800 35.931,224.800 36.392 C 224.800 36.621,224.260 37.372,223.600 38.063 C 222.940 38.754,222.400 39.562,222.400 39.859 C 222.400 40.157,222.220 40.400,222.000 40.400 C 221.780 40.400,221.600 40.771,221.600 41.224 C 221.600 41.677,221.420 41.936,221.200 41.800 C 220.980 41.664,220.800 41.833,220.800 42.176 C 220.800 42.519,220.665 42.801,220.500 42.801 C 220.335 42.802,219.750 43.792,219.200 45.000 C 218.650 46.208,218.065 47.198,217.900 47.199 C 217.735 47.199,217.600 47.560,217.600 48.000 C 217.600 48.440,217.453 48.800,217.272 48.800 C 217.092 48.800,216.700 49.700,216.400 50.800 C 216.100 51.900,215.708 52.800,215.528 52.800 C 215.347 52.800,215.200 53.340,215.200 54.000 C 215.200 54.660,215.020 55.200,214.800 55.200 C 214.580 55.200,214.400 55.729,214.400 56.376 C 214.400 57.023,214.220 57.664,214.000 57.800 C 213.780 57.936,213.600 58.566,213.600 59.200 C 213.600 59.834,213.420 60.464,213.200 60.600 C 212.980 60.736,212.800 61.636,212.800 62.600 C 212.800 63.564,212.626 64.460,212.414 64.591 C 212.175 64.739,212.020 72.424,212.007 84.780 L 211.986 104.731 212.957 104.273 C 213.490 104.022,214.168 103.424,214.463 102.946 C 215.914 100.597,221.356 94.982,251.173 65.071 C 283.009 33.135,285.092 31.200,287.630 31.200 C 291.739 31.200,295.015 36.547,293.121 40.163 C 292.809 40.759,278.066 55.771,260.360 73.523 C 230.674 103.286,223.200 111.143,223.200 112.591 C 223.200 112.890,223.088 113.464,222.951 113.867 C 222.765 114.414,222.872 114.372,223.373 113.700 L 224.045 112.800 242.223 112.800 C 254.074 112.800,260.400 112.661,260.400 112.400 C 260.400 112.180,261.300 112.000,262.400 112.000 C 263.500 112.000,264.400 111.820,264.400 111.600 C 264.400 111.380,265.120 111.200,266.000 111.200 C 266.880 111.200,267.600 111.020,267.600 110.800 C 267.600 110.580,268.140 110.400,268.800 110.400 C 269.460 110.400,270.000 110.220,270.000 110.000 C 270.000 109.780,270.439 109.600,270.976 109.600 C 271.513 109.600,272.064 109.420,272.200 109.200 C 272.336 108.980,272.842 108.799,273.324 108.798 C 273.806 108.796,274.716 108.526,275.346 108.198 C 275.976 107.869,276.741 107.600,277.046 107.600 C 277.351 107.600,277.600 107.420,277.600 107.200 C 277.600 106.980,277.960 106.800,278.400 106.800 C 278.840 106.800,279.200 106.620,279.200 106.400 C 279.200 106.180,279.560 106.000,280.000 106.000 C 280.440 106.000,280.800 105.820,280.800 105.600 C 280.800 105.380,281.036 105.200,281.325 105.200 C 281.613 105.200,282.236 104.840,282.708 104.400 C 283.180 103.960,283.804 103.600,284.095 103.600 C 284.386 103.600,284.883 103.240,285.200 102.800 C 285.517 102.360,286.057 102.000,286.400 102.000 C 286.743 102.000,287.283 101.640,287.600 101.200 C 287.917 100.760,288.331 100.400,288.519 100.400 C 288.929 100.400,300.400 88.985,300.400 88.577 C 300.400 88.421,300.716 88.003,301.103 87.647 C 301.489 87.291,302.060 86.505,302.370 85.900 C 302.681 85.295,303.085 84.800,303.268 84.800 C 303.450 84.800,303.600 84.522,303.600 84.183 C 303.600 83.844,303.960 83.180,304.400 82.708 C 304.840 82.236,305.200 81.613,305.200 81.325 C 305.200 81.036,305.380 80.800,305.600 80.800 C 305.820 80.800,306.000 80.440,306.000 80.000 C 306.000 79.560,306.180 79.200,306.400 79.200 C 306.620 79.200,306.800 78.840,306.800 78.400 C 306.800 77.960,306.980 77.600,307.200 77.600 C 307.420 77.600,307.600 77.351,307.600 77.046 C 307.600 76.741,307.869 75.976,308.198 75.346 C 308.526 74.716,308.796 73.806,308.798 73.324 C 308.799 72.842,308.980 72.336,309.200 72.200 C 309.420 72.064,309.600 71.513,309.600 70.976 C 309.600 70.439,309.780 70.000,310.000 70.000 C 310.220 70.000,310.400 69.460,310.400 68.800 C 310.400 68.140,310.580 67.600,310.800 67.600 C 311.020 67.600,311.200 66.880,311.200 66.000 C 311.200 65.120,311.380 64.400,311.600 64.400 C 311.820 64.400,312.000 63.500,312.000 62.400 C 312.000 61.300,312.180 60.400,312.400 60.400 C 312.661 60.400,312.800 53.400,312.800 40.200 C 312.800 27.000,312.661 20.000,312.400 20.000 C 312.180 20.000,312.000 19.640,312.000 19.200 C 312.000 18.760,311.820 18.400,311.600 18.400 C 311.380 18.400,311.200 18.125,311.200 17.789 C 311.200 16.832,307.998 13.874,305.890 12.884 C 303.805 11.904,264.800 11.459,264.800 12.414 M163.600 25.104 C 163.600 25.271,163.960 25.632,164.400 25.907 C 165.330 26.488,165.454 26.197,164.629 25.371 C 163.998 24.741,163.600 24.637,163.600 25.104 M172.800 33.487 C 172.800 33.676,173.358 34.453,174.040 35.215 C 175.224 36.536,175.248 36.545,174.567 35.400 C 173.737 34.005,172.800 32.990,172.800 33.487 M93.893 79.500 C 94.295 80.550,95.990 83.446,95.995 83.093 C 96.001 82.714,93.973 78.800,93.771 78.800 C 93.691 78.800,93.746 79.115,93.893 79.500 M97.737 86.196 C 97.992 86.745,98.341 87.195,98.514 87.197 C 98.882 87.201,98.163 85.748,97.635 85.422 C 97.437 85.299,97.483 85.648,97.737 86.196 M99.600 88.627 C 99.600 88.751,100.255 89.516,101.056 90.327 L 102.512 91.800 101.222 90.100 C 99.993 88.480,99.600 88.123,99.600 88.627 M110.083 99.358 C 110.678 99.931,111.285 100.400,111.432 100.400 C 111.885 100.400,110.712 99.180,109.833 98.737 C 109.191 98.413,109.248 98.556,110.083 99.358 M112.803 101.486 C 112.805 101.659,113.255 102.008,113.804 102.263 C 114.352 102.517,114.701 102.563,114.578 102.365 C 114.252 101.837,112.799 101.118,112.803 101.486 M117.900 104.698 C 118.615 105.054,119.200 105.492,119.200 105.673 C 119.200 105.853,119.515 105.994,119.900 105.988 C 120.334 105.980,119.992 105.601,119.000 104.990 C 118.120 104.448,117.220 104.015,117.000 104.028 C 116.780 104.041,117.185 104.342,117.900 104.698 M210.900 105.823 C 210.625 106.122,210.401 106.689,210.402 107.083 C 210.404 107.579,210.591 107.443,211.010 106.640 C 211.689 105.337,211.646 105.014,210.900 105.823 M200.418 150.265 L 200.437 175.800 201.584 173.322 C 203.640 168.880,208.824 164.427,213.501 163.085 C 214.334 162.846,220.779 162.541,228.000 162.399 C 240.191 162.158,241.755 162.040,243.800 161.207 C 246.979 159.912,248.109 159.168,250.448 156.827 C 255.268 152.002,256.973 145.976,255.402 139.313 C 255.079 137.945,254.919 136.505,255.045 136.113 C 255.218 135.577,255.180 135.534,254.890 135.939 C 254.441 136.567,253.000 136.406,253.000 135.728 C 253.000 135.474,252.836 135.117,252.636 134.933 C 252.424 134.740,252.392 134.810,252.559 135.100 C 252.758 135.445,252.529 135.600,251.824 135.600 C 251.261 135.600,250.800 135.412,250.800 135.182 C 250.800 134.953,250.485 134.818,250.100 134.882 C 249.703 134.949,249.445 134.780,249.503 134.492 C 249.573 134.143,249.304 134.059,248.641 134.225 C 247.964 134.395,247.562 134.261,247.288 133.772 C 247.045 133.338,246.649 133.172,246.234 133.331 C 245.831 133.486,245.481 133.354,245.343 132.996 C 245.191 132.598,244.804 132.484,244.158 132.646 C 243.449 132.824,243.200 132.722,243.200 132.253 C 243.200 131.763,242.929 131.674,242.000 131.860 C 240.910 132.078,240.800 132.003,240.800 131.050 C 240.800 130.472,240.620 130.000,240.400 130.000 C 240.180 130.000,240.045 130.225,240.100 130.500 C 240.159 130.793,239.787 131.000,239.200 131.000 C 238.645 131.000,238.241 130.789,238.291 130.527 C 238.354 130.202,237.946 130.124,236.991 130.279 C 236.129 130.419,235.600 130.342,235.600 130.076 C 235.600 129.841,234.925 129.592,234.100 129.524 C 233.240 129.453,232.637 129.204,232.687 128.940 C 232.746 128.628,232.263 128.548,231.187 128.693 C 230.001 128.852,229.600 128.766,229.600 128.353 C 229.600 127.936,229.096 127.835,227.541 127.943 C 225.893 128.057,225.525 127.972,225.699 127.520 C 225.874 127.063,225.477 126.987,223.616 127.121 C 221.474 127.276,221.299 127.223,221.058 126.344 C 220.863 125.631,220.715 125.532,220.453 125.938 C 220.200 126.331,219.469 126.420,217.753 126.269 C 216.459 126.156,212.700 125.877,209.400 125.649 C 206.100 125.422,202.725 125.122,201.900 124.983 L 200.400 124.730 200.418 150.265 M200.418 211.900 L 200.400 237.200 210.900 237.195 C 226.124 237.188,231.158 235.167,235.055 227.496 C 241.496 214.819,233.698 201.618,219.011 200.337 C 210.222 199.571,204.921 196.125,201.566 189.000 L 200.437 186.600 200.418 211.900 M233.800 275.696 C 232.181 276.096,230.775 276.603,229.500 277.247 C 218.133 282.984,215.678 297.627,224.573 306.635 C 228.338 310.448,231.868 311.887,238.400 312.273 C 240.270 312.383,241.971 312.637,242.180 312.837 C 242.389 313.037,242.868 313.200,243.246 313.200 C 247.034 313.200,255.600 321.820,255.600 325.633 C 255.600 326.029,255.780 326.464,256.000 326.600 C 258.029 327.854,255.805 338.458,252.623 342.702 C 247.208 349.924,246.330 350.122,218.600 350.398 C 193.748 350.644,194.830 350.542,190.568 353.040 C 176.719 361.156,180.196 383.763,195.732 386.619 C 196.574 386.774,197.359 387.148,197.475 387.451 C 197.637 387.874,198.781 388.000,202.466 388.000 C 205.382 388.000,207.156 387.852,207.012 387.620 C 206.630 387.002,209.470 386.674,212.803 386.952 C 215.474 387.175,215.946 387.119,216.164 386.551 C 216.372 386.007,216.823 385.927,218.708 386.098 C 220.411 386.252,221.140 386.155,221.545 385.721 C 221.951 385.287,222.577 385.204,223.991 385.399 C 225.522 385.609,225.939 385.536,226.136 385.024 C 226.325 384.529,226.725 384.442,227.931 384.635 C 229.166 384.833,229.535 384.746,229.741 384.210 C 229.939 383.695,230.282 383.598,231.200 383.800 C 231.891 383.952,232.400 383.899,232.400 383.675 C 232.400 383.461,232.653 383.189,232.961 383.070 C 233.730 382.775,235.242 383.208,234.972 383.645 C 234.851 383.840,234.943 384.000,235.176 384.000 C 235.409 384.000,235.600 383.640,235.600 383.200 C 235.600 382.385,235.903 382.255,237.500 382.384 C 237.995 382.424,238.400 382.284,238.400 382.071 C 238.400 381.370,239.566 381.223,240.188 381.846 C 240.737 382.394,240.800 382.372,240.800 381.629 C 240.800 380.975,241.053 380.800,242.000 380.800 C 242.660 380.800,243.200 380.620,243.200 380.400 C 243.200 380.180,243.650 380.000,244.200 380.000 C 244.750 380.000,245.200 379.820,245.200 379.600 C 245.200 379.380,245.740 379.200,246.400 379.200 C 247.060 379.200,247.600 379.020,247.600 378.800 C 247.600 378.580,247.960 378.400,248.400 378.400 C 248.840 378.400,249.200 378.220,249.200 378.000 C 249.200 377.780,249.650 377.600,250.200 377.600 C 250.750 377.600,251.200 377.399,251.200 377.153 C 251.200 376.893,251.616 376.786,252.200 376.898 C 252.871 377.026,253.200 376.910,253.200 376.545 C 253.200 375.861,254.653 375.825,254.963 376.500 C 255.089 376.775,255.092 376.595,254.969 376.100 C 254.721 375.099,256.125 374.747,256.563 375.700 C 256.689 375.975,256.692 375.795,256.569 375.300 C 256.392 374.585,256.516 374.400,257.173 374.400 C 257.628 374.400,258.000 374.204,258.000 373.965 C 258.000 373.697,258.578 373.597,259.500 373.705 C 260.325 373.802,260.685 373.806,260.300 373.713 C 259.340 373.482,259.415 372.800,260.400 372.800 C 260.840 372.800,261.200 372.662,261.200 372.494 C 261.200 372.326,261.875 371.875,262.700 371.492 C 264.350 370.726,265.543 370.052,268.706 368.100 C 270.873 366.762,272.281 366.393,271.759 367.300 C 271.595 367.586,271.626 367.659,271.831 367.472 C 272.028 367.291,272.192 366.861,272.195 366.517 C 272.198 366.172,272.550 365.690,272.978 365.445 C 273.406 365.200,274.115 364.685,274.554 364.300 C 274.992 363.915,275.572 363.600,275.842 363.600 C 276.112 363.600,276.393 363.458,276.467 363.285 C 276.540 363.112,277.410 362.347,278.400 361.585 C 279.389 360.823,280.491 359.885,280.847 359.500 C 281.607 358.678,282.262 358.599,282.512 359.300 C 282.616 359.591,282.839 359.652,283.045 359.445 C 283.252 359.239,283.191 359.016,282.900 358.912 C 282.305 358.700,282.228 358.000,282.799 358.000 C 283.019 358.000,283.874 357.354,284.699 356.563 C 285.525 355.773,287.010 354.472,288.000 353.671 C 290.049 352.015,295.022 346.999,297.400 344.191 C 298.280 343.152,299.520 341.738,300.155 341.051 C 300.790 340.363,301.779 339.170,302.353 338.400 C 302.926 337.630,303.495 336.910,303.617 336.800 C 303.739 336.690,304.274 335.970,304.806 335.200 C 305.338 334.430,305.998 333.568,306.273 333.285 C 306.547 333.002,307.087 332.237,307.472 331.585 C 307.857 330.933,308.314 330.400,308.486 330.400 C 308.659 330.400,308.800 330.130,308.800 329.800 C 308.800 329.470,308.980 329.200,309.200 329.200 C 309.420 329.200,309.600 328.930,309.600 328.600 C 309.600 328.270,309.736 328.000,309.902 328.000 C 310.069 328.000,310.449 327.448,310.747 326.774 C 311.099 325.981,311.493 325.627,311.866 325.770 C 312.193 325.896,312.334 325.816,312.191 325.586 C 311.909 325.128,312.833 322.800,313.298 322.800 C 313.464 322.800,313.600 322.530,313.600 322.200 C 313.600 321.870,313.780 321.600,314.000 321.600 C 314.220 321.600,314.400 321.318,314.400 320.973 C 314.400 320.523,314.655 320.409,315.300 320.569 C 315.795 320.692,315.975 320.689,315.700 320.563 C 315.107 320.291,315.022 318.800,315.600 318.800 C 315.820 318.800,316.000 318.440,316.000 318.000 C 316.000 317.560,316.180 317.200,316.400 317.200 C 316.620 317.200,316.800 316.840,316.800 316.400 C 316.800 315.960,316.966 315.600,317.168 315.600 C 317.371 315.600,317.655 315.058,317.801 314.396 C 318.138 312.861,319.160 310.800,319.585 310.800 C 319.764 310.800,319.886 310.485,319.856 310.100 C 319.825 309.715,320.029 309.446,320.308 309.503 C 320.657 309.573,320.741 309.304,320.576 308.646 C 320.444 308.119,320.530 307.567,320.768 307.420 C 321.005 307.273,321.200 306.803,321.200 306.376 C 321.200 305.949,321.380 305.600,321.600 305.600 C 321.820 305.600,322.000 305.251,322.000 304.824 C 322.000 303.895,322.650 303.387,322.929 304.098 C 323.038 304.374,323.025 303.895,322.900 303.033 C 322.718 301.773,322.787 301.509,323.251 301.688 C 323.704 301.861,323.793 301.606,323.666 300.512 C 323.517 299.241,323.579 299.139,324.351 299.385 C 324.854 299.544,325.200 299.480,325.200 299.227 C 325.200 298.992,325.020 298.800,324.800 298.800 C 324.580 298.800,324.400 298.440,324.400 298.000 C 324.400 297.560,324.580 297.200,324.800 297.200 C 325.020 297.200,325.200 296.570,325.200 295.800 C 325.200 295.030,325.380 294.400,325.600 294.400 C 325.820 294.400,326.000 293.860,326.000 293.200 C 326.000 292.540,326.180 292.000,326.400 292.000 C 326.620 292.000,326.800 291.280,326.800 290.400 C 326.800 289.017,326.922 288.796,327.700 288.768 C 328.195 288.751,328.375 288.646,328.100 288.535 C 327.509 288.297,327.417 285.600,328.000 285.600 C 328.220 285.600,328.400 284.818,328.400 283.861 C 328.400 282.453,328.571 282.040,329.300 281.688 C 329.795 281.449,329.975 281.242,329.700 281.227 C 329.095 281.194,328.996 277.600,329.600 277.600 C 329.820 277.600,330.000 277.060,330.000 276.400 L 330.000 275.200 282.700 275.251 C 253.077 275.282,234.802 275.449,233.800 275.696 " stroke="none" fill="#4c9444" fill-rule="evenodd"></path><path id="path3" d="M94.587 12.814 C 94.206 13.236,93.736 13.484,93.544 13.365 C 93.352 13.246,93.086 13.431,92.954 13.775 C 92.822 14.119,92.497 14.400,92.232 14.400 C 91.619 14.400,89.600 16.488,89.600 17.122 C 89.600 17.385,89.420 17.600,89.200 17.600 C 88.980 17.600,88.800 17.855,88.800 18.167 C 88.800 18.478,88.625 18.793,88.412 18.867 C 88.198 18.940,87.963 19.400,87.889 19.890 C 87.815 20.379,87.644 20.889,87.510 21.023 C 87.063 21.470,87.137 59.114,87.585 59.391 C 87.813 59.532,88.000 60.537,88.000 61.624 C 88.000 62.711,88.170 63.600,88.377 63.600 C 88.584 63.600,88.809 64.365,88.877 65.300 C 88.947 66.263,89.191 66.965,89.441 66.920 C 89.703 66.872,89.806 67.236,89.694 67.820 C 89.586 68.387,89.695 68.800,89.953 68.800 C 90.199 68.800,90.400 69.329,90.400 69.976 C 90.400 70.623,90.580 71.264,90.800 71.400 C 91.020 71.536,91.200 72.187,91.200 72.847 C 91.200 73.545,91.367 73.944,91.600 73.800 C 91.826 73.660,92.000 73.988,92.000 74.553 C 92.000 75.103,92.183 75.666,92.407 75.804 C 92.630 75.942,92.709 76.223,92.583 76.428 C 92.185 77.072,92.850 77.757,93.278 77.143 C 93.541 76.766,93.609 76.991,93.501 77.876 C 93.408 78.638,93.518 79.121,93.773 79.076 C 94.008 79.034,94.186 79.401,94.169 79.892 C 94.146 80.559,94.263 80.679,94.636 80.370 C 95.015 80.056,95.108 80.200,95.023 80.967 C 94.962 81.523,95.046 81.895,95.210 81.794 C 95.373 81.693,95.714 82.109,95.966 82.718 C 96.365 83.682,96.977 84.539,98.808 86.700 C 99.041 86.975,99.127 87.200,99.000 87.200 C 98.872 87.200,99.450 87.948,100.284 88.863 C 102.760 91.579,103.370 92.287,103.973 93.143 C 104.288 93.591,104.693 93.866,104.873 93.755 C 105.053 93.644,105.200 93.743,105.200 93.974 C 105.200 94.895,109.110 98.409,109.862 98.164 C 110.474 97.965,110.498 97.998,110.000 98.356 C 109.670 98.594,109.580 98.791,109.800 98.796 C 110.020 98.800,110.885 99.433,111.722 100.202 C 113.137 101.501,113.689 101.784,114.530 101.637 C 114.711 101.606,114.750 101.757,114.616 101.974 C 114.482 102.191,115.278 102.886,116.386 103.518 C 117.493 104.150,118.264 104.816,118.099 104.998 C 117.935 105.180,118.020 105.202,118.289 105.048 C 118.557 104.893,119.202 105.045,119.721 105.385 C 120.239 105.725,120.813 105.867,120.996 105.701 C 121.178 105.536,121.218 105.706,121.084 106.080 C 120.906 106.578,121.006 106.696,121.461 106.521 C 121.802 106.390,122.198 106.448,122.340 106.650 C 122.769 107.255,124.948 108.142,125.744 108.035 C 126.250 107.967,126.389 108.095,126.178 108.435 C 125.956 108.795,126.073 108.858,126.592 108.658 C 127.039 108.487,127.601 108.639,128.060 109.055 C 128.470 109.425,128.924 109.609,129.071 109.463 C 129.217 109.317,129.774 109.484,130.309 109.835 C 130.844 110.185,131.634 110.380,132.065 110.267 C 132.497 110.154,132.936 110.289,133.043 110.567 C 133.149 110.845,133.890 111.096,134.689 111.126 C 135.487 111.156,136.267 111.385,136.421 111.634 C 136.589 111.905,137.353 112.011,138.332 111.898 C 139.402 111.774,139.935 111.862,139.882 112.155 C 139.823 112.475,144.926 112.630,158.100 112.709 C 168.165 112.768,176.400 112.722,176.400 112.605 C 176.400 112.488,175.860 111.828,175.200 111.137 C 174.540 110.446,174.000 109.738,174.000 109.563 C 174.000 109.074,164.672 99.565,135.200 70.013 C 102.611 37.335,106.000 41.118,106.000 37.425 L 106.000 34.463 107.832 32.632 C 109.792 30.671,113.383 30.043,115.726 31.250 C 116.850 31.829,182.230 97.276,183.807 99.400 C 184.460 100.280,185.674 101.720,186.504 102.600 L 188.014 104.200 187.888 85.000 C 187.818 74.440,187.641 65.372,187.494 64.849 C 187.347 64.327,187.186 63.212,187.136 62.373 C 187.087 61.534,186.901 60.938,186.723 61.047 C 186.545 61.157,186.400 60.697,186.400 60.024 C 186.400 58.450,186.358 58.301,185.746 57.688 C 185.464 57.407,185.336 56.912,185.460 56.588 C 185.584 56.265,185.476 56.000,185.219 56.000 C 184.963 56.000,184.856 55.832,184.983 55.628 C 185.109 55.423,185.038 55.147,184.824 55.015 C 184.610 54.883,184.529 54.528,184.645 54.228 C 184.760 53.927,184.662 53.562,184.427 53.417 C 184.192 53.272,184.000 52.724,184.000 52.200 C 184.000 51.676,183.792 51.119,183.538 50.962 C 183.233 50.773,183.186 50.854,183.400 51.200 C 183.616 51.549,183.567 51.627,183.255 51.434 C 182.998 51.275,182.891 50.976,183.019 50.770 C 183.333 50.261,182.338 47.591,181.927 47.845 C 181.747 47.956,181.600 47.787,181.600 47.469 C 181.600 47.151,181.339 46.389,181.020 45.774 C 180.702 45.160,180.551 44.464,180.685 44.229 C 180.819 43.993,180.788 43.926,180.617 44.081 C 180.247 44.414,179.200 43.460,179.200 42.790 C 179.200 42.267,177.602 39.873,177.114 39.667 C 176.942 39.593,176.800 39.188,176.800 38.767 C 176.800 38.318,176.524 38.000,176.133 38.000 C 175.767 38.000,175.578 37.889,175.714 37.752 C 175.850 37.616,175.699 37.242,175.377 36.920 C 175.056 36.599,174.912 36.142,175.058 35.906 C 175.209 35.662,175.137 35.592,174.892 35.743 C 174.655 35.889,174.045 35.422,173.536 34.705 C 172.010 32.551,171.477 32.029,171.067 32.282 C 170.852 32.415,170.792 32.336,170.934 32.107 C 171.075 31.878,170.203 30.780,168.996 29.666 C 167.788 28.552,166.800 27.471,166.800 27.264 C 166.800 27.056,166.381 26.782,165.870 26.653 C 165.358 26.525,164.370 25.875,163.673 25.210 C 162.977 24.544,162.226 24.000,162.004 24.000 C 161.782 24.000,161.600 23.820,161.600 23.600 C 161.600 23.380,161.407 23.200,161.171 23.200 C 160.936 23.200,160.471 22.928,160.139 22.596 C 159.807 22.264,159.342 22.112,159.106 22.258 C 158.864 22.408,158.792 22.337,158.940 22.096 C 159.088 21.857,158.675 21.435,158.002 21.137 C 157.341 20.844,156.800 20.458,156.800 20.279 C 156.800 20.099,156.619 20.065,156.397 20.202 C 156.176 20.339,155.886 20.169,155.754 19.825 C 155.622 19.481,155.184 19.200,154.781 19.200 C 154.377 19.200,153.934 19.017,153.796 18.793 C 153.658 18.570,153.398 18.478,153.218 18.589 C 153.038 18.700,152.670 18.525,152.400 18.200 C 152.130 17.875,151.750 17.707,151.555 17.828 C 151.360 17.949,151.200 17.797,151.200 17.490 C 151.200 17.184,150.975 16.917,150.700 16.896 C 150.425 16.876,149.390 16.551,148.400 16.174 C 147.410 15.798,145.970 15.444,145.200 15.388 C 143.324 15.251,143.312 15.245,144.000 14.800 C 144.446 14.512,144.216 14.411,143.100 14.406 C 142.275 14.403,141.600 14.220,141.600 14.000 C 141.600 13.780,140.981 13.600,140.224 13.600 C 139.467 13.600,138.751 13.445,138.634 13.256 C 138.517 13.066,137.351 12.933,136.043 12.959 C 134.735 12.986,133.852 12.892,134.081 12.750 C 134.919 12.232,130.619 12.092,113.141 12.070 C 96.028 12.048,95.253 12.079,94.587 12.814 M284.800 31.990 C 283.362 32.765,220.518 95.536,216.973 99.739 C 215.888 101.025,214.733 102.510,214.407 103.039 C 214.081 103.567,213.596 104.000,213.328 104.000 C 212.759 104.000,210.800 106.450,210.800 107.161 C 210.800 107.429,210.658 107.560,210.485 107.452 C 210.312 107.345,209.917 107.829,209.608 108.527 C 209.299 109.225,208.676 110.106,208.223 110.485 C 207.759 110.873,207.618 111.179,207.900 111.187 C 208.175 111.194,208.400 111.410,208.400 111.667 C 208.400 111.923,208.283 112.017,208.141 111.874 C 207.812 111.545,206.508 113.029,206.159 114.129 C 206.014 114.587,205.639 115.218,205.328 115.530 C 205.016 115.841,204.657 116.615,204.530 117.248 C 204.404 117.882,204.143 118.400,203.950 118.400 C 203.758 118.400,203.600 118.861,203.600 119.424 C 203.600 120.004,203.427 120.340,203.200 120.200 C 202.980 120.064,202.800 120.323,202.800 120.776 C 202.800 121.229,202.620 121.600,202.400 121.600 C 202.180 121.600,202.000 122.061,202.000 122.624 C 202.000 123.187,201.857 123.559,201.683 123.451 C 201.509 123.344,201.340 123.602,201.308 124.026 C 201.232 125.033,201.755 125.141,209.000 125.618 C 212.300 125.835,215.765 126.118,216.700 126.248 C 218.685 126.524,219.124 125.725,217.200 125.340 C 216.093 125.119,215.482 124.400,216.400 124.400 C 216.620 124.400,216.800 124.040,216.800 123.600 C 216.800 123.160,216.941 122.800,217.112 122.800 C 217.380 122.800,218.122 121.256,218.318 120.290 C 218.353 120.119,218.847 119.547,219.417 119.019 C 219.988 118.491,220.465 117.910,220.478 117.729 C 220.537 116.919,220.919 116.426,221.304 116.664 C 221.535 116.807,221.612 116.743,221.475 116.522 C 221.338 116.300,221.671 115.518,222.213 114.782 C 222.756 114.046,223.200 113.130,223.200 112.746 C 223.200 111.130,229.837 104.125,260.360 73.523 C 278.066 55.771,292.809 40.759,293.121 40.163 C 295.729 35.186,289.755 29.319,284.800 31.990 M200.189 150.400 C 200.189 164.590,200.239 170.395,200.300 163.300 C 200.361 156.205,200.361 144.595,200.300 137.500 C 200.239 130.405,200.189 136.210,200.189 150.400 M221.200 126.700 C 221.200 126.975,221.631 127.200,222.157 127.200 C 222.684 127.200,223.201 126.975,223.306 126.700 C 223.432 126.372,223.104 126.200,222.349 126.200 C 221.696 126.200,221.200 126.416,221.200 126.700 M225.837 127.097 C 225.231 127.702,225.747 128.000,227.400 128.000 C 229.086 128.000,230.029 127.423,228.500 127.328 C 228.115 127.303,227.411 127.188,226.937 127.072 C 226.462 126.955,225.967 126.967,225.837 127.097 M229.600 128.200 C 229.600 128.530,229.870 128.800,230.200 128.800 C 230.530 128.800,230.800 128.530,230.800 128.200 C 230.800 127.870,230.530 127.600,230.200 127.600 C 229.870 127.600,229.600 127.870,229.600 128.200 M232.678 128.656 C 232.167 129.166,232.878 129.600,234.224 129.600 C 234.981 129.600,235.600 129.780,235.600 130.000 C 235.600 130.220,235.885 130.400,236.233 130.400 C 237.367 130.400,236.611 129.530,234.986 128.964 C 233.159 128.328,233.023 128.310,232.678 128.656 M238.278 130.256 C 237.855 130.678,238.393 131.200,239.252 131.200 C 239.968 131.200,239.990 131.133,239.457 130.600 C 238.786 129.929,238.645 129.888,238.278 130.256 M240.800 131.400 C 240.800 131.740,241.159 132.000,241.629 132.000 C 242.365 132.000,242.390 131.933,241.857 131.400 C 241.527 131.070,241.154 130.800,241.029 130.800 C 240.903 130.800,240.800 131.070,240.800 131.400 M243.200 132.200 C 243.200 132.530,243.464 132.800,243.787 132.800 C 244.145 132.800,244.285 132.565,244.145 132.200 C 244.018 131.870,243.754 131.600,243.557 131.600 C 243.361 131.600,243.200 131.870,243.200 132.200 M245.277 132.830 C 245.356 133.066,245.591 133.260,245.800 133.260 C 246.009 133.260,246.245 133.066,246.323 132.830 C 246.402 132.594,246.167 132.400,245.800 132.400 C 245.433 132.400,245.198 132.594,245.277 132.830 M247.300 133.700 C 247.552 134.457,248.800 134.564,248.800 133.829 C 248.800 133.458,248.458 133.200,247.967 133.200 C 247.478 133.200,247.202 133.407,247.300 133.700 M250.800 135.200 C 250.800 135.420,251.070 135.600,251.400 135.600 C 251.730 135.600,252.000 135.420,252.000 135.200 C 252.000 134.980,251.730 134.800,251.400 134.800 C 251.070 134.800,250.800 134.980,250.800 135.200 M200.188 211.800 C 200.188 225.880,200.239 231.582,200.300 224.471 C 200.361 217.360,200.361 205.840,200.300 198.871 C 200.238 191.902,200.188 197.720,200.188 211.800 " stroke="none" fill="#5bac44" fill-rule="evenodd"></path><path id="path4" d="M107.970 161.991 C 105.743 164.196,103.729 166.000,103.494 166.000 C 103.259 166.000,103.174 166.107,103.305 166.239 C 103.436 166.370,102.741 167.315,101.759 168.339 C 99.012 171.203,98.800 171.447,98.800 171.747 C 98.800 171.901,98.215 172.642,97.500 173.394 C 96.785 174.146,95.660 175.502,95.000 176.407 C 94.340 177.313,93.485 178.401,93.100 178.827 C 92.715 179.252,92.497 179.600,92.616 179.600 C 92.734 179.600,92.464 179.994,92.016 180.475 C 91.567 180.957,91.200 181.547,91.200 181.787 C 91.200 182.027,90.840 182.483,90.400 182.800 C 89.960 183.117,89.600 183.697,89.600 184.088 C 89.600 184.480,89.420 184.800,89.200 184.800 C 88.980 184.800,88.800 185.120,88.800 185.512 C 88.800 185.903,88.440 186.483,88.000 186.800 C 87.560 187.117,87.200 187.614,87.200 187.905 C 87.200 188.196,86.840 188.820,86.400 189.292 C 85.960 189.764,85.600 190.387,85.600 190.675 C 85.600 190.964,85.420 191.200,85.200 191.200 C 84.980 191.200,84.800 191.560,84.800 192.000 C 84.800 192.440,84.654 192.800,84.475 192.800 C 84.296 192.800,83.905 193.422,83.607 194.182 C 83.309 194.942,82.953 195.494,82.815 195.410 C 82.678 195.325,82.541 195.587,82.511 195.992 C 82.480 196.397,81.962 197.510,81.359 198.464 C 80.757 199.419,80.266 200.290,80.268 200.400 C 80.281 200.982,79.869 202.000,79.620 202.000 C 79.462 202.000,79.320 202.225,79.304 202.500 C 79.269 203.085,78.292 205.708,78.000 206.000 C 77.890 206.110,77.742 206.470,77.670 206.800 C 77.599 207.130,77.374 207.460,77.170 207.533 C 76.967 207.607,76.800 207.982,76.800 208.367 C 76.800 208.752,76.665 209.202,76.500 209.367 C 76.335 209.532,76.194 209.967,76.186 210.333 C 76.178 210.700,75.945 211.409,75.667 211.908 C 75.390 212.408,75.264 212.980,75.388 213.181 C 75.512 213.381,75.430 213.658,75.207 213.796 C 74.983 213.934,74.800 214.487,74.800 215.024 C 74.800 215.561,74.620 216.000,74.400 216.000 C 74.180 216.000,74.000 216.720,74.000 217.600 C 74.000 218.480,73.820 219.200,73.600 219.200 C 73.380 219.200,73.200 219.841,73.200 220.624 C 73.200 221.471,73.038 221.947,72.800 221.800 C 72.560 221.652,72.400 222.169,72.400 223.096 C 72.400 223.945,72.226 224.814,72.013 225.027 C 71.801 225.239,71.582 226.009,71.526 226.737 C 71.471 227.465,71.285 228.148,71.113 228.254 C 70.941 228.360,70.800 229.257,70.800 230.247 C 70.800 231.237,70.637 231.946,70.437 231.823 C 70.054 231.586,69.707 234.048,69.354 239.500 C 69.237 241.315,68.981 242.800,68.784 242.800 C 68.584 242.800,68.427 247.539,68.427 253.615 C 68.427 260.471,68.569 264.343,68.814 264.192 C 69.026 264.060,69.200 264.429,69.200 265.011 C 69.200 270.137,74.796 284.913,79.498 292.200 C 86.212 302.608,98.817 312.942,110.000 317.207 C 112.658 318.221,113.011 318.341,115.800 319.182 C 151.451 329.933,189.784 307.709,198.216 271.400 C 199.690 265.055,200.000 261.220,200.000 249.335 L 200.000 237.600 165.094 237.600 C 126.127 237.600,128.631 237.772,123.973 234.783 C 108.994 225.171,114.634 201.720,132.356 199.924 C 142.089 198.937,143.313 198.589,147.056 195.742 C 150.774 192.914,152.833 189.631,153.967 184.723 C 155.646 177.447,151.222 168.402,144.342 165.048 C 140.540 163.194,138.127 162.830,129.560 162.814 C 122.197 162.801,120.646 162.626,118.000 161.514 C 115.590 160.500,114.953 160.157,114.200 159.467 C 112.295 157.723,112.269 157.733,107.970 161.991 M139.000 275.200 C 139.136 275.420,139.676 275.600,140.200 275.600 C 140.724 275.600,141.264 275.780,141.400 276.000 C 141.536 276.220,141.997 276.400,142.424 276.400 C 142.851 276.400,143.200 276.536,143.200 276.702 C 143.200 276.869,143.767 277.256,144.460 277.563 C 146.390 278.417,150.094 282.360,151.265 284.808 C 156.803 296.380,151.551 308.335,139.172 312.338 C 137.196 312.977,112.804 312.977,110.828 312.338 C 98.099 308.222,92.838 294.977,99.445 283.684 C 101.473 280.218,107.521 275.600,110.033 275.600 C 110.429 275.600,110.864 275.420,111.000 275.200 C 111.157 274.946,116.263 274.800,125.000 274.800 C 133.737 274.800,138.843 274.946,139.000 275.200 " stroke="none" fill="#5bd3fb" fill-rule="evenodd"></path><path id="path5" d="M189.105 125.483 C 189.602 125.579,190.322 125.575,190.705 125.475 C 191.087 125.375,190.680 125.296,189.800 125.301 C 188.920 125.305,188.607 125.387,189.105 125.483 M218.255 125.800 C 218.498 126.433,220.400 126.652,220.400 126.047 C 220.400 125.852,219.995 125.585,219.500 125.452 C 218.166 125.094,218.002 125.140,218.255 125.800 M176.914 126.542 C 177.132 127.195,178.000 127.322,178.000 126.700 C 178.000 126.388,177.725 126.133,177.389 126.133 C 177.053 126.133,176.839 126.317,176.914 126.542 M223.066 126.627 C 223.187 126.942,223.752 127.200,224.323 127.200 C 225.525 127.200,225.066 126.482,223.694 126.218 C 223.085 126.101,222.908 126.216,223.066 126.627 M168.745 127.958 C 169.206 128.249,169.206 128.337,168.745 128.520 C 168.431 128.645,168.582 128.750,169.100 128.768 C 169.647 128.788,170.000 128.565,170.000 128.200 C 170.000 127.843,169.636 127.602,169.100 127.606 C 168.439 127.611,168.345 127.704,168.745 127.958 M230.800 128.237 C 230.800 128.856,231.823 129.011,232.172 128.445 C 232.292 128.250,232.033 127.997,231.596 127.883 C 231.080 127.748,230.800 127.873,230.800 128.237 M166.582 128.771 C 166.709 128.976,166.446 129.225,166.000 129.325 C 165.275 129.487,165.281 129.501,166.063 129.453 C 166.947 129.399,167.656 128.400,166.810 128.400 C 166.558 128.400,166.456 128.567,166.582 128.771 M162.745 129.558 C 163.206 129.849,163.206 129.941,162.745 130.145 C 162.419 130.289,162.507 130.349,162.967 130.293 C 164.106 130.155,164.253 129.199,163.133 129.206 C 162.454 129.211,162.348 129.306,162.745 129.558 M236.800 129.800 C 236.800 130.167,236.994 130.402,237.230 130.323 C 237.466 130.244,237.660 130.009,237.660 129.800 C 237.660 129.591,237.466 129.356,237.230 129.277 C 236.994 129.198,236.800 129.433,236.800 129.800 M158.133 131.362 C 158.133 131.671,158.373 131.832,158.667 131.719 C 158.960 131.607,159.200 131.354,159.200 131.157 C 159.200 130.961,158.960 130.800,158.667 130.800 C 158.373 130.800,158.133 131.053,158.133 131.362 M156.545 131.800 C 156.418 132.130,156.019 132.414,155.657 132.432 C 155.198 132.454,155.159 132.527,155.530 132.675 C 155.821 132.791,156.413 132.507,156.846 132.043 C 157.278 131.579,157.439 131.200,157.203 131.200 C 156.968 131.200,156.671 131.470,156.545 131.800 M250.000 134.400 C 250.000 134.620,250.270 134.800,250.600 134.800 C 250.930 134.800,251.200 134.620,251.200 134.400 C 251.200 134.180,250.930 134.000,250.600 134.000 C 250.270 134.000,250.000 134.180,250.000 134.400 M145.600 136.000 C 146.376 136.501,146.800 136.501,146.800 136.000 C 146.800 135.780,146.395 135.603,145.900 135.606 C 145.172 135.611,145.115 135.686,145.600 136.000 M254.000 135.967 C 254.000 136.168,254.190 136.397,254.421 136.474 C 255.744 136.915,256.440 145.597,255.399 148.666 C 254.522 151.249,253.603 153.228,252.833 154.193 C 252.239 154.938,252.244 154.952,252.920 154.428 C 253.696 153.826,254.797 151.614,255.817 148.611 C 256.771 145.800,256.202 137.345,254.975 136.118 C 254.367 135.510,254.000 135.453,254.000 135.967 M131.344 143.510 C 131.499 143.760,131.229 144.016,130.706 144.117 C 129.922 144.268,129.948 144.298,130.900 144.346 C 132.025 144.401,132.367 143.874,131.538 143.362 C 131.263 143.192,131.185 143.251,131.344 143.510 M128.758 145.166 C 129.206 145.450,129.167 145.557,128.558 145.713 C 127.916 145.878,127.937 145.914,128.700 145.954 C 129.254 145.982,129.600 145.769,129.600 145.400 C 129.600 145.070,129.285 144.803,128.900 144.806 C 128.340 144.811,128.312 144.883,128.758 145.166 M126.252 147.009 C 126.055 147.521,126.160 147.545,126.909 147.155 C 128.184 146.492,128.233 146.400,127.309 146.400 C 126.856 146.400,126.380 146.674,126.252 147.009 M250.323 157.009 C 248.309 158.931,248.204 159.512,250.200 157.694 C 251.417 156.585,252.621 155.192,252.349 155.209 C 252.267 155.214,251.355 156.024,250.323 157.009 M241.200 162.000 C 240.667 162.345,240.667 162.388,241.200 162.388 C 241.530 162.388,242.070 162.213,242.400 162.000 C 242.933 161.655,242.933 161.612,242.400 161.612 C 242.070 161.612,241.530 161.787,241.200 162.000 M214.800 162.800 C 214.036 163.294,214.858 163.294,216.400 162.800 L 217.400 162.480 216.400 162.446 C 215.850 162.427,215.130 162.587,214.800 162.800 M208.500 165.288 C 208.005 165.527,207.600 165.879,207.600 166.070 C 207.600 166.262,208.050 166.124,208.600 165.763 C 210.067 164.802,210.016 164.557,208.500 165.288 M204.851 168.621 C 202.547 171.141,200.595 174.944,200.242 177.600 C 200.075 178.858,200.114 179.159,200.373 178.600 C 200.577 178.160,200.756 177.384,200.772 176.875 C 200.821 175.260,203.239 170.821,205.296 168.571 C 206.387 167.377,207.190 166.400,207.080 166.400 C 206.970 166.400,205.967 167.399,204.851 168.621 M200.087 183.800 C 200.091 184.240,200.232 185.140,200.400 185.800 C 200.674 186.878,200.706 186.898,200.713 186.000 C 200.717 185.450,200.576 184.550,200.400 184.000 C 200.149 183.216,200.081 183.173,200.087 183.800 M202.186 190.300 C 202.535 191.015,202.906 191.600,203.010 191.600 C 203.408 191.600,203.152 190.963,202.367 190.000 L 201.552 189.000 202.186 190.300 M203.814 192.793 C 205.124 194.449,208.168 197.191,208.700 197.196 C 208.975 197.198,209.200 197.359,209.200 197.553 C 209.200 197.748,209.605 198.010,210.100 198.137 C 210.969 198.360,210.965 198.341,210.000 197.593 C 209.450 197.167,208.825 196.814,208.611 196.809 C 208.397 196.804,207.053 195.675,205.625 194.300 C 204.197 192.925,203.382 192.247,203.814 192.793 M214.000 199.600 C 214.550 199.776,215.360 199.926,215.800 199.932 L 216.600 199.944 215.800 199.600 C 215.360 199.411,214.550 199.262,214.000 199.268 L 213.000 199.280 214.000 199.600 M217.400 200.200 C 218.361 200.528,223.640 200.671,223.142 200.356 C 222.844 200.167,221.340 200.024,219.800 200.038 C 218.260 200.052,217.180 200.125,217.400 200.200 M224.033 200.935 C 224.387 201.222,227.600 202.385,227.600 202.226 C 227.600 201.937,225.106 200.800,224.472 200.800 C 224.139 200.800,223.942 200.861,224.033 200.935 M228.000 202.554 C 228.000 202.639,228.495 203.027,229.100 203.416 L 230.200 204.124 229.438 203.262 C 228.764 202.499,228.000 202.123,228.000 202.554 M231.800 205.600 C 232.659 206.480,233.452 207.200,233.562 207.200 C 233.672 207.200,233.059 206.480,232.200 205.600 C 231.341 204.720,230.548 204.000,230.438 204.000 C 230.328 204.000,230.941 204.720,231.800 205.600 M234.206 208.512 C 234.592 209.124,235.009 209.524,235.132 209.401 C 235.255 209.278,234.939 208.778,234.430 208.289 L 233.504 207.400 234.206 208.512 M236.219 212.777 C 237.866 217.645,237.301 224.232,234.926 227.857 C 234.586 228.376,234.465 228.800,234.656 228.800 C 235.037 228.800,235.667 227.499,236.839 224.293 C 238.229 220.491,237.492 212.311,235.573 210.239 C 235.389 210.041,235.680 211.183,236.219 212.777 M232.200 231.347 C 227.333 236.507,225.766 236.945,211.200 237.212 L 199.400 237.429 210.800 237.509 C 222.723 237.592,223.160 237.544,227.200 235.700 C 228.935 234.907,232.489 231.960,233.614 230.380 C 234.808 228.703,234.484 228.924,232.200 231.347 M233.200 275.600 C 232.396 275.857,232.357 275.923,233.000 275.932 C 233.440 275.938,234.160 275.789,234.600 275.600 C 235.619 275.162,234.568 275.162,233.200 275.600 M228.200 277.600 C 227.540 278.037,227.180 278.392,227.400 278.388 C 227.801 278.382,229.976 276.823,229.600 276.812 C 229.490 276.808,228.860 277.163,228.200 277.600 M329.200 279.400 C 329.200 280.390,329.380 281.200,329.600 281.200 C 329.820 281.200,330.000 280.390,330.000 279.400 C 330.000 278.410,329.820 277.600,329.600 277.600 C 329.380 277.600,329.200 278.410,329.200 279.400 M224.383 280.700 L 222.600 282.600 224.593 280.800 C 225.688 279.810,226.663 278.955,226.759 278.900 C 226.855 278.845,226.761 278.800,226.550 278.800 C 226.339 278.800,225.364 279.655,224.383 280.700 M328.400 283.000 C 328.400 283.550,328.580 284.000,328.800 284.000 C 329.020 284.000,329.200 283.550,329.200 283.000 C 329.200 282.450,329.020 282.000,328.800 282.000 C 328.580 282.000,328.400 282.450,328.400 283.000 M221.673 283.800 C 221.422 284.350,221.283 284.800,221.363 284.800 C 221.443 284.800,221.803 284.350,222.163 283.800 C 222.524 283.250,222.663 282.800,222.473 282.800 C 222.284 282.800,221.923 283.250,221.673 283.800 M327.600 286.600 C 327.600 287.150,327.780 287.600,328.000 287.600 C 328.220 287.600,328.400 287.150,328.400 286.600 C 328.400 286.050,328.220 285.600,328.000 285.600 C 327.780 285.600,327.600 286.050,327.600 286.600 M326.800 289.800 C 326.800 290.350,326.980 290.800,327.200 290.800 C 327.420 290.800,327.600 290.350,327.600 289.800 C 327.600 289.250,327.420 288.800,327.200 288.800 C 326.980 288.800,326.800 289.250,326.800 289.800 M219.069 290.356 C 218.921 291.095,218.820 292.082,218.844 292.550 C 218.868 293.018,219.047 292.590,219.242 291.600 C 219.437 290.610,219.538 289.623,219.467 289.406 C 219.396 289.190,219.217 289.617,219.069 290.356 M326.000 292.776 C 326.000 293.203,326.180 293.664,326.400 293.800 C 326.627 293.940,326.800 293.604,326.800 293.024 C 326.800 292.461,326.620 292.000,326.400 292.000 C 326.180 292.000,326.000 292.349,326.000 292.776 M218.828 295.433 C 218.844 296.075,219.016 296.960,219.210 297.400 C 219.447 297.934,219.486 297.602,219.327 296.400 C 219.046 294.280,218.788 293.780,218.828 295.433 M325.200 295.000 C 325.200 295.330,325.380 295.600,325.600 295.600 C 325.820 295.600,326.000 295.330,326.000 295.000 C 326.000 294.670,325.820 294.400,325.600 294.400 C 325.380 294.400,325.200 294.670,325.200 295.000 M324.400 298.000 C 324.400 298.440,324.580 298.800,324.800 298.800 C 325.020 298.800,325.200 298.440,325.200 298.000 C 325.200 297.560,325.020 297.200,324.800 297.200 C 324.580 297.200,324.400 297.560,324.400 298.000 M323.600 300.400 C 323.600 301.060,323.420 301.600,323.200 301.600 C 322.980 301.600,322.800 302.039,322.800 302.576 C 322.800 303.113,322.620 303.664,322.400 303.800 C 322.180 303.936,322.000 304.397,322.000 304.824 C 322.000 305.251,321.820 305.600,321.600 305.600 C 321.380 305.600,321.200 305.872,321.200 306.205 C 321.200 306.538,320.982 307.160,320.715 307.587 C 320.448 308.014,320.346 308.480,320.489 308.622 C 320.957 309.090,321.600 308.370,321.600 307.376 C 321.600 306.839,321.759 306.400,321.953 306.400 C 322.314 306.400,322.934 304.879,322.828 304.253 C 322.795 304.063,323.050 303.478,323.394 302.953 C 323.737 302.429,323.904 302.000,323.763 302.000 C 323.623 302.000,323.806 301.545,324.171 300.989 C 324.818 300.001,324.731 299.200,323.976 299.200 C 323.769 299.200,323.600 299.740,323.600 300.400 M224.486 307.001 C 225.523 308.079,226.433 308.880,226.507 308.781 C 226.581 308.681,225.733 307.799,224.621 306.820 L 222.600 305.040 224.486 307.001 M228.200 310.000 C 228.860 310.437,229.580 310.795,229.800 310.796 C 230.020 310.796,229.611 310.438,228.890 309.999 C 227.192 308.963,226.636 308.964,228.200 310.000 M319.822 309.565 C 319.674 309.804,319.664 310.180,319.800 310.400 C 319.936 310.620,319.870 310.800,319.653 310.800 C 319.170 310.800,318.160 312.762,317.801 314.396 C 317.655 315.058,317.371 315.600,317.168 315.600 C 316.966 315.600,316.800 315.960,316.800 316.400 C 316.800 316.840,316.620 317.200,316.400 317.200 C 316.180 317.200,316.000 317.470,316.000 317.800 C 316.000 318.863,316.635 318.440,317.200 317.000 C 317.502 316.230,317.896 315.600,318.075 315.600 C 318.254 315.600,318.400 315.139,318.400 314.576 C 318.400 313.996,318.573 313.660,318.800 313.800 C 319.027 313.940,319.200 313.604,319.200 313.024 C 319.200 312.461,319.335 311.999,319.500 311.997 C 320.021 311.991,320.823 309.863,320.445 309.485 C 320.239 309.279,319.978 309.312,319.822 309.565 M233.400 312.000 C 233.840 312.189,234.560 312.344,235.000 312.344 L 235.800 312.344 235.000 312.000 C 234.560 311.811,233.840 311.656,233.400 311.656 L 232.600 311.656 233.400 312.000 M240.033 312.544 C 240.505 312.950,242.443 313.193,242.210 312.816 C 242.068 312.587,241.483 312.400,240.910 312.400 C 240.336 312.400,239.942 312.465,240.033 312.544 M248.445 315.871 C 248.470 316.052,249.587 317.190,250.928 318.400 C 252.701 320.000,253.058 320.218,252.236 319.200 C 250.982 317.646,248.375 315.356,248.445 315.871 M315.200 319.600 C 315.200 320.040,315.020 320.400,314.800 320.400 C 314.580 320.400,314.400 320.670,314.400 321.000 C 314.400 321.330,314.220 321.600,314.000 321.600 C 313.780 321.600,313.600 321.870,313.600 322.200 C 313.600 322.530,313.441 322.800,313.247 322.800 C 313.052 322.800,312.782 323.115,312.646 323.500 C 312.511 323.885,312.295 324.425,312.166 324.700 C 312.038 324.975,312.128 325.200,312.367 325.200 C 312.605 325.200,312.800 324.900,312.800 324.533 C 312.800 324.167,312.916 323.983,313.059 324.125 C 313.201 324.267,313.744 323.541,314.265 322.512 C 314.786 321.482,315.358 320.541,315.536 320.420 C 316.204 319.965,316.385 318.800,315.787 318.800 C 315.464 318.800,315.200 319.160,315.200 319.600 M255.840 327.466 C 256.208 328.999,256.400 329.144,256.400 327.890 C 256.400 327.317,256.213 326.732,255.984 326.590 C 255.711 326.421,255.662 326.723,255.840 327.466 M309.600 328.567 C 309.600 328.878,309.375 329.214,309.100 329.312 C 308.825 329.410,308.726 329.627,308.881 329.793 C 309.205 330.141,310.400 329.068,310.400 328.429 C 310.400 328.193,310.220 328.000,310.000 328.000 C 309.780 328.000,309.600 328.255,309.600 328.567 M307.472 331.585 C 307.087 332.237,306.547 333.002,306.273 333.285 C 305.998 333.568,305.338 334.430,304.806 335.200 C 304.274 335.970,303.729 336.690,303.596 336.800 C 303.463 336.910,303.080 337.401,302.746 337.891 C 302.162 338.746,299.633 341.701,296.905 344.714 C 296.194 345.501,295.685 346.219,295.776 346.309 C 296.009 346.542,301.200 341.298,301.200 340.830 C 301.200 340.618,301.523 340.210,301.917 339.923 C 302.311 339.635,303.256 338.594,304.017 337.610 C 304.778 336.625,305.625 335.577,305.900 335.281 C 306.175 334.985,306.400 334.600,306.400 334.426 C 306.400 334.251,306.937 333.499,307.594 332.754 C 308.743 331.450,309.141 330.400,308.486 330.400 C 308.314 330.400,307.857 330.933,307.472 331.585 M256.049 334.000 C 256.016 334.330,255.889 335.050,255.767 335.600 C 255.575 336.464,255.607 336.503,255.999 335.888 C 256.248 335.497,256.375 334.777,256.281 334.288 C 256.186 333.800,256.082 333.670,256.049 334.000 M250.793 344.608 C 249.316 346.180,246.260 347.990,243.302 349.044 C 241.816 349.574,241.230 349.897,242.000 349.762 C 244.850 349.263,253.805 343.742,251.970 343.616 C 251.843 343.607,251.313 344.053,250.793 344.608 M294.086 347.824 C 293.279 348.686,293.256 348.800,293.886 348.797 C 294.279 348.795,294.808 348.345,295.062 347.797 C 295.641 346.548,295.272 346.559,294.086 347.824 M196.713 350.328 C 196.084 350.577,223.694 350.545,235.000 350.284 C 237.640 350.223,230.260 350.147,218.600 350.115 C 206.940 350.082,197.091 350.179,196.713 350.328 M290.800 351.152 C 290.800 351.346,289.855 352.230,288.700 353.117 C 287.545 354.004,285.835 355.466,284.899 356.365 C 283.964 357.264,283.019 358.000,282.799 358.000 C 282.580 358.000,282.400 358.180,282.400 358.400 C 282.400 358.620,282.207 358.800,281.971 358.800 C 281.522 358.800,280.400 359.779,280.400 360.171 C 280.400 360.681,281.293 360.347,282.199 359.500 C 282.728 359.005,283.397 358.420,283.685 358.200 C 285.515 356.801,288.235 354.529,289.029 353.734 C 289.543 353.220,290.087 352.800,290.238 352.800 C 290.562 352.800,291.569 351.531,291.587 351.100 C 291.594 350.935,291.420 350.800,291.200 350.800 C 290.980 350.800,290.800 350.958,290.800 351.152 M189.185 353.610 L 187.800 354.819 189.390 353.787 C 191.271 352.564,191.456 352.400,190.952 352.400 C 190.742 352.400,189.947 352.944,189.185 353.610 M184.565 358.211 C 183.973 358.987,183.572 359.706,183.675 359.808 C 183.777 359.911,184.332 359.276,184.907 358.397 C 186.201 356.421,186.009 356.317,184.565 358.211 M182.592 361.881 C 182.251 362.696,182.024 363.591,182.086 363.869 C 182.149 364.147,182.498 363.480,182.861 362.387 C 183.638 360.055,183.479 359.758,182.592 361.881 M278.115 361.706 C 277.188 362.418,276.423 363.135,276.415 363.300 C 276.385 363.910,277.115 363.568,278.337 362.400 C 279.028 361.740,279.875 361.200,280.220 361.200 C 280.565 361.200,280.736 361.020,280.600 360.800 C 280.227 360.197,279.948 360.299,278.115 361.706 M274.629 364.209 C 274.205 364.529,273.963 364.896,274.090 365.024 C 274.366 365.299,276.000 364.341,276.000 363.904 C 276.000 363.445,275.488 363.559,274.629 364.209 M272.392 365.810 C 272.114 366.145,272.026 366.550,272.198 366.710 C 272.369 366.869,272.590 366.775,272.688 366.500 C 272.786 366.225,273.132 366.000,273.457 366.000 C 273.782 366.000,273.936 365.820,273.800 365.600 C 273.450 365.033,272.978 365.103,272.392 365.810 M181.240 368.633 C 181.262 369.935,181.418 371.450,181.588 372.000 C 181.757 372.550,181.805 371.560,181.693 369.800 C 181.452 365.990,181.184 365.300,181.240 368.633 M269.097 367.831 C 266.788 369.343,264.354 370.739,262.700 371.499 C 261.875 371.878,261.200 372.326,261.200 372.494 C 261.200 372.662,260.840 372.800,260.400 372.800 C 259.960 372.800,259.600 372.980,259.600 373.200 C 259.600 373.420,259.240 373.600,258.800 373.600 C 258.360 373.600,258.000 373.780,258.000 374.000 C 258.000 374.220,257.640 374.400,257.200 374.400 C 256.760 374.400,256.400 374.580,256.400 374.800 C 256.400 375.020,256.634 375.200,256.920 375.200 C 257.623 375.200,259.593 374.266,259.597 373.932 C 259.599 373.784,260.140 373.545,260.800 373.400 C 261.460 373.255,262.000 372.971,262.000 372.768 C 262.000 372.566,262.360 372.400,262.800 372.400 C 263.240 372.400,263.600 372.190,263.600 371.933 C 263.600 371.677,263.720 371.587,263.868 371.734 C 264.015 371.881,264.420 371.746,264.768 371.432 C 265.115 371.119,265.663 370.804,265.984 370.732 C 266.306 370.659,266.925 370.285,267.360 369.900 C 267.795 369.515,268.347 369.200,268.587 369.200 C 268.827 369.200,269.283 368.840,269.600 368.400 C 269.917 367.960,270.497 367.600,270.888 367.600 C 271.280 367.600,271.600 367.420,271.600 367.200 C 271.600 366.553,270.704 366.779,269.097 367.831 M182.032 373.651 C 181.997 374.362,183.093 377.200,183.402 377.200 C 183.507 377.200,183.340 376.525,183.029 375.700 C 182.719 374.875,182.374 373.930,182.264 373.600 C 182.098 373.103,182.058 373.112,182.032 373.651 M254.800 375.600 C 254.800 375.820,255.070 376.000,255.400 376.000 C 255.730 376.000,256.000 375.820,256.000 375.600 C 256.000 375.380,255.730 375.200,255.400 375.200 C 255.070 375.200,254.800 375.380,254.800 375.600 M251.200 377.200 C 251.200 377.420,251.459 377.600,251.776 377.600 C 252.093 377.600,252.464 377.420,252.600 377.200 C 252.736 376.980,252.477 376.800,252.024 376.800 C 251.571 376.800,251.200 376.980,251.200 377.200 M184.123 378.629 C 184.466 379.305,185.051 380.110,185.422 380.418 C 185.793 380.726,185.615 380.268,185.026 379.400 C 183.633 377.348,183.348 377.105,184.123 378.629 M249.200 378.000 C 249.200 378.220,249.470 378.400,249.800 378.400 C 250.130 378.400,250.400 378.220,250.400 378.000 C 250.400 377.780,250.130 377.600,249.800 377.600 C 249.470 377.600,249.200 377.780,249.200 378.000 M247.600 378.800 C 247.600 379.020,247.870 379.200,248.200 379.200 C 248.530 379.200,248.800 379.020,248.800 378.800 C 248.800 378.580,248.530 378.400,248.200 378.400 C 247.870 378.400,247.600 378.580,247.600 378.800 M245.200 379.600 C 245.200 379.820,245.650 380.000,246.200 380.000 C 246.750 380.000,247.200 379.820,247.200 379.600 C 247.200 379.380,246.750 379.200,246.200 379.200 C 245.650 379.200,245.200 379.380,245.200 379.600 M243.200 380.400 C 243.200 380.620,243.560 380.800,244.000 380.800 C 244.440 380.800,244.800 380.620,244.800 380.400 C 244.800 380.180,244.440 380.000,244.000 380.000 C 243.560 380.000,243.200 380.180,243.200 380.400 M240.800 381.200 C 240.800 381.420,241.059 381.600,241.376 381.600 C 241.693 381.600,242.064 381.420,242.200 381.200 C 242.336 380.980,242.077 380.800,241.624 380.800 C 241.171 380.800,240.800 380.980,240.800 381.200 M238.900 381.492 C 238.625 381.588,238.400 381.832,238.400 382.033 C 238.400 382.506,239.883 382.513,240.174 382.042 C 240.440 381.611,239.599 381.248,238.900 381.492 M236.100 382.292 C 235.228 382.596,235.560 383.200,236.600 383.200 C 237.150 383.200,237.600 383.039,237.600 382.843 C 237.600 382.382,236.743 382.068,236.100 382.292 M188.382 383.378 C 188.690 383.749,189.495 384.334,190.171 384.677 C 191.695 385.452,191.452 385.167,189.400 383.774 C 188.532 383.185,188.074 383.007,188.382 383.378 M232.900 383.065 C 232.625 383.176,232.400 383.432,232.400 383.633 C 232.400 384.131,234.690 384.101,235.000 383.600 C 235.136 383.380,235.071 383.200,234.856 383.200 C 234.641 383.200,234.226 383.124,233.933 383.032 C 233.640 382.939,233.175 382.954,232.900 383.065 M229.880 383.853 C 229.318 384.415,229.624 384.800,230.633 384.800 C 231.282 384.800,231.605 384.614,231.500 384.300 C 231.308 383.722,230.292 383.441,229.880 383.853 M226.290 384.644 C 225.707 385.226,226.026 385.600,227.100 385.594 C 228.300 385.587,229.939 384.823,228.800 384.801 C 228.470 384.794,227.835 384.691,227.390 384.571 C 226.944 384.452,226.449 384.484,226.290 384.644 M221.700 385.465 C 220.584 385.915,221.307 386.455,222.900 386.361 C 225.001 386.238,225.588 385.956,224.573 385.559 C 223.687 385.212,222.429 385.171,221.700 385.465 M216.267 386.267 C 215.635 386.899,216.116 387.200,217.757 387.200 C 218.950 387.200,219.588 387.007,219.745 386.600 C 219.985 385.974,216.859 385.675,216.267 386.267 M196.244 387.371 C 196.528 388.110,197.745 388.235,197.500 387.500 C 197.409 387.225,197.034 386.942,196.668 386.871 C 196.204 386.781,196.076 386.932,196.244 387.371 M207.427 387.159 C 206.186 387.645,207.187 387.912,210.271 387.919 C 212.376 387.924,213.200 387.776,213.359 387.363 C 213.599 386.737,208.916 386.576,207.427 387.159 " stroke="none" fill="#4aa880" fill-rule="evenodd"></path><path id="path6" d="M180.500 125.612 C 179.147 126.156,179.409 126.404,181.300 126.368 C 182.235 126.351,182.774 126.246,182.498 126.134 C 182.221 126.023,182.097 125.767,182.221 125.566 C 182.502 125.112,181.692 125.133,180.500 125.612 M175.878 126.256 C 175.507 126.626,175.953 127.200,176.611 127.200 C 176.948 127.200,177.082 126.958,176.945 126.600 C 176.701 125.964,176.299 125.834,175.878 126.256 M171.600 127.522 C 171.600 127.863,171.984 128.008,172.669 127.927 C 174.196 127.746,174.327 126.880,172.818 126.942 C 172.098 126.971,171.600 127.208,171.600 127.522 M160.000 130.629 C 160.000 131.002,160.272 131.206,160.667 131.129 C 161.670 130.935,161.808 130.000,160.833 130.000 C 160.342 130.000,160.000 130.258,160.000 130.629 M153.200 132.800 C 152.715 133.114,152.772 133.189,153.500 133.194 C 153.995 133.197,154.400 133.020,154.400 132.800 C 154.400 132.299,153.976 132.299,153.200 132.800 M149.000 134.400 C 148.864 134.620,149.123 134.800,149.576 134.800 C 150.029 134.800,150.400 134.620,150.400 134.400 C 150.400 134.180,150.141 134.000,149.824 134.000 C 149.507 134.000,149.136 134.180,149.000 134.400 M147.200 135.200 C 147.200 135.420,147.470 135.600,147.800 135.600 C 148.130 135.600,148.400 135.420,148.400 135.200 C 148.400 134.980,148.130 134.800,147.800 134.800 C 147.470 134.800,147.200 134.980,147.200 135.200 M143.804 136.793 C 143.666 137.017,143.203 137.200,142.776 137.200 C 142.349 137.200,142.000 137.380,142.000 137.600 C 142.000 137.820,142.360 138.000,142.800 138.000 C 143.240 138.000,143.600 137.833,143.600 137.629 C 143.600 137.425,143.915 137.196,144.300 137.120 C 144.781 137.025,144.852 136.888,144.528 136.684 C 144.268 136.521,143.942 136.570,143.804 136.793 M138.000 139.665 C 136.112 140.755,135.683 141.200,136.520 141.200 C 136.894 141.200,137.200 141.020,137.200 140.800 C 137.200 140.580,137.560 140.400,138.000 140.400 C 138.440 140.400,138.800 140.220,138.800 140.000 C 138.800 139.780,139.171 139.600,139.624 139.600 C 140.077 139.600,140.336 139.420,140.200 139.200 C 139.871 138.668,139.645 138.716,138.000 139.665 M132.538 142.773 C 131.844 143.196,131.169 143.435,131.038 143.304 C 130.907 143.174,130.800 143.289,130.800 143.560 C 130.800 144.110,132.503 143.746,132.733 143.147 C 132.807 142.956,133.212 142.800,133.633 142.800 C 134.055 142.800,134.400 142.620,134.400 142.400 C 134.400 141.818,133.959 141.906,132.538 142.773 M124.996 147.604 C 124.366 148.262,123.982 148.800,124.143 148.800 C 124.609 148.800,126.583 146.850,126.352 146.618 C 126.236 146.503,125.626 146.946,124.996 147.604 M122.202 149.598 C 121.803 150.039,121.607 150.400,121.767 150.400 C 122.188 150.400,123.328 149.195,123.112 148.979 C 123.011 148.878,122.602 149.156,122.202 149.598 M120.060 151.068 C 119.334 151.853,119.625 152.064,120.525 151.406 C 120.922 151.115,121.102 150.788,120.924 150.680 C 120.746 150.572,120.357 150.747,120.060 151.068 M118.093 152.800 C 117.818 153.240,117.698 153.600,117.825 153.600 C 118.125 153.600,119.200 152.527,119.200 152.229 C 119.200 151.720,118.562 152.049,118.093 152.800 M116.000 154.249 C 115.670 154.569,114.652 155.535,113.737 156.394 L 112.075 157.957 112.981 158.551 C 113.480 158.878,114.138 159.382,114.444 159.672 C 115.191 160.381,117.671 161.511,120.360 162.367 C 121.136 162.614,125.082 162.806,129.560 162.814 C 134.848 162.824,138.163 163.011,139.742 163.388 C 155.122 167.062,159.471 186.300,147.056 195.742 C 143.313 198.589,142.089 198.937,132.356 199.924 C 116.940 201.486,109.806 219.955,120.167 231.479 C 123.403 235.078,128.437 237.658,131.994 237.540 C 133.297 237.497,133.465 237.436,132.600 237.321 C 108.220 234.087,111.600 200.121,136.313 200.014 C 155.625 199.931,161.826 172.722,144.400 164.528 C 140.090 162.501,139.443 162.400,130.818 162.400 C 121.440 162.400,117.722 161.575,113.893 158.643 C 113.227 158.133,113.293 156.800,113.983 156.800 C 114.437 156.800,116.800 154.448,116.800 153.997 C 116.800 153.507,116.747 153.524,116.000 154.249 M111.000 275.200 C 110.864 275.420,110.429 275.600,110.033 275.600 C 107.521 275.600,101.473 280.218,99.445 283.684 C 92.838 294.977,98.099 308.222,110.828 312.338 C 112.804 312.977,137.196 312.977,139.172 312.338 C 151.551 308.335,156.803 296.380,151.265 284.808 C 150.094 282.360,146.390 278.417,144.460 277.563 C 143.767 277.256,143.200 276.869,143.200 276.702 C 143.200 276.536,142.851 276.400,142.424 276.400 C 141.997 276.400,141.536 276.220,141.400 276.000 C 141.264 275.780,140.724 275.600,140.200 275.600 C 139.676 275.600,139.136 275.420,139.000 275.200 C 138.843 274.946,133.737 274.800,125.000 274.800 C 116.263 274.800,111.157 274.946,111.000 275.200 M140.038 276.186 C 157.882 282.223,156.936 307.050,138.680 311.797 C 135.351 312.663,114.662 312.667,111.343 311.802 C 93.303 307.103,92.271 282.288,109.863 276.195 C 114.175 274.701,135.631 274.695,140.038 276.186 " stroke="none" fill="#6cd4c6" fill-rule="evenodd"></path><path id="path7" d="M107.832 32.632 L 106.000 34.463 106.000 37.425 C 106.000 41.118,102.611 37.335,135.200 70.013 C 164.364 99.257,174.000 109.074,174.000 109.544 C 174.000 109.709,174.630 110.531,175.400 111.372 C 177.339 113.489,177.157 112.351,175.123 109.637 C 174.201 108.407,158.772 92.687,140.837 74.706 C 122.901 56.724,107.817 41.334,107.316 40.506 C 104.538 35.918,108.996 30.084,114.136 31.579 C 115.773 32.056,177.385 93.022,182.388 99.116 C 183.343 100.279,184.592 101.841,185.162 102.586 C 186.240 103.993,188.356 105.358,187.720 104.236 C 187.544 103.925,186.860 103.069,186.200 102.333 C 185.540 101.597,184.464 100.276,183.809 99.397 C 182.219 97.263,116.843 31.826,115.726 31.250 C 113.383 30.043,109.792 30.671,107.832 32.632 " stroke="none" fill="#64ac44" fill-rule="evenodd"></path><path id="path8" d="M252.520 155.100 C 251.058 157.057,250.942 157.172,248.642 158.916 C 246.536 160.513,246.453 160.984,248.538 159.506 C 250.712 157.965,251.648 157.054,252.862 155.300 C 254.315 153.200,254.054 153.047,252.520 155.100 M245.054 161.002 C 244.424 161.331,243.614 161.614,243.254 161.632 C 242.816 161.653,242.770 161.732,243.115 161.870 C 243.602 162.066,246.400 160.968,246.400 160.581 C 246.400 160.318,246.317 160.344,245.054 161.002 M229.200 162.424 C 212.904 162.745,210.878 163.226,206.033 167.925 L 203.800 170.091 206.024 168.146 C 208.697 165.808,212.217 163.976,215.200 163.370 C 215.970 163.214,222.268 163.014,229.197 162.926 C 236.467 162.834,241.955 162.605,242.177 162.383 C 242.387 162.173,242.479 162.038,242.380 162.084 C 242.281 162.131,236.350 162.284,229.200 162.424 M201.405 174.649 C 201.072 175.446,200.821 176.481,200.846 176.949 C 200.890 177.752,200.903 177.755,201.070 177.000 C 201.168 176.560,201.506 175.525,201.821 174.700 C 202.555 172.777,202.205 172.734,201.405 174.649 M200.252 178.900 C 199.948 180.036,199.997 182.706,200.346 183.951 C 200.493 184.474,200.610 183.349,200.606 181.451 C 200.599 177.642,200.596 177.617,200.252 178.900 M200.814 185.905 C 200.806 186.403,200.967 187.123,201.171 187.505 C 201.375 187.887,201.649 188.541,201.780 188.957 C 201.911 189.374,202.102 189.631,202.205 189.529 C 202.307 189.426,202.039 188.366,201.610 187.171 C 201.150 185.893,200.823 185.372,200.814 185.905 M203.200 191.538 C 203.200 191.724,203.588 192.219,204.062 192.638 L 204.924 193.400 204.216 192.300 C 203.486 191.166,203.200 190.951,203.200 191.538 M207.489 196.030 C 207.978 196.539,208.478 196.855,208.601 196.732 C 208.724 196.609,208.324 196.192,207.712 195.806 L 206.600 195.104 207.489 196.030 M215.800 199.580 C 216.561 199.926,219.517 200.164,219.167 199.851 C 219.075 199.769,218.100 199.593,217.000 199.459 C 215.654 199.295,215.261 199.335,215.800 199.580 M223.200 200.382 C 223.530 200.605,224.145 200.791,224.567 200.794 C 225.590 200.802,225.271 200.573,223.800 200.244 C 222.924 200.048,222.762 200.085,223.200 200.382 M225.600 200.966 C 225.600 201.084,226.439 201.562,227.465 202.029 C 228.547 202.523,230.602 204.160,232.365 205.934 C 234.289 207.872,234.972 208.406,234.231 207.395 C 232.474 204.998,229.833 202.760,227.400 201.607 C 226.740 201.294,226.065 200.974,225.900 200.895 C 225.735 200.817,225.600 200.849,225.600 200.966 M234.400 229.257 C 234.400 229.509,233.100 230.994,231.510 232.557 C 229.921 234.121,229.066 235.046,229.610 234.613 C 232.703 232.154,235.713 228.800,234.827 228.800 C 234.592 228.800,234.400 229.006,234.400 229.257 M233.062 275.100 C 232.896 275.368,291.054 275.363,319.800 275.093 C 325.960 275.035,309.006 274.945,282.124 274.894 C 255.242 274.842,233.164 274.935,233.062 275.100 M230.600 276.000 C 230.308 276.473,230.699 276.473,231.800 276.000 C 232.571 275.669,232.569 275.655,231.724 275.628 C 231.242 275.613,230.736 275.780,230.600 276.000 M225.747 278.789 C 222.447 281.322,219.542 285.927,219.036 289.429 C 218.824 290.897,218.845 290.875,219.363 289.098 C 220.581 284.925,223.975 280.312,227.600 277.906 C 228.150 277.541,228.420 277.235,228.200 277.228 C 227.980 277.220,226.876 277.922,225.747 278.789 M218.524 293.800 C 218.526 295.120,218.601 295.612,218.690 294.893 C 218.779 294.174,218.777 293.094,218.686 292.493 C 218.595 291.892,218.522 292.480,218.524 293.800 M219.032 298.200 C 219.371 300.449,221.333 304.308,223.103 306.206 C 225.625 308.911,226.338 309.160,223.966 306.508 C 221.775 304.058,219.627 300.351,219.572 298.925 C 219.556 298.526,219.374 297.840,219.168 297.400 C 218.895 296.821,218.858 297.042,219.032 298.200 M226.400 309.095 C 226.400 309.484,228.014 310.519,228.251 310.282 C 228.347 310.186,227.969 309.810,227.412 309.445 C 226.856 309.080,226.400 308.922,226.400 309.095 M228.800 310.621 C 228.800 311.347,234.247 312.800,236.969 312.800 C 255.682 312.800,262.886 336.630,247.231 346.748 C 245.826 347.657,244.856 348.400,245.076 348.400 C 246.076 348.400,250.494 345.058,251.982 343.175 C 262.009 330.489,253.216 312.508,236.938 312.414 C 235.429 312.406,233.379 312.029,231.638 311.440 C 230.077 310.912,228.800 310.543,228.800 310.621 M296.501 345.885 C 295.567 346.903,294.870 347.803,294.952 347.886 C 295.159 348.092,298.400 344.755,298.400 344.336 C 298.400 343.834,298.338 343.884,296.501 345.885 M292.460 349.851 C 291.943 350.402,291.617 350.950,291.736 351.069 C 291.952 351.285,294.000 349.430,294.000 349.018 C 294.000 348.547,293.356 348.895,292.460 349.851 M239.000 349.600 L 237.400 349.886 239.000 349.915 C 239.880 349.931,240.960 349.789,241.400 349.600 L 242.200 349.256 241.400 349.285 C 240.960 349.301,239.880 349.442,239.000 349.600 M193.659 350.799 C 189.565 352.272,186.362 354.857,183.760 358.789 C 183.168 359.684,182.784 360.517,182.907 360.641 C 183.031 360.764,183.441 360.213,183.819 359.416 C 185.365 356.159,192.235 350.882,195.075 350.772 C 195.474 350.756,196.160 350.589,196.600 350.400 L 197.400 350.056 196.600 350.043 C 196.160 350.035,194.837 350.375,193.659 350.799 M181.378 364.578 C 181.227 365.381,181.194 366.127,181.304 366.237 C 181.414 366.347,181.627 365.781,181.778 364.978 C 181.928 364.175,181.962 363.428,181.852 363.318 C 181.742 363.208,181.528 363.775,181.378 364.578 M181.268 372.000 C 181.262 372.550,181.411 373.360,181.600 373.800 L 181.944 374.600 181.932 373.800 C 181.926 373.360,181.776 372.550,181.600 372.000 L 181.280 371.000 181.268 372.000 M182.800 377.156 C 182.800 377.351,183.169 377.936,183.620 378.456 L 184.440 379.400 183.810 378.100 C 183.190 376.821,182.800 376.456,182.800 377.156 M184.832 380.300 C 186.018 381.867,187.062 382.921,188.200 383.701 C 188.886 384.171,188.378 383.470,187.013 382.062 C 184.651 379.627,183.805 378.943,184.832 380.300 M190.344 385.180 C 190.864 385.631,191.449 386.000,191.644 386.000 C 192.344 386.000,191.979 385.610,190.700 384.990 L 189.400 384.360 190.344 385.180 M194.907 387.364 C 195.664 388.121,196.535 388.206,196.302 387.500 C 196.211 387.225,195.717 386.939,195.204 386.864 C 194.350 386.739,194.325 386.782,194.907 387.364 " stroke="none" fill="#38a8aa" fill-rule="evenodd"></path></g></svg>