<svg id="svg" version="1.1" xmlns="http://www.w3.org/2000/svg" xmlns:xlink="http://www.w3.org/1999/xlink" width="400" height="400" viewBox="0, 0, 400,400"><g id="svgg"><path id="path0" d="M180.603 0.299 C 178.625 0.373,176.834 0.606,176.623 0.817 C 176.412 1.028,175.117 1.200,173.744 1.200 C 172.371 1.200,171.136 1.380,171.000 1.600 C 170.864 1.820,169.874 2.000,168.800 2.000 C 167.726 2.000,166.736 2.180,166.600 2.400 C 166.238 2.986,165.502 2.890,165.835 2.300 C 166.061 1.900,166.010 1.900,165.579 2.300 C 165.282 2.575,164.356 2.800,163.520 2.800 C 162.684 2.800,162.000 2.946,162.000 3.125 C 162.000 3.304,161.145 3.494,160.100 3.548 C 159.055 3.601,158.029 3.815,157.820 4.022 C 157.611 4.230,156.857 4.400,156.144 4.400 C 155.431 4.400,154.736 4.580,154.600 4.800 C 154.464 5.020,153.733 5.200,152.976 5.200 C 152.219 5.200,151.600 5.380,151.600 5.600 C 151.600 5.820,150.891 6.000,150.024 6.000 C 149.157 6.000,148.336 6.180,148.200 6.400 C 148.064 6.620,147.571 6.800,147.105 6.800 C 146.204 6.800,143.861 7.465,142.705 8.049 C 142.323 8.242,141.548 8.400,140.982 8.400 C 140.311 8.400,140.051 8.559,140.236 8.858 C 140.434 9.178,140.172 9.250,139.367 9.096 C 138.720 8.972,137.731 9.126,137.111 9.446 C 136.505 9.760,135.901 9.998,135.771 9.975 C 135.640 9.952,135.413 10.067,135.267 10.231 C 135.120 10.394,135.253 10.382,135.562 10.202 C 135.944 9.981,136.031 10.027,135.832 10.348 C 135.672 10.607,135.068 10.756,134.490 10.679 C 133.906 10.601,132.746 10.931,131.883 11.422 C 131.027 11.908,129.985 12.217,129.568 12.108 C 129.103 11.986,128.714 12.158,128.563 12.552 C 128.427 12.906,128.155 13.096,127.958 12.974 C 127.761 12.852,127.600 12.943,127.600 13.176 C 127.600 13.409,127.396 13.555,127.147 13.500 C 126.594 13.378,126.659 26.487,127.228 29.959 C 127.430 31.192,127.596 33.115,127.598 34.233 C 127.599 35.352,127.769 37.242,127.976 38.433 C 128.183 39.625,128.552 41.950,128.796 43.600 C 130.435 54.693,134.161 68.683,138.037 78.300 C 138.722 79.998,139.200 81.201,139.549 82.100 C 140.853 85.459,144.445 92.791,147.765 98.871 C 150.483 103.848,151.749 105.259,152.862 104.553 C 153.158 104.366,153.490 104.185,153.600 104.152 C 155.075 103.710,155.600 103.448,155.600 103.153 C 155.600 102.959,155.872 102.800,156.205 102.800 C 156.538 102.800,157.168 102.620,157.605 102.400 C 158.042 102.180,158.758 101.820,159.195 101.600 C 159.632 101.380,160.262 101.200,160.595 101.200 C 160.928 101.200,161.200 101.064,161.200 100.897 C 161.200 100.512,164.093 99.600,165.314 99.600 C 165.823 99.600,166.419 99.421,166.638 99.202 C 166.856 98.984,167.509 98.765,168.089 98.717 C 168.668 98.670,169.055 98.488,168.948 98.315 C 168.784 98.050,170.711 97.796,171.700 97.953 C 171.865 97.979,172.000 97.820,172.000 97.600 C 172.000 97.380,172.720 97.200,173.600 97.200 C 174.480 97.200,175.200 97.020,175.200 96.800 C 175.200 96.580,175.638 96.400,176.174 96.400 C 176.710 96.400,177.595 96.230,178.142 96.022 C 178.688 95.814,180.033 95.590,181.130 95.523 C 182.227 95.457,183.041 95.267,182.939 95.101 C 182.836 94.935,183.923 94.800,185.353 94.800 C 186.783 94.800,188.061 94.626,188.192 94.413 C 188.515 93.891,211.485 93.891,211.808 94.413 C 211.939 94.626,213.117 94.800,214.424 94.800 C 215.741 94.800,216.800 94.978,216.800 95.200 C 216.800 95.420,217.689 95.600,218.776 95.600 C 219.863 95.600,220.864 95.780,221.000 96.000 C 221.136 96.220,222.047 96.400,223.024 96.400 C 224.001 96.400,224.800 96.580,224.800 96.800 C 224.800 97.020,225.520 97.200,226.400 97.200 C 227.280 97.200,228.000 97.353,228.000 97.539 C 228.000 97.726,228.567 97.894,229.261 97.914 C 229.954 97.934,230.653 98.162,230.813 98.420 C 231.027 98.767,231.160 98.747,231.320 98.345 C 231.474 97.958,231.546 97.945,231.568 98.300 C 231.586 98.575,231.924 98.800,232.320 98.800 C 232.716 98.800,233.282 99.025,233.579 99.300 C 234.010 99.701,234.060 99.699,233.829 99.290 C 233.667 99.004,234.174 99.136,234.982 99.590 C 235.775 100.036,237.004 100.403,237.712 100.406 C 238.691 100.411,238.856 100.505,238.400 100.800 C 237.947 101.093,238.127 101.189,239.138 101.194 C 239.874 101.197,240.988 101.564,241.612 102.009 C 242.237 102.453,242.895 102.776,243.074 102.726 C 243.253 102.676,244.030 102.980,244.800 103.401 C 245.570 103.822,246.290 104.190,246.400 104.218 C 246.510 104.246,246.922 104.410,247.315 104.583 C 248.781 105.227,250.661 102.358,256.089 91.200 C 257.855 87.570,259.637 83.908,260.050 83.062 C 260.462 82.216,260.800 81.359,260.800 81.158 C 260.800 80.956,261.152 80.028,261.583 79.096 C 266.457 68.543,271.362 46.858,272.780 29.600 C 273.311 23.134,273.458 13.594,273.026 13.636 C 272.841 13.654,272.579 13.518,272.445 13.334 C 272.056 12.803,270.468 12.000,269.805 12.000 C 269.472 12.000,269.200 11.820,269.200 11.600 C 269.200 11.380,269.065 11.243,268.900 11.295 C 268.735 11.347,268.060 11.194,267.400 10.954 C 263.976 9.710,262.121 9.109,261.400 9.011 C 260.960 8.951,260.600 8.864,260.600 8.818 C 260.600 8.772,260.060 8.648,259.400 8.543 C 258.740 8.437,258.140 8.182,258.067 7.975 C 257.993 7.769,257.509 7.600,256.990 7.600 C 256.472 7.600,255.936 7.420,255.800 7.200 C 255.664 6.980,254.843 6.800,253.976 6.800 C 253.109 6.800,252.400 6.620,252.400 6.400 C 252.400 6.180,251.781 6.000,251.024 6.000 C 250.267 6.000,249.536 5.820,249.400 5.600 C 249.264 5.380,248.533 5.200,247.776 5.200 C 247.019 5.200,246.400 5.020,246.400 4.800 C 246.400 4.580,245.860 4.400,245.200 4.400 C 244.540 4.400,244.000 4.255,244.000 4.078 C 244.000 3.901,243.242 3.712,242.315 3.657 C 241.389 3.602,240.364 3.342,240.039 3.079 C 239.556 2.688,239.508 2.711,239.782 3.200 C 240.055 3.688,240.017 3.707,239.579 3.300 C 239.282 3.025,238.266 2.800,237.320 2.800 C 236.374 2.800,235.600 2.637,235.600 2.437 C 235.600 2.237,234.655 1.973,233.500 1.850 C 232.345 1.728,230.050 1.436,228.400 1.202 C 221.788 0.267,217.101 0.082,201.000 0.122 C 191.760 0.146,182.581 0.225,180.603 0.299 M206.000 159.144 C 206.000 159.334,205.185 160.364,204.189 161.433 C 203.193 162.503,202.084 163.771,201.723 164.251 C 201.335 164.767,200.808 165.034,200.434 164.903 C 199.939 164.731,199.903 164.793,200.269 165.190 C 200.527 165.469,200.659 165.901,200.564 166.150 C 200.411 166.548,201.672 168.280,204.535 171.604 C 205.011 172.156,206.208 173.596,207.195 174.804 C 208.181 176.012,209.089 177.090,209.211 177.200 C 209.333 177.310,212.120 180.640,215.404 184.600 C 218.688 188.560,221.473 191.890,221.593 192.000 C 221.713 192.110,222.616 193.190,223.600 194.400 C 224.584 195.610,225.487 196.690,225.607 196.800 C 225.727 196.910,228.509 200.240,231.788 204.200 C 235.068 208.160,237.855 211.490,237.981 211.600 C 238.108 211.710,239.016 212.790,240.000 214.000 C 240.984 215.210,241.882 216.290,241.996 216.400 C 242.110 216.510,243.551 218.220,245.198 220.200 C 252.978 229.549,252.965 229.536,253.895 228.695 C 254.317 228.313,254.863 228.000,255.108 228.000 C 255.353 228.000,255.663 227.822,255.797 227.605 C 255.937 227.378,255.777 227.311,255.421 227.447 C 254.482 227.808,254.670 227.295,255.998 225.878 C 256.657 225.175,257.197 224.441,257.198 224.247 C 257.199 224.053,257.583 223.562,258.052 223.155 C 258.837 222.474,258.856 222.347,258.292 221.508 C 257.794 220.769,251.222 212.656,248.478 209.394 C 248.105 208.950,246.992 207.600,246.005 206.394 C 245.019 205.187,244.116 204.110,244.000 204.000 C 243.884 203.890,242.984 202.810,242.000 201.600 C 241.016 200.390,240.112 199.310,239.991 199.200 C 239.870 199.090,238.614 197.560,237.200 195.800 C 235.786 194.040,234.522 192.510,234.391 192.400 C 234.190 192.231,229.963 187.112,228.000 184.660 C 227.670 184.248,227.219 183.706,226.998 183.455 C 226.777 183.205,225.790 182.010,224.804 180.800 C 223.818 179.590,222.915 178.510,222.799 178.400 C 222.682 178.290,221.333 176.670,219.801 174.800 C 218.269 172.930,216.713 171.040,216.344 170.600 C 215.974 170.160,214.119 167.910,212.221 165.600 C 206.279 158.365,206.000 158.076,206.000 159.144 M145.700 230.998 C 145.425 231.311,145.200 231.732,145.200 231.935 C 145.200 232.138,144.480 233.045,143.600 233.952 C 142.720 234.859,142.000 235.692,142.000 235.804 C 142.000 235.916,141.560 236.500,141.023 237.103 C 139.704 238.584,139.695 238.541,141.856 241.044 C 142.902 242.256,144.031 243.642,144.365 244.124 C 144.699 244.606,145.310 245.360,145.723 245.800 C 146.137 246.240,148.028 248.490,149.927 250.800 C 151.826 253.110,153.612 255.241,153.896 255.535 C 154.180 255.829,154.903 256.729,155.504 257.535 C 156.104 258.341,156.694 259.090,156.815 259.200 C 156.936 259.310,160.239 263.270,164.153 268.000 C 171.820 277.263,171.721 277.142,174.400 280.402 C 175.390 281.607,176.588 283.044,177.061 283.596 C 177.535 284.148,179.036 285.950,180.396 287.600 C 181.756 289.250,183.168 290.963,183.534 291.406 C 183.900 291.850,185.008 293.200,185.995 294.406 C 186.981 295.613,187.888 296.690,188.009 296.800 C 188.130 296.910,189.388 298.440,190.805 300.200 C 194.560 304.863,194.277 304.655,195.421 303.580 C 195.960 303.074,196.400 302.504,196.400 302.312 C 196.400 301.628,198.213 300.183,198.900 300.320 C 199.285 300.396,199.600 300.255,199.600 300.006 C 199.600 299.757,199.392 299.682,199.137 299.839 C 198.678 300.122,198.764 299.431,199.369 297.973 C 199.528 297.592,199.194 296.795,198.515 295.935 C 197.902 295.159,196.950 293.927,196.400 293.198 C 195.850 292.469,194.590 290.850,193.600 289.600 C 192.610 288.350,191.350 286.728,190.800 285.996 C 190.250 285.263,188.353 282.850,186.584 280.632 C 184.816 278.414,182.478 275.430,181.389 274.000 C 180.300 272.570,179.191 271.130,178.924 270.800 C 178.657 270.470,177.161 268.580,175.600 266.600 C 174.039 264.620,172.542 262.730,172.273 262.400 C 171.716 261.717,167.728 256.562,164.262 252.046 C 162.976 250.371,161.533 248.550,161.055 248.000 C 160.577 247.450,159.744 246.370,159.204 245.600 C 158.664 244.830,157.891 243.840,157.486 243.400 C 157.081 242.960,154.646 239.860,152.075 236.512 C 147.486 230.536,146.703 229.859,145.700 230.998 " stroke="none" fill="#dc344c" fill-rule="evenodd"></path><path id="path1" d="M273.453 24.300 C 273.182 35.354,272.440 42.011,270.400 51.700 C 270.180 52.745,269.846 54.365,269.658 55.300 C 269.000 58.567,266.808 66.242,265.060 71.400 C 260.084 86.080,250.820 104.800,248.530 104.800 C 248.239 104.800,248.000 105.070,248.000 105.400 C 248.000 105.730,247.855 106.000,247.677 106.000 C 247.499 106.000,247.036 106.720,246.648 107.600 C 246.260 108.480,245.775 109.200,245.571 109.200 C 245.367 109.200,245.200 109.476,245.200 109.813 C 245.200 110.149,244.930 110.529,244.600 110.655 C 244.270 110.782,244.000 111.123,244.000 111.412 C 244.000 111.702,243.550 112.473,243.000 113.127 C 242.450 113.781,242.000 114.448,242.000 114.611 C 242.000 114.773,241.612 115.242,241.139 115.653 C 240.665 116.064,240.402 116.400,240.555 116.400 C 240.845 116.400,240.392 117.004,238.924 118.577 C 238.443 119.093,238.143 119.610,238.259 119.725 C 238.374 119.841,238.078 120.144,237.600 120.400 C 237.122 120.656,236.831 120.964,236.952 121.085 C 237.073 121.206,236.638 121.804,235.986 122.413 C 235.334 123.022,234.800 123.749,234.800 124.027 C 234.800 124.306,234.681 124.414,234.535 124.268 C 234.389 124.123,233.669 124.897,232.933 125.989 C 232.198 127.080,231.232 128.169,230.787 128.407 C 230.342 128.645,230.055 128.966,230.150 129.120 C 230.245 129.274,229.530 130.208,228.562 131.195 C 227.593 132.182,226.800 133.120,226.800 133.279 C 226.800 133.438,226.406 133.936,225.925 134.384 C 225.443 134.833,225.171 135.200,225.321 135.200 C 225.470 135.200,225.099 135.695,224.496 136.300 C 223.893 136.905,223.192 137.760,222.937 138.200 C 222.683 138.640,222.278 138.955,222.037 138.900 C 221.797 138.845,221.595 139.025,221.589 139.300 C 221.583 139.575,220.774 140.700,219.790 141.800 C 218.807 142.900,217.899 144.118,217.772 144.506 C 217.646 144.894,217.375 145.108,217.171 144.982 C 216.967 144.856,216.800 144.919,216.800 145.123 C 216.800 145.326,215.905 146.462,214.811 147.647 C 213.717 148.831,212.817 149.898,212.811 150.017 C 212.805 150.136,211.991 151.126,211.002 152.217 C 210.013 153.308,209.203 154.353,209.202 154.540 C 209.201 154.726,208.660 155.383,208.000 156.000 C 206.527 157.376,206.513 157.859,207.906 159.445 C 208.508 160.130,211.340 163.534,214.200 167.010 C 217.060 170.486,219.581 173.526,219.802 173.765 C 220.023 174.004,221.012 175.190,222.000 176.400 C 222.988 177.610,223.977 178.804,224.198 179.053 C 224.419 179.302,225.230 180.290,226.000 181.248 C 226.770 182.207,229.791 185.873,232.714 189.395 C 235.636 192.918,238.246 196.070,238.514 196.400 C 238.781 196.730,241.687 200.240,244.970 204.200 C 248.253 208.160,251.672 212.300,252.568 213.400 C 253.464 214.500,254.377 215.604,254.598 215.853 C 254.819 216.102,255.630 217.089,256.400 218.046 C 259.361 221.727,260.400 222.591,260.400 221.371 C 260.400 220.626,261.397 219.531,261.752 219.886 C 261.889 220.022,262.000 219.833,262.000 219.467 C 262.000 219.100,262.180 218.800,262.400 218.800 C 262.620 218.800,262.800 218.602,262.800 218.360 C 262.800 218.119,263.310 217.444,263.934 216.860 C 264.558 216.277,264.998 215.591,264.913 215.337 C 264.828 215.082,264.975 214.739,265.241 214.575 C 265.568 214.373,265.619 214.445,265.400 214.800 C 265.186 215.146,265.233 215.227,265.538 215.038 C 265.792 214.881,266.000 214.575,266.000 214.358 C 266.000 214.141,266.450 213.514,267.000 212.964 C 267.550 212.414,268.000 211.811,268.000 211.624 C 268.000 211.437,268.539 210.707,269.198 210.002 C 269.858 209.296,270.297 208.557,270.175 208.359 C 270.053 208.162,270.221 208.000,270.549 208.000 C 270.878 208.000,271.260 207.640,271.400 207.200 C 271.540 206.760,271.852 206.400,272.094 206.400 C 272.335 206.400,272.414 206.281,272.269 206.136 C 272.124 205.991,272.367 205.618,272.809 205.309 C 273.252 204.999,273.510 204.578,273.383 204.373 C 273.256 204.168,273.433 204.000,273.776 204.000 C 274.139 204.000,274.400 203.656,274.400 203.176 C 274.400 202.723,274.553 202.447,274.740 202.563 C 274.927 202.678,275.317 202.329,275.607 201.786 C 275.898 201.244,276.285 200.800,276.468 200.800 C 276.650 200.800,276.801 200.575,276.802 200.300 C 276.803 200.025,277.352 199.215,278.022 198.500 C 278.692 197.785,279.150 197.200,279.039 197.200 C 278.929 197.200,279.280 196.724,279.819 196.142 C 280.359 195.559,280.800 194.919,280.800 194.718 C 280.800 194.517,280.980 194.464,281.200 194.600 C 281.420 194.736,281.600 194.567,281.600 194.224 C 281.600 193.881,281.741 193.600,281.914 193.600 C 282.086 193.600,282.543 193.067,282.928 192.415 C 283.313 191.763,283.847 190.997,284.114 190.713 C 284.381 190.430,285.453 189.118,286.495 187.799 C 287.537 186.479,288.662 185.115,288.995 184.766 C 289.328 184.418,289.600 184.005,289.600 183.850 C 289.600 183.541,290.104 182.892,291.509 181.390 C 292.009 180.855,292.459 180.279,292.509 180.109 C 292.559 179.939,292.748 179.849,292.930 179.910 C 293.111 179.970,293.157 179.854,293.031 179.651 C 292.829 179.324,293.234 178.772,295.779 175.900 C 296.121 175.515,296.400 175.129,296.400 175.042 C 296.400 174.956,296.940 174.307,297.600 173.600 C 298.260 172.893,298.800 172.107,298.800 171.853 C 298.800 171.598,299.264 171.042,299.831 170.616 C 300.397 170.190,301.102 169.383,301.396 168.821 C 301.690 168.259,302.501 167.222,303.198 166.515 C 303.895 165.808,304.362 165.062,304.235 164.857 C 304.108 164.652,304.264 164.384,304.581 164.262 C 304.899 164.141,305.464 163.447,305.838 162.721 C 306.212 161.994,306.879 161.085,307.320 160.700 C 307.762 160.315,308.001 160.000,307.853 160.000 C 307.450 160.000,309.045 157.027,309.771 156.424 C 310.117 156.137,310.400 155.474,310.400 154.951 C 310.400 154.428,310.580 154.000,310.800 154.000 C 311.020 154.000,311.200 153.640,311.200 153.200 C 311.200 152.760,311.380 152.400,311.600 152.400 C 311.820 152.400,312.000 152.074,312.000 151.675 C 312.000 151.276,312.336 150.241,312.748 149.375 C 313.159 148.509,313.722 146.810,314.000 145.600 C 314.278 144.390,314.629 143.220,314.782 143.000 C 314.934 142.780,315.108 141.792,315.167 140.804 C 315.226 139.815,315.418 138.735,315.593 138.404 C 316.092 137.457,316.118 122.120,315.621 121.813 C 315.387 121.669,315.200 120.230,315.200 118.576 C 315.200 116.939,315.034 115.600,314.832 115.600 C 314.629 115.600,314.370 114.295,314.257 112.700 C 313.973 108.705,313.585 106.271,313.159 105.820 C 312.962 105.611,312.800 104.475,312.800 103.296 C 312.800 102.117,312.639 101.252,312.442 101.374 C 312.107 101.581,311.910 100.706,311.347 96.500 C 311.222 95.565,310.958 94.800,310.760 94.800 C 310.562 94.800,310.400 94.181,310.400 93.424 C 310.400 92.667,310.220 91.936,310.000 91.800 C 309.780 91.664,309.600 91.124,309.600 90.600 C 309.600 90.076,309.420 89.536,309.200 89.400 C 308.980 89.264,308.800 88.722,308.800 88.195 C 308.800 87.669,308.639 86.824,308.442 86.319 C 308.245 85.813,307.853 84.590,307.571 83.600 C 307.289 82.610,306.966 81.628,306.854 81.417 C 306.742 81.206,306.603 80.593,306.546 80.053 C 306.488 79.514,306.229 78.941,305.969 78.781 C 305.710 78.621,305.614 78.302,305.755 78.072 C 305.897 77.843,305.827 77.540,305.600 77.400 C 305.373 77.260,305.283 76.990,305.400 76.800 C 305.517 76.610,305.446 76.352,305.241 76.226 C 305.037 76.099,304.742 75.232,304.586 74.298 C 304.430 73.364,304.145 72.500,303.953 72.378 C 303.761 72.255,303.565 71.683,303.517 71.106 C 303.469 70.530,303.288 70.145,303.115 70.252 C 302.942 70.360,302.799 70.122,302.799 69.724 C 302.798 69.326,302.438 68.411,301.999 67.690 C 301.559 66.970,301.200 66.042,301.200 65.628 C 301.200 64.932,300.682 63.734,298.744 59.946 C 298.335 59.146,298.000 58.201,298.000 57.846 C 298.000 57.490,297.820 57.200,297.600 57.200 C 297.380 57.200,297.200 56.750,297.200 56.200 C 297.200 55.650,297.065 55.199,296.900 55.197 C 296.541 55.193,295.600 53.256,295.600 52.520 C 295.600 52.234,295.420 52.000,295.200 52.000 C 294.980 52.000,294.800 51.651,294.800 51.224 C 294.800 50.797,294.620 50.336,294.400 50.200 C 294.180 50.064,294.000 49.593,294.000 49.153 C 294.000 48.713,293.820 48.464,293.600 48.600 C 293.373 48.740,293.200 48.404,293.200 47.824 C 293.200 47.261,293.020 46.800,292.800 46.800 C 292.580 46.800,292.400 46.440,292.400 46.000 C 292.400 45.560,292.220 45.200,292.000 45.200 C 291.780 45.200,291.600 44.930,291.600 44.600 C 291.600 44.270,291.420 44.000,291.200 44.000 C 290.980 44.000,290.800 43.751,290.800 43.446 C 290.800 42.585,289.755 40.778,289.439 41.094 C 289.285 41.249,289.276 41.066,289.422 40.688 C 289.573 40.293,289.497 40.000,289.243 40.000 C 288.999 40.000,288.800 39.735,288.800 39.412 C 288.800 39.089,288.410 38.144,287.933 37.312 C 285.260 32.654,284.000 30.229,284.000 29.745 C 284.000 29.445,283.820 29.200,283.600 29.200 C 283.380 29.200,283.200 28.930,283.200 28.600 C 283.200 28.270,283.042 28.000,282.849 28.000 C 282.655 28.000,282.273 27.460,282.000 26.800 C 281.727 26.140,281.345 25.600,281.151 25.600 C 280.958 25.600,280.800 25.229,280.800 24.776 C 280.800 24.323,280.620 24.064,280.400 24.200 C 280.180 24.336,280.000 24.122,280.000 23.724 C 279.999 23.326,279.553 22.482,279.008 21.848 C 278.463 21.214,278.131 20.511,278.270 20.286 C 278.416 20.051,278.327 19.998,278.062 20.162 C 277.788 20.331,277.600 20.193,277.600 19.824 C 277.600 19.481,277.420 19.200,277.200 19.200 C 276.980 19.200,276.800 18.840,276.800 18.400 C 276.800 17.960,276.665 17.599,276.500 17.599 C 276.335 17.598,275.840 17.059,275.400 16.400 C 273.840 14.065,273.689 14.681,273.453 24.300 M138.000 239.400 C 137.726 239.730,137.607 240.000,137.735 240.000 C 137.864 240.000,137.256 240.706,136.384 241.569 C 135.513 242.431,134.800 243.331,134.800 243.569 C 134.800 243.806,134.642 244.000,134.448 244.000 C 134.254 244.000,133.363 244.945,132.466 246.100 C 131.570 247.255,130.097 249.010,129.192 250.000 C 128.288 250.990,127.251 252.295,126.888 252.900 C 126.525 253.505,126.086 254.000,125.914 254.000 C 125.741 254.000,125.600 254.194,125.600 254.431 C 125.600 254.669,124.880 255.554,124.000 256.400 C 123.120 257.246,122.400 258.137,122.400 258.382 C 122.400 258.627,121.770 259.457,121.000 260.227 C 120.230 260.997,119.600 261.801,119.600 262.013 C 119.600 262.226,119.330 262.400,119.000 262.400 C 118.670 262.400,118.400 262.588,118.400 262.818 C 118.400 263.048,117.995 263.657,117.500 264.172 C 117.005 264.687,116.060 265.776,115.400 266.592 C 114.740 267.409,113.685 268.644,113.056 269.338 C 112.427 270.032,111.504 271.230,111.004 272.000 C 110.505 272.770,109.265 274.273,108.249 275.340 C 107.231 276.410,106.521 277.487,106.666 277.740 C 106.810 277.993,106.793 278.078,106.627 277.929 C 106.309 277.644,103.221 280.760,103.251 281.336 C 103.261 281.520,102.457 282.449,101.465 283.400 C 100.473 284.350,99.734 285.200,99.823 285.289 C 99.911 285.378,99.372 286.099,98.625 286.891 C 97.877 287.684,97.371 288.438,97.499 288.566 C 97.628 288.695,97.474 288.800,97.158 288.800 C 96.841 288.800,96.234 289.446,95.809 290.236 C 95.384 291.025,94.598 292.015,94.064 292.436 C 93.529 292.856,93.205 293.200,93.342 293.200 C 93.480 293.200,93.054 293.714,92.396 294.343 C 91.738 294.972,91.200 295.703,91.200 295.967 C 91.200 296.231,91.020 296.336,90.800 296.200 C 90.580 296.064,90.400 296.233,90.400 296.576 C 90.400 296.919,90.220 297.200,90.000 297.200 C 89.780 297.200,89.600 297.383,89.600 297.607 C 89.600 298.170,86.054 301.519,85.761 301.232 C 85.631 301.105,85.586 301.289,85.662 301.643 C 85.738 301.997,85.215 302.834,84.500 303.504 C 83.785 304.173,83.200 304.907,83.200 305.134 C 83.200 305.360,82.816 305.668,82.347 305.817 C 81.677 306.029,81.613 306.163,82.047 306.438 C 82.404 306.664,82.432 306.790,82.127 306.794 C 81.867 306.797,81.540 307.160,81.400 307.600 C 81.260 308.040,80.976 308.400,80.767 308.400 C 80.343 308.400,78.030 310.833,78.012 311.299 C 78.005 311.464,77.370 312.266,76.600 313.082 C 75.830 313.899,75.200 314.693,75.200 314.847 C 75.200 315.002,74.210 316.158,73.000 317.418 C 71.790 318.677,70.800 319.869,70.800 320.067 C 70.800 320.265,70.215 321.028,69.500 321.763 C 68.785 322.498,67.750 323.689,67.200 324.410 C 66.650 325.131,65.660 326.279,65.000 326.961 C 64.340 327.642,63.269 328.920,62.620 329.800 C 61.972 330.680,61.117 331.691,60.721 332.047 C 60.324 332.403,60.000 332.854,60.000 333.051 C 60.000 333.247,59.640 333.632,59.200 333.907 C 58.760 334.182,58.400 334.675,58.400 335.003 C 58.400 335.332,58.220 335.600,58.000 335.600 C 57.780 335.600,57.600 335.960,57.600 336.400 C 57.600 336.840,57.464 337.200,57.298 337.200 C 56.907 337.200,55.972 339.312,55.892 340.376 C 55.858 340.829,55.688 341.200,55.515 341.200 C 55.342 341.200,55.200 341.751,55.200 342.424 C 55.200 343.137,55.033 343.544,54.800 343.400 C 54.549 343.245,54.400 344.129,54.400 345.776 C 54.400 347.259,54.226 348.400,54.000 348.400 C 53.780 348.400,53.600 348.850,53.600 349.400 C 53.600 349.950,53.751 350.400,53.937 350.400 C 54.122 350.400,54.314 351.255,54.363 352.300 C 54.524 355.672,54.582 355.913,56.027 359.111 C 56.452 360.052,56.800 361.087,56.800 361.411 C 56.800 361.735,56.980 362.000,57.200 362.000 C 57.420 362.000,57.600 362.360,57.600 362.800 C 57.600 363.240,57.768 363.600,57.973 363.600 C 58.178 363.600,58.451 363.931,58.580 364.336 C 58.872 365.257,64.535 371.200,65.121 371.200 C 65.358 371.200,65.681 371.408,65.838 371.662 C 66.027 371.967,65.946 372.014,65.600 371.800 C 65.254 371.586,65.173 371.633,65.362 371.938 C 65.519 372.192,65.849 372.400,66.095 372.400 C 66.342 372.400,67.126 372.985,67.839 373.700 C 68.551 374.415,69.883 375.630,70.798 376.400 C 71.713 377.170,73.416 378.700,74.582 379.800 C 75.748 380.900,77.559 382.475,78.606 383.300 C 79.653 384.125,80.373 384.800,80.206 384.800 C 80.039 384.800,80.124 385.068,80.396 385.396 C 80.668 385.723,81.050 385.893,81.245 385.772 C 81.440 385.651,81.600 385.844,81.600 386.200 C 81.600 386.556,81.780 386.736,82.000 386.600 C 82.220 386.464,82.400 386.633,82.400 386.976 C 82.400 387.538,82.867 387.779,83.700 387.647 C 83.865 387.621,84.000 387.900,84.000 388.267 C 84.000 388.633,84.104 388.829,84.231 388.703 C 84.358 388.576,84.962 388.996,85.574 389.636 C 86.186 390.276,86.903 390.800,87.167 390.800 C 87.431 390.800,87.572 390.935,87.480 391.100 C 87.388 391.265,87.917 391.990,88.656 392.711 C 89.395 393.433,90.005 393.883,90.012 393.711 C 90.019 393.540,90.208 393.715,90.432 394.100 C 90.656 394.485,91.021 394.800,91.242 394.800 C 91.463 394.800,92.219 395.339,92.922 395.998 C 93.625 396.657,94.425 397.197,94.700 397.198 C 94.975 397.199,95.200 397.380,95.200 397.600 C 95.200 397.820,95.524 398.000,95.920 398.000 C 96.316 398.000,96.856 398.216,97.120 398.480 C 97.384 398.744,97.600 398.813,97.600 398.634 C 97.600 398.455,98.095 398.644,98.700 399.054 C 100.079 399.989,114.756 400.202,115.659 399.300 C 115.935 399.025,116.574 398.800,117.080 398.800 C 117.586 398.800,118.000 398.620,118.000 398.400 C 118.000 398.180,118.450 398.000,119.000 398.000 C 119.550 398.000,120.000 397.841,120.000 397.646 C 120.000 397.451,120.630 396.992,121.399 396.627 C 123.772 395.501,132.000 386.658,132.000 385.234 C 132.000 384.995,132.270 384.800,132.600 384.800 C 132.930 384.800,133.200 384.549,133.200 384.242 C 133.200 383.936,133.701 383.148,134.314 382.492 C 134.926 381.837,135.902 380.603,136.482 379.750 C 137.062 378.898,138.046 377.660,138.669 377.000 C 139.291 376.340,140.245 375.139,140.788 374.330 C 141.330 373.522,141.943 372.965,142.149 373.092 C 142.355 373.219,142.394 373.114,142.236 372.858 C 141.916 372.340,143.346 370.279,143.747 370.680 C 143.886 370.819,144.000 370.644,144.000 370.289 C 144.000 369.935,144.315 369.410,144.700 369.123 C 145.085 368.835,145.652 368.111,145.960 367.514 C 146.268 366.916,146.673 366.522,146.860 366.637 C 147.047 366.753,147.201 366.612,147.202 366.324 C 147.203 366.036,147.743 365.225,148.402 364.522 C 149.061 363.819,149.600 363.054,149.600 362.822 C 149.600 362.590,149.780 362.400,150.000 362.400 C 150.220 362.400,150.400 362.119,150.400 361.776 C 150.400 361.433,150.580 361.264,150.800 361.400 C 151.020 361.536,151.200 361.455,151.200 361.220 C 151.200 360.985,151.741 360.227,152.402 359.535 C 153.062 358.844,154.219 357.360,154.972 356.239 C 155.725 355.118,156.894 353.604,157.570 352.875 C 158.247 352.147,158.800 351.331,158.800 351.064 C 158.800 350.796,159.160 350.317,159.600 350.000 C 160.040 349.683,160.400 349.285,160.400 349.116 C 160.400 348.822,161.245 347.696,162.300 346.584 C 162.575 346.294,162.800 345.834,162.800 345.562 C 162.800 345.290,162.909 345.176,163.043 345.309 C 163.330 345.597,164.382 344.710,164.171 344.358 C 164.091 344.226,164.831 343.276,165.816 342.248 C 166.801 341.220,167.651 340.158,167.704 339.889 C 167.757 339.620,168.295 338.903,168.900 338.297 C 169.505 337.690,170.000 337.081,170.000 336.945 C 170.000 336.716,171.642 334.675,173.588 332.486 C 174.034 331.983,174.400 331.438,174.400 331.274 C 174.400 331.111,174.760 330.717,175.200 330.400 C 175.640 330.083,176.000 329.569,176.000 329.259 C 176.000 328.948,176.317 328.403,176.704 328.047 C 177.092 327.691,177.899 326.741,178.498 325.935 C 179.098 325.129,179.852 324.205,180.175 323.882 C 180.498 323.559,180.650 323.184,180.514 323.048 C 180.378 322.911,180.555 322.800,180.906 322.800 C 181.258 322.800,181.663 322.431,181.806 321.980 C 181.949 321.529,182.670 320.557,183.407 319.820 C 184.144 319.083,184.668 318.401,184.571 318.304 C 184.474 318.208,184.756 317.802,185.198 317.402 C 185.639 317.003,186.000 316.538,186.000 316.369 C 186.000 316.094,186.635 315.352,189.235 312.586 C 189.656 312.138,190.000 311.483,190.000 311.131 C 190.000 310.778,190.538 310.065,191.196 309.545 C 191.854 309.025,192.395 308.420,192.397 308.200 C 192.399 307.980,192.896 307.278,193.500 306.641 L 194.600 305.481 193.200 304.001 C 192.430 303.188,191.530 302.177,191.200 301.755 C 190.670 301.077,188.245 298.114,186.332 295.806 C 185.964 295.363,183.287 292.120,180.383 288.600 C 177.479 285.080,174.424 281.390,173.594 280.400 C 171.724 278.170,161.344 265.623,160.683 264.794 C 159.356 263.128,156.547 259.740,156.120 259.290 C 155.855 259.010,154.954 257.930,154.119 256.890 C 153.283 255.851,152.499 254.910,152.375 254.800 C 152.251 254.690,150.546 252.620,148.587 250.200 C 146.628 247.780,144.792 245.559,144.507 245.265 C 144.221 244.971,143.496 244.075,142.894 243.274 C 142.292 242.473,141.305 241.292,140.700 240.650 C 140.095 240.007,139.600 239.328,139.600 239.141 C 139.600 238.582,138.536 238.754,138.000 239.400 " stroke="none" fill="#e45363" fill-rule="evenodd"></path><path id="path2" d="M124.050 17.623 C 123.527 18.729,123.011 19.544,122.902 19.435 C 122.687 19.220,121.600 20.188,121.600 20.595 C 121.600 20.734,121.798 20.725,122.040 20.575 C 122.349 20.384,122.345 20.556,122.026 21.152 C 121.776 21.618,121.398 22.000,121.186 22.000 C 120.974 22.000,120.800 22.341,120.800 22.757 C 120.800 23.174,120.569 23.603,120.287 23.711 C 120.004 23.820,119.419 24.647,118.987 25.550 C 118.554 26.452,118.065 27.193,117.900 27.195 C 117.735 27.198,117.600 27.481,117.600 27.824 C 117.600 28.167,117.420 28.336,117.200 28.200 C 116.972 28.059,116.800 28.404,116.800 29.000 C 116.800 29.596,116.628 29.941,116.400 29.800 C 116.180 29.664,116.000 29.861,116.000 30.239 C 116.000 30.616,115.541 31.526,114.980 32.262 C 114.418 32.998,114.065 33.600,114.195 33.600 C 114.325 33.600,114.077 33.980,113.645 34.444 C 113.213 34.908,112.944 35.509,113.048 35.780 C 113.151 36.050,112.960 36.501,112.623 36.781 C 112.285 37.061,112.113 37.460,112.241 37.667 C 112.369 37.873,112.080 38.383,111.600 38.800 C 111.120 39.217,110.846 39.752,110.993 39.989 C 111.140 40.226,111.045 40.370,110.783 40.310 C 110.521 40.249,110.247 40.557,110.175 40.993 C 110.103 41.429,109.854 41.849,109.622 41.926 C 109.390 42.003,109.200 42.412,109.200 42.833 C 109.200 43.255,109.020 43.600,108.800 43.600 C 108.580 43.600,108.443 43.735,108.495 43.900 C 108.617 44.286,107.539 46.935,107.148 47.208 C 106.706 47.517,105.149 51.282,105.371 51.504 C 105.476 51.609,105.308 51.949,104.998 52.259 C 104.688 52.569,104.548 53.119,104.686 53.481 C 104.881 53.988,104.775 54.076,104.225 53.865 C 103.698 53.663,103.570 53.746,103.738 54.184 C 103.864 54.510,103.704 55.039,103.383 55.360 C 103.062 55.681,102.800 56.215,102.800 56.548 C 102.800 56.881,102.615 57.267,102.389 57.407 C 102.164 57.546,102.005 57.872,102.037 58.130 C 102.154 59.079,101.991 59.642,101.659 59.437 C 101.472 59.321,101.095 59.972,100.822 60.884 C 100.549 61.796,100.051 62.960,99.717 63.471 C 99.382 63.982,99.241 64.400,99.403 64.400 C 99.565 64.400,99.511 64.625,99.283 64.900 C 98.870 65.398,98.800 65.618,98.800 66.424 C 98.800 66.657,98.633 66.744,98.428 66.618 C 98.217 66.487,98.127 66.952,98.219 67.694 C 98.335 68.636,98.273 68.833,97.996 68.400 C 97.667 67.886,97.604 67.900,97.556 68.500 C 97.447 69.866,97.396 70.032,97.000 70.315 C 96.780 70.472,96.590 71.050,96.577 71.600 C 96.565 72.150,96.357 72.561,96.115 72.512 C 95.873 72.464,95.725 72.734,95.787 73.112 C 95.849 73.491,95.631 74.108,95.302 74.485 C 94.972 74.862,94.802 75.429,94.924 75.746 C 95.045 76.063,95.022 76.444,94.872 76.594 C 94.723 76.744,94.578 77.032,94.550 77.233 C 94.523 77.435,94.457 77.735,94.404 77.900 C 94.351 78.065,94.282 78.380,94.251 78.600 C 94.219 78.820,93.908 79.630,93.558 80.400 C 92.638 82.428,92.000 84.528,92.000 85.528 C 92.000 86.008,91.820 86.400,91.600 86.400 C 91.380 86.400,91.200 87.030,91.200 87.800 C 91.200 88.570,91.047 89.200,90.861 89.200 C 90.674 89.200,90.507 89.729,90.488 90.375 C 90.470 91.021,90.263 91.909,90.027 92.349 C 89.792 92.788,89.600 93.579,89.600 94.107 C 89.600 94.635,89.465 95.202,89.300 95.367 C 88.971 95.696,88.924 95.910,88.850 97.424 C 88.823 97.987,88.665 98.364,88.500 98.263 C 88.335 98.162,88.186 98.707,88.169 99.474 C 88.151 100.241,87.949 100.988,87.719 101.134 C 87.489 101.280,87.326 102.277,87.357 103.348 C 87.388 104.420,87.231 105.367,87.007 105.453 C 86.783 105.539,86.558 106.333,86.507 107.218 C 86.455 108.103,86.224 109.181,85.993 109.614 C 85.676 110.206,85.699 110.402,86.086 110.406 C 86.440 110.410,86.462 110.504,86.157 110.706 C 85.688 111.018,85.186 114.779,85.000 119.385 C 84.936 120.974,84.697 122.234,84.444 122.319 C 84.200 122.400,84.000 122.642,84.000 122.857 C 84.000 123.072,84.225 123.112,84.500 122.947 C 84.885 122.715,84.895 122.779,84.542 123.223 C 83.987 123.923,84.013 137.896,84.571 138.772 C 84.772 139.086,84.925 140.134,84.912 141.101 C 84.898 142.178,85.087 142.935,85.400 143.055 C 85.682 143.164,85.821 143.600,85.709 144.028 C 85.597 144.455,85.689 145.028,85.914 145.302 C 86.248 145.710,86.904 147.716,87.385 149.800 C 87.605 150.756,88.382 152.342,88.738 152.562 C 88.951 152.693,89.023 153.189,88.899 153.663 C 88.745 154.254,88.820 154.435,89.137 154.239 C 89.433 154.056,89.600 154.263,89.600 154.812 C 89.600 155.285,90.005 156.029,90.500 156.466 C 90.995 156.903,91.162 157.138,90.870 156.989 C 90.436 156.765,90.432 156.862,90.851 157.532 C 91.131 157.981,91.532 158.242,91.742 158.112 C 91.952 157.983,92.004 158.070,91.858 158.306 C 91.712 158.542,91.881 159.024,92.233 159.376 C 92.798 159.941,93.067 160.618,93.169 161.733 C 93.186 161.917,93.838 162.686,94.617 163.443 C 95.413 164.216,95.913 165.018,95.756 165.272 C 95.585 165.548,95.656 165.613,95.938 165.438 C 96.209 165.271,96.400 165.402,96.400 165.757 C 96.400 166.089,96.644 166.504,96.942 166.680 C 97.239 166.856,97.699 167.410,97.962 167.911 C 98.225 168.412,98.611 168.717,98.820 168.588 C 99.163 168.376,99.371 168.917,99.247 169.700 C 99.221 169.865,99.481 170.000,99.824 170.000 C 100.167 170.000,100.356 170.148,100.244 170.329 C 100.132 170.509,100.399 170.964,100.838 171.339 C 101.276 171.714,101.527 172.194,101.396 172.406 C 101.259 172.629,101.447 172.680,101.845 172.527 C 102.311 172.349,102.438 172.415,102.242 172.732 C 102.083 172.989,102.143 173.200,102.376 173.200 C 102.609 173.200,102.800 173.455,102.800 173.767 C 102.800 174.078,102.951 174.393,103.136 174.467 C 103.321 174.540,104.112 175.444,104.894 176.475 C 105.676 177.507,106.425 178.242,106.558 178.109 C 106.691 177.976,106.800 178.167,106.800 178.533 C 106.800 178.900,106.980 179.200,107.200 179.200 C 107.420 179.200,107.556 179.335,107.503 179.500 C 107.367 179.921,108.626 181.641,108.882 181.385 C 108.998 181.269,109.318 181.720,109.595 182.387 C 109.871 183.054,110.255 183.600,110.449 183.600 C 110.642 183.600,110.756 183.735,110.703 183.900 C 110.650 184.065,111.145 184.807,111.803 185.549 C 112.461 186.292,112.951 187.070,112.890 187.279 C 112.830 187.488,112.933 187.565,113.119 187.450 C 113.505 187.211,114.350 188.121,115.760 190.295 C 116.297 191.123,117.197 192.318,117.760 192.952 C 118.322 193.586,118.669 194.289,118.530 194.514 C 118.384 194.749,118.473 194.802,118.738 194.638 C 118.992 194.481,119.200 194.519,119.200 194.722 C 119.200 194.925,119.666 195.557,120.235 196.126 C 120.805 196.696,121.152 197.355,121.006 197.591 C 120.860 197.827,120.912 197.970,121.122 197.910 C 121.646 197.759,123.477 199.770,123.299 200.302 C 123.221 200.538,123.522 200.848,123.970 200.990 C 124.417 201.133,124.742 201.463,124.692 201.724 C 124.641 201.986,124.825 202.155,125.100 202.100 C 125.375 202.045,125.600 202.366,125.600 202.813 C 125.600 203.259,125.863 203.726,126.185 203.850 C 126.506 203.973,126.879 204.420,127.014 204.843 C 127.149 205.269,127.454 205.491,127.697 205.340 C 127.977 205.167,128.045 205.305,127.885 205.722 C 127.748 206.081,127.835 206.498,128.079 206.649 C 128.365 206.826,128.418 206.723,128.227 206.362 C 128.064 206.053,128.302 206.250,128.756 206.800 C 129.211 207.350,129.586 208.036,129.591 208.324 C 129.596 208.612,129.780 208.736,130.000 208.600 C 130.220 208.464,130.400 208.606,130.400 208.914 C 130.400 209.223,130.768 209.809,131.219 210.217 C 131.669 210.624,132.319 211.552,132.664 212.279 C 133.009 213.006,133.461 213.600,133.669 213.600 C 133.877 213.600,133.919 213.392,133.762 213.138 C 133.584 212.850,133.652 212.785,133.945 212.966 C 134.202 213.125,134.297 213.443,134.156 213.671 C 134.014 213.900,134.368 214.491,134.942 214.984 C 135.516 215.477,135.869 215.998,135.726 216.140 C 135.583 216.283,135.677 216.400,135.933 216.400 C 136.190 216.400,136.400 216.590,136.400 216.822 C 136.400 217.054,136.939 217.819,137.598 218.522 C 138.257 219.225,138.797 220.036,138.798 220.324 C 138.799 220.612,138.980 220.736,139.200 220.600 C 139.420 220.464,139.600 220.633,139.600 220.976 C 139.600 221.319,139.867 221.600,140.192 221.600 C 140.518 221.600,140.898 222.050,141.036 222.600 C 141.174 223.150,141.548 223.600,141.867 223.600 C 142.186 223.600,142.358 223.745,142.249 223.921 C 142.139 224.098,142.660 224.908,143.405 225.721 C 144.150 226.535,144.651 227.200,144.518 227.200 C 144.386 227.200,144.682 227.550,145.176 227.979 C 145.669 228.407,145.952 228.954,145.803 229.195 C 145.623 229.486,145.852 229.552,146.488 229.392 C 147.225 229.207,147.642 229.410,148.306 230.276 C 148.780 230.894,150.613 233.290,152.380 235.600 C 154.147 237.910,155.913 240.160,156.304 240.600 C 156.695 241.040,157.453 242.030,157.989 242.800 C 158.524 243.570,159.286 244.491,159.681 244.847 C 160.076 245.203,160.400 245.621,160.400 245.775 C 160.400 245.930,160.625 246.286,160.900 246.565 C 161.175 246.845,161.850 247.666,162.400 248.390 C 162.950 249.114,163.737 250.088,164.148 250.553 C 164.560 251.019,165.583 252.300,166.423 253.400 C 167.262 254.500,168.726 256.402,169.675 257.627 C 170.624 258.851,171.939 260.561,172.598 261.427 C 173.256 262.292,173.886 263.090,173.998 263.200 C 174.109 263.310,174.823 264.210,175.585 265.200 C 176.347 266.190,177.112 267.060,177.285 267.133 C 177.458 267.207,177.600 267.507,177.600 267.800 C 177.600 268.093,177.735 268.393,177.900 268.467 C 178.204 268.602,179.229 269.820,181.400 272.626 C 182.060 273.479,183.320 275.083,184.200 276.190 C 185.080 277.297,186.610 279.282,187.600 280.601 C 188.590 281.921,189.628 283.241,189.906 283.535 C 190.184 283.829,190.903 284.729,191.504 285.535 C 192.104 286.341,192.695 287.090,192.817 287.200 C 192.939 287.310,193.474 288.030,194.006 288.800 C 194.538 289.570,195.207 290.441,195.493 290.735 C 195.778 291.029,196.504 291.929,197.106 292.735 C 197.708 293.541,198.694 294.740,199.298 295.400 C 199.937 296.098,200.397 297.060,200.398 297.700 C 200.399 298.305,200.400 298.890,200.400 299.000 C 200.400 299.110,200.715 299.554,201.100 299.986 C 201.485 300.419,202.169 301.187,202.621 301.692 C 203.073 302.198,203.562 302.924,203.708 303.306 C 203.855 303.688,204.251 304.000,204.587 304.000 C 204.924 304.000,205.200 304.236,205.200 304.525 C 205.200 304.814,205.740 305.568,206.400 306.200 C 207.060 306.832,207.600 307.571,207.600 307.841 C 207.600 308.111,208.129 308.832,208.776 309.443 C 209.423 310.053,209.845 310.743,209.712 310.976 C 209.580 311.209,209.619 311.267,209.799 311.103 C 210.315 310.636,211.178 311.586,210.912 312.329 C 210.781 312.698,210.810 312.876,210.978 312.725 C 211.283 312.450,213.155 314.209,213.250 314.858 C 213.278 315.046,213.322 315.335,213.350 315.500 C 213.378 315.665,213.724 316.160,214.120 316.600 C 216.759 319.535,218.292 321.436,218.900 322.529 C 219.285 323.221,219.600 323.642,219.600 323.465 C 219.600 323.288,219.876 323.419,220.214 323.757 C 220.552 324.095,220.777 324.449,220.714 324.544 C 220.651 324.638,220.915 325.065,221.301 325.490 C 221.686 325.916,221.881 326.385,221.734 326.532 C 221.483 326.783,222.195 326.965,222.930 326.837 C 223.111 326.806,223.154 326.950,223.026 327.158 C 222.898 327.366,223.064 327.807,223.396 328.139 C 223.728 328.471,224.000 328.949,224.000 329.200 C 224.000 329.762,225.029 330.837,225.304 330.562 C 225.414 330.453,226.059 331.136,226.737 332.082 C 227.416 333.027,228.164 334.025,228.401 334.300 C 228.638 334.575,228.706 334.800,228.554 334.800 C 228.401 334.800,228.799 335.271,229.438 335.847 C 230.077 336.423,230.344 336.753,230.032 336.581 C 229.672 336.383,229.745 336.655,230.232 337.322 C 230.654 337.901,231.148 338.381,231.329 338.387 C 231.847 338.407,232.871 339.561,232.667 339.897 C 232.567 340.064,232.735 340.432,233.042 340.716 C 233.349 340.999,233.606 341.089,233.614 340.916 C 233.621 340.742,233.975 341.320,234.400 342.200 C 234.825 343.080,235.179 343.637,235.186 343.438 C 235.207 342.889,237.199 345.325,237.200 345.900 C 237.200 346.175,237.380 346.400,237.600 346.400 C 237.820 346.400,238.000 346.748,238.000 347.173 C 238.000 347.598,238.344 348.055,238.764 348.189 C 239.426 348.399,241.124 350.400,240.641 350.400 C 240.543 350.400,241.162 351.127,242.016 352.017 C 243.912 353.990,245.245 355.822,244.979 356.088 C 244.870 356.197,245.059 356.517,245.399 356.800 C 245.927 357.238,245.982 357.202,245.771 356.557 C 245.568 355.934,245.601 355.906,245.956 356.400 C 246.194 356.730,246.391 357.296,246.394 357.657 C 246.397 358.019,246.681 358.422,247.025 358.554 C 247.369 358.686,247.539 358.976,247.402 359.197 C 247.265 359.419,247.433 359.600,247.776 359.600 C 248.119 359.600,248.355 359.758,248.300 359.951 C 248.245 360.143,248.695 360.862,249.300 361.547 C 249.905 362.232,250.400 362.866,250.400 362.954 C 250.400 363.043,250.940 363.693,251.600 364.400 C 252.260 365.107,252.803 365.981,252.806 366.342 C 252.811 366.913,252.863 366.921,253.200 366.400 C 253.514 365.915,253.589 365.972,253.594 366.700 C 253.597 367.195,253.780 367.600,254.000 367.600 C 254.220 367.600,254.400 367.881,254.400 368.224 C 254.400 368.567,254.566 368.744,254.769 368.619 C 254.973 368.493,255.549 368.978,256.050 369.695 C 256.552 370.413,257.297 371.301,257.707 371.670 C 258.117 372.038,258.441 372.443,258.426 372.570 C 258.338 373.341,258.483 373.572,259.192 373.797 C 259.627 373.936,259.966 374.173,259.945 374.324 C 259.838 375.070,260.110 375.564,261.400 376.972 C 262.170 377.813,262.800 378.658,262.800 378.850 C 262.800 379.043,263.070 379.200,263.400 379.200 C 263.730 379.200,263.971 379.335,263.936 379.500 C 263.764 380.314,265.286 382.581,265.716 382.151 C 265.832 382.035,266.045 382.311,266.189 382.764 C 266.333 383.218,266.971 384.109,267.607 384.746 C 268.244 385.382,268.652 386.014,268.515 386.151 C 268.379 386.288,268.561 386.400,268.921 386.400 C 269.367 386.400,269.494 386.612,269.319 387.066 C 269.179 387.432,269.230 387.629,269.433 387.503 C 269.636 387.378,270.336 388.059,270.990 389.018 C 271.643 389.976,272.585 390.978,273.082 391.244 C 273.580 391.510,274.093 392.062,274.222 392.470 C 274.352 392.878,274.623 393.110,274.824 392.985 C 275.026 392.860,275.096 393.006,274.980 393.308 C 274.855 393.635,275.181 394.045,275.785 394.320 C 276.343 394.575,276.800 394.967,276.800 395.191 C 276.800 395.416,277.030 395.600,277.312 395.600 C 277.593 395.600,278.083 395.960,278.400 396.400 C 278.744 396.877,279.435 397.200,280.112 397.200 C 280.767 397.200,281.143 397.369,281.000 397.600 C 280.859 397.828,281.204 398.000,281.800 398.000 C 282.498 398.000,282.751 398.156,282.558 398.468 C 282.366 398.779,282.484 398.854,282.909 398.690 C 283.260 398.555,283.611 398.632,283.687 398.860 C 284.030 399.890,298.004 400.565,298.612 399.581 C 298.754 399.350,299.170 399.191,299.535 399.227 C 299.901 399.263,300.290 399.258,300.400 399.216 C 300.510 399.175,301.007 399.065,301.505 398.972 C 302.003 398.879,303.125 398.353,303.997 397.802 C 304.870 397.251,305.768 396.800,305.992 396.800 C 306.216 396.800,306.400 396.611,306.400 396.380 C 306.400 396.148,307.008 395.705,307.751 395.394 C 308.495 395.084,309.214 394.542,309.349 394.190 C 309.484 393.837,309.776 393.661,309.997 393.798 C 310.219 393.935,310.400 393.779,310.400 393.451 C 310.400 393.122,310.774 392.735,311.230 392.590 C 311.687 392.446,311.965 392.232,311.849 392.116 C 311.608 391.875,312.587 390.800,313.047 390.800 C 313.215 390.800,314.062 390.035,314.931 389.100 C 315.799 388.165,316.381 387.670,316.224 388.000 C 316.067 388.330,316.337 388.150,316.822 387.600 C 317.308 387.050,317.862 386.645,318.053 386.700 C 318.244 386.755,318.379 386.665,318.353 386.500 C 318.237 385.770,318.426 385.169,318.716 385.348 C 318.889 385.455,319.797 384.836,320.733 383.971 C 321.669 383.107,322.595 382.400,322.790 382.400 C 322.986 382.400,323.260 382.040,323.400 381.600 C 323.540 381.160,323.872 380.800,324.139 380.800 C 324.405 380.800,324.883 380.440,325.200 380.000 C 325.517 379.560,326.007 379.200,326.288 379.200 C 326.570 379.200,326.800 378.870,326.800 378.468 C 326.800 378.065,327.295 377.485,327.900 377.178 C 328.505 376.872,329.689 375.942,330.531 375.111 C 331.373 374.280,332.152 373.600,332.262 373.600 C 332.372 373.600,332.959 373.105,333.567 372.500 C 334.175 371.895,335.508 370.680,336.531 369.800 C 337.553 368.920,338.392 368.044,338.395 367.853 C 338.398 367.663,339.120 366.829,340.000 366.000 C 340.880 365.171,341.600 364.236,341.600 363.922 C 341.600 363.608,341.915 362.993,342.300 362.555 C 343.369 361.340,344.000 360.096,344.000 359.205 C 344.000 358.762,344.141 358.400,344.313 358.400 C 344.485 358.400,344.665 357.923,344.713 357.340 C 344.761 356.758,344.967 356.081,345.170 355.836 C 345.373 355.591,345.594 354.178,345.661 352.695 C 345.727 351.213,345.921 350.000,346.091 350.000 C 346.261 350.000,346.400 349.809,346.400 349.576 C 346.400 349.343,346.220 349.264,346.000 349.400 C 345.756 349.551,345.600 348.946,345.600 347.850 C 345.600 346.861,345.429 345.602,345.220 345.053 C 344.950 344.343,344.979 343.997,345.320 343.858 C 345.680 343.712,345.675 343.655,345.300 343.632 C 345.003 343.613,344.800 343.041,344.800 342.224 C 344.800 341.467,344.620 340.736,344.400 340.600 C 344.180 340.464,344.000 339.993,344.000 339.553 C 344.000 339.113,343.820 338.864,343.600 339.000 C 343.375 339.139,343.200 338.818,343.200 338.266 C 343.200 337.727,342.911 337.175,342.558 337.039 C 342.206 336.904,342.003 336.569,342.108 336.295 C 342.214 336.020,342.052 335.565,341.750 335.282 C 341.447 335.000,341.200 334.901,341.200 335.063 C 341.200 335.224,340.689 334.551,340.065 333.567 C 339.441 332.583,338.445 331.459,337.852 331.071 C 337.259 330.683,336.885 330.186,337.020 329.968 C 337.155 329.750,335.990 328.302,334.433 326.750 C 332.875 325.198,331.600 323.615,331.600 323.232 C 331.600 322.849,331.145 322.292,330.589 321.994 C 330.033 321.697,329.469 321.019,329.336 320.489 C 329.155 319.768,329.008 319.660,328.753 320.062 C 328.519 320.432,328.400 320.225,328.375 319.400 C 328.354 318.740,328.244 318.433,328.130 318.717 C 327.866 319.374,326.800 318.586,326.800 317.735 C 326.800 317.423,326.035 316.435,325.100 315.540 C 324.165 314.645,323.445 313.752,323.500 313.556 C 323.555 313.360,323.432 313.200,323.227 313.200 C 323.022 313.200,322.740 312.840,322.600 312.400 C 322.460 311.960,322.088 311.600,321.773 311.600 C 321.458 311.600,321.200 311.356,321.200 311.058 C 321.200 310.761,320.750 310.031,320.200 309.438 C 319.650 308.844,319.200 308.254,319.200 308.126 C 319.200 307.998,318.868 307.603,318.463 307.247 C 318.057 306.891,317.508 306.190,317.243 305.689 C 316.977 305.188,316.627 304.860,316.465 304.960 C 316.303 305.060,315.936 304.615,315.651 303.971 C 315.366 303.327,314.848 302.800,314.500 302.800 C 314.152 302.800,313.977 302.689,314.113 302.554 C 314.248 302.418,313.918 301.833,313.378 301.254 C 310.991 298.688,309.941 297.424,309.307 296.351 C 308.933 295.718,308.473 295.200,308.285 295.200 C 308.097 295.200,307.673 294.930,307.343 294.600 C 307.013 294.270,306.846 294.000,306.972 294.000 C 307.099 294.000,306.551 293.386,305.755 292.636 C 304.843 291.775,304.422 291.087,304.616 290.774 C 304.807 290.465,304.760 290.378,304.491 290.544 C 304.252 290.691,303.944 290.453,303.804 290.014 C 303.665 289.575,303.345 289.258,303.094 289.308 C 302.842 289.359,302.628 289.207,302.618 288.971 C 302.593 288.380,301.349 287.184,301.060 287.473 C 300.931 287.602,300.899 287.324,300.990 286.854 C 301.080 286.384,300.984 286.000,300.777 286.000 C 300.570 286.000,300.400 285.730,300.400 285.400 C 300.400 285.070,300.246 284.800,300.058 284.800 C 299.167 284.800,295.600 280.572,295.600 279.516 C 295.600 279.269,295.489 279.178,295.352 279.314 C 295.095 279.571,294.000 278.660,294.000 278.189 C 294.000 278.042,293.460 277.417,292.800 276.800 C 292.140 276.183,291.600 275.567,291.600 275.429 C 291.600 275.291,290.790 274.369,289.800 273.379 C 288.055 271.634,287.459 270.738,288.518 271.451 C 288.803 271.643,288.443 271.288,287.718 270.661 C 286.993 270.035,286.400 269.276,286.400 268.975 C 286.400 268.674,286.025 268.227,285.566 267.982 C 285.107 267.736,284.838 267.428,284.969 267.298 C 285.100 267.167,284.740 266.754,284.170 266.380 C 283.600 266.007,283.194 265.620,283.267 265.522 C 283.340 265.423,283.085 265.028,282.700 264.643 C 282.315 264.258,282.000 264.080,282.000 264.248 C 282.000 264.780,280.826 263.024,280.813 262.471 C 280.800 261.936,279.600 260.505,279.600 261.025 C 279.600 261.181,279.240 260.850,278.800 260.291 C 278.360 259.731,278.000 259.077,278.000 258.837 C 278.000 258.597,277.719 258.400,277.376 258.400 C 277.033 258.400,276.852 258.239,276.974 258.042 C 277.096 257.845,276.926 257.581,276.598 257.454 C 276.269 257.328,276.000 256.939,276.000 256.589 C 276.000 256.239,275.821 256.064,275.602 256.199 C 275.383 256.334,274.994 255.985,274.737 255.423 C 274.481 254.860,274.090 254.400,273.869 254.400 C 273.648 254.400,273.578 254.289,273.714 254.152 C 274.024 253.842,273.015 252.800,272.405 252.800 C 272.156 252.800,272.047 252.648,272.162 252.462 C 272.277 252.276,271.747 251.444,270.985 250.612 C 270.223 249.780,269.600 248.942,269.600 248.750 C 269.600 248.557,269.285 248.397,268.900 248.394 C 268.454 248.390,268.365 248.281,268.656 248.094 C 268.986 247.881,268.958 247.658,268.556 247.284 C 268.250 247.001,268.000 246.893,268.000 247.044 C 268.000 247.196,267.453 246.565,266.784 245.641 C 266.115 244.718,265.305 243.862,264.984 243.738 C 264.663 243.615,264.400 243.163,264.400 242.734 C 264.400 242.304,264.220 242.064,264.000 242.200 C 263.780 242.336,263.600 242.222,263.600 241.947 C 263.600 241.672,262.880 240.775,262.000 239.955 C 261.120 239.134,260.400 238.209,260.400 237.899 C 260.400 237.589,259.956 237.098,259.414 236.807 C 258.871 236.517,258.512 236.143,258.615 235.976 C 258.718 235.809,258.272 235.227,257.623 234.681 C 256.975 234.135,256.519 233.614,256.611 233.522 C 256.703 233.430,256.153 232.766,255.389 232.045 C 254.625 231.325,254.000 230.570,254.000 230.368 C 254.000 230.165,253.595 229.992,253.100 229.983 C 252.199 229.966,250.536 228.116,241.956 217.580 C 241.210 216.664,240.080 215.349,239.445 214.658 C 238.810 213.966,237.820 212.771,237.245 212.003 C 236.670 211.234,235.840 210.226,235.400 209.762 C 234.960 209.297,234.240 208.485,233.800 207.956 C 233.360 207.427,231.650 205.371,230.000 203.388 C 228.350 201.404,226.370 198.997,225.600 198.038 C 224.830 197.079,223.835 195.913,223.388 195.447 C 222.942 194.981,222.291 194.190,221.942 193.688 C 221.593 193.186,220.407 191.746,219.307 190.488 C 218.207 189.230,215.806 186.400,213.972 184.200 C 212.138 182.000,210.538 180.110,210.417 180.000 C 210.295 179.890,209.689 179.121,209.070 178.291 C 208.452 177.461,207.552 176.381,207.072 175.891 C 206.591 175.401,205.569 174.190,204.800 173.200 C 204.031 172.210,203.009 170.999,202.528 170.509 C 200.712 168.657,199.600 166.888,199.600 165.850 C 199.600 165.259,199.331 164.672,199.002 164.546 C 198.674 164.419,198.496 164.168,198.608 163.987 C 198.720 163.806,198.449 163.543,198.006 163.402 C 197.563 163.261,197.200 162.888,197.200 162.573 C 197.200 162.258,197.020 162.000,196.800 162.000 C 196.580 162.000,196.400 161.807,196.400 161.571 C 196.400 160.979,195.351 159.982,195.048 160.286 C 194.911 160.422,194.800 160.233,194.800 159.867 C 194.800 159.500,194.620 159.200,194.400 159.200 C 194.180 159.200,194.000 158.829,194.000 158.376 C 194.000 157.923,193.847 157.647,193.660 157.763 C 193.473 157.878,193.086 157.535,192.800 157.000 C 192.514 156.465,192.127 156.122,191.940 156.237 C 191.753 156.353,191.600 156.167,191.600 155.824 C 191.600 155.481,191.420 155.200,191.200 155.200 C 190.980 155.200,190.800 155.026,190.800 154.813 C 190.800 154.601,190.191 153.770,189.447 152.967 C 187.406 150.765,186.964 150.204,186.672 149.444 C 186.526 149.062,186.224 148.861,186.003 148.998 C 185.781 149.135,185.600 148.949,185.600 148.584 C 185.600 147.811,183.360 145.587,182.950 145.953 C 182.798 146.089,182.786 145.885,182.924 145.500 C 183.094 145.025,182.974 144.800,182.550 144.800 C 182.206 144.800,181.831 144.440,181.716 144.000 C 181.601 143.560,181.348 143.200,181.153 143.200 C 180.959 143.200,180.800 142.919,180.800 142.576 C 180.800 142.233,180.620 142.064,180.400 142.200 C 180.180 142.336,180.000 142.282,180.000 142.080 C 180.000 141.877,179.415 141.064,178.700 140.271 C 176.709 138.064,176.347 137.600,176.619 137.600 C 176.756 137.600,176.242 136.992,175.477 136.248 C 174.711 135.504,173.964 134.518,173.818 134.056 C 173.671 133.594,173.427 133.234,173.276 133.255 C 172.433 133.375,172.052 133.131,172.255 132.600 C 172.407 132.206,172.242 132.000,171.776 132.000 C 171.386 132.000,171.178 131.889,171.314 131.752 C 171.624 131.442,170.615 130.400,170.005 130.400 C 169.756 130.400,169.661 130.225,169.793 130.011 C 169.926 129.797,169.666 129.307,169.217 128.922 C 168.768 128.537,168.400 127.992,168.400 127.711 C 168.400 127.430,168.130 127.200,167.800 127.200 C 167.470 127.200,167.200 127.012,167.200 126.783 C 167.200 126.554,167.019 126.149,166.797 125.883 C 166.575 125.617,165.720 124.605,164.897 123.633 C 164.074 122.661,163.443 121.722,163.496 121.545 C 163.549 121.368,163.234 121.032,162.796 120.798 C 162.358 120.564,161.997 120.063,161.994 119.686 C 161.989 119.097,161.933 119.085,161.600 119.600 C 161.284 120.089,161.211 120.040,161.206 119.333 C 161.203 118.857,161.057 118.407,160.883 118.333 C 160.709 118.260,159.783 117.075,158.825 115.700 C 157.868 114.325,156.930 113.200,156.742 113.200 C 156.554 113.200,156.400 112.810,156.400 112.333 C 156.400 111.857,156.282 111.585,156.137 111.730 C 155.726 112.141,154.800 111.186,154.800 110.351 C 154.800 109.938,154.609 109.600,154.376 109.600 C 154.143 109.600,154.065 109.419,154.202 109.197 C 154.339 108.976,154.169 108.686,153.825 108.554 C 153.481 108.422,153.200 108.091,153.200 107.818 C 153.200 107.545,152.795 107.127,152.300 106.888 C 151.805 106.649,151.632 106.442,151.916 106.427 C 152.533 106.395,151.337 105.048,150.394 104.712 C 150.060 104.594,149.526 103.980,149.208 103.348 C 148.889 102.717,148.328 101.750,147.961 101.200 C 147.392 100.348,146.048 97.712,141.163 87.862 C 140.743 87.016,140.400 86.071,140.400 85.762 C 140.400 85.453,140.220 85.200,140.000 85.200 C 139.780 85.200,139.600 84.928,139.600 84.595 C 139.600 84.262,139.443 83.677,139.250 83.295 C 137.749 80.316,137.200 79.046,137.200 78.557 C 137.200 78.245,137.041 77.677,136.847 77.295 C 135.974 75.580,135.050 73.153,134.374 70.800 C 134.089 69.810,133.732 68.820,133.582 68.600 C 133.431 68.380,133.206 67.750,133.082 67.200 C 132.957 66.650,132.651 65.480,132.401 64.600 C 132.151 63.720,131.791 62.370,131.600 61.600 C 131.409 60.830,131.060 59.480,130.823 58.600 C 128.392 49.563,126.988 39.194,126.383 25.800 C 125.861 14.248,125.780 13.965,124.050 17.623 " stroke="none" fill="#ec5463" fill-rule="evenodd"></path><path id="path3" d="M126.471 20.973 C 126.432 24.478,126.581 28.978,126.802 30.973 C 128.072 42.453,128.404 44.930,128.637 44.696 C 128.724 44.609,128.617 43.202,128.398 41.569 C 127.521 35.018,127.096 29.837,126.825 22.400 L 126.542 14.600 126.471 20.973 M128.854 46.123 C 128.825 46.740,128.966 48.000,129.169 48.923 C 129.372 49.845,129.845 52.002,130.220 53.716 C 130.595 55.430,130.970 56.764,131.054 56.680 C 131.138 56.596,130.764 54.384,130.223 51.764 C 129.683 49.144,129.166 46.550,129.075 46.000 C 128.917 45.047,128.906 45.053,128.854 46.123 M131.234 58.200 C 131.222 58.640,131.387 59.270,131.600 59.600 C 132.114 60.395,132.114 59.396,131.600 58.200 L 131.256 57.400 131.234 58.200 M132.068 61.000 C 132.062 61.440,132.211 62.160,132.400 62.600 C 132.838 63.619,132.838 62.568,132.400 61.200 C 132.143 60.396,132.077 60.357,132.068 61.000 M132.856 64.000 C 132.856 64.330,133.011 64.960,133.200 65.400 C 133.417 65.904,133.544 65.978,133.544 65.600 C 133.544 65.270,133.389 64.640,133.200 64.200 C 132.983 63.696,132.856 63.622,132.856 64.000 M133.612 66.800 C 133.612 67.130,133.787 67.670,134.000 68.000 C 134.345 68.533,134.388 68.533,134.388 68.000 C 134.388 67.670,134.213 67.130,134.000 66.800 C 133.655 66.267,133.612 66.267,133.612 66.800 M134.412 69.200 C 134.412 69.530,134.587 70.070,134.800 70.400 C 135.145 70.933,135.188 70.933,135.188 70.400 C 135.188 70.070,135.013 69.530,134.800 69.200 C 134.455 68.667,134.412 68.667,134.412 69.200 M135.212 71.600 C 135.212 71.930,135.387 72.470,135.600 72.800 C 135.945 73.333,135.988 73.333,135.988 72.800 C 135.988 72.470,135.813 71.930,135.600 71.600 C 135.255 71.067,135.212 71.067,135.212 71.600 M136.012 74.000 C 136.012 74.330,136.187 74.870,136.400 75.200 C 136.745 75.733,136.788 75.733,136.788 75.200 C 136.788 74.870,136.613 74.330,136.400 74.000 C 136.055 73.467,136.012 73.467,136.012 74.000 M140.607 85.479 C 141.282 87.093,141.600 87.558,141.600 86.928 C 141.600 86.431,140.409 84.000,140.165 84.000 C 140.068 84.000,140.267 84.666,140.607 85.479 M141.843 88.212 C 143.197 91.958,150.139 104.223,151.092 104.555 C 151.716 104.773,151.726 104.742,151.180 104.301 C 150.282 103.575,148.071 99.785,144.848 93.445 C 142.124 88.088,141.242 86.552,141.843 88.212 M200.016 166.400 C 200.011 166.730,200.590 167.630,201.303 168.400 C 202.017 169.170,203.659 171.109,204.953 172.709 C 206.247 174.309,207.507 175.738,207.753 175.886 C 208.200 176.153,207.751 175.515,206.152 173.610 C 201.852 168.486,200.890 167.295,200.487 166.600 C 200.161 166.037,200.022 165.977,200.016 166.400 M208.400 176.638 C 208.400 176.787,209.419 178.100,210.665 179.555 C 211.910 181.010,214.533 184.135,216.494 186.500 C 218.455 188.865,220.153 190.800,220.267 190.800 C 220.495 190.800,219.168 189.165,212.705 181.483 C 210.337 178.669,208.400 176.488,208.400 176.638 M220.800 191.412 C 220.800 191.562,221.250 192.219,221.800 192.873 C 222.350 193.527,222.800 193.939,222.800 193.788 C 222.800 193.638,222.350 192.981,221.800 192.327 C 221.250 191.673,220.800 191.261,220.800 191.412 M226.042 197.900 C 226.991 199.130,231.319 204.171,232.138 205.000 C 232.926 205.797,232.926 205.796,232.164 204.791 C 230.513 202.610,225.916 197.200,225.715 197.200 C 225.598 197.200,225.745 197.515,226.042 197.900 M234.729 208.310 C 235.460 209.233,236.270 210.120,236.529 210.279 C 236.788 210.439,236.402 209.814,235.671 208.890 C 234.940 207.967,234.130 207.080,233.871 206.921 C 233.612 206.761,233.998 207.386,234.729 208.310 M237.200 211.064 C 237.200 211.282,237.695 211.897,238.300 212.430 L 239.400 213.400 238.400 212.200 C 237.850 211.540,237.355 210.925,237.300 210.833 C 237.245 210.742,237.200 210.845,237.200 211.064 M241.209 215.871 C 241.214 216.052,241.799 216.849,242.509 217.641 C 243.219 218.434,245.060 220.632,246.600 222.526 C 248.140 224.421,249.542 225.977,249.715 225.985 C 249.888 225.993,248.268 223.885,246.115 221.300 C 241.568 215.842,241.197 215.431,241.209 215.871 M251.248 228.000 C 251.955 228.880,252.671 229.600,252.838 229.600 C 253.005 229.600,252.495 228.880,251.705 228.000 C 250.915 227.120,250.200 226.400,250.116 226.400 C 250.031 226.400,250.541 227.120,251.248 228.000 M147.084 230.100 C 151.689 236.132,158.135 244.027,155.766 240.735 C 153.927 238.177,147.109 229.600,146.915 229.600 C 146.798 229.600,146.874 229.825,147.084 230.100 M157.081 242.987 C 157.477 243.531,157.943 243.981,158.119 243.987 C 158.294 243.994,158.114 243.556,157.719 243.013 C 157.323 242.469,156.857 242.019,156.681 242.013 C 156.506 242.006,156.686 242.444,157.081 242.987 M158.834 244.981 C 159.248 245.724,163.684 251.200,163.872 251.200 C 163.971 251.200,163.234 250.165,162.234 248.900 C 160.197 246.325,158.479 244.344,158.834 244.981 M166.575 254.932 C 167.191 255.739,167.776 256.400,167.875 256.400 C 168.153 256.400,166.421 254.060,165.909 253.744 C 165.659 253.589,165.959 254.124,166.575 254.932 M171.435 261.200 C 172.516 262.630,173.500 263.890,173.623 264.000 C 173.746 264.110,174.151 264.645,174.523 265.189 C 174.895 265.733,175.199 266.003,175.198 265.789 C 175.195 265.387,171.237 260.262,170.109 259.200 C 169.758 258.870,170.355 259.770,171.435 261.200 M177.991 269.588 C 178.457 270.241,179.042 270.902,179.291 271.056 C 179.541 271.211,179.241 270.676,178.625 269.868 C 177.288 268.115,176.784 267.892,177.991 269.588 M186.396 280.394 C 188.177 282.643,188.713 282.841,187.123 280.663 C 186.395 279.665,185.650 278.838,185.466 278.825 C 185.283 278.811,185.701 279.518,186.396 280.394 M191.076 286.277 C 192.574 288.299,193.947 289.964,194.127 289.977 C 194.462 290.001,191.802 286.494,189.592 284.000 C 188.910 283.230,189.578 284.255,191.076 286.277 M195.191 291.588 C 195.657 292.241,196.242 292.902,196.491 293.056 C 196.741 293.211,196.441 292.676,195.825 291.868 C 194.488 290.115,193.984 289.892,195.191 291.588 M199.114 296.868 C 199.529 297.727,199.855 298.053,199.939 297.694 C 200.015 297.367,199.706 296.729,199.252 296.275 L 198.427 295.449 199.114 296.868 " stroke="none" fill="#e44454" fill-rule="evenodd"></path><path id="path4" d="M122.888 18.407 C 122.629 18.823,122.557 19.250,122.728 19.356 C 122.900 19.462,123.252 19.208,123.512 18.793 C 123.771 18.377,123.843 17.950,123.672 17.844 C 123.500 17.738,123.148 17.992,122.888 18.407 M112.400 36.200 C 112.117 36.541,111.976 36.909,112.086 37.019 C 112.196 37.129,112.517 36.941,112.800 36.600 C 113.083 36.259,113.224 35.891,113.114 35.781 C 113.004 35.671,112.683 35.859,112.400 36.200 M104.400 51.976 C 104.400 52.403,104.217 52.866,103.993 53.004 C 103.530 53.291,103.848 54.000,104.441 54.000 C 104.658 54.000,104.806 53.775,104.770 53.500 C 104.612 52.284,104.824 51.568,105.262 51.838 C 105.548 52.015,105.615 51.948,105.438 51.662 C 104.992 50.940,104.400 51.119,104.400 51.976 M98.369 65.700 C 97.923 67.158,98.175 67.567,98.800 66.400 C 99.090 65.858,99.095 65.600,98.814 65.600 C 98.586 65.600,98.386 65.645,98.369 65.700 M154.887 110.862 C 154.972 111.116,155.471 111.483,155.996 111.677 C 156.936 112.024,156.939 112.017,156.214 111.215 C 155.411 110.328,154.641 110.123,154.887 110.862 M156.400 112.800 C 156.400 113.020,156.591 113.200,156.824 113.200 C 157.057 113.200,157.155 113.350,157.041 113.533 C 156.928 113.717,157.080 113.867,157.379 113.867 C 157.807 113.867,157.825 113.710,157.466 113.133 C 156.968 112.337,156.400 112.159,156.400 112.800 M169.613 129.100 C 169.606 129.375,169.825 129.603,170.100 129.606 C 170.433 129.610,170.400 129.742,170.000 130.000 C 169.481 130.335,169.490 130.389,170.067 130.394 C 170.433 130.397,170.814 130.625,170.912 130.900 C 171.010 131.175,171.214 131.286,171.366 131.146 C 171.517 131.007,171.187 130.377,170.633 129.746 C 170.079 129.116,169.620 128.825,169.613 129.100 M173.864 134.323 C 173.982 134.775,174.331 135.241,174.639 135.360 C 175.412 135.656,175.341 135.318,174.425 134.334 L 173.649 133.502 173.864 134.323 M188.355 151.911 C 188.622 152.412,189.023 152.709,189.247 152.571 C 189.470 152.433,189.596 152.287,189.527 152.247 C 189.457 152.207,189.056 151.910,188.635 151.587 C 187.913 151.034,187.897 151.052,188.355 151.911 M92.400 160.310 C 92.400 160.773,92.571 161.258,92.779 161.387 C 92.989 161.517,93.084 161.236,92.992 160.757 C 92.762 159.562,92.400 159.289,92.400 160.310 M197.389 162.418 C 197.229 162.677,197.346 163.047,197.649 163.239 C 198.564 163.818,198.932 163.644,198.362 162.900 C 198.067 162.515,197.793 162.143,197.753 162.073 C 197.713 162.004,197.549 162.159,197.389 162.418 M94.800 164.096 C 94.800 164.436,95.081 164.822,95.425 164.954 C 95.775 165.089,95.924 165.399,95.764 165.659 C 95.585 165.948,95.651 166.016,95.938 165.838 C 96.535 165.469,96.538 165.481,95.600 164.400 C 95.009 163.719,94.800 163.639,94.800 164.096 M100.400 171.375 C 100.400 171.472,100.959 172.147,101.643 172.875 L 102.886 174.200 101.943 172.705 C 101.132 171.418,100.400 170.788,100.400 171.375 M108.688 181.457 C 108.564 181.658,108.804 182.267,109.222 182.811 C 110.092 183.943,110.230 183.465,109.443 182.046 C 109.152 181.521,108.812 181.256,108.688 181.457 M112.000 186.314 C 112.000 186.708,113.624 188.110,113.835 187.898 C 113.923 187.811,113.545 187.349,112.997 186.872 C 112.449 186.395,112.000 186.144,112.000 186.314 M114.348 188.937 C 114.593 189.232,114.675 189.592,114.530 189.737 C 114.385 189.882,114.568 190.000,114.937 190.000 C 115.507 190.000,115.532 189.880,115.107 189.200 C 114.832 188.760,114.449 188.400,114.255 188.400 C 114.061 188.400,114.103 188.642,114.348 188.937 M126.414 204.451 C 126.393 205.401,127.441 206.192,127.829 205.519 C 127.993 205.234,127.974 205.141,127.785 205.313 C 127.596 205.484,127.214 205.214,126.935 204.713 C 126.568 204.051,126.424 203.979,126.414 204.451 M128.146 206.504 C 128.257 207.271,129.078 208.255,129.366 207.967 C 129.465 207.869,129.207 207.341,128.794 206.794 C 128.233 206.051,128.069 205.978,128.146 206.504 M134.493 215.200 C 134.768 215.640,135.247 216.000,135.557 216.000 C 135.925 216.000,135.800 215.720,135.200 215.200 C 134.693 214.760,134.214 214.400,134.135 214.400 C 134.057 214.400,134.218 214.760,134.493 215.200 M140.006 221.900 C 140.017 222.447,140.753 223.381,140.988 223.146 C 141.303 222.831,140.801 221.600,140.357 221.600 C 140.161 221.600,140.003 221.735,140.006 221.900 M144.009 227.100 C 144.027 227.709,145.555 229.378,145.837 229.097 C 145.997 228.936,145.743 228.471,145.271 228.062 C 144.800 227.653,144.531 227.202,144.674 227.059 C 144.817 226.917,144.723 226.800,144.467 226.800 C 144.210 226.800,144.004 226.935,144.009 227.100 M256.372 232.900 C 256.661 233.285,256.776 233.600,256.627 233.600 C 256.477 233.600,256.860 234.035,257.478 234.566 C 259.155 236.009,259.077 235.487,257.355 233.735 C 256.525 232.891,256.083 232.515,256.372 232.900 M260.400 238.386 C 260.400 238.598,260.805 238.984,261.300 239.244 C 262.195 239.714,262.196 239.712,261.438 238.858 C 260.591 237.905,260.400 237.818,260.400 238.386 M268.900 248.276 C 269.285 248.376,269.600 248.625,269.600 248.829 C 269.600 249.033,269.802 249.200,270.049 249.200 C 270.359 249.200,270.344 249.015,270.000 248.600 C 269.726 248.270,269.209 248.021,268.851 248.046 C 268.302 248.086,268.309 248.121,268.900 248.276 M281.277 263.574 C 281.543 264.000,281.904 264.259,282.080 264.151 C 282.256 264.042,282.400 264.143,282.400 264.376 C 282.400 264.609,282.584 264.800,282.809 264.800 C 283.034 264.800,282.924 264.350,282.563 263.800 C 281.758 262.572,280.514 262.353,281.277 263.574 M285.029 267.153 C 284.891 267.377,285.188 267.778,285.689 268.045 C 286.548 268.503,286.566 268.487,286.013 267.765 C 285.690 267.344,285.393 266.943,285.353 266.873 C 285.313 266.804,285.167 266.930,285.029 267.153 M305.292 292.228 C 306.379 293.375,306.985 293.493,306.427 292.450 C 306.206 292.037,305.656 291.603,305.205 291.485 C 304.418 291.280,304.422 291.310,305.292 292.228 M307.070 293.893 C 306.968 294.062,307.135 294.432,307.442 294.716 C 307.900 295.139,308.000 295.126,308.000 294.639 C 308.000 293.960,307.347 293.436,307.070 293.893 M205.200 305.308 C 205.200 305.468,205.538 305.938,205.950 306.350 C 206.363 306.762,206.788 307.348,206.895 307.650 C 207.003 307.953,207.241 308.059,207.425 307.887 C 207.609 307.715,207.183 306.999,206.479 306.295 C 205.776 305.591,205.200 305.147,205.200 305.308 M209.422 311.235 C 209.546 311.436,209.901 311.600,210.211 311.600 C 210.567 311.600,210.692 311.858,210.550 312.300 C 210.361 312.885,210.394 312.902,210.746 312.403 C 211.011 312.027,211.026 311.666,210.787 311.427 C 210.288 310.928,209.131 310.765,209.422 311.235 M211.200 313.164 C 211.200 313.417,211.469 313.728,211.798 313.854 C 212.126 313.981,212.322 314.202,212.233 314.346 C 212.144 314.491,212.325 314.956,212.635 315.381 C 213.193 316.143,213.200 316.143,213.194 315.376 C 213.187 314.499,212.909 314.042,211.900 313.251 C 211.422 312.876,211.200 312.848,211.200 313.164 M329.200 320.371 C 329.200 320.848,330.438 322.096,330.675 321.858 C 330.914 321.619,329.893 320.000,329.504 320.000 C 329.337 320.000,329.200 320.167,329.200 320.371 M220.060 324.380 C 220.148 324.644,220.350 324.847,220.510 324.830 C 220.988 324.781,220.896 324.232,220.380 324.060 C 220.116 323.972,219.972 324.116,220.060 324.380 M332.833 324.833 C 333.292 325.292,333.774 325.560,333.904 325.429 C 334.035 325.299,333.795 324.929,333.371 324.609 C 332.221 323.739,331.881 323.881,332.833 324.833 M335.438 327.800 C 336.031 328.350,336.612 328.800,336.728 328.800 C 336.844 328.800,336.517 328.350,336.000 327.800 C 335.483 327.250,334.903 326.800,334.710 326.800 C 334.517 326.800,334.844 327.250,335.438 327.800 M338.517 331.741 C 339.502 332.698,340.432 333.870,340.583 334.346 C 340.734 334.822,341.034 335.103,341.249 334.970 C 341.878 334.581,338.231 330.000,337.291 330.000 C 336.981 330.000,337.532 330.783,338.517 331.741 M225.200 330.800 C 225.200 331.020,225.377 331.200,225.592 331.200 C 225.808 331.200,226.098 331.650,226.236 332.200 C 226.374 332.750,226.746 333.200,227.064 333.200 C 227.473 333.200,227.330 332.793,226.573 331.800 C 225.449 330.327,225.200 330.145,225.200 330.800 M229.476 336.278 C 229.363 336.460,229.530 336.963,229.847 337.397 C 230.411 338.167,230.420 338.165,230.289 337.303 C 230.131 336.270,229.765 335.809,229.476 336.278 M231.477 339.172 C 231.595 339.624,231.908 339.857,232.229 339.733 C 232.694 339.555,232.692 339.435,232.218 338.961 C 231.453 338.195,231.237 338.257,231.477 339.172 M345.600 348.824 C 345.600 349.277,345.780 349.536,346.000 349.400 C 346.220 349.264,346.400 348.893,346.400 348.576 C 346.400 348.259,346.220 348.000,346.000 348.000 C 345.780 348.000,345.600 348.371,345.600 348.824 M245.464 356.577 C 245.294 357.021,245.363 357.146,245.673 356.955 C 245.994 356.757,246.047 356.904,245.844 357.434 C 245.623 358.015,245.665 358.089,246.018 357.739 C 246.330 357.429,246.357 357.052,246.101 356.595 C 245.748 355.963,245.700 355.962,245.464 356.577 M254.600 368.800 C 254.464 369.020,254.644 369.200,255.000 369.200 C 255.356 369.200,255.558 369.344,255.449 369.520 C 255.341 369.696,255.624 370.072,256.079 370.357 C 256.882 370.858,256.881 370.837,256.026 369.637 C 255.056 368.274,254.960 368.218,254.600 368.800 M327.506 377.372 C 327.124 377.651,326.921 377.988,327.054 378.121 C 327.187 378.253,327.565 378.092,327.895 377.762 C 328.672 376.985,328.403 376.716,327.506 377.372 M265.620 382.400 C 265.611 383.114,266.276 384.257,266.546 383.988 C 266.649 383.884,266.486 383.349,266.181 382.799 C 265.861 382.220,265.625 382.052,265.620 382.400 M320.012 384.588 C 319.501 385.131,318.975 385.509,318.842 385.429 C 318.709 385.348,318.277 385.714,317.881 386.241 C 317.245 387.090,317.236 387.200,317.805 387.200 C 318.158 387.200,318.336 387.020,318.200 386.800 C 318.064 386.580,318.106 386.400,318.293 386.400 C 318.480 386.400,319.301 385.770,320.118 385.000 C 320.934 384.230,321.453 383.600,321.271 383.600 C 321.088 383.600,320.522 384.044,320.012 384.588 M315.680 388.080 C 315.068 388.692,315.059 389.314,315.665 389.112 C 315.921 389.026,316.175 388.651,316.230 388.278 C 316.348 387.471,316.305 387.455,315.680 388.080 M273.487 392.168 C 274.269 393.214,274.552 393.263,274.178 392.288 C 274.046 391.944,273.676 391.561,273.356 391.439 C 272.918 391.270,272.950 391.451,273.487 392.168 " stroke="none" fill="#f45464" fill-rule="evenodd"></path><path id="path5" d="M273.456 14.484 C 273.321 14.988,273.243 17.920,273.281 21.000 L 273.352 26.600 273.580 20.200 C 273.826 13.278,273.822 13.117,273.456 14.484 M272.599 30.877 C 272.445 32.929,272.389 35.056,272.473 35.604 C 272.558 36.152,272.767 34.556,272.938 32.058 C 273.109 29.559,273.165 27.432,273.064 27.330 C 272.962 27.229,272.753 28.825,272.599 30.877 M271.886 38.200 C 271.733 39.080,271.629 40.430,271.653 41.200 C 271.685 42.201,271.799 41.917,272.053 40.200 C 272.456 37.479,272.311 35.746,271.886 38.200 M271.011 44.663 C 270.874 45.729,270.599 47.320,270.401 48.200 C 269.811 50.824,269.511 53.017,269.780 52.751 C 270.192 52.343,271.731 43.197,271.437 42.904 C 271.340 42.806,271.148 43.598,271.011 44.663 M269.249 53.800 C 269.216 54.240,269.096 55.050,268.983 55.600 L 268.777 56.600 269.206 55.619 C 269.442 55.079,269.561 54.269,269.472 53.819 C 269.313 53.021,269.307 53.021,269.249 53.800 M268.250 58.050 C 267.917 59.717,268.240 60.040,268.600 58.400 C 268.752 57.709,268.793 57.059,268.691 56.958 C 268.589 56.856,268.391 57.347,268.250 58.050 M267.450 61.250 C 267.117 62.917,267.440 63.240,267.800 61.600 C 267.952 60.909,267.993 60.259,267.891 60.158 C 267.789 60.056,267.591 60.547,267.450 61.250 M266.629 64.229 C 266.481 64.815,266.438 65.372,266.532 65.466 C 266.627 65.560,266.824 65.158,266.971 64.571 C 267.119 63.985,267.162 63.428,267.068 63.334 C 266.973 63.240,266.776 63.642,266.629 64.229 M265.800 66.800 C 265.650 67.273,265.617 67.750,265.727 67.860 C 265.837 67.970,266.050 67.673,266.200 67.200 C 266.350 66.727,266.383 66.250,266.273 66.140 C 266.163 66.030,265.950 66.327,265.800 66.800 M264.200 71.600 C 264.050 72.073,264.017 72.550,264.127 72.660 C 264.237 72.770,264.450 72.473,264.600 72.000 C 264.750 71.527,264.783 71.050,264.673 70.940 C 264.563 70.830,264.350 71.127,264.200 71.600 M263.400 74.000 C 263.250 74.473,263.217 74.950,263.327 75.060 C 263.437 75.170,263.650 74.873,263.800 74.400 C 263.950 73.927,263.983 73.450,263.873 73.340 C 263.763 73.230,263.550 73.527,263.400 74.000 M261.400 79.461 C 261.064 80.265,260.882 81.015,260.995 81.128 C 261.108 81.241,261.200 81.235,261.200 81.116 C 261.200 80.996,261.472 80.246,261.805 79.449 C 262.138 78.652,262.321 78.000,262.211 78.000 C 262.101 78.000,261.736 78.658,261.400 79.461 M255.682 92.100 C 253.899 95.675,251.880 99.590,251.195 100.800 C 250.510 102.010,250.314 102.550,250.759 102.000 C 251.498 101.085,258.340 87.929,258.924 86.300 C 259.567 84.504,258.670 86.109,255.682 92.100 M205.206 158.924 C 205.203 159.322,205.057 159.559,204.883 159.451 C 204.709 159.344,204.540 159.603,204.508 160.028 C 204.434 161.003,204.871 161.019,205.467 160.064 C 205.751 159.610,205.790 159.112,205.569 158.764 C 205.283 158.312,205.211 158.344,205.206 158.924 M206.964 159.400 C 207.514 159.950,208.093 160.400,208.252 160.400 C 208.410 160.400,208.117 159.950,207.600 159.400 C 207.083 158.850,206.504 158.400,206.312 158.400 C 206.120 158.400,206.414 158.850,206.964 159.400 M203.600 160.691 C 203.600 160.940,203.317 161.426,202.971 161.771 C 202.445 162.298,202.437 162.400,202.922 162.400 C 203.852 162.400,204.619 161.259,204.063 160.703 C 203.726 160.366,203.600 160.363,203.600 160.691 M208.851 161.490 C 209.423 162.209,215.181 169.207,216.347 170.600 C 216.715 171.040,218.272 172.930,219.807 174.800 C 221.342 176.670,222.926 178.560,223.326 179.000 C 223.726 179.440,224.626 180.559,225.327 181.488 C 226.027 182.416,226.739 183.181,226.909 183.188 C 227.079 183.194,226.206 181.985,224.969 180.500 C 223.732 179.015,221.259 176.000,219.473 173.800 C 217.687 171.600,216.040 169.602,215.813 169.360 C 215.586 169.118,213.896 167.093,212.057 164.860 C 210.219 162.627,208.622 160.800,208.508 160.800 C 208.395 160.800,208.549 161.110,208.851 161.490 M201.305 163.766 C 200.843 164.297,200.562 164.828,200.680 164.947 C 200.897 165.164,201.345 164.775,202.349 163.498 C 203.189 162.430,202.259 162.668,201.305 163.766 M231.441 188.900 C 232.932 190.715,234.260 192.290,234.391 192.400 C 234.522 192.510,235.789 194.040,237.208 195.800 C 238.626 197.560,240.117 199.360,240.520 199.800 C 240.923 200.240,241.826 201.359,242.527 202.288 C 243.227 203.216,243.966 203.981,244.170 203.988 C 244.373 203.994,244.174 203.595,243.728 203.100 C 243.282 202.605,239.823 198.465,236.043 193.900 C 232.263 189.335,229.070 185.600,228.949 185.600 C 228.828 185.600,229.949 187.085,231.441 188.900 M246.024 206.507 C 247.001 207.744,247.952 208.765,248.137 208.778 C 248.508 208.802,245.393 204.966,244.688 204.531 C 244.446 204.381,245.047 205.270,246.024 206.507 M249.546 210.694 C 250.268 211.626,251.061 212.514,251.308 212.667 C 251.997 213.093,250.209 210.706,249.160 209.800 C 248.534 209.259,248.659 209.549,249.546 210.694 M255.207 217.631 C 258.910 222.198,259.149 222.605,258.300 222.917 C 257.900 223.063,257.900 223.206,258.300 223.630 C 258.711 224.066,258.800 224.035,258.800 223.456 C 258.800 223.069,258.980 222.864,259.200 223.000 C 259.959 223.469,259.577 222.595,258.290 220.919 C 255.118 216.785,252.176 213.235,251.907 213.218 C 251.746 213.208,253.231 215.194,255.207 217.631 M257.200 224.074 C 257.200 224.335,256.830 224.942,256.378 225.423 C 255.672 226.175,255.644 226.331,256.178 226.536 C 256.728 226.747,256.841 226.608,256.786 225.786 C 256.778 225.668,257.048 225.295,257.386 224.957 C 258.086 224.256,258.190 223.600,257.600 223.600 C 257.380 223.600,257.200 223.813,257.200 224.074 M253.845 228.751 C 253.230 229.430,253.226 229.524,253.804 229.746 C 254.154 229.881,254.343 229.832,254.223 229.637 C 254.103 229.443,254.274 229.181,254.602 229.054 C 255.235 228.812,255.435 228.000,254.862 228.000 C 254.676 228.000,254.218 228.338,253.845 228.751 M145.300 230.731 C 143.173 232.954,142.287 234.400,143.053 234.400 C 143.400 234.400,145.199 232.280,145.200 231.871 C 145.200 231.436,146.067 230.586,146.807 230.296 C 147.274 230.112,147.252 230.056,146.700 230.032 C 146.315 230.014,145.685 230.329,145.300 230.731 M141.512 235.547 C 141.668 235.955,141.576 236.032,141.206 235.804 C 140.889 235.608,140.773 235.633,140.917 235.865 C 141.049 236.079,140.807 236.507,140.379 236.815 C 139.950 237.124,139.601 237.652,139.602 237.988 C 139.603 238.390,140.015 238.161,140.802 237.322 C 141.461 236.619,142.000 235.869,142.000 235.655 C 142.000 235.441,142.225 235.180,142.500 235.074 C 142.775 234.968,142.615 234.900,142.144 234.923 C 141.566 234.950,141.361 235.153,141.512 235.547 M142.015 241.700 C 143.386 243.405,144.586 244.800,144.681 244.800 C 144.995 244.800,143.302 242.636,141.395 240.600 C 139.944 239.051,140.084 239.298,142.015 241.700 M145.200 245.443 C 145.200 245.653,147.746 248.868,148.998 250.240 C 149.219 250.482,150.904 252.507,152.743 254.740 C 154.581 256.973,156.169 258.800,156.270 258.800 C 156.496 258.800,155.137 256.891,154.133 255.800 C 153.729 255.360,152.146 253.470,150.617 251.600 C 147.034 247.220,145.200 245.135,145.200 245.443 M158.467 261.700 C 159.658 263.075,163.020 267.121,165.938 270.690 C 168.857 274.260,171.456 277.311,171.714 277.471 C 172.302 277.834,171.723 277.105,163.600 267.255 C 159.970 262.853,156.843 259.240,156.651 259.226 C 156.459 259.212,157.276 260.325,158.467 261.700 M172.672 278.900 C 173.118 279.395,175.678 282.455,178.361 285.700 C 181.044 288.945,183.349 291.600,183.482 291.600 C 183.615 291.600,183.456 291.285,183.130 290.900 C 182.803 290.515,181.200 288.581,179.568 286.603 C 177.935 284.624,176.273 282.644,175.873 282.203 C 175.474 281.761,174.574 280.641,173.873 279.712 C 173.173 278.784,172.434 278.019,172.230 278.012 C 172.027 278.006,172.226 278.405,172.672 278.900 M185.199 293.999 C 187.539 296.794,188.128 297.017,185.976 294.293 C 184.999 293.056,184.048 292.035,183.863 292.022 C 183.677 292.010,184.279 292.899,185.199 293.999 M190.839 300.800 C 194.138 304.830,194.783 305.274,195.829 304.229 C 196.842 303.215,196.442 302.621,195.404 303.597 L 194.407 304.533 193.394 303.366 C 192.837 302.725,191.440 300.992,190.290 299.516 C 189.141 298.039,188.057 296.824,187.883 296.816 C 187.708 296.807,189.039 298.600,190.839 300.800 M199.079 298.557 C 198.915 298.974,198.875 299.409,198.991 299.524 C 199.355 299.889,199.676 299.291,199.524 298.531 C 199.383 297.835,199.362 297.836,199.079 298.557 M197.280 301.030 C 196.774 301.570,196.475 302.198,196.616 302.426 C 196.918 302.915,198.400 301.347,198.400 300.539 C 198.400 299.850,198.377 299.860,197.280 301.030 " stroke="none" fill="#dc4457" fill-rule="evenodd"></path><path id="path6" d="M273.271 28.000 C 273.228 28.990,273.110 30.790,273.008 32.000 L 272.822 34.200 273.230 32.242 C 273.454 31.166,273.573 29.366,273.493 28.242 L 273.348 26.200 273.271 28.000 M272.460 37.250 C 272.427 37.828,272.311 38.907,272.201 39.650 L 272.003 41.000 272.424 39.657 C 272.655 38.919,272.772 37.839,272.682 37.257 L 272.520 36.200 272.460 37.250 M271.454 43.954 C 271.300 44.918,271.258 45.791,271.361 45.894 C 271.630 46.163,272.115 43.345,271.907 42.722 C 271.812 42.436,271.608 42.990,271.454 43.954 M270.600 48.800 C 270.448 49.491,270.414 50.147,270.524 50.257 C 270.634 50.367,270.848 49.891,271.000 49.200 C 271.152 48.509,271.186 47.853,271.076 47.743 C 270.966 47.633,270.752 48.109,270.600 48.800 M269.829 52.629 C 269.681 53.215,269.651 53.784,269.761 53.894 C 269.871 54.004,270.081 53.615,270.229 53.029 C 270.376 52.442,270.406 51.873,270.296 51.763 C 270.186 51.653,269.976 52.042,269.829 52.629 M269.000 56.400 C 268.848 57.091,268.814 57.747,268.924 57.857 C 269.034 57.967,269.248 57.491,269.400 56.800 C 269.552 56.109,269.586 55.453,269.476 55.343 C 269.366 55.233,269.152 55.709,269.000 56.400 M268.229 59.429 C 268.081 60.015,268.038 60.572,268.132 60.666 C 268.227 60.760,268.424 60.358,268.571 59.771 C 268.719 59.185,268.762 58.628,268.668 58.534 C 268.573 58.440,268.376 58.842,268.229 59.429 M267.429 62.629 C 267.281 63.215,267.238 63.772,267.332 63.866 C 267.427 63.960,267.624 63.558,267.771 62.971 C 267.919 62.385,267.962 61.828,267.868 61.734 C 267.773 61.640,267.576 62.042,267.429 62.629 M266.629 65.429 C 266.481 66.015,266.438 66.572,266.532 66.666 C 266.627 66.760,266.824 66.358,266.971 65.771 C 267.119 65.185,267.162 64.628,267.068 64.534 C 266.973 64.440,266.776 64.842,266.629 65.429 M262.850 76.650 C 262.373 77.896,262.050 78.984,262.133 79.066 C 262.215 79.149,262.673 78.196,263.150 76.950 C 263.627 75.704,263.950 74.616,263.867 74.534 C 263.785 74.451,263.327 75.404,262.850 76.650 M261.492 80.083 C 259.977 83.865,259.601 84.936,259.904 84.600 C 260.392 84.060,262.048 79.914,261.853 79.720 C 261.768 79.635,261.606 79.798,261.492 80.083 M252.200 99.600 C 251.859 100.260,251.669 100.800,251.779 100.800 C 251.889 100.800,252.259 100.260,252.600 99.600 C 252.941 98.940,253.131 98.400,253.021 98.400 C 252.911 98.400,252.541 98.940,252.200 99.600 M250.614 102.235 C 250.241 102.804,250.027 103.361,250.139 103.472 C 250.250 103.583,250.629 103.118,250.981 102.437 C 251.759 100.933,251.544 100.815,250.614 102.235 M206.281 157.873 C 206.172 158.053,206.559 158.548,207.141 158.973 L 208.200 159.745 207.404 158.773 C 206.967 158.238,206.580 157.743,206.544 157.673 C 206.509 157.604,206.391 157.694,206.281 157.873 M208.408 160.233 C 208.413 160.435,209.241 161.500,210.249 162.600 L 212.081 164.600 210.360 162.400 C 209.413 161.190,208.585 160.125,208.519 160.033 C 208.454 159.942,208.404 160.032,208.408 160.233 M214.040 167.200 C 214.987 168.410,215.815 169.475,215.881 169.567 C 215.946 169.658,215.996 169.568,215.992 169.367 C 215.987 169.165,215.159 168.100,214.151 167.000 L 212.319 165.000 214.040 167.200 M221.199 175.999 C 223.539 178.794,224.128 179.017,221.976 176.293 C 220.999 175.056,220.048 174.035,219.863 174.022 C 219.677 174.010,220.279 174.899,221.199 175.999 M227.822 183.997 C 229.277 185.755,230.649 187.307,230.871 187.444 C 231.094 187.582,230.044 186.155,228.538 184.273 C 227.032 182.392,225.660 180.841,225.488 180.826 C 225.317 180.812,226.367 182.239,227.822 183.997 M232.799 189.999 C 233.719 191.098,234.681 192.126,234.936 192.283 C 235.191 192.439,234.523 191.540,233.451 190.284 C 232.380 189.028,231.418 188.000,231.314 188.000 C 231.210 188.000,231.879 188.899,232.799 189.999 M236.568 194.500 C 237.409 195.545,238.177 196.400,238.275 196.400 C 238.592 196.400,236.917 194.226,235.963 193.400 C 235.455 192.960,235.728 193.455,236.568 194.500 M238.800 197.064 C 238.800 197.282,239.295 197.897,239.900 198.430 L 241.000 199.400 240.000 198.200 C 239.450 197.540,238.955 196.925,238.900 196.833 C 238.845 196.742,238.800 196.845,238.800 197.064 M243.370 202.734 C 244.853 204.527,246.261 206.114,246.497 206.260 C 246.734 206.406,245.713 205.059,244.230 203.266 C 242.747 201.473,241.339 199.886,241.103 199.740 C 240.866 199.594,241.887 200.941,243.370 202.734 M248.399 208.799 C 249.319 209.898,250.281 210.926,250.536 211.083 C 250.791 211.239,250.123 210.340,249.051 209.084 C 247.980 207.828,247.018 206.800,246.914 206.800 C 246.810 206.800,247.479 207.699,248.399 208.799 M255.600 217.725 C 255.600 217.794,256.173 218.379,256.874 219.025 L 258.149 220.200 257.174 218.922 C 256.347 217.837,255.600 217.269,255.600 217.725 M258.627 221.385 C 259.369 222.518,259.600 222.639,259.600 221.896 C 259.600 221.619,259.231 221.162,258.781 220.881 C 257.981 220.381,257.977 220.393,258.627 221.385 M142.742 243.000 C 144.191 245.057,144.786 245.748,144.955 245.571 C 145.045 245.477,144.394 244.590,143.508 243.600 C 142.622 242.610,142.278 242.340,142.742 243.000 M148.809 250.263 C 148.819 250.663,152.400 255.000,152.400 254.613 C 152.400 254.466,151.590 253.352,150.600 252.136 C 149.610 250.921,148.804 250.078,148.809 250.263 M153.420 255.975 C 154.246 257.202,156.400 259.622,156.392 259.314 C 156.387 259.141,155.622 258.179,154.692 257.175 C 153.761 256.172,153.189 255.632,153.420 255.975 M159.201 263.000 C 159.751 263.660,160.245 264.275,160.300 264.367 C 160.355 264.458,160.488 264.445,160.596 264.338 C 160.704 264.230,160.209 263.615,159.497 262.971 L 158.203 261.800 159.201 263.000 M161.530 265.900 C 161.961 266.505,162.729 267.360,163.237 267.800 C 163.745 268.240,163.472 267.745,162.632 266.700 C 160.974 264.639,160.263 264.122,161.530 265.900 M166.374 271.736 C 167.785 273.443,169.132 274.958,169.367 275.103 C 169.601 275.248,168.638 273.970,167.226 272.264 C 165.815 270.557,164.468 269.042,164.233 268.897 C 163.999 268.752,164.962 270.030,166.374 271.736 M170.627 276.776 C 171.082 277.339,171.937 278.399,172.527 279.131 C 173.117 279.863,173.598 280.313,173.596 280.131 C 173.593 279.949,172.738 278.889,171.696 277.776 C 170.653 276.662,170.172 276.212,170.627 276.776 M177.199 284.799 C 178.119 285.898,179.081 286.926,179.336 287.083 C 179.591 287.239,178.923 286.340,177.851 285.084 C 176.780 283.828,175.818 282.800,175.714 282.800 C 175.610 282.800,176.279 283.699,177.199 284.799 M182.949 291.716 C 184.020 292.972,184.982 294.000,185.086 294.000 C 185.354 294.000,182.023 290.061,181.464 289.717 C 181.209 289.561,181.877 290.460,182.949 291.716 M185.800 295.215 C 186.240 295.739,186.927 296.535,187.327 296.984 C 187.726 297.433,188.626 298.559,189.327 299.488 C 190.027 300.416,190.740 301.181,190.912 301.188 C 191.280 301.202,186.147 294.930,185.467 294.534 C 185.210 294.385,185.360 294.691,185.800 295.215 M193.362 304.300 C 193.781 304.795,194.411 305.186,194.762 305.168 C 195.304 305.142,195.309 305.103,194.800 304.916 C 194.470 304.795,193.840 304.404,193.400 304.048 C 192.607 303.406,192.606 303.408,193.362 304.300 " stroke="none" fill="#e4445c" fill-rule="evenodd"></path><path id="path7" d="M125.470 15.063 C 125.325 15.208,125.378 15.533,125.587 15.785 C 125.797 16.037,126.028 17.944,126.101 20.022 L 126.234 23.800 126.317 19.300 C 126.393 15.194,126.217 14.316,125.470 15.063 M126.478 32.000 C 126.466 33.210,126.611 34.560,126.800 35.000 C 127.262 36.075,127.273 34.145,126.820 31.600 L 126.500 29.800 126.478 32.000 M127.275 39.400 C 127.265 40.280,127.411 41.360,127.600 41.800 C 128.053 42.853,128.053 40.779,127.600 39.000 C 127.308 37.853,127.294 37.871,127.275 39.400 M128.087 44.600 C 128.091 45.260,128.232 46.340,128.400 47.000 L 128.705 48.200 128.713 46.800 C 128.717 46.030,128.576 44.950,128.400 44.400 C 128.089 43.430,128.080 43.435,128.087 44.600 M129.059 50.200 C 129.193 51.300,129.369 52.275,129.451 52.367 C 129.764 52.717,129.526 49.761,129.180 49.000 C 128.935 48.461,128.895 48.854,129.059 50.200 M129.855 54.200 C 129.987 55.080,130.361 56.790,130.686 58.000 C 131.011 59.210,131.428 60.830,131.612 61.600 C 131.796 62.370,132.151 63.720,132.401 64.600 C 132.651 65.480,132.957 66.650,133.082 67.200 C 133.206 67.750,133.431 68.380,133.582 68.600 C 133.732 68.820,134.089 69.810,134.374 70.800 C 134.658 71.790,135.075 73.050,135.299 73.600 C 135.944 75.180,136.308 76.141,136.573 76.957 C 136.708 77.374,136.891 77.642,136.979 77.554 C 137.067 77.466,136.192 74.604,135.035 71.194 C 133.877 67.783,132.826 64.544,132.700 63.996 C 130.839 55.953,129.349 50.823,129.855 54.200 M137.228 78.439 C 137.196 79.166,138.397 81.737,138.650 81.483 C 138.742 81.392,138.466 80.525,138.037 79.558 C 137.608 78.591,137.244 78.087,137.228 78.439 M142.002 89.433 C 142.003 89.872,146.513 98.809,147.738 100.800 C 148.211 101.570,148.885 102.730,149.235 103.379 C 149.586 104.027,150.111 104.637,150.403 104.734 C 150.728 104.843,150.615 104.463,150.114 103.756 C 148.883 102.020,147.477 99.513,144.756 94.200 C 142.158 89.128,141.999 88.852,142.002 89.433 M199.654 165.962 C 199.603 166.864,200.353 168.085,202.355 170.361 C 203.866 172.080,203.245 170.765,201.640 168.848 C 200.782 167.823,199.996 166.538,199.894 165.992 L 199.709 165.000 199.654 165.962 M204.858 173.200 C 206.461 175.369,207.185 176.149,207.397 175.936 C 207.484 175.849,206.650 174.793,205.542 173.589 C 203.664 171.548,203.618 171.522,204.858 173.200 M209.651 179.100 C 209.953 179.485,210.298 179.890,210.419 180.000 C 210.539 180.110,212.140 182.000,213.977 184.200 C 215.813 186.400,217.805 188.785,218.403 189.500 C 219.001 190.215,219.619 190.800,219.776 190.800 C 220.016 190.800,217.840 188.058,215.600 185.538 C 215.270 185.167,213.830 183.421,212.400 181.658 C 210.970 179.895,209.643 178.441,209.451 178.426 C 209.259 178.412,209.349 178.715,209.651 179.100 M221.266 192.790 C 222.900 194.982,223.593 195.741,223.785 195.548 C 223.865 195.466,223.031 194.410,221.931 193.200 C 220.154 191.245,220.080 191.200,221.266 192.790 M224.446 196.590 C 224.751 197.024,225.383 197.834,225.852 198.390 C 226.320 198.945,228.120 201.109,229.852 203.197 C 231.583 205.285,233.360 207.427,233.800 207.956 C 234.240 208.485,234.960 209.297,235.400 209.762 C 235.840 210.226,236.675 211.234,237.255 212.003 C 238.788 214.034,239.854 215.200,240.178 215.200 C 240.444 215.200,238.475 212.733,235.211 208.976 C 234.435 208.083,233.440 206.910,233.000 206.370 C 227.588 199.725,222.824 194.278,224.446 196.590 M243.882 219.937 C 250.269 227.719,252.265 229.959,252.800 229.949 C 253.170 229.941,253.217 229.862,252.922 229.743 C 252.660 229.636,250.773 227.535,248.730 225.074 C 246.687 222.613,244.518 220.060,243.910 219.400 C 243.301 218.740,242.803 218.065,242.802 217.900 C 242.801 217.735,242.612 217.600,242.382 217.600 C 242.152 217.600,242.827 218.652,243.882 219.937 M146.800 229.478 C 147.130 229.580,148.840 231.557,150.600 233.872 C 154.292 238.726,155.599 240.310,155.600 239.931 C 155.600 239.783,154.153 237.803,152.384 235.531 C 150.615 233.259,148.788 230.905,148.324 230.300 C 147.860 229.695,147.192 229.221,146.840 229.246 C 146.303 229.285,146.297 229.323,146.800 229.478 M157.191 242.388 C 158.428 244.124,159.025 244.334,157.932 242.648 C 157.419 241.857,156.853 241.208,156.673 241.205 C 156.493 241.202,156.726 241.735,157.191 242.388 M159.402 245.202 C 159.802 245.644,160.211 245.922,160.312 245.821 C 160.528 245.605,159.388 244.400,158.967 244.400 C 158.807 244.400,159.003 244.761,159.402 245.202 M161.659 248.100 C 162.388 249.035,164.074 251.150,165.405 252.800 C 166.736 254.450,168.630 256.880,169.613 258.200 C 170.596 259.520,171.918 261.140,172.552 261.800 L 173.704 263.000 172.856 261.800 C 172.390 261.140,171.151 259.502,170.104 258.159 C 169.057 256.817,167.373 254.646,166.361 253.335 C 164.604 251.058,164.145 250.490,162.100 248.066 C 161.606 247.480,161.201 246.865,161.200 246.700 C 161.200 246.535,161.005 246.400,160.766 246.400 C 160.528 246.400,160.929 247.165,161.659 248.100 M173.879 263.700 C 175.672 266.075,177.345 267.988,177.497 267.836 C 177.598 267.735,177.203 267.146,176.618 266.526 C 176.033 265.907,175.256 264.905,174.891 264.300 C 174.526 263.695,174.064 263.200,173.865 263.200 C 173.656 263.200,173.662 263.412,173.879 263.700 M180.484 272.100 C 182.090 274.135,184.033 276.649,184.802 277.688 C 185.571 278.726,186.357 279.581,186.549 279.588 C 186.741 279.594,186.723 279.375,186.509 279.100 C 185.778 278.159,182.316 273.801,181.657 272.992 C 181.296 272.548,180.370 271.339,179.600 270.305 C 178.830 269.271,178.057 268.419,177.882 268.412 C 177.708 268.406,178.878 270.065,180.484 272.100 M187.540 281.116 C 188.033 281.809,188.644 282.504,188.897 282.660 C 189.150 282.817,188.954 282.377,188.460 281.684 C 187.967 280.991,187.356 280.296,187.103 280.140 C 186.850 279.983,187.046 280.423,187.540 281.116 M191.657 286.410 C 194.140 289.659,195.763 291.297,193.998 288.772 C 193.470 288.018,192.939 287.310,192.817 287.200 C 192.695 287.090,191.966 286.151,191.197 285.112 C 190.429 284.074,189.666 283.219,189.502 283.212 C 189.337 283.206,190.307 284.645,191.657 286.410 M197.375 293.689 C 198.799 295.498,200.035 297.433,200.122 297.989 C 200.264 298.897,200.286 298.878,200.338 297.800 C 200.377 296.993,200.036 296.207,199.298 295.400 C 198.694 294.740,197.570 293.351,196.800 292.312 C 196.030 291.274,195.262 290.419,195.093 290.412 C 194.924 290.406,195.951 291.880,197.375 293.689 " stroke="none" fill="#ec4c5c" fill-rule="evenodd"></path><path id="path8" d="" stroke="none" fill="#ec3858" fill-rule="evenodd"></path></g></svg>