<svg id="svg" version="1.1" xmlns="http://www.w3.org/2000/svg" xmlns:xlink="http://www.w3.org/1999/xlink" width="400" height="400" viewBox="0, 0, 400,400"><g id="svgg"><path id="path0" d="M200.400 40.720 C 200.400 84.650,200.520 82.352,198.220 82.454 C 197.184 82.501,197.144 82.536,197.960 82.690 C 198.488 82.790,199.340 82.646,199.855 82.371 C 201.665 81.402,210.534 83.171,215.537 85.498 C 227.550 91.087,236.800 104.714,236.800 116.825 L 236.800 119.600 225.039 119.600 L 213.278 119.600 212.839 118.340 C 212.598 117.647,212.400 116.674,212.400 116.178 C 212.400 113.825,209.003 109.408,206.140 108.040 C 205.073 107.530,203.917 106.970,203.571 106.797 C 203.225 106.623,201.605 106.396,199.971 106.291 C 198.337 106.186,197.720 106.213,198.600 106.350 L 200.200 106.600 200.302 147.249 C 200.383 179.464,200.300 187.985,199.902 188.312 C 198.528 189.441,183.993 187.751,175.132 185.432 C 171.221 184.408,170.363 184.118,164.600 181.876 C 160.557 180.303,151.709 175.801,150.620 174.762 C 148.748 172.977,148.800 172.079,148.800 206.200 L 148.800 238.000 147.624 238.000 C 146.977 238.000,146.336 238.180,146.200 238.400 C 146.064 238.620,145.524 238.800,145.000 238.800 C 144.476 238.800,143.936 238.980,143.800 239.200 C 143.664 239.420,142.944 239.600,142.200 239.600 C 141.456 239.600,140.736 239.780,140.600 240.000 C 140.464 240.220,139.924 240.400,139.400 240.400 C 138.876 240.400,138.336 240.580,138.200 240.800 C 138.064 241.020,137.423 241.200,136.776 241.200 C 136.129 241.200,135.600 241.380,135.600 241.600 C 135.600 241.820,135.071 242.000,134.424 242.000 C 133.777 242.000,133.136 242.180,133.000 242.400 C 132.864 242.620,132.234 242.800,131.600 242.800 C 130.966 242.800,130.334 242.983,130.196 243.207 C 130.058 243.430,129.798 243.522,129.618 243.411 C 129.439 243.300,128.776 243.366,128.146 243.558 C 127.516 243.750,126.190 244.140,125.200 244.424 C 124.210 244.709,123.220 245.040,123.000 245.160 C 122.780 245.279,122.420 245.410,122.200 245.451 C 120.467 245.768,119.566 246.005,118.000 246.555 C 117.010 246.904,115.883 247.191,115.495 247.194 C 115.107 247.197,114.477 247.362,114.095 247.561 C 113.713 247.760,112.590 248.144,111.600 248.415 C 107.791 249.458,106.978 249.709,106.305 250.049 C 105.923 250.242,105.259 250.400,104.829 250.400 C 104.399 250.400,103.948 250.560,103.827 250.756 C 103.706 250.951,103.021 251.213,102.304 251.337 C 99.355 251.846,98.400 252.107,98.400 252.402 C 98.400 252.573,97.815 252.814,97.100 252.937 C 93.981 253.477,92.987 253.731,92.784 254.042 C 92.666 254.225,91.991 254.418,91.284 254.472 C 90.578 254.526,90.000 254.691,90.000 254.840 C 90.000 255.097,88.974 255.366,86.100 255.863 C 85.385 255.986,84.800 256.248,84.800 256.444 C 84.800 256.640,84.170 256.800,83.400 256.800 C 82.630 256.800,82.000 256.980,82.000 257.200 C 82.000 257.420,81.460 257.600,80.800 257.600 C 80.140 257.600,79.600 257.780,79.600 258.000 C 79.600 258.220,78.891 258.400,78.024 258.400 C 77.157 258.400,76.336 258.580,76.200 258.800 C 76.064 259.020,75.524 259.200,75.000 259.200 C 74.476 259.200,73.930 259.390,73.787 259.621 C 73.644 259.853,73.318 259.966,73.063 259.873 C 72.809 259.780,72.012 259.943,71.293 260.235 C 70.574 260.526,69.944 260.758,69.893 260.750 C 69.611 260.703,67.207 261.339,66.000 261.779 C 65.230 262.060,64.391 262.215,64.137 262.124 C 63.882 262.032,63.556 262.147,63.413 262.379 C 63.270 262.610,62.724 262.800,62.200 262.800 C 61.676 262.800,61.136 262.980,61.000 263.200 C 60.864 263.420,60.234 263.600,59.600 263.600 C 58.966 263.600,58.336 263.780,58.200 264.000 C 58.064 264.220,57.333 264.400,56.576 264.400 C 55.819 264.400,55.200 264.580,55.200 264.800 C 55.200 265.020,54.696 265.200,54.080 265.200 C 53.464 265.200,52.785 265.375,52.571 265.589 C 52.358 265.802,51.827 266.032,51.391 266.100 C 50.956 266.168,50.420 266.327,50.200 266.454 C 49.980 266.580,48.945 266.929,47.900 267.229 C 46.855 267.529,46.000 267.915,46.000 268.087 C 46.000 268.259,45.781 268.400,45.514 268.400 C 44.834 268.400,38.229 271.646,38.067 272.060 C 37.993 272.247,37.588 272.400,37.167 272.400 C 36.745 272.400,36.400 272.580,36.400 272.800 C 36.400 273.020,36.164 273.200,35.875 273.200 C 35.587 273.200,35.002 273.515,34.575 273.900 C 34.149 274.285,33.305 274.855,32.701 275.167 C 29.628 276.753,19.578 285.905,16.410 290.002 C 15.646 290.991,14.908 291.890,14.771 292.000 C 14.288 292.387,9.200 299.971,9.200 300.304 C 9.200 300.897,8.211 302.794,7.900 302.797 C 7.735 302.799,7.600 303.160,7.600 303.600 C 7.600 304.040,7.420 304.400,7.200 304.400 C 6.980 304.400,6.800 304.760,6.800 305.200 C 6.800 305.640,6.620 306.000,6.400 306.000 C 6.180 306.000,6.000 306.360,6.000 306.800 C 6.000 307.240,5.863 307.600,5.696 307.600 C 5.529 307.600,4.946 309.040,4.400 310.800 C 3.854 312.560,3.271 314.000,3.104 314.000 C 2.937 314.000,2.800 314.439,2.800 314.976 C 2.800 315.513,2.620 316.064,2.400 316.200 C 2.180 316.336,2.000 317.067,2.000 317.824 C 2.000 318.581,1.820 319.200,1.600 319.200 C 1.380 319.200,1.200 319.890,1.200 320.733 C 1.200 321.577,1.075 322.392,0.922 322.545 C 0.300 323.167,0.249 325.660,0.110 362.100 L -0.034 400.000 37.580 400.000 L 75.195 400.000 75.298 368.900 L 75.400 337.800 87.200 337.800 L 99.000 337.800 99.102 368.900 L 99.205 400.000 149.602 400.000 L 199.999 400.000 200.099 294.100 L 200.200 188.200 203.000 188.099 C 216.782 187.604,229.478 184.413,241.800 178.347 C 245.160 176.692,246.464 175.980,248.847 174.499 C 249.643 174.005,250.685 173.600,251.161 173.600 C 251.638 173.600,252.517 173.290,253.114 172.912 C 254.804 171.841,258.535 169.075,259.200 168.400 C 259.530 168.065,260.430 167.319,261.200 166.743 C 263.971 164.667,271.375 157.062,274.000 153.594 C 274.550 152.868,275.225 152.045,275.500 151.765 C 275.775 151.486,276.000 151.064,276.000 150.829 C 276.000 150.593,276.138 150.400,276.306 150.400 C 276.474 150.400,277.056 149.680,277.600 148.800 C 278.144 147.920,278.726 147.200,278.894 147.200 C 279.062 147.200,279.200 146.829,279.200 146.376 C 279.200 145.923,279.380 145.664,279.600 145.800 C 279.820 145.936,280.000 145.767,280.000 145.424 C 280.000 145.081,280.191 144.800,280.424 144.800 C 280.657 144.800,280.750 144.643,280.632 144.452 C 280.513 144.260,280.773 143.692,281.208 143.190 C 281.644 142.688,282.000 142.138,282.000 141.967 C 282.000 141.797,282.231 141.419,282.513 141.129 C 283.255 140.364,286.839 132.854,288.396 128.800 C 288.692 128.030,289.050 127.220,289.192 127.000 C 289.333 126.780,289.432 126.330,289.411 126.000 C 289.390 125.670,289.521 125.295,289.701 125.168 C 289.881 125.040,290.119 124.439,290.229 123.832 C 290.339 123.225,290.690 121.979,291.009 121.064 C 291.327 120.149,291.591 118.905,291.594 118.300 C 291.597 117.695,291.780 117.200,292.000 117.200 C 292.220 117.200,292.400 116.426,292.400 115.480 C 292.400 114.534,292.563 113.589,292.761 113.380 C 293.167 112.953,293.538 110.449,293.855 106.000 C 293.973 104.350,294.218 102.820,294.400 102.600 C 294.582 102.380,294.753 99.058,294.781 95.218 C 294.809 91.377,294.869 88.200,294.916 88.156 C 294.962 88.113,297.070 87.979,299.600 87.860 C 305.568 87.578,308.800 87.188,308.800 86.750 C 308.800 86.558,309.239 86.400,309.776 86.400 C 310.313 86.400,310.864 86.220,311.000 86.000 C 311.136 85.780,311.586 85.600,311.999 85.600 C 312.821 85.600,317.318 83.270,317.533 82.733 C 317.607 82.550,317.845 82.400,318.062 82.400 C 318.279 82.400,318.690 82.175,318.974 81.900 C 319.258 81.625,320.255 80.770,321.190 80.000 C 324.093 77.608,324.391 77.324,324.201 77.134 C 324.099 77.033,324.643 76.285,325.408 75.474 C 326.174 74.662,326.800 73.896,326.800 73.771 C 326.800 73.646,327.340 72.759,328.000 71.800 C 328.660 70.841,329.200 69.861,329.200 69.623 C 329.200 69.384,329.380 68.832,329.600 68.395 C 329.820 67.958,330.180 67.242,330.400 66.805 C 330.620 66.368,330.800 65.594,330.800 65.085 C 330.800 64.576,330.963 63.989,331.161 63.780 C 332.348 62.532,332.348 49.468,331.161 48.220 C 330.963 48.011,330.800 47.437,330.800 46.944 C 330.800 46.451,330.620 45.936,330.400 45.800 C 330.180 45.664,330.000 45.113,330.000 44.576 C 330.000 44.039,329.843 43.600,329.650 43.600 C 329.457 43.600,329.196 43.082,329.070 42.448 C 328.943 41.815,328.560 41.018,328.220 40.677 C 327.879 40.336,327.600 39.774,327.600 39.429 C 327.600 39.083,327.450 38.800,327.268 38.800 C 327.085 38.800,326.680 38.306,326.368 37.701 C 324.759 34.588,315.840 27.233,313.617 27.187 C 313.278 27.180,312.668 26.923,312.261 26.615 C 311.855 26.307,311.270 26.152,310.961 26.270 C 310.653 26.389,310.400 26.286,310.400 26.043 C 310.400 25.799,309.770 25.600,309.000 25.600 C 308.230 25.600,307.600 25.434,307.600 25.232 C 307.600 24.884,305.873 24.690,298.100 24.164 L 294.800 23.941 294.800 11.971 L 294.800 0.000 247.600 0.000 L 200.400 0.000 200.400 40.720 M175.178 92.300 L 173.800 93.800 175.300 92.422 C 176.125 91.663,176.800 90.988,176.800 90.922 C 176.800 90.616,176.462 90.904,175.178 92.300 M172.175 95.300 L 171.000 96.600 172.300 95.425 C 173.512 94.330,173.784 94.000,173.475 94.000 C 173.406 94.000,172.821 94.585,172.175 95.300 M192.160 108.333 C 191.302 108.957,190.330 109.812,190.000 110.233 C 189.670 110.655,190.034 110.460,190.809 109.800 C 191.585 109.140,192.665 108.294,193.209 107.921 C 193.754 107.548,194.092 107.233,193.960 107.221 C 193.828 107.209,193.018 107.710,192.160 108.333 M164.249 110.615 C 164.112 110.973,164.015 111.566,164.034 111.933 C 164.053 112.300,164.227 112.069,164.421 111.420 C 164.798 110.158,164.665 109.533,164.249 110.615 M188.387 112.621 C 187.904 113.403,187.577 114.111,187.661 114.194 C 187.745 114.278,188.220 113.638,188.718 112.773 C 189.847 110.813,189.580 110.690,188.387 112.621 M163.352 117.400 L 163.400 119.000 175.100 119.106 C 181.535 119.164,186.800 119.074,186.800 118.906 C 186.800 118.738,181.592 118.650,175.225 118.712 L 163.650 118.823 163.477 117.312 L 163.305 115.800 163.352 117.400 " stroke="none" fill="#fcab83" fill-rule="evenodd"></path><path id="path1" d="M105.200 12.000 L 105.200 24.000 101.300 24.006 C 98.634 24.010,97.590 24.135,98.000 24.400 C 98.414 24.668,97.578 24.790,95.300 24.794 C 93.485 24.797,92.000 24.970,92.000 25.177 C 92.000 25.384,91.608 25.479,91.130 25.386 C 90.651 25.294,90.021 25.417,89.730 25.658 C 89.438 25.900,89.200 25.964,89.200 25.800 C 89.200 25.636,88.958 25.703,88.663 25.948 C 88.368 26.193,88.008 26.275,87.863 26.130 C 87.718 25.985,87.600 26.041,87.600 26.253 C 87.600 26.465,86.925 26.878,86.100 27.169 C 85.275 27.460,84.296 27.964,83.925 28.288 C 83.554 28.613,83.092 28.780,82.898 28.661 C 82.704 28.541,82.293 28.793,81.985 29.221 C 81.676 29.650,81.195 30.000,80.915 30.000 C 80.636 30.000,80.182 30.360,79.907 30.800 C 79.632 31.240,79.170 31.600,78.880 31.600 C 78.590 31.600,78.447 31.753,78.563 31.940 C 78.678 32.127,78.335 32.514,77.800 32.800 C 77.265 33.086,76.922 33.473,77.037 33.660 C 77.153 33.847,77.012 34.001,76.724 34.003 C 76.436 34.004,75.750 34.666,75.200 35.474 C 74.650 36.281,74.020 37.135,73.800 37.371 C 73.580 37.607,73.148 38.289,72.840 38.886 C 72.532 39.484,72.099 39.861,71.878 39.725 C 71.657 39.588,71.585 39.652,71.718 39.867 C 71.850 40.082,71.698 40.760,71.380 41.374 C 71.061 41.989,70.800 42.741,70.800 43.046 C 70.800 43.351,70.620 43.600,70.400 43.600 C 70.180 43.600,70.000 43.971,70.000 44.424 C 70.000 44.877,69.858 45.160,69.685 45.052 C 69.512 44.945,69.333 45.304,69.288 45.850 C 69.242 46.396,69.024 47.181,68.803 47.595 C 68.581 48.009,68.400 48.953,68.400 49.694 C 68.400 50.434,68.175 51.282,67.900 51.579 C 67.493 52.017,67.512 52.055,68.000 51.782 C 68.510 51.497,68.521 51.544,68.071 52.099 C 67.302 53.048,67.950 63.245,68.839 64.180 C 69.037 64.389,69.200 64.963,69.200 65.456 C 69.200 65.949,69.380 66.464,69.600 66.600 C 69.820 66.736,70.000 67.407,70.000 68.090 C 70.000 68.774,70.117 69.216,70.261 69.073 C 70.560 68.773,71.600 70.616,71.600 71.446 C 71.600 71.751,71.750 72.000,71.932 72.000 C 72.115 72.000,72.516 72.495,72.822 73.100 C 73.128 73.705,73.924 74.779,74.590 75.487 C 75.255 76.195,75.800 76.927,75.800 77.114 C 75.800 77.687,80.031 81.547,81.251 82.087 C 81.883 82.366,82.400 82.703,82.400 82.835 C 82.400 82.966,83.255 83.505,84.300 84.032 C 85.345 84.558,86.290 85.082,86.400 85.195 C 86.510 85.308,86.960 85.460,87.400 85.533 C 87.840 85.607,88.371 85.832,88.580 86.033 C 88.789 86.235,89.428 86.400,90.000 86.400 C 90.572 86.400,91.211 86.562,91.420 86.759 C 91.629 86.956,92.610 87.225,93.600 87.356 C 94.590 87.487,95.760 87.671,96.200 87.764 C 96.640 87.857,98.837 87.948,101.083 87.967 L 105.166 88.000 105.362 95.300 C 105.606 104.360,105.949 108.886,106.430 109.380 C 106.634 109.589,106.800 110.624,106.800 111.680 C 106.800 112.736,106.962 113.600,107.160 113.600 C 107.358 113.600,107.619 114.365,107.741 115.300 C 108.191 118.747,108.497 120.000,108.890 120.000 C 109.112 120.000,109.199 120.360,109.084 120.800 C 108.858 121.664,109.559 124.453,110.098 124.832 C 110.280 124.960,110.511 125.521,110.612 126.079 C 110.714 126.637,111.067 127.742,111.398 128.534 C 111.729 129.326,112.000 130.351,112.000 130.811 C 112.000 131.271,112.180 131.536,112.400 131.400 C 112.620 131.264,112.800 131.341,112.800 131.570 C 112.800 131.800,113.340 133.102,114.000 134.465 C 114.660 135.827,115.200 137.180,115.200 137.471 C 115.200 137.762,115.380 138.000,115.600 138.000 C 115.820 138.000,116.000 138.390,116.000 138.867 C 116.000 139.343,116.118 139.615,116.263 139.470 C 116.408 139.326,116.971 140.106,117.514 141.204 C 118.057 142.302,118.659 143.200,118.851 143.200 C 119.043 143.200,119.200 143.520,119.200 143.912 C 119.200 144.303,119.560 144.883,120.000 145.200 C 120.440 145.517,120.800 146.057,120.800 146.400 C 120.800 146.743,121.160 147.283,121.600 147.600 C 122.040 147.917,122.400 148.415,122.400 148.706 C 122.400 148.998,122.849 149.686,123.398 150.235 C 123.947 150.784,124.672 151.765,125.008 152.416 C 125.345 153.067,125.807 153.600,126.034 153.600 C 126.261 153.600,126.336 153.780,126.200 154.000 C 126.064 154.220,126.195 154.400,126.490 154.400 C 126.786 154.400,127.332 154.915,127.704 155.546 C 128.824 157.441,139.438 167.910,140.043 167.716 C 140.177 167.673,140.796 168.169,141.418 168.819 C 142.040 169.469,142.706 170.000,142.897 170.000 C 143.087 170.000,143.819 170.539,144.522 171.198 C 145.225 171.857,145.907 172.397,146.039 172.398 C 146.170 172.399,146.696 172.762,147.206 173.206 C 147.746 173.674,148.435 173.916,148.851 173.784 C 149.257 173.655,150.398 174.028,151.484 174.645 C 155.657 177.016,158.919 178.800,159.081 178.800 C 159.174 178.800,160.364 179.319,161.725 179.954 C 165.311 181.626,167.557 182.442,175.000 184.776 C 180.025 186.353,191.158 188.000,196.784 188.000 L 200.000 188.000 200.000 147.200 L 200.000 106.400 198.595 106.400 C 197.822 106.400,196.877 106.560,196.495 106.756 C 196.113 106.952,194.934 107.526,193.875 108.032 C 190.907 109.450,187.600 113.944,187.600 116.561 C 187.600 117.104,187.424 118.010,187.210 118.574 L 186.820 119.600 174.970 119.600 L 163.120 119.600 163.311 116.100 C 163.820 106.778,168.080 98.067,175.200 91.788 C 176.190 90.914,177.090 90.096,177.200 89.970 C 177.310 89.843,178.480 89.022,179.800 88.145 C 185.098 84.623,190.750 82.768,198.800 81.907 L 199.800 81.800 199.902 40.900 L 200.004 0.000 152.602 0.000 L 105.200 0.000 105.200 12.000 " stroke="none" fill="#fcd3a3" fill-rule="evenodd"></path><path id="path2" d="M200.300 83.032 C 200.135 83.198,200.000 88.258,200.000 94.277 L 200.000 105.220 201.026 105.610 C 201.590 105.824,202.412 106.000,202.851 106.000 C 207.072 106.000,213.600 113.418,213.600 118.215 C 213.600 118.733,215.093 118.798,224.900 118.706 L 236.200 118.600 236.098 116.600 C 235.525 105.419,228.140 93.133,219.004 88.163 C 218.562 87.922,217.570 87.371,216.800 86.938 C 212.471 84.505,201.434 81.892,200.300 83.032 M354.400 223.500 C 354.400 223.669,354.760 224.032,355.200 224.307 C 355.640 224.582,356.000 224.669,356.000 224.500 C 356.000 224.331,355.640 223.968,355.200 223.693 C 354.760 223.418,354.400 223.331,354.400 223.500 M356.400 225.058 C 356.400 225.274,356.985 225.979,357.700 226.625 L 359.000 227.800 357.800 226.402 C 357.140 225.633,356.555 224.928,356.500 224.835 C 356.445 224.743,356.400 224.843,356.400 225.058 M369.493 255.700 C 369.781 257.952,370.000 258.121,370.000 256.090 C 370.000 255.187,369.837 254.347,369.638 254.224 C 369.432 254.096,369.369 254.730,369.493 255.700 M369.654 258.467 C 369.625 258.834,369.484 259.464,369.341 259.867 C 369.141 260.433,369.195 260.496,369.575 260.146 C 369.846 259.897,369.987 259.267,369.888 258.746 C 369.790 258.226,369.684 258.100,369.654 258.467 M378.286 284.198 C 379.524 285.407,380.606 286.327,380.691 286.242 C 380.898 286.036,376.780 282.000,376.363 282.000 C 376.182 282.000,377.048 282.989,378.286 284.198 M22.182 282.915 C 21.189 284.068,21.159 284.520,22.135 283.630 C 22.721 283.097,23.200 282.602,23.200 282.530 C 23.200 282.228,22.569 282.467,22.182 282.915 M314.080 338.080 C 313.715 338.445,313.600 345.920,313.600 369.280 L 313.600 400.000 325.300 400.000 L 337.000 400.000 336.898 369.300 C 336.842 352.415,336.713 338.375,336.611 338.100 C 336.349 337.395,314.785 337.375,314.080 338.080 " stroke="none" fill="#fc5c4c" fill-rule="evenodd"></path><path id="path3" d="M200.200 82.800 C 200.064 83.020,198.804 83.200,197.400 83.200 C 195.996 83.200,194.736 83.380,194.600 83.600 C 194.464 83.820,193.791 84.000,193.105 84.000 C 191.988 84.000,190.650 84.326,188.200 85.194 C 181.960 87.407,175.461 92.033,171.986 96.735 C 171.444 97.469,170.820 98.286,170.600 98.550 C 169.600 99.753,166.800 105.124,166.800 105.841 C 166.800 106.148,166.620 106.400,166.400 106.400 C 166.180 106.400,166.000 106.839,166.000 107.376 C 166.000 107.913,165.820 108.464,165.600 108.600 C 165.380 108.736,165.200 109.456,165.200 110.200 C 165.200 110.944,165.020 111.664,164.800 111.800 C 164.580 111.936,164.400 113.477,164.400 115.224 L 164.400 118.400 175.400 118.400 L 186.400 118.400 186.400 116.995 C 186.400 116.222,186.559 115.277,186.753 114.895 C 186.948 114.513,187.348 113.660,187.642 113.000 C 188.876 110.236,194.048 106.000,196.189 106.000 C 196.719 106.000,197.264 105.820,197.400 105.600 C 197.536 105.380,198.076 105.200,198.600 105.200 C 199.124 105.200,199.664 105.380,199.800 105.600 C 199.936 105.820,200.442 105.989,200.924 105.975 L 201.800 105.949 200.900 105.588 L 200.000 105.226 200.000 94.200 L 200.000 83.174 200.900 82.812 C 201.552 82.550,201.614 82.444,201.124 82.425 C 200.752 82.411,200.336 82.580,200.200 82.800 M203.233 82.944 C 203.325 83.024,204.480 83.189,205.800 83.312 C 207.291 83.451,207.821 83.411,207.200 83.207 C 206.212 82.884,202.911 82.665,203.233 82.944 M208.433 83.744 C 208.525 83.823,209.140 84.008,209.800 84.156 C 210.676 84.352,210.838 84.315,210.400 84.018 C 209.860 83.653,208.032 83.398,208.433 83.744 M218.000 87.567 C 218.963 88.352,219.600 88.608,219.600 88.210 C 219.600 88.106,219.015 87.735,218.300 87.386 L 217.000 86.752 218.000 87.567 M220.140 88.703 C 220.296 88.956,220.991 89.567,221.684 90.060 C 222.377 90.554,222.817 90.750,222.660 90.497 C 222.504 90.244,221.809 89.633,221.116 89.140 C 220.423 88.646,219.983 88.450,220.140 88.703 M223.200 90.833 C 223.200 91.157,228.473 96.460,228.635 96.299 C 228.713 96.220,227.522 94.911,225.989 93.389 C 224.455 91.867,223.200 90.716,223.200 90.833 M229.162 97.400 C 229.390 97.840,229.954 98.650,230.415 99.200 C 230.987 99.882,231.122 99.946,230.838 99.400 C 230.610 98.960,230.046 98.150,229.585 97.600 C 229.013 96.918,228.878 96.854,229.162 97.400 M231.800 101.600 C 232.141 102.260,232.511 102.800,232.621 102.800 C 232.731 102.800,232.541 102.260,232.200 101.600 C 231.859 100.940,231.489 100.400,231.379 100.400 C 231.269 100.400,231.459 100.940,231.800 101.600 M203.024 106.375 C 206.282 107.155,211.600 111.275,211.600 113.020 C 211.600 113.313,211.763 113.654,211.963 113.777 C 212.955 114.390,211.665 112.098,209.981 110.256 C 207.992 108.079,204.359 105.969,202.725 106.041 C 201.978 106.074,202.035 106.138,203.024 106.375 M235.438 111.400 C 235.770 113.384,236.002 113.704,235.994 112.167 C 235.991 111.525,235.804 110.730,235.579 110.400 C 235.286 109.970,235.246 110.254,235.438 111.400 M236.126 116.200 L 236.200 118.600 224.929 118.706 C 213.883 118.810,213.654 118.796,213.475 118.000 C 213.322 117.313,213.302 117.328,213.347 118.094 L 213.400 119.000 224.200 119.112 C 237.989 119.256,237.576 119.395,236.378 115.000 C 236.124 114.068,236.068 114.337,236.126 116.200 M212.456 114.800 C 212.456 115.130,212.611 115.760,212.800 116.200 C 213.017 116.704,213.144 116.778,213.144 116.400 C 213.144 116.070,212.989 115.440,212.800 115.000 C 212.583 114.496,212.456 114.422,212.456 114.800 M249.400 174.924 C 248.960 175.186,248.510 175.504,248.400 175.632 C 248.290 175.760,247.615 176.119,246.900 176.430 C 246.185 176.741,245.600 177.131,245.600 177.298 C 245.600 177.464,245.255 177.600,244.833 177.600 C 244.412 177.600,244.007 177.736,243.933 177.902 C 243.580 178.701,231.447 184.000,229.970 184.000 C 229.573 184.000,229.136 184.180,229.000 184.400 C 228.864 184.620,228.401 184.800,227.971 184.800 C 227.541 184.800,226.877 184.968,226.495 185.174 C 224.341 186.335,212.638 188.268,205.436 188.653 L 200.400 188.922 200.400 294.461 L 200.400 400.000 257.000 400.000 L 313.600 400.000 313.600 369.249 C 313.600 343.677,313.692 338.421,314.149 338.042 C 314.537 337.720,317.904 337.618,325.649 337.693 L 336.600 337.800 336.806 368.800 C 336.920 385.850,337.055 399.845,337.106 399.900 C 337.158 399.955,351.330 400.000,368.600 400.000 L 400.000 400.000 399.979 364.100 C 399.967 342.777,399.799 327.063,399.564 325.400 C 398.821 320.124,398.715 319.595,398.358 319.374 C 398.161 319.252,398.000 318.771,398.000 318.305 C 398.000 317.404,397.335 315.061,396.751 313.905 C 396.558 313.523,396.400 312.848,396.400 312.405 C 396.400 311.962,396.220 311.600,396.000 311.600 C 395.780 311.600,395.600 311.251,395.600 310.824 C 395.600 310.397,395.420 309.936,395.200 309.800 C 394.980 309.664,394.800 309.113,394.800 308.576 C 394.800 308.039,394.620 307.600,394.400 307.600 C 394.180 307.600,394.000 307.240,394.000 306.800 C 394.000 306.360,393.820 306.000,393.600 306.000 C 393.380 306.000,393.200 305.640,393.200 305.200 C 393.200 304.760,393.020 304.400,392.800 304.400 C 392.580 304.400,392.400 304.055,392.400 303.633 C 392.400 303.212,392.210 302.803,391.978 302.726 C 391.746 302.649,391.513 302.292,391.461 301.933 C 391.408 301.574,391.158 301.032,390.906 300.727 C 390.653 300.423,390.256 299.730,390.024 299.187 C 389.442 297.825,385.929 292.583,385.209 292.000 C 385.073 291.890,384.527 291.170,383.996 290.400 C 382.936 288.863,374.570 280.510,372.177 278.600 C 369.934 276.809,366.888 274.800,366.416 274.800 C 365.884 274.800,365.872 273.726,366.400 273.400 C 366.620 273.264,366.800 272.713,366.800 272.176 C 366.800 271.639,366.980 271.200,367.200 271.200 C 367.420 271.200,367.600 270.660,367.600 270.000 C 367.600 269.340,367.761 268.800,367.958 268.800 C 368.343 268.800,368.592 267.428,369.226 261.800 C 369.699 257.604,369.700 257.789,369.221 252.600 C 368.705 247.007,367.231 240.853,366.316 240.467 C 366.142 240.393,366.000 240.076,366.000 239.761 C 366.000 239.148,365.719 238.497,364.636 236.600 C 364.259 235.940,363.851 235.085,363.729 234.700 C 363.607 234.315,363.348 234.000,363.153 234.000 C 362.959 234.000,362.800 233.791,362.800 233.536 C 362.800 232.700,357.882 226.544,355.847 224.833 C 355.433 224.485,354.494 223.615,353.760 222.900 C 353.027 222.185,352.241 221.600,352.013 221.600 C 351.786 221.600,351.600 221.420,351.600 221.200 C 351.600 220.980,351.330 220.800,351.000 220.800 C 350.670 220.800,350.400 220.650,350.400 220.468 C 350.400 220.285,349.905 219.880,349.300 219.568 C 348.695 219.256,348.110 218.907,348.000 218.793 C 347.771 218.553,342.697 216.100,341.200 215.504 C 340.650 215.286,339.887 214.948,339.505 214.753 C 339.123 214.559,338.394 214.400,337.885 214.400 C 337.376 214.400,336.789 214.238,336.580 214.041 C 335.628 213.142,317.499 212.393,316.981 213.231 C 316.855 213.434,316.221 213.600,315.571 213.600 C 314.921 213.600,314.077 213.768,313.695 213.973 C 313.313 214.179,312.145 214.578,311.100 214.861 C 310.055 215.143,309.200 215.515,309.200 215.687 C 309.200 215.859,308.885 216.001,308.500 216.001 C 308.115 216.002,307.211 216.362,306.490 216.801 C 305.770 217.241,304.992 217.600,304.762 217.600 C 304.532 217.600,303.559 218.140,302.600 218.800 C 301.641 219.460,300.703 220.000,300.516 220.000 C 300.329 220.000,299.917 220.360,299.600 220.800 C 299.283 221.240,298.885 221.600,298.716 221.600 C 298.079 221.600,291.202 228.077,291.198 228.681 C 291.197 228.856,290.657 229.575,289.998 230.278 C 289.339 230.981,288.800 231.664,288.800 231.795 C 288.800 231.926,288.440 232.420,288.000 232.892 C 287.560 233.364,287.200 233.987,287.200 234.275 C 287.200 234.564,287.020 234.800,286.800 234.800 C 286.580 234.800,286.400 235.160,286.400 235.600 C 286.400 236.040,286.220 236.400,286.000 236.400 C 285.780 236.400,285.600 236.861,285.600 237.424 C 285.600 238.004,285.427 238.340,285.200 238.200 C 284.980 238.064,284.800 238.323,284.800 238.776 C 284.800 239.229,284.620 239.600,284.400 239.600 C 284.180 239.600,284.000 240.140,284.000 240.800 C 284.000 241.460,283.820 242.000,283.600 242.000 C 283.380 242.000,283.200 242.439,283.200 242.976 C 283.200 243.513,283.020 244.064,282.800 244.200 C 282.580 244.336,282.400 244.887,282.400 245.424 C 282.400 246.454,281.730 246.674,280.495 246.048 C 279.754 245.673,275.935 244.622,272.527 243.854 C 271.387 243.598,270.322 243.255,270.160 243.094 C 269.999 242.932,269.367 242.800,268.757 242.800 C 268.147 242.800,267.536 242.620,267.400 242.400 C 267.264 242.180,266.623 242.000,265.976 242.000 C 265.329 242.000,264.800 241.820,264.800 241.600 C 264.800 241.380,264.069 241.200,263.176 241.200 C 262.196 241.200,261.651 241.042,261.800 240.800 C 261.947 240.562,261.471 240.400,260.624 240.400 C 259.841 240.400,259.200 240.220,259.200 240.000 C 259.200 239.780,258.570 239.600,257.800 239.600 C 257.030 239.600,256.400 239.420,256.400 239.200 C 256.400 238.980,255.860 238.800,255.200 238.800 C 254.540 238.800,254.000 238.620,254.000 238.400 C 254.000 238.180,253.370 238.000,252.600 238.000 L 251.200 238.000 251.200 206.200 C 251.200 172.529,251.274 173.808,249.400 174.924 M76.000 369.194 L 76.000 400.000 87.202 400.000 L 98.405 400.000 98.302 369.300 L 98.200 338.600 87.100 338.494 L 76.000 338.387 76.000 369.194 " stroke="none" fill="#fc8464" fill-rule="evenodd"></path><path id="path4" d="M193.200 83.600 L 192.200 83.920 193.276 83.960 C 193.868 83.982,194.464 83.820,194.600 83.600 C 194.881 83.145,194.620 83.145,193.200 83.600 M184.093 86.580 C 182.839 87.272,182.462 87.701,183.412 87.355 C 184.398 86.995,185.914 85.986,185.389 86.039 C 185.175 86.061,184.592 86.304,184.093 86.580 M180.481 88.572 C 178.725 89.814,178.297 90.345,179.800 89.418 C 181.878 88.135,182.591 87.599,182.189 87.620 C 181.975 87.630,181.207 88.059,180.481 88.572 M172.070 96.053 C 171.558 96.684,171.288 97.194,171.470 97.187 C 171.841 97.173,173.356 95.212,173.139 95.025 C 173.063 94.959,172.581 95.422,172.070 96.053 M169.053 100.500 L 168.333 101.800 169.158 100.800 C 169.889 99.913,170.214 99.200,169.886 99.200 C 169.824 99.200,169.449 99.785,169.053 100.500 M197.390 105.616 C 197.221 105.889,197.523 105.938,198.266 105.760 C 199.799 105.392,199.944 105.200,198.690 105.200 C 198.117 105.200,197.532 105.387,197.390 105.616 M164.161 116.897 L 164.200 118.600 175.400 118.610 L 186.600 118.620 175.523 118.504 L 164.445 118.387 164.283 116.791 L 164.122 115.194 164.161 116.897 M235.800 181.578 C 234.920 181.995,234.397 182.350,234.639 182.368 C 235.128 182.404,237.600 181.238,237.600 180.971 C 237.600 180.730,237.576 180.738,235.800 181.578 M231.400 183.218 C 230.300 183.630,229.760 183.961,230.200 183.954 C 230.640 183.947,231.720 183.607,232.600 183.200 C 234.664 182.245,233.973 182.255,231.400 183.218 M225.024 185.250 C 224.157 185.453,223.347 185.721,223.224 185.845 C 222.855 186.217,226.168 185.533,226.580 185.151 C 226.789 184.958,226.879 184.818,226.780 184.840 C 226.681 184.862,225.891 185.047,225.024 185.250 M220.400 186.406 C 219.978 186.682,220.215 186.723,221.200 186.542 C 222.925 186.225,223.251 185.998,221.967 186.006 C 221.435 186.009,220.730 186.189,220.400 186.406 M216.200 187.203 C 215.685 187.426,216.113 187.467,217.400 187.318 C 218.500 187.191,219.475 187.023,219.567 186.944 C 219.914 186.645,216.964 186.872,216.200 187.203 M210.600 188.000 C 208.937 188.423,210.574 188.442,212.600 188.023 C 213.945 187.745,214.009 187.692,213.000 187.693 C 212.340 187.694,211.260 187.832,210.600 188.000 M201.900 188.693 C 202.835 188.777,204.365 188.777,205.300 188.693 C 206.235 188.609,205.470 188.540,203.600 188.540 C 201.730 188.540,200.965 188.609,201.900 188.693 M200.197 294.600 C 200.197 352.680,200.243 376.381,200.300 347.268 C 200.357 318.155,200.357 270.635,200.300 241.668 C 200.243 212.701,200.197 236.520,200.197 294.600 M75.784 338.500 C 75.679 338.775,75.641 352.770,75.699 369.600 L 75.805 400.200 75.903 369.288 L 76.000 338.376 87.200 338.488 C 93.360 338.550,98.400 338.465,98.400 338.300 C 98.400 337.742,75.998 337.940,75.784 338.500 " stroke="none" fill="#fc8c6c" fill-rule="evenodd"></path><path id="path5" d="M199.800 82.400 C 199.664 82.620,198.438 82.833,197.076 82.874 L 194.600 82.948 196.782 83.098 C 197.982 83.180,199.332 83.062,199.782 82.836 C 200.232 82.610,201.230 82.358,202.000 82.276 C 203.327 82.136,203.313 82.125,201.724 82.064 C 200.802 82.029,199.936 82.180,199.800 82.400 M207.800 83.200 C 208.240 83.389,208.960 83.538,209.400 83.532 C 210.043 83.523,210.004 83.457,209.200 83.200 C 207.832 82.762,206.781 82.762,207.800 83.200 M217.600 86.820 C 218.987 87.761,219.778 88.035,218.800 87.236 C 218.250 86.786,217.620 86.417,217.400 86.415 C 217.180 86.413,217.270 86.596,217.600 86.820 M229.999 97.900 C 230.522 98.615,231.013 99.200,231.089 99.200 C 231.393 99.200,230.401 97.700,229.745 97.167 C 229.313 96.816,229.410 97.096,229.999 97.900 M167.781 102.037 C 167.429 102.718,167.212 103.345,167.299 103.432 C 167.386 103.519,167.756 102.962,168.122 102.195 C 168.944 100.470,168.659 100.338,167.781 102.037 M166.065 105.817 C 165.809 106.378,165.607 107.054,165.616 107.319 C 165.624 107.583,165.897 107.188,166.222 106.439 C 166.905 104.865,166.761 104.290,166.065 105.817 M198.000 105.755 C 198.000 105.840,198.530 105.987,199.179 106.082 C 199.827 106.177,200.267 106.108,200.155 105.928 C 199.957 105.607,198.000 105.450,198.000 105.755 M236.080 112.200 C 236.080 112.640,236.224 113.450,236.400 114.000 C 236.654 114.792,236.720 114.833,236.720 114.200 C 236.720 113.760,236.576 112.950,236.400 112.400 C 236.146 111.608,236.080 111.567,236.080 112.200 M163.859 114.500 C 163.522 117.309,163.536 118.801,163.900 118.796 C 164.065 118.794,164.242 117.354,164.294 115.596 C 164.402 111.918,164.223 111.467,163.859 114.500 M186.649 116.215 C 186.512 116.573,186.418 117.256,186.441 117.733 C 186.467 118.281,186.603 118.086,186.810 117.203 C 187.160 115.716,187.065 115.133,186.649 116.215 M212.456 116.800 C 212.456 117.130,212.611 117.760,212.800 118.200 C 213.017 118.704,213.144 118.778,213.144 118.400 C 213.144 118.070,212.989 117.440,212.800 117.000 C 212.583 116.496,212.456 116.422,212.456 116.800 M224.800 119.200 L 213.000 119.418 224.900 119.509 C 232.627 119.568,236.800 119.460,236.800 119.200 C 236.800 118.980,236.755 118.841,236.700 118.891 C 236.645 118.941,231.290 119.080,224.800 119.200 M249.389 174.152 C 247.339 175.584,239.525 179.669,237.449 180.393 C 236.801 180.619,236.379 180.912,236.511 181.045 C 236.811 181.344,245.601 177.085,247.869 175.541 C 248.787 174.916,249.907 174.348,250.358 174.279 C 251.474 174.109,251.921 173.600,250.956 173.600 C 250.528 173.600,249.823 173.848,249.389 174.152 M230.064 183.141 C 227.129 184.150,224.916 185.039,225.145 185.115 C 225.610 185.270,233.635 182.595,235.200 181.763 C 236.822 180.901,235.715 181.199,230.064 183.141 M222.000 185.600 L 221.000 185.920 222.000 185.932 C 222.550 185.938,223.360 185.789,223.800 185.600 L 224.600 185.256 223.800 185.268 C 223.360 185.274,222.550 185.424,222.000 185.600 M218.200 186.400 L 217.000 186.705 218.400 186.747 C 219.170 186.769,220.070 186.613,220.400 186.400 C 221.139 185.923,220.076 185.923,218.200 186.400 M213.600 187.200 L 212.200 187.495 213.800 187.519 C 214.680 187.533,215.760 187.389,216.200 187.200 C 217.242 186.752,215.726 186.752,213.600 187.200 M204.232 187.977 C 201.481 188.132,200.233 188.356,200.162 188.710 C 200.106 188.990,200.151 189.036,200.263 188.810 C 200.382 188.571,202.330 188.380,204.933 188.353 C 207.390 188.327,209.940 188.168,210.600 188.000 C 212.053 187.630,210.522 187.625,204.232 187.977 M75.473 337.861 C 75.323 338.011,75.243 352.098,75.296 369.167 L 75.393 400.200 75.596 369.200 L 75.800 338.200 87.100 338.094 L 98.400 337.988 98.406 368.494 C 98.410 387.578,98.558 399.225,98.801 399.600 C 99.055 399.991,99.157 389.332,99.095 369.000 L 99.000 337.800 87.373 337.694 C 80.978 337.636,75.623 337.711,75.473 337.861 " stroke="none" fill="#fc9473" fill-rule="evenodd"></path><path id="path6" d="M197.105 82.283 C 197.602 82.379,198.322 82.375,198.705 82.275 C 199.087 82.175,198.680 82.096,197.800 82.101 C 196.920 82.105,196.607 82.187,197.105 82.283 M194.100 82.676 C 194.485 82.776,195.115 82.776,195.500 82.676 C 195.885 82.575,195.570 82.493,194.800 82.493 C 194.030 82.493,193.715 82.575,194.100 82.676 M163.429 113.029 C 163.281 113.615,163.238 114.172,163.332 114.266 C 163.427 114.360,163.624 113.958,163.771 113.371 C 163.919 112.785,163.962 112.228,163.868 112.134 C 163.773 112.040,163.576 112.442,163.429 113.029 M149.200 173.886 C 149.530 174.008,150.160 174.274,150.600 174.476 C 151.387 174.838,151.388 174.834,150.624 174.222 C 150.196 173.880,149.566 173.614,149.224 173.632 C 148.685 173.659,148.682 173.693,149.200 173.886 M151.820 175.169 C 152.403 175.736,158.400 178.901,158.400 178.641 C 158.400 178.516,157.455 177.937,156.300 177.355 C 155.145 176.774,153.722 175.960,153.138 175.549 C 152.040 174.774,151.150 174.518,151.820 175.169 M168.800 183.200 C 169.130 183.413,169.670 183.588,170.000 183.588 C 170.533 183.588,170.533 183.545,170.000 183.200 C 169.670 182.987,169.130 182.812,168.800 182.812 C 168.267 182.812,168.267 182.855,168.800 183.200 M171.200 184.000 C 171.530 184.213,172.070 184.388,172.400 184.388 C 172.933 184.388,172.933 184.345,172.400 184.000 C 172.070 183.787,171.530 183.612,171.200 183.612 C 170.667 183.612,170.667 183.655,171.200 184.000 M174.000 184.800 C 174.330 185.013,174.870 185.188,175.200 185.188 C 175.733 185.188,175.733 185.145,175.200 184.800 C 174.870 184.587,174.330 184.412,174.000 184.412 C 173.467 184.412,173.467 184.455,174.000 184.800 M176.800 185.600 C 177.130 185.813,177.850 185.973,178.400 185.954 L 179.400 185.920 178.400 185.600 C 176.858 185.106,176.036 185.106,176.800 185.600 M180.200 186.400 C 180.640 186.589,181.540 186.735,182.200 186.725 L 183.400 186.705 182.200 186.400 C 181.540 186.232,180.640 186.086,180.200 186.075 L 179.400 186.056 180.200 186.400 M184.400 187.187 C 185.391 187.517,188.287 187.735,187.967 187.454 C 187.875 187.374,186.810 187.206,185.600 187.081 C 184.180 186.934,183.754 186.971,184.400 187.187 M190.800 188.033 C 192.607 188.342,200.279 188.527,199.967 188.254 C 199.875 188.174,197.370 188.022,194.400 187.917 C 191.263 187.805,189.754 187.854,190.800 188.033 " stroke="none" fill="#fcbc94" fill-rule="evenodd"></path><path id="path7" d="M200.193 40.800 C 200.193 63.350,200.241 72.575,200.300 61.300 C 200.359 50.025,200.359 31.575,200.300 20.300 C 200.241 9.025,200.193 18.250,200.193 40.800 M200.193 147.400 C 200.193 169.840,200.241 178.961,200.300 167.669 C 200.359 156.378,200.359 138.018,200.300 126.869 C 200.241 115.721,200.193 124.960,200.193 147.400 M169.500 119.499 C 172.635 119.567,177.765 119.567,180.900 119.499 C 184.035 119.432,181.470 119.376,175.200 119.376 C 168.930 119.376,166.365 119.432,169.500 119.499 M151.200 175.164 C 151.750 175.614,152.380 175.983,152.600 175.985 C 153.028 175.988,152.305 175.434,151.000 174.760 C 150.469 174.485,150.536 174.621,151.200 175.164 M159.200 179.366 C 159.200 179.748,167.351 183.216,168.169 183.183 C 168.406 183.173,167.070 182.544,165.200 181.784 C 163.330 181.025,161.350 180.186,160.800 179.921 C 160.250 179.655,159.665 179.374,159.500 179.295 C 159.335 179.217,159.200 179.249,159.200 179.366 M172.033 184.544 C 172.125 184.623,172.740 184.808,173.400 184.956 C 174.276 185.152,174.438 185.115,174.000 184.818 C 173.460 184.453,171.632 184.198,172.033 184.544 M174.833 185.344 C 174.925 185.423,175.540 185.608,176.200 185.756 C 177.076 185.952,177.238 185.915,176.800 185.618 C 176.260 185.253,174.432 184.998,174.833 185.344 M179.000 186.400 C 179.440 186.589,180.070 186.744,180.400 186.744 C 180.778 186.744,180.704 186.617,180.200 186.400 C 179.760 186.211,179.130 186.056,178.800 186.056 C 178.422 186.056,178.496 186.183,179.000 186.400 M182.800 187.200 C 183.350 187.376,184.160 187.520,184.600 187.520 C 185.233 187.520,185.192 187.454,184.400 187.200 C 183.850 187.024,183.040 186.880,182.600 186.880 C 181.967 186.880,182.008 186.946,182.800 187.200 M188.200 187.986 C 188.957 188.325,192.321 188.564,191.967 188.254 C 191.875 188.174,190.810 188.000,189.600 187.868 C 188.163 187.712,187.678 187.752,188.200 187.986 M197.700 188.676 C 198.085 188.776,198.715 188.776,199.100 188.676 C 199.485 188.575,199.170 188.493,198.400 188.493 C 197.630 188.493,197.315 188.575,197.700 188.676 " stroke="none" fill="#fcbc8c" fill-rule="evenodd"></path><path id="path8" d="" stroke="none" fill="#fcb058" fill-rule="evenodd"></path></g></svg>