<svg id="svg" version="1.1" xmlns="http://www.w3.org/2000/svg" xmlns:xlink="http://www.w3.org/1999/xlink" width="400" height="400" viewBox="0, 0, 400,400"><g id="svgg"><path id="path0" d="M122.400 132.800 C 122.400 133.020,121.500 133.200,120.400 133.200 C 119.300 133.200,118.400 133.380,118.400 133.600 C 118.400 133.820,117.680 134.000,116.800 134.000 C 115.920 134.000,115.200 134.180,115.200 134.400 C 115.200 134.620,114.660 134.800,114.000 134.800 C 113.340 134.800,112.800 134.980,112.800 135.200 C 112.800 135.420,112.440 135.600,112.000 135.600 C 111.560 135.600,111.200 135.780,111.200 136.000 C 111.200 136.220,110.885 136.404,110.500 136.409 C 110.115 136.414,109.350 136.770,108.800 137.200 C 108.250 137.630,107.575 137.986,107.300 137.991 C 107.025 137.996,106.800 138.180,106.800 138.400 C 106.800 138.620,106.480 138.800,106.088 138.800 C 105.697 138.800,105.117 139.160,104.800 139.600 C 104.483 140.040,103.985 140.400,103.694 140.400 C 103.402 140.400,102.714 140.850,102.164 141.400 C 101.614 141.950,101.019 142.400,100.843 142.400 C 100.667 142.400,100.090 142.779,99.561 143.241 C 99.033 143.704,98.148 144.469,97.594 144.941 C 97.041 145.414,96.143 146.430,95.599 147.200 C 95.054 147.970,94.103 149.130,93.486 149.779 C 92.868 150.427,92.081 151.552,91.736 152.279 C 91.391 153.005,90.949 153.600,90.754 153.600 C 90.559 153.600,90.400 153.960,90.400 154.400 C 90.400 154.840,90.220 155.200,90.000 155.200 C 89.780 155.200,89.600 155.560,89.600 156.000 C 89.600 156.440,89.450 156.800,89.268 156.800 C 88.926 156.800,88.466 157.624,87.536 159.900 C 87.244 160.615,86.869 161.200,86.702 161.200 C 86.536 161.200,86.400 161.560,86.400 162.000 C 86.400 162.666,86.133 162.800,84.812 162.800 C 82.311 162.800,79.335 164.775,78.032 167.300 C 77.720 167.905,77.315 168.400,77.132 168.400 C 76.950 168.400,76.800 168.760,76.800 169.200 C 76.800 169.640,76.642 170.000,76.450 170.000 C 74.967 170.000,74.967 180.760,76.449 183.695 C 76.642 184.077,76.800 184.662,76.800 184.995 C 76.800 185.328,76.980 185.600,77.200 185.600 C 77.420 185.600,77.600 185.960,77.600 186.400 C 77.600 186.840,77.780 187.200,78.000 187.200 C 78.220 187.200,78.403 187.425,78.407 187.700 C 78.422 188.705,87.077 198.000,87.998 198.000 C 88.234 198.000,89.063 198.636,89.841 199.414 L 91.255 200.828 90.027 201.974 C 89.352 202.605,88.800 203.311,88.800 203.544 C 88.800 203.777,86.955 205.837,84.700 208.121 C 82.445 210.406,79.564 213.428,78.299 214.838 C 77.033 216.247,75.008 218.459,73.799 219.754 C 72.589 221.048,71.596 222.308,71.591 222.554 C 71.586 222.799,70.845 223.630,69.944 224.400 C 67.498 226.491,66.361 227.612,64.669 229.601 C 62.392 232.276,58.813 236.265,57.000 238.148 C 56.120 239.062,55.145 240.303,54.832 240.905 C 54.520 241.507,54.119 242.000,53.940 242.000 C 53.488 242.000,48.772 246.760,47.362 248.640 C 46.723 249.492,45.615 250.782,44.900 251.508 C 43.281 253.150,43.265 253.600,44.826 253.600 C 45.771 253.600,46.499 253.141,48.000 251.600 C 49.071 250.500,50.121 249.600,50.333 249.600 C 50.545 249.600,52.068 248.295,53.717 246.700 C 55.367 245.105,57.381 243.260,58.193 242.600 C 59.005 241.940,60.419 240.678,61.335 239.795 C 62.251 238.912,63.630 237.746,64.400 237.204 C 65.170 236.663,66.825 235.180,68.078 233.910 C 69.331 232.639,70.457 231.600,70.581 231.600 C 71.086 231.600,74.643 228.229,75.588 226.855 C 75.912 226.385,76.362 225.998,76.588 225.995 C 77.081 225.989,79.520 224.012,81.771 221.795 C 82.667 220.912,84.030 219.746,84.800 219.204 C 85.570 218.663,87.225 217.180,88.478 215.910 C 89.731 214.639,90.866 213.600,91.000 213.600 C 91.134 213.600,92.270 212.565,93.523 211.300 C 94.776 210.035,96.545 208.495,97.454 207.878 C 98.363 207.261,99.442 206.435,99.853 206.041 C 100.599 205.328,100.685 205.338,102.795 206.400 C 103.232 206.620,103.864 206.800,104.200 206.800 C 104.536 206.800,105.123 206.958,105.505 207.151 C 106.878 207.845,109.263 208.464,111.412 208.686 C 112.615 208.810,113.600 209.067,113.600 209.256 C 113.600 209.445,114.680 209.600,116.000 209.600 C 117.333 209.600,118.400 209.778,118.400 210.000 C 118.400 210.231,119.659 210.400,121.376 210.400 C 123.013 210.400,124.464 210.580,124.600 210.800 C 124.752 211.047,128.137 211.200,133.424 211.200 C 141.733 211.200,142.000 211.225,142.000 212.000 C 142.000 212.440,141.820 212.800,141.600 212.800 C 141.380 212.800,141.200 213.340,141.200 214.000 C 141.200 214.660,141.020 215.200,140.800 215.200 C 140.580 215.200,140.400 215.740,140.400 216.400 C 140.400 217.060,140.220 217.600,140.000 217.600 C 139.780 217.600,139.600 218.140,139.600 218.800 C 139.600 219.460,139.420 220.000,139.200 220.000 C 138.980 220.000,138.800 220.540,138.800 221.200 C 138.800 221.860,138.620 222.400,138.400 222.400 C 138.180 222.400,138.000 222.940,138.000 223.600 C 138.000 224.260,137.820 224.800,137.600 224.800 C 137.380 224.800,137.200 225.239,137.200 225.776 C 137.200 226.313,137.020 226.864,136.800 227.000 C 136.580 227.136,136.400 227.676,136.400 228.200 C 136.400 228.724,136.220 229.264,136.000 229.400 C 135.780 229.536,135.600 230.076,135.600 230.600 C 135.600 231.124,135.420 231.664,135.200 231.800 C 134.980 231.936,134.800 232.476,134.800 233.000 C 134.800 233.524,134.620 234.064,134.400 234.200 C 134.180 234.336,134.000 234.876,134.000 235.400 C 134.000 235.924,133.820 236.464,133.600 236.600 C 133.380 236.736,133.200 237.276,133.200 237.800 C 133.200 238.324,133.020 238.864,132.800 239.000 C 132.580 239.136,132.400 239.676,132.400 240.200 C 132.400 240.724,132.220 241.264,132.000 241.400 C 131.780 241.536,131.600 242.076,131.600 242.600 C 131.600 243.124,131.420 243.664,131.200 243.800 C 130.980 243.936,130.800 244.476,130.800 245.000 C 130.800 245.524,130.620 246.064,130.400 246.200 C 130.180 246.336,130.000 246.851,130.000 247.344 C 130.000 247.837,129.849 248.411,129.664 248.620 C 129.355 248.970,126.282 258.244,126.394 258.491 C 126.421 258.551,126.187 259.230,125.873 260.000 C 125.560 260.770,125.386 261.625,125.485 261.900 C 125.585 262.175,125.472 262.400,125.233 262.400 C 124.995 262.400,124.800 262.839,124.800 263.376 C 124.800 263.913,124.620 264.464,124.400 264.600 C 124.180 264.736,124.000 265.276,124.000 265.800 C 124.000 266.324,123.820 266.864,123.600 267.000 C 123.380 267.136,123.200 267.687,123.200 268.224 C 123.200 268.761,123.020 269.200,122.800 269.200 C 122.580 269.200,122.400 269.740,122.400 270.400 C 122.400 271.060,122.220 271.600,122.000 271.600 C 121.780 271.600,121.600 272.140,121.600 272.800 C 121.600 273.460,121.420 274.000,121.200 274.000 C 120.980 274.000,120.800 274.540,120.800 275.200 C 120.800 275.860,120.620 276.400,120.400 276.400 C 120.180 276.400,120.000 277.308,120.000 278.418 C 120.000 280.541,121.206 282.400,122.582 282.400 C 122.922 282.400,123.200 282.580,123.200 282.800 C 123.200 283.020,123.650 283.200,124.200 283.200 C 124.750 283.200,125.200 283.020,125.200 282.800 C 125.200 282.580,125.483 282.400,125.829 282.400 C 126.871 282.400,128.400 280.277,128.400 278.829 C 128.400 278.399,128.580 277.936,128.800 277.800 C 129.020 277.664,129.200 277.124,129.200 276.600 C 129.200 276.076,129.380 275.536,129.600 275.400 C 129.820 275.264,130.000 274.713,130.000 274.176 C 130.000 273.639,130.180 273.200,130.400 273.200 C 130.620 273.200,130.800 272.761,130.800 272.224 C 130.800 271.687,130.980 271.136,131.200 271.000 C 131.420 270.864,131.600 270.324,131.600 269.800 C 131.600 269.276,131.780 268.736,132.000 268.600 C 132.220 268.464,132.400 267.924,132.400 267.400 C 132.400 266.876,132.580 266.336,132.800 266.200 C 133.020 266.064,133.200 265.524,133.200 265.000 C 133.200 264.476,133.380 263.936,133.600 263.800 C 133.820 263.664,134.000 263.124,134.000 262.600 C 134.000 262.076,134.180 261.536,134.400 261.400 C 134.620 261.264,134.800 260.724,134.800 260.200 C 134.800 259.676,134.980 259.136,135.200 259.000 C 135.420 258.864,135.600 258.324,135.600 257.800 C 135.600 257.276,135.780 256.736,136.000 256.600 C 136.220 256.464,136.400 255.913,136.400 255.376 C 136.400 254.839,136.580 254.400,136.800 254.400 C 137.020 254.400,137.200 253.860,137.200 253.200 C 137.200 252.540,137.380 252.000,137.600 252.000 C 137.820 252.000,138.000 251.460,138.000 250.800 C 138.000 250.140,138.180 249.600,138.400 249.600 C 138.620 249.600,138.800 249.060,138.800 248.400 C 138.800 247.740,138.980 247.200,139.200 247.200 C 139.420 247.200,139.600 246.660,139.600 246.000 C 139.600 245.340,139.780 244.800,140.000 244.800 C 140.220 244.800,140.400 244.260,140.400 243.600 C 140.400 242.940,140.550 242.400,140.733 242.400 C 140.917 242.400,141.087 242.175,141.112 241.900 C 141.287 239.967,141.761 238.000,142.053 238.000 C 142.244 238.000,142.400 237.460,142.400 236.800 C 142.400 236.140,142.580 235.600,142.800 235.600 C 143.020 235.600,143.200 235.060,143.200 234.400 C 143.200 233.740,143.380 233.200,143.600 233.200 C 143.820 233.200,144.000 232.660,144.000 232.000 C 144.000 231.340,144.180 230.800,144.400 230.800 C 144.620 230.800,144.800 230.260,144.800 229.600 C 144.800 228.940,144.980 228.400,145.200 228.400 C 145.420 228.400,145.600 227.860,145.600 227.200 C 145.600 226.540,145.780 226.000,146.000 226.000 C 146.220 226.000,146.400 225.550,146.400 225.000 C 146.400 224.450,146.580 224.000,146.800 224.000 C 147.020 224.000,147.200 223.460,147.200 222.800 C 147.200 222.140,147.380 221.600,147.600 221.600 C 147.820 221.600,148.000 221.060,148.000 220.400 C 148.000 219.740,148.167 219.200,148.372 219.200 C 148.577 219.200,148.802 218.802,148.872 218.316 C 149.004 217.407,152.292 215.309,153.700 215.236 C 154.085 215.216,154.401 215.065,154.401 214.900 C 154.402 214.735,155.392 214.150,156.600 213.600 C 157.808 213.050,158.798 212.465,158.799 212.300 C 158.799 212.135,159.160 212.000,159.600 212.000 C 160.040 212.000,160.400 211.820,160.400 211.600 C 160.400 211.380,160.760 211.200,161.200 211.200 C 161.640 211.200,162.000 211.020,162.000 210.800 C 162.000 210.580,162.360 210.400,162.800 210.400 C 163.240 210.400,163.600 210.220,163.600 210.000 C 163.600 209.145,165.659 209.649,166.863 210.800 C 167.554 211.460,168.362 212.000,168.659 212.000 C 168.957 212.000,169.200 212.180,169.200 212.400 C 169.200 212.620,169.560 212.800,170.000 212.800 C 170.440 212.800,170.800 212.980,170.800 213.200 C 170.800 213.420,171.160 213.600,171.600 213.600 C 172.040 213.600,172.400 213.780,172.400 214.000 C 172.400 214.220,172.760 214.400,173.200 214.400 C 174.337 214.400,174.269 214.522,171.600 217.232 C 170.280 218.573,169.200 219.846,169.200 220.061 C 169.200 220.276,168.300 221.329,167.200 222.400 C 165.826 223.738,165.200 224.669,165.200 225.374 C 165.200 225.938,165.020 226.400,164.800 226.400 C 164.580 226.400,164.400 226.850,164.400 227.400 C 164.400 227.950,164.220 228.400,164.000 228.400 C 163.780 228.400,163.600 228.940,163.600 229.600 C 163.600 230.260,163.420 230.800,163.200 230.800 C 162.980 230.800,162.800 231.340,162.800 232.000 C 162.800 232.660,162.658 233.200,162.485 233.200 C 162.312 233.200,162.140 233.602,162.103 234.093 C 162.066 234.584,161.873 235.349,161.673 235.793 C 161.012 237.266,160.400 239.445,160.400 240.328 C 160.400 240.808,160.245 241.200,160.055 241.200 C 159.865 241.200,159.733 241.605,159.763 242.100 C 159.792 242.595,159.595 243.230,159.325 243.512 C 159.055 243.793,158.929 244.270,159.044 244.571 C 159.160 244.872,159.062 245.238,158.827 245.383 C 158.592 245.528,158.400 246.177,158.400 246.824 C 158.400 247.471,158.220 248.000,158.000 248.000 C 157.780 248.000,157.600 248.529,157.600 249.176 C 157.600 249.823,157.420 250.464,157.200 250.600 C 156.980 250.736,156.800 251.276,156.800 251.800 C 156.800 252.324,156.620 252.864,156.400 253.000 C 156.180 253.136,156.000 253.766,156.000 254.400 C 156.000 255.034,155.820 255.664,155.600 255.800 C 155.380 255.936,155.200 256.577,155.200 257.224 C 155.200 257.871,155.020 258.400,154.800 258.400 C 154.580 258.400,154.400 258.850,154.400 259.400 C 154.400 259.950,154.220 260.400,154.000 260.400 C 153.780 260.400,153.600 260.940,153.600 261.600 C 153.600 262.260,153.420 262.800,153.200 262.800 C 152.980 262.800,152.800 263.340,152.800 264.000 C 152.800 264.660,152.620 265.200,152.400 265.200 C 152.180 265.200,152.000 265.740,152.000 266.400 C 152.000 267.060,151.820 267.600,151.600 267.600 C 151.380 267.600,151.200 268.140,151.200 268.800 C 151.200 269.460,151.020 270.000,150.800 270.000 C 150.580 270.000,150.400 270.362,150.400 270.805 C 150.400 271.248,150.220 271.968,150.000 272.405 C 149.780 272.842,149.420 273.558,149.200 273.995 C 148.980 274.432,148.800 275.152,148.800 275.595 C 148.800 276.038,148.620 276.400,148.400 276.400 C 148.180 276.400,148.000 276.839,148.000 277.376 C 148.000 277.913,147.820 278.464,147.600 278.600 C 147.380 278.736,147.200 279.287,147.200 279.824 C 147.200 280.361,147.020 280.800,146.800 280.800 C 146.580 280.800,146.400 281.216,146.400 281.725 C 146.400 282.234,146.040 283.395,145.600 284.306 C 145.160 285.216,144.800 286.229,144.800 286.557 C 144.800 286.885,144.620 287.264,144.400 287.400 C 144.180 287.536,144.000 288.072,144.000 288.590 C 144.000 289.109,143.865 289.593,143.700 289.667 C 143.332 289.830,142.000 293.660,142.000 294.554 C 142.000 294.909,141.820 295.200,141.600 295.200 C 141.380 295.200,141.200 295.650,141.200 296.200 C 141.200 296.750,141.020 297.200,140.800 297.200 C 140.580 297.200,140.400 297.560,140.400 298.000 C 140.400 298.440,140.220 298.800,140.000 298.800 C 139.780 298.800,139.600 299.160,139.600 299.600 C 139.600 300.040,139.420 300.400,139.200 300.400 C 138.980 300.400,138.800 300.839,138.800 301.376 C 138.800 301.913,138.620 302.464,138.400 302.600 C 138.180 302.736,138.000 303.197,138.000 303.624 C 138.000 304.051,137.820 304.400,137.600 304.400 C 137.380 304.400,137.200 304.760,137.200 305.200 C 137.200 305.640,137.020 306.000,136.800 306.000 C 136.580 306.000,136.400 306.360,136.400 306.800 C 136.400 307.240,136.254 307.600,136.075 307.600 C 135.896 307.600,135.502 308.230,135.200 309.000 C 134.898 309.770,134.504 310.400,134.325 310.400 C 134.146 310.400,134.000 310.670,134.000 311.000 C 134.000 311.330,133.820 311.600,133.600 311.600 C 133.380 311.600,133.200 311.870,133.200 312.200 C 133.200 312.530,133.020 312.800,132.800 312.800 C 132.580 312.800,132.400 313.120,132.400 313.512 C 132.400 313.903,132.040 314.483,131.600 314.800 C 131.160 315.117,130.800 315.697,130.800 316.088 C 130.800 316.480,130.620 316.800,130.400 316.800 C 129.543 316.800,129.961 320.397,130.931 321.367 C 133.169 323.606,135.305 323.749,137.399 321.800 C 138.085 321.162,140.400 317.598,140.400 317.180 C 140.400 316.971,140.580 316.800,140.800 316.800 C 141.020 316.800,141.200 316.453,141.200 316.029 C 141.200 315.604,141.470 314.987,141.800 314.657 C 142.130 314.327,142.400 313.774,142.400 313.429 C 142.400 313.083,142.580 312.800,142.800 312.800 C 143.020 312.800,143.200 312.440,143.200 312.000 C 143.200 311.560,143.380 311.200,143.600 311.200 C 143.820 311.200,144.000 310.840,144.000 310.400 C 144.000 309.960,144.180 309.600,144.400 309.600 C 144.620 309.600,144.800 309.240,144.800 308.800 C 144.800 308.360,144.980 308.000,145.200 308.000 C 145.420 308.000,145.600 307.550,145.600 307.000 C 145.600 306.450,145.780 306.000,146.000 306.000 C 146.220 306.000,146.400 305.640,146.400 305.200 C 146.400 304.760,146.580 304.400,146.800 304.400 C 147.020 304.400,147.200 304.040,147.200 303.600 C 147.200 303.160,147.380 302.800,147.600 302.800 C 147.820 302.800,148.000 302.451,148.000 302.024 C 148.000 301.597,148.180 301.136,148.400 301.000 C 148.620 300.864,148.800 300.313,148.800 299.776 C 148.800 299.239,148.980 298.800,149.200 298.800 C 149.420 298.800,149.600 298.440,149.600 298.000 C 149.600 297.560,149.780 297.200,150.000 297.200 C 150.220 297.200,150.400 296.660,150.400 296.000 C 150.400 295.340,150.580 294.800,150.800 294.800 C 151.020 294.800,151.200 294.528,151.200 294.195 C 151.200 293.862,151.380 293.232,151.600 292.795 C 151.820 292.358,152.180 291.642,152.400 291.205 C 152.620 290.768,152.800 290.048,152.800 289.605 C 152.800 289.162,152.980 288.800,153.200 288.800 C 153.420 288.800,153.600 288.451,153.600 288.024 C 153.600 287.597,153.780 287.136,154.000 287.000 C 154.220 286.864,154.400 286.324,154.400 285.800 C 154.400 285.276,154.580 284.736,154.800 284.600 C 155.020 284.464,155.200 283.913,155.200 283.376 C 155.200 282.839,155.380 282.400,155.600 282.400 C 155.820 282.400,156.000 281.875,156.000 281.233 C 156.000 280.592,156.143 280.007,156.318 279.933 C 156.691 279.777,158.800 273.270,158.800 272.276 C 158.800 271.904,158.980 271.600,159.200 271.600 C 159.420 271.600,159.600 271.060,159.600 270.400 C 159.600 269.740,159.780 269.200,160.000 269.200 C 160.220 269.200,160.400 268.660,160.400 268.000 C 160.400 267.340,160.580 266.800,160.800 266.800 C 161.020 266.800,161.200 266.260,161.200 265.600 C 161.200 264.940,161.380 264.400,161.600 264.400 C 161.820 264.400,162.000 263.860,162.000 263.200 C 162.000 262.540,162.180 262.000,162.400 262.000 C 162.620 262.000,162.800 261.460,162.800 260.800 C 162.800 260.140,162.980 259.600,163.200 259.600 C 163.420 259.600,163.600 259.060,163.600 258.400 C 163.600 257.740,163.780 257.200,164.000 257.200 C 164.220 257.200,164.400 256.660,164.400 256.000 C 164.400 255.340,164.580 254.800,164.800 254.800 C 165.020 254.800,165.200 254.271,165.200 253.624 C 165.200 252.977,165.380 252.336,165.600 252.200 C 165.820 252.064,166.000 251.423,166.000 250.776 C 166.000 250.129,166.180 249.600,166.400 249.600 C 166.620 249.600,166.800 249.060,166.800 248.400 C 166.800 247.740,166.980 247.200,167.200 247.200 C 167.420 247.200,167.600 246.660,167.600 246.000 C 167.600 245.340,167.780 244.800,168.000 244.800 C 168.220 244.800,168.400 244.408,168.400 243.928 C 168.400 243.008,169.060 240.672,169.649 239.505 C 169.842 239.123,170.000 238.459,170.000 238.029 C 170.000 237.599,170.180 237.136,170.400 237.000 C 170.620 236.864,170.800 236.133,170.800 235.376 C 170.800 234.619,170.980 234.000,171.200 234.000 C 171.420 234.000,171.600 233.460,171.600 232.800 C 171.600 232.140,171.780 231.600,172.000 231.600 C 172.220 231.600,172.400 231.145,172.400 230.589 C 172.400 229.714,173.279 228.461,175.500 226.172 C 175.775 225.889,176.000 225.548,176.000 225.415 C 176.000 225.282,176.622 224.552,177.381 223.792 C 178.909 222.264,179.606 222.294,180.441 223.921 C 180.745 224.515,181.311 225.291,181.697 225.647 C 182.084 226.003,182.400 226.548,182.400 226.859 C 182.400 227.169,182.760 227.683,183.200 228.000 C 183.640 228.317,184.000 228.857,184.000 229.200 C 184.000 229.543,184.360 230.083,184.800 230.400 C 185.626 230.996,185.907 232.400,185.200 232.400 C 184.980 232.400,184.800 232.929,184.800 233.576 C 184.800 234.223,184.620 234.864,184.400 235.000 C 184.180 235.136,184.000 235.599,184.000 236.029 C 184.000 236.459,183.838 237.123,183.639 237.505 C 183.440 237.887,183.063 239.010,182.800 240.000 C 182.537 240.990,182.160 242.113,181.961 242.495 C 181.762 242.877,181.600 243.552,181.600 243.995 C 181.600 244.438,181.420 244.800,181.200 244.800 C 180.980 244.800,180.800 245.340,180.800 246.000 C 180.800 246.660,180.620 247.200,180.400 247.200 C 180.180 247.200,180.000 247.740,180.000 248.400 C 180.000 249.060,179.820 249.600,179.600 249.600 C 179.380 249.600,179.200 250.140,179.200 250.800 C 179.200 251.460,179.020 252.000,178.800 252.000 C 178.580 252.000,178.400 252.540,178.400 253.200 C 178.400 253.860,178.220 254.400,178.000 254.400 C 177.780 254.400,177.600 254.929,177.600 255.576 C 177.600 256.223,177.420 256.864,177.200 257.000 C 176.980 257.136,176.800 257.651,176.800 258.144 C 176.800 258.637,176.584 259.256,176.320 259.520 C 176.056 259.784,175.968 260.000,176.125 260.000 C 176.282 260.000,176.140 260.649,175.808 261.442 C 175.477 262.236,175.297 263.033,175.409 263.215 C 175.521 263.396,175.430 263.658,175.207 263.796 C 174.983 263.934,174.800 264.476,174.800 265.000 C 174.800 265.524,174.620 266.064,174.400 266.200 C 174.180 266.336,174.000 266.876,174.000 267.400 C 174.000 267.924,173.820 268.464,173.600 268.600 C 173.380 268.736,173.200 269.467,173.200 270.224 C 173.200 270.981,173.020 271.600,172.800 271.600 C 172.580 271.600,172.400 272.140,172.400 272.800 C 172.400 273.460,172.220 274.000,172.000 274.000 C 171.780 274.000,171.600 274.439,171.600 274.976 C 171.600 275.513,171.420 276.064,171.200 276.200 C 170.980 276.336,170.800 276.887,170.800 277.424 C 170.800 277.961,170.620 278.400,170.400 278.400 C 170.180 278.400,170.000 278.929,170.000 279.576 C 170.000 280.223,169.820 280.864,169.600 281.000 C 169.380 281.136,169.200 281.687,169.200 282.224 C 169.200 282.761,169.020 283.200,168.800 283.200 C 168.580 283.200,168.400 283.740,168.400 284.400 C 168.400 285.060,168.220 285.600,168.000 285.600 C 167.780 285.600,167.600 286.140,167.600 286.800 C 167.600 287.460,167.420 288.000,167.200 288.000 C 166.980 288.000,166.800 288.540,166.800 289.200 C 166.800 289.860,166.620 290.400,166.400 290.400 C 166.180 290.400,166.000 290.940,166.000 291.600 C 166.000 292.260,165.850 292.800,165.667 292.800 C 165.282 292.800,165.265 292.927,165.190 296.374 C 165.120 299.603,165.878 300.377,169.118 300.391 C 171.555 300.401,173.200 299.203,173.200 297.418 C 173.200 296.858,173.380 296.400,173.600 296.400 C 173.820 296.400,174.000 295.860,174.000 295.200 C 174.000 294.540,174.180 294.000,174.400 294.000 C 174.620 294.000,174.769 293.865,174.732 293.700 C 174.569 292.986,175.323 289.600,175.645 289.600 C 175.840 289.600,176.000 289.060,176.000 288.400 C 176.000 287.740,176.180 287.200,176.400 287.200 C 176.620 287.200,176.800 286.660,176.800 286.000 C 176.800 285.340,176.980 284.800,177.200 284.800 C 177.420 284.800,177.600 284.260,177.600 283.600 C 177.600 282.940,177.780 282.400,178.000 282.400 C 178.220 282.400,178.400 281.860,178.400 281.200 C 178.400 280.540,178.580 280.000,178.800 280.000 C 179.020 280.000,179.200 279.460,179.200 278.800 C 179.200 278.140,179.380 277.600,179.600 277.600 C 179.820 277.600,180.000 277.060,180.000 276.400 C 180.000 275.740,180.180 275.200,180.400 275.200 C 180.620 275.200,180.800 274.660,180.800 274.000 C 180.800 273.340,180.980 272.800,181.200 272.800 C 181.420 272.800,181.600 272.271,181.600 271.624 C 181.600 270.977,181.780 270.336,182.000 270.200 C 182.220 270.064,182.400 269.524,182.400 269.000 C 182.400 268.476,182.580 267.936,182.800 267.800 C 183.020 267.664,183.200 267.023,183.200 266.376 C 183.200 265.729,183.380 265.200,183.600 265.200 C 183.820 265.200,184.000 264.660,184.000 264.000 C 184.000 263.340,184.180 262.800,184.400 262.800 C 184.620 262.800,184.800 262.260,184.800 261.600 C 184.800 260.940,184.980 260.400,185.200 260.400 C 185.420 260.400,185.600 259.961,185.600 259.424 C 185.600 258.887,185.780 258.336,186.000 258.200 C 186.220 258.064,186.400 257.524,186.400 257.000 C 186.400 256.476,186.580 255.936,186.800 255.800 C 187.020 255.664,187.200 255.124,187.200 254.600 C 187.200 254.076,187.380 253.536,187.600 253.400 C 187.820 253.264,188.000 252.801,188.000 252.371 C 188.000 251.941,188.162 251.277,188.361 250.895 C 189.052 249.564,191.600 241.154,191.600 240.204 C 191.600 239.678,191.780 239.136,192.000 239.000 C 192.220 238.864,192.400 238.223,192.400 237.576 C 192.400 236.929,192.580 236.400,192.800 236.400 C 193.020 236.400,193.200 235.860,193.200 235.200 C 193.200 234.540,193.380 234.000,193.600 234.000 C 193.829 234.000,194.000 232.800,194.000 231.200 C 194.000 229.600,193.829 228.400,193.600 228.400 C 193.380 228.400,193.200 228.029,193.200 227.576 C 193.200 227.123,193.020 226.864,192.800 227.000 C 192.580 227.136,192.400 226.877,192.400 226.424 C 192.400 225.971,192.247 225.600,192.061 225.600 C 191.874 225.600,191.397 224.880,191.000 224.000 C 190.603 223.120,190.138 222.400,189.966 222.400 C 189.794 222.400,189.546 222.061,189.415 221.648 C 189.284 221.234,188.822 220.486,188.388 219.986 C 187.955 219.487,187.614 218.880,187.632 218.639 C 187.650 218.384,187.748 218.410,187.865 218.700 C 187.999 219.032,188.993 219.200,190.826 219.200 C 193.504 219.200,193.593 219.232,193.854 220.300 C 194.002 220.905,194.284 221.506,194.482 221.636 C 194.679 221.766,194.869 222.261,194.905 222.736 C 194.941 223.211,195.112 223.600,195.285 223.600 C 195.458 223.600,195.600 223.960,195.600 224.400 C 195.600 224.840,195.780 225.200,196.000 225.200 C 196.220 225.200,196.400 225.560,196.400 226.000 C 196.400 226.440,196.580 226.800,196.800 226.800 C 197.020 226.800,197.200 227.160,197.200 227.600 C 197.200 228.040,197.380 228.400,197.600 228.400 C 197.820 228.400,198.000 228.839,198.000 229.376 C 198.000 229.913,198.180 230.464,198.400 230.600 C 198.620 230.736,198.800 231.197,198.800 231.624 C 198.800 232.051,198.980 232.400,199.200 232.400 C 199.420 232.400,199.600 232.760,199.600 233.200 C 199.600 233.640,199.780 234.000,200.000 234.000 C 200.220 234.000,200.400 234.360,200.400 234.800 C 200.400 235.240,200.580 235.600,200.800 235.600 C 201.020 235.600,201.200 236.050,201.200 236.600 C 201.200 237.150,201.380 237.600,201.600 237.600 C 201.863 237.600,202.000 247.667,202.000 267.000 C 202.000 286.333,202.137 296.400,202.400 296.400 C 202.651 296.400,202.800 298.867,202.800 303.000 C 202.800 307.133,202.949 309.600,203.200 309.600 C 203.442 309.600,203.600 311.333,203.600 314.000 C 203.600 316.667,203.758 318.400,204.000 318.400 C 204.231 318.400,204.400 319.667,204.400 321.400 C 204.400 323.133,204.569 324.400,204.800 324.400 C 205.020 324.400,205.200 325.379,205.200 326.576 C 205.200 327.773,205.380 328.864,205.600 329.000 C 205.820 329.136,206.000 329.957,206.000 330.824 C 206.000 331.691,206.180 332.400,206.400 332.400 C 206.620 332.400,206.800 333.120,206.800 334.000 C 206.800 334.880,206.980 335.600,207.200 335.600 C 207.420 335.600,207.600 335.968,207.600 336.417 C 207.600 339.124,212.413 340.285,214.700 338.129 C 215.309 337.555,215.400 331.600,214.800 331.600 C 214.580 331.600,214.400 330.981,214.400 330.224 C 214.400 329.467,214.220 328.736,214.000 328.600 C 213.780 328.464,213.600 327.553,213.600 326.576 C 213.600 325.599,213.420 324.800,213.200 324.800 C 212.971 324.800,212.800 323.600,212.800 322.000 C 212.800 320.400,212.629 319.200,212.400 319.200 C 212.163 319.200,212.000 317.741,212.000 315.624 C 212.000 313.657,211.820 311.936,211.600 311.800 C 211.367 311.656,211.200 309.396,211.200 306.376 C 211.200 303.192,211.046 301.200,210.800 301.200 C 210.543 301.200,210.400 297.067,210.400 289.600 C 210.400 282.133,210.257 278.000,210.000 278.000 C 209.741 278.000,209.600 273.008,209.600 263.824 C 209.600 254.804,209.746 249.557,210.000 249.400 C 210.241 249.251,210.400 246.463,210.400 242.376 C 210.400 238.125,210.251 235.600,210.000 235.600 C 209.780 235.600,209.600 235.150,209.600 234.600 C 209.600 234.050,209.420 233.600,209.200 233.600 C 208.980 233.600,208.800 233.208,208.800 232.730 C 208.800 232.011,207.153 228.131,205.565 225.105 C 205.364 224.723,205.200 224.138,205.200 223.805 C 205.200 223.472,205.020 223.200,204.800 223.200 C 204.580 223.200,204.400 222.840,204.400 222.400 C 204.400 221.960,204.220 221.600,204.000 221.600 C 203.780 221.600,203.600 221.240,203.600 220.800 C 203.600 220.360,203.420 220.000,203.200 220.000 C 202.980 220.000,202.800 219.640,202.800 219.200 C 202.800 218.497,203.067 218.400,205.000 218.400 C 206.210 218.400,207.200 218.220,207.200 218.000 C 207.200 217.780,207.722 217.600,208.361 217.600 C 209.257 217.600,209.619 217.349,209.949 216.500 C 210.449 215.213,212.366 211.890,212.777 211.600 C 212.933 211.490,213.799 210.320,214.702 209.000 C 217.121 205.464,220.997 201.751,225.247 198.900 C 226.410 198.120,226.473 198.000,225.718 198.000 C 225.239 198.000,224.736 197.820,224.600 197.600 C 224.464 197.380,223.834 197.200,223.200 197.200 C 222.566 197.200,221.936 197.020,221.800 196.800 C 221.664 196.580,221.201 196.400,220.771 196.400 C 220.341 196.400,219.677 196.241,219.295 196.047 C 218.913 195.852,218.150 195.516,217.600 195.300 C 211.566 192.928,209.787 191.798,207.500 188.883 C 207.115 188.392,206.800 187.734,206.800 187.419 C 206.800 187.105,206.620 186.736,206.400 186.600 C 206.180 186.464,206.000 184.833,206.000 182.976 C 206.000 180.992,206.165 179.600,206.400 179.600 C 206.620 179.600,206.800 179.320,206.800 178.978 C 206.800 177.906,209.922 173.700,213.218 170.333 C 214.959 168.553,216.294 166.952,216.184 166.774 C 215.952 166.398,212.434 164.715,210.400 164.007 C 209.630 163.739,208.640 163.371,208.200 163.190 C 207.760 163.009,206.860 162.747,206.200 162.609 C 205.540 162.470,204.190 162.176,203.200 161.955 C 199.866 161.210,193.824 160.747,190.469 160.979 C 187.535 161.182,187.017 161.114,186.122 160.410 C 185.563 159.971,184.903 159.736,184.655 159.890 C 184.407 160.043,183.303 160.318,182.202 160.501 C 178.021 161.195,177.587 161.298,177.373 161.644 C 177.012 162.228,176.000 162.047,176.000 161.400 C 176.000 161.070,175.836 160.800,175.635 160.800 C 175.434 160.800,175.149 160.080,175.000 159.200 C 174.851 158.320,174.566 157.600,174.365 157.600 C 174.164 157.600,174.000 157.240,174.000 156.800 C 174.000 156.360,173.820 156.000,173.600 156.000 C 173.380 156.000,173.200 155.640,173.200 155.200 C 173.200 154.760,173.042 154.400,172.849 154.400 C 172.655 154.400,172.273 153.860,172.000 153.200 C 171.727 152.540,171.375 152.000,171.219 152.000 C 171.063 152.000,170.680 151.505,170.368 150.900 C 169.539 149.294,162.578 142.522,160.973 141.760 C 160.218 141.402,159.600 140.949,159.600 140.754 C 159.600 140.559,159.330 140.400,159.000 140.400 C 158.670 140.400,158.400 140.220,158.400 140.000 C 158.400 139.780,158.130 139.600,157.800 139.600 C 157.470 139.600,157.200 139.420,157.200 139.200 C 157.200 138.980,156.930 138.800,156.600 138.800 C 156.270 138.800,156.000 138.620,156.000 138.400 C 156.000 138.180,155.640 138.000,155.200 138.000 C 154.760 138.000,154.400 137.820,154.400 137.600 C 154.400 137.380,153.961 137.200,153.424 137.200 C 152.887 137.200,152.336 137.020,152.200 136.800 C 152.064 136.580,151.603 136.400,151.176 136.400 C 150.749 136.400,150.400 136.220,150.400 136.000 C 150.400 135.780,149.860 135.600,149.200 135.600 C 148.540 135.600,148.000 135.420,148.000 135.200 C 148.000 134.980,147.460 134.800,146.800 134.800 C 146.140 134.800,145.600 134.620,145.600 134.400 C 145.600 134.180,144.891 134.000,144.024 134.000 C 143.157 134.000,142.336 133.820,142.200 133.600 C 142.064 133.380,140.883 133.200,139.576 133.200 C 138.259 133.200,137.200 133.022,137.200 132.800 C 137.200 132.548,134.467 132.400,129.800 132.400 C 125.133 132.400,122.400 132.548,122.400 132.800 M108.677 157.629 C 109.636 158.140,110.426 158.945,110.741 159.729 C 111.022 160.428,111.421 161.313,111.626 161.695 C 112.127 162.625,112.106 168.288,111.600 168.600 C 111.380 168.736,111.200 169.377,111.200 170.024 C 111.200 170.671,111.020 171.200,110.800 171.200 C 110.580 171.200,110.400 171.560,110.400 172.000 C 110.400 172.440,110.220 172.800,110.000 172.800 C 109.780 172.800,109.600 173.056,109.600 173.369 C 109.600 176.303,103.384 177.826,101.263 175.411 C 95.982 169.396,102.306 154.228,108.677 157.629 M145.144 164.631 C 147.878 166.246,149.414 173.667,147.754 177.239 C 147.508 177.768,147.058 178.735,146.754 179.389 C 144.208 184.854,138.746 185.502,136.447 180.611 C 135.488 178.570,135.269 173.660,136.051 171.719 C 138.666 165.225,141.893 162.710,145.144 164.631 " stroke="none" fill="#53517e" fill-rule="evenodd"></path><path id="path1" d="M224.600 200.066 C 219.535 203.574,211.607 212.774,209.995 217.012 C 209.498 218.319,209.475 224.110,209.965 224.620 C 210.165 224.829,210.435 226.035,210.565 227.300 C 211.166 233.178,211.297 234.000,211.637 234.000 C 211.837 234.000,212.000 234.799,212.000 235.776 C 212.000 236.753,212.180 237.664,212.400 237.800 C 212.620 237.936,212.800 238.667,212.800 239.424 C 212.800 240.181,212.980 240.800,213.200 240.800 C 213.420 240.800,213.600 241.340,213.600 242.000 C 213.600 242.660,213.780 243.200,214.000 243.200 C 214.220 243.200,214.400 243.920,214.400 244.800 C 214.400 245.680,214.580 246.400,214.800 246.400 C 215.020 246.400,215.200 246.940,215.200 247.600 C 215.200 248.260,215.380 248.800,215.600 248.800 C 215.820 248.800,216.000 249.340,216.000 250.000 C 216.000 250.660,216.180 251.200,216.400 251.200 C 216.620 251.200,216.800 251.639,216.800 252.176 C 216.800 252.713,216.980 253.264,217.200 253.400 C 217.420 253.536,217.600 253.997,217.600 254.424 C 217.600 254.851,217.780 255.200,218.000 255.200 C 218.220 255.200,218.400 255.650,218.400 256.200 C 218.400 256.750,218.580 257.200,218.800 257.200 C 219.020 257.200,219.200 257.560,219.200 258.000 C 219.200 258.440,219.380 258.800,219.600 258.800 C 219.820 258.800,220.000 259.239,220.000 259.776 C 220.000 260.313,220.180 260.864,220.400 261.000 C 220.620 261.136,220.800 261.597,220.800 262.024 C 220.800 262.451,220.980 262.800,221.200 262.800 C 221.420 262.800,221.600 263.160,221.600 263.600 C 221.600 264.040,221.780 264.400,222.000 264.400 C 222.220 264.400,222.400 264.760,222.400 265.200 C 222.400 265.640,222.580 266.000,222.800 266.000 C 223.020 266.000,223.200 266.360,223.200 266.800 C 223.200 267.240,223.380 267.600,223.600 267.600 C 223.820 267.600,224.000 267.960,224.000 268.400 C 224.000 268.840,224.180 269.200,224.400 269.200 C 224.620 269.200,224.800 269.446,224.800 269.746 C 224.800 270.046,225.138 270.721,225.550 271.246 C 225.963 271.771,226.328 272.290,226.362 272.400 C 226.395 272.510,226.529 273.005,226.658 273.500 C 226.787 273.995,227.030 274.400,227.198 274.400 C 227.366 274.400,227.727 274.940,228.000 275.600 C 228.273 276.260,228.655 276.800,228.849 276.800 C 229.042 276.800,229.200 277.120,229.200 277.512 C 229.200 277.903,229.560 278.483,230.000 278.800 C 230.440 279.117,230.800 279.609,230.800 279.892 C 230.800 280.175,231.340 280.972,232.000 281.663 C 232.660 282.354,233.200 283.122,233.200 283.371 C 233.200 283.620,233.560 284.083,234.000 284.400 C 234.440 284.717,234.800 285.180,234.800 285.429 C 234.800 285.678,235.340 286.446,236.000 287.137 C 236.660 287.828,237.200 288.574,237.200 288.796 C 237.200 289.018,237.380 289.200,237.600 289.200 C 237.820 289.200,238.000 289.481,238.000 289.824 C 238.000 290.167,238.180 290.336,238.400 290.200 C 238.620 290.064,238.800 290.221,238.800 290.549 C 238.800 290.878,239.160 291.260,239.600 291.400 C 240.040 291.540,240.400 291.918,240.400 292.241 C 240.400 292.844,240.646 293.152,243.901 296.627 C 244.945 297.742,246.250 299.246,246.800 299.970 C 248.419 302.101,250.940 304.500,255.200 307.966 C 256.457 308.988,260.023 312.188,261.814 313.900 C 262.561 314.615,263.322 315.200,263.503 315.200 C 263.684 315.200,264.628 315.920,265.600 316.800 C 266.572 317.680,267.560 318.400,267.796 318.400 C 268.031 318.400,268.483 318.760,268.800 319.200 C 269.117 319.640,269.657 320.000,270.000 320.000 C 270.343 320.000,270.883 320.360,271.200 320.800 C 271.517 321.240,271.911 321.600,272.076 321.600 C 272.240 321.600,273.596 322.372,275.088 323.315 C 276.579 324.258,278.295 325.279,278.900 325.583 C 279.505 325.886,280.000 326.285,280.000 326.468 C 280.000 326.650,280.360 326.800,280.800 326.800 C 281.240 326.800,281.600 326.980,281.600 327.200 C 281.600 327.420,281.960 327.600,282.400 327.600 C 282.840 327.600,283.200 327.780,283.200 328.000 C 283.200 328.220,283.560 328.400,284.000 328.400 C 284.440 328.400,284.800 328.580,284.800 328.800 C 284.800 329.020,285.160 329.200,285.600 329.200 C 286.040 329.200,286.401 329.335,286.403 329.500 C 286.407 329.859,288.344 330.800,289.080 330.800 C 289.366 330.800,289.600 330.980,289.600 331.200 C 289.600 331.420,289.945 331.600,290.367 331.600 C 290.788 331.600,291.193 331.735,291.267 331.900 C 291.488 332.399,294.822 334.000,295.638 334.000 C 296.057 334.000,296.400 334.180,296.400 334.400 C 296.400 334.620,296.749 334.800,297.176 334.800 C 297.603 334.800,298.064 334.980,298.200 335.200 C 298.336 335.420,298.887 335.600,299.424 335.600 C 299.961 335.600,300.400 335.780,300.400 336.000 C 300.400 336.220,300.940 336.400,301.600 336.400 C 302.260 336.400,302.800 336.580,302.800 336.800 C 302.800 337.020,303.239 337.200,303.776 337.200 C 304.313 337.200,304.864 337.380,305.000 337.600 C 305.136 337.820,305.777 338.000,306.424 338.000 C 307.071 338.000,307.600 338.180,307.600 338.400 C 307.600 338.620,308.219 338.800,308.976 338.800 C 309.733 338.800,310.452 338.961,310.574 339.158 C 310.695 339.355,311.471 339.615,312.297 339.737 C 313.124 339.859,314.790 340.157,316.000 340.398 C 322.665 341.727,338.738 342.016,340.163 340.832 C 340.820 340.285,338.992 338.004,337.894 338.001 C 337.432 338.000,331.600 332.074,331.600 331.606 C 331.600 331.383,331.420 331.200,331.200 331.200 C 330.980 331.200,330.800 330.930,330.800 330.600 C 330.800 330.270,330.620 330.000,330.400 330.000 C 330.180 330.000,330.000 329.640,330.000 329.200 C 330.000 328.760,329.854 328.400,329.675 328.400 C 329.496 328.400,329.102 327.770,328.800 327.000 C 328.498 326.230,328.104 325.600,327.925 325.600 C 327.746 325.600,327.600 325.161,327.600 324.624 C 327.600 324.087,327.420 323.536,327.200 323.400 C 326.980 323.264,326.800 322.623,326.800 321.976 C 326.800 321.329,326.620 320.800,326.400 320.800 C 326.180 320.800,326.000 320.095,326.000 319.233 C 326.000 318.372,325.810 317.603,325.578 317.526 C 325.320 317.440,324.999 314.286,324.751 309.393 C 324.386 302.216,324.153 298.006,323.378 284.600 C 323.251 282.400,322.979 280.429,322.773 280.220 C 322.568 280.011,322.400 278.526,322.400 276.920 C 322.400 275.240,322.230 274.000,322.000 274.000 C 321.778 274.000,321.600 272.941,321.600 271.624 C 321.600 270.317,321.420 269.136,321.200 269.000 C 320.980 268.864,320.800 267.874,320.800 266.800 C 320.800 265.726,320.620 264.736,320.400 264.600 C 320.180 264.464,320.000 263.654,320.000 262.800 C 320.000 261.946,319.820 261.136,319.600 261.000 C 319.380 260.864,319.200 260.043,319.200 259.176 C 319.200 258.309,319.020 257.600,318.800 257.600 C 318.580 257.600,318.400 256.981,318.400 256.224 C 318.400 255.467,318.220 254.736,318.000 254.600 C 317.780 254.464,317.600 253.823,317.600 253.176 C 317.600 252.529,317.420 252.000,317.200 252.000 C 316.980 252.000,316.800 251.381,316.800 250.624 C 316.800 249.867,316.620 249.136,316.400 249.000 C 316.180 248.864,316.000 248.324,316.000 247.800 C 316.000 247.276,315.820 246.736,315.600 246.600 C 315.380 246.464,315.200 245.913,315.200 245.376 C 315.200 244.839,315.020 244.400,314.800 244.400 C 314.580 244.400,314.400 244.051,314.400 243.624 C 314.400 243.197,314.220 242.736,314.000 242.600 C 313.780 242.464,313.600 241.913,313.600 241.376 C 313.600 240.839,313.420 240.400,313.200 240.400 C 312.980 240.400,312.800 240.040,312.800 239.600 C 312.800 239.160,312.620 238.800,312.400 238.800 C 312.180 238.800,312.000 238.440,312.000 238.000 C 312.000 237.560,311.820 237.200,311.600 237.200 C 311.380 237.200,311.200 236.840,311.200 236.400 C 311.200 235.960,311.020 235.600,310.800 235.600 C 310.580 235.600,310.400 235.240,310.400 234.800 C 310.400 234.360,310.220 234.000,310.000 234.000 C 309.780 234.000,309.600 233.640,309.600 233.200 C 309.600 232.760,309.420 232.400,309.200 232.400 C 308.980 232.400,308.800 232.085,308.799 231.700 C 308.798 231.315,308.168 229.956,307.399 228.680 C 306.630 227.404,306.000 226.229,306.000 226.068 C 306.000 225.908,305.640 225.517,305.200 225.200 C 304.760 224.883,304.400 224.303,304.400 223.912 C 304.400 223.520,304.232 223.200,304.027 223.200 C 303.822 223.200,303.538 222.834,303.396 222.387 C 303.254 221.940,302.702 221.138,302.169 220.605 C 301.636 220.072,301.200 219.430,301.200 219.179 C 301.200 218.927,300.660 218.217,300.000 217.600 C 299.340 216.983,298.800 216.305,298.800 216.093 C 298.800 215.881,297.807 214.648,296.593 213.354 C 295.380 212.059,293.355 209.884,292.093 208.520 C 290.832 207.157,289.653 206.032,289.474 206.020 C 289.295 206.009,288.228 205.055,287.103 203.900 L 285.057 201.800 266.420 201.780 C 256.170 201.770,247.548 201.615,247.260 201.437 C 246.972 201.259,245.176 200.953,243.268 200.757 C 239.067 200.326,235.284 199.765,232.600 199.175 C 228.010 198.168,227.211 198.257,224.600 200.066 M41.800 254.800 C 41.360 255.459,40.865 255.998,40.700 255.999 C 40.535 255.999,40.400 256.360,40.400 256.800 C 40.400 257.240,40.254 257.600,40.075 257.600 C 39.896 257.600,39.502 258.230,39.200 259.000 C 38.898 259.770,38.504 260.400,38.325 260.400 C 38.146 260.400,38.000 260.760,38.000 261.200 C 38.000 261.640,37.820 262.000,37.600 262.000 C 37.380 262.000,37.200 262.278,37.200 262.617 C 37.200 262.956,36.840 263.620,36.400 264.092 C 35.960 264.564,35.600 265.187,35.600 265.475 C 35.600 265.764,35.420 266.000,35.200 266.000 C 34.980 266.000,34.800 266.360,34.800 266.800 C 34.800 267.240,34.620 267.600,34.400 267.600 C 34.180 267.600,34.000 267.960,34.000 268.400 C 34.000 268.840,33.820 269.200,33.600 269.200 C 33.380 269.200,33.200 269.560,33.200 270.000 C 33.200 270.440,33.020 270.800,32.800 270.800 C 32.580 270.800,32.400 271.160,32.400 271.600 C 32.400 272.040,32.220 272.400,32.000 272.400 C 31.780 272.400,31.600 272.760,31.600 273.200 C 31.600 273.640,31.420 274.000,31.200 274.000 C 30.980 274.000,30.800 274.360,30.800 274.800 C 30.800 275.240,30.620 275.600,30.400 275.600 C 30.180 275.600,30.000 275.960,30.000 276.400 C 30.000 276.840,29.820 277.200,29.600 277.200 C 29.380 277.200,29.200 277.549,29.200 277.976 C 29.200 278.403,29.020 278.864,28.800 279.000 C 28.580 279.136,28.400 279.597,28.400 280.024 C 28.400 280.451,28.220 280.800,28.000 280.800 C 27.780 280.800,27.600 281.160,27.600 281.600 C 27.600 282.040,27.420 282.400,27.200 282.400 C 26.980 282.400,26.800 282.677,26.800 283.016 C 26.800 283.355,26.436 284.345,25.992 285.216 C 25.547 286.087,25.313 286.800,25.472 286.800 C 25.630 286.800,25.544 287.016,25.280 287.280 C 25.016 287.544,24.800 288.174,24.800 288.680 C 24.800 289.186,24.620 289.600,24.400 289.600 C 24.180 289.600,24.000 289.960,24.000 290.400 C 24.000 290.840,23.820 291.200,23.600 291.200 C 23.380 291.200,23.200 291.650,23.200 292.200 C 23.200 292.750,23.020 293.200,22.800 293.200 C 22.580 293.200,22.400 293.740,22.400 294.400 C 22.400 295.060,22.220 295.600,22.000 295.600 C 21.780 295.600,21.600 295.960,21.600 296.400 C 21.600 296.840,21.420 297.200,21.200 297.200 C 20.980 297.200,20.800 297.729,20.800 298.376 C 20.800 299.023,20.620 299.664,20.400 299.800 C 20.180 299.936,20.000 300.667,20.000 301.424 C 20.000 302.181,19.820 302.800,19.600 302.800 C 19.351 302.800,19.200 305.133,19.200 309.000 C 19.200 312.867,19.351 315.200,19.600 315.200 C 19.820 315.200,20.000 315.740,20.000 316.400 C 20.000 317.060,20.180 317.600,20.400 317.600 C 20.620 317.600,20.800 318.140,20.800 318.800 C 20.800 319.460,20.980 320.000,21.200 320.000 C 21.420 320.000,21.600 320.360,21.600 320.800 C 21.600 321.240,21.780 321.600,22.000 321.600 C 22.220 321.600,22.400 321.870,22.400 322.200 C 22.400 322.530,22.580 322.800,22.800 322.800 C 23.020 322.800,23.200 323.070,23.200 323.400 C 23.200 323.730,23.380 324.000,23.600 324.000 C 23.820 324.000,24.000 324.185,24.000 324.411 C 24.000 324.788,24.783 325.738,27.660 328.852 C 28.244 329.483,28.969 330.000,29.272 330.000 C 29.575 330.000,30.083 330.360,30.400 330.800 C 30.717 331.240,31.297 331.600,31.688 331.600 C 32.080 331.600,32.400 331.780,32.400 332.000 C 32.400 332.220,32.760 332.400,33.200 332.400 C 33.640 332.400,34.000 332.580,34.000 332.800 C 34.000 333.020,34.360 333.200,34.800 333.200 C 35.240 333.200,35.600 333.380,35.600 333.600 C 35.600 333.820,36.140 334.000,36.800 334.000 C 37.460 334.000,38.000 334.163,38.000 334.363 C 38.000 334.740,40.393 335.076,45.700 335.445 C 47.780 335.590,48.800 335.519,48.800 335.230 C 48.800 334.981,49.639 334.800,50.800 334.800 C 51.900 334.800,52.800 334.620,52.800 334.400 C 52.800 334.180,53.340 334.000,54.000 334.000 C 54.660 334.000,55.200 333.820,55.200 333.600 C 55.200 333.380,55.650 333.200,56.200 333.200 C 56.750 333.200,57.200 333.020,57.200 332.800 C 57.200 332.580,57.560 332.400,58.000 332.400 C 58.440 332.400,58.800 332.220,58.800 332.000 C 58.800 331.780,59.043 331.600,59.341 331.600 C 59.638 331.600,60.446 331.060,61.137 330.400 C 61.828 329.740,62.535 329.200,62.708 329.200 C 63.145 329.200,66.000 326.389,66.000 325.958 C 66.000 325.765,66.510 325.110,67.134 324.503 C 67.758 323.897,68.522 322.815,68.832 322.100 C 69.142 321.385,69.531 320.800,69.698 320.800 C 69.864 320.800,70.000 320.451,70.000 320.024 C 70.000 319.597,70.180 319.136,70.400 319.000 C 70.620 318.864,70.800 318.324,70.800 317.800 C 70.800 317.276,70.961 316.748,71.158 316.626 C 72.411 315.852,72.411 302.148,71.158 301.374 C 70.961 301.252,70.800 300.623,70.800 299.976 C 70.800 299.329,70.620 298.800,70.400 298.800 C 70.180 298.800,70.000 298.361,70.000 297.824 C 70.000 297.287,69.820 296.736,69.600 296.600 C 69.380 296.464,69.200 296.001,69.200 295.571 C 69.200 294.816,69.056 294.426,68.062 292.505 C 67.808 292.013,67.600 291.338,67.600 291.005 C 67.600 290.672,67.420 290.400,67.200 290.400 C 66.980 290.400,66.800 290.121,66.800 289.781 C 66.800 289.440,66.440 288.416,66.000 287.506 C 65.560 286.595,65.200 285.614,65.200 285.325 C 65.200 285.036,65.020 284.800,64.800 284.800 C 64.580 284.800,64.400 284.440,64.400 284.000 C 64.400 283.560,64.220 283.200,64.000 283.200 C 63.780 283.200,63.600 282.928,63.600 282.595 C 63.600 282.262,63.440 281.677,63.244 281.295 C 63.048 280.913,62.463 279.700,61.944 278.600 C 61.425 277.500,60.865 276.540,60.700 276.467 C 60.535 276.393,60.400 275.988,60.400 275.567 C 60.400 275.145,60.220 274.800,60.000 274.800 C 59.780 274.800,59.600 274.440,59.600 274.000 C 59.600 273.560,59.420 273.200,59.200 273.200 C 58.980 273.200,58.800 272.924,58.800 272.587 C 58.800 272.250,57.963 270.315,56.940 268.287 C 55.917 266.259,54.882 264.196,54.640 263.703 C 54.398 263.210,54.065 262.805,53.900 262.803 C 53.735 262.801,53.600 262.440,53.600 262.000 C 53.600 261.560,53.420 261.200,53.200 261.200 C 52.980 261.200,52.800 260.840,52.800 260.400 C 52.800 259.960,52.620 259.600,52.400 259.600 C 52.180 259.600,52.000 259.330,52.000 259.000 C 52.000 258.670,51.820 258.400,51.600 258.400 C 51.380 258.400,51.200 258.040,51.200 257.600 C 51.200 257.160,51.020 256.800,50.800 256.800 C 50.580 256.800,50.400 256.522,50.400 256.182 C 50.400 253.488,43.425 252.367,41.800 254.800 " stroke="none" fill="#d9325a" fill-rule="evenodd"></path><path id="path2" d="M291.493 58.640 C 291.361 58.773,290.566 58.971,289.726 59.082 C 288.887 59.193,287.975 59.466,287.700 59.691 C 287.425 59.915,287.200 59.989,287.200 59.855 C 287.200 59.721,286.255 59.988,285.100 60.448 C 283.945 60.908,282.820 61.316,282.600 61.353 C 282.055 61.447,275.850 64.471,275.600 64.765 C 275.124 65.325,272.889 66.356,272.656 66.123 C 272.515 65.982,272.400 66.055,272.400 66.285 C 272.400 66.515,271.860 66.927,271.200 67.200 C 270.540 67.473,270.000 67.855,270.000 68.049 C 270.000 68.242,269.764 68.400,269.475 68.400 C 269.187 68.400,268.564 68.760,268.092 69.200 C 267.620 69.640,267.046 70.000,266.817 70.000 C 266.588 70.000,266.400 70.136,266.400 70.302 C 266.400 70.469,265.815 70.861,265.100 71.173 C 264.385 71.486,263.565 72.070,263.277 72.471 C 262.990 72.872,262.577 73.200,262.361 73.200 C 262.144 73.200,261.580 73.560,261.108 74.000 C 260.636 74.440,260.013 74.800,259.725 74.800 C 259.436 74.800,259.200 74.978,259.200 75.195 C 259.200 75.412,258.435 76.070,257.500 76.657 C 256.565 77.244,254.855 78.528,253.700 79.511 C 252.545 80.493,251.600 81.166,251.600 81.006 C 251.600 80.846,251.105 81.238,250.500 81.876 C 249.895 82.515,249.024 83.299,248.565 83.619 C 247.388 84.438,242.980 88.296,241.035 90.209 C 240.136 91.093,238.953 92.130,238.406 92.512 C 235.775 94.351,227.200 102.520,227.200 103.187 C 227.200 103.440,227.032 103.544,226.827 103.417 C 226.622 103.290,226.201 103.548,225.891 103.991 C 225.582 104.433,225.209 104.676,225.064 104.531 C 224.919 104.386,224.800 104.448,224.800 104.670 C 224.800 104.891,224.035 105.855,223.100 106.812 C 222.165 107.769,221.445 108.697,221.500 108.876 C 221.555 109.054,221.407 109.200,221.171 109.200 C 220.546 109.200,219.590 110.257,219.919 110.586 C 220.074 110.740,220.005 110.807,219.767 110.733 C 219.225 110.566,212.747 117.179,211.082 119.600 C 210.400 120.590,209.345 121.871,208.735 122.447 C 208.126 123.023,207.742 123.608,207.881 123.747 C 208.020 123.886,207.864 124.000,207.534 124.000 C 207.205 124.000,206.680 124.495,206.368 125.100 C 206.055 125.705,205.305 126.677,204.700 127.260 C 204.095 127.844,203.600 128.479,203.600 128.672 C 203.600 128.865,203.240 129.283,202.800 129.600 C 202.360 129.917,202.000 130.407,202.000 130.688 C 202.000 130.970,201.820 131.200,201.600 131.200 C 201.380 131.200,201.200 131.430,201.200 131.712 C 201.200 131.993,200.840 132.483,200.400 132.800 C 199.960 133.117,199.600 133.562,199.599 133.788 C 199.599 134.015,199.059 134.830,198.400 135.600 C 197.741 136.370,197.201 137.129,197.201 137.288 C 197.200 137.446,196.390 138.827,195.400 140.358 C 194.410 141.888,193.600 143.312,193.600 143.521 C 193.600 143.731,193.332 144.124,193.004 144.396 C 192.677 144.668,192.507 145.050,192.628 145.245 C 192.749 145.440,192.702 145.601,192.524 145.603 C 192.346 145.605,192.002 146.010,191.760 146.503 C 191.517 146.996,190.907 148.210,190.403 149.200 C 189.899 150.190,189.311 151.450,189.097 152.000 C 188.882 152.550,188.548 153.313,188.353 153.695 C 188.159 154.077,188.000 154.662,188.000 154.995 C 188.000 155.328,187.820 155.600,187.600 155.600 C 187.380 155.600,187.200 156.050,187.200 156.600 C 187.200 157.150,187.020 157.600,186.800 157.600 C 186.580 157.600,186.400 158.128,186.400 158.773 L 186.400 159.946 192.900 160.135 C 199.586 160.330,204.419 160.960,207.000 161.975 C 207.440 162.148,208.520 162.511,209.400 162.782 C 213.708 164.108,217.422 166.087,217.336 167.012 C 217.289 167.517,217.554 167.392,218.336 166.538 C 219.337 165.447,224.457 161.600,224.910 161.600 C 225.024 161.600,226.262 160.908,227.659 160.062 C 232.276 157.267,241.219 153.326,248.396 150.925 C 252.272 149.628,257.250 147.205,256.970 146.752 C 256.851 146.558,257.007 146.400,257.318 146.400 C 257.629 146.400,258.315 145.895,258.842 145.278 C 259.369 144.660,260.387 143.747,261.105 143.247 C 261.822 142.748,262.307 142.173,262.181 141.969 C 262.056 141.766,262.242 141.600,262.595 141.600 C 262.948 141.600,263.652 141.195,264.159 140.700 C 264.667 140.205,265.514 139.431,266.041 138.980 C 266.569 138.528,267.547 137.538,268.214 136.780 C 268.882 136.021,270.104 134.815,270.928 134.100 C 271.753 133.385,272.333 132.800,272.217 132.800 C 272.100 132.800,273.984 130.811,276.403 128.379 C 278.821 125.948,280.800 123.777,280.800 123.556 C 280.800 123.334,280.980 123.264,281.200 123.400 C 281.420 123.536,281.600 123.502,281.600 123.324 C 281.601 123.146,282.068 122.460,282.640 121.800 C 283.211 121.140,284.246 119.906,284.939 119.058 C 286.104 117.632,287.335 116.214,289.153 114.200 C 289.550 113.760,290.108 112.961,290.392 112.425 C 290.676 111.889,291.244 111.090,291.654 110.650 C 292.064 110.209,292.400 109.613,292.400 109.325 C 292.400 109.036,292.573 108.800,292.785 108.800 C 292.997 108.800,293.929 107.675,294.857 106.300 C 295.784 104.925,296.871 103.509,297.272 103.153 C 297.672 102.797,298.000 102.311,298.000 102.073 C 298.000 101.644,300.311 97.986,300.825 97.600 C 300.972 97.490,301.218 96.996,301.372 96.502 C 301.526 96.009,301.894 95.363,302.189 95.068 C 302.741 94.517,307.257 85.390,307.179 84.984 C 307.155 84.860,307.434 84.303,307.798 83.747 C 308.163 83.190,308.363 82.480,308.243 82.168 C 308.123 81.855,308.199 81.600,308.413 81.600 C 308.626 81.600,308.800 81.060,308.800 80.400 C 308.800 79.740,308.980 79.200,309.200 79.200 C 309.420 79.200,309.600 78.480,309.600 77.600 C 309.600 76.720,309.780 76.000,310.000 76.000 C 310.229 76.000,310.400 74.800,310.400 73.200 C 310.400 71.600,310.229 70.400,310.000 70.400 C 309.780 70.400,309.600 69.804,309.600 69.075 C 309.600 67.624,308.214 64.400,307.591 64.400 C 307.376 64.400,307.200 64.155,307.200 63.856 C 307.200 63.557,306.728 62.972,306.151 62.556 C 305.574 62.140,304.802 61.492,304.436 61.115 C 302.445 59.070,292.890 57.243,291.493 58.640 M374.800 153.983 C 369.666 159.299,361.437 164.499,352.400 168.137 C 351.410 168.536,350.195 169.028,349.700 169.231 C 346.123 170.697,344.101 171.438,339.420 172.995 C 329.774 176.205,315.393 179.787,306.400 181.221 C 305.190 181.414,303.030 181.758,301.600 181.986 C 266.394 187.591,235.062 185.696,214.478 176.717 C 211.562 175.445,210.807 174.953,210.992 174.447 C 211.122 174.091,210.682 174.375,210.014 175.078 C 209.346 175.781,208.800 176.463,208.800 176.592 C 208.800 176.722,208.485 177.309,208.100 177.896 C 206.493 180.349,205.997 183.359,206.850 185.481 C 207.893 188.076,208.272 188.679,209.817 190.200 C 211.620 191.975,212.882 192.800,213.795 192.800 C 214.128 192.800,214.400 192.980,214.400 193.200 C 214.400 193.420,214.724 193.600,215.120 193.600 C 215.516 193.600,216.011 193.749,216.220 193.930 C 216.429 194.112,217.410 194.505,218.400 194.802 C 219.390 195.100,220.380 195.468,220.600 195.618 C 220.820 195.769,221.450 195.994,222.000 196.118 C 222.550 196.243,223.720 196.543,224.600 196.787 C 228.091 197.751,237.217 199.527,241.000 199.977 C 243.200 200.239,246.400 200.632,248.112 200.850 C 251.512 201.284,277.757 201.376,280.336 200.964 C 281.421 200.790,282.331 200.907,283.174 201.327 C 283.856 201.667,284.310 201.778,284.183 201.573 C 284.056 201.368,284.244 201.200,284.600 201.200 C 285.002 201.200,285.140 201.390,284.965 201.700 C 284.739 202.100,284.790 202.100,285.221 201.700 C 285.518 201.425,286.699 201.200,287.847 201.200 C 289.160 201.200,289.996 201.015,290.102 200.700 C 290.230 200.319,290.446 200.342,291.012 200.800 C 291.439 201.146,291.626 201.188,291.453 200.900 C 291.262 200.582,291.389 200.400,291.800 200.400 C 292.202 200.400,292.340 200.590,292.165 200.900 C 291.939 201.300,291.990 201.300,292.421 200.900 C 292.718 200.625,293.633 200.400,294.456 200.400 C 295.279 200.400,296.057 200.231,296.184 200.025 C 296.493 199.526,297.998 199.658,298.006 200.185 C 298.010 200.415,298.149 200.384,298.319 200.117 C 298.488 199.852,299.740 199.572,301.101 199.496 C 302.462 199.420,303.701 199.232,303.855 199.079 C 304.008 198.925,304.834 198.800,305.690 198.800 C 306.626 198.800,307.149 198.640,307.000 198.400 C 306.852 198.160,307.369 198.000,308.296 198.000 C 309.145 198.000,310.056 197.784,310.320 197.520 C 310.652 197.188,310.928 197.168,311.215 197.455 C 311.666 197.906,314.400 197.260,314.400 196.702 C 314.400 196.536,314.591 196.400,314.824 196.400 C 315.057 196.400,315.136 196.580,315.000 196.800 C 314.864 197.020,314.943 197.200,315.176 197.200 C 315.409 197.200,315.600 197.020,315.600 196.800 C 315.600 196.580,316.230 196.400,317.000 196.400 C 317.770 196.400,318.400 196.220,318.400 196.000 C 318.400 195.780,319.120 195.600,320.000 195.600 C 320.880 195.600,321.600 195.420,321.600 195.200 C 321.600 194.980,322.320 194.800,323.200 194.800 C 324.080 194.800,324.800 194.620,324.800 194.400 C 324.800 194.180,325.419 194.000,326.176 194.000 C 326.933 194.000,327.669 193.811,327.812 193.581 C 327.986 193.299,328.281 193.331,328.712 193.681 C 329.193 194.070,329.278 194.075,329.053 193.700 C 328.852 193.365,329.024 193.200,329.576 193.200 C 330.029 193.200,330.400 193.020,330.400 192.800 C 330.400 192.580,331.015 192.400,331.767 192.400 C 332.518 192.400,333.193 192.220,333.267 192.000 C 333.380 191.662,334.423 191.475,337.524 191.240 C 337.812 191.218,337.944 191.032,337.817 190.828 C 337.691 190.623,337.798 190.325,338.055 190.166 C 338.348 189.985,338.416 190.050,338.238 190.338 C 337.812 191.027,339.039 190.904,339.757 190.186 C 340.095 189.848,340.468 189.578,340.586 189.586 C 340.704 189.594,340.935 189.580,341.100 189.556 C 341.265 189.531,341.825 189.547,342.345 189.590 C 342.937 189.640,343.190 189.507,343.021 189.235 C 342.854 188.964,343.148 188.800,343.800 188.800 C 344.396 188.800,344.741 188.628,344.600 188.400 C 344.464 188.180,344.543 188.000,344.776 188.000 C 345.009 188.000,345.200 188.188,345.200 188.418 C 345.200 188.648,345.643 188.393,346.185 187.852 C 346.831 187.205,347.450 186.940,347.985 187.080 C 348.446 187.201,348.800 187.099,348.800 186.847 C 348.800 186.601,349.329 186.400,349.976 186.400 C 350.623 186.400,351.264 186.220,351.400 186.000 C 351.536 185.780,351.997 185.600,352.424 185.600 C 352.851 185.600,353.200 185.420,353.200 185.200 C 353.200 184.980,353.560 184.800,354.000 184.800 C 354.440 184.800,354.800 184.620,354.800 184.400 C 354.800 184.180,355.171 184.000,355.624 184.000 C 356.077 184.000,356.336 183.820,356.200 183.600 C 356.064 183.380,356.303 183.200,356.731 183.200 C 357.732 183.200,359.668 182.201,359.327 181.861 C 359.184 181.717,359.367 181.600,359.733 181.600 C 360.100 181.600,360.400 181.420,360.400 181.200 C 360.400 180.980,360.828 180.800,361.351 180.800 C 362.394 180.800,363.367 179.918,362.897 179.399 C 362.733 179.220,362.922 179.188,363.315 179.330 C 363.763 179.490,364.115 179.365,364.257 178.996 C 364.382 178.671,364.612 178.484,364.769 178.581 C 364.926 178.678,365.537 178.310,366.127 177.762 C 366.717 177.215,367.200 176.963,367.200 177.202 C 367.200 177.441,367.662 177.175,368.226 176.611 C 368.790 176.046,369.448 175.706,369.688 175.854 C 369.949 176.015,370.009 175.938,369.838 175.662 C 369.669 175.388,369.807 175.200,370.176 175.200 C 370.519 175.200,370.800 175.009,370.800 174.776 C 370.800 174.543,370.980 174.464,371.201 174.600 C 371.421 174.737,371.781 174.376,372.000 173.800 C 372.219 173.224,372.572 172.859,372.785 172.991 C 372.997 173.122,373.524 172.876,373.955 172.445 C 374.387 172.013,375.106 171.464,375.555 171.224 C 376.039 170.965,376.278 170.547,376.142 170.194 C 376.008 169.845,376.143 169.600,376.468 169.600 C 377.274 169.600,378.481 168.103,377.875 167.856 C 377.596 167.743,377.663 167.650,378.036 167.632 C 378.721 167.598,379.645 165.974,379.835 164.470 C 379.899 163.959,380.188 163.249,380.476 162.893 C 380.863 162.416,380.869 162.325,380.500 162.547 C 380.185 162.736,380.000 162.616,380.000 162.224 C 380.000 161.881,380.193 161.600,380.428 161.600 C 381.164 161.600,380.506 152.612,379.729 152.041 C 379.184 151.642,379.165 150.800,379.700 150.794 C 380.033 150.790,380.000 150.658,379.600 150.400 C 378.740 149.844,378.945 149.692,374.800 153.983 M215.178 169.500 L 213.800 171.000 215.300 169.622 C 216.696 168.338,216.984 168.000,216.678 168.000 C 216.612 168.000,215.937 168.675,215.178 169.500 M212.175 172.500 L 211.000 173.800 212.300 172.625 C 213.015 171.979,213.600 171.394,213.600 171.325 C 213.600 171.016,213.270 171.288,212.175 172.500 " stroke="none" fill="#c4c4f4" fill-rule="evenodd"></path><path id="path3" d="M321.380 136.775 C 321.171 136.982,319.020 137.248,316.600 137.367 C 308.097 137.785,304.996 138.060,304.620 138.428 C 304.411 138.633,302.926 138.800,301.320 138.800 C 299.640 138.800,298.400 138.970,298.400 139.200 C 298.400 139.424,297.293 139.600,295.880 139.600 C 294.494 139.600,293.189 139.765,292.980 139.966 C 292.771 140.168,291.520 140.431,290.200 140.551 C 285.829 140.949,283.804 141.273,283.420 141.639 C 283.211 141.837,282.187 142.000,281.144 142.000 C 280.101 142.000,279.159 142.142,279.052 142.316 C 278.944 142.490,278.169 142.672,277.328 142.721 C 275.143 142.847,266.033 144.831,262.172 146.021 C 261.496 146.230,260.562 146.400,260.095 146.400 C 259.629 146.400,259.136 146.580,259.000 146.800 C 258.864 147.020,258.348 147.200,257.852 147.200 C 257.357 147.200,255.703 147.813,254.176 148.562 C 252.649 149.311,250.048 150.375,248.396 150.927 C 241.245 153.315,232.281 157.264,227.659 160.062 C 226.262 160.908,225.024 161.600,224.910 161.600 C 223.427 161.600,210.840 173.430,210.806 174.856 C 210.803 174.997,212.465 175.839,214.500 176.727 C 235.031 185.682,266.535 187.591,301.500 182.000 C 302.875 181.780,305.035 181.436,306.300 181.235 C 315.334 179.802,329.718 176.223,339.420 172.995 C 344.101 171.438,346.123 170.697,349.700 169.231 C 350.195 169.028,351.410 168.536,352.400 168.137 C 364.079 163.435,380.194 151.676,378.676 148.964 C 377.820 147.434,374.052 144.020,372.459 143.330 C 371.546 142.935,370.800 142.474,370.800 142.306 C 370.800 142.138,370.440 142.000,370.000 142.000 C 369.560 142.000,369.200 141.820,369.200 141.600 C 369.200 141.380,368.851 141.200,368.424 141.200 C 367.997 141.200,367.536 141.020,367.400 140.800 C 367.264 140.580,366.713 140.400,366.176 140.400 C 365.639 140.400,365.200 140.220,365.200 140.000 C 365.200 139.780,364.480 139.600,363.600 139.600 C 362.720 139.600,362.000 139.420,362.000 139.200 C 362.000 138.980,361.280 138.800,360.400 138.800 C 359.520 138.800,358.800 138.620,358.800 138.400 C 358.800 138.180,357.911 138.000,356.824 138.000 C 355.737 138.000,354.736 137.820,354.600 137.600 C 354.464 137.380,352.844 137.200,351.000 137.200 C 349.156 137.200,347.536 137.020,347.400 136.800 C 347.077 136.277,321.908 136.254,321.380 136.775 M380.202 153.197 C 380.067 153.415,380.141 153.910,380.366 154.297 C 380.717 154.900,380.777 154.844,380.788 153.900 C 380.801 152.750,380.616 152.528,380.202 153.197 M380.090 162.581 C 380.182 163.685,380.492 163.583,380.674 162.390 C 380.741 161.955,380.618 161.600,380.402 161.600 C 380.186 161.600,380.045 162.041,380.090 162.581 M110.924 165.000 C 110.926 166.320,111.001 166.812,111.090 166.093 C 111.179 165.374,111.177 164.294,111.086 163.693 C 110.995 163.092,110.922 163.680,110.924 165.000 M142.500 165.076 C 142.885 165.176,143.515 165.176,143.900 165.076 C 144.285 164.975,143.970 164.893,143.200 164.893 C 142.430 164.893,142.115 164.975,142.500 165.076 M100.137 169.000 C 100.139 170.760,100.209 171.430,100.293 170.489 C 100.378 169.549,100.377 168.109,100.291 167.289 C 100.205 166.470,100.136 167.240,100.137 169.000 M366.230 177.652 C 365.807 178.063,365.649 178.400,365.881 178.400 C 366.343 178.400,367.409 177.265,367.157 177.042 C 367.071 176.966,366.654 177.240,366.230 177.652 M346.792 187.205 C 346.019 187.682,346.417 187.966,347.373 187.619 C 347.799 187.464,347.970 187.229,347.754 187.095 C 347.538 186.962,347.106 187.011,346.792 187.205 M318.400 196.000 C 318.400 196.220,318.670 196.400,319.000 196.400 C 319.330 196.400,319.600 196.220,319.600 196.000 C 319.600 195.780,319.330 195.600,319.000 195.600 C 318.670 195.600,318.400 195.780,318.400 196.000 M310.200 197.600 C 310.064 197.820,310.334 198.000,310.800 198.000 C 311.266 198.000,311.536 197.820,311.400 197.600 C 311.264 197.380,310.994 197.200,310.800 197.200 C 310.606 197.200,310.336 197.380,310.200 197.600 M296.237 199.941 C 296.138 200.100,296.495 200.266,297.029 200.311 C 297.563 200.355,298.000 200.251,298.000 200.081 C 298.000 199.681,296.472 199.559,296.237 199.941 M290.000 200.875 C 290.000 201.069,290.443 201.168,290.985 201.095 C 292.469 200.897,292.658 200.446,291.241 200.486 C 290.558 200.506,290.000 200.681,290.000 200.875 " stroke="none" fill="#dcdbfb" fill-rule="evenodd"></path><path id="path4" d="M104.976 157.822 C 104.226 158.423,104.230 158.430,105.074 158.022 C 106.502 157.332,107.862 157.536,109.169 158.636 C 109.846 159.205,110.400 159.490,110.400 159.268 C 110.400 157.831,106.323 156.744,104.976 157.822 M186.240 160.154 C 186.500 160.837,186.833 160.885,189.764 160.660 C 197.302 160.083,209.690 162.713,215.521 166.130 L 216.843 166.904 213.519 170.352 C 207.644 176.447,206.000 179.172,206.000 182.818 C 206.000 189.328,209.753 192.625,221.600 196.521 C 223.910 197.281,226.430 198.004,227.200 198.129 C 228.899 198.404,227.852 197.916,225.200 197.197 C 224.210 196.928,223.040 196.574,222.600 196.410 C 222.160 196.245,221.080 195.894,220.200 195.629 C 218.133 195.006,216.459 194.313,212.052 192.256 C 210.702 191.626,208.296 189.181,207.653 187.786 C 207.353 187.134,206.948 186.287,206.753 185.905 C 206.269 184.954,206.306 180.505,206.800 180.200 C 207.020 180.064,207.200 179.684,207.200 179.354 C 207.200 178.248,210.511 173.826,213.868 170.449 C 218.058 166.234,218.072 166.291,212.200 164.041 C 210.880 163.536,209.440 162.980,209.000 162.807 C 204.688 161.107,195.205 159.759,190.240 160.140 C 187.867 160.323,186.814 160.255,186.453 159.896 C 186.053 159.500,186.011 159.552,186.240 160.154 M111.385 165.469 C 111.377 167.331,111.499 168.527,111.657 168.127 C 112.039 167.160,112.065 163.121,111.694 162.542 C 111.532 162.290,111.393 163.607,111.385 165.469 M142.000 164.400 C 141.566 164.681,141.898 164.782,143.200 164.766 C 144.570 164.749,144.809 164.662,144.200 164.400 C 143.129 163.940,142.712 163.940,142.000 164.400 M139.301 166.149 C 136.232 169.521,134.835 175.155,136.057 179.231 C 136.506 180.731,138.555 183.600,139.176 183.600 C 139.351 183.600,138.924 182.995,138.228 182.257 C 134.740 178.559,135.534 170.493,139.805 166.221 C 140.587 165.440,141.070 164.800,140.878 164.800 C 140.686 164.800,139.976 165.407,139.301 166.149 M146.367 166.578 C 147.045 167.666,147.621 169.016,147.646 169.578 C 147.680 170.310,147.746 170.392,147.882 169.868 C 148.131 168.903,147.265 166.847,146.082 165.600 C 145.315 164.791,145.370 164.977,146.367 166.578 M99.452 167.300 C 99.135 168.483,99.182 170.412,99.551 171.351 C 99.718 171.775,99.836 170.862,99.823 169.251 C 99.797 166.072,99.791 166.037,99.452 167.300 M110.846 169.467 C 110.821 169.724,110.684 170.264,110.541 170.667 C 110.340 171.236,110.394 171.297,110.779 170.942 C 111.052 170.691,111.189 170.151,111.084 169.742 C 110.979 169.334,110.872 169.210,110.846 169.467 M148.101 172.200 C 148.105 173.080,148.187 173.393,148.283 172.895 C 148.379 172.398,148.375 171.678,148.275 171.295 C 148.175 170.913,148.096 171.320,148.101 172.200 M110.000 171.877 C 110.000 172.103,109.235 173.161,108.300 174.229 C 107.329 175.339,107.003 175.892,107.540 175.520 C 108.659 174.745,110.571 172.037,110.236 171.702 C 110.106 171.573,110.000 171.651,110.000 171.877 M100.000 172.915 C 100.000 173.485,100.955 175.200,101.273 175.200 C 101.463 175.200,101.309 174.705,100.930 174.100 C 100.032 172.664,100.000 172.623,100.000 172.915 M147.664 174.867 C 147.629 175.454,147.484 176.264,147.341 176.667 C 147.143 177.229,147.196 177.295,147.570 176.951 C 147.844 176.699,147.986 175.909,147.893 175.151 C 147.759 174.053,147.716 174.000,147.664 174.867 M102.224 176.187 C 103.027 176.795,106.400 177.039,106.400 176.489 C 106.400 176.319,105.664 176.249,104.765 176.335 C 103.866 176.420,102.930 176.290,102.685 176.045 C 102.440 175.800,102.062 175.600,101.844 175.600 C 101.625 175.600,101.796 175.864,102.224 176.187 M146.457 178.816 C 145.289 181.454,142.780 183.561,140.720 183.632 C 140.214 183.649,140.033 183.757,140.317 183.871 C 142.143 184.603,147.721 179.764,147.123 177.968 C 147.054 177.762,146.754 178.144,146.457 178.816 M258.500 201.887 C 259.105 201.978,260.095 201.978,260.700 201.887 C 261.305 201.795,260.810 201.720,259.600 201.720 C 258.390 201.720,257.895 201.795,258.500 201.887 M266.112 201.895 C 267.164 201.977,268.784 201.976,269.712 201.892 C 270.640 201.808,269.780 201.741,267.800 201.742 C 265.820 201.743,265.060 201.812,266.112 201.895 " stroke="none" fill="#9e94b8" fill-rule="evenodd"></path><path id="path5" d="M282.200 141.600 C 281.429 141.931,281.431 141.945,282.276 141.972 C 282.758 141.987,283.264 141.820,283.400 141.600 C 283.692 141.127,283.301 141.127,282.200 141.600 M103.840 159.440 C 102.507 160.773,102.103 161.460,100.856 164.519 C 98.989 169.098,102.374 178.586,104.954 176.006 C 105.177 175.783,105.602 175.600,105.898 175.600 C 107.009 175.600,109.411 172.550,110.294 170.018 C 110.945 168.149,110.949 161.850,110.300 160.717 C 108.496 157.570,106.170 157.110,103.840 159.440 M140.874 165.887 C 136.157 169.173,135.148 179.520,139.252 182.516 C 143.375 185.527,149.279 175.535,147.145 169.160 C 145.932 165.538,143.326 164.179,140.874 165.887 " stroke="none" fill="#fafafb" fill-rule="evenodd"></path><path id="path6" d="M187.300 160.276 C 187.685 160.376,188.315 160.376,188.700 160.276 C 189.085 160.175,188.770 160.093,188.000 160.093 C 187.230 160.093,186.915 160.175,187.300 160.276 M196.033 160.144 C 196.125 160.223,197.100 160.391,198.200 160.518 C 199.487 160.667,199.915 160.626,199.400 160.403 C 198.636 160.072,195.686 159.845,196.033 160.144 M99.701 169.000 C 99.705 169.880,99.787 170.193,99.883 169.695 C 99.979 169.198,99.975 168.478,99.875 168.095 C 99.775 167.713,99.696 168.120,99.701 169.000 M214.975 169.300 L 213.800 170.600 215.100 169.425 C 215.815 168.779,216.400 168.194,216.400 168.125 C 216.400 167.816,216.070 168.088,214.975 169.300 M147.714 172.200 C 147.717 173.300,147.795 173.703,147.887 173.095 C 147.979 172.486,147.977 171.586,147.882 171.095 C 147.787 170.603,147.711 171.100,147.714 172.200 " stroke="none" fill="#b4bccc" fill-rule="evenodd"></path><path id="path7" d="M111.309 165.200 C 111.309 166.190,111.387 166.595,111.482 166.100 C 111.578 165.605,111.578 164.795,111.482 164.300 C 111.387 163.805,111.309 164.210,111.309 165.200 M228.000 197.979 C 228.330 198.204,229.125 198.391,229.767 198.394 C 231.304 198.402,230.984 198.170,229.000 197.838 C 227.854 197.646,227.570 197.686,228.000 197.979 M231.600 198.779 C 231.930 199.004,232.725 199.191,233.367 199.194 C 234.904 199.202,234.584 198.970,232.600 198.638 C 231.454 198.446,231.170 198.486,231.600 198.779 M235.400 199.592 C 236.157 199.925,239.921 200.163,239.567 199.856 C 239.475 199.776,238.320 199.605,237.000 199.476 C 235.476 199.326,234.892 199.369,235.400 199.592 M240.600 200.389 C 241.040 200.584,242.480 200.761,243.800 200.781 C 245.120 200.802,246.920 200.997,247.800 201.214 C 248.737 201.445,255.948 201.584,265.200 201.551 C 273.890 201.519,281.630 201.501,282.400 201.510 C 283.724 201.525,283.745 201.505,282.800 201.133 C 282.250 200.917,281.109 200.848,280.265 200.980 C 277.707 201.381,251.199 201.270,248.200 200.846 C 243.837 200.230,239.678 199.980,240.600 200.389 " stroke="none" fill="#bcbccc" fill-rule="evenodd"></path><path id="path8" d="M191.705 160.687 C 192.314 160.779,193.214 160.777,193.705 160.682 C 194.197 160.587,193.700 160.511,192.600 160.514 C 191.500 160.517,191.097 160.595,191.705 160.687 M187.505 161.083 C 188.002 161.179,188.722 161.175,189.105 161.075 C 189.487 160.975,189.080 160.896,188.200 160.901 C 187.320 160.905,187.007 160.987,187.505 161.083 M213.578 169.900 L 212.200 171.400 213.700 170.022 C 215.096 168.738,215.384 168.400,215.078 168.400 C 215.012 168.400,214.337 169.075,213.578 169.900 M224.801 199.233 C 220.497 202.149,217.117 205.435,214.752 209.000 C 213.876 210.320,213.660 210.770,214.270 210.000 C 216.623 207.033,222.323 201.647,224.996 199.864 C 226.533 198.839,227.523 198.003,227.196 198.007 C 226.868 198.011,225.791 198.563,224.801 199.233 M211.982 212.700 C 211.678 213.305,211.088 214.305,210.671 214.923 C 210.254 215.541,209.983 216.117,210.070 216.203 C 210.156 216.290,210.897 215.289,211.715 213.980 C 212.533 212.671,213.053 211.600,212.869 211.600 C 212.685 211.600,212.286 212.095,211.982 212.700 " stroke="none" fill="#84547c" fill-rule="evenodd"></path></g></svg>