<svg id="svg" version="1.1" xmlns="http://www.w3.org/2000/svg" xmlns:xlink="http://www.w3.org/1999/xlink" width="400" height="400" viewBox="0, 0, 400,400"><g id="svgg"><path id="path0" d="M197.800 89.718 C 156.054 94.465,153.276 151.429,194.400 159.417 C 212.543 162.941,229.521 151.407,234.639 132.080 C 235.271 129.691,235.416 120.028,234.847 118.160 C 234.652 117.522,234.272 116.190,234.001 115.200 C 229.694 99.452,213.353 87.950,197.800 89.718 " stroke="none" fill="#3d529d" fill-rule="evenodd"></path><path id="path1" d="M116.800 270.400 C 116.800 304.267,116.665 321.600,116.400 321.600 C 116.178 321.600,116.000 322.667,116.000 324.000 C 116.000 325.333,115.822 326.400,115.600 326.400 C 115.380 326.400,115.200 327.210,115.200 328.200 C 115.200 329.190,115.020 330.000,114.800 330.000 C 114.580 330.000,114.400 330.452,114.400 331.005 C 114.400 331.558,114.238 332.323,114.039 332.705 C 113.840 333.087,113.449 334.210,113.169 335.200 C 112.890 336.190,112.512 337.171,112.330 337.380 C 112.149 337.589,112.000 338.174,112.000 338.680 C 112.000 339.186,111.820 339.600,111.600 339.600 C 111.380 339.600,111.200 339.960,111.200 340.400 C 111.200 340.840,111.020 341.200,110.800 341.200 C 110.580 341.200,110.400 341.460,110.400 341.779 C 110.400 342.097,109.950 343.204,109.400 344.238 C 108.850 345.273,108.400 346.362,108.400 346.660 C 108.400 346.957,108.220 347.200,108.000 347.200 C 107.780 347.200,107.600 347.520,107.600 347.912 C 107.600 348.303,107.240 348.883,106.800 349.200 C 106.360 349.517,106.000 350.057,106.000 350.400 C 106.000 350.743,105.640 351.283,105.200 351.600 C 104.760 351.917,104.400 352.425,104.400 352.728 C 104.400 353.031,103.860 353.783,103.200 354.400 C 102.540 355.017,102.000 355.695,102.000 355.909 C 102.000 356.122,100.830 357.466,99.400 358.896 C 97.970 360.326,96.800 361.786,96.800 362.140 C 96.800 363.127,113.007 379.200,114.002 379.200 C 115.151 379.200,122.195 372.019,123.766 369.246 C 123.967 368.891,124.251 368.510,124.396 368.400 C 124.541 368.290,125.007 367.575,125.430 366.812 C 125.854 366.049,126.515 365.070,126.900 364.637 C 127.285 364.203,127.600 363.613,127.600 363.325 C 127.600 363.036,127.780 362.800,128.000 362.800 C 128.220 362.800,128.400 362.522,128.400 362.183 C 128.400 361.844,128.760 361.180,129.200 360.708 C 129.640 360.236,130.000 359.613,130.000 359.325 C 130.000 359.036,130.146 358.800,130.325 358.800 C 130.504 358.800,130.898 358.170,131.200 357.400 C 131.502 356.630,131.896 356.000,132.075 356.000 C 132.254 356.000,132.400 355.640,132.400 355.200 C 132.400 354.760,132.580 354.400,132.800 354.400 C 133.020 354.400,133.200 354.040,133.200 353.600 C 133.200 353.160,133.380 352.800,133.600 352.800 C 133.820 352.800,134.000 352.451,134.000 352.024 C 134.000 351.597,134.180 351.136,134.400 351.000 C 134.620 350.864,134.800 350.313,134.800 349.776 C 134.800 349.239,134.980 348.800,135.200 348.800 C 135.420 348.800,135.600 348.451,135.600 348.024 C 135.600 347.597,135.780 347.136,136.000 347.000 C 136.220 346.864,136.400 346.313,136.400 345.776 C 136.400 345.239,136.580 344.800,136.800 344.800 C 137.020 344.800,137.200 344.260,137.200 343.600 C 137.200 342.940,137.380 342.400,137.600 342.400 C 137.820 342.400,138.000 341.871,138.000 341.224 C 138.000 340.577,138.180 339.936,138.400 339.800 C 138.620 339.664,138.800 339.034,138.800 338.400 C 138.800 337.766,138.980 337.136,139.200 337.000 C 139.420 336.864,139.600 336.054,139.600 335.200 C 139.600 334.346,139.780 333.536,140.000 333.400 C 140.220 333.264,140.400 332.299,140.400 331.256 C 140.400 330.213,140.625 329.135,140.900 328.860 C 141.293 328.467,141.423 318.454,141.508 282.080 L 141.616 235.800 139.613 234.500 C 138.511 233.785,137.505 233.200,137.377 233.200 C 137.249 233.200,136.359 232.660,135.400 232.000 C 134.441 231.340,133.463 230.800,133.228 230.800 C 132.993 230.800,132.800 230.664,132.800 230.498 C 132.800 230.331,132.294 229.971,131.675 229.697 C 131.056 229.424,130.201 228.877,129.775 228.483 C 129.349 228.089,128.104 227.152,127.009 226.402 C 125.914 225.651,124.744 224.811,124.409 224.535 C 121.392 222.052,117.543 219.200,117.211 219.200 C 116.932 219.200,116.800 235.660,116.800 270.400 M280.558 220.677 C 279.481 221.490,278.510 222.264,278.400 222.397 C 278.290 222.530,277.570 223.071,276.800 223.600 C 276.030 224.129,275.310 224.669,275.200 224.800 C 275.090 224.931,274.370 225.471,273.600 226.000 C 272.830 226.529,272.110 227.074,272.000 227.211 C 271.658 227.637,267.144 230.555,264.000 232.383 C 262.350 233.342,260.411 234.503,259.692 234.963 L 258.384 235.800 258.518 281.200 C 258.645 323.936,258.714 328.090,259.316 329.064 C 259.448 329.277,259.600 330.305,259.654 331.349 C 259.708 332.393,259.898 333.337,260.076 333.447 C 260.254 333.557,260.400 334.346,260.400 335.200 C 260.400 336.054,260.580 336.864,260.800 337.000 C 261.020 337.136,261.200 337.777,261.200 338.424 C 261.200 339.071,261.380 339.600,261.600 339.600 C 261.820 339.600,262.000 340.230,262.000 341.000 C 262.000 341.770,262.180 342.400,262.400 342.400 C 262.620 342.400,262.800 342.940,262.800 343.600 C 262.800 344.260,262.980 344.800,263.200 344.800 C 263.420 344.800,263.600 345.239,263.600 345.776 C 263.600 346.313,263.780 346.864,264.000 347.000 C 264.220 347.136,264.400 347.597,264.400 348.024 C 264.400 348.451,264.580 348.800,264.800 348.800 C 265.020 348.800,265.200 349.149,265.200 349.576 C 265.200 350.003,265.380 350.464,265.600 350.600 C 265.820 350.736,266.000 351.287,266.000 351.824 C 266.000 352.361,266.180 352.800,266.400 352.800 C 266.620 352.800,266.800 353.160,266.800 353.600 C 266.800 354.040,266.980 354.400,267.200 354.400 C 267.420 354.400,267.600 354.760,267.600 355.200 C 267.600 355.640,267.746 356.000,267.925 356.000 C 268.104 356.000,268.498 356.630,268.800 357.400 C 269.102 358.170,269.474 358.800,269.626 358.800 C 269.778 358.800,270.127 359.340,270.400 360.000 C 270.673 360.660,271.055 361.200,271.249 361.200 C 271.442 361.200,271.600 361.560,271.600 362.000 C 271.600 362.440,271.780 362.800,272.000 362.800 C 272.220 362.800,272.400 363.036,272.400 363.325 C 272.400 363.613,272.760 364.236,273.200 364.708 C 273.640 365.180,274.000 365.677,274.000 365.812 C 274.000 366.048,277.169 370.615,278.399 372.151 C 280.477 374.748,285.276 379.200,285.996 379.200 C 286.993 379.200,303.200 363.129,303.200 362.140 C 303.200 361.786,302.030 360.326,300.600 358.896 C 299.170 357.466,298.000 356.122,298.000 355.909 C 298.000 355.695,297.460 355.017,296.800 354.400 C 296.140 353.783,295.600 353.031,295.600 352.728 C 295.600 352.425,295.240 351.917,294.800 351.600 C 294.360 351.283,294.000 350.743,294.000 350.400 C 294.000 350.057,293.640 349.517,293.200 349.200 C 292.760 348.883,292.400 348.303,292.400 347.912 C 292.400 347.520,292.220 347.200,292.000 347.200 C 291.780 347.200,291.600 346.970,291.600 346.689 C 291.600 346.409,290.832 344.654,289.894 342.789 C 288.955 340.925,287.586 337.510,286.852 335.200 C 286.118 332.890,285.356 330.687,285.159 330.305 C 284.961 329.923,284.800 328.888,284.800 328.005 C 284.800 327.122,284.620 326.400,284.400 326.400 C 284.178 326.400,284.000 325.333,284.000 324.000 C 284.000 322.667,283.822 321.600,283.600 321.600 C 283.335 321.600,283.200 304.267,283.200 270.400 C 283.200 242.240,283.046 219.200,282.858 219.200 C 282.669 219.200,281.634 219.865,280.558 220.677 M163.600 294.376 C 163.600 326.996,163.463 344.037,163.200 344.200 C 162.980 344.336,162.800 345.326,162.800 346.400 C 162.800 347.474,162.620 348.464,162.400 348.600 C 162.180 348.736,162.000 349.557,162.000 350.424 C 162.000 351.291,161.820 352.000,161.600 352.000 C 161.380 352.000,161.200 352.367,161.200 352.816 C 161.200 353.787,159.722 358.475,158.950 359.956 C 158.650 360.530,158.404 361.405,158.402 361.900 C 158.401 362.395,158.220 362.800,158.000 362.800 C 157.780 362.800,157.600 363.160,157.600 363.600 C 157.600 364.040,157.420 364.400,157.200 364.400 C 156.980 364.400,156.800 364.760,156.800 365.200 C 156.800 365.640,156.620 366.000,156.400 366.000 C 156.180 366.000,156.000 366.278,156.000 366.617 C 156.000 366.956,155.640 367.620,155.200 368.092 C 154.760 368.564,154.400 369.187,154.400 369.475 C 154.400 369.764,154.220 370.000,154.000 370.000 C 153.780 370.000,153.600 370.320,153.600 370.712 C 153.600 371.103,153.240 371.683,152.800 372.000 C 152.360 372.317,152.000 372.825,152.000 373.128 C 152.000 373.431,151.441 374.201,150.758 374.840 C 150.074 375.478,149.660 376.000,149.836 376.000 C 150.012 376.000,149.533 376.585,148.772 377.300 C 143.068 382.657,142.970 383.589,147.650 388.000 C 149.635 389.870,153.218 393.335,155.613 395.700 C 159.495 399.532,160.122 400.000,161.381 400.000 C 162.742 400.000,165.200 398.143,165.200 397.115 C 165.200 396.913,166.100 395.871,167.200 394.800 C 168.300 393.729,169.200 392.662,169.200 392.429 C 169.200 392.197,169.740 391.491,170.400 390.860 C 171.060 390.229,171.600 389.523,171.600 389.290 C 171.600 389.057,171.745 388.807,171.923 388.733 C 172.410 388.533,174.650 385.128,174.972 384.100 C 175.127 383.605,175.422 383.200,175.627 383.200 C 175.832 383.200,176.000 382.840,176.000 382.400 C 176.000 381.960,176.180 381.600,176.400 381.600 C 176.620 381.600,176.800 381.280,176.800 380.888 C 176.800 380.497,177.160 379.917,177.600 379.600 C 178.040 379.283,178.400 378.703,178.400 378.312 C 178.400 377.920,178.580 377.600,178.800 377.600 C 179.020 377.600,179.200 377.240,179.200 376.800 C 179.200 376.360,179.380 376.000,179.600 376.000 C 179.820 376.000,180.000 375.651,180.000 375.224 C 180.000 374.797,180.180 374.336,180.400 374.200 C 180.620 374.064,180.800 373.603,180.800 373.176 C 180.800 372.749,180.980 372.400,181.200 372.400 C 181.420 372.400,181.600 372.040,181.600 371.600 C 181.600 371.160,181.780 370.800,182.000 370.800 C 182.220 370.800,182.400 370.260,182.400 369.600 C 182.400 368.940,182.580 368.400,182.800 368.400 C 183.020 368.400,183.200 368.040,183.200 367.600 C 183.200 367.160,183.380 366.800,183.600 366.800 C 183.820 366.800,184.000 366.260,184.000 365.600 C 184.000 364.940,184.180 364.400,184.400 364.400 C 184.620 364.400,184.800 363.871,184.800 363.224 C 184.800 362.577,184.980 361.936,185.200 361.800 C 185.420 361.664,185.600 360.933,185.600 360.176 C 185.600 359.419,185.780 358.800,186.000 358.800 C 186.220 358.800,186.400 358.080,186.400 357.200 C 186.400 356.320,186.580 355.600,186.800 355.600 C 187.020 355.600,187.200 354.801,187.200 353.824 C 187.200 352.847,187.380 351.936,187.600 351.800 C 187.820 351.664,188.000 350.404,188.000 349.000 C 188.000 347.596,188.180 346.336,188.400 346.200 C 188.663 346.037,188.800 329.480,188.800 297.829 L 188.800 249.705 187.100 249.433 C 186.165 249.284,184.140 248.992,182.600 248.786 C 179.239 248.335,176.042 247.766,173.600 247.185 C 171.684 246.729,168.911 246.111,167.095 245.736 C 166.487 245.610,165.892 245.349,165.771 245.154 C 165.651 244.959,165.113 244.800,164.576 244.800 L 163.600 244.800 163.600 294.376 M234.200 245.185 C 233.436 245.500,231.782 245.960,228.500 246.770 C 225.769 247.444,220.025 248.455,214.500 249.233 L 211.200 249.698 211.200 297.825 C 211.200 329.479,211.337 346.037,211.600 346.200 C 211.820 346.336,212.000 347.596,212.000 349.000 C 212.000 350.404,212.180 351.664,212.400 351.800 C 212.620 351.936,212.800 352.847,212.800 353.824 C 212.800 354.801,212.980 355.600,213.200 355.600 C 213.420 355.600,213.600 356.320,213.600 357.200 C 213.600 358.080,213.780 358.800,214.000 358.800 C 214.220 358.800,214.400 359.419,214.400 360.176 C 214.400 360.933,214.580 361.664,214.800 361.800 C 215.020 361.936,215.200 362.577,215.200 363.224 C 215.200 363.871,215.380 364.400,215.600 364.400 C 215.820 364.400,216.000 364.940,216.000 365.600 C 216.000 366.260,216.180 366.800,216.400 366.800 C 216.620 366.800,216.800 367.160,216.800 367.600 C 216.800 368.040,216.980 368.400,217.200 368.400 C 217.420 368.400,217.600 368.839,217.600 369.376 C 217.600 369.913,217.780 370.464,218.000 370.600 C 218.220 370.736,218.400 371.197,218.400 371.624 C 218.400 372.051,218.560 372.400,218.756 372.400 C 218.952 372.400,219.351 373.210,219.643 374.200 C 219.935 375.190,220.315 376.000,220.487 376.000 C 220.659 376.000,220.800 376.360,220.800 376.800 C 220.800 377.240,220.980 377.600,221.200 377.600 C 221.420 377.600,221.600 377.920,221.600 378.312 C 221.600 378.703,221.960 379.283,222.400 379.600 C 222.840 379.917,223.200 380.497,223.200 380.888 C 223.200 381.280,223.380 381.600,223.600 381.600 C 223.820 381.600,224.000 381.894,224.000 382.253 C 224.000 382.612,224.315 383.197,224.700 383.553 C 225.085 383.909,225.459 384.470,225.530 384.800 C 225.714 385.648,227.739 388.798,228.100 388.799 C 228.265 388.800,228.400 389.006,228.400 389.257 C 228.400 389.508,228.940 390.229,229.600 390.860 C 230.260 391.491,230.800 392.197,230.800 392.429 C 230.800 392.662,231.700 393.729,232.800 394.800 C 233.900 395.871,234.801 396.895,234.802 397.074 C 234.808 398.099,237.320 400.000,238.669 400.000 C 239.952 400.000,240.536 399.562,244.395 395.700 C 246.759 393.335,250.329 389.870,252.329 388.000 C 256.938 383.689,256.795 382.421,251.100 377.154 C 250.715 376.798,250.400 376.374,250.400 376.214 C 250.400 376.053,249.860 375.417,249.200 374.800 C 248.540 374.183,248.000 373.431,248.000 373.128 C 248.000 372.825,247.640 372.317,247.200 372.000 C 246.760 371.683,246.400 371.103,246.400 370.712 C 246.400 370.320,246.220 370.000,246.000 370.000 C 245.780 370.000,245.600 369.764,245.600 369.475 C 245.600 369.187,245.240 368.564,244.800 368.092 C 244.360 367.620,244.000 366.956,244.000 366.617 C 244.000 366.278,243.820 366.000,243.600 366.000 C 243.380 366.000,243.200 365.640,243.200 365.200 C 243.200 364.760,243.020 364.400,242.800 364.400 C 242.580 364.400,242.400 364.040,242.400 363.600 C 242.400 363.160,242.220 362.800,242.000 362.800 C 241.780 362.800,241.600 362.422,241.600 361.960 C 241.600 361.499,241.345 360.554,241.033 359.860 C 240.037 357.647,238.800 353.776,238.800 352.873 C 238.800 352.393,238.620 352.000,238.400 352.000 C 238.180 352.000,238.000 351.381,238.000 350.624 C 238.000 349.867,237.820 349.136,237.600 349.000 C 237.380 348.864,237.200 347.784,237.200 346.600 C 237.200 345.416,237.020 344.336,236.800 344.200 C 236.537 344.037,236.400 326.996,236.400 294.376 C 236.400 239.837,236.595 244.195,234.200 245.185 " stroke="none" fill="#ec3854" fill-rule="evenodd"></path><path id="path2" d="M183.200 0.276 C 181.551 0.366,180.030 0.610,179.820 0.820 C 179.611 1.029,178.576 1.200,177.520 1.200 C 176.464 1.200,175.600 1.380,175.600 1.600 C 175.600 1.820,174.700 2.000,173.600 2.000 C 172.500 2.000,171.600 2.180,171.600 2.400 C 171.600 2.620,170.880 2.800,170.000 2.800 C 169.120 2.800,168.400 2.980,168.400 3.200 C 168.400 3.420,167.781 3.600,167.024 3.600 C 166.267 3.600,165.536 3.780,165.400 4.000 C 165.264 4.220,164.724 4.400,164.200 4.400 C 163.676 4.400,163.136 4.580,163.000 4.800 C 162.864 5.020,162.213 5.200,161.553 5.200 C 160.855 5.200,160.456 5.367,160.600 5.600 C 160.744 5.833,160.337 6.000,159.624 6.000 C 158.951 6.000,158.400 6.180,158.400 6.400 C 158.400 6.620,157.860 6.800,157.200 6.800 C 156.540 6.800,156.000 6.980,156.000 7.200 C 156.000 7.420,155.561 7.600,155.024 7.600 C 154.487 7.600,153.950 7.757,153.832 7.948 C 153.714 8.140,153.118 8.397,152.508 8.519 C 151.899 8.641,150.500 9.145,149.400 9.638 C 148.300 10.131,147.310 10.553,147.200 10.576 C 146.853 10.647,142.210 12.990,142.000 13.200 C 141.514 13.686,139.956 14.400,139.382 14.400 C 139.036 14.400,138.845 14.550,138.958 14.732 C 139.071 14.915,138.542 15.309,137.782 15.607 C 137.022 15.905,136.400 16.296,136.400 16.475 C 136.400 16.654,136.040 16.800,135.600 16.800 C 135.160 16.800,134.800 16.980,134.800 17.200 C 134.800 17.420,134.564 17.600,134.275 17.600 C 133.987 17.600,133.364 17.960,132.892 18.400 C 132.420 18.840,131.880 19.200,131.692 19.200 C 131.504 19.200,130.998 19.515,130.566 19.900 C 130.134 20.285,128.885 21.221,127.791 21.980 C 126.696 22.739,125.509 23.684,125.153 24.080 C 124.797 24.476,124.278 24.800,124.000 24.800 C 123.722 24.800,123.158 25.188,122.747 25.661 C 122.336 26.135,122.000 26.397,122.000 26.243 C 122.000 26.089,121.542 26.422,120.982 26.982 C 120.422 27.542,119.810 28.000,119.622 28.000 C 119.434 28.000,117.548 29.710,115.431 31.800 C 113.314 33.890,111.405 35.600,111.191 35.600 C 110.976 35.600,110.800 35.757,110.800 35.950 C 110.800 36.410,109.250 38.186,105.700 41.794 C 104.105 43.416,102.800 44.863,102.800 45.011 C 102.800 45.158,102.266 45.778,101.614 46.387 C 100.962 46.996,100.508 47.575,100.606 47.673 C 100.704 47.770,100.157 48.515,99.392 49.326 C 98.626 50.138,98.000 51.005,98.000 51.254 C 98.000 51.503,97.667 51.997,97.259 52.353 C 96.852 52.709,96.198 53.621,95.807 54.380 C 95.416 55.140,94.895 55.988,94.648 56.267 C 93.590 57.461,93.188 57.991,93.266 58.092 C 93.312 58.151,93.069 58.650,92.726 59.200 C 92.383 59.750,91.855 60.785,91.554 61.500 C 91.252 62.215,90.869 62.800,90.702 62.800 C 90.536 62.800,90.400 63.070,90.400 63.400 C 90.400 63.730,90.220 64.000,90.000 64.000 C 89.780 64.000,89.600 64.371,89.600 64.824 C 89.600 65.277,89.420 65.536,89.200 65.400 C 88.980 65.264,88.800 65.523,88.800 65.976 C 88.800 66.429,88.609 66.800,88.376 66.800 C 88.143 66.800,88.055 66.965,88.180 67.168 C 88.305 67.370,88.168 67.775,87.875 68.068 C 87.582 68.360,87.323 68.741,87.299 68.912 C 87.198 69.641,86.180 71.600,85.902 71.600 C 85.736 71.600,85.600 72.140,85.600 72.800 C 85.600 73.460,85.420 74.000,85.200 74.000 C 84.980 74.000,84.800 74.360,84.800 74.800 C 84.800 75.240,84.620 75.600,84.400 75.600 C 84.180 75.600,84.000 75.960,84.000 76.400 C 84.000 76.840,83.820 77.200,83.600 77.200 C 83.380 77.200,83.200 77.650,83.200 78.200 C 83.200 78.750,83.020 79.200,82.800 79.200 C 82.580 79.200,82.400 79.530,82.400 79.933 C 82.400 80.337,82.275 80.791,82.123 80.944 C 81.971 81.096,81.786 81.617,81.712 82.102 C 81.638 82.586,81.402 83.158,81.189 83.371 C 80.975 83.585,80.800 84.264,80.800 84.880 C 80.800 85.496,80.620 86.000,80.400 86.000 C 80.180 86.000,80.000 86.529,80.000 87.176 C 80.000 87.823,79.820 88.464,79.600 88.600 C 79.380 88.736,79.200 89.377,79.200 90.024 C 79.200 90.671,79.058 91.200,78.885 91.200 C 78.712 91.200,78.527 91.773,78.473 92.473 C 78.420 93.174,78.211 93.946,78.009 94.189 C 77.807 94.432,77.598 95.389,77.543 96.315 C 77.488 97.242,77.317 98.000,77.162 98.000 C 77.007 98.000,76.781 98.765,76.659 99.700 C 76.536 100.635,76.235 102.660,75.990 104.200 C 75.058 110.034,74.334 136.800,75.108 136.800 C 75.295 136.800,75.394 137.835,75.327 139.100 C 75.260 140.365,75.407 142.010,75.652 142.756 C 75.898 143.502,76.084 144.891,76.064 145.842 C 76.045 146.793,76.203 147.678,76.415 147.809 C 76.627 147.940,76.800 148.811,76.800 149.744 C 76.800 150.677,76.971 151.611,77.181 151.821 C 77.390 152.030,77.608 152.889,77.664 153.729 C 77.721 154.569,77.910 155.344,78.084 155.452 C 78.258 155.559,78.400 156.166,78.400 156.800 C 78.400 157.434,78.580 158.064,78.800 158.200 C 79.020 158.336,79.200 159.067,79.200 159.824 C 79.200 160.581,79.336 161.200,79.503 161.200 C 79.872 161.200,80.800 164.072,80.800 165.217 C 80.800 165.674,80.980 165.936,81.200 165.800 C 81.427 165.660,81.600 165.998,81.600 166.582 C 81.600 167.148,81.780 167.968,82.000 168.405 C 82.220 168.842,82.580 169.558,82.800 169.995 C 83.020 170.432,83.200 171.152,83.200 171.595 C 83.200 172.038,83.380 172.400,83.600 172.400 C 83.820 172.400,84.000 172.749,84.000 173.176 C 84.000 173.603,84.180 174.064,84.400 174.200 C 84.620 174.336,84.800 174.797,84.800 175.224 C 84.800 175.651,84.980 176.000,85.200 176.000 C 85.420 176.000,85.600 176.360,85.600 176.800 C 85.600 177.240,85.780 177.600,86.000 177.600 C 86.220 177.600,86.400 177.960,86.400 178.400 C 86.400 178.840,86.580 179.200,86.800 179.200 C 87.020 179.200,87.200 179.560,87.200 180.000 C 87.200 180.440,87.380 180.800,87.600 180.800 C 87.820 180.800,88.000 181.160,88.000 181.600 C 88.000 182.040,88.180 182.400,88.400 182.400 C 88.620 182.400,88.800 182.760,88.800 183.200 C 88.800 183.640,88.980 184.000,89.200 184.000 C 89.420 184.000,89.600 184.345,89.600 184.767 C 89.600 185.188,89.767 185.593,89.970 185.667 C 90.174 185.740,90.399 186.070,90.470 186.400 C 90.542 186.730,90.882 187.270,91.228 187.600 C 91.809 188.155,92.484 189.411,92.565 190.087 C 92.584 190.245,92.915 190.742,93.300 191.192 C 93.685 191.641,94.000 192.200,94.000 192.433 C 94.000 192.666,94.225 193.108,94.500 193.415 C 95.698 194.751,96.014 195.200,95.755 195.200 C 95.602 195.200,95.865 195.536,96.339 195.947 C 96.812 196.358,97.200 196.906,97.200 197.165 C 97.200 197.424,97.650 198.086,98.200 198.636 C 98.750 199.186,99.200 199.765,99.200 199.922 C 99.200 200.080,99.610 200.656,100.111 201.204 C 100.613 201.752,101.465 202.830,102.006 203.600 C 102.546 204.370,103.666 205.647,104.494 206.438 C 105.322 207.229,106.000 207.999,106.000 208.149 C 106.000 208.298,106.765 209.218,107.700 210.192 C 108.635 211.167,110.030 212.684,110.800 213.563 C 111.570 214.443,112.455 215.171,112.767 215.182 C 113.078 215.192,113.224 215.309,113.091 215.442 C 112.496 216.038,115.885 218.507,117.400 218.582 C 118.080 218.616,119.886 219.904,123.800 223.148 C 124.240 223.513,125.230 224.250,126.000 224.786 C 126.770 225.323,127.490 225.874,127.600 226.011 C 128.086 226.616,137.785 232.800,138.249 232.800 C 139.023 232.800,141.600 234.957,141.600 235.605 C 141.600 236.045,141.868 236.400,142.200 236.400 C 142.530 236.400,142.800 236.591,142.800 236.824 C 142.800 237.057,142.968 237.144,143.172 237.017 C 143.377 236.891,143.655 236.965,143.789 237.183 C 143.924 237.400,144.701 237.869,145.517 238.223 C 146.333 238.577,147.313 239.032,147.695 239.234 C 148.077 239.435,148.662 239.600,148.995 239.600 C 149.328 239.600,149.600 239.780,149.600 240.000 C 149.600 240.220,149.949 240.400,150.376 240.400 C 150.803 240.400,151.266 240.583,151.404 240.807 C 151.542 241.030,151.810 241.117,152.000 241.000 C 152.190 240.883,152.458 240.970,152.596 241.193 C 152.734 241.417,153.377 241.600,154.024 241.600 C 154.671 241.600,155.200 241.780,155.200 242.000 C 155.200 242.220,155.740 242.400,156.400 242.400 C 157.060 242.400,157.600 242.580,157.600 242.800 C 157.600 243.020,158.050 243.200,158.600 243.200 C 159.150 243.200,159.600 243.380,159.600 243.600 C 159.600 243.820,160.039 244.000,160.576 244.000 C 161.113 244.000,161.675 244.198,161.825 244.440 C 162.003 244.729,162.843 244.787,164.270 244.609 C 165.497 244.455,166.651 244.503,166.921 244.718 C 167.185 244.928,167.940 245.204,168.600 245.332 C 169.260 245.460,170.700 245.761,171.800 246.000 C 177.538 247.252,181.297 247.886,185.099 248.243 C 186.744 248.398,188.192 248.750,188.448 249.058 C 188.695 249.356,189.416 249.600,190.049 249.600 C 190.682 249.600,191.200 249.767,191.200 249.971 C 191.200 250.501,208.265 250.542,208.592 250.013 C 208.732 249.786,209.349 249.600,209.962 249.600 C 210.575 249.600,211.600 249.348,212.239 249.039 C 212.877 248.730,215.254 248.269,217.521 248.014 C 219.787 247.758,222.847 247.285,224.321 246.961 C 225.794 246.637,227.630 246.274,228.400 246.154 C 229.170 246.034,230.160 245.784,230.600 245.598 C 232.116 244.958,233.807 244.702,236.100 244.766 C 237.464 244.804,238.400 244.662,238.400 244.415 C 238.400 244.187,238.839 244.000,239.376 244.000 C 239.913 244.000,240.464 243.820,240.600 243.600 C 240.736 243.380,241.276 243.200,241.800 243.200 C 242.324 243.200,242.864 243.020,243.000 242.800 C 243.136 242.580,243.597 242.400,244.024 242.400 C 244.451 242.400,244.800 242.220,244.800 242.000 C 244.800 241.780,245.239 241.600,245.776 241.600 C 246.313 241.600,246.857 241.431,246.985 241.225 C 247.112 241.018,247.573 240.918,248.008 241.002 C 248.444 241.085,248.800 240.984,248.800 240.777 C 248.800 240.570,249.149 240.400,249.576 240.400 C 250.003 240.400,250.464 240.220,250.600 240.000 C 250.736 239.780,251.182 239.600,251.590 239.600 C 251.999 239.600,252.393 239.456,252.467 239.280 C 252.540 239.104,253.905 238.352,255.500 237.609 C 257.363 236.741,258.400 236.025,258.400 235.606 C 258.400 235.027,259.917 234.009,267.783 229.307 C 268.434 228.918,269.323 228.285,269.758 227.900 C 270.194 227.515,270.787 227.200,271.075 227.200 C 271.364 227.200,271.600 227.059,271.600 226.886 C 271.600 226.714,272.133 226.257,272.785 225.872 C 273.437 225.487,274.202 224.951,274.485 224.680 C 274.768 224.410,275.810 223.564,276.800 222.800 C 277.790 222.036,279.140 220.901,279.800 220.278 C 281.295 218.866,282.829 218.200,283.201 218.802 C 283.359 219.058,284.873 217.855,286.907 215.857 C 288.799 213.999,290.238 212.372,290.106 212.240 C 289.975 212.108,290.167 212.000,290.533 212.000 C 290.900 212.000,291.200 211.828,291.200 211.618 C 291.200 211.408,291.650 210.786,292.200 210.236 C 292.750 209.686,293.200 209.038,293.200 208.795 C 293.200 208.552,293.380 208.464,293.600 208.600 C 293.820 208.736,294.000 208.661,294.000 208.433 C 294.000 208.205,294.900 207.075,296.000 205.922 C 297.100 204.769,298.000 203.685,298.000 203.513 C 298.000 203.342,298.630 202.534,299.400 201.718 C 300.170 200.901,300.800 200.099,300.800 199.935 C 300.800 199.771,301.250 199.186,301.800 198.636 C 302.350 198.086,302.800 197.424,302.800 197.165 C 302.800 196.906,303.134 196.403,303.543 196.047 C 303.951 195.691,304.694 194.590,305.195 193.600 C 305.695 192.610,306.350 191.656,306.651 191.481 C 307.214 191.152,308.800 187.991,308.800 187.198 C 308.800 186.953,308.980 186.864,309.200 187.000 C 309.420 187.136,309.600 186.877,309.600 186.424 C 309.600 185.971,309.780 185.600,310.000 185.600 C 310.220 185.600,310.400 185.240,310.400 184.800 C 310.400 184.360,310.580 184.000,310.800 184.000 C 311.020 184.000,311.200 183.640,311.200 183.200 C 311.200 182.760,311.380 182.400,311.600 182.400 C 311.820 182.400,312.000 182.040,312.000 181.600 C 312.000 181.160,312.180 180.800,312.400 180.800 C 312.620 180.800,312.800 180.440,312.800 180.000 C 312.800 179.560,312.980 179.200,313.200 179.200 C 313.420 179.200,313.600 178.840,313.600 178.400 C 313.600 177.960,313.780 177.600,314.000 177.600 C 314.220 177.600,314.400 177.240,314.400 176.800 C 314.400 176.360,314.580 176.000,314.800 176.000 C 315.020 176.000,315.200 175.640,315.200 175.200 C 315.200 174.760,315.380 174.400,315.600 174.400 C 315.820 174.400,316.000 174.045,316.000 173.612 C 316.000 173.179,316.360 172.183,316.800 171.400 C 317.240 170.617,317.600 169.632,317.600 169.211 C 317.600 168.791,317.780 168.336,318.000 168.200 C 318.220 168.064,318.400 167.513,318.400 166.976 C 318.400 166.439,318.580 166.000,318.800 166.000 C 319.020 166.000,319.200 165.471,319.200 164.824 C 319.200 164.177,319.380 163.536,319.600 163.400 C 319.820 163.264,320.000 162.713,320.000 162.176 C 320.000 161.639,320.142 161.200,320.315 161.200 C 320.488 161.200,320.674 160.618,320.728 159.907 C 320.783 159.195,321.001 158.439,321.213 158.227 C 321.426 158.014,321.600 157.347,321.600 156.744 C 321.600 156.141,321.780 155.536,322.000 155.400 C 322.220 155.264,322.400 154.454,322.400 153.600 C 322.400 152.746,322.557 151.950,322.750 151.831 C 322.942 151.712,323.204 150.666,323.331 149.507 C 323.791 145.318,324.110 143.393,324.412 143.000 C 325.535 141.537,325.104 110.102,323.872 103.586 C 323.516 101.708,323.182 99.593,323.128 98.886 C 323.074 98.179,322.888 97.600,322.715 97.600 C 322.542 97.600,322.400 96.891,322.400 96.024 C 322.400 95.157,322.220 94.336,322.000 94.200 C 321.780 94.064,321.600 93.333,321.600 92.576 C 321.600 91.819,321.457 91.200,321.283 91.200 C 320.958 91.200,319.751 86.467,319.924 85.870 C 319.977 85.689,319.835 85.655,319.610 85.794 C 319.384 85.933,319.200 85.734,319.200 85.352 C 319.200 84.580,318.494 82.181,317.951 81.105 C 317.758 80.723,317.600 80.128,317.600 79.782 C 317.600 79.436,317.420 79.264,317.200 79.400 C 316.967 79.544,316.800 79.137,316.800 78.424 C 316.800 77.751,316.620 77.200,316.400 77.200 C 316.180 77.200,316.000 76.966,316.000 76.680 C 316.000 75.944,315.059 74.007,314.700 74.003 C 314.535 74.001,314.400 73.550,314.400 73.000 C 314.400 72.450,314.220 72.000,314.000 72.000 C 313.780 72.000,313.600 71.735,313.600 71.412 C 313.600 71.089,313.240 70.183,312.800 69.400 C 312.360 68.617,312.000 67.711,312.000 67.388 C 312.000 67.065,311.820 66.800,311.600 66.800 C 311.380 66.800,311.200 66.440,311.200 66.000 C 311.200 65.560,311.020 65.200,310.800 65.200 C 310.580 65.200,310.400 64.964,310.400 64.675 C 310.400 64.387,310.083 63.802,309.695 63.375 C 309.307 62.949,308.649 61.834,308.233 60.898 C 307.817 59.961,307.236 58.996,306.943 58.752 C 306.649 58.509,306.507 58.150,306.628 57.955 C 306.749 57.760,306.678 57.600,306.472 57.600 C 306.266 57.600,305.873 57.060,305.600 56.400 C 305.327 55.740,304.945 55.200,304.751 55.200 C 304.558 55.200,304.400 54.957,304.400 54.659 C 304.400 54.362,303.860 53.554,303.200 52.863 C 302.540 52.172,301.993 51.471,301.984 51.304 C 301.975 51.137,301.435 50.377,300.784 49.615 C 300.133 48.853,299.600 48.090,299.600 47.919 C 299.600 47.747,299.060 47.091,298.400 46.460 C 297.740 45.829,297.200 45.170,297.200 44.996 C 297.200 44.821,295.859 43.363,294.220 41.756 C 292.581 40.149,290.922 38.331,290.533 37.717 C 290.144 37.103,289.213 36.060,288.466 35.400 C 287.718 34.740,285.948 33.075,284.533 31.700 C 283.117 30.325,281.790 29.200,281.583 29.200 C 281.376 29.200,280.982 28.840,280.707 28.400 C 280.432 27.960,280.013 27.600,279.776 27.600 C 279.539 27.600,278.953 27.150,278.475 26.600 C 277.997 26.050,277.379 25.600,277.103 25.600 C 276.414 25.599,274.352 23.782,274.674 23.460 C 274.817 23.317,274.633 23.200,274.267 23.200 C 273.900 23.200,273.600 23.020,273.600 22.800 C 273.600 22.580,273.370 22.400,273.088 22.400 C 272.807 22.400,272.317 22.040,272.000 21.600 C 271.683 21.160,271.143 20.800,270.800 20.800 C 270.457 20.800,269.917 20.440,269.600 20.000 C 269.283 19.560,268.786 19.200,268.495 19.200 C 268.204 19.200,267.580 18.840,267.108 18.400 C 266.636 17.960,266.013 17.600,265.725 17.600 C 265.436 17.600,265.200 17.420,265.200 17.200 C 265.200 16.980,264.922 16.800,264.583 16.800 C 264.244 16.800,263.580 16.440,263.108 16.000 C 262.636 15.560,262.013 15.200,261.725 15.200 C 261.436 15.200,261.200 15.020,261.200 14.800 C 261.200 14.580,260.913 14.400,260.562 14.400 C 260.211 14.400,259.446 14.079,258.862 13.686 C 258.278 13.293,257.260 12.708,256.600 12.386 C 255.940 12.065,255.268 11.621,255.106 11.401 C 254.944 11.180,254.809 11.135,254.806 11.300 C 254.803 11.465,253.585 10.984,252.100 10.231 C 250.615 9.478,248.725 8.738,247.900 8.586 C 247.075 8.435,246.400 8.190,246.400 8.043 C 246.400 7.895,245.905 7.734,245.300 7.684 C 244.695 7.634,244.140 7.415,244.067 7.197 C 243.993 6.978,243.408 6.800,242.767 6.800 C 242.125 6.800,241.600 6.620,241.600 6.400 C 241.600 6.180,241.161 6.000,240.624 6.000 C 240.087 6.000,239.536 5.820,239.400 5.600 C 239.264 5.380,238.713 5.200,238.176 5.200 C 237.639 5.200,237.200 5.020,237.200 4.800 C 237.200 4.580,236.660 4.400,236.000 4.400 C 235.340 4.400,234.800 4.220,234.800 4.000 C 234.800 3.780,234.080 3.600,233.200 3.600 C 232.320 3.600,231.600 3.420,231.600 3.200 C 231.600 2.980,230.891 2.800,230.024 2.800 C 229.157 2.800,228.336 2.620,228.200 2.400 C 228.064 2.180,227.254 2.000,226.400 2.000 C 225.546 2.000,224.736 1.820,224.600 1.600 C 224.464 1.380,223.499 1.200,222.456 1.200 C 221.413 1.200,220.340 0.980,220.071 0.711 C 219.584 0.224,190.459 -0.120,183.200 0.276 M208.800 42.379 C 208.800 42.588,209.745 42.813,210.900 42.879 L 213.000 43.000 212.862 46.000 C 212.786 47.650,212.561 49.171,212.362 49.380 C 212.163 49.589,212.000 50.703,212.000 51.856 C 212.000 53.009,211.820 54.064,211.600 54.200 C 211.380 54.336,211.200 55.506,211.200 56.800 C 211.200 58.094,211.020 59.264,210.800 59.400 C 210.580 59.536,210.400 60.717,210.400 62.024 C 210.400 63.341,210.222 64.400,210.000 64.400 C 209.780 64.400,209.600 65.050,209.600 65.845 L 209.600 67.291 207.847 67.028 C 206.883 66.883,202.625 66.693,198.385 66.606 C 189.799 66.428,190.195 66.575,189.800 63.419 C 189.324 59.623,187.586 48.603,187.192 46.894 C 186.495 43.862,186.636 43.261,188.100 43.039 C 194.519 42.067,208.800 41.611,208.800 42.379 M239.133 51.662 C 239.207 51.848,239.612 52.000,240.033 52.000 C 240.455 52.000,240.800 52.180,240.800 52.400 C 240.800 52.620,241.036 52.800,241.325 52.800 C 241.613 52.800,242.236 53.160,242.708 53.600 C 243.180 54.040,243.844 54.400,244.183 54.400 C 244.522 54.400,244.800 54.538,244.800 54.706 C 244.800 54.874,245.520 55.456,246.400 56.000 C 247.280 56.544,248.000 57.126,248.000 57.294 C 248.000 57.462,248.243 57.600,248.541 57.600 C 248.838 57.600,249.621 58.116,250.282 58.747 C 250.942 59.378,251.663 59.963,251.886 60.047 C 252.841 60.409,258.400 65.813,258.399 66.378 C 258.396 67.312,242.143 83.426,241.359 83.272 C 241.000 83.201,240.282 82.719,239.763 82.199 C 239.243 81.680,238.139 80.749,237.309 80.132 C 236.479 79.514,235.530 78.736,235.200 78.402 C 234.870 78.068,234.105 77.540,233.500 77.230 C 232.895 76.919,232.400 76.515,232.400 76.332 C 232.400 76.150,232.130 76.000,231.800 76.000 C 231.470 76.000,231.200 75.841,231.200 75.647 C 231.200 75.452,230.885 75.193,230.500 75.071 C 227.761 74.203,224.813 70.800,226.800 70.800 C 227.020 70.800,227.200 70.554,227.200 70.253 C 227.200 69.804,235.480 52.995,236.537 51.299 C 236.869 50.765,238.891 51.048,239.133 51.662 M166.589 59.000 C 168.614 62.960,170.929 67.453,171.735 68.984 C 172.541 70.516,173.198 71.956,173.195 72.184 C 173.190 72.568,170.701 74.400,170.184 74.400 C 169.415 74.400,162.218 79.814,159.682 82.300 C 158.268 83.686,158.303 83.711,149.607 75.007 L 141.420 66.813 143.210 64.968 C 146.665 61.406,153.192 56.554,160.000 52.487 C 162.445 51.026,162.583 51.163,166.589 59.000 M275.026 89.541 C 275.600 90.784,276.234 92.113,276.435 92.495 C 276.636 92.877,276.800 93.462,276.800 93.795 C 276.800 94.128,276.980 94.400,277.200 94.400 C 277.420 94.400,277.600 94.839,277.600 95.376 C 277.600 95.913,277.780 96.464,278.000 96.600 C 278.220 96.736,278.400 97.287,278.400 97.824 C 278.400 98.361,278.580 98.800,278.800 98.800 C 279.020 98.800,279.200 99.329,279.200 99.976 C 279.200 100.623,279.380 101.264,279.600 101.400 C 279.820 101.536,280.000 102.166,280.000 102.800 C 280.000 103.434,280.180 104.064,280.400 104.200 C 280.620 104.336,280.800 105.146,280.800 106.000 C 280.800 106.854,280.980 107.664,281.200 107.800 C 281.420 107.936,281.600 108.872,281.600 109.880 C 281.600 112.182,280.897 112.770,278.124 112.787 C 276.982 112.794,275.936 112.980,275.800 113.200 C 275.664 113.420,274.584 113.600,273.400 113.600 C 272.216 113.600,271.136 113.780,271.000 114.000 C 270.864 114.220,269.784 114.400,268.600 114.400 C 267.416 114.400,266.336 114.580,266.200 114.800 C 266.064 115.020,264.894 115.200,263.600 115.200 C 262.306 115.200,261.136 115.380,261.000 115.600 C 260.331 116.683,257.600 116.041,257.600 114.800 C 257.600 114.140,257.420 113.600,257.200 113.600 C 256.980 113.600,256.800 112.891,256.800 112.024 C 256.800 111.157,256.620 110.336,256.400 110.200 C 256.180 110.064,256.000 109.434,256.000 108.800 C 256.000 108.166,255.820 107.536,255.600 107.400 C 255.380 107.264,255.200 106.801,255.200 106.371 C 255.200 105.941,255.041 105.277,254.847 104.895 C 254.652 104.513,254.315 103.750,254.097 103.200 C 253.880 102.650,253.283 101.331,252.772 100.269 C 251.519 97.665,251.507 97.677,259.408 93.656 C 263.144 91.755,266.260 90.065,266.333 89.900 C 266.407 89.735,266.797 89.600,267.200 89.600 C 267.603 89.600,267.993 89.465,268.067 89.300 C 268.140 89.135,269.280 88.444,270.600 87.764 C 273.403 86.321,273.568 86.388,275.026 89.541 M134.495 91.465 C 138.733 93.591,143.320 95.886,144.688 96.565 C 147.398 97.910,147.632 98.404,146.554 100.490 C 145.230 103.050,143.286 109.353,142.172 114.700 C 141.960 115.721,140.755 115.868,137.877 115.226 C 136.955 115.020,132.285 114.266,127.500 113.551 L 118.800 112.251 118.800 111.120 C 118.800 107.201,125.277 87.600,126.572 87.600 C 126.691 87.600,130.257 89.339,134.495 91.465 M204.200 89.200 C 204.336 89.420,205.427 89.600,206.624 89.600 C 207.821 89.600,208.800 89.780,208.800 90.000 C 208.800 90.220,209.329 90.400,209.976 90.400 C 210.623 90.400,211.264 90.580,211.400 90.800 C 211.536 91.020,212.087 91.200,212.624 91.200 C 213.161 91.200,213.600 91.380,213.600 91.600 C 213.600 91.820,213.960 92.000,214.400 92.000 C 214.840 92.000,215.200 92.180,215.200 92.400 C 215.200 92.620,215.434 92.800,215.720 92.800 C 216.456 92.800,218.393 93.741,218.397 94.100 C 218.399 94.265,218.593 94.400,218.828 94.400 C 220.071 94.400,226.464 100.007,228.405 102.800 C 228.940 103.570,229.698 104.549,230.089 104.975 C 230.480 105.402,230.800 105.987,230.800 106.275 C 230.800 106.564,230.980 106.800,231.200 106.800 C 231.420 106.800,231.600 107.160,231.600 107.600 C 231.600 108.040,231.780 108.400,232.000 108.400 C 232.220 108.400,232.400 108.760,232.400 109.200 C 232.400 109.640,232.547 110.000,232.728 110.000 C 232.908 110.000,233.304 110.911,233.607 112.025 C 233.910 113.139,234.303 114.140,234.479 114.249 C 234.656 114.358,234.800 114.941,234.800 115.544 C 234.800 116.147,234.995 116.835,235.234 117.074 C 235.833 117.673,235.839 131.521,235.240 132.120 C 234.998 132.362,234.800 133.143,234.800 133.856 C 234.800 134.569,234.620 135.264,234.400 135.400 C 234.180 135.536,234.000 136.087,234.000 136.624 C 234.000 137.161,233.820 137.600,233.600 137.600 C 233.380 137.600,233.200 138.050,233.200 138.600 C 233.200 139.150,233.020 139.600,232.800 139.600 C 232.580 139.600,232.400 139.926,232.400 140.325 C 232.400 140.723,232.040 141.436,231.600 141.908 C 231.160 142.380,230.800 143.044,230.800 143.383 C 230.800 143.722,230.620 144.000,230.400 144.000 C 230.180 144.000,230.000 144.227,230.000 144.504 C 230.000 145.678,223.735 152.108,220.306 154.452 C 217.468 156.393,212.329 158.800,211.022 158.800 C 210.486 158.800,209.936 158.980,209.800 159.200 C 209.664 159.420,208.969 159.600,208.256 159.600 C 207.543 159.600,206.770 159.790,206.538 160.022 C 205.775 160.785,193.226 160.138,191.000 159.221 C 190.560 159.040,189.390 158.652,188.400 158.361 C 179.462 155.726,169.994 146.546,166.750 137.367 C 160.497 119.676,168.172 100.528,184.600 92.835 C 186.446 91.971,187.225 91.637,189.400 90.777 C 190.648 90.283,192.319 89.976,196.000 89.563 C 197.870 89.354,199.580 89.111,199.800 89.023 C 200.645 88.686,203.965 88.819,204.200 89.200 M263.600 133.836 C 264.810 133.946,266.160 134.199,266.600 134.399 C 267.040 134.598,268.345 134.860,269.500 134.981 C 270.655 135.101,272.545 135.299,273.700 135.419 C 274.855 135.540,276.160 135.806,276.600 136.011 C 277.040 136.216,278.300 136.432,279.400 136.492 L 281.400 136.600 281.330 139.200 C 281.243 142.459,280.824 145.138,280.358 145.426 C 280.161 145.548,280.000 146.166,280.000 146.800 C 280.000 147.434,279.820 148.064,279.600 148.200 C 279.380 148.336,279.200 148.977,279.200 149.624 C 279.200 150.271,279.020 150.800,278.800 150.800 C 278.580 150.800,278.400 151.162,278.400 151.605 C 278.400 152.048,278.192 152.813,277.938 153.305 C 276.942 155.231,276.800 155.617,276.800 156.395 C 276.800 156.838,276.620 157.200,276.400 157.200 C 276.180 157.200,276.000 157.560,276.000 158.000 C 276.000 158.440,275.820 158.800,275.600 158.800 C 275.380 158.800,275.200 159.042,275.200 159.339 C 275.200 159.994,274.076 162.306,273.621 162.587 C 273.267 162.806,268.287 160.397,268.067 159.900 C 267.993 159.735,267.588 159.600,267.167 159.600 C 266.745 159.600,266.400 159.420,266.400 159.200 C 266.400 158.980,266.135 158.800,265.812 158.800 C 265.489 158.800,264.544 158.416,263.712 157.947 C 262.880 157.478,259.905 155.930,257.100 154.507 C 252.149 151.996,251.080 151.016,252.400 150.200 C 252.620 150.064,252.800 149.603,252.800 149.176 C 252.800 148.749,252.980 148.400,253.200 148.400 C 253.420 148.400,253.600 148.051,253.600 147.624 C 253.600 147.197,253.780 146.736,254.000 146.600 C 254.220 146.464,254.400 145.913,254.400 145.376 C 254.400 144.839,254.580 144.400,254.800 144.400 C 255.020 144.400,255.200 143.961,255.200 143.424 C 255.200 142.887,255.380 142.336,255.600 142.200 C 255.820 142.064,256.000 141.434,256.000 140.800 C 256.000 140.166,256.180 139.536,256.400 139.400 C 256.620 139.264,256.800 138.454,256.800 137.600 C 256.800 136.746,256.980 135.936,257.200 135.800 C 257.420 135.664,257.600 135.143,257.600 134.643 C 257.600 133.332,257.999 133.104,259.799 133.385 C 260.680 133.523,262.390 133.726,263.600 133.836 M142.471 135.604 C 143.009 138.261,143.569 140.605,143.953 141.800 C 144.824 144.516,146.105 147.839,146.829 149.257 C 147.860 151.277,147.803 151.836,146.500 152.511 C 136.125 157.884,127.158 162.400,126.865 162.400 C 126.509 162.400,125.369 160.246,123.689 156.400 C 122.894 154.578,120.846 148.336,120.080 145.400 C 119.851 144.520,119.469 143.059,119.232 142.154 C 118.091 137.801,118.238 137.635,124.000 136.791 C 125.210 136.614,127.460 136.258,129.000 136.000 C 142.460 133.746,142.096 133.757,142.471 135.604 M250.552 174.176 C 255.088 178.673,258.800 182.609,258.800 182.922 C 258.800 183.658,251.573 190.287,250.252 190.763 C 250.003 190.852,249.509 191.257,249.153 191.663 C 248.797 192.068,248.336 192.400,248.129 192.400 C 247.921 192.400,247.402 192.715,246.975 193.100 C 246.549 193.485,245.705 194.055,245.100 194.368 C 244.495 194.680,244.000 195.085,244.000 195.268 C 244.000 195.450,243.722 195.600,243.383 195.600 C 243.044 195.600,242.380 195.960,241.908 196.400 C 241.436 196.840,240.813 197.200,240.525 197.200 C 240.236 197.200,240.000 197.380,240.000 197.600 C 240.000 197.820,239.655 198.000,239.233 198.000 C 238.812 198.000,238.396 198.212,238.309 198.472 C 237.893 199.722,236.601 197.865,233.205 191.132 C 231.170 187.100,229.347 183.629,229.153 183.420 C 228.959 183.211,228.800 182.716,228.800 182.320 C 228.800 181.924,228.620 181.600,228.400 181.600 C 228.180 181.600,228.000 181.240,228.000 180.800 C 228.000 180.360,227.820 180.000,227.600 180.000 C 227.380 180.000,227.200 179.640,227.200 179.200 C 227.200 178.760,227.020 178.400,226.800 178.400 C 226.580 178.400,226.400 177.950,226.400 177.400 C 226.400 176.667,226.613 176.400,227.200 176.400 C 227.640 176.400,228.000 176.220,228.000 176.000 C 228.000 175.780,228.270 175.600,228.600 175.600 C 228.930 175.600,229.200 175.420,229.200 175.200 C 229.200 174.980,229.470 174.800,229.800 174.800 C 230.130 174.800,230.400 174.620,230.400 174.400 C 230.400 174.180,230.625 173.998,230.900 173.996 C 231.579 173.991,236.541 170.269,239.000 167.920 C 241.762 165.282,241.361 165.066,250.552 174.176 M161.402 168.802 C 164.386 171.436,167.331 173.544,170.643 175.418 C 171.827 176.088,172.980 176.820,173.206 177.046 C 173.485 177.325,172.321 179.988,169.542 185.428 C 167.301 189.812,164.923 194.525,164.258 195.900 C 163.593 197.275,162.885 198.400,162.685 198.400 C 160.304 198.400,142.000 184.827,142.000 183.061 C 142.000 182.603,157.984 166.400,158.437 166.400 C 158.571 166.400,159.906 167.481,161.402 168.802 M209.843 183.100 C 210.138 183.488,210.380 184.825,210.387 186.100 C 210.394 187.365,210.580 188.400,210.800 188.400 C 211.022 188.400,211.200 189.459,211.200 190.776 C 211.200 192.083,211.380 193.264,211.600 193.400 C 211.820 193.536,212.000 194.616,212.000 195.800 C 212.000 196.984,212.180 198.064,212.400 198.200 C 212.620 198.336,212.800 199.416,212.800 200.600 C 212.800 201.784,212.980 202.864,213.200 203.000 C 214.001 203.495,213.679 206.400,212.824 206.400 C 212.397 206.400,211.936 206.580,211.800 206.800 C 211.663 207.022,209.845 207.200,207.723 207.200 C 205.616 207.200,203.191 207.410,202.334 207.667 C 201.145 208.023,200.663 208.023,200.307 207.667 C 200.012 207.372,198.282 207.193,195.620 207.182 C 193.299 207.173,190.500 206.926,189.400 206.634 L 187.400 206.103 187.529 203.951 C 187.600 202.768,187.991 199.820,188.397 197.400 C 188.804 194.980,189.342 191.470,189.592 189.600 C 189.843 187.730,190.176 185.480,190.333 184.600 L 190.618 183.000 192.809 183.098 C 197.650 183.316,202.676 183.206,204.000 182.854 C 206.460 182.200,209.249 182.318,209.843 183.100 " stroke="none" fill="#ebe3ef" fill-rule="evenodd"></path><path id="path3" d="M194.600 42.797 C 193.720 42.993,191.897 43.164,190.549 43.177 C 186.957 43.211,187.038 42.947,188.213 50.800 C 188.328 51.570,188.587 53.100,188.789 54.200 C 188.991 55.300,189.356 57.550,189.600 59.200 C 190.371 64.403,190.892 66.400,191.480 66.400 C 191.783 66.400,193.758 66.207,195.868 65.972 C 198.592 65.668,199.828 65.668,200.132 65.972 C 200.383 66.223,202.338 66.400,204.853 66.400 C 209.837 66.400,209.252 67.057,210.196 60.400 C 210.829 55.931,211.068 54.446,211.969 49.376 C 212.794 44.734,212.602 43.330,211.100 43.040 C 208.861 42.607,196.279 42.422,194.600 42.797 M231.856 61.568 C 225.948 73.216,226.149 72.239,229.305 73.966 C 232.119 75.506,238.500 80.164,239.970 81.752 C 240.503 82.329,241.151 82.800,241.409 82.800 C 241.788 82.800,253.234 71.642,257.170 67.436 L 258.139 66.400 257.170 65.350 C 254.490 62.450,242.158 53.227,240.912 53.191 C 240.741 53.186,240.150 52.830,239.600 52.400 C 237.412 50.689,237.316 50.802,231.856 61.568 M159.200 53.497 C 157.770 54.296,156.362 55.186,156.071 55.475 C 155.781 55.764,155.389 56.000,155.200 56.000 C 155.011 56.000,154.619 56.234,154.329 56.519 C 154.038 56.804,152.900 57.645,151.800 58.387 C 150.700 59.129,149.161 60.291,148.380 60.968 C 147.598 61.646,145.933 63.073,144.680 64.141 C 143.426 65.208,142.400 66.347,142.400 66.672 C 142.400 67.216,157.843 82.808,158.368 82.794 C 158.495 82.790,159.680 81.791,161.000 80.573 C 162.320 79.355,163.895 78.060,164.500 77.693 C 165.105 77.327,165.600 76.886,165.600 76.714 C 165.600 76.541,165.836 76.400,166.125 76.400 C 166.413 76.400,167.007 76.085,167.445 75.700 C 168.283 74.963,169.479 74.217,171.292 73.301 C 172.967 72.455,173.011 72.615,168.823 64.366 C 161.619 50.178,162.783 51.493,159.200 53.497 M271.169 88.144 C 270.196 88.643,265.765 90.899,261.322 93.158 C 252.972 97.404,252.022 98.036,252.687 98.900 C 252.898 99.175,253.657 100.930,254.374 102.800 C 255.090 104.670,255.822 106.560,256.001 107.000 C 256.180 107.440,256.514 108.610,256.743 109.600 C 258.276 116.205,258.042 115.692,259.384 115.415 C 260.053 115.277,261.680 115.000,263.000 114.800 C 265.800 114.375,270.157 113.678,273.000 113.200 C 274.100 113.015,276.201 112.689,277.669 112.474 C 281.349 111.938,282.024 110.970,280.845 107.919 C 280.650 107.413,280.272 106.010,280.006 104.800 C 278.915 99.840,274.401 88.142,273.321 87.475 C 273.111 87.345,272.143 87.646,271.169 88.144 M125.865 89.700 C 125.551 90.415,124.912 91.853,124.447 92.896 C 123.981 93.938,123.600 94.976,123.600 95.201 C 123.600 95.426,123.429 95.923,123.219 96.305 C 122.245 98.080,120.054 105.994,119.408 110.069 C 119.123 111.869,119.430 112.099,122.600 112.461 C 123.920 112.612,126.350 112.944,128.000 113.198 C 143.199 115.538,141.783 115.558,142.144 113.000 C 142.622 109.611,142.901 108.385,143.244 108.173 C 143.440 108.052,143.600 107.524,143.600 107.000 C 143.600 106.476,143.780 105.936,144.000 105.800 C 144.220 105.664,144.400 105.201,144.400 104.771 C 144.400 104.341,144.557 103.677,144.750 103.295 C 146.204 100.408,146.800 99.059,146.800 98.653 C 146.800 98.177,127.815 88.380,126.919 88.393 C 126.654 88.397,126.180 88.985,125.865 89.700 M196.100 89.876 C 196.485 89.976,197.115 89.976,197.500 89.876 C 197.885 89.775,197.570 89.693,196.800 89.693 C 196.030 89.693,195.715 89.775,196.100 89.876 M204.900 89.876 C 205.285 89.976,205.915 89.976,206.300 89.876 C 206.685 89.775,206.370 89.693,205.600 89.693 C 204.830 89.693,204.515 89.775,204.900 89.876 M258.309 133.862 C 258.207 134.048,257.904 135.100,257.636 136.200 C 256.098 142.519,254.887 146.132,252.955 150.165 C 252.648 150.806,252.442 151.371,252.498 151.422 C 253.172 152.032,272.792 162.000,273.318 162.000 C 274.153 162.000,278.454 150.928,280.000 144.800 C 280.250 143.810,280.622 142.447,280.827 141.772 C 281.032 141.096,281.200 139.794,281.200 138.879 C 281.200 137.070,281.218 137.082,277.800 136.625 C 275.634 136.336,271.591 135.727,268.200 135.179 C 266.660 134.930,264.320 134.578,263.000 134.396 C 261.680 134.214,260.126 133.943,259.547 133.795 C 258.968 133.646,258.410 133.677,258.309 133.862 M136.800 135.181 C 134.490 135.565,130.980 136.107,129.000 136.385 C 127.020 136.663,124.770 137.049,124.000 137.243 C 123.230 137.437,121.850 137.597,120.933 137.598 C 119.012 137.600,118.790 137.953,119.297 140.198 C 120.617 146.039,121.295 148.688,121.623 149.295 C 121.830 149.677,122.000 150.316,122.000 150.715 C 122.000 151.114,122.143 151.611,122.318 151.820 C 122.493 152.029,122.866 152.920,123.146 153.800 C 123.426 154.680,123.984 156.120,124.386 157.000 C 124.788 157.880,125.410 159.267,125.769 160.083 C 126.699 162.196,126.621 162.202,131.638 159.657 C 138.795 156.028,146.566 151.928,146.950 151.578 C 147.146 151.400,146.835 150.325,146.250 149.151 C 145.673 147.992,145.200 146.806,145.200 146.516 C 145.200 146.226,144.992 145.587,144.738 145.095 C 143.728 143.141,143.600 142.775,143.600 141.829 C 143.600 141.289,143.440 140.748,143.244 140.627 C 143.049 140.506,142.789 139.821,142.667 139.104 C 141.790 133.929,142.295 134.267,136.800 135.181 M225.186 149.500 L 223.000 151.800 225.300 149.614 C 226.565 148.411,227.600 147.376,227.600 147.314 C 227.600 147.017,227.218 147.363,225.186 149.500 M201.107 160.290 C 201.826 160.379,202.906 160.377,203.507 160.286 C 204.108 160.195,203.520 160.122,202.200 160.124 C 200.880 160.126,200.388 160.201,201.107 160.290 M240.154 167.667 C 239.303 168.400,238.155 169.413,237.603 169.919 C 237.051 170.424,234.710 172.082,232.400 173.603 C 230.090 175.124,227.859 176.610,227.443 176.905 C 226.723 177.415,226.860 177.777,230.221 184.221 C 232.166 187.949,234.550 192.575,235.520 194.500 C 237.534 198.500,237.465 198.471,240.572 196.600 C 241.851 195.830,242.966 195.200,243.050 195.200 C 243.303 195.200,248.421 191.583,251.142 189.481 C 254.648 186.772,258.000 183.570,258.000 182.929 C 258.000 182.484,252.840 177.203,243.478 168.067 L 241.703 166.334 240.154 167.667 M150.300 174.838 C 145.955 179.201,142.400 182.902,142.400 183.062 C 142.400 184.163,157.612 195.967,159.085 196.009 C 159.258 196.014,159.850 196.370,160.400 196.800 C 162.497 198.441,162.684 198.233,167.136 189.300 C 169.410 184.735,171.698 180.242,172.220 179.316 L 173.170 177.633 172.023 176.816 C 171.392 176.367,170.679 176.000,170.438 176.000 C 170.197 176.000,170.000 175.820,170.000 175.600 C 170.000 175.380,169.810 175.200,169.578 175.200 C 168.938 175.200,164.979 172.396,161.444 169.440 C 159.708 167.988,158.268 166.823,158.244 166.852 C 158.220 166.880,154.645 170.474,150.300 174.838 M205.277 183.227 C 202.765 183.722,196.609 183.850,193.540 183.472 L 190.881 183.145 190.662 185.072 C 190.405 187.329,189.794 191.326,188.410 199.800 C 188.230 200.900,187.953 202.712,187.794 203.828 L 187.506 205.855 190.253 206.313 C 194.637 207.043,206.533 207.273,210.000 206.694 C 213.575 206.097,213.368 207.432,211.623 196.200 C 211.418 194.880,210.897 191.517,210.465 188.726 C 209.446 182.141,209.656 182.365,205.277 183.227 " stroke="none" fill="#85acfb" fill-rule="evenodd"></path><path id="path4" d="M192.400 42.479 C 186.512 43.192,186.797 43.088,186.828 44.518 C 186.844 45.223,187.027 46.160,187.235 46.600 C 187.515 47.193,187.560 46.972,187.409 45.747 C 187.083 43.101,189.305 42.633,202.300 42.611 C 205.875 42.605,208.800 42.465,208.800 42.300 C 208.800 41.891,196.117 42.029,192.400 42.479 M211.300 43.070 C 212.580 43.283,212.756 44.947,211.969 49.376 C 211.732 50.709,211.379 52.700,211.184 53.800 C 210.539 57.447,210.389 59.654,210.805 59.397 C 211.022 59.263,211.200 58.094,211.200 56.800 C 211.200 55.506,211.380 54.336,211.600 54.200 C 211.820 54.064,212.000 53.009,212.000 51.856 C 212.000 50.703,212.163 49.589,212.362 49.380 C 212.561 49.171,212.786 47.650,212.862 46.000 L 213.000 43.000 211.600 42.944 C 210.554 42.902,210.478 42.934,211.300 43.070 M187.675 49.600 C 187.686 50.150,187.832 51.140,188.000 51.800 L 188.305 53.000 188.325 51.600 C 188.335 50.830,188.189 49.840,188.000 49.400 C 187.688 48.674,187.658 48.693,187.675 49.600 M236.537 51.299 C 235.495 52.971,227.201 69.799,227.291 70.058 C 227.351 70.231,229.540 66.149,232.155 60.987 C 237.291 50.847,237.422 50.696,239.600 52.400 C 240.150 52.830,240.741 53.186,240.912 53.191 C 242.158 53.227,254.490 62.450,257.170 65.350 L 258.139 66.400 257.170 67.436 C 253.234 71.642,241.788 82.800,241.409 82.800 C 241.151 82.800,240.503 82.329,239.970 81.752 C 237.623 79.217,227.200 72.174,227.200 73.124 C 227.200 73.334,227.515 73.607,227.900 73.729 C 228.836 74.025,230.966 75.324,231.133 75.700 C 231.207 75.865,231.522 76.000,231.833 76.000 C 232.145 76.000,232.400 76.150,232.400 76.332 C 232.400 76.515,232.895 76.919,233.500 77.230 C 234.105 77.540,234.870 78.068,235.200 78.402 C 235.530 78.736,236.479 79.514,237.309 80.132 C 238.139 80.749,239.243 81.680,239.763 82.199 C 240.282 82.719,241.000 83.201,241.359 83.272 C 242.143 83.426,258.396 67.312,258.399 66.378 C 258.400 65.813,252.841 60.409,251.886 60.047 C 251.663 59.963,250.942 59.378,250.282 58.747 C 249.621 58.116,248.838 57.600,248.541 57.600 C 248.243 57.600,248.000 57.462,248.000 57.294 C 248.000 57.126,247.280 56.544,246.400 56.000 C 245.520 55.456,244.800 54.874,244.800 54.706 C 244.800 54.538,244.522 54.400,244.183 54.400 C 243.844 54.400,243.180 54.040,242.708 53.600 C 242.236 53.160,241.613 52.800,241.325 52.800 C 241.036 52.800,240.800 52.620,240.800 52.400 C 240.800 52.180,240.455 52.000,240.033 52.000 C 239.612 52.000,239.207 51.848,239.133 51.662 C 238.891 51.048,236.869 50.765,236.537 51.299 M160.000 52.487 C 153.192 56.554,146.665 61.406,143.210 64.968 L 141.420 66.813 149.607 75.007 C 154.109 79.513,157.992 83.200,158.235 83.200 C 158.772 83.200,160.400 81.834,160.400 81.383 C 160.400 81.206,159.953 81.481,159.406 81.994 L 158.412 82.928 156.113 80.764 C 150.351 75.341,142.400 67.154,142.400 66.644 C 142.400 66.335,143.426 65.208,144.680 64.141 C 145.933 63.073,147.598 61.646,148.380 60.968 C 149.161 60.291,150.700 59.129,151.800 58.387 C 152.900 57.645,154.038 56.804,154.329 56.519 C 154.619 56.234,155.011 56.000,155.200 56.000 C 155.389 56.000,155.781 55.764,156.071 55.475 C 156.998 54.553,162.014 51.961,162.404 52.202 C 162.610 52.330,163.093 53.101,163.478 53.917 C 164.626 56.350,166.081 58.853,166.250 58.684 C 166.337 58.597,165.608 57.012,164.631 55.163 C 162.665 51.443,162.198 51.173,160.000 52.487 M188.475 54.400 C 188.486 54.950,188.632 55.940,188.800 56.600 L 189.105 57.800 189.125 56.400 C 189.135 55.630,188.989 54.640,188.800 54.200 C 188.488 53.474,188.458 53.493,188.475 54.400 M189.240 58.671 C 188.966 61.910,190.471 66.822,191.714 66.746 C 192.544 66.695,192.548 66.681,191.778 66.528 C 190.899 66.353,190.036 63.965,189.960 61.494 C 189.920 60.182,189.313 57.805,189.240 58.671 M166.400 59.352 C 166.400 59.508,167.835 62.444,169.588 65.876 C 172.979 72.511,172.966 72.455,171.292 73.301 C 169.479 74.217,168.283 74.963,167.445 75.700 C 167.007 76.085,166.413 76.400,166.125 76.400 C 165.836 76.400,165.600 76.541,165.600 76.714 C 165.600 76.886,165.105 77.330,164.500 77.701 C 163.137 78.535,160.800 80.608,160.800 80.984 C 160.800 81.137,161.745 80.466,162.900 79.493 C 164.998 77.725,169.754 74.400,170.184 74.400 C 170.697 74.400,173.190 72.569,173.195 72.189 C 173.198 71.963,172.634 70.703,171.942 69.389 C 171.250 68.075,169.821 65.316,168.766 63.257 C 166.881 59.579,166.400 58.785,166.400 59.352 M209.936 62.200 C 209.680 64.144,209.765 64.768,210.224 64.310 C 210.347 64.187,210.392 63.212,210.324 62.143 L 210.200 60.200 209.936 62.200 M195.600 65.973 C 193.913 66.160,194.891 66.289,199.800 66.527 C 203.320 66.698,206.965 66.940,207.900 67.064 C 209.490 67.276,209.598 67.230,209.568 66.345 C 209.551 65.825,209.446 65.625,209.335 65.900 C 209.085 66.521,200.579 66.614,200.200 66.000 C 199.940 65.580,199.203 65.575,195.600 65.973 M226.400 71.800 C 226.400 72.350,226.469 72.800,226.553 72.800 C 226.638 72.800,226.793 72.350,226.898 71.800 C 227.003 71.250,226.934 70.800,226.745 70.800 C 226.555 70.800,226.400 71.250,226.400 71.800 M270.600 87.764 C 269.280 88.444,268.140 89.135,268.067 89.300 C 267.993 89.465,267.603 89.600,267.200 89.600 C 266.797 89.600,266.407 89.735,266.333 89.900 C 266.260 90.065,263.144 91.755,259.408 93.656 C 251.507 97.677,251.519 97.665,252.772 100.269 C 253.283 101.331,253.880 102.650,254.097 103.200 C 254.315 103.750,254.652 104.513,254.847 104.895 C 255.041 105.277,255.200 105.941,255.200 106.371 C 255.200 106.801,255.380 107.264,255.600 107.400 C 255.820 107.536,256.000 108.166,256.000 108.800 C 256.000 109.434,256.180 110.064,256.400 110.200 C 256.620 110.336,256.800 111.157,256.800 112.024 C 256.800 112.891,256.983 113.600,257.208 113.600 C 257.441 113.600,257.517 113.131,257.385 112.500 C 256.822 109.808,256.301 107.739,256.001 107.000 C 255.822 106.560,255.090 104.670,254.374 102.800 C 253.657 100.930,252.898 99.175,252.687 98.900 C 252.022 98.036,252.972 97.404,261.322 93.158 C 265.765 90.899,270.196 88.643,271.169 88.144 C 273.374 87.016,273.378 87.019,275.229 90.956 C 276.068 92.740,276.765 93.973,276.777 93.695 C 276.790 93.417,276.636 92.877,276.435 92.495 C 276.234 92.113,275.600 90.784,275.026 89.541 C 273.568 86.388,273.403 86.321,270.600 87.764 M124.929 90.700 C 123.347 94.138,120.385 102.615,120.427 103.581 C 120.463 104.404,120.867 103.399,122.028 99.600 C 122.532 97.950,123.092 96.429,123.272 96.220 C 123.452 96.011,123.600 95.604,123.600 95.316 C 123.600 95.027,123.981 93.938,124.447 92.896 C 124.912 91.853,125.551 90.415,125.865 89.700 C 126.180 88.985,126.654 88.397,126.919 88.393 C 127.815 88.380,146.800 98.177,146.800 98.653 C 146.800 99.059,146.204 100.408,144.750 103.295 C 144.557 103.677,144.400 104.341,144.400 104.771 C 144.400 105.201,144.220 105.664,144.000 105.800 C 143.780 105.936,143.600 106.476,143.600 107.000 C 143.600 107.524,143.440 108.052,143.244 108.173 C 142.906 108.382,142.751 109.053,142.088 113.200 L 141.800 115.000 139.400 114.918 C 137.637 114.858,137.266 114.927,138.000 115.178 C 140.089 115.893,141.969 115.678,142.172 114.700 C 143.286 109.353,145.230 103.050,146.554 100.490 C 147.632 98.404,147.398 97.910,144.688 96.565 C 143.320 95.886,138.733 93.591,134.495 91.465 C 130.257 89.339,126.691 87.600,126.572 87.600 C 126.452 87.600,125.713 88.995,124.929 90.700 M198.600 89.179 C 197.516 89.360,198.180 89.438,200.662 89.423 C 202.675 89.410,204.240 89.265,204.138 89.100 C 203.923 88.752,200.915 88.795,198.600 89.179 M192.400 90.012 C 191.981 90.291,192.342 90.333,193.600 90.150 C 195.841 89.825,196.160 89.598,194.367 89.606 C 193.615 89.609,192.730 89.792,192.400 90.012 M207.400 90.000 C 208.493 90.469,208.800 90.469,208.800 90.000 C 208.800 89.780,208.305 89.613,207.700 89.628 C 206.725 89.653,206.691 89.695,207.400 90.000 M189.390 90.816 C 189.221 91.089,189.523 91.138,190.266 90.960 C 191.799 90.592,191.944 90.400,190.690 90.400 C 190.117 90.400,189.532 90.587,189.390 90.816 M181.600 94.436 C 180.936 94.979,180.869 95.115,181.400 94.840 C 182.705 94.166,183.428 93.612,183.000 93.615 C 182.780 93.617,182.150 93.986,181.600 94.436 M219.020 94.721 C 219.229 94.898,220.438 95.822,221.707 96.775 C 224.111 98.581,228.400 102.969,228.400 103.623 C 228.400 103.830,228.592 104.000,228.827 104.000 C 229.986 104.000,224.238 97.860,220.928 95.561 C 219.422 94.515,218.075 93.922,219.020 94.721 M276.906 94.900 C 277.815 97.278,279.613 103.023,280.005 104.800 C 280.272 106.010,280.650 107.413,280.845 107.919 C 282.024 110.970,281.349 111.938,277.669 112.474 C 276.201 112.689,274.100 113.015,273.000 113.200 C 270.157 113.678,265.800 114.375,263.000 114.800 C 261.680 115.000,260.030 115.281,259.333 115.423 C 258.225 115.649,258.044 115.563,257.888 114.741 C 257.725 113.884,257.704 113.898,257.654 114.900 C 257.598 116.049,260.365 116.628,261.000 115.600 C 261.136 115.380,262.306 115.200,263.600 115.200 C 264.894 115.200,266.064 115.020,266.200 114.800 C 266.336 114.580,267.416 114.400,268.600 114.400 C 269.784 114.400,270.864 114.220,271.000 114.000 C 271.136 113.780,272.216 113.600,273.400 113.600 C 274.584 113.600,275.664 113.420,275.800 113.200 C 275.936 112.980,276.982 112.794,278.124 112.787 C 280.897 112.770,281.600 112.182,281.600 109.880 C 281.600 108.872,281.420 107.936,281.200 107.800 C 280.980 107.664,280.800 106.854,280.800 106.000 C 280.800 105.146,280.620 104.336,280.400 104.200 C 280.180 104.064,280.000 103.434,280.000 102.800 C 280.000 102.166,279.820 101.536,279.600 101.400 C 279.380 101.264,279.200 100.623,279.200 99.976 C 279.200 99.329,279.020 98.800,278.800 98.800 C 278.580 98.800,278.400 98.361,278.400 97.824 C 278.400 97.287,278.220 96.736,278.000 96.600 C 277.780 96.464,277.600 95.913,277.600 95.376 C 277.600 94.839,277.401 94.400,277.157 94.400 C 276.914 94.400,276.800 94.625,276.906 94.900 M174.853 99.918 C 172.734 102.074,170.659 104.459,170.243 105.218 C 169.323 106.898,169.702 106.519,172.001 103.459 C 172.968 102.172,175.022 99.967,176.564 98.559 C 178.107 97.152,179.219 96.000,179.037 96.000 C 178.855 96.000,176.972 97.763,174.853 99.918 M119.466 107.149 C 118.524 111.320,118.572 112.403,119.700 112.388 C 120.514 112.377,120.532 112.336,119.887 111.961 C 119.129 111.519,119.165 110.479,120.064 106.930 C 120.297 106.012,120.407 105.022,120.310 104.730 C 120.212 104.439,119.833 105.527,119.466 107.149 M229.836 105.500 C 231.218 107.587,233.180 111.775,233.811 113.984 C 234.159 115.203,234.628 116.790,234.852 117.512 C 235.394 119.252,235.377 130.393,234.830 132.188 C 234.594 132.965,234.195 134.275,233.943 135.100 C 233.692 135.925,233.403 136.825,233.301 137.100 C 233.198 137.375,233.314 137.600,233.557 137.600 C 233.801 137.600,234.000 137.161,234.000 136.624 C 234.000 136.087,234.180 135.536,234.400 135.400 C 234.620 135.264,234.800 134.569,234.800 133.856 C 234.800 133.143,234.998 132.362,235.240 132.120 C 235.839 131.521,235.833 117.673,235.234 117.074 C 234.995 116.835,234.800 116.147,234.800 115.544 C 234.800 114.941,234.656 114.358,234.479 114.249 C 234.303 114.140,233.910 113.139,233.607 112.025 C 233.304 110.911,232.908 110.000,232.728 110.000 C 232.547 110.000,232.400 109.640,232.400 109.200 C 232.400 108.760,232.220 108.400,232.000 108.400 C 231.780 108.400,231.600 108.040,231.600 107.600 C 231.600 107.160,231.464 106.800,231.298 106.800 C 231.131 106.800,230.756 106.260,230.464 105.600 C 230.172 104.940,229.747 104.400,229.520 104.400 C 229.294 104.400,229.436 104.895,229.836 105.500 M168.679 107.974 C 168.306 108.606,168.001 109.276,168.001 109.462 C 168.002 109.648,168.372 109.195,168.823 108.455 C 169.274 107.715,169.579 107.046,169.501 106.967 C 169.422 106.889,169.052 107.342,168.679 107.974 M122.600 112.823 C 124.849 113.288,126.505 113.275,125.400 112.800 C 124.960 112.611,123.790 112.464,122.800 112.474 L 121.000 112.492 122.600 112.823 M130.400 113.998 C 134.796 114.792,136.704 114.971,136.283 114.550 C 136.016 114.283,132.005 113.706,128.400 113.417 C 127.101 113.312,127.920 113.551,130.400 113.998 M165.800 114.800 C 165.650 115.273,165.617 115.750,165.727 115.860 C 165.837 115.970,166.050 115.673,166.200 115.200 C 166.350 114.727,166.383 114.250,166.273 114.140 C 166.163 114.030,165.950 114.327,165.800 114.800 M164.978 118.178 C 164.827 118.981,164.794 119.727,164.904 119.837 C 165.014 119.947,165.227 119.381,165.378 118.578 C 165.528 117.775,165.562 117.028,165.452 116.918 C 165.342 116.808,165.128 117.375,164.978 118.178 M164.520 124.800 C 164.520 126.010,164.595 126.505,164.687 125.900 C 164.778 125.295,164.778 124.305,164.687 123.700 C 164.595 123.095,164.520 123.590,164.520 124.800 M164.868 130.400 C 164.862 130.950,165.011 131.760,165.200 132.200 L 165.544 133.000 165.532 132.200 C 165.526 131.760,165.376 130.950,165.200 130.400 L 164.880 129.400 164.868 130.400 M257.899 133.434 C 257.735 133.599,257.600 134.143,257.600 134.643 C 257.600 135.143,257.420 135.664,257.200 135.800 C 256.980 135.936,256.800 136.746,256.800 137.600 C 256.800 138.454,256.620 139.264,256.400 139.400 C 256.180 139.536,256.000 140.166,256.000 140.800 C 256.000 141.434,255.820 142.064,255.600 142.200 C 255.380 142.336,255.200 142.887,255.200 143.424 C 255.200 143.961,255.020 144.400,254.800 144.400 C 254.580 144.400,254.400 144.839,254.400 145.376 C 254.400 145.913,254.220 146.464,254.000 146.600 C 253.780 146.736,253.600 147.197,253.600 147.624 C 253.600 148.051,253.420 148.400,253.200 148.400 C 252.980 148.400,252.800 148.749,252.800 149.176 C 252.800 149.603,252.620 150.064,252.400 150.200 C 251.149 150.973,252.157 151.969,256.430 154.180 C 258.867 155.441,260.949 156.384,261.056 156.277 C 261.164 156.169,260.025 155.462,258.526 154.704 C 256.080 153.469,252.765 151.663,252.498 151.422 C 252.442 151.371,252.648 150.806,252.955 150.165 C 254.884 146.138,255.867 143.212,257.714 136.000 C 258.213 134.048,258.386 133.811,259.239 133.895 C 260.600 134.030,264.910 134.647,268.200 135.179 C 271.591 135.727,275.634 136.336,277.800 136.625 C 281.218 137.082,281.200 137.070,281.200 138.879 C 281.200 139.794,281.032 141.096,280.827 141.772 C 280.622 142.447,280.250 143.810,280.001 144.800 C 279.752 145.790,278.936 148.481,278.187 150.780 C 277.439 153.079,276.907 155.040,277.004 155.137 C 277.101 155.235,277.289 154.974,277.420 154.557 C 277.551 154.141,277.825 153.487,278.029 153.105 C 278.233 152.723,278.400 152.048,278.400 151.605 C 278.400 151.162,278.580 150.800,278.800 150.800 C 279.020 150.800,279.200 150.271,279.200 149.624 C 279.200 148.977,279.380 148.336,279.600 148.200 C 279.820 148.064,280.000 147.434,280.000 146.800 C 280.000 146.166,280.161 145.548,280.358 145.426 C 280.824 145.138,281.243 142.459,281.330 139.200 L 281.400 136.600 279.400 136.492 C 278.300 136.432,277.040 136.216,276.600 136.011 C 276.160 135.806,274.855 135.540,273.700 135.419 C 272.545 135.299,270.655 135.101,269.500 134.981 C 268.345 134.860,267.040 134.598,266.600 134.399 C 266.160 134.199,264.810 133.946,263.600 133.836 C 262.390 133.726,260.680 133.523,259.799 133.385 C 258.919 133.248,258.064 133.270,257.899 133.434 M165.612 134.000 C 165.612 134.330,165.787 134.870,166.000 135.200 C 166.345 135.733,166.388 135.733,166.388 135.200 C 166.388 134.870,166.213 134.330,166.000 134.000 C 165.655 133.467,165.612 133.467,165.612 134.000 M138.800 134.438 C 137.590 134.618,135.377 134.931,133.883 135.133 C 132.389 135.335,131.054 135.613,130.917 135.750 C 130.504 136.163,132.358 136.001,137.000 135.219 C 142.435 134.304,141.777 133.873,142.633 138.904 C 142.773 139.731,143.056 140.511,143.260 140.637 C 143.634 140.869,143.500 139.884,142.790 137.200 C 142.587 136.430,142.369 135.442,142.306 135.005 C 142.171 134.070,141.739 134.000,138.800 134.438 M126.600 136.400 C 125.536 136.857,127.203 136.857,129.000 136.400 L 130.200 136.095 128.800 136.075 C 128.030 136.065,127.040 136.211,126.600 136.400 M166.412 136.400 C 166.412 136.730,166.587 137.270,166.800 137.600 C 167.145 138.133,167.188 138.133,167.188 137.600 C 167.188 137.270,167.013 136.730,166.800 136.400 C 166.455 135.867,166.412 135.867,166.412 136.400 M121.400 137.200 C 120.318 137.665,122.548 137.665,124.000 137.200 C 124.909 136.909,124.873 136.879,123.600 136.868 C 122.830 136.862,121.840 137.011,121.400 137.200 M231.918 140.260 C 230.848 142.375,230.813 143.057,231.843 141.700 C 232.135 141.315,232.380 140.700,232.387 140.333 C 232.394 139.967,232.601 139.600,232.846 139.518 C 233.091 139.436,233.226 139.088,233.146 138.745 C 233.059 138.374,232.559 138.991,231.918 140.260 M167.382 139.000 C 168.142 141.371,171.341 146.058,174.200 148.992 C 176.004 150.843,176.344 151.124,174.980 149.638 C 171.829 146.204,170.821 144.828,168.798 141.200 C 167.879 139.550,167.241 138.560,167.382 139.000 M118.868 139.800 C 118.862 140.460,119.011 141.360,119.200 141.800 C 119.670 142.894,119.670 141.067,119.200 139.600 C 118.888 138.625,118.879 138.630,118.868 139.800 M143.614 141.905 C 143.601 142.778,143.730 143.146,144.738 145.095 C 144.992 145.587,145.200 146.226,145.200 146.516 C 145.200 146.806,145.673 147.992,146.250 149.151 C 146.835 150.325,147.146 151.400,146.950 151.578 C 146.566 151.928,138.795 156.028,131.638 159.657 C 126.621 162.202,126.699 162.196,125.769 160.083 C 125.410 159.267,124.794 157.880,124.400 157.000 C 123.753 155.558,123.398 154.605,122.628 152.243 C 122.492 151.826,122.293 151.573,122.186 151.680 C 121.667 152.199,126.120 162.400,126.865 162.400 C 127.158 162.400,136.125 157.884,146.500 152.511 C 147.824 151.826,147.863 151.283,146.747 149.095 C 146.277 148.175,145.751 146.968,145.578 146.411 C 144.655 143.450,143.627 141.091,143.614 141.905 M119.634 143.600 C 119.622 144.150,119.787 144.870,120.000 145.200 C 120.509 145.987,120.509 144.584,120.000 143.400 C 119.685 142.667,119.654 142.684,119.634 143.600 M229.117 145.048 C 228.302 146.231,227.741 147.200,227.871 147.200 C 228.267 147.200,229.999 145.031,230.000 144.533 C 230.000 144.277,230.207 143.998,230.460 143.913 C 230.713 143.829,230.848 143.565,230.760 143.328 C 230.672 143.090,229.933 143.864,229.117 145.048 M120.456 146.600 C 120.456 147.040,120.611 147.760,120.800 148.200 L 121.144 149.000 121.144 148.200 C 121.144 147.760,120.989 147.040,120.800 146.600 L 120.456 145.800 120.456 146.600 M225.000 149.927 C 223.680 151.202,221.970 152.676,221.200 153.203 C 220.430 153.730,219.710 154.260,219.600 154.381 C 219.364 154.639,217.855 155.517,216.275 156.315 C 215.656 156.628,215.235 156.968,215.338 157.071 C 216.112 157.845,224.660 151.499,227.153 148.300 C 228.126 147.051,227.449 147.563,225.000 149.927 M121.228 149.476 C 121.318 150.515,121.944 151.396,121.972 150.524 C 121.987 150.042,121.820 149.536,121.600 149.400 C 121.380 149.264,121.213 149.298,121.228 149.476 M179.000 153.401 C 180.174 154.419,182.400 155.772,182.400 155.467 C 182.400 155.382,181.365 154.649,180.100 153.837 C 178.547 152.840,178.190 152.699,179.000 153.401 M276.446 155.651 C 276.421 155.789,276.128 156.554,275.795 157.351 C 275.441 158.198,275.358 158.800,275.595 158.800 C 275.818 158.800,276.000 158.455,276.000 158.033 C 276.000 157.612,276.201 157.200,276.446 157.118 C 276.691 157.036,276.802 156.616,276.692 156.185 C 276.582 155.753,276.472 155.513,276.446 155.651 M261.820 156.762 C 262.492 157.403,265.206 158.800,265.779 158.800 C 266.084 158.800,266.402 159.007,266.487 159.260 C 266.571 159.513,266.901 159.633,267.220 159.527 C 267.556 159.414,266.571 158.717,264.878 157.867 C 261.935 156.389,261.120 156.095,261.820 156.762 M211.600 158.400 C 211.067 158.745,211.067 158.788,211.600 158.788 C 211.930 158.788,212.470 158.613,212.800 158.400 C 213.333 158.055,213.333 158.012,212.800 158.012 C 212.470 158.012,211.930 158.187,211.600 158.400 M190.990 159.184 C 191.132 159.413,191.717 159.600,192.290 159.600 C 193.544 159.600,193.399 159.408,191.866 159.040 C 191.123 158.862,190.821 158.911,190.990 159.184 M274.278 160.605 C 273.469 162.302,273.383 162.306,270.563 160.780 C 268.860 159.858,266.918 159.348,268.033 160.115 C 269.141 160.876,273.376 162.738,273.636 162.578 C 274.101 162.290,275.350 159.617,275.124 159.391 C 275.025 159.291,274.644 159.838,274.278 160.605 M194.844 160.035 C 195.363 160.364,200.332 160.575,199.967 160.253 C 199.875 160.172,198.560 160.011,197.044 159.894 C 195.384 159.767,194.509 159.823,194.844 160.035 M205.000 160.000 C 204.286 160.307,204.315 160.347,205.276 160.372 C 205.868 160.387,206.464 160.220,206.600 160.000 C 206.895 159.522,206.111 159.522,205.000 160.000 M239.000 167.920 C 236.541 170.269,231.579 173.991,230.900 173.996 C 230.625 173.998,230.400 174.180,230.400 174.400 C 230.400 174.620,230.130 174.800,229.800 174.800 C 229.470 174.800,229.200 174.980,229.200 175.200 C 229.200 175.420,228.930 175.600,228.600 175.600 C 228.270 175.600,228.000 175.795,228.000 176.033 C 228.000 176.819,235.557 171.772,238.800 168.819 C 239.790 167.918,240.882 167.016,241.227 166.815 C 241.915 166.414,258.000 181.861,258.000 182.923 C 258.000 183.569,254.661 186.762,251.142 189.481 C 248.421 191.583,243.303 195.200,243.050 195.200 C 242.966 195.200,241.851 195.830,240.572 196.600 C 237.465 198.471,237.535 198.500,235.515 194.500 C 230.915 185.392,229.023 181.931,228.880 182.360 C 228.794 182.617,228.898 183.046,229.111 183.313 C 229.324 183.581,231.164 187.100,233.200 191.132 C 236.601 197.865,237.893 199.722,238.309 198.472 C 238.396 198.212,238.812 198.000,239.233 198.000 C 239.655 198.000,240.000 197.820,240.000 197.600 C 240.000 197.380,240.236 197.200,240.525 197.200 C 240.813 197.200,241.436 196.840,241.908 196.400 C 242.380 195.960,243.044 195.600,243.383 195.600 C 243.722 195.600,244.000 195.450,244.000 195.268 C 244.000 195.085,244.495 194.680,245.100 194.368 C 245.705 194.055,246.549 193.485,246.975 193.100 C 247.402 192.715,247.921 192.400,248.129 192.400 C 248.336 192.400,248.797 192.068,249.153 191.663 C 249.509 191.257,250.003 190.852,250.252 190.763 C 251.573 190.287,258.800 183.658,258.800 182.922 C 258.800 182.127,242.451 165.999,241.652 166.005 C 241.293 166.008,240.100 166.869,239.000 167.920 M150.096 174.504 C 145.643 178.961,142.000 182.812,142.000 183.061 C 142.000 184.825,160.303 198.400,162.681 198.400 C 163.068 198.400,164.938 194.805,164.683 194.550 C 164.599 194.466,164.186 195.116,163.765 195.994 C 162.895 197.811,161.974 198.031,160.400 196.800 C 159.850 196.370,159.258 196.014,159.085 196.009 C 157.613 195.967,142.400 184.163,142.400 183.063 C 142.400 182.904,146.001 179.202,150.403 174.836 L 158.406 166.898 161.503 169.489 C 164.986 172.402,168.942 175.200,169.578 175.200 C 169.810 175.200,170.000 175.380,170.000 175.600 C 170.000 175.820,170.197 176.000,170.438 176.000 C 170.679 176.000,171.392 176.367,172.022 176.816 L 173.168 177.632 172.422 178.961 C 172.011 179.692,171.484 180.630,171.249 181.045 C 170.021 183.222,164.779 194.142,165.127 193.800 C 166.204 192.740,173.588 177.428,173.206 177.046 C 172.980 176.820,171.827 176.088,170.643 175.418 C 167.331 173.544,164.386 171.436,161.402 168.802 C 159.906 167.481,158.571 166.400,158.437 166.400 C 158.303 166.400,154.549 170.047,150.096 174.504 M226.400 177.400 C 226.400 177.950,226.591 178.400,226.824 178.400 C 227.057 178.400,227.131 178.212,226.989 177.982 C 226.847 177.753,226.949 177.303,227.215 176.982 C 227.604 176.513,227.572 176.400,227.049 176.400 C 226.623 176.400,226.400 176.744,226.400 177.400 M204.991 182.635 C 204.766 182.729,203.506 182.963,202.191 183.154 C 199.951 183.481,199.909 183.506,201.523 183.551 C 202.471 183.578,204.504 183.392,206.041 183.138 C 209.321 182.597,209.520 182.714,209.978 185.445 L 210.306 187.400 210.340 185.600 C 210.394 182.806,207.892 181.419,204.991 182.635 M190.645 183.243 C 190.024 185.232,188.955 193.536,189.369 193.147 C 189.621 192.911,190.157 189.559,190.665 185.051 L 190.884 183.103 192.542 183.330 C 195.892 183.789,200.063 184.005,197.800 183.602 C 193.190 182.781,190.826 182.663,190.645 183.243 M210.675 190.500 C 210.996 193.340,211.200 193.405,211.200 190.667 C 211.200 189.420,211.028 188.400,210.819 188.400 C 210.596 188.400,210.536 189.270,210.675 190.500 M211.430 195.079 C 211.551 196.136,211.739 197.360,211.849 197.800 C 212.130 198.931,212.865 203.987,212.938 205.300 C 212.972 205.905,213.135 206.400,213.300 206.400 C 213.752 206.400,213.660 203.285,213.200 203.000 C 212.980 202.864,212.800 201.784,212.800 200.600 C 212.800 199.416,212.620 198.336,212.400 198.200 C 212.180 198.064,212.000 196.984,212.000 195.800 C 212.000 194.616,211.822 193.537,211.605 193.403 C 211.355 193.248,211.290 193.863,211.430 195.079 M188.647 195.737 C 188.478 196.802,188.432 197.765,188.544 197.878 C 188.836 198.169,189.305 195.424,189.114 194.540 C 189.027 194.133,188.816 194.671,188.647 195.737 M187.818 200.726 C 187.653 201.895,187.613 202.946,187.729 203.062 C 188.014 203.347,188.531 199.787,188.300 199.125 C 188.200 198.836,187.982 199.557,187.818 200.726 M187.323 205.356 C 187.436 206.467,190.589 207.161,195.620 207.182 C 198.135 207.193,200.018 207.378,200.280 207.640 C 200.563 207.923,201.201 207.966,202.060 207.759 L 203.400 207.438 201.400 207.154 C 200.300 206.998,197.891 206.854,196.046 206.835 C 191.612 206.789,187.692 206.059,187.440 205.234 C 187.308 204.803,187.271 204.842,187.323 205.356 M209.000 206.800 L 207.400 207.086 209.476 207.143 C 210.618 207.174,211.664 207.020,211.800 206.800 C 212.070 206.363,211.442 206.363,209.000 206.800 " stroke="none" fill="#b4c2ee" fill-rule="evenodd"></path><path id="path5" d="M117.200 219.097 C 117.530 219.225,119.060 220.321,120.600 221.531 C 124.177 224.343,124.825 224.797,124.000 223.914 C 122.516 222.327,117.835 218.803,117.249 218.832 C 116.703 218.858,116.695 218.900,117.200 219.097 M124.801 224.678 C 124.801 224.855,125.578 225.491,126.527 226.090 C 127.476 226.690,128.781 227.637,129.426 228.196 C 130.072 228.755,131.095 229.433,131.700 229.703 C 132.305 229.974,132.800 230.331,132.800 230.498 C 132.800 230.664,132.993 230.800,133.228 230.800 C 133.463 230.800,134.441 231.340,135.400 232.000 C 136.359 232.660,137.259 233.200,137.400 233.200 C 137.541 233.200,138.466 233.757,139.456 234.439 C 140.446 235.120,141.338 235.595,141.438 235.496 C 141.707 235.226,140.875 234.627,138.200 233.163 C 135.418 231.642,130.406 228.417,127.100 226.022 C 125.835 225.106,124.800 224.501,124.801 224.678 M165.745 245.111 C 165.880 245.329,166.487 245.610,167.095 245.736 C 168.911 246.111,171.684 246.729,173.600 247.185 C 176.082 247.776,179.282 248.342,182.600 248.778 C 184.140 248.980,186.120 249.252,187.000 249.383 C 188.313 249.578,188.432 249.547,187.663 249.209 C 187.147 248.983,185.707 248.690,184.463 248.558 C 179.289 248.008,171.547 246.467,166.250 244.932 C 165.810 244.804,165.601 244.878,165.745 245.111 " stroke="none" fill="#fc8484" fill-rule="evenodd"></path><path id="path6" d="M280.400 220.437 C 278.631 222.044,278.627 222.052,280.200 220.898 C 281.080 220.253,282.160 219.522,282.600 219.274 C 283.161 218.959,283.221 218.821,282.800 218.813 C 282.470 218.807,281.390 219.538,280.400 220.437 M268.890 228.966 C 266.210 230.803,265.011 231.848,267.000 230.613 C 269.760 228.900,272.163 227.202,271.795 227.223 C 271.578 227.236,270.271 228.020,268.890 228.966 M262.857 232.617 C 261.678 233.352,260.598 234.076,260.457 234.226 C 260.070 234.636,263.228 232.957,264.600 232.022 C 266.540 230.701,265.193 231.161,262.857 232.617 M232.800 245.262 C 230.179 245.974,228.203 246.443,226.496 246.759 C 224.456 247.137,223.665 247.706,225.629 247.383 C 227.715 247.040,232.972 245.692,234.200 245.185 C 235.257 244.748,234.548 244.787,232.800 245.262 M220.200 247.996 C 219.702 248.208,220.231 248.251,221.600 248.112 C 222.810 247.989,223.875 247.823,223.967 247.744 C 224.311 247.447,220.967 247.670,220.200 247.996 M214.600 248.802 C 214.105 249.016,214.790 249.060,216.400 248.918 C 217.830 248.792,219.075 248.623,219.167 248.544 C 219.520 248.239,215.358 248.474,214.600 248.802 " stroke="none" fill="#e4749c" fill-rule="evenodd"></path><path id="path7" d="M279.426 220.612 C 278.340 221.595,276.857 222.804,276.129 223.299 C 275.401 223.795,274.804 224.347,274.803 224.527 C 274.801 224.706,275.835 224.029,277.100 223.022 C 280.929 219.975,282.220 218.821,281.800 218.824 C 281.580 218.826,280.512 219.630,279.426 220.612 M272.905 225.725 C 272.193 226.206,271.608 226.744,271.605 226.920 C 271.602 227.097,272.230 226.760,273.000 226.173 C 273.770 225.586,274.400 225.036,274.400 224.953 C 274.400 224.727,274.319 224.769,272.905 225.725 M269.829 227.809 C 269.405 228.129,269.138 228.471,269.235 228.569 C 269.332 228.666,269.859 228.402,270.406 227.982 C 270.953 227.561,271.220 227.220,271.000 227.222 C 270.780 227.224,270.253 227.488,269.829 227.809 M266.692 229.883 C 265.863 230.452,265.262 230.995,265.356 231.089 C 265.527 231.260,268.800 229.224,268.800 228.947 C 268.800 228.604,268.106 228.913,266.692 229.883 M261.507 233.086 C 259.807 234.110,258.474 235.008,258.547 235.080 C 258.701 235.235,264.800 231.612,264.800 231.366 C 264.800 231.105,264.772 231.120,261.507 233.086 M233.600 244.818 C 233.162 245.115,233.324 245.152,234.200 244.956 C 235.671 244.627,235.990 244.398,234.967 244.406 C 234.545 244.409,233.930 244.595,233.600 244.818 M227.000 246.400 L 226.200 246.744 227.000 246.766 C 227.440 246.778,228.070 246.613,228.400 246.400 C 229.195 245.886,228.196 245.886,227.000 246.400 M223.200 247.200 L 222.200 247.520 223.200 247.554 C 223.750 247.573,224.470 247.413,224.800 247.200 C 225.564 246.706,224.742 246.706,223.200 247.200 M217.800 248.000 L 215.800 248.274 217.600 248.309 C 218.590 248.328,219.760 248.189,220.200 248.000 C 221.113 247.608,220.662 247.608,217.800 248.000 M212.600 248.800 C 211.871 249.113,211.888 249.144,212.800 249.144 C 213.350 249.144,214.160 248.989,214.600 248.800 C 215.329 248.487,215.312 248.456,214.400 248.456 C 213.850 248.456,213.040 248.611,212.600 248.800 " stroke="none" fill="#e498b4" fill-rule="evenodd"></path><path id="path8" d="M117.497 218.811 C 117.990 219.010,119.790 220.309,121.497 221.700 C 125.764 225.175,127.600 226.501,127.600 226.107 C 127.600 225.923,127.105 225.477,126.500 225.115 C 125.895 224.753,124.860 224.013,124.200 223.471 C 119.872 219.912,117.788 218.403,117.234 218.425 C 116.825 218.442,116.918 218.578,117.497 218.811 M129.469 227.632 C 129.966 228.233,132.400 229.764,132.400 229.476 C 132.400 229.383,131.635 228.802,130.700 228.185 C 129.765 227.568,129.211 227.320,129.469 227.632 M134.600 231.011 C 135.040 231.369,135.940 231.926,136.600 232.250 C 137.722 232.801,137.748 232.797,137.000 232.189 C 136.560 231.831,135.660 231.274,135.000 230.950 C 133.878 230.399,133.852 230.403,134.600 231.011 M164.433 244.543 C 164.876 244.922,167.217 245.151,166.996 244.794 C 166.862 244.577,166.193 244.400,165.510 244.400 C 164.826 244.400,164.342 244.464,164.433 244.543 M168.600 245.600 C 169.796 246.114,170.795 246.114,170.000 245.600 C 169.670 245.387,169.040 245.222,168.600 245.234 L 167.800 245.256 168.600 245.600 M172.200 246.400 C 173.396 246.914,174.395 246.914,173.600 246.400 C 173.270 246.187,172.640 246.022,172.200 246.034 L 171.400 246.056 172.200 246.400 M175.600 247.200 C 177.130 247.690,178.358 247.690,177.600 247.200 C 177.270 246.987,176.460 246.827,175.800 246.846 C 174.624 246.879,174.620 246.886,175.600 247.200 M180.200 248.000 C 180.860 248.168,181.940 248.305,182.600 248.305 L 183.800 248.305 182.600 248.000 C 181.940 247.832,180.860 247.695,180.200 247.695 L 179.000 247.695 180.200 248.000 M185.800 248.670 C 186.240 248.767,187.115 249.014,187.745 249.218 C 188.734 249.539,188.822 249.509,188.396 248.995 C 188.108 248.648,187.297 248.419,186.451 248.446 C 185.653 248.472,185.360 248.572,185.800 248.670 " stroke="none" fill="#fcaca4" fill-rule="evenodd"></path></g></svg>