<svg id="svg" version="1.1" xmlns="http://www.w3.org/2000/svg" xmlns:xlink="http://www.w3.org/1999/xlink" width="400" height="400" viewBox="0, 0, 400,400"><g id="svgg"><path id="path0" d="M193.600 110.036 C 158.951 112.719,128.776 134.804,116.475 166.485 C 99.594 209.959,117.706 258.277,158.840 279.504 C 218.593 310.341,289.552 267.113,289.677 199.800 C 289.766 151.811,254.084 113.772,205.442 110.000 C 199.809 109.563,199.710 109.563,193.600 110.036 M236.736 134.042 C 266.659 143.603,268.193 183.448,239.018 193.288 L 237.500 193.800 237.567 198.800 C 238.022 232.645,197.600 250.265,173.764 226.611 C 151.119 204.140,164.276 165.735,195.835 162.185 L 198.271 161.911 198.769 159.256 C 201.100 146.816,209.034 137.804,220.600 134.457 C 225.132 133.145,233.275 132.936,236.736 134.042 M161.427 221.217 C 174.660 223.544,182.225 238.786,175.146 248.862 C 174.736 249.446,174.400 250.044,174.400 250.191 C 174.400 250.959,170.377 254.539,168.297 255.622 C 156.364 261.832,143.026 255.369,140.780 242.288 C 139.185 233.005,146.130 223.295,155.729 221.387 C 159.010 220.734,158.727 220.743,161.427 221.217 " stroke="none" fill="#eb6161" fill-rule="evenodd"></path><path id="path1" d="M195.000 162.250 C 194.560 162.337,193.210 162.600,192.000 162.835 C 163.007 168.459,152.432 205.443,173.764 226.611 C 197.641 250.306,238.528 232.345,237.530 198.600 L 237.400 194.200 236.000 194.278 C 235.230 194.321,232.998 194.480,231.040 194.631 C 214.021 195.947,198.401 181.336,198.400 164.100 L 198.400 162.000 197.100 162.046 C 196.385 162.072,195.440 162.164,195.000 162.250 " stroke="none" fill="#845c3c" fill-rule="evenodd"></path><path id="path2" d="M198.565 50.857 C 198.448 51.045,195.123 51.200,191.176 51.200 C 186.659 51.200,184.000 51.348,184.000 51.600 C 184.000 51.829,182.800 52.000,181.200 52.000 C 179.600 52.000,178.400 52.171,178.400 52.400 C 178.400 52.626,177.267 52.800,175.800 52.800 C 174.333 52.800,173.200 52.974,173.200 53.200 C 173.200 53.420,172.311 53.600,171.224 53.600 C 170.137 53.600,169.136 53.780,169.000 54.000 C 168.864 54.220,168.079 54.400,167.256 54.400 C 166.433 54.400,165.589 54.571,165.379 54.781 C 165.170 54.990,164.324 55.207,163.499 55.263 C 162.675 55.318,162.000 55.507,162.000 55.682 C 162.000 55.857,161.471 56.000,160.824 56.000 C 160.177 56.000,159.536 56.180,159.400 56.400 C 159.264 56.620,158.724 56.800,158.200 56.800 C 157.676 56.800,157.136 56.980,157.000 57.200 C 156.864 57.420,156.223 57.600,155.576 57.600 C 154.929 57.600,154.400 57.757,154.400 57.948 C 154.400 58.140,153.501 58.416,152.403 58.562 C 151.305 58.707,150.185 59.063,149.915 59.353 C 149.645 59.642,149.133 59.803,148.777 59.710 C 148.421 59.617,147.465 59.914,146.653 60.370 C 145.840 60.827,144.945 61.200,144.663 61.200 C 144.381 61.200,143.405 61.560,142.494 62.000 C 141.584 62.440,140.549 62.800,140.196 62.800 C 139.842 62.800,139.652 62.961,139.773 63.157 C 139.895 63.353,139.185 63.752,138.197 64.044 C 137.209 64.336,136.400 64.715,136.400 64.887 C 136.400 65.059,136.040 65.200,135.600 65.200 C 135.160 65.200,134.799 65.335,134.797 65.500 C 134.793 65.859,132.856 66.800,132.120 66.800 C 131.834 66.800,131.600 66.980,131.600 67.200 C 131.600 67.420,131.229 67.600,130.776 67.600 C 130.323 67.600,130.064 67.780,130.200 68.000 C 130.336 68.220,130.212 68.400,129.924 68.399 C 129.140 68.397,125.893 70.100,125.153 70.900 C 124.797 71.285,124.212 71.600,123.853 71.600 C 123.494 71.600,123.200 71.750,123.200 71.932 C 123.200 72.115,122.705 72.520,122.100 72.832 C 121.495 73.144,120.910 73.489,120.800 73.599 C 120.426 73.975,117.403 75.650,116.700 75.872 C 116.315 75.994,116.000 76.252,116.000 76.447 C 116.000 76.641,115.736 76.800,115.414 76.800 C 115.092 76.800,114.635 77.160,114.400 77.600 C 114.165 78.040,113.708 78.400,113.386 78.400 C 113.064 78.400,112.800 78.580,112.800 78.800 C 112.800 79.020,112.545 79.200,112.234 79.200 C 111.923 79.200,111.158 79.740,110.535 80.400 C 109.912 81.060,109.243 81.600,109.048 81.600 C 108.853 81.600,108.403 81.916,108.047 82.303 C 107.691 82.689,106.911 83.256,106.314 83.563 C 105.716 83.870,105.322 84.273,105.437 84.460 C 105.553 84.647,105.494 84.800,105.308 84.800 C 105.121 84.800,104.172 85.520,103.200 86.400 C 102.228 87.280,101.291 88.000,101.118 88.000 C 100.700 88.000,88.144 100.488,88.047 101.000 C 87.965 101.437,85.023 104.951,83.900 105.953 C 83.515 106.297,83.200 106.768,83.200 107.001 C 83.200 107.233,82.840 107.683,82.400 108.000 C 81.960 108.317,81.598 108.762,81.596 108.988 C 81.593 109.215,80.960 110.014,80.187 110.765 C 79.415 111.515,78.676 112.555,78.545 113.075 C 78.415 113.595,77.964 114.205,77.543 114.431 C 77.122 114.656,76.884 115.012,77.014 115.223 C 77.144 115.433,76.976 115.711,76.641 115.840 C 76.055 116.065,75.356 117.476,75.521 118.100 C 75.564 118.265,75.420 118.400,75.200 118.400 C 74.980 118.400,74.800 118.670,74.800 119.000 C 74.800 119.330,74.620 119.600,74.400 119.600 C 74.180 119.600,74.000 119.830,74.000 120.112 C 74.000 120.393,73.640 120.883,73.200 121.200 C 72.760 121.517,72.400 122.009,72.400 122.294 C 72.400 123.006,71.553 124.450,70.639 125.296 C 70.220 125.683,70.023 126.000,70.201 126.000 C 70.379 126.000,70.252 126.315,69.920 126.700 C 69.588 127.085,69.066 127.985,68.761 128.700 C 68.455 129.415,68.069 130.000,67.902 130.000 C 67.736 130.000,67.600 130.360,67.600 130.800 C 67.600 131.240,67.420 131.600,67.200 131.600 C 66.980 131.600,66.800 131.960,66.800 132.400 C 66.800 132.840,66.620 133.200,66.400 133.200 C 66.180 133.200,66.000 133.560,66.000 134.000 C 66.000 134.440,65.820 134.800,65.600 134.800 C 65.380 134.800,65.200 135.160,65.200 135.600 C 65.200 136.040,65.020 136.400,64.800 136.400 C 64.580 136.400,64.400 136.760,64.400 137.200 C 64.400 137.640,64.220 138.000,64.000 138.000 C 63.780 138.000,63.600 138.461,63.600 139.024 C 63.600 139.604,63.427 139.940,63.200 139.800 C 62.980 139.664,62.800 139.809,62.800 140.123 C 62.800 140.664,61.768 143.476,60.538 146.286 C 59.596 148.440,58.400 152.448,58.400 153.452 C 58.400 153.973,58.220 154.400,58.000 154.400 C 57.780 154.400,57.600 154.940,57.600 155.600 C 57.600 156.260,57.420 156.800,57.200 156.800 C 56.980 156.800,56.800 157.329,56.800 157.976 C 56.800 158.623,56.620 159.264,56.400 159.400 C 56.180 159.536,56.000 160.177,56.000 160.824 C 56.000 161.471,55.820 162.000,55.600 162.000 C 55.380 162.000,55.221 162.135,55.247 162.300 C 55.445 163.552,55.132 166.005,54.800 165.800 C 54.559 165.651,54.400 166.188,54.400 167.153 C 54.400 168.033,54.220 168.864,54.000 169.000 C 53.780 169.136,53.600 170.137,53.600 171.224 C 53.600 172.311,53.420 173.200,53.200 173.200 C 52.980 173.200,52.800 174.179,52.800 175.376 C 52.800 176.573,52.620 177.664,52.400 177.800 C 52.180 177.936,52.000 179.387,52.000 181.024 C 52.000 182.661,51.828 184.000,51.618 184.000 C 51.294 184.000,50.854 193.220,50.854 200.000 C 50.854 206.780,51.294 216.000,51.618 216.000 C 51.828 216.000,52.000 217.260,52.000 218.800 C 52.000 220.400,52.171 221.600,52.400 221.600 C 52.620 221.600,52.779 221.735,52.753 221.900 C 52.536 223.271,52.872 226.802,53.200 226.600 C 53.448 226.447,53.600 227.188,53.600 228.553 C 53.600 229.763,53.780 230.864,54.000 231.000 C 54.220 231.136,54.400 231.946,54.400 232.800 C 54.400 233.654,54.580 234.464,54.800 234.600 C 55.020 234.736,55.200 235.557,55.200 236.424 C 55.200 237.291,55.380 238.000,55.600 238.000 C 55.820 238.000,56.000 238.529,56.000 239.176 C 56.000 239.823,56.180 240.464,56.400 240.600 C 56.620 240.736,56.800 241.377,56.800 242.024 C 56.800 242.671,56.980 243.200,57.200 243.200 C 57.420 243.200,57.600 243.740,57.600 244.400 C 57.600 245.060,57.757 245.600,57.948 245.600 C 58.140 245.600,58.415 246.492,58.560 247.583 C 58.705 248.674,59.057 249.800,59.344 250.087 C 59.630 250.373,59.794 250.817,59.709 251.074 C 59.623 251.331,59.924 252.308,60.376 253.246 C 60.829 254.183,61.200 255.153,61.200 255.400 C 61.200 255.647,61.560 256.595,62.000 257.506 C 62.440 258.416,62.800 259.451,62.800 259.804 C 62.800 260.158,62.980 260.336,63.200 260.200 C 63.427 260.060,63.600 260.396,63.600 260.976 C 63.600 261.539,63.780 262.000,64.000 262.000 C 64.220 262.000,64.400 262.360,64.400 262.800 C 64.400 263.240,64.580 263.600,64.800 263.600 C 65.020 263.600,65.200 263.960,65.200 264.400 C 65.200 264.840,65.335 265.201,65.500 265.203 C 65.859 265.207,66.800 267.144,66.800 267.880 C 66.800 268.166,66.980 268.400,67.200 268.400 C 67.420 268.400,67.600 268.760,67.600 269.200 C 67.600 269.640,67.736 270.000,67.902 270.000 C 68.069 270.000,68.455 270.585,68.761 271.300 C 69.066 272.015,69.588 272.915,69.920 273.300 C 70.252 273.685,70.379 274.000,70.201 274.000 C 70.023 274.000,70.265 274.336,70.739 274.747 C 71.212 275.158,71.600 275.788,71.600 276.147 C 71.600 276.506,71.780 276.800,72.000 276.800 C 72.220 276.800,72.400 277.120,72.400 277.512 C 72.400 277.903,72.760 278.483,73.200 278.800 C 73.640 279.117,74.000 279.631,74.000 279.941 C 74.000 280.252,74.372 280.829,74.826 281.223 C 75.281 281.617,75.614 281.998,75.568 282.070 C 75.366 282.379,76.088 284.000,76.427 284.000 C 76.632 284.000,76.800 284.236,76.800 284.525 C 76.800 284.813,77.115 285.398,77.500 285.825 C 77.885 286.251,78.644 287.261,79.187 288.070 C 79.730 288.878,80.288 289.469,80.427 289.383 C 80.566 289.298,80.932 289.716,81.240 290.314 C 81.548 290.911,82.160 291.796,82.600 292.281 C 83.983 293.804,84.439 294.400,84.218 294.400 C 84.100 294.400,84.903 295.318,86.002 296.441 C 87.101 297.563,88.000 298.733,88.000 299.041 C 88.000 299.348,88.300 299.600,88.667 299.600 C 89.033 299.600,89.230 299.703,89.105 299.829 C 88.835 300.098,95.506 306.995,97.755 308.772 C 98.610 309.447,99.188 310.000,99.039 310.000 C 98.890 310.000,99.001 310.251,99.284 310.558 C 99.568 310.865,99.935 311.034,100.100 310.934 C 100.265 310.835,100.400 311.033,100.400 311.376 C 100.400 311.719,100.646 312.000,100.946 312.000 C 101.247 312.000,102.523 312.990,103.782 314.200 C 105.042 315.410,106.228 316.400,106.418 316.400 C 106.608 316.400,107.177 316.805,107.682 317.300 C 108.187 317.795,109.089 318.452,109.686 318.760 C 110.284 319.068,110.678 319.473,110.563 319.660 C 110.447 319.847,110.588 320.005,110.876 320.011 C 111.164 320.018,112.203 320.738,113.186 321.611 C 114.168 322.485,115.203 323.200,115.486 323.200 C 115.768 323.200,116.000 323.353,116.000 323.539 C 116.000 323.726,116.720 324.203,117.600 324.600 C 118.480 324.997,119.200 325.474,119.200 325.661 C 119.200 325.847,119.520 326.000,119.912 326.000 C 120.303 326.000,120.883 326.360,121.200 326.800 C 121.517 327.240,122.097 327.600,122.488 327.600 C 122.880 327.600,123.200 327.780,123.200 328.000 C 123.200 328.220,123.494 328.400,123.853 328.400 C 124.212 328.400,124.797 328.729,125.153 329.130 C 125.509 329.532,126.385 330.116,127.100 330.428 C 127.815 330.740,128.400 331.131,128.400 331.298 C 128.400 331.464,128.760 331.600,129.200 331.600 C 129.640 331.600,130.000 331.780,130.000 332.000 C 130.000 332.220,130.360 332.400,130.800 332.400 C 131.240 332.400,131.600 332.580,131.600 332.800 C 131.600 333.020,131.960 333.200,132.400 333.200 C 132.840 333.200,133.200 333.380,133.200 333.600 C 133.200 333.820,133.560 334.000,134.000 334.000 C 134.440 334.000,134.800 334.180,134.800 334.400 C 134.800 334.620,135.160 334.800,135.600 334.800 C 136.040 334.800,136.400 334.980,136.400 335.200 C 136.400 335.420,136.760 335.600,137.200 335.600 C 137.640 335.600,138.000 335.780,138.000 336.000 C 138.000 336.220,138.360 336.400,138.800 336.400 C 139.240 336.400,139.600 336.550,139.600 336.733 C 139.600 336.917,139.825 337.068,140.100 337.071 C 140.375 337.073,141.399 337.463,142.375 337.937 C 143.351 338.412,144.353 338.800,144.600 338.800 C 144.847 338.800,145.817 339.171,146.754 339.624 C 147.692 340.076,148.669 340.377,148.926 340.291 C 149.183 340.206,149.638 340.381,149.939 340.681 C 150.239 340.982,150.825 341.119,151.242 340.987 C 151.663 340.853,152.000 340.936,152.000 341.173 C 152.000 341.408,152.540 341.600,153.200 341.600 C 153.860 341.600,154.400 341.780,154.400 342.000 C 154.400 342.220,154.940 342.400,155.600 342.400 C 156.260 342.400,156.800 342.580,156.800 342.800 C 156.800 343.020,157.329 343.200,157.976 343.200 C 158.623 343.200,159.264 343.380,159.400 343.600 C 159.536 343.820,160.177 344.000,160.824 344.000 C 161.471 344.000,162.000 344.180,162.000 344.400 C 162.000 344.620,162.709 344.800,163.576 344.800 C 164.443 344.800,165.264 344.980,165.400 345.200 C 165.536 345.420,166.436 345.600,167.400 345.600 C 168.364 345.600,169.264 345.780,169.400 346.000 C 169.536 346.220,170.547 346.400,171.647 346.400 C 172.879 346.400,173.552 346.554,173.400 346.800 C 173.245 347.051,174.129 347.200,175.776 347.200 C 177.259 347.200,178.400 347.374,178.400 347.600 C 178.400 347.831,179.675 348.000,181.424 348.000 C 183.087 348.000,184.350 348.158,184.231 348.350 C 184.110 348.545,187.169 348.732,191.107 348.772 C 195.008 348.811,198.371 349.013,198.580 349.222 C 199.074 349.714,200.930 349.710,201.424 349.216 C 201.637 349.003,204.973 348.809,208.907 348.782 C 213.090 348.753,215.913 348.582,215.779 348.366 C 215.649 348.156,216.917 348.000,218.753 348.000 C 220.513 348.000,222.064 347.820,222.200 347.600 C 222.336 347.380,223.437 347.200,224.647 347.200 C 226.012 347.200,226.753 347.048,226.600 346.800 C 226.448 346.554,227.121 346.400,228.353 346.400 C 229.453 346.400,230.464 346.220,230.600 346.000 C 230.736 345.780,231.647 345.600,232.624 345.600 C 233.601 345.600,234.400 345.420,234.400 345.200 C 234.400 344.980,235.210 344.800,236.200 344.800 C 237.190 344.800,238.000 344.620,238.000 344.400 C 238.000 344.180,238.630 344.000,239.400 344.000 C 240.170 344.000,240.800 343.820,240.800 343.600 C 240.800 343.380,241.239 343.200,241.776 343.200 C 242.313 343.200,242.864 343.020,243.000 342.800 C 243.136 342.580,243.777 342.400,244.424 342.400 C 245.071 342.400,245.600 342.243,245.600 342.052 C 245.600 341.860,246.492 341.585,247.583 341.440 C 248.674 341.295,249.842 340.901,250.180 340.563 C 250.518 340.225,250.970 340.058,251.185 340.191 C 251.400 340.324,252.122 340.151,252.788 339.806 C 253.455 339.461,254.000 339.278,254.000 339.399 C 254.000 339.520,254.405 339.353,254.900 339.029 C 255.395 338.704,255.936 338.432,256.102 338.424 C 256.268 338.416,257.055 338.137,257.851 337.805 C 258.647 337.472,259.556 337.200,259.872 337.200 C 260.189 337.200,260.336 337.020,260.200 336.800 C 260.060 336.573,260.396 336.400,260.976 336.400 C 261.539 336.400,262.000 336.220,262.000 336.000 C 262.000 335.780,262.360 335.600,262.800 335.600 C 263.240 335.600,263.600 335.420,263.600 335.200 C 263.600 334.980,263.960 334.800,264.400 334.800 C 264.840 334.800,265.200 334.620,265.200 334.400 C 265.200 334.180,265.560 334.000,266.000 334.000 C 266.440 334.000,266.800 333.820,266.800 333.600 C 266.800 333.380,267.160 333.200,267.600 333.200 C 268.040 333.200,268.400 333.020,268.400 332.800 C 268.400 332.580,268.760 332.400,269.200 332.400 C 269.640 332.400,270.000 332.220,270.000 332.000 C 270.000 331.780,270.360 331.600,270.800 331.600 C 271.240 331.600,271.600 331.464,271.600 331.298 C 271.600 331.131,272.185 330.740,272.900 330.428 C 273.615 330.116,274.470 329.577,274.800 329.230 C 275.565 328.427,278.000 327.063,278.000 327.439 C 278.000 327.595,278.336 327.335,278.747 326.861 C 279.158 326.388,279.722 326.000,280.000 326.000 C 280.278 326.000,280.842 325.612,281.253 325.139 C 281.664 324.665,282.000 324.401,282.000 324.553 C 282.000 324.969,283.753 323.962,284.125 323.333 C 284.303 323.031,284.600 322.876,284.784 322.990 C 284.968 323.104,285.542 322.751,286.059 322.205 C 286.577 321.660,287.182 321.211,287.404 321.207 C 287.626 321.203,288.293 320.750,288.887 320.200 C 289.480 319.650,290.081 319.200,290.222 319.200 C 290.363 319.200,290.983 318.660,291.600 318.000 C 292.217 317.340,292.859 316.800,293.027 316.800 C 293.195 316.800,293.618 316.528,293.966 316.195 C 296.994 313.306,298.987 311.668,299.266 311.841 C 299.450 311.954,299.600 311.737,299.600 311.357 C 299.600 310.977,299.714 310.781,299.854 310.921 C 300.186 311.252,309.600 301.836,309.600 301.173 C 309.600 300.895,309.709 300.776,309.842 300.909 C 310.124 301.191,312.000 299.415,312.000 298.866 C 312.000 298.663,312.720 297.755,313.600 296.848 C 314.480 295.941,315.200 295.009,315.200 294.776 C 315.200 294.543,315.367 294.456,315.571 294.582 C 315.775 294.708,316.060 294.440,316.204 293.986 C 316.349 293.532,317.088 292.539,317.847 291.780 C 318.606 291.021,319.106 290.400,318.959 290.400 C 318.811 290.400,319.165 289.925,319.745 289.345 C 320.325 288.765,320.800 288.085,320.800 287.834 C 320.800 287.582,321.160 287.117,321.600 286.800 C 322.040 286.483,322.400 285.993,322.400 285.712 C 322.400 285.430,322.591 285.200,322.824 285.200 C 323.057 285.200,323.143 285.031,323.015 284.825 C 322.888 284.618,323.026 284.303,323.322 284.125 C 323.830 283.818,324.268 283.007,324.323 282.270 C 324.336 282.088,324.719 281.617,325.174 281.223 C 325.628 280.829,326.000 280.252,326.000 279.941 C 326.000 279.631,326.360 279.117,326.800 278.800 C 327.240 278.483,327.600 277.991,327.600 277.706 C 327.600 277.042,328.422 275.580,329.230 274.804 C 329.577 274.472,330.116 273.615,330.428 272.900 C 330.740 272.185,331.131 271.600,331.298 271.600 C 331.464 271.600,331.600 271.240,331.600 270.800 C 331.600 270.360,331.780 270.000,332.000 270.000 C 332.220 270.000,332.400 269.640,332.400 269.200 C 332.400 268.760,332.580 268.400,332.800 268.400 C 333.020 268.400,333.200 268.166,333.200 267.880 C 333.200 267.144,334.141 265.207,334.500 265.203 C 334.665 265.201,334.800 264.840,334.800 264.400 C 334.800 263.960,334.980 263.600,335.200 263.600 C 335.420 263.600,335.600 263.240,335.600 262.800 C 335.600 262.360,335.780 262.000,336.000 262.000 C 336.220 262.000,336.400 261.640,336.400 261.200 C 336.400 260.760,336.610 260.400,336.867 260.400 C 337.123 260.400,337.229 260.296,337.102 260.169 C 336.975 260.042,337.276 259.007,337.770 257.869 C 339.289 254.373,339.353 254.212,339.396 253.800 C 339.418 253.580,339.662 252.991,339.937 252.492 C 340.212 251.992,340.327 251.406,340.193 251.189 C 340.059 250.972,340.244 250.498,340.606 250.137 C 340.967 249.776,341.175 249.148,341.069 248.741 C 340.962 248.334,341.038 247.900,341.238 247.777 C 341.437 247.654,341.600 247.113,341.600 246.576 C 341.600 246.039,341.780 245.600,342.000 245.600 C 342.220 245.600,342.400 245.060,342.400 244.400 C 342.400 243.740,342.580 243.200,342.800 243.200 C 343.020 243.200,343.200 242.671,343.200 242.024 C 343.200 241.377,343.380 240.736,343.600 240.600 C 343.820 240.464,344.000 239.823,344.000 239.176 C 344.000 238.529,344.180 238.000,344.400 238.000 C 344.620 238.000,344.800 237.316,344.800 236.480 C 344.800 235.644,344.962 234.789,345.159 234.580 C 345.505 234.214,345.780 232.737,346.254 228.700 C 346.377 227.655,346.640 226.800,346.839 226.800 C 347.037 226.800,347.200 225.821,347.200 224.624 C 347.200 223.427,347.380 222.336,347.600 222.200 C 347.820 222.064,348.000 220.513,348.000 218.753 C 348.000 216.917,348.156 215.649,348.366 215.779 C 348.582 215.913,348.753 213.093,348.782 208.917 C 348.817 203.853,348.969 201.738,349.316 201.514 C 349.687 201.273,349.673 201.118,349.255 200.848 C 348.794 200.552,348.794 200.463,349.255 200.279 C 349.715 200.095,349.715 200.001,349.255 199.679 C 348.794 199.356,348.794 199.258,349.255 199.048 C 349.677 198.856,349.687 198.747,349.300 198.567 C 348.927 198.393,348.800 196.509,348.800 191.167 C 348.800 186.656,348.652 184.000,348.400 184.000 C 348.169 184.000,348.000 182.741,348.000 181.024 C 348.000 179.387,347.820 177.936,347.600 177.800 C 347.380 177.664,347.200 176.573,347.200 175.376 C 347.200 174.179,347.020 173.200,346.800 173.200 C 346.580 173.200,346.400 172.311,346.400 171.224 C 346.400 170.137,346.220 169.136,346.000 169.000 C 345.780 168.864,345.600 168.043,345.600 167.176 C 345.600 166.309,345.420 165.600,345.200 165.600 C 344.980 165.600,344.800 164.790,344.800 163.800 C 344.800 162.810,344.620 162.000,344.400 162.000 C 344.180 162.000,344.000 161.471,344.000 160.824 C 344.000 160.177,343.820 159.536,343.600 159.400 C 343.380 159.264,343.200 158.623,343.200 157.976 C 343.200 157.329,343.020 156.800,342.800 156.800 C 342.580 156.800,342.400 156.260,342.400 155.600 C 342.400 154.940,342.243 154.400,342.052 154.400 C 341.860 154.400,341.585 153.508,341.440 152.417 C 341.295 151.326,340.943 150.200,340.656 149.913 C 340.370 149.627,340.207 149.179,340.294 148.919 C 340.381 148.658,340.224 148.029,339.944 147.522 C 339.665 147.015,339.428 146.420,339.417 146.200 C 339.405 145.980,339.142 145.350,338.831 144.800 C 338.519 144.250,338.297 143.754,338.337 143.698 C 338.377 143.642,338.137 142.945,337.805 142.149 C 337.472 141.353,337.200 140.454,337.200 140.151 C 337.200 139.848,337.020 139.600,336.800 139.600 C 336.580 139.600,336.400 139.240,336.400 138.800 C 336.400 138.360,336.220 138.000,336.000 138.000 C 335.780 138.000,335.600 137.640,335.600 137.200 C 335.600 136.760,335.420 136.400,335.200 136.400 C 334.980 136.400,334.800 136.040,334.800 135.600 C 334.800 135.160,334.620 134.800,334.400 134.800 C 334.180 134.800,334.000 134.440,334.000 134.000 C 334.000 133.560,333.820 133.200,333.600 133.200 C 333.380 133.200,333.200 132.840,333.200 132.400 C 333.200 131.960,333.020 131.600,332.800 131.600 C 332.580 131.600,332.400 131.255,332.400 130.833 C 332.400 130.412,332.265 130.007,332.100 129.933 C 331.935 129.860,331.353 128.900,330.807 127.800 C 330.261 126.700,329.496 125.509,329.107 125.153 C 328.718 124.797,328.400 124.295,328.400 124.036 C 328.400 123.778,328.040 123.180,327.600 122.708 C 327.160 122.236,326.800 121.613,326.800 121.325 C 326.800 121.036,326.620 120.800,326.400 120.800 C 326.180 120.800,326.000 120.564,326.000 120.275 C 326.000 119.987,325.633 119.357,325.184 118.875 C 324.736 118.394,324.472 118.000,324.598 118.000 C 324.981 118.000,323.923 116.223,323.333 115.875 C 323.031 115.697,322.888 115.382,323.015 115.175 C 323.143 114.969,323.057 114.800,322.824 114.800 C 322.591 114.800,322.400 114.530,322.400 114.200 C 322.400 113.870,322.265 113.595,322.100 113.589 C 321.935 113.583,321.364 112.872,320.831 112.008 C 320.299 111.144,319.714 110.530,319.531 110.642 C 319.349 110.755,319.200 110.549,319.200 110.184 C 319.200 109.819,318.660 109.017,318.000 108.400 C 317.340 107.783,316.800 107.090,316.800 106.859 C 316.800 106.629,316.485 106.256,316.100 106.032 C 315.715 105.808,315.534 105.619,315.698 105.612 C 315.862 105.605,315.097 104.682,313.998 103.559 C 312.899 102.437,312.000 101.267,312.000 100.959 C 312.000 100.652,311.719 100.400,311.376 100.400 C 311.033 100.400,310.835 100.265,310.934 100.100 C 311.034 99.935,310.865 99.568,310.558 99.284 C 310.251 99.001,310.000 98.878,310.000 99.013 C 310.000 99.147,309.730 98.987,309.400 98.657 C 309.070 98.327,308.799 97.909,308.798 97.729 C 308.794 97.193,301.729 90.400,301.175 90.400 C 300.895 90.400,300.776 90.291,300.909 90.158 C 301.191 89.876,299.415 88.000,298.866 88.000 C 298.663 88.000,297.755 87.280,296.848 86.400 C 295.941 85.520,295.063 84.800,294.896 84.800 C 294.729 84.800,294.368 84.440,294.093 84.000 C 293.818 83.560,293.413 83.200,293.193 83.200 C 292.973 83.200,292.228 82.660,291.537 82.000 C 290.846 81.340,290.008 80.800,289.674 80.800 C 289.340 80.800,289.181 80.686,289.320 80.547 C 289.639 80.227,288.091 79.001,286.894 78.626 C 286.396 78.470,286.082 78.191,286.196 78.006 C 286.311 77.821,285.864 77.430,285.202 77.137 C 284.541 76.844,284.000 76.496,284.000 76.363 C 284.000 76.230,283.280 75.797,282.400 75.400 C 281.520 75.003,280.800 74.526,280.800 74.339 C 280.800 74.153,280.480 74.000,280.088 74.000 C 279.697 74.000,279.117 73.640,278.800 73.200 C 278.483 72.760,277.903 72.400,277.512 72.400 C 277.120 72.400,276.800 72.220,276.800 72.000 C 276.800 71.780,276.506 71.600,276.147 71.600 C 275.788 71.600,275.203 71.282,274.847 70.893 C 274.491 70.504,273.300 69.739,272.200 69.193 C 271.100 68.647,270.140 68.065,270.067 67.900 C 269.993 67.735,269.588 67.600,269.167 67.600 C 268.745 67.600,268.400 67.420,268.400 67.200 C 268.400 66.980,268.040 66.800,267.600 66.800 C 267.160 66.800,266.800 66.620,266.800 66.400 C 266.800 66.180,266.440 66.000,266.000 66.000 C 265.560 66.000,265.200 65.820,265.200 65.600 C 265.200 65.380,264.851 65.200,264.424 65.200 C 263.997 65.200,263.536 65.020,263.400 64.800 C 263.264 64.580,262.793 64.400,262.353 64.400 C 261.913 64.400,261.664 64.220,261.800 64.000 C 261.941 63.772,261.596 63.600,261.000 63.600 C 260.404 63.600,260.059 63.428,260.200 63.200 C 260.336 62.980,260.165 62.800,259.819 62.800 C 259.474 62.800,258.428 62.459,257.496 62.043 C 255.779 61.277,254.556 60.824,254.192 60.819 C 254.082 60.817,253.441 60.532,252.769 60.184 C 252.096 59.836,251.335 59.622,251.076 59.708 C 250.818 59.794,250.373 59.630,250.087 59.344 C 249.800 59.057,248.674 58.705,247.583 58.560 C 246.492 58.415,245.600 58.140,245.600 57.948 C 245.600 57.757,245.060 57.600,244.400 57.600 C 243.740 57.600,243.200 57.420,243.200 57.200 C 243.200 56.980,242.660 56.800,242.000 56.800 C 241.340 56.800,240.800 56.620,240.800 56.400 C 240.800 56.180,240.170 56.000,239.400 56.000 C 238.630 56.000,238.000 55.820,238.000 55.600 C 238.000 55.380,237.089 55.200,235.976 55.200 C 234.729 55.200,234.048 55.047,234.200 54.800 C 234.349 54.559,233.812 54.400,232.847 54.400 C 231.967 54.400,231.136 54.220,231.000 54.000 C 230.864 53.780,229.863 53.600,228.776 53.600 C 227.689 53.600,226.800 53.420,226.800 53.200 C 226.800 52.980,225.821 52.800,224.624 52.800 C 223.427 52.800,222.336 52.620,222.200 52.400 C 222.064 52.180,220.613 52.000,218.976 52.000 C 217.259 52.000,216.000 51.831,216.000 51.600 C 216.000 51.348,213.356 51.200,208.867 51.200 C 204.943 51.200,201.600 51.067,201.438 50.904 C 201.017 50.483,198.818 50.447,198.565 50.857 M211.800 109.949 C 215.643 110.519,218.844 111.075,219.800 111.340 C 220.240 111.462,221.848 111.857,223.373 112.218 C 227.870 113.282,233.154 115.198,237.779 117.440 C 238.867 117.968,239.977 118.400,240.245 118.400 C 240.514 118.400,240.793 118.535,240.867 118.700 C 240.940 118.865,241.900 119.443,243.000 119.984 C 244.100 120.526,245.752 121.471,246.672 122.084 C 247.592 122.698,248.454 123.200,248.589 123.200 C 248.723 123.200,249.220 123.560,249.692 124.000 C 250.164 124.440,250.787 124.800,251.075 124.800 C 251.364 124.800,251.600 124.941,251.600 125.114 C 251.600 125.286,252.133 125.743,252.785 126.128 C 253.437 126.513,254.202 127.054,254.485 127.330 C 254.768 127.607,255.394 128.105,255.876 128.437 C 259.880 131.200,267.590 138.923,271.213 143.800 C 272.193 145.120,273.101 146.290,273.230 146.400 C 273.748 146.842,277.600 152.790,277.600 153.149 C 277.600 153.360,277.735 153.593,277.900 153.667 C 278.504 153.935,282.246 161.386,284.032 165.877 C 298.697 202.755,287.124 247.084,256.800 270.182 C 255.370 271.271,254.110 272.275,254.000 272.411 C 253.572 272.943,248.821 276.000,248.422 276.000 C 248.190 276.000,248.000 276.152,248.000 276.337 C 248.000 276.523,247.145 277.105,246.100 277.632 C 245.055 278.158,244.110 278.691,244.000 278.814 C 243.788 279.053,235.556 283.084,234.200 283.613 C 228.154 285.973,223.328 287.390,217.800 288.429 C 211.970 289.524,209.013 289.743,200.000 289.743 C 189.820 289.743,186.486 289.419,178.256 287.630 C 176.406 287.228,167.495 284.378,165.800 283.647 C 163.919 282.835,156.183 279.020,156.000 278.814 C 155.890 278.691,154.945 278.158,153.900 277.632 C 152.855 277.105,152.000 276.523,152.000 276.337 C 152.000 276.152,151.807 276.000,151.572 276.000 C 151.065 276.000,147.459 273.591,147.267 273.123 C 147.193 272.945,146.893 272.800,146.600 272.800 C 146.307 272.800,146.007 272.664,145.933 272.497 C 145.860 272.330,144.990 271.566,144.000 270.799 C 138.571 266.591,131.757 259.663,127.874 254.400 C 126.819 252.970,125.695 251.483,125.378 251.095 C 125.060 250.708,124.800 250.290,124.800 250.167 C 124.800 250.045,124.282 249.192,123.650 248.272 C 106.754 223.709,104.894 186.756,119.147 158.824 C 120.108 156.941,121.098 154.996,121.347 154.503 C 121.596 154.010,121.935 153.605,122.100 153.603 C 122.265 153.601,122.400 153.413,122.400 153.185 C 122.400 152.797,127.040 145.639,127.577 145.200 C 127.711 145.090,128.443 144.190,129.204 143.200 C 132.586 138.799,138.744 132.644,143.200 129.208 C 144.190 128.445,145.090 127.714,145.200 127.584 C 145.310 127.454,146.300 126.740,147.400 125.997 C 148.500 125.254,149.460 124.501,149.533 124.323 C 149.607 124.145,149.922 124.000,150.233 124.000 C 150.545 124.000,150.800 123.820,150.800 123.600 C 150.800 123.380,150.993 123.200,151.228 123.200 C 151.463 123.200,152.408 122.689,153.328 122.065 C 154.248 121.441,155.585 120.677,156.300 120.368 C 157.015 120.058,157.600 119.669,157.600 119.502 C 157.600 119.336,157.915 119.196,158.300 119.191 C 158.685 119.186,159.450 118.830,160.000 118.400 C 160.550 117.970,161.220 117.614,161.488 117.609 C 161.756 117.604,162.613 117.242,163.393 116.804 C 165.806 115.448,174.752 112.469,179.200 111.539 C 183.928 110.551,185.218 110.335,188.095 110.050 C 189.798 109.881,191.322 109.611,191.483 109.451 C 191.893 109.040,208.405 109.445,211.800 109.949 M222.000 134.833 C 198.533 140.816,191.290 172.155,209.988 186.803 C 210.969 187.571,212.127 188.515,212.562 188.900 C 212.996 189.285,213.572 189.600,213.842 189.600 C 214.112 189.600,214.393 189.735,214.467 189.900 C 214.685 190.391,218.016 192.000,218.814 192.000 C 219.220 192.000,219.664 192.180,219.800 192.400 C 219.936 192.620,220.541 192.800,221.144 192.800 C 221.747 192.800,222.446 193.006,222.699 193.259 C 223.334 193.894,235.466 193.894,236.101 193.259 C 236.354 193.006,237.053 192.800,237.656 192.800 C 238.259 192.800,238.864 192.620,239.000 192.400 C 239.136 192.180,239.687 192.000,240.224 192.000 C 240.761 192.000,241.200 191.820,241.200 191.600 C 241.200 191.380,241.560 191.200,242.000 191.200 C 242.440 191.200,242.800 191.020,242.800 190.800 C 242.800 190.580,243.160 190.400,243.600 190.400 C 244.040 190.400,244.400 190.220,244.400 190.000 C 244.400 189.780,244.625 189.597,244.900 189.593 C 247.627 189.553,257.600 177.295,257.600 173.983 C 257.600 173.578,257.780 173.136,258.000 173.000 C 258.220 172.864,258.400 172.234,258.400 171.600 C 258.400 170.966,258.580 170.336,258.800 170.200 C 259.038 170.053,259.200 167.537,259.200 164.000 C 259.200 160.463,259.038 157.947,258.800 157.800 C 258.580 157.664,258.400 156.933,258.400 156.176 C 258.400 155.419,258.220 154.800,258.000 154.800 C 257.780 154.800,257.600 154.361,257.600 153.824 C 257.600 153.287,257.420 152.736,257.200 152.600 C 256.980 152.464,256.800 152.003,256.800 151.576 C 256.800 151.149,256.654 150.800,256.475 150.800 C 256.296 150.800,255.902 150.170,255.600 149.400 C 255.298 148.630,254.904 148.000,254.725 148.000 C 254.546 148.000,254.400 147.746,254.400 147.435 C 254.400 146.542,248.870 140.877,246.283 139.121 C 239.344 134.408,230.081 132.773,222.000 134.833 M154.600 222.400 C 154.464 222.620,154.020 222.800,153.614 222.800 C 151.450 222.800,145.803 227.043,144.432 229.700 C 144.120 230.305,143.715 230.800,143.532 230.800 C 143.350 230.800,143.200 231.160,143.200 231.600 C 143.200 232.040,143.020 232.400,142.800 232.400 C 142.580 232.400,142.400 232.814,142.400 233.320 C 142.400 233.826,142.201 234.439,141.957 234.683 C 141.402 235.238,141.372 243.996,141.922 245.051 C 142.137 245.463,142.703 246.620,143.179 247.623 C 144.773 250.972,150.159 256.000,152.154 256.000 C 152.484 256.000,152.864 256.180,153.000 256.400 C 153.136 256.620,153.766 256.800,154.400 256.800 C 155.034 256.800,155.664 256.980,155.800 257.200 C 155.936 257.420,157.376 257.600,159.000 257.600 C 160.624 257.600,162.064 257.420,162.200 257.200 C 162.336 256.980,162.889 256.800,163.429 256.800 C 163.969 256.800,164.723 256.632,165.105 256.426 C 165.487 256.221,166.385 255.817,167.100 255.529 C 167.815 255.240,168.400 254.869,168.400 254.702 C 168.400 254.536,168.626 254.400,168.902 254.400 C 169.746 254.400,174.000 250.056,174.000 249.195 C 174.000 248.978,174.136 248.800,174.302 248.800 C 174.469 248.800,174.844 248.215,175.136 247.500 C 175.428 246.785,175.818 245.840,176.002 245.400 C 177.083 242.815,177.093 236.894,176.020 234.200 C 174.529 230.457,170.595 225.200,169.285 225.200 C 169.055 225.200,168.807 225.065,168.733 224.900 C 168.515 224.409,165.184 222.800,164.386 222.800 C 163.980 222.800,163.536 222.620,163.400 222.400 C 163.261 222.175,161.337 222.000,159.000 222.000 C 156.663 222.000,154.739 222.175,154.600 222.400 " stroke="none" fill="#fbebab" fill-rule="evenodd"></path><path id="path3" d="M194.800 109.569 C 193.370 109.696,195.710 109.803,200.000 109.807 C 204.765 109.812,206.788 109.713,205.200 109.554 C 202.118 109.245,198.385 109.251,194.800 109.569 M186.600 110.402 C 185.919 110.576,186.785 110.618,188.600 110.498 C 190.360 110.383,191.875 110.223,191.967 110.144 C 192.275 109.877,187.812 110.091,186.600 110.402 M208.033 110.144 C 208.125 110.224,209.550 110.389,211.200 110.511 C 212.976 110.642,213.792 110.599,213.200 110.406 C 212.223 110.087,207.703 109.858,208.033 110.144 M182.200 111.210 C 181.666 111.447,181.998 111.486,183.200 111.327 C 184.190 111.196,185.075 111.024,185.167 110.944 C 185.514 110.643,182.964 110.872,182.200 111.210 M214.433 110.944 C 214.525 111.023,215.500 111.191,216.600 111.318 C 217.887 111.467,218.315 111.426,217.800 111.203 C 217.036 110.872,214.086 110.645,214.433 110.944 M178.400 112.021 C 177.970 112.314,178.254 112.354,179.400 112.162 C 181.384 111.830,181.704 111.598,180.167 111.606 C 179.525 111.609,178.730 111.796,178.400 112.021 M218.833 111.747 C 218.925 111.828,219.720 112.004,220.600 112.138 C 221.715 112.307,221.958 112.271,221.400 112.019 C 220.632 111.671,218.490 111.444,218.833 111.747 M175.600 112.818 C 175.162 113.115,175.324 113.152,176.200 112.956 C 177.671 112.627,177.990 112.398,176.967 112.406 C 176.545 112.409,175.930 112.595,175.600 112.818 M222.433 112.544 C 222.525 112.623,223.140 112.808,223.800 112.956 C 224.676 113.152,224.838 113.115,224.400 112.818 C 223.860 112.453,222.032 112.198,222.433 112.544 M172.800 113.618 C 172.362 113.915,172.524 113.952,173.400 113.756 C 174.871 113.427,175.190 113.198,174.167 113.206 C 173.745 113.209,173.130 113.395,172.800 113.618 M225.800 113.600 C 226.996 114.114,227.995 114.114,227.200 113.600 C 226.870 113.387,226.240 113.222,225.800 113.234 L 225.000 113.256 225.800 113.600 M170.400 114.400 C 169.867 114.745,169.867 114.788,170.400 114.788 C 170.730 114.788,171.270 114.613,171.600 114.400 C 172.133 114.055,172.133 114.012,171.600 114.012 C 171.270 114.012,170.730 114.187,170.400 114.400 M228.400 114.400 C 228.730 114.613,229.270 114.788,229.600 114.788 C 230.133 114.788,230.133 114.745,229.600 114.400 C 229.270 114.187,228.730 114.012,228.400 114.012 C 227.867 114.012,227.867 114.055,228.400 114.400 M165.253 116.253 C 164.513 116.576,163.992 116.925,164.095 117.028 C 164.199 117.132,165.075 116.866,166.042 116.437 C 167.009 116.008,167.530 115.658,167.200 115.661 C 166.870 115.663,165.994 115.930,165.253 116.253 M158.156 119.757 C 143.041 127.691,129.381 140.893,121.484 155.200 C 120.817 156.410,120.462 157.220,120.697 157.000 C 120.932 156.780,121.480 155.970,121.915 155.200 C 130.322 140.309,143.943 127.284,159.000 119.738 C 161.420 118.525,163.475 117.458,163.567 117.366 C 164.190 116.744,162.337 117.562,158.156 119.757 M236.433 117.348 C 236.525 117.430,238.400 118.424,240.600 119.558 C 245.835 122.254,247.680 123.328,250.700 125.432 C 252.075 126.389,253.197 127.044,253.194 126.887 C 253.183 126.385,246.353 122.107,241.593 119.619 C 237.713 117.591,235.723 116.715,236.433 117.348 M253.600 127.349 C 253.600 127.435,254.230 127.986,255.000 128.573 C 255.770 129.160,256.398 129.497,256.395 129.320 C 256.392 129.144,255.762 128.593,254.995 128.096 C 254.228 127.599,253.600 127.263,253.600 127.349 M261.502 134.158 C 265.689 138.187,268.257 141.109,273.518 147.828 C 274.022 148.473,273.856 148.100,273.149 147.000 C 270.536 142.938,263.020 134.716,258.600 131.084 C 257.500 130.180,258.806 131.563,261.502 134.158 M227.500 133.493 C 228.435 133.577,229.965 133.577,230.900 133.493 C 231.835 133.409,231.070 133.340,229.200 133.340 C 227.330 133.340,226.565 133.409,227.500 133.493 M222.200 134.000 L 221.400 134.344 222.200 134.332 C 222.640 134.326,223.450 134.176,224.000 134.000 L 225.000 133.680 224.000 133.668 C 223.450 133.662,222.640 133.811,222.200 134.000 M234.800 134.000 C 236.342 134.494,237.164 134.494,236.400 134.000 C 236.070 133.787,235.350 133.627,234.800 133.646 L 233.800 133.680 234.800 134.000 M217.992 135.327 C 209.001 139.027,203.076 145.259,199.971 154.284 C 199.547 155.517,199.214 156.902,199.232 157.363 C 199.264 158.225,199.458 157.745,200.430 154.400 C 202.911 145.863,210.264 138.560,219.983 134.979 C 220.762 134.691,221.130 134.448,220.800 134.438 C 220.470 134.427,219.207 134.828,217.992 135.327 M238.000 134.800 C 238.330 135.013,238.870 135.188,239.200 135.188 C 239.733 135.188,239.733 135.145,239.200 134.800 C 238.870 134.587,238.330 134.412,238.000 134.412 C 237.467 134.412,237.467 134.455,238.000 134.800 M242.000 136.171 C 242.000 136.447,244.514 137.620,244.702 137.431 C 244.797 137.336,244.327 136.976,243.657 136.629 C 242.409 135.984,242.000 135.871,242.000 136.171 M247.600 139.566 C 247.600 139.805,247.746 140.000,247.925 140.000 C 248.471 140.000,253.135 144.887,254.414 146.800 C 258.201 152.464,259.390 156.655,259.395 164.362 C 259.399 169.122,259.476 170.032,259.733 168.362 C 260.804 161.412,258.980 153.179,255.047 147.200 C 252.524 143.366,247.600 138.318,247.600 139.566 M275.849 151.500 C 276.659 152.765,277.672 154.430,278.099 155.200 C 278.526 155.970,279.066 156.780,279.300 157.000 C 279.534 157.220,279.271 156.590,278.717 155.600 C 276.476 151.594,274.983 149.229,274.688 149.215 C 274.516 149.207,275.038 150.235,275.849 151.500 M198.617 159.852 C 198.454 160.720,198.516 161.476,198.772 161.732 C 199.076 162.036,199.200 161.615,199.200 160.280 C 199.200 158.029,198.988 157.873,198.617 159.852 M281.218 160.851 C 281.180 161.380,282.457 164.076,282.652 163.881 C 282.765 163.768,282.493 162.984,282.047 162.138 C 281.600 161.292,281.227 160.713,281.218 160.851 M114.267 171.067 C 114.120 171.213,114.011 171.708,114.025 172.167 C 114.049 172.933,114.082 172.923,114.434 172.042 C 114.826 171.063,114.744 170.589,114.267 171.067 M258.573 171.900 C 256.586 180.928,248.901 189.170,239.200 192.678 C 237.121 193.429,236.917 193.569,238.182 193.375 C 245.328 192.280,255.217 183.266,257.901 175.400 C 258.864 172.578,259.295 170.800,259.015 170.800 C 258.905 170.800,258.706 171.295,258.573 171.900 M286.034 173.600 C 286.046 173.930,286.211 174.560,286.400 175.000 L 286.744 175.800 286.766 175.000 C 286.778 174.560,286.613 173.930,286.400 173.600 C 286.055 173.067,286.015 173.067,286.034 173.600 M112.649 176.615 C 112.512 176.973,112.415 177.566,112.434 177.933 C 112.453 178.300,112.627 178.069,112.821 177.420 C 113.198 176.158,113.065 175.533,112.649 176.615 M286.846 176.400 C 286.865 176.730,287.024 177.450,287.200 178.000 L 287.520 179.000 287.554 178.000 C 287.573 177.450,287.413 176.730,287.200 176.400 C 286.855 175.867,286.816 175.867,286.846 176.400 M111.849 179.815 C 111.712 180.173,111.618 180.946,111.640 181.533 C 111.673 182.391,111.752 182.295,112.046 181.040 C 112.422 179.439,112.295 178.653,111.849 179.815 M287.862 180.600 C 287.996 181.480,288.172 182.275,288.253 182.367 C 288.556 182.710,288.329 180.568,287.981 179.800 C 287.729 179.242,287.693 179.485,287.862 180.600 M111.056 183.684 C 110.921 184.188,110.830 185.230,110.852 186.000 C 110.886 187.134,110.962 186.989,111.252 185.239 C 111.620 183.025,111.496 182.043,111.056 183.684 M288.681 184.800 C 288.806 186.010,288.974 187.075,289.054 187.167 C 289.335 187.487,289.117 184.591,288.787 183.600 C 288.571 182.954,288.534 183.380,288.681 184.800 M110.253 189.236 C 110.114 189.931,110.028 192.143,110.062 194.150 L 110.125 197.800 110.411 193.000 C 110.710 187.978,110.674 187.128,110.253 189.236 M289.502 192.400 C 289.591 194.930,289.726 197.180,289.801 197.400 C 290.070 198.190,289.899 190.173,289.622 189.000 C 289.466 188.340,289.412 189.870,289.502 192.400 M110.047 205.433 C 110.073 207.615,110.224 209.940,110.383 210.600 C 110.542 211.260,110.587 209.550,110.482 206.800 C 110.254 200.771,109.981 199.914,110.047 205.433 M289.679 204.800 C 289.631 206.670,289.504 208.920,289.397 209.800 L 289.203 211.400 289.616 210.087 C 289.844 209.365,289.970 207.115,289.898 205.087 L 289.766 201.400 289.679 204.800 M110.828 213.433 C 110.844 214.295,111.017 215.360,111.214 215.800 C 111.448 216.322,111.488 215.837,111.332 214.400 C 111.043 211.758,110.789 211.270,110.828 213.433 M288.867 212.850 C 288.830 213.428,288.705 214.507,288.589 215.250 C 288.396 216.486,288.415 216.517,288.808 215.614 C 289.045 215.071,289.170 213.991,289.086 213.214 C 288.977 212.192,288.916 212.091,288.867 212.850 M287.854 218.354 C 287.700 219.318,287.658 220.191,287.761 220.294 C 288.030 220.563,288.515 217.745,288.307 217.122 C 288.212 216.836,288.008 217.390,287.854 218.354 M111.668 218.000 C 111.662 218.550,111.811 219.360,112.000 219.800 L 112.344 220.600 112.332 219.800 C 112.326 219.360,112.176 218.550,112.000 218.000 L 111.680 217.000 111.668 218.000 M112.446 221.600 C 112.427 222.150,112.587 222.870,112.800 223.200 C 113.294 223.964,113.294 223.142,112.800 221.600 L 112.480 220.600 112.446 221.600 M155.729 221.387 C 148.501 222.824,141.892 229.410,141.063 236.000 L 140.837 237.800 141.364 235.751 C 143.016 229.329,146.860 225.056,153.337 222.442 C 166.163 217.266,180.720 231.419,176.367 244.834 C 170.587 262.649,146.102 261.726,141.371 243.515 L 140.822 241.400 141.029 243.200 C 142.152 252.962,154.212 260.416,164.052 257.429 C 168.039 256.219,174.400 251.770,174.400 250.191 C 174.400 250.044,174.736 249.446,175.146 248.862 C 182.225 238.786,174.660 223.544,161.427 221.217 C 158.727 220.743,159.010 220.734,155.729 221.387 M287.246 221.267 C 287.221 221.634,287.096 222.264,286.970 222.667 C 286.752 223.362,286.763 223.363,287.197 222.687 C 287.448 222.296,287.573 221.666,287.473 221.287 C 287.311 220.668,287.288 220.666,287.246 221.267 M113.234 224.600 C 113.222 225.040,113.387 225.670,113.600 226.000 C 114.114 226.795,114.114 225.796,113.600 224.600 L 113.256 223.800 113.234 224.600 M286.229 225.029 C 286.081 225.615,286.038 226.172,286.132 226.266 C 286.227 226.360,286.424 225.958,286.571 225.371 C 286.719 224.785,286.762 224.228,286.668 224.134 C 286.573 224.040,286.376 224.442,286.229 225.029 M114.012 227.200 C 114.012 227.530,114.187 228.070,114.400 228.400 C 114.745 228.933,114.788 228.933,114.788 228.400 C 114.788 228.070,114.613 227.530,114.400 227.200 C 114.055 226.667,114.012 226.667,114.012 227.200 M285.400 227.600 C 285.250 228.073,285.217 228.550,285.327 228.660 C 285.437 228.770,285.650 228.473,285.800 228.000 C 285.950 227.527,285.983 227.050,285.873 226.940 C 285.763 226.830,285.550 227.127,285.400 227.600 M114.800 229.493 C 114.800 230.099,117.665 236.869,117.845 236.689 C 117.988 236.546,115.292 229.576,114.961 229.233 C 114.872 229.142,114.800 229.259,114.800 229.493 M283.074 233.874 C 281.696 237.347,281.964 237.615,283.411 234.211 C 284.023 232.770,284.436 231.503,284.329 231.396 C 284.222 231.289,283.657 232.404,283.074 233.874 M118.000 237.410 C 118.000 237.865,120.862 243.271,121.020 243.114 C 121.112 243.021,120.543 241.653,119.755 240.073 C 118.466 237.490,118.000 236.783,118.000 237.410 M140.509 239.600 C 140.509 240.590,140.587 240.995,140.682 240.500 C 140.778 240.005,140.778 239.195,140.682 238.700 C 140.587 238.205,140.509 238.610,140.509 239.600 M279.850 240.850 C 279.277 242.000,278.867 243.000,278.939 243.073 C 279.012 243.145,279.568 242.291,280.175 241.175 C 280.782 240.059,281.192 239.059,281.086 238.952 C 280.979 238.846,280.423 239.700,279.850 240.850 M122.024 245.100 C 124.164 248.712,126.624 252.390,126.903 252.395 C 127.069 252.398,126.648 251.635,125.967 250.700 C 125.287 249.765,124.017 247.785,123.147 246.300 C 122.277 244.815,121.468 243.600,121.350 243.600 C 121.231 243.600,121.535 244.275,122.024 245.100 M276.830 246.349 C 275.947 247.861,274.140 250.561,272.814 252.349 C 271.488 254.137,270.538 255.598,270.702 255.595 C 271.009 255.589,271.191 255.345,274.623 250.347 C 276.886 247.051,278.938 243.600,278.635 243.600 C 278.525 243.600,277.713 244.837,276.830 246.349 M128.096 254.195 C 128.593 254.962,129.144 255.592,129.320 255.595 C 129.497 255.598,129.160 254.970,128.573 254.200 C 127.200 252.400,126.932 252.397,128.096 254.195 M130.059 256.649 C 130.771 257.759,134.037 261.299,134.195 261.130 C 134.262 261.059,133.237 259.830,131.916 258.400 C 130.596 256.970,129.760 256.182,130.059 256.649 M267.845 258.600 C 266.582 260.030,265.650 261.200,265.775 261.200 C 266.018 261.200,268.302 258.741,269.644 257.035 C 271.154 255.115,270.158 255.981,267.845 258.600 M135.793 263.193 C 136.648 264.069,137.423 264.711,137.514 264.619 C 137.719 264.414,134.940 261.600,134.532 261.600 C 134.370 261.600,134.937 262.317,135.793 263.193 M263.000 263.697 C 260.248 266.489,256.271 269.881,253.077 272.160 C 250.748 273.822,249.435 275.021,250.900 274.150 C 254.461 272.030,266.605 261.552,265.400 261.639 C 265.180 261.655,264.100 262.581,263.000 263.697 M138.000 264.970 C 138.000 266.865,161.886 283.048,163.015 281.918 C 163.110 281.823,161.204 280.725,158.779 279.478 C 151.920 275.952,144.631 270.894,139.700 266.239 C 138.765 265.356,138.000 264.785,138.000 264.970 M247.000 276.247 C 245.460 277.233,242.536 278.872,240.502 279.888 C 238.467 280.905,236.874 281.808,236.961 281.894 C 237.327 282.260,249.290 275.625,249.824 274.761 C 250.146 274.240,250.078 274.276,247.000 276.247 M234.200 282.800 C 233.320 283.207,232.870 283.546,233.200 283.554 C 233.530 283.561,234.430 283.222,235.200 282.800 C 236.981 281.825,236.306 281.825,234.200 282.800 M170.000 284.800 C 170.330 285.013,170.870 285.188,171.200 285.188 C 171.733 285.188,171.733 285.145,171.200 284.800 C 170.870 284.587,170.330 284.412,170.000 284.412 C 169.467 284.412,169.467 284.455,170.000 284.800 M223.800 286.400 L 223.000 286.744 223.800 286.766 C 224.240 286.778,224.870 286.613,225.200 286.400 C 225.995 285.886,224.996 285.886,223.800 286.400 M178.000 287.200 C 178.330 287.413,179.050 287.573,179.600 287.554 L 180.600 287.520 179.600 287.200 C 178.058 286.706,177.236 286.706,178.000 287.200 M220.400 287.200 L 219.400 287.520 220.400 287.554 C 220.950 287.573,221.670 287.413,222.000 287.200 C 222.764 286.706,221.942 286.706,220.400 287.200 M181.400 288.000 C 181.840 288.189,182.740 288.335,183.400 288.325 L 184.600 288.305 183.400 288.000 C 182.740 287.832,181.840 287.686,181.400 287.675 L 180.600 287.656 181.400 288.000 M216.600 288.000 L 215.400 288.305 216.600 288.325 C 217.260 288.335,218.160 288.189,218.600 288.000 L 219.400 287.656 218.600 287.675 C 218.160 287.686,217.260 287.832,216.600 288.000 M185.800 288.798 C 186.558 289.126,190.720 289.361,190.367 289.056 C 190.275 288.977,189.030 288.808,187.600 288.682 C 185.990 288.540,185.305 288.584,185.800 288.798 M211.400 288.800 L 209.400 289.074 211.400 289.109 C 212.500 289.128,213.760 288.989,214.200 288.800 L 215.000 288.456 214.200 288.491 C 213.760 288.510,212.500 288.649,211.400 288.800 M192.600 289.665 C 193.700 289.811,197.030 289.930,200.000 289.930 C 202.970 289.930,206.300 289.811,207.400 289.665 C 208.500 289.519,205.170 289.400,200.000 289.400 C 194.830 289.400,191.500 289.519,192.600 289.665 " stroke="none" fill="#f4b48c" fill-rule="evenodd"></path><path id="path4" d="M198.447 164.433 C 198.473 165.845,198.629 167.540,198.794 168.200 C 198.958 168.860,199.002 167.780,198.891 165.800 C 198.655 161.582,198.379 160.733,198.447 164.433 M199.256 170.800 C 199.256 171.130,199.411 171.760,199.600 172.200 C 199.817 172.704,199.944 172.778,199.944 172.400 C 199.944 172.070,199.789 171.440,199.600 171.000 C 199.383 170.496,199.256 170.422,199.256 170.800 M201.600 177.386 C 201.600 177.805,203.206 180.400,203.465 180.400 C 203.575 180.400,203.259 179.725,202.763 178.900 C 201.658 177.062,201.600 176.987,201.600 177.386 M204.437 182.000 C 205.596 183.796,205.600 183.801,205.598 183.367 C 205.597 183.165,205.132 182.460,204.565 181.800 L 203.534 180.600 204.437 182.000 M207.200 185.400 C 207.946 186.170,208.647 186.800,208.757 186.800 C 208.867 186.800,208.346 186.170,207.600 185.400 C 206.854 184.630,206.153 184.000,206.043 184.000 C 205.933 184.000,206.454 184.630,207.200 185.400 M210.183 187.973 C 210.539 188.548,214.019 190.915,214.217 190.716 C 214.306 190.628,213.376 189.880,212.152 189.056 C 210.928 188.231,210.042 187.744,210.183 187.973 M220.800 193.594 C 221.130 193.811,221.835 193.991,222.367 193.994 C 223.651 194.002,223.325 193.775,221.600 193.458 C 220.615 193.277,220.378 193.318,220.800 193.594 M229.400 194.400 L 225.400 194.645 229.200 194.683 C 231.290 194.703,233.450 194.576,234.000 194.400 C 235.137 194.036,235.345 194.036,229.400 194.400 " stroke="none" fill="#bca474" fill-rule="evenodd"></path><path id="path5" d="M198.795 164.518 L 198.991 167.400 199.116 164.841 C 199.185 163.433,199.097 162.136,198.921 161.959 C 198.744 161.781,198.688 162.933,198.795 164.518 M207.600 185.400 C 208.795 186.610,209.863 187.600,209.973 187.600 C 210.083 187.600,209.195 186.610,208.000 185.400 C 206.805 184.190,205.737 183.200,205.627 183.200 C 205.517 183.200,206.405 184.190,207.600 185.400 " stroke="none" fill="#c4ac7c" fill-rule="evenodd"></path><path id="path6" d="M194.505 109.487 C 195.114 109.579,196.014 109.577,196.505 109.482 C 196.997 109.387,196.500 109.311,195.400 109.314 C 194.300 109.317,193.897 109.395,194.505 109.487 M203.905 109.483 C 204.402 109.579,205.122 109.575,205.505 109.475 C 205.887 109.375,205.480 109.296,204.600 109.301 C 203.720 109.305,203.407 109.387,203.905 109.483 M136.189 135.700 L 133.400 138.600 136.300 135.811 C 138.994 133.220,139.383 132.800,139.089 132.800 C 139.028 132.800,137.723 134.105,136.189 135.700 M263.800 136.000 C 265.106 137.320,266.265 138.400,266.375 138.400 C 266.485 138.400,265.506 137.320,264.200 136.000 C 262.894 134.680,261.735 133.600,261.625 133.600 C 261.515 133.600,262.494 134.680,263.800 136.000 M259.293 166.400 C 259.293 167.170,259.375 167.485,259.476 167.100 C 259.576 166.715,259.576 166.085,259.476 165.700 C 259.375 165.315,259.293 165.630,259.293 166.400 M109.744 199.600 C 109.744 201.690,109.812 202.545,109.894 201.500 C 109.976 200.455,109.976 198.745,109.894 197.700 C 109.812 196.655,109.744 197.510,109.744 199.600 M290.140 199.600 C 290.140 201.470,290.209 202.235,290.293 201.300 C 290.377 200.365,290.377 198.835,290.293 197.900 C 290.209 196.965,290.140 197.730,290.140 199.600 " stroke="none" fill="#f6c696" fill-rule="evenodd"></path><path id="path7" d="M199.344 165.600 C 199.344 167.690,199.412 168.545,199.494 167.500 C 199.576 166.455,199.576 164.745,199.494 163.700 C 199.412 162.655,199.344 163.510,199.344 165.600 M199.841 170.800 C 200.080 172.383,202.331 178.310,202.804 178.602 C 202.974 178.707,202.519 177.310,201.793 175.497 C 201.067 173.684,200.283 171.570,200.051 170.800 L 199.629 169.400 199.841 170.800 M203.673 180.200 C 203.923 180.750,204.284 181.200,204.473 181.200 C 204.663 181.200,204.524 180.750,204.163 180.200 C 203.803 179.650,203.443 179.200,203.363 179.200 C 203.283 179.200,203.422 179.650,203.673 180.200 M205.600 182.925 C 205.600 182.994,206.185 183.579,206.900 184.225 L 208.200 185.400 207.025 184.100 C 205.930 182.888,205.600 182.616,205.600 182.925 M209.960 187.177 C 210.927 188.078,211.812 188.721,211.926 188.607 C 212.040 188.493,212.058 188.353,211.967 188.296 C 211.875 188.239,210.990 187.595,210.000 186.866 L 208.200 185.541 209.960 187.177 M225.600 194.040 C 226.857 194.392,231.409 194.392,233.000 194.039 C 233.660 193.893,232.040 193.770,229.400 193.766 C 226.760 193.762,225.050 193.885,225.600 194.040 " stroke="none" fill="#ecd49c" fill-rule="evenodd"></path><path id="path8" d="M191.000 109.619 C 190.442 109.871,190.685 109.907,191.800 109.738 C 192.680 109.604,193.475 109.428,193.567 109.347 C 193.910 109.044,191.768 109.271,191.000 109.619 M206.033 109.344 C 206.125 109.424,207.010 109.596,208.000 109.727 C 209.202 109.886,209.534 109.847,209.000 109.610 C 208.236 109.272,205.686 109.043,206.033 109.344 M166.600 115.414 C 165.595 115.898,165.563 115.953,166.400 115.751 C 166.950 115.619,167.571 115.350,167.780 115.155 C 168.298 114.671,168.014 114.733,166.600 115.414 M227.712 133.895 C 228.764 133.977,230.384 133.976,231.312 133.892 C 232.240 133.808,231.380 133.741,229.400 133.742 C 227.420 133.743,226.660 133.812,227.712 133.895 M250.600 142.800 C 251.683 143.900,252.660 144.800,252.770 144.800 C 252.880 144.800,252.083 143.900,251.000 142.800 C 249.917 141.700,248.940 140.800,248.830 140.800 C 248.720 140.800,249.517 141.700,250.600 142.800 M203.014 148.635 C 202.641 149.204,202.405 149.738,202.489 149.822 C 202.573 149.907,202.958 149.441,203.344 148.788 C 204.206 147.328,203.948 147.209,203.014 148.635 M199.309 160.400 C 199.309 161.390,199.387 161.795,199.482 161.300 C 199.578 160.805,199.578 159.995,199.482 159.500 C 199.387 159.005,199.309 159.410,199.309 160.400 M259.301 163.800 C 259.305 164.680,259.387 164.993,259.483 164.495 C 259.579 163.998,259.575 163.278,259.475 162.895 C 259.375 162.513,259.296 162.920,259.301 163.800 M250.420 185.379 L 248.640 187.400 250.601 185.514 C 251.679 184.477,252.480 183.567,252.381 183.493 C 252.281 183.419,251.399 184.267,250.420 185.379 M289.444 187.400 C 289.773 188.871,290.002 189.190,289.994 188.167 C 289.991 187.745,289.805 187.130,289.582 186.800 C 289.285 186.362,289.248 186.524,289.444 187.400 M109.457 195.500 C 109.151 197.350,109.206 202.585,109.547 204.177 C 109.686 204.825,109.800 202.800,109.800 199.677 C 109.800 193.363,109.803 193.403,109.457 195.500 M290.200 199.785 C 290.200 203.068,290.313 204.684,290.477 203.759 C 290.814 201.865,290.799 197.037,290.453 195.426 C 290.314 194.780,290.200 196.742,290.200 199.785 M289.429 211.829 C 289.281 212.415,289.238 212.972,289.332 213.066 C 289.427 213.160,289.624 212.758,289.771 212.171 C 289.919 211.585,289.962 211.028,289.868 210.934 C 289.773 210.840,289.576 211.242,289.429 211.829 M158.500 221.876 C 158.885 221.976,159.515 221.976,159.900 221.876 C 160.285 221.775,159.970 221.693,159.200 221.693 C 158.430 221.693,158.115 221.775,158.500 221.876 M176.456 236.600 C 176.456 237.040,176.611 237.760,176.800 238.200 L 177.144 239.000 177.144 238.200 C 177.144 237.760,176.989 237.040,176.800 236.600 L 176.456 235.800 176.456 236.600 M141.060 238.500 C 140.934 239.215,140.974 240.430,141.149 241.200 C 141.413 242.358,141.466 242.134,141.459 239.900 C 141.450 236.858,141.388 236.641,141.060 238.500 M176.622 241.822 C 176.472 242.625,176.428 243.362,176.526 243.460 C 176.624 243.557,176.827 242.981,176.978 242.178 C 177.128 241.375,177.172 240.638,177.074 240.540 C 176.976 240.443,176.773 241.019,176.622 241.822 M264.000 263.400 C 263.028 264.390,262.323 265.200,262.433 265.200 C 262.543 265.200,263.428 264.390,264.400 263.400 C 265.372 262.410,266.077 261.600,265.967 261.600 C 265.857 261.600,264.972 262.410,264.000 263.400 M136.000 263.800 C 136.746 264.570,137.447 265.200,137.557 265.200 C 137.667 265.200,137.146 264.570,136.400 263.800 C 135.654 263.030,134.953 262.400,134.843 262.400 C 134.733 262.400,135.254 263.030,136.000 263.800 " stroke="none" fill="#fcd49c" fill-rule="evenodd"></path></g></svg>