<svg id="svg" version="1.1" xmlns="http://www.w3.org/2000/svg" xmlns:xlink="http://www.w3.org/1999/xlink" width="400" height="400" viewBox="0, 0, 400,400"><g id="svgg"><path id="path0" d="M143.100 115.757 C 142.715 116.049,142.400 116.493,142.400 116.744 C 142.400 116.995,142.220 117.200,142.000 117.200 C 140.977 117.200,141.592 120.730,142.831 121.969 L 144.062 123.200 149.607 123.200 C 152.657 123.200,155.254 123.364,155.378 123.564 C 155.585 123.900,153.072 126.759,147.600 132.412 C 140.685 139.555,140.234 140.572,142.831 143.169 C 145.922 146.260,146.005 146.203,160.592 131.074 L 168.184 123.200 174.679 123.200 L 181.173 123.200 182.587 124.613 L 184.000 126.027 184.004 135.513 C 184.010 148.768,185.095 151.714,191.247 155.190 L 193.000 156.181 214.459 156.390 C 240.939 156.649,238.493 155.540,238.310 167.207 L 238.200 174.200 207.549 174.302 L 176.898 174.405 174.149 171.758 C 172.637 170.303,169.761 167.512,167.757 165.556 C 165.754 163.600,163.855 162.000,163.537 162.000 C 163.220 162.000,162.750 161.790,162.493 161.533 C 161.712 160.752,158.965 162.245,158.194 163.870 C 156.997 166.392,157.513 167.274,163.681 173.243 C 166.774 176.236,169.236 178.884,169.152 179.128 C 169.069 179.371,166.570 182.110,163.600 185.215 C 160.630 188.319,158.074 191.320,157.921 191.882 C 157.160 194.665,159.050 197.200,161.885 197.200 C 163.701 197.200,163.802 197.112,173.936 186.651 L 177.672 182.795 207.936 182.897 L 238.200 183.000 238.451 187.000 C 238.691 190.841,238.894 192.055,239.583 193.800 C 241.372 198.330,244.182 201.827,248.170 204.485 C 251.777 206.889,251.762 206.847,250.037 209.723 C 249.220 211.085,248.243 212.867,247.865 213.683 C 247.487 214.499,246.996 215.279,246.773 215.417 C 246.407 215.643,242.483 213.856,242.000 213.243 C 241.890 213.103,240.900 212.567,239.800 212.051 C 238.700 211.535,237.487 210.952,237.105 210.756 C 236.723 210.560,236.059 210.400,235.629 210.400 C 235.199 210.400,234.736 210.220,234.600 210.000 C 234.464 209.780,233.744 209.600,233.000 209.600 C 232.256 209.600,231.536 209.420,231.400 209.200 C 231.244 208.947,226.470 208.800,218.400 208.800 C 210.330 208.800,205.556 208.947,205.400 209.200 C 205.264 209.420,204.713 209.600,204.176 209.600 C 203.639 209.600,203.200 209.780,203.200 210.000 C 203.200 210.220,202.937 210.400,202.616 210.400 C 200.542 210.400,196.703 216.208,196.139 220.200 L 195.800 222.600 181.465 222.705 L 167.130 222.810 165.827 221.505 C 164.608 220.285,164.510 219.978,164.311 216.784 C 163.919 210.467,160.723 206.470,154.440 204.440 C 152.293 203.745,137.835 203.858,136.440 204.580 C 133.831 205.929,133.222 208.985,135.136 211.128 L 136.271 212.400 144.122 212.400 C 154.978 212.400,155.612 212.768,156.176 219.400 C 156.325 221.160,156.617 222.771,156.824 222.980 C 157.031 223.189,157.200 223.684,157.200 224.080 C 157.200 224.476,157.368 224.800,157.573 224.800 C 157.778 224.800,158.065 225.174,158.210 225.632 C 158.631 226.957,160.749 228.735,163.433 230.016 L 165.914 231.200 180.750 231.200 L 195.585 231.200 195.838 232.207 C 196.634 235.381,195.814 244.222,194.612 245.425 L 193.437 246.600 169.218 246.723 C 140.392 246.870,143.386 247.248,138.921 242.891 C 128.654 232.874,127.537 232.270,124.760 235.242 C 122.294 237.883,122.755 238.877,129.462 245.373 C 134.060 249.827,135.245 251.186,134.962 251.679 C 134.763 252.025,132.125 254.859,129.100 257.978 C 122.905 264.365,122.550 265.149,124.620 267.862 C 125.554 269.086,125.823 269.200,127.786 269.200 L 129.932 269.200 136.688 262.200 L 143.443 255.200 158.122 255.200 L 172.800 255.200 172.800 262.431 L 172.800 269.662 171.631 270.831 L 170.462 272.000 161.880 272.000 C 150.568 272.000,149.600 272.374,149.600 276.746 C 149.600 280.290,149.974 280.400,162.006 280.400 L 172.088 280.400 174.447 279.143 C 177.405 277.566,178.366 276.605,179.943 273.647 L 181.200 271.288 181.200 263.724 C 181.200 254.455,180.601 255.200,188.056 255.200 C 191.556 255.200,194.053 255.037,194.200 254.800 C 194.336 254.580,194.851 254.400,195.345 254.400 C 197.953 254.400,202.861 249.647,203.813 246.200 C 203.996 245.540,204.207 239.407,204.283 232.572 L 204.422 220.144 205.567 218.772 L 206.713 217.400 218.657 217.400 C 229.214 217.400,230.832 217.485,232.600 218.129 C 234.871 218.957,237.303 220.051,237.600 220.379 C 237.950 220.766,240.174 222.041,240.900 222.271 C 241.285 222.393,241.600 222.652,241.600 222.847 C 241.600 223.041,241.848 223.200,242.151 223.200 C 243.533 223.200,243.719 224.263,243.019 228.149 C 241.148 238.543,242.674 249.798,247.166 258.732 C 249.196 262.770,249.819 263.316,250.880 261.987 C 251.313 261.444,252.202 260.370,252.854 259.600 C 255.526 256.444,261.226 247.442,263.946 242.079 L 266.848 236.359 268.724 237.425 C 269.756 238.012,271.410 238.944,272.400 239.498 C 274.945 240.921,284.053 246.203,287.514 248.265 C 289.117 249.219,290.499 250.000,290.585 250.000 C 290.671 250.000,292.208 250.900,294.000 252.000 C 295.792 253.100,297.339 254.000,297.437 254.000 C 297.534 254.000,298.800 254.720,300.248 255.600 C 301.697 256.480,302.956 257.200,303.048 257.200 C 303.139 257.200,304.516 257.985,306.107 258.945 C 307.698 259.906,310.890 261.768,313.200 263.085 C 315.510 264.401,319.560 266.721,322.200 268.239 C 324.840 269.758,327.492 271.254,328.093 271.564 C 329.449 272.263,330.800 273.497,330.800 274.036 C 330.800 274.259,331.340 274.630,332.000 274.860 C 332.660 275.090,333.200 275.441,333.200 275.639 C 333.200 275.838,333.560 276.000,334.000 276.000 C 334.440 276.000,334.800 276.180,334.800 276.400 C 334.800 276.620,335.160 276.800,335.600 276.800 C 336.040 276.800,336.400 276.980,336.400 277.200 C 336.400 277.420,336.636 277.600,336.925 277.600 C 337.213 277.600,337.836 277.960,338.308 278.400 C 338.780 278.840,339.444 279.200,339.783 279.200 C 340.122 279.200,340.400 279.380,340.400 279.600 C 340.400 279.820,340.678 280.000,341.017 280.000 C 341.356 280.000,342.020 280.360,342.492 280.800 C 342.964 281.240,343.856 281.824,344.475 282.097 C 345.094 282.371,345.600 282.731,345.600 282.898 C 345.600 283.064,345.878 283.200,346.217 283.200 C 346.556 283.200,347.220 283.560,347.692 284.000 C 348.164 284.440,348.787 284.800,349.075 284.800 C 349.364 284.800,349.600 284.980,349.600 285.200 C 349.600 285.420,349.960 285.600,350.400 285.600 C 350.840 285.600,351.200 285.780,351.200 286.000 C 351.200 286.220,351.560 286.400,352.000 286.400 C 352.440 286.400,352.800 286.580,352.800 286.800 C 352.800 287.021,353.853 287.200,355.160 287.200 C 357.593 287.200,360.400 285.358,360.400 283.760 C 360.400 283.452,360.580 283.200,360.800 283.200 C 361.020 283.200,361.200 282.840,361.200 282.400 C 361.200 281.960,361.380 281.600,361.600 281.600 C 361.820 281.600,362.000 281.280,362.000 280.888 C 362.000 280.497,362.360 279.917,362.800 279.600 C 363.240 279.283,363.600 278.703,363.600 278.312 C 363.600 277.920,363.780 277.600,364.000 277.600 C 364.220 277.600,364.400 277.240,364.400 276.800 C 364.400 276.360,364.580 276.000,364.800 276.000 C 365.020 276.000,365.200 275.730,365.200 275.400 C 365.200 275.070,365.380 274.800,365.600 274.800 C 365.820 274.800,366.000 274.530,366.000 274.200 C 366.000 273.870,366.180 273.600,366.400 273.600 C 366.620 273.600,366.800 273.330,366.800 273.000 C 366.800 272.670,366.980 272.400,367.200 272.400 C 367.420 272.400,367.600 272.040,367.600 271.600 C 367.600 271.160,367.780 270.800,368.000 270.800 C 368.220 270.800,368.400 270.522,368.400 270.183 C 368.400 269.844,368.760 269.180,369.200 268.708 C 370.007 267.842,370.429 262.800,369.695 262.800 C 369.527 262.800,369.212 262.410,368.995 261.933 C 368.778 261.456,368.240 260.871,367.800 260.633 C 367.360 260.395,366.910 260.110,366.800 260.000 C 366.283 259.483,364.008 258.400,363.438 258.400 C 363.087 258.400,362.800 258.220,362.800 258.000 C 362.800 257.780,362.480 257.600,362.088 257.600 C 361.697 257.600,361.117 257.240,360.800 256.800 C 360.483 256.360,359.903 256.000,359.512 256.000 C 359.120 256.000,358.800 255.820,358.800 255.600 C 358.800 255.380,358.530 255.200,358.200 255.200 C 357.870 255.200,357.600 255.020,357.600 254.800 C 357.600 254.580,357.322 254.400,356.983 254.400 C 356.644 254.400,355.980 254.040,355.508 253.600 C 355.036 253.160,354.413 252.800,354.125 252.800 C 353.836 252.800,353.600 252.620,353.600 252.400 C 353.600 252.180,353.240 252.000,352.800 252.000 C 352.360 252.000,352.000 251.820,352.000 251.600 C 352.000 251.380,351.680 251.200,351.288 251.200 C 350.897 251.200,350.317 250.840,350.000 250.400 C 349.683 249.960,349.103 249.600,348.712 249.600 C 348.320 249.600,348.000 249.420,348.000 249.200 C 348.000 248.980,347.640 248.800,347.200 248.800 C 346.760 248.800,346.400 248.607,346.400 248.371 C 346.400 248.135,346.085 248.015,345.700 248.105 C 344.945 248.282,341.234 246.529,338.528 244.719 C 337.608 244.103,336.776 243.600,336.679 243.600 C 336.581 243.600,332.564 241.326,327.751 238.547 C 322.938 235.769,318.415 233.159,317.700 232.747 C 313.660 230.425,287.992 215.610,286.600 214.798 C 285.940 214.413,282.907 212.661,279.860 210.906 L 274.319 207.714 274.378 198.057 C 274.428 189.875,274.349 188.400,273.859 188.400 C 272.171 188.400,264.368 193.470,260.252 197.241 C 257.455 199.804,256.450 200.091,254.800 198.800 C 254.250 198.370,253.618 198.014,253.396 198.009 C 252.806 197.996,250.267 195.622,249.108 194.000 C 246.914 190.929,246.800 189.933,246.800 173.788 C 246.800 159.266,246.697 157.823,245.467 155.206 C 244.567 153.289,242.208 150.735,240.543 149.874 C 236.949 148.016,236.902 148.012,215.572 148.006 L 195.344 148.000 194.086 146.877 L 192.828 145.754 192.666 135.977 C 192.507 126.345,192.256 123.406,191.556 122.973 C 191.360 122.852,191.200 122.495,191.200 122.181 C 191.200 121.052,187.683 117.335,185.779 116.453 C 185.131 116.153,184.287 115.748,183.905 115.553 C 182.696 114.938,143.924 115.131,143.100 115.757 " stroke="none" fill="#d73b3f" fill-rule="evenodd"></path><path id="path1" d="M78.763 149.556 C 68.766 153.467,61.028 167.758,58.379 187.200 C 57.840 191.153,58.108 206.354,58.787 210.400 C 59.027 211.830,59.326 213.720,59.453 214.600 C 59.579 215.480,59.844 216.371,60.041 216.580 C 60.238 216.789,60.400 217.350,60.400 217.827 C 60.400 222.916,67.699 236.672,72.985 241.544 C 84.433 252.094,102.653 242.185,110.760 221.000 C 111.265 219.680,111.820 218.240,111.993 217.800 C 112.290 217.048,112.904 214.937,113.623 212.200 C 115.888 203.580,116.029 193.806,114.026 184.400 C 113.815 183.410,113.530 182.060,113.391 181.400 C 113.253 180.740,112.998 179.840,112.825 179.400 C 112.652 178.960,112.294 177.880,112.029 177.000 C 111.395 174.895,111.202 174.437,109.165 170.200 C 101.616 154.497,88.645 145.690,78.763 149.556 " stroke="none" fill="#20bcc0" fill-rule="evenodd"></path><path id="path2" d="M162.200 72.800 C 162.064 73.020,160.433 73.200,158.576 73.200 C 156.592 73.200,155.200 73.365,155.200 73.600 C 155.200 73.822,154.133 74.000,152.800 74.000 C 151.467 74.000,150.400 74.178,150.400 74.400 C 150.400 74.620,149.500 74.800,148.400 74.800 C 147.249 74.800,146.400 74.981,146.400 75.227 C 146.400 75.462,146.085 75.555,145.700 75.434 C 145.315 75.313,144.145 75.472,143.100 75.788 C 142.055 76.103,141.200 76.258,141.200 76.132 C 141.200 76.005,140.975 76.074,140.700 76.284 C 140.425 76.494,139.120 76.905,137.800 77.197 C 136.480 77.490,135.229 77.880,135.020 78.064 C 134.811 78.249,134.136 78.400,133.520 78.400 C 132.904 78.400,132.400 78.580,132.400 78.800 C 132.400 79.020,132.076 79.200,131.680 79.200 C 131.284 79.200,130.789 79.343,130.580 79.518 C 130.371 79.693,129.480 80.068,128.600 80.352 C 126.995 80.868,125.206 81.605,123.039 82.644 C 122.400 82.950,121.635 83.200,121.339 83.200 C 121.042 83.200,120.800 83.380,120.800 83.600 C 120.800 83.820,120.440 84.000,120.000 84.000 C 119.560 84.000,119.200 84.180,119.200 84.400 C 119.200 84.620,118.840 84.800,118.400 84.800 C 117.960 84.800,117.600 84.980,117.600 85.200 C 117.600 85.420,117.240 85.600,116.800 85.600 C 116.360 85.600,116.000 85.780,116.000 86.000 C 116.000 86.220,115.655 86.400,115.233 86.400 C 114.812 86.400,114.407 86.535,114.333 86.700 C 114.260 86.865,113.345 87.433,112.300 87.963 C 111.255 88.492,110.400 89.044,110.400 89.188 C 110.400 89.333,109.770 89.698,109.000 90.000 C 108.230 90.302,107.600 90.696,107.600 90.875 C 107.600 91.054,107.330 91.200,107.000 91.200 C 106.670 91.200,106.400 91.344,106.400 91.520 C 106.400 91.695,105.770 92.067,105.000 92.346 C 104.230 92.624,103.600 93.050,103.600 93.293 C 103.600 93.535,103.491 93.624,103.357 93.491 C 103.224 93.357,102.740 93.597,102.282 94.024 C 101.824 94.451,101.253 94.800,101.013 94.800 C 100.773 94.800,100.317 95.160,100.000 95.600 C 99.683 96.040,99.236 96.400,99.007 96.400 C 98.566 96.400,96.415 98.183,93.097 101.300 C 91.985 102.345,90.931 103.200,90.754 103.200 C 89.821 103.200,76.858 116.837,75.457 119.293 C 74.612 120.773,74.566 120.794,72.124 120.797 C 70.762 120.799,69.536 120.980,69.400 121.200 C 69.264 121.420,68.724 121.600,68.200 121.600 C 67.676 121.600,67.136 121.780,67.000 122.000 C 66.864 122.220,66.403 122.400,65.976 122.400 C 65.549 122.400,65.200 122.580,65.200 122.800 C 65.200 123.020,64.750 123.200,64.200 123.200 C 63.650 123.200,63.200 123.380,63.200 123.600 C 63.200 123.820,62.930 124.000,62.600 124.000 C 62.270 124.000,62.000 124.180,62.000 124.400 C 62.000 124.620,61.755 124.800,61.455 124.800 C 60.238 124.800,51.258 132.039,51.218 133.052 C 51.208 133.300,50.525 134.205,49.700 135.062 C 48.875 135.920,47.945 137.111,47.632 137.711 C 47.320 138.310,46.915 138.800,46.732 138.800 C 46.550 138.800,46.400 139.036,46.400 139.325 C 46.400 139.613,46.040 140.236,45.600 140.708 C 45.160 141.180,44.800 141.668,44.800 141.792 C 44.800 141.916,44.336 142.718,43.770 143.574 C 43.203 144.430,42.681 145.372,42.611 145.666 C 42.251 147.162,41.871 148.000,41.553 148.000 C 41.359 148.000,41.200 148.360,41.200 148.800 C 41.200 149.240,41.020 149.600,40.800 149.600 C 40.580 149.600,40.400 149.949,40.400 150.376 C 40.400 150.803,40.220 151.264,40.000 151.400 C 39.780 151.536,39.600 152.087,39.600 152.624 C 39.600 153.161,39.420 153.600,39.200 153.600 C 38.980 153.600,38.800 153.960,38.800 154.400 C 38.800 154.840,38.620 155.200,38.400 155.200 C 38.180 155.200,38.000 155.740,38.000 156.400 C 38.000 157.060,37.820 157.600,37.600 157.600 C 37.380 157.600,37.200 158.039,37.200 158.576 C 37.200 159.113,37.020 159.664,36.800 159.800 C 36.580 159.936,36.400 160.476,36.400 161.000 C 36.400 161.524,36.220 162.064,36.000 162.200 C 35.780 162.336,35.600 163.067,35.600 163.824 C 35.600 164.581,35.420 165.200,35.200 165.200 C 34.980 165.200,34.800 165.819,34.800 166.576 C 34.800 167.333,34.620 168.064,34.400 168.200 C 34.180 168.336,34.000 169.157,34.000 170.024 C 34.000 170.891,33.820 171.600,33.600 171.600 C 33.380 171.600,33.200 172.489,33.200 173.576 C 33.200 174.663,33.020 175.664,32.800 175.800 C 32.580 175.936,32.400 177.117,32.400 178.424 C 32.400 179.741,32.222 180.800,32.000 180.800 C 31.760 180.800,31.600 182.392,31.600 184.776 C 31.600 187.081,31.426 188.860,31.187 189.008 C 30.658 189.335,30.701 205.600,31.230 205.600 C 31.433 205.600,31.600 207.389,31.600 209.576 C 31.600 211.796,31.777 213.662,32.000 213.800 C 32.220 213.936,32.400 215.106,32.400 216.400 C 32.400 217.694,32.580 218.864,32.800 219.000 C 33.020 219.136,33.200 220.047,33.200 221.024 C 33.200 222.001,33.380 222.800,33.600 222.800 C 33.820 222.800,34.000 223.700,34.000 224.800 C 34.000 225.900,34.180 226.800,34.400 226.800 C 34.620 226.800,34.800 227.419,34.800 228.176 C 34.800 228.933,34.980 229.664,35.200 229.800 C 35.420 229.936,35.600 230.577,35.600 231.224 C 35.600 231.871,35.780 232.400,36.000 232.400 C 36.220 232.400,36.400 232.940,36.400 233.600 C 36.400 234.260,36.580 234.800,36.800 234.800 C 37.020 234.800,37.200 235.340,37.200 236.000 C 37.200 236.660,37.380 237.200,37.600 237.200 C 37.820 237.200,38.000 237.639,38.000 238.176 C 38.000 238.713,38.180 239.264,38.400 239.400 C 38.620 239.536,38.800 239.997,38.800 240.424 C 38.800 240.851,38.980 241.200,39.200 241.200 C 39.420 241.200,39.600 241.650,39.600 242.200 C 39.600 242.750,39.780 243.200,40.000 243.200 C 40.220 243.200,40.400 243.560,40.400 244.000 C 40.400 244.440,40.580 244.800,40.800 244.800 C 41.020 244.800,41.200 245.160,41.200 245.600 C 41.200 246.040,41.380 246.400,41.600 246.400 C 41.820 246.400,42.001 246.715,42.001 247.100 C 42.002 247.485,42.360 248.385,42.796 249.100 C 43.232 249.815,43.489 250.400,43.367 250.400 C 43.245 250.400,43.518 250.923,43.973 251.562 C 44.428 252.201,44.800 252.921,44.800 253.162 C 44.800 253.403,44.980 253.600,45.200 253.600 C 45.420 253.600,45.600 253.773,45.600 253.984 C 45.600 254.506,48.837 258.800,49.231 258.800 C 49.404 258.800,49.662 259.167,49.805 259.615 C 50.079 260.480,56.200 266.866,56.483 266.583 C 56.575 266.491,57.282 266.998,58.054 267.708 C 61.348 270.740,68.707 274.000,72.257 274.000 C 73.751 274.000,76.709 275.958,76.114 276.552 C 75.978 276.689,76.068 276.800,76.314 276.800 C 76.560 276.800,77.343 277.645,78.054 278.678 C 79.671 281.029,90.301 291.600,91.048 291.600 C 91.352 291.600,91.600 291.780,91.600 292.000 C 91.600 292.220,91.900 292.400,92.267 292.400 C 92.633 292.400,92.824 292.509,92.691 292.642 C 92.394 292.940,93.722 294.286,95.600 295.590 C 96.370 296.125,97.291 296.886,97.647 297.281 C 98.003 297.676,98.516 298.000,98.786 298.000 C 99.057 298.000,99.783 298.540,100.400 299.200 C 101.017 299.860,101.726 300.400,101.977 300.400 C 102.228 300.400,102.820 300.760,103.292 301.200 C 103.764 301.640,104.387 302.000,104.675 302.000 C 104.964 302.000,105.200 302.180,105.200 302.400 C 105.200 302.620,105.436 302.800,105.725 302.800 C 106.013 302.800,106.636 303.160,107.108 303.600 C 107.580 304.040,108.081 304.400,108.222 304.400 C 108.362 304.400,108.954 304.738,109.538 305.152 C 111.321 306.415,116.125 308.800,116.884 308.800 C 117.278 308.800,117.600 308.980,117.600 309.200 C 117.600 309.420,117.960 309.600,118.400 309.600 C 118.840 309.600,119.200 309.780,119.200 310.000 C 119.200 310.220,119.560 310.400,120.000 310.400 C 120.440 310.400,120.800 310.580,120.800 310.800 C 120.800 311.020,121.160 311.200,121.600 311.200 C 122.040 311.200,122.400 311.380,122.400 311.600 C 122.400 311.820,122.749 312.000,123.176 312.000 C 123.603 312.000,124.064 312.180,124.200 312.400 C 124.336 312.620,124.797 312.800,125.224 312.800 C 125.651 312.800,126.000 312.980,126.000 313.200 C 126.000 313.420,126.349 313.600,126.776 313.600 C 127.203 313.600,127.664 313.780,127.800 314.000 C 127.936 314.220,128.476 314.400,129.000 314.400 C 129.524 314.400,130.064 314.580,130.200 314.800 C 130.336 315.020,130.887 315.200,131.424 315.200 C 131.961 315.200,132.400 315.380,132.400 315.600 C 132.400 315.820,132.940 316.000,133.600 316.000 C 134.260 316.000,134.800 316.180,134.800 316.400 C 134.800 316.620,135.325 316.800,135.967 316.800 C 136.608 316.800,137.193 316.972,137.267 317.182 C 137.340 317.393,138.075 317.610,138.900 317.664 C 139.725 317.719,140.400 317.907,140.400 318.082 C 140.400 318.257,140.940 318.400,141.600 318.400 C 142.260 318.400,142.800 318.580,142.800 318.800 C 142.800 319.020,143.509 319.200,144.376 319.200 C 145.243 319.200,146.064 319.380,146.200 319.600 C 146.336 319.820,147.211 320.000,148.144 320.000 C 149.077 320.000,150.011 320.163,150.220 320.363 C 150.429 320.563,151.590 320.837,152.800 320.972 C 154.010 321.107,156.530 321.410,158.400 321.645 C 163.075 322.233,184.776 322.537,185.800 322.028 C 186.240 321.810,187.770 321.545,189.200 321.440 C 190.630 321.335,192.970 321.052,194.400 320.813 C 195.830 320.573,197.720 320.274,198.600 320.147 C 199.480 320.021,200.371 319.756,200.580 319.559 C 200.789 319.362,201.633 319.200,202.456 319.200 C 203.279 319.200,204.064 319.020,204.200 318.800 C 204.336 318.580,204.966 318.400,205.600 318.400 C 206.234 318.400,206.864 318.220,207.000 318.000 C 207.136 317.780,207.777 317.600,208.424 317.600 C 209.071 317.600,209.600 317.420,209.600 317.200 C 209.600 316.980,210.140 316.800,210.800 316.800 C 211.460 316.800,212.000 316.620,212.000 316.400 C 212.000 316.180,212.540 316.000,213.200 316.000 C 213.860 316.000,214.400 315.820,214.400 315.600 C 214.400 315.380,214.839 315.200,215.376 315.200 C 215.913 315.200,216.464 315.020,216.600 314.800 C 216.736 314.580,217.276 314.400,217.800 314.400 C 218.324 314.400,218.864 314.220,219.000 314.000 C 219.136 313.780,219.597 313.600,220.024 313.600 C 220.451 313.600,220.800 313.420,220.800 313.200 C 220.800 312.980,221.250 312.800,221.800 312.800 C 222.350 312.800,222.800 312.620,222.800 312.400 C 222.800 312.180,223.160 312.000,223.600 312.000 C 224.040 312.000,224.400 311.820,224.400 311.600 C 224.400 311.380,224.760 311.200,225.200 311.200 C 225.640 311.200,226.000 311.020,226.000 310.800 C 226.000 310.580,226.360 310.400,226.800 310.400 C 227.240 310.400,227.600 310.220,227.600 310.000 C 227.600 309.780,227.960 309.600,228.400 309.600 C 228.840 309.600,229.200 309.420,229.200 309.200 C 229.200 308.980,229.520 308.800,229.911 308.800 C 230.662 308.800,237.270 305.532,238.000 304.799 C 238.110 304.689,238.668 304.358,239.239 304.064 C 239.811 303.770,240.778 303.101,241.388 302.576 C 241.998 302.052,242.836 301.516,243.249 301.384 C 243.662 301.253,244.000 300.990,244.000 300.800 C 244.000 300.610,244.366 300.338,244.813 300.196 C 245.260 300.054,246.062 299.502,246.595 298.969 C 247.128 298.436,247.717 298.000,247.904 298.000 C 248.091 298.000,248.931 297.370,249.772 296.600 C 250.613 295.830,251.453 295.200,251.640 295.200 C 251.826 295.200,252.789 294.390,253.779 293.400 C 254.769 292.410,255.672 291.600,255.786 291.600 C 256.416 291.600,264.897 283.284,266.625 280.971 C 267.271 280.107,268.431 278.770,269.203 278.000 C 269.974 277.230,270.874 276.218,271.203 275.751 C 272.851 273.408,275.387 270.185,275.675 270.067 C 275.854 269.993,276.000 269.628,276.000 269.255 C 276.000 268.882,276.360 268.317,276.800 268.000 C 277.240 267.683,277.600 267.143,277.600 266.800 C 277.600 266.457,277.960 265.917,278.400 265.600 C 278.840 265.283,279.200 264.786,279.200 264.495 C 279.200 264.204,279.560 263.580,280.000 263.108 C 280.440 262.636,280.800 262.013,280.800 261.725 C 280.800 261.436,280.980 261.200,281.200 261.200 C 281.420 261.200,281.600 261.380,281.600 261.600 C 281.600 261.820,281.960 262.000,282.400 262.000 C 282.840 262.000,283.200 262.158,283.200 262.351 C 283.200 262.545,283.740 262.927,284.400 263.200 C 285.060 263.473,285.600 263.855,285.600 264.049 C 285.600 264.242,285.960 264.400,286.400 264.400 C 286.840 264.400,287.200 264.580,287.200 264.800 C 287.200 265.020,287.478 265.200,287.817 265.200 C 288.156 265.200,288.820 265.560,289.292 266.000 C 289.764 266.440,290.387 266.800,290.675 266.800 C 290.964 266.800,291.200 266.946,291.200 267.125 C 291.200 267.304,291.830 267.698,292.600 268.000 C 293.370 268.302,294.000 268.651,294.000 268.775 C 294.000 268.900,294.855 269.447,295.900 269.991 C 296.945 270.535,297.890 271.075,298.000 271.190 C 298.245 271.447,299.673 272.266,301.800 273.370 C 302.680 273.826,303.638 274.425,303.929 274.700 C 304.219 274.975,304.804 275.200,305.229 275.200 C 305.653 275.200,306.000 275.380,306.000 275.600 C 306.000 275.820,306.360 276.000,306.800 276.000 C 307.240 276.000,307.600 276.146,307.600 276.325 C 307.600 276.504,308.230 276.898,309.000 277.200 C 309.770 277.502,310.400 277.896,310.400 278.075 C 310.400 278.254,310.839 278.400,311.376 278.400 C 311.913 278.400,312.464 278.580,312.600 278.800 C 312.743 279.032,314.937 279.200,317.824 279.200 C 320.875 279.200,322.800 279.045,322.800 278.800 C 322.800 278.580,323.340 278.400,324.000 278.400 C 324.660 278.400,325.200 278.220,325.200 278.000 C 325.200 277.780,325.520 277.600,325.912 277.600 C 326.303 277.600,326.883 277.240,327.200 276.800 C 327.517 276.360,328.006 276.000,328.285 276.000 C 328.864 276.000,330.800 274.417,330.800 273.943 C 330.800 273.486,329.352 272.213,328.093 271.564 C 327.492 271.254,324.840 269.758,322.200 268.239 C 319.560 266.721,315.510 264.401,313.200 263.085 C 310.890 261.768,307.698 259.906,306.107 258.945 C 304.516 257.985,303.139 257.200,303.048 257.200 C 302.956 257.200,301.697 256.480,300.248 255.600 C 298.800 254.720,297.534 254.000,297.437 254.000 C 297.339 254.000,295.792 253.100,294.000 252.000 C 292.208 250.900,290.671 250.000,290.585 250.000 C 290.499 250.000,289.117 249.219,287.514 248.265 C 284.053 246.203,274.945 240.921,272.400 239.498 C 271.410 238.944,269.765 238.017,268.744 237.436 L 266.889 236.381 264.565 241.091 C 258.482 253.417,249.609 265.074,240.266 273.016 C 238.982 274.107,237.722 275.180,237.466 275.400 C 237.003 275.797,233.880 278.121,231.200 280.061 C 227.263 282.911,214.171 290.000,212.843 290.000 C 212.594 290.000,212.077 290.159,211.695 290.353 C 211.313 290.548,210.460 290.929,209.800 291.200 C 209.140 291.471,208.287 291.852,207.905 292.047 C 207.523 292.241,206.859 292.400,206.429 292.400 C 205.999 292.400,205.549 292.559,205.429 292.754 C 205.308 292.949,204.713 293.204,204.105 293.321 C 203.497 293.438,202.280 293.741,201.400 293.994 C 199.405 294.567,197.814 294.937,194.000 295.717 C 180.429 298.492,160.766 297.913,149.200 294.397 C 148.650 294.230,147.390 293.874,146.400 293.607 C 145.410 293.340,144.287 292.960,143.905 292.761 C 143.523 292.562,142.936 292.400,142.600 292.400 C 142.264 292.400,141.677 292.234,141.295 292.032 C 140.913 291.830,139.520 291.261,138.200 290.769 C 123.871 285.425,106.611 273.076,97.711 261.800 C 97.017 260.920,95.628 259.177,94.624 257.927 C 93.621 256.677,92.800 255.462,92.800 255.227 C 92.800 254.992,92.656 254.800,92.480 254.800 C 92.304 254.800,90.999 252.905,89.580 250.588 L 87.000 246.376 85.200 246.604 C 79.507 247.326,72.394 243.271,67.996 236.794 C 65.987 233.835,62.400 226.905,62.400 225.981 C 62.400 225.577,62.220 225.136,62.000 225.000 C 61.780 224.864,61.600 224.313,61.600 223.776 C 61.600 223.239,61.420 222.800,61.200 222.800 C 60.980 222.800,60.800 222.271,60.800 221.624 C 60.800 220.977,60.620 220.336,60.400 220.200 C 60.180 220.064,60.000 219.344,60.000 218.600 C 60.000 217.856,59.839 217.148,59.642 217.026 C 59.445 216.905,59.171 216.039,59.032 215.103 C 58.894 214.166,58.581 212.230,58.338 210.800 C 57.722 207.181,57.725 187.339,58.342 183.800 C 58.611 182.260,58.932 180.280,59.056 179.400 C 59.180 178.520,59.444 177.629,59.641 177.420 C 59.838 177.211,60.000 176.684,60.000 176.248 C 60.000 175.396,60.680 173.033,61.249 171.905 C 61.442 171.523,61.600 170.936,61.600 170.600 C 61.600 170.264,61.763 169.677,61.962 169.295 C 62.162 168.913,63.143 166.882,64.143 164.783 C 69.351 153.847,75.900 148.305,83.700 148.233 C 85.625 148.215,87.200 148.079,87.200 147.930 C 87.200 147.554,94.093 137.301,95.470 135.628 C 100.527 129.487,106.638 123.313,111.600 119.330 C 115.349 116.321,122.162 111.600,122.755 111.600 C 123.000 111.600,123.201 111.465,123.203 111.300 C 123.205 111.135,123.610 110.800,124.103 110.555 C 124.596 110.310,126.980 109.115,129.400 107.900 C 134.244 105.467,135.356 104.966,139.228 103.474 C 156.667 96.753,178.764 95.270,196.800 99.610 C 208.185 102.349,219.346 106.856,226.400 111.562 C 226.950 111.929,227.873 112.466,228.451 112.756 C 229.667 113.365,235.987 118.055,239.200 120.731 C 244.628 125.253,252.530 133.846,256.001 139.000 C 256.741 140.100,257.458 141.090,257.593 141.200 C 257.728 141.310,258.370 142.290,259.019 143.378 C 259.669 144.465,260.697 146.175,261.304 147.178 C 265.247 153.687,269.822 164.834,271.575 172.200 C 271.836 173.300,272.212 174.830,272.409 175.600 C 272.780 177.051,272.979 178.133,273.619 182.200 C 274.328 186.702,274.769 196.190,274.540 202.000 L 274.311 207.800 279.610 210.800 C 282.525 212.450,285.560 214.182,286.355 214.650 C 287.719 215.451,311.796 229.353,317.700 232.747 C 318.415 233.159,322.938 235.769,327.751 238.547 C 332.564 241.326,336.581 243.600,336.679 243.600 C 336.776 243.600,337.608 244.103,338.528 244.719 C 343.243 247.873,345.600 248.678,345.600 247.133 C 345.600 246.730,345.780 246.400,346.000 246.400 C 346.235 246.400,346.400 245.000,346.400 243.000 C 346.400 241.000,346.235 239.600,346.000 239.600 C 345.780 239.600,345.600 238.880,345.600 238.000 C 345.600 237.120,345.420 236.400,345.200 236.400 C 344.980 236.400,344.800 236.040,344.800 235.600 C 344.800 235.160,344.620 234.800,344.400 234.800 C 344.180 234.800,344.000 234.440,344.000 234.000 C 344.000 233.560,343.820 233.200,343.600 233.200 C 343.380 233.200,343.200 232.930,343.200 232.600 C 343.200 232.270,343.020 232.000,342.800 232.000 C 342.580 232.000,342.400 231.812,342.400 231.582 C 342.400 230.548,337.664 227.047,334.091 225.439 C 333.161 225.021,332.400 224.526,332.400 224.339 C 332.400 224.153,332.040 224.000,331.600 224.000 C 331.160 224.000,330.800 223.820,330.800 223.600 C 330.800 223.380,330.440 223.200,330.000 223.200 C 329.560 223.200,329.200 223.020,329.200 222.800 C 329.200 222.580,328.964 222.400,328.675 222.400 C 328.387 222.400,327.764 222.040,327.292 221.600 C 326.820 221.160,326.156 220.800,325.817 220.800 C 325.478 220.800,325.200 220.620,325.200 220.400 C 325.200 220.180,324.930 220.000,324.600 220.000 C 324.270 220.000,324.000 219.820,324.000 219.600 C 324.000 219.380,323.730 219.200,323.400 219.200 C 323.070 219.200,322.800 219.020,322.800 218.800 C 322.800 218.580,322.429 218.400,321.976 218.400 C 321.523 218.400,321.264 218.220,321.400 218.000 C 321.536 217.780,321.277 217.600,320.824 217.600 C 320.371 217.600,320.000 217.420,320.000 217.200 C 320.000 216.980,319.640 216.800,319.200 216.800 C 318.760 216.800,318.400 216.642,318.400 216.449 C 318.400 216.255,317.860 215.873,317.200 215.600 C 316.540 215.327,316.000 214.945,316.000 214.751 C 316.000 214.558,315.640 214.400,315.200 214.400 C 314.760 214.400,314.399 214.265,314.397 214.100 C 314.395 213.935,313.990 213.602,313.497 213.360 C 311.221 212.242,308.955 210.958,308.496 210.524 C 308.218 210.263,307.363 209.822,306.596 209.544 C 305.828 209.266,305.200 208.895,305.200 208.720 C 305.200 208.544,304.840 208.400,304.400 208.400 C 303.960 208.400,303.600 208.220,303.600 208.000 C 303.600 207.780,303.330 207.600,303.000 207.600 C 302.670 207.600,302.400 207.420,302.400 207.200 C 302.400 206.980,302.130 206.800,301.800 206.800 C 301.470 206.800,301.200 206.620,301.200 206.400 C 301.200 206.180,300.840 206.000,300.400 206.000 C 299.960 206.000,299.600 205.820,299.600 205.600 C 299.600 205.380,299.223 205.200,298.761 205.200 C 297.986 205.200,297.941 205.042,298.162 203.100 C 298.793 197.552,298.875 195.115,298.445 194.685 C 298.158 194.398,298.000 192.136,298.000 188.320 C 298.000 184.640,297.849 182.400,297.600 182.400 C 297.375 182.400,297.200 181.275,297.200 179.824 C 297.200 178.407,297.020 177.136,296.800 177.000 C 296.580 176.864,296.400 175.773,296.400 174.576 C 296.400 173.379,296.220 172.400,296.000 172.400 C 295.780 172.400,295.600 171.691,295.600 170.824 C 295.600 169.957,295.420 169.136,295.200 169.000 C 294.980 168.864,294.800 168.043,294.800 167.176 C 294.800 166.309,294.620 165.600,294.400 165.600 C 294.180 165.600,294.000 164.970,294.000 164.200 C 294.000 163.430,293.820 162.800,293.600 162.800 C 293.380 162.800,293.200 162.170,293.200 161.400 C 293.200 160.630,293.020 160.000,292.800 160.000 C 292.580 160.000,292.400 159.460,292.400 158.800 C 292.400 158.140,292.244 157.600,292.054 157.600 C 291.864 157.600,291.598 156.794,291.463 155.809 C 291.328 154.824,291.055 153.699,290.856 153.309 C 290.485 152.583,289.799 150.978,289.100 149.200 C 288.884 148.650,288.548 147.887,288.353 147.505 C 288.159 147.123,288.000 146.538,288.000 146.205 C 288.000 145.872,287.820 145.600,287.600 145.600 C 287.380 145.600,287.200 145.240,287.200 144.800 C 287.200 144.360,287.062 144.000,286.893 144.000 C 286.724 144.000,286.158 143.010,285.636 141.800 C 285.113 140.590,284.532 139.600,284.343 139.600 C 284.154 139.600,284.000 139.240,284.000 138.800 C 284.000 138.360,283.820 138.000,283.600 138.000 C 283.380 138.000,283.200 137.640,283.200 137.200 C 283.200 136.760,283.020 136.400,282.800 136.400 C 282.580 136.400,282.400 136.040,282.400 135.600 C 282.400 135.160,282.220 134.800,282.000 134.800 C 281.780 134.800,281.600 134.564,281.600 134.275 C 281.600 133.987,281.240 133.364,280.800 132.892 C 280.360 132.420,280.000 131.756,280.000 131.417 C 280.000 131.078,279.850 130.800,279.668 130.800 C 279.485 130.800,279.080 130.305,278.768 129.700 C 278.455 129.095,277.885 128.251,277.500 127.825 C 277.115 127.398,276.800 126.813,276.800 126.525 C 276.800 126.236,276.648 126.000,276.463 126.000 C 276.278 126.000,275.787 125.370,275.372 124.600 C 274.957 123.830,274.491 123.200,274.336 123.200 C 274.181 123.200,273.938 122.834,273.796 122.387 C 273.654 121.940,273.143 121.175,272.660 120.687 C 272.178 120.199,271.341 119.170,270.802 118.400 C 270.263 117.630,268.962 116.157,267.911 115.126 C 266.860 114.095,266.000 113.089,266.000 112.891 C 266.000 112.692,263.911 110.565,261.358 108.165 C 258.805 105.764,255.930 103.035,254.969 102.100 C 254.007 101.165,253.058 100.400,252.859 100.400 C 252.659 100.400,251.755 99.680,250.848 98.800 C 249.941 97.920,249.064 97.200,248.900 97.199 C 248.735 97.199,247.970 96.659,247.200 96.000 C 246.430 95.341,245.575 94.801,245.300 94.801 C 245.025 94.800,244.800 94.650,244.800 94.468 C 244.800 94.285,244.305 93.880,243.700 93.568 C 243.095 93.255,242.362 92.775,242.071 92.500 C 241.781 92.225,241.286 92.000,240.971 92.000 C 240.657 92.000,240.400 91.820,240.400 91.600 C 240.400 91.380,240.130 91.200,239.800 91.200 C 239.470 91.200,239.200 91.020,239.200 90.800 C 239.200 90.580,238.930 90.400,238.600 90.400 C 238.270 90.400,238.000 90.220,238.000 90.000 C 238.000 89.780,237.640 89.600,237.200 89.600 C 236.760 89.600,236.400 89.448,236.400 89.263 C 236.400 89.077,235.545 88.492,234.500 87.963 C 233.455 87.433,232.540 86.865,232.467 86.700 C 232.393 86.535,231.988 86.400,231.567 86.400 C 231.145 86.400,230.800 86.220,230.800 86.000 C 230.800 85.780,230.440 85.600,230.000 85.600 C 229.560 85.600,229.200 85.420,229.200 85.200 C 229.200 84.980,228.840 84.800,228.400 84.800 C 227.960 84.800,227.600 84.620,227.600 84.400 C 227.600 84.180,227.240 84.000,226.800 84.000 C 226.360 84.000,226.000 83.820,226.000 83.600 C 226.000 83.380,225.640 83.200,225.200 83.200 C 224.760 83.200,224.400 83.020,224.400 82.800 C 224.400 82.580,223.950 82.400,223.400 82.400 C 222.850 82.400,222.400 82.220,222.400 82.000 C 222.400 81.780,221.950 81.600,221.400 81.600 C 220.850 81.600,220.400 81.420,220.400 81.200 C 220.400 80.980,219.950 80.800,219.400 80.800 C 218.850 80.800,218.400 80.620,218.400 80.400 C 218.400 80.180,217.950 80.000,217.400 80.000 C 216.850 80.000,216.400 79.820,216.400 79.600 C 216.400 79.380,215.961 79.200,215.424 79.200 C 214.887 79.200,214.336 79.020,214.200 78.800 C 214.064 78.580,213.549 78.400,213.056 78.400 C 212.563 78.400,211.989 78.249,211.780 78.064 C 211.571 77.880,210.320 77.490,209.000 77.197 C 207.680 76.905,206.375 76.494,206.100 76.284 C 205.825 76.074,205.600 76.005,205.600 76.132 C 205.600 76.258,204.745 76.103,203.700 75.788 C 202.655 75.472,201.485 75.313,201.100 75.434 C 200.715 75.555,200.400 75.462,200.400 75.227 C 200.400 74.981,199.551 74.800,198.400 74.800 C 197.300 74.800,196.400 74.620,196.400 74.400 C 196.400 74.178,195.333 74.000,194.000 74.000 C 192.667 74.000,191.600 73.822,191.600 73.600 C 191.600 73.365,190.208 73.200,188.224 73.200 C 186.367 73.200,184.736 73.020,184.600 72.800 C 184.445 72.549,180.270 72.400,173.400 72.400 C 166.530 72.400,162.355 72.549,162.200 72.800 " stroke="none" fill="#fbcb44" fill-rule="evenodd"></path><path id="path3" d="M168.800 97.870 C 159.183 98.297,145.045 101.368,137.700 104.624 C 136.985 104.941,135.725 105.489,134.900 105.841 C 130.633 107.665,123.660 111.392,120.342 113.621 C 108.699 121.444,99.002 131.022,91.613 142.001 C 88.305 146.917,87.581 148.400,88.490 148.400 C 93.179 148.400,105.134 159.614,108.424 167.100 C 108.738 167.815,109.131 168.400,109.298 168.400 C 109.464 168.400,109.600 168.760,109.600 169.200 C 109.600 169.640,109.780 170.000,110.000 170.000 C 110.220 170.000,110.400 170.265,110.400 170.588 C 110.400 170.911,110.760 171.817,111.200 172.600 C 111.640 173.383,112.000 174.291,112.000 174.618 C 112.000 174.944,112.180 175.568,112.400 176.005 C 112.620 176.442,112.980 177.158,113.200 177.595 C 113.420 178.032,113.600 178.831,113.600 179.371 C 113.600 179.911,113.780 180.464,114.000 180.600 C 114.220 180.736,114.400 181.431,114.400 182.144 C 114.400 182.857,114.563 183.611,114.761 183.820 C 115.798 184.911,116.186 204.201,115.259 208.600 C 114.981 209.920,114.655 211.676,114.535 212.503 C 114.414 213.329,114.155 214.105,113.958 214.226 C 113.761 214.348,113.600 214.889,113.600 215.429 C 113.600 215.969,113.420 216.768,113.200 217.205 C 112.980 217.642,112.620 218.358,112.400 218.795 C 112.180 219.232,112.000 219.952,112.000 220.395 C 112.000 220.838,111.820 221.200,111.600 221.200 C 111.380 221.200,111.201 221.425,111.203 221.700 C 111.206 222.181,108.040 228.790,107.610 229.200 C 107.494 229.310,107.153 229.850,106.851 230.400 C 105.181 233.442,98.018 241.600,97.017 241.600 C 96.775 241.600,96.317 241.960,96.000 242.400 C 95.683 242.840,95.103 243.200,94.712 243.200 C 94.320 243.200,94.000 243.352,94.000 243.537 C 94.000 243.723,93.145 244.282,92.100 244.781 C 91.055 245.280,89.887 245.848,89.505 246.044 C 89.123 246.240,88.550 246.400,88.230 246.400 C 87.155 246.400,92.905 255.147,98.090 261.400 C 103.367 267.764,114.394 277.530,120.332 281.098 C 127.126 285.181,130.152 286.726,138.286 290.265 C 139.707 290.883,143.820 292.268,146.000 292.863 C 146.770 293.073,148.030 293.429,148.800 293.653 C 151.274 294.373,156.340 295.405,160.800 296.098 C 162.529 296.367,168.375 296.565,174.600 296.567 C 184.895 296.569,188.207 296.384,191.800 295.610 C 192.680 295.420,194.480 295.051,195.800 294.790 C 197.120 294.528,198.650 294.175,199.200 294.004 C 199.750 293.833,201.010 293.468,202.000 293.193 C 204.355 292.539,208.363 291.246,209.500 290.774 C 209.995 290.568,210.805 290.238,211.300 290.041 C 219.049 286.948,231.995 279.488,236.464 275.540 C 237.049 275.023,238.219 274.033,239.064 273.340 C 240.741 271.964,246.822 266.058,248.366 264.304 C 249.249 263.302,249.278 263.148,248.707 262.504 C 248.364 262.117,247.423 260.450,246.617 258.800 C 245.810 257.150,244.981 255.487,244.775 255.105 C 244.569 254.723,244.400 254.059,244.400 253.629 C 244.400 253.199,244.220 252.736,244.000 252.600 C 243.780 252.464,243.600 251.834,243.600 251.200 C 243.600 250.566,243.439 249.948,243.242 249.826 C 241.719 248.884,241.386 234.444,242.706 226.515 C 242.940 225.106,242.914 224.362,242.626 224.224 C 242.392 224.111,241.300 223.476,240.200 222.814 C 232.860 218.393,231.198 218.032,218.122 218.014 L 207.645 218.000 206.522 218.965 L 205.400 219.929 205.180 232.865 L 204.960 245.800 203.908 248.000 C 201.206 253.648,197.471 255.596,188.765 255.899 L 182.400 256.119 182.400 262.376 C 182.400 277.886,178.302 281.600,161.188 281.600 C 150.935 281.600,148.400 280.569,148.400 276.400 C 148.400 272.386,150.337 271.600,160.232 271.600 C 172.419 271.600,172.488 271.546,172.311 262.099 L 172.200 256.200 157.993 256.095 L 143.786 255.990 137.397 262.634 C 129.047 271.318,127.112 272.168,123.953 268.541 C 121.564 265.798,122.411 263.769,128.633 257.338 C 131.580 254.292,133.993 251.609,133.995 251.376 C 133.998 251.144,131.586 248.586,128.636 245.694 C 122.110 239.296,121.452 237.547,124.407 234.455 C 127.317 231.411,128.980 232.142,137.260 240.100 L 143.398 246.000 168.068 246.000 L 192.738 246.000 193.980 244.759 L 195.221 243.517 195.111 237.859 L 195.000 232.200 180.000 232.000 C 165.187 231.802,164.976 231.788,163.076 230.845 C 158.471 228.558,155.529 223.986,155.269 218.713 C 155.143 216.155,154.956 215.453,154.177 214.613 L 153.238 213.600 145.519 213.591 C 135.425 213.580,133.200 212.642,133.200 208.400 C 133.200 204.353,135.013 203.441,143.400 203.268 C 158.777 202.951,164.363 206.384,165.160 216.645 C 165.402 219.753,165.538 220.188,166.537 221.047 L 167.645 222.000 181.422 222.000 L 195.200 222.000 195.200 220.694 C 195.200 216.972,198.848 211.232,202.211 209.662 C 202.755 209.408,203.678 208.975,204.262 208.700 C 205.693 208.026,231.231 207.985,233.000 208.654 C 233.660 208.903,235.010 209.346,236.000 209.638 C 237.744 210.153,241.187 211.834,244.718 213.895 C 245.663 214.446,246.489 214.830,246.554 214.749 C 246.619 214.667,247.209 213.610,247.866 212.400 C 248.523 211.190,249.463 209.538,249.954 208.728 L 250.846 207.256 247.901 205.268 C 244.314 202.848,241.687 199.957,240.087 196.670 C 238.195 192.785,237.985 192.005,237.683 187.777 L 237.400 183.800 207.679 183.697 L 177.959 183.595 174.479 187.149 C 172.566 189.103,169.995 191.759,168.767 193.051 C 163.279 198.823,161.270 199.465,158.338 196.383 C 155.390 193.284,155.835 192.151,162.900 184.768 C 165.705 181.837,168.000 179.242,168.000 179.001 C 168.000 178.760,165.689 176.321,162.865 173.581 C 156.251 167.164,155.709 166.056,157.700 163.014 C 160.746 158.360,163.124 159.570,175.914 172.283 C 177.294 173.655,176.587 173.628,208.000 173.510 L 237.400 173.400 237.400 166.261 L 237.400 159.123 236.200 158.163 L 235.000 157.204 214.800 157.196 C 192.703 157.188,192.990 157.215,189.170 154.775 C 187.221 153.530,185.347 151.213,184.178 148.600 C 183.570 147.242,183.427 145.384,183.231 136.317 C 182.947 123.191,183.826 124.430,174.787 124.413 L 168.173 124.400 158.347 134.500 C 147.251 145.905,146.777 146.241,143.826 144.812 C 141.999 143.928,140.800 142.153,140.800 140.333 C 140.800 138.674,142.063 137.021,148.133 130.740 L 154.065 124.600 149.533 124.368 C 142.697 124.018,140.322 122.350,140.962 118.348 C 141.655 114.015,141.735 113.999,163.080 114.004 C 185.478 114.010,187.196 114.388,190.881 120.125 C 193.096 123.573,193.187 124.149,193.196 134.800 C 193.204 144.538,193.210 144.608,194.164 145.800 L 195.123 147.000 216.262 147.213 C 236.992 147.422,237.437 147.443,239.325 148.310 C 241.860 149.473,245.032 152.508,246.318 155.000 L 247.350 157.000 247.575 173.400 L 247.800 189.800 249.000 192.169 C 250.221 194.581,252.733 196.972,255.185 198.058 C 255.853 198.353,256.400 198.731,256.400 198.898 C 256.400 199.610,257.443 199.085,259.176 197.500 C 260.199 196.565,261.581 195.332,262.247 194.760 C 264.219 193.067,269.240 189.823,271.511 188.774 L 273.621 187.800 273.385 185.200 C 272.333 173.626,267.022 157.703,260.777 147.400 C 260.110 146.300,259.462 145.085,259.336 144.700 C 259.210 144.315,258.977 144.000,258.818 144.000 C 258.659 144.000,258.315 143.532,258.054 142.960 C 256.939 140.511,249.824 131.804,245.010 126.997 C 236.749 118.747,228.799 112.951,219.200 108.181 C 217.770 107.470,215.970 106.620,215.200 106.291 C 214.430 105.962,212.947 105.312,211.904 104.847 C 210.862 104.381,209.747 104.000,209.428 104.000 C 209.109 104.000,208.749 103.841,208.630 103.648 C 208.510 103.454,208.004 103.201,207.506 103.086 C 207.008 102.971,204.710 102.315,202.400 101.630 C 196.374 99.841,188.293 98.429,181.600 97.993 C 176.021 97.631,174.504 97.616,168.800 97.870 " stroke="none" fill="#ebebeb" fill-rule="evenodd"></path><path id="path4" d="M142.854 115.416 C 140.653 117.268,140.458 120.397,142.422 122.361 C 143.759 123.697,145.202 123.990,150.500 123.996 C 152.645 123.998,154.392 124.135,154.383 124.300 C 154.374 124.465,151.490 127.569,147.975 131.197 C 140.467 138.948,139.631 140.761,142.236 143.640 C 145.479 147.223,148.860 144.754,165.982 126.300 L 168.116 124.000 174.232 124.000 C 183.978 124.000,183.600 123.484,183.600 136.765 C 183.600 148.975,184.295 151.201,189.161 154.573 C 192.904 157.167,193.234 157.200,215.404 157.200 L 235.483 157.200 236.542 158.181 L 237.600 159.162 237.600 166.381 L 237.600 173.600 207.300 173.591 L 177.000 173.581 171.200 167.975 C 162.441 159.508,159.817 158.695,157.578 163.757 C 156.304 166.637,156.831 167.583,163.011 173.523 C 165.975 176.372,168.393 178.860,168.385 179.052 C 168.377 179.243,165.943 181.920,162.977 185.000 C 156.825 191.388,156.314 192.343,157.612 195.024 C 158.050 195.929,158.811 196.862,159.304 197.098 C 162.732 198.740,163.232 198.459,170.961 190.533 L 177.721 183.600 207.661 183.600 L 237.600 183.600 237.603 185.300 C 237.619 194.143,242.440 202.494,249.700 206.251 C 250.305 206.564,250.800 207.097,250.800 207.434 C 250.800 207.771,250.972 207.941,251.183 207.811 C 251.912 207.360,251.121 206.442,248.566 204.778 C 244.382 202.052,241.405 198.414,239.583 193.800 C 238.894 192.055,238.691 190.841,238.451 187.000 L 238.200 183.000 207.936 182.897 L 177.672 182.795 173.936 186.651 C 163.802 197.112,163.701 197.200,161.885 197.200 C 159.050 197.200,157.160 194.665,157.921 191.882 C 158.074 191.320,160.630 188.319,163.600 185.215 C 166.570 182.110,169.069 179.371,169.152 179.128 C 169.236 178.884,166.774 176.236,163.681 173.243 C 157.513 167.274,156.997 166.392,158.194 163.870 C 158.965 162.245,161.712 160.752,162.493 161.533 C 162.750 161.790,163.220 162.000,163.537 162.000 C 163.855 162.000,165.754 163.600,167.757 165.556 C 169.761 167.512,172.637 170.303,174.149 171.758 L 176.898 174.405 207.549 174.302 L 238.200 174.200 238.310 167.207 C 238.493 155.540,240.939 156.649,214.459 156.390 L 193.000 156.181 191.247 155.190 C 185.095 151.714,184.010 148.768,184.004 135.513 L 184.000 126.027 182.587 124.613 L 181.173 123.200 174.679 123.200 L 168.184 123.200 160.592 131.074 C 146.005 146.203,145.922 146.260,142.831 143.169 C 140.234 140.572,140.685 139.555,147.600 132.412 C 153.072 126.759,155.585 123.900,155.378 123.564 C 155.254 123.364,152.657 123.200,149.607 123.200 L 144.062 123.200 142.831 121.969 C 141.592 120.730,140.977 117.200,142.000 117.200 C 142.220 117.200,142.400 116.995,142.400 116.744 C 142.400 115.292,143.317 115.226,163.505 115.213 C 174.343 115.206,183.523 115.359,183.905 115.553 C 184.287 115.748,185.131 116.153,185.779 116.453 C 187.683 117.335,191.200 121.052,191.200 122.181 C 191.200 122.495,191.360 122.852,191.556 122.973 C 192.256 123.406,192.507 126.345,192.666 135.977 L 192.828 145.754 194.086 146.877 L 195.344 148.000 215.572 148.006 C 236.902 148.012,236.949 148.016,240.543 149.874 C 242.208 150.735,244.567 153.289,245.467 155.206 C 246.697 157.823,246.800 159.266,246.800 173.788 C 246.800 189.933,246.914 190.929,249.108 194.000 C 250.267 195.622,252.806 197.996,253.396 198.009 C 253.618 198.014,254.250 198.370,254.800 198.800 C 256.448 200.089,257.626 199.821,259.617 197.704 C 261.244 195.973,260.704 196.327,258.093 198.700 C 257.042 199.655,253.023 197.596,250.490 194.803 C 247.763 191.798,247.821 192.210,247.586 174.400 C 247.319 154.302,246.625 152.018,239.782 148.747 L 237.800 147.800 216.800 147.600 C 194.816 147.391,194.546 147.368,193.609 145.617 C 193.364 145.159,193.200 141.122,193.200 135.538 C 193.200 122.431,192.188 119.624,186.161 116.000 L 183.832 114.600 163.967 114.483 L 144.103 114.365 142.854 115.416 M270.977 189.171 C 268.758 190.378,262.895 194.260,262.100 195.048 C 260.951 196.186,261.725 195.953,263.300 194.687 C 266.572 192.056,271.529 189.079,274.000 188.262 C 274.397 188.130,274.329 188.064,273.800 188.066 C 273.360 188.068,272.089 188.565,270.977 189.171 M274.540 197.200 C 274.540 199.070,274.609 199.835,274.693 198.900 C 274.777 197.965,274.777 196.435,274.693 195.500 C 274.609 194.565,274.540 195.330,274.540 197.200 M136.400 203.863 C 134.080 204.785,132.796 207.860,133.764 210.177 C 134.906 212.909,135.967 213.197,144.894 213.199 L 152.787 213.200 154.019 214.300 C 155.144 215.306,155.277 215.692,155.561 218.800 C 156.183 225.607,159.285 229.528,165.553 231.431 C 166.984 231.865,170.533 231.992,181.300 231.996 L 195.200 232.000 195.200 237.945 C 195.200 243.836,195.190 243.901,194.145 244.945 L 193.091 246.000 168.045 245.987 L 143.000 245.973 136.600 239.798 C 129.121 232.581,127.111 231.715,124.441 234.557 C 121.635 237.543,122.316 239.252,128.844 245.615 C 131.900 248.593,134.400 251.188,134.400 251.381 C 134.400 251.574,132.253 253.908,129.628 256.566 C 122.595 263.689,121.850 265.164,123.878 267.941 C 126.807 271.952,128.604 271.231,137.192 262.597 L 144.151 255.600 158.301 255.600 L 172.452 255.600 172.326 262.590 C 172.155 272.107,173.111 271.341,161.071 271.600 C 150.627 271.824,150.144 271.948,148.968 274.708 C 148.114 276.710,148.871 278.996,150.829 280.324 C 152.952 281.766,171.118 281.532,174.183 280.024 C 180.301 277.013,181.655 274.125,181.974 263.400 L 182.200 255.800 188.600 255.573 C 192.120 255.448,195.450 255.193,196.000 255.005 C 199.353 253.859,201.983 251.491,203.581 248.178 L 204.800 245.650 204.800 233.612 C 204.800 216.542,203.501 218.000,218.708 218.000 C 230.846 218.000,232.236 218.203,236.607 220.612 C 237.593 221.155,239.255 222.069,240.300 222.642 C 243.204 224.234,243.235 224.278,243.022 226.554 L 242.831 228.600 243.249 226.481 C 243.687 224.263,243.331 223.200,242.151 223.200 C 241.848 223.200,241.600 223.041,241.600 222.847 C 241.600 222.652,241.285 222.393,240.900 222.271 C 240.174 222.041,237.950 220.766,237.600 220.379 C 237.303 220.051,234.871 218.957,232.600 218.129 C 230.832 217.485,229.214 217.400,218.657 217.400 L 206.713 217.400 205.567 218.772 L 204.422 220.144 204.283 232.572 C 204.207 239.407,203.996 245.540,203.813 246.200 C 202.861 249.647,197.953 254.400,195.345 254.400 C 194.851 254.400,194.336 254.580,194.200 254.800 C 194.053 255.037,191.556 255.200,188.056 255.200 C 180.601 255.200,181.200 254.455,181.200 263.724 L 181.200 271.288 179.943 273.647 C 178.366 276.605,177.405 277.566,174.447 279.143 L 172.088 280.400 162.006 280.400 C 149.974 280.400,149.600 280.290,149.600 276.746 C 149.600 272.374,150.568 272.000,161.880 272.000 L 170.462 272.000 171.631 270.831 L 172.800 269.662 172.800 262.431 L 172.800 255.200 158.122 255.200 L 143.443 255.200 136.688 262.200 L 129.932 269.200 127.786 269.200 C 125.823 269.200,125.554 269.086,124.620 267.862 C 122.550 265.149,122.905 264.365,129.100 257.978 C 132.125 254.859,134.763 252.025,134.962 251.679 C 135.245 251.186,134.060 249.827,129.462 245.373 C 122.755 238.877,122.294 237.883,124.760 235.242 C 127.537 232.270,128.654 232.874,138.921 242.891 C 143.386 247.248,140.392 246.870,169.218 246.723 L 193.437 246.600 194.612 245.425 C 195.814 244.222,196.634 235.381,195.838 232.207 L 195.585 231.200 180.750 231.200 L 165.914 231.200 163.433 230.016 C 160.749 228.735,158.631 226.957,158.210 225.632 C 158.065 225.174,157.778 224.800,157.573 224.800 C 157.368 224.800,157.200 224.476,157.200 224.080 C 157.200 223.684,157.031 223.189,156.824 222.980 C 156.617 222.771,156.325 221.160,156.176 219.400 C 155.612 212.768,154.978 212.400,144.122 212.400 L 136.271 212.400 135.136 211.128 C 133.222 208.985,133.831 205.929,136.440 204.580 C 137.835 203.858,152.293 203.745,154.440 204.440 C 160.723 206.470,163.919 210.467,164.311 216.784 C 164.510 219.978,164.608 220.285,165.827 221.505 L 167.130 222.810 181.465 222.705 L 195.800 222.600 196.139 220.200 C 196.703 216.208,200.542 210.400,202.616 210.400 C 202.937 210.400,203.200 210.220,203.200 210.000 C 203.200 209.780,203.639 209.600,204.176 209.600 C 204.713 209.600,205.264 209.420,205.400 209.200 C 205.556 208.947,210.330 208.800,218.400 208.800 C 226.470 208.800,231.244 208.947,231.400 209.200 C 231.536 209.420,232.256 209.600,233.000 209.600 C 233.744 209.600,234.464 209.780,234.600 210.000 C 234.736 210.220,235.199 210.400,235.629 210.400 C 236.059 210.400,236.723 210.560,237.105 210.756 C 237.487 210.952,238.700 211.535,239.800 212.051 C 240.900 212.567,241.890 213.103,242.000 213.243 C 242.759 214.207,246.458 215.650,247.005 215.196 C 247.872 214.476,247.734 213.910,246.829 214.475 C 246.181 214.879,245.752 214.766,244.129 213.763 C 236.170 208.840,233.323 208.230,218.200 208.214 L 205.800 208.200 203.552 209.254 C 199.090 211.346,196.465 214.770,195.525 219.724 L 195.018 222.400 181.809 222.360 C 164.781 222.309,165.300 222.494,164.807 216.292 C 164.381 210.921,162.055 207.295,157.514 204.923 C 155.436 203.838,138.593 202.992,136.400 203.863 M249.014 210.635 C 248.641 211.204,248.427 211.761,248.539 211.872 C 248.650 211.983,249.029 211.518,249.381 210.837 C 250.159 209.333,249.944 209.215,249.014 210.635 M242.256 229.684 C 242.121 230.188,242.037 232.130,242.068 234.000 L 242.125 237.400 242.404 233.200 C 242.695 228.820,242.667 228.151,242.256 229.684 M242.028 241.633 C 242.044 243.265,242.202 244.960,242.380 245.400 C 242.560 245.845,242.613 244.602,242.499 242.600 C 242.247 238.165,241.990 237.638,242.028 241.633 M242.806 247.433 C 242.809 248.075,242.984 248.870,243.195 249.200 C 243.455 249.609,243.499 249.290,243.332 248.200 C 243.029 246.223,242.798 245.886,242.806 247.433 M243.600 250.910 C 243.600 251.483,243.787 252.068,244.016 252.210 C 244.289 252.379,244.338 252.077,244.160 251.334 C 243.792 249.801,243.600 249.656,243.600 250.910 M244.400 253.084 C 244.400 253.651,245.563 256.400,245.802 256.400 C 245.907 256.400,245.696 255.635,245.332 254.700 C 244.595 252.807,244.400 252.469,244.400 253.084 M246.009 257.233 C 246.014 257.545,246.385 258.250,246.833 258.800 L 247.648 259.800 246.973 258.400 C 246.148 256.688,245.997 256.506,246.009 257.233 " stroke="none" fill="#ed9095" fill-rule="evenodd"></path><path id="path5" d="M167.400 97.387 C 160.218 97.995,157.639 98.393,150.400 100.009 C 144.119 101.411,136.974 104.096,129.400 107.900 C 126.980 109.115,124.596 110.310,124.103 110.555 C 123.610 110.800,123.205 111.135,123.203 111.300 C 123.201 111.465,123.000 111.600,122.755 111.600 C 122.162 111.600,115.349 116.321,111.600 119.330 C 106.638 123.313,100.527 129.487,95.470 135.628 C 92.144 139.668,86.107 149.405,87.800 148.000 C 88.130 147.726,88.400 147.339,88.400 147.139 C 88.400 146.406,94.805 137.287,97.910 133.600 C 104.121 126.225,111.920 119.279,120.342 113.621 C 123.639 111.406,130.717 107.620,134.800 105.889 C 135.570 105.562,136.830 105.014,137.600 104.671 C 155.049 96.897,182.165 95.624,202.400 101.630 C 204.710 102.315,207.008 102.971,207.506 103.086 C 208.004 103.201,208.510 103.454,208.630 103.648 C 208.749 103.841,209.109 104.000,209.428 104.000 C 209.747 104.000,210.862 104.381,211.904 104.847 C 212.947 105.312,214.430 105.962,215.200 106.291 C 219.910 108.303,225.732 111.555,230.600 114.895 C 240.723 121.839,255.152 136.589,258.054 142.960 C 258.315 143.532,258.659 144.000,258.818 144.000 C 258.977 144.000,259.210 144.315,259.336 144.700 C 259.462 145.085,260.110 146.300,260.777 147.400 C 267.039 157.730,272.276 173.446,273.406 185.300 C 273.548 186.785,273.853 188.000,274.085 188.000 C 274.356 188.000,274.409 187.395,274.234 186.300 C 274.085 185.365,273.799 183.520,273.599 182.200 C 273.013 178.326,272.789 177.083,272.409 175.600 C 272.212 174.830,271.836 173.300,271.575 172.200 C 269.822 164.834,265.247 153.687,261.304 147.178 C 260.697 146.175,259.669 144.465,259.019 143.378 C 258.370 142.290,257.728 141.310,257.593 141.200 C 257.458 141.090,256.741 140.100,256.001 139.000 C 252.530 133.846,244.628 125.253,239.200 120.731 C 235.987 118.055,229.667 113.365,228.451 112.756 C 227.873 112.466,226.950 111.929,226.400 111.562 C 220.764 107.802,209.904 103.068,202.200 101.013 C 193.090 98.584,188.598 97.796,181.600 97.403 C 179.290 97.273,176.500 97.102,175.400 97.022 C 174.300 96.943,170.700 97.107,167.400 97.387 M153.700 114.300 C 158.925 114.363,167.475 114.363,172.700 114.300 C 177.925 114.236,173.650 114.185,163.200 114.185 C 152.750 114.185,148.475 114.236,153.700 114.300 M150.160 124.299 L 154.121 124.430 152.960 125.715 L 151.800 127.000 153.100 125.825 C 154.998 124.110,154.809 123.992,150.300 124.084 L 146.200 124.167 150.160 124.299 M166.185 126.100 L 164.200 128.200 166.203 126.311 L 168.206 124.421 174.603 124.300 L 181.000 124.178 174.585 124.089 L 168.170 124.000 166.185 126.100 M183.372 136.000 C 183.372 141.170,183.429 143.285,183.499 140.700 C 183.568 138.115,183.568 133.885,183.499 131.300 C 183.429 128.715,183.372 130.830,183.372 136.000 M156.187 136.500 L 153.800 139.000 156.300 136.613 C 158.622 134.395,158.983 134.000,158.687 134.000 C 158.626 134.000,157.501 135.125,156.187 136.500 M142.975 136.100 L 141.800 137.400 143.100 136.225 C 143.815 135.579,144.400 134.994,144.400 134.925 C 144.400 134.616,144.070 134.888,142.975 136.100 M195.737 147.294 C 195.992 147.456,204.930 147.551,215.600 147.506 C 226.270 147.461,232.570 147.375,229.600 147.314 C 216.175 147.040,195.318 147.028,195.737 147.294 M168.600 165.600 C 170.350 167.360,171.871 168.800,171.981 168.800 C 172.091 168.800,170.750 167.360,169.000 165.600 C 167.250 163.840,165.729 162.400,165.619 162.400 C 165.509 162.400,166.850 163.840,168.600 165.600 M166.900 177.422 C 168.193 178.859,168.224 179.071,167.300 180.169 C 166.601 180.999,166.601 180.999,167.500 180.238 C 168.702 179.220,168.638 178.765,167.100 177.375 L 165.800 176.200 166.900 177.422 M158.575 189.300 L 157.400 190.600 158.700 189.425 C 159.912 188.330,160.184 188.000,159.875 188.000 C 159.806 188.000,159.221 188.585,158.575 189.300 M141.280 203.498 C 143.194 203.571,146.434 203.571,148.480 203.498 C 150.526 203.426,148.960 203.366,145.000 203.365 C 141.040 203.365,139.366 203.424,141.280 203.498 M226.900 208.276 C 227.285 208.376,227.915 208.376,228.300 208.276 C 228.685 208.175,228.370 208.093,227.600 208.093 C 226.830 208.093,226.515 208.175,226.900 208.276 M141.300 213.498 C 143.445 213.570,146.955 213.570,149.100 213.498 C 151.245 213.426,149.490 213.367,145.200 213.367 C 140.910 213.367,139.155 213.426,141.300 213.498 M164.924 216.600 C 164.926 217.920,165.001 218.412,165.090 217.693 C 165.179 216.974,165.177 215.894,165.086 215.293 C 164.995 214.692,164.922 215.280,164.924 216.600 M155.324 219.000 C 155.326 220.320,155.401 220.812,155.490 220.093 C 155.579 219.374,155.577 218.294,155.486 217.693 C 155.395 217.092,155.322 217.680,155.324 219.000 M204.976 232.400 C 204.976 238.670,205.032 241.235,205.099 238.100 C 205.167 234.965,205.167 229.835,205.099 226.700 C 205.032 223.565,204.976 226.130,204.976 232.400 M174.874 222.299 C 178.545 222.365,184.665 222.365,188.474 222.299 C 192.283 222.234,189.280 222.180,181.800 222.180 C 174.320 222.179,171.203 222.233,174.874 222.299 M132.600 236.000 C 133.683 237.100,134.660 238.000,134.770 238.000 C 134.880 238.000,134.083 237.100,133.000 236.000 C 131.917 234.900,130.940 234.000,130.830 234.000 C 130.720 234.000,131.517 234.900,132.600 236.000 M241.724 237.400 C 241.726 238.720,241.801 239.212,241.890 238.493 C 241.979 237.774,241.977 236.694,241.886 236.093 C 241.795 235.492,241.722 236.080,241.724 237.400 M141.400 244.400 C 142.259 245.280,143.052 246.000,143.162 246.000 C 143.272 246.000,142.659 245.280,141.800 244.400 C 140.941 243.520,140.148 242.800,140.038 242.800 C 139.928 242.800,140.541 243.520,141.400 244.400 M87.200 246.600 C 87.200 247.047,92.057 254.597,92.432 254.733 C 92.634 254.807,92.800 255.044,92.800 255.260 C 92.800 255.477,93.621 256.677,94.624 257.927 C 95.628 259.177,97.017 260.920,97.711 261.800 C 106.611 273.076,123.871 285.425,138.200 290.769 C 139.520 291.261,140.913 291.830,141.295 292.032 C 141.677 292.234,142.264 292.400,142.600 292.400 C 142.936 292.400,143.523 292.562,143.905 292.761 C 144.287 292.960,145.410 293.340,146.400 293.607 C 147.390 293.874,148.650 294.230,149.200 294.397 C 158.132 297.112,177.891 298.381,187.600 296.862 C 192.571 296.085,198.174 294.920,201.400 293.994 C 202.280 293.741,203.497 293.438,204.105 293.321 C 204.713 293.204,205.308 292.949,205.429 292.754 C 205.549 292.559,205.999 292.400,206.429 292.400 C 206.859 292.400,207.523 292.241,207.905 292.047 C 208.287 291.852,209.140 291.471,209.800 291.200 C 210.460 290.929,211.313 290.548,211.695 290.353 C 212.077 290.159,212.594 290.000,212.843 290.000 C 214.171 290.000,227.263 282.911,231.200 280.061 C 233.880 278.121,237.003 275.797,237.466 275.400 C 237.722 275.180,238.982 274.113,240.266 273.028 C 243.199 270.549,249.600 264.033,249.600 263.524 C 249.600 263.315,247.658 265.091,245.285 267.472 C 242.912 269.852,240.195 272.430,239.249 273.200 C 238.302 273.970,237.049 275.023,236.464 275.540 C 235.879 276.057,232.880 278.158,229.800 280.210 C 223.343 284.510,217.220 287.697,209.400 290.827 C 208.282 291.275,204.151 292.595,202.000 293.193 C 201.010 293.468,199.750 293.833,199.200 294.004 C 198.650 294.175,197.120 294.528,195.800 294.790 C 194.480 295.051,192.680 295.420,191.800 295.610 C 188.207 296.384,184.895 296.569,174.600 296.567 C 168.375 296.565,162.529 296.367,160.800 296.098 C 156.323 295.403,151.329 294.384,148.700 293.630 C 147.875 293.394,146.615 293.038,145.900 292.841 C 143.752 292.247,139.658 290.862,138.286 290.265 C 130.152 286.726,127.126 285.181,120.332 281.098 C 110.099 274.948,96.336 260.905,89.840 249.985 C 88.141 247.129,87.200 245.922,87.200 246.600 M132.252 249.200 C 133.161 250.190,134.001 251.270,134.120 251.600 C 134.309 252.122,134.341 252.120,134.368 251.583 C 134.386 251.244,133.545 250.164,132.500 249.183 L 130.600 247.400 132.252 249.200 M131.781 254.100 L 130.200 255.800 131.900 254.219 C 133.481 252.748,133.784 252.400,133.481 252.400 C 133.416 252.400,132.651 253.165,131.781 254.100 M148.800 255.885 C 161.440 256.166,172.401 256.173,172.400 255.900 C 172.400 255.735,165.965 255.639,158.100 255.687 C 150.235 255.735,146.050 255.824,148.800 255.885 M182.177 256.116 C 182.068 256.400,182.034 259.505,182.100 263.016 L 182.222 269.400 182.311 262.712 L 182.400 256.025 187.300 255.899 L 192.200 255.773 187.287 255.686 C 183.581 255.621,182.326 255.727,182.177 256.116 M132.989 266.900 L 130.200 269.800 133.100 267.011 C 135.794 264.420,136.183 264.000,135.889 264.000 C 135.828 264.000,134.523 265.305,132.989 266.900 M123.200 267.464 C 123.200 267.682,123.695 268.297,124.300 268.830 L 125.400 269.800 124.400 268.600 C 123.850 267.940,123.355 267.325,123.300 267.233 C 123.245 267.142,123.200 267.245,123.200 267.464 M170.914 270.280 C 170.427 270.786,170.174 271.200,170.352 271.200 C 170.742 271.200,172.198 269.645,171.964 269.477 C 171.874 269.413,171.401 269.774,170.914 270.280 M156.878 281.498 C 159.231 281.569,163.191 281.569,165.678 281.499 C 168.165 281.429,166.240 281.371,161.400 281.370 C 156.560 281.370,154.525 281.428,156.878 281.498 " stroke="none" fill="#f1d298" fill-rule="evenodd"></path><path id="path6" d="M82.905 148.287 C 83.514 148.379,84.414 148.377,84.905 148.282 C 85.397 148.187,84.900 148.111,83.800 148.114 C 82.700 148.117,82.297 148.195,82.905 148.287 M79.200 148.800 C 78.405 149.314,79.404 149.314,80.600 148.800 L 81.400 148.456 80.600 148.434 C 80.160 148.422,79.530 148.587,79.200 148.800 M74.800 151.025 C 71.571 153.297,64.994 161.127,65.711 161.845 C 65.819 161.952,66.439 161.175,67.090 160.117 C 69.091 156.866,72.343 153.246,74.625 151.731 C 75.821 150.937,76.800 150.222,76.800 150.143 C 76.800 149.800,76.103 150.108,74.800 151.025 M63.792 165.457 C 62.992 167.185,62.171 168.913,61.969 169.295 C 61.766 169.677,61.600 170.264,61.600 170.600 C 61.600 170.936,61.442 171.523,61.249 171.905 C 60.680 173.033,60.000 175.396,60.000 176.248 C 60.000 176.684,59.838 177.211,59.641 177.420 C 59.444 177.629,59.180 178.520,59.056 179.400 C 58.932 180.280,58.611 182.260,58.342 183.800 C 57.725 187.339,57.722 207.181,58.338 210.800 C 58.581 212.230,58.894 214.166,59.032 215.103 C 59.171 216.039,59.445 216.905,59.642 217.026 C 59.839 217.148,60.000 217.856,60.000 218.600 C 60.000 219.344,60.180 220.064,60.400 220.200 C 60.620 220.336,60.800 220.977,60.800 221.624 C 60.800 222.271,60.980 222.800,61.200 222.800 C 61.420 222.800,61.600 223.239,61.600 223.776 C 61.600 224.313,61.780 224.864,62.000 225.000 C 62.220 225.136,62.400 225.561,62.400 225.945 C 62.400 226.723,64.401 230.933,64.651 230.682 C 64.739 230.595,64.358 229.500,63.805 228.251 C 62.458 225.204,60.400 218.905,60.400 217.827 C 60.400 217.350,60.238 216.789,60.041 216.580 C 59.844 216.371,59.579 215.480,59.453 214.600 C 59.326 213.720,59.027 211.830,58.787 210.400 C 56.920 199.279,58.095 183.707,61.654 172.400 C 62.833 168.653,63.347 167.328,64.826 164.222 C 65.239 163.354,65.503 162.569,65.412 162.478 C 65.321 162.387,64.592 163.728,63.792 165.457 M64.824 231.295 C 64.743 232.301,68.678 237.881,71.400 240.622 C 76.081 245.336,81.248 247.459,85.649 246.477 C 87.282 246.112,87.166 246.083,83.933 246.043 C 80.130 245.996,78.193 245.376,74.881 243.146 C 71.550 240.903,69.753 238.761,65.324 231.754 C 65.061 231.339,64.836 231.133,64.824 231.295 " stroke="none" fill="#97bd78" fill-rule="evenodd"></path><path id="path7" d="M84.600 148.809 C 86.580 148.967,88.707 149.300,89.326 149.549 C 91.110 150.264,91.162 150.016,89.400 149.200 C 88.216 148.652,86.917 148.467,84.400 148.490 L 81.000 148.521 84.600 148.809 M92.833 150.962 C 92.925 151.051,94.080 151.929,95.400 152.913 C 101.014 157.095,105.552 162.715,108.958 169.700 C 110.433 172.726,111.152 173.778,110.410 171.825 C 107.599 164.432,96.362 150.839,93.033 150.804 C 92.832 150.802,92.742 150.873,92.833 150.962 M110.812 173.620 C 110.805 173.961,110.949 174.411,111.130 174.620 C 111.312 174.829,111.693 175.810,111.978 176.800 C 112.262 177.790,112.567 178.851,112.657 179.157 C 112.746 179.464,112.923 179.611,113.050 179.484 C 113.281 179.252,111.850 174.750,111.181 173.610 C 110.863 173.067,110.823 173.068,110.812 173.620 M113.389 181.000 C 113.773 183.695,114.384 186.516,114.635 186.751 C 115.031 187.120,114.440 183.476,113.786 181.506 C 113.380 180.286,113.267 180.142,113.389 181.000 M114.877 188.800 C 114.867 189.570,115.003 191.010,115.180 192.000 L 115.500 193.800 115.503 191.800 C 115.504 190.700,115.368 189.260,115.200 188.600 L 114.895 187.400 114.877 188.800 M115.038 203.730 C 114.867 205.451,114.817 206.950,114.928 207.061 C 115.203 207.336,115.722 202.303,115.516 201.358 C 115.425 200.941,115.210 202.008,115.038 203.730 M114.276 208.810 C 114.130 209.355,114.027 210.250,114.046 210.800 C 114.071 211.518,114.184 211.357,114.449 210.227 C 114.855 208.495,114.700 207.225,114.276 208.810 M113.387 213.053 C 113.248 213.684,112.952 214.686,112.727 215.280 C 112.503 215.873,112.394 216.583,112.486 216.857 C 112.577 217.130,112.969 216.223,113.356 214.841 C 113.744 213.459,113.966 212.233,113.850 212.117 C 113.734 212.001,113.526 212.422,113.387 213.053 M111.771 218.243 C 107.560 231.134,96.851 243.513,88.300 245.376 C 87.695 245.507,87.200 245.776,87.200 245.973 C 87.200 246.170,88.089 246.006,89.175 245.609 C 96.524 242.923,103.671 235.914,108.678 226.482 C 110.437 223.169,112.534 218.000,112.238 217.705 C 112.117 217.584,111.908 217.826,111.771 218.243 " stroke="none" fill="#98d0b4" fill-rule="evenodd"></path><path id="path8" d="M87.600 148.241 C 87.600 148.351,88.275 148.720,89.100 149.062 C 92.699 150.552,94.010 151.267,96.309 152.995 C 99.429 155.341,103.080 159.353,105.685 163.301 C 106.811 165.006,107.802 166.331,107.889 166.245 C 108.319 165.814,102.769 158.249,100.342 155.957 C 96.277 152.118,87.600 146.864,87.600 148.241 M110.417 171.900 C 110.426 172.065,110.778 172.830,111.200 173.600 C 112.121 175.282,112.265 174.655,111.371 172.861 C 110.767 171.652,110.381 171.263,110.417 171.900 M113.040 178.666 C 113.408 180.199,113.600 180.344,113.600 179.090 C 113.600 178.517,113.413 177.932,113.184 177.790 C 112.911 177.621,112.862 177.923,113.040 178.666 M113.840 181.466 C 114.208 182.999,114.400 183.144,114.400 181.890 C 114.400 181.317,114.213 180.732,113.984 180.590 C 113.711 180.421,113.662 180.723,113.840 181.466 M114.402 183.620 C 114.404 183.719,114.603 184.880,114.845 186.200 C 115.087 187.520,115.422 190.580,115.590 193.000 L 115.896 197.400 115.778 192.800 C 115.643 187.541,115.284 184.370,114.761 183.820 C 114.563 183.611,114.401 183.521,114.402 183.620 M115.683 200.600 C 115.637 202.360,115.329 205.330,115.000 207.200 C 114.301 211.166,114.277 211.610,114.800 210.800 C 115.013 210.470,115.191 209.642,115.194 208.960 C 115.197 208.278,115.387 207.183,115.615 206.528 C 115.844 205.873,115.971 203.551,115.899 201.368 C 115.769 197.456,115.766 197.445,115.683 200.600 M114.054 212.000 C 114.019 212.330,113.877 213.050,113.740 213.600 C 113.548 214.372,113.602 214.497,113.977 214.149 C 114.244 213.901,114.385 213.181,114.291 212.549 C 114.197 211.917,114.090 211.670,114.054 212.000 M112.711 216.805 C 112.333 217.989,112.104 219.037,112.202 219.136 C 112.301 219.234,112.492 218.974,112.627 218.557 C 112.762 218.141,113.054 217.419,113.276 216.953 C 113.497 216.486,113.616 215.779,113.539 215.380 C 113.458 214.957,113.112 215.553,112.711 216.805 M105.427 231.838 C 104.605 233.076,104.126 233.970,104.361 233.824 C 104.973 233.446,107.312 229.979,107.099 229.766 C 107.001 229.668,106.249 230.601,105.427 231.838 M100.268 238.014 C 98.326 239.986,96.899 241.600,97.097 241.600 C 97.494 241.600,104.000 235.049,104.000 234.649 C 104.000 234.234,103.920 234.306,100.268 238.014 M95.256 242.434 C 94.736 242.855,94.524 243.200,94.784 243.200 C 95.297 243.200,96.589 242.055,96.348 241.815 C 96.266 241.735,95.775 242.013,95.256 242.434 M91.800 244.434 C 89.470 245.771,89.944 246.017,92.362 244.726 C 93.547 244.094,94.853 242.834,93.900 243.243 C 93.845 243.267,92.900 243.802,91.800 244.434 M88.000 246.000 C 87.512 246.315,87.564 246.389,88.276 246.394 C 88.758 246.397,89.264 246.220,89.400 246.000 C 89.715 245.491,88.788 245.491,88.000 246.000 " stroke="none" fill="#cce4e4" fill-rule="evenodd"></path></g></svg>