<svg id="svg" version="1.1" xmlns="http://www.w3.org/2000/svg" xmlns:xlink="http://www.w3.org/1999/xlink" width="400" height="400" viewBox="0, 0, 400,400"><g id="svgg"><path id="path0" d="M40.892 31.216 C 39.872 31.625,38.452 33.005,37.700 34.317 C 37.063 35.428,36.966 65.600,37.600 65.600 C 37.820 65.600,38.000 65.788,38.000 66.018 C 38.000 66.546,39.593 68.154,40.704 68.749 C 41.241 69.036,44.174 69.200,48.774 69.200 L 56.000 69.200 56.000 87.600 L 56.000 106.000 53.624 106.000 C 52.317 106.000,51.136 106.180,51.000 106.400 C 50.864 106.620,50.324 106.800,49.800 106.800 C 49.276 106.800,48.736 106.980,48.600 107.200 C 48.464 107.420,48.003 107.600,47.576 107.600 C 47.149 107.600,46.800 107.780,46.800 108.000 C 46.800 108.220,46.530 108.400,46.200 108.400 C 45.870 108.400,45.240 108.760,44.800 109.200 C 44.360 109.640,43.865 110.045,43.700 110.100 C 43.535 110.155,43.445 110.335,43.500 110.500 C 43.555 110.665,43.375 110.801,43.100 110.803 C 42.825 110.804,42.150 111.466,41.600 112.274 C 41.050 113.081,40.419 113.935,40.198 114.171 C 39.793 114.603,38.487 117.242,37.651 119.319 C 37.340 120.091,37.200 126.023,37.200 138.447 C 37.200 157.426,37.184 157.600,35.429 157.600 C 35.083 157.600,34.800 157.744,34.800 157.920 C 34.800 158.095,34.170 158.467,33.400 158.746 C 32.630 159.024,32.000 159.450,32.000 159.693 C 32.000 159.935,31.900 160.033,31.777 159.910 C 31.520 159.654,28.800 162.351,28.800 162.861 C 28.800 163.048,28.530 163.200,28.200 163.200 C 27.867 163.200,27.600 163.556,27.600 164.000 C 27.600 164.440,27.270 165.130,26.867 165.533 C 26.463 165.937,26.178 166.567,26.231 166.933 C 26.285 167.300,26.183 167.600,26.004 167.600 C 24.990 167.600,24.800 170.862,24.800 188.288 C 24.800 207.437,24.785 207.600,23.029 207.600 C 22.683 207.600,22.400 207.780,22.400 208.000 C 22.400 208.220,22.040 208.400,21.600 208.400 C 21.160 208.400,20.800 208.591,20.800 208.824 C 20.800 209.057,20.631 209.143,20.425 209.015 C 20.218 208.888,19.864 209.102,19.637 209.492 C 19.410 209.881,19.219 210.030,19.212 209.822 C 19.205 209.614,18.595 210.104,17.856 210.911 C 17.117 211.718,16.397 212.263,16.256 212.123 C 16.115 211.982,16.000 212.152,16.000 212.500 C 16.000 212.848,15.864 213.193,15.698 213.267 C 15.405 213.396,13.378 217.427,12.440 219.743 C 11.860 221.178,11.844 255.600,12.424 255.600 C 12.631 255.600,12.800 255.890,12.800 256.246 C 12.800 256.954,14.306 259.889,15.100 260.729 C 15.375 261.019,15.600 261.425,15.600 261.631 C 15.600 262.218,19.617 266.000,20.241 266.000 C 20.548 266.000,20.800 266.180,20.800 266.400 C 20.800 266.620,21.070 266.800,21.400 266.800 C 21.730 266.800,22.000 266.951,22.000 267.136 C 22.000 267.321,22.765 267.698,23.700 267.975 C 24.635 268.252,25.713 268.640,26.095 268.839 C 26.477 269.038,27.878 269.200,29.209 269.200 C 31.504 269.200,31.606 269.241,31.200 269.999 C 30.653 271.021,30.682 305.720,31.229 305.382 C 31.433 305.256,31.600 305.613,31.600 306.176 C 31.600 306.739,31.780 307.200,32.000 307.200 C 32.220 307.200,32.400 307.472,32.400 307.805 C 32.400 308.380,33.147 309.969,33.619 310.400 C 33.740 310.510,34.274 311.230,34.806 312.000 C 36.207 314.027,39.653 316.800,40.772 316.800 C 41.007 316.800,41.200 316.980,41.200 317.200 C 41.200 317.420,41.549 317.600,41.976 317.600 C 43.185 317.600,43.159 317.177,43.227 337.907 C 43.282 354.652,43.377 357.582,43.871 357.772 C 44.190 357.894,44.344 358.168,44.213 358.380 C 44.082 358.591,44.241 359.403,44.567 360.182 C 44.893 360.962,45.033 361.603,44.880 361.606 C 44.726 361.609,44.789 361.744,45.020 361.906 C 45.252 362.068,45.995 363.190,46.672 364.400 C 48.496 367.657,53.977 372.800,55.625 372.800 C 55.837 372.800,56.368 372.980,56.805 373.200 C 57.242 373.420,57.958 373.780,58.395 374.000 C 58.832 374.220,59.541 374.400,59.971 374.400 C 60.401 374.400,60.864 374.580,61.000 374.800 C 61.136 375.020,62.047 375.200,63.024 375.200 C 64.001 375.200,64.800 375.386,64.800 375.612 C 64.800 376.091,72.698 376.088,72.994 375.609 C 73.098 375.442,74.202 375.282,75.449 375.253 C 76.696 375.225,77.944 375.012,78.223 374.781 C 78.578 374.487,78.810 374.492,79.000 374.800 C 79.195 375.115,79.429 375.108,79.831 374.775 C 80.138 374.519,80.641 374.407,80.949 374.525 C 81.257 374.643,81.919 374.452,82.420 374.101 C 83.024 373.678,83.222 373.641,83.005 373.993 C 82.765 374.380,82.828 374.430,83.238 374.177 C 83.546 373.986,84.143 373.823,84.564 373.815 C 84.985 373.807,85.420 373.530,85.530 373.200 C 85.693 372.710,85.620 372.691,85.132 373.094 C 84.646 373.495,84.533 373.471,84.533 372.970 C 84.533 372.557,84.874 372.375,85.567 372.419 C 88.142 372.583,88.000 372.900,88.000 366.974 C 88.000 363.614,87.823 361.215,87.535 360.674 C 87.112 359.880,87.131 359.851,87.744 360.357 C 88.327 360.838,88.387 360.831,88.186 360.307 C 88.058 359.973,87.494 359.700,86.934 359.700 C 86.373 359.700,86.069 359.813,86.257 359.950 C 86.446 360.088,86.638 360.403,86.683 360.650 C 86.787 361.211,84.777 361.256,84.100 360.707 C 83.728 360.405,83.592 360.544,83.568 361.251 C 83.551 361.773,83.446 361.975,83.335 361.700 C 83.224 361.425,82.958 361.200,82.743 361.200 C 82.528 361.200,82.488 361.425,82.653 361.700 C 82.882 362.081,82.816 362.094,82.377 361.755 C 81.544 361.113,79.689 360.736,79.533 361.178 C 79.213 362.087,68.704 362.564,65.615 361.811 C 63.105 361.199,60.622 359.989,59.580 358.870 C 58.540 357.754,57.141 354.852,57.269 354.075 C 57.330 353.704,57.268 353.220,57.131 353.000 C 56.720 352.341,56.681 350.475,56.742 334.500 L 56.800 319.200 62.600 319.200 L 68.400 319.200 68.400 332.638 C 68.400 347.176,68.336 346.697,70.613 349.055 C 71.479 349.951,75.466 350.567,77.146 350.064 C 77.997 349.809,79.257 349.600,79.946 349.600 C 80.636 349.600,81.179 349.465,81.153 349.300 C 81.017 348.438,81.263 348.331,81.787 349.024 C 82.118 349.461,82.380 349.582,82.387 349.300 C 82.394 349.025,82.664 348.800,82.986 348.800 C 83.308 348.800,83.776 348.419,84.025 347.952 C 84.412 347.231,84.741 347.134,86.246 347.304 C 87.218 347.414,88.109 347.347,88.227 347.156 C 88.345 346.965,88.162 346.916,87.821 347.047 C 87.479 347.178,87.200 347.086,87.200 346.843 C 87.200 346.599,87.371 346.400,87.579 346.400 C 87.793 346.400,88.010 343.992,88.079 340.850 C 88.167 336.793,88.076 335.348,87.740 335.477 C 87.488 335.575,87.162 335.462,87.017 335.227 C 86.872 334.992,86.448 334.811,86.076 334.825 C 85.586 334.844,85.648 334.950,86.300 335.212 C 87.259 335.598,87.535 336.409,86.700 336.387 C 86.425 336.380,85.858 336.116,85.441 335.800 C 85.024 335.484,84.484 335.350,84.241 335.502 C 83.998 335.653,83.620 335.809,83.400 335.847 C 83.180 335.885,82.730 335.980,82.400 336.058 C 81.884 336.180,81.785 335.016,81.692 327.700 L 81.584 319.200 82.968 319.200 C 83.730 319.200,84.464 319.020,84.600 318.800 C 84.736 318.580,85.557 318.400,86.424 318.400 L 88.000 318.400 88.000 312.630 L 88.000 306.861 84.700 306.616 C 82.885 306.482,74.290 306.278,65.600 306.165 C 56.493 306.045,49.639 305.797,49.420 305.579 C 49.211 305.370,48.698 305.200,48.280 305.200 C 47.255 305.200,45.007 302.884,44.592 301.400 C 43.501 297.503,44.062 272.400,45.241 272.400 C 45.387 272.400,45.592 272.073,45.697 271.672 C 46.036 270.375,48.706 269.433,52.500 269.270 L 56.000 269.120 56.000 279.729 L 56.000 290.337 57.832 292.168 L 59.663 294.000 69.332 293.998 C 74.649 293.997,81.025 293.880,83.500 293.737 L 88.000 293.478 88.000 287.539 L 88.000 281.600 84.300 281.537 C 81.129 281.483,80.886 281.435,82.600 281.200 C 83.828 281.032,81.627 280.901,76.900 280.863 L 69.200 280.800 69.200 275.000 L 69.200 269.200 76.776 269.200 C 81.396 269.200,84.449 269.044,84.600 268.800 C 84.736 268.580,85.557 268.400,86.424 268.400 L 88.000 268.400 88.000 262.630 L 88.000 256.861 84.700 256.609 C 82.885 256.470,70.240 256.274,56.600 256.172 C 42.960 256.071,31.530 255.873,31.200 255.733 C 30.870 255.592,30.167 255.405,29.638 255.317 C 28.242 255.084,26.000 252.694,26.000 251.440 C 26.000 250.868,25.820 250.400,25.600 250.400 C 25.052 250.400,25.052 224.939,25.600 224.600 C 25.820 224.464,26.000 223.994,26.000 223.555 C 26.000 221.181,29.752 219.215,34.300 219.206 L 37.200 219.200 37.200 229.768 L 37.200 240.337 39.032 242.168 L 40.863 244.000 59.932 243.998 C 70.419 243.997,81.025 243.880,83.500 243.737 L 88.000 243.478 88.000 237.539 L 88.000 231.600 84.300 231.537 C 81.129 231.483,80.886 231.435,82.600 231.200 C 83.700 231.049,76.905 230.897,67.500 230.863 L 50.400 230.800 50.400 225.000 L 50.400 219.200 67.376 219.200 C 78.263 219.200,84.441 219.057,84.600 218.800 C 84.736 218.580,85.557 218.400,86.424 218.400 L 88.000 218.400 88.000 212.630 L 88.000 206.861 84.700 206.611 C 82.885 206.473,71.631 206.272,59.691 206.164 L 37.982 205.968 38.103 190.284 C 38.263 169.554,38.406 169.200,46.660 169.200 L 49.600 169.200 49.600 179.405 C 49.600 186.838,49.736 189.848,50.100 190.483 C 50.781 191.672,52.087 193.004,53.104 193.549 C 54.044 194.051,75.714 194.186,83.500 193.737 L 88.000 193.478 88.000 187.539 L 88.000 181.600 84.300 181.537 C 81.129 181.483,80.886 181.435,82.600 181.200 C 83.700 181.049,79.695 180.897,73.700 180.863 L 62.800 180.800 62.800 175.000 L 62.800 169.200 73.576 169.200 C 80.329 169.200,84.445 169.051,84.600 168.800 C 84.736 168.580,85.557 168.400,86.424 168.400 L 88.000 168.400 88.000 162.630 L 88.000 156.861 84.700 156.617 C 82.885 156.482,74.421 156.279,65.891 156.164 L 50.382 155.957 50.500 140.078 C 50.565 131.345,50.737 123.808,50.881 123.328 C 51.177 122.345,52.594 120.800,53.200 120.800 C 53.420 120.800,53.600 120.649,53.600 120.464 C 53.600 119.732,55.795 119.200,58.819 119.200 L 62.000 119.200 62.047 128.500 C 62.073 133.615,62.066 137.956,62.032 138.147 C 61.763 139.625,63.760 142.401,65.925 143.560 C 66.846 144.053,76.359 144.149,83.500 143.737 L 88.000 143.478 88.000 137.539 L 88.000 131.600 84.300 131.537 C 81.129 131.483,80.886 131.435,82.600 131.200 C 84.122 130.991,83.476 130.911,79.900 130.863 L 75.200 130.800 75.200 125.000 L 75.200 119.200 79.776 119.200 C 82.396 119.200,84.458 119.029,84.600 118.800 C 84.736 118.580,85.557 118.400,86.424 118.400 L 88.000 118.400 88.000 112.641 L 88.000 106.882 84.500 106.630 C 82.575 106.492,78.345 106.277,75.100 106.153 L 69.200 105.927 69.200 87.563 L 69.200 69.200 75.000 69.200 L 80.800 69.200 80.889 78.300 L 80.977 87.400 81.200 78.200 L 81.423 69.000 81.511 78.020 C 81.560 82.981,81.439 87.211,81.242 87.420 C 80.713 87.981,81.475 89.718,82.097 89.367 C 82.500 89.139,82.500 89.190,82.100 89.621 C 81.518 90.248,81.427 90.954,81.971 90.618 C 82.175 90.492,82.457 90.751,82.598 91.194 C 82.739 91.637,83.191 92.000,83.603 92.000 C 84.016 92.000,84.476 92.199,84.626 92.443 C 84.817 92.751,85.004 92.721,85.244 92.343 C 85.497 91.943,85.589 91.932,85.594 92.300 C 85.597 92.588,86.110 92.800,86.800 92.800 L 88.000 92.800 88.000 74.830 L 88.000 56.861 84.700 56.617 C 82.885 56.482,74.425 56.279,65.900 56.164 L 50.400 55.957 50.400 49.978 L 50.400 44.000 64.700 43.998 C 72.565 43.997,81.025 43.880,83.500 43.737 L 88.000 43.478 88.000 37.539 L 88.000 31.600 84.300 31.537 C 81.129 31.483,80.886 31.435,82.600 31.200 C 83.700 31.049,74.970 30.909,63.200 30.888 C 51.139 30.867,41.404 31.010,40.892 31.216 " stroke="none" fill="#5fc0c4" fill-rule="evenodd"></path><path id="path1" d="M82.600 31.200 C 80.886 31.435,81.129 31.483,84.300 31.537 L 88.000 31.600 88.000 37.583 L 88.000 43.566 84.900 43.703 C 83.195 43.778,94.419 43.875,109.841 43.920 C 125.264 43.964,138.989 43.884,140.341 43.743 L 142.800 43.486 142.800 37.543 C 142.800 31.658,142.791 31.600,141.900 31.560 C 141.037 31.522,141.041 31.507,142.000 31.200 C 143.213 30.812,85.432 30.812,82.600 31.200 M81.000 56.400 C 81.660 56.568,83.505 56.727,85.100 56.753 L 88.000 56.800 88.000 74.800 L 88.000 92.800 86.800 92.800 C 86.110 92.800,85.597 92.588,85.594 92.300 C 85.589 91.932,85.497 91.943,85.244 92.343 C 85.004 92.721,84.817 92.751,84.626 92.443 C 84.476 92.199,84.016 92.000,83.603 92.000 C 83.191 92.000,82.739 91.637,82.598 91.194 C 82.457 90.751,82.175 90.492,81.971 90.618 C 81.427 90.954,81.518 90.248,82.100 89.621 C 82.500 89.190,82.500 89.139,82.097 89.367 C 81.781 89.545,81.454 89.305,81.222 88.726 L 80.851 87.800 80.825 88.726 C 80.781 90.346,82.802 93.093,83.652 92.568 C 83.843 92.450,84.000 92.715,84.000 93.157 C 84.000 93.987,132.882 94.506,140.222 93.754 L 142.800 93.490 142.800 87.545 C 142.800 81.658,142.791 81.600,141.900 81.560 C 141.037 81.522,141.041 81.507,142.000 81.200 C 142.550 81.024,131.975 80.862,118.500 80.840 L 94.000 80.800 94.000 75.000 L 94.000 69.200 109.700 69.199 C 118.335 69.198,129.315 69.080,134.100 68.935 L 142.800 68.673 142.800 62.736 L 142.800 56.800 140.900 56.753 C 139.204 56.710,139.129 56.673,140.200 56.400 C 140.860 56.232,127.540 56.095,110.600 56.095 C 93.660 56.095,80.340 56.232,81.000 56.400 M81.199 78.281 C 81.090 83.385,81.139 87.423,81.308 87.253 C 81.477 87.083,81.567 82.907,81.507 77.972 L 81.399 69.000 81.199 78.281 M81.000 106.400 C 81.660 106.568,83.505 106.727,85.100 106.753 L 88.000 106.800 88.000 112.600 L 88.000 118.400 86.424 118.400 C 85.557 118.400,84.736 118.580,84.600 118.800 C 84.315 119.261,120.086 119.359,134.100 118.935 L 142.800 118.673 142.800 112.736 L 142.800 106.800 140.900 106.753 C 139.204 106.710,139.129 106.673,140.200 106.400 C 140.860 106.232,127.540 106.095,110.600 106.095 C 93.660 106.095,80.340 106.232,81.000 106.400 M54.800 119.600 C 54.267 119.945,54.267 119.988,54.800 119.988 C 55.130 119.988,55.670 119.813,56.000 119.600 C 56.533 119.255,56.533 119.212,56.000 119.212 C 55.670 119.212,55.130 119.387,54.800 119.600 M82.600 131.200 C 80.886 131.435,81.129 131.483,84.300 131.537 L 88.000 131.600 88.000 137.583 L 88.000 143.566 84.900 143.703 C 83.195 143.778,94.419 143.875,109.841 143.920 C 125.264 143.964,138.989 143.884,140.341 143.743 L 142.800 143.486 142.800 137.543 C 142.800 131.658,142.791 131.600,141.900 131.560 C 141.037 131.522,141.041 131.507,142.000 131.200 C 143.213 130.812,85.432 130.812,82.600 131.200 M81.000 156.400 C 81.660 156.568,83.505 156.727,85.100 156.753 L 88.000 156.800 88.000 162.600 L 88.000 168.400 86.424 168.400 C 85.557 168.400,84.736 168.580,84.600 168.800 C 84.315 169.261,120.086 169.359,134.100 168.935 L 142.800 168.673 142.800 162.736 L 142.800 156.800 140.900 156.753 C 139.204 156.710,139.129 156.673,140.200 156.400 C 140.860 156.232,127.540 156.095,110.600 156.095 C 93.660 156.095,80.340 156.232,81.000 156.400 M82.600 181.200 C 80.886 181.435,81.129 181.483,84.300 181.537 L 88.000 181.600 88.000 187.583 L 88.000 193.566 84.900 193.703 C 83.195 193.778,94.419 193.875,109.841 193.920 C 125.264 193.964,138.989 193.884,140.341 193.743 L 142.800 193.486 142.800 187.543 C 142.800 181.658,142.791 181.600,141.900 181.560 C 141.037 181.522,141.041 181.507,142.000 181.200 C 143.213 180.812,85.432 180.812,82.600 181.200 M81.000 206.400 C 81.660 206.568,83.505 206.727,85.100 206.753 L 88.000 206.800 88.000 212.600 L 88.000 218.400 86.424 218.400 C 85.557 218.400,84.736 218.580,84.600 218.800 C 84.315 219.261,120.086 219.359,134.100 218.935 L 142.800 218.673 142.800 212.736 L 142.800 206.800 140.900 206.753 C 139.204 206.710,139.129 206.673,140.200 206.400 C 140.860 206.232,127.540 206.095,110.600 206.095 C 93.660 206.095,80.340 206.232,81.000 206.400 M82.600 231.200 C 80.886 231.435,81.129 231.483,84.300 231.537 L 88.000 231.600 88.000 237.583 L 88.000 243.566 84.900 243.703 C 83.195 243.778,94.419 243.875,109.841 243.920 C 125.264 243.964,138.989 243.884,140.341 243.743 L 142.800 243.486 142.800 237.543 C 142.800 231.658,142.791 231.600,141.900 231.560 C 141.037 231.522,141.041 231.507,142.000 231.200 C 143.213 230.812,85.432 230.812,82.600 231.200 M81.000 256.400 C 81.660 256.568,83.505 256.727,85.100 256.753 L 88.000 256.800 88.000 262.600 L 88.000 268.400 86.424 268.400 C 85.557 268.400,84.736 268.580,84.600 268.800 C 84.436 269.065,91.196 269.200,104.576 269.200 L 124.800 269.200 124.800 275.000 L 124.800 280.800 104.900 280.840 C 93.955 280.861,84.010 281.016,82.800 281.183 C 80.740 281.468,80.836 281.491,84.300 281.544 L 88.000 281.600 88.000 287.583 L 88.000 293.566 84.900 293.703 C 83.195 293.778,93.399 293.875,107.575 293.920 L 133.350 294.000 134.673 293.100 C 135.400 292.605,135.996 291.975,135.997 291.700 C 135.999 291.425,136.135 291.221,136.300 291.247 C 137.103 291.374,137.249 291.139,136.749 290.523 C 136.447 290.151,136.405 289.969,136.655 290.119 C 137.761 290.782,137.933 289.201,137.867 278.998 L 137.800 268.600 140.300 268.734 L 142.800 268.868 142.800 262.834 L 142.800 256.800 140.900 256.753 C 139.204 256.710,139.129 256.673,140.200 256.400 C 140.860 256.232,127.540 256.095,110.600 256.095 C 93.660 256.095,80.340 256.232,81.000 256.400 M140.084 304.125 C 139.935 304.694,139.603 304.812,138.551 304.670 C 137.669 304.551,137.298 304.635,137.470 304.912 C 137.633 305.177,137.481 305.240,137.066 305.081 C 136.700 304.940,136.400 305.002,136.400 305.217 C 136.400 305.449,135.765 305.508,134.850 305.362 C 133.890 305.208,133.196 305.282,133.027 305.557 C 132.831 305.873,125.166 306.014,106.276 306.047 C 91.714 306.073,80.340 306.232,81.000 306.400 C 81.660 306.568,83.505 306.727,85.100 306.753 L 88.000 306.800 88.000 312.600 L 88.000 318.400 86.424 318.400 C 85.557 318.400,84.736 318.580,84.600 318.800 C 84.438 319.061,86.996 319.200,91.976 319.200 L 99.600 319.200 99.600 325.336 L 99.600 331.472 98.581 331.936 C 98.021 332.191,96.861 332.400,96.005 332.400 C 95.148 332.400,94.336 332.580,94.200 332.800 C 94.064 333.020,93.254 333.200,92.400 333.200 C 91.546 333.200,90.736 333.380,90.600 333.600 C 90.464 333.820,89.373 334.000,88.176 334.000 C 86.979 334.000,86.000 334.137,86.000 334.304 C 86.000 334.726,87.570 335.666,87.916 335.451 C 88.072 335.354,88.146 337.778,88.079 340.837 C 88.010 343.988,87.793 346.400,87.579 346.400 C 87.371 346.400,87.200 346.599,87.200 346.843 C 87.200 347.086,87.479 347.178,87.821 347.047 C 88.162 346.916,88.345 346.965,88.227 347.156 C 88.109 347.347,87.203 347.412,86.213 347.300 C 84.797 347.141,84.361 347.236,84.165 347.746 C 84.028 348.103,83.727 348.279,83.496 348.136 C 83.251 347.984,83.195 348.069,83.362 348.338 C 83.531 348.612,83.393 348.800,83.024 348.800 C 82.681 348.800,82.400 348.980,82.400 349.200 C 82.400 349.420,82.569 349.600,82.776 349.600 C 82.983 349.600,83.264 349.420,83.400 349.200 C 83.536 348.980,84.436 348.800,85.400 348.800 C 86.364 348.800,87.264 348.620,87.400 348.400 C 87.536 348.180,88.447 348.000,89.424 348.000 C 90.401 348.000,91.200 347.820,91.200 347.600 C 91.200 347.380,91.999 347.200,92.976 347.200 C 93.953 347.200,94.864 347.020,95.000 346.800 C 95.136 346.580,96.047 346.400,97.024 346.400 C 98.001 346.400,98.800 346.237,98.800 346.039 C 98.800 345.699,99.442 345.582,104.700 344.968 C 105.855 344.833,106.699 344.560,106.576 344.361 C 106.453 344.163,106.993 344.000,107.776 344.000 C 108.559 344.000,109.200 343.820,109.200 343.600 C 109.200 343.380,109.398 343.200,109.640 343.200 C 109.882 343.200,110.692 342.588,111.440 341.840 L 112.800 340.480 112.800 329.840 L 112.800 319.200 118.800 319.200 L 124.800 319.200 124.800 328.800 C 124.800 335.151,124.660 338.400,124.386 338.400 C 124.101 338.400,124.101 338.642,124.387 339.176 C 124.625 339.620,124.649 340.046,124.444 340.173 C 124.247 340.294,124.070 341.519,124.051 342.894 C 124.032 344.270,123.832 345.456,123.608 345.531 C 123.384 345.605,123.200 345.995,123.200 346.396 C 123.200 348.854,118.399 354.400,116.272 354.400 C 115.939 354.400,115.607 354.572,115.533 354.782 C 115.460 354.993,114.725 355.210,113.900 355.264 C 113.075 355.319,112.400 355.507,112.400 355.682 C 112.400 355.857,111.356 356.000,110.080 356.000 C 108.804 356.000,107.589 356.168,107.380 356.374 C 107.171 356.580,105.965 356.804,104.700 356.872 C 103.435 356.940,102.400 357.131,102.400 357.298 C 102.400 357.464,101.446 357.600,100.280 357.600 C 99.114 357.600,97.989 357.760,97.780 357.957 C 97.571 358.153,96.320 358.408,95.000 358.524 C 89.461 359.012,87.849 359.430,88.180 360.293 C 88.381 360.817,88.320 360.832,87.787 360.389 C 87.006 359.741,85.188 359.513,84.449 359.970 C 83.608 360.489,84.270 361.150,85.593 361.113 C 86.242 361.094,86.686 360.939,86.580 360.767 C 86.474 360.596,86.561 360.348,86.773 360.216 C 87.621 359.693,88.000 361.782,88.000 366.974 C 88.000 372.900,88.142 372.583,85.567 372.419 C 84.874 372.375,84.533 372.557,84.533 372.970 C 84.533 373.472,84.647 373.495,85.142 373.094 C 85.652 372.679,85.706 372.716,85.478 373.323 C 85.242 373.953,85.376 374.018,86.504 373.822 C 87.217 373.698,89.060 373.424,90.600 373.213 C 92.140 373.002,94.289 372.660,95.376 372.452 C 96.462 372.245,97.677 372.138,98.076 372.215 C 98.474 372.291,98.800 372.184,98.800 371.977 C 98.800 371.770,99.622 371.600,100.626 371.600 C 101.631 371.600,102.774 371.428,103.166 371.218 C 103.558 371.008,104.711 370.774,105.727 370.697 C 106.744 370.621,107.701 370.432,107.854 370.279 C 108.008 370.126,108.835 370.000,109.693 370.000 C 110.551 370.000,111.556 369.840,111.926 369.645 C 112.297 369.450,113.410 369.194,114.400 369.076 C 117.385 368.721,119.207 368.312,119.433 367.946 C 119.551 367.756,120.054 367.600,120.551 367.600 C 121.681 367.600,128.364 363.281,129.533 361.795 C 130.010 361.188,130.400 360.819,130.400 360.975 C 130.400 361.581,131.494 360.122,131.886 358.993 C 132.114 358.337,132.496 357.843,132.736 357.895 C 132.975 357.948,133.068 357.723,132.943 357.395 C 132.817 357.068,132.911 356.800,133.152 356.800 C 133.657 356.800,134.891 354.071,134.600 353.599 C 134.492 353.426,134.648 353.191,134.945 353.077 C 135.726 352.777,136.424 349.787,135.850 349.201 C 135.515 348.860,135.554 348.776,136.000 348.871 C 136.412 348.960,136.606 348.667,136.619 347.938 C 136.630 347.355,136.900 346.555,137.219 346.162 C 137.574 345.724,137.606 345.563,137.300 345.747 C 136.982 345.938,136.800 345.811,136.800 345.400 C 136.800 345.044,136.959 344.851,137.153 344.971 C 137.612 345.255,137.631 344.758,137.723 330.501 C 137.794 319.295,137.852 318.397,138.500 318.351 C 139.240 318.297,139.934 318.154,140.100 318.019 C 140.155 317.975,140.531 317.876,140.937 317.799 C 141.932 317.611,142.295 317.200,141.467 317.200 C 141.100 317.200,140.800 317.014,140.800 316.787 C 140.800 316.166,141.942 315.854,142.505 316.322 C 142.896 316.647,142.975 315.312,142.882 309.984 L 142.764 303.235 141.520 303.318 C 140.700 303.372,140.210 303.647,140.084 304.125 M82.088 335.294 C 81.450 336.063,81.914 336.474,82.853 335.972 C 83.264 335.752,83.600 335.704,83.600 335.866 C 83.600 336.028,83.809 335.951,84.065 335.695 C 84.417 335.343,84.799 335.391,85.652 335.894 C 86.814 336.581,87.689 336.329,86.897 335.537 C 86.156 334.796,82.648 334.619,82.088 335.294 M71.790 349.984 C 71.932 350.213,72.517 350.400,73.090 350.400 C 74.344 350.400,74.199 350.208,72.666 349.840 C 71.923 349.662,71.621 349.711,71.790 349.984 M77.400 350.000 C 76.713 350.295,76.770 350.347,77.800 350.366 C 78.460 350.378,79.270 350.213,79.600 350.000 C 80.382 349.494,78.576 349.494,77.400 350.000 M62.976 361.013 C 63.404 361.336,64.034 361.599,64.376 361.598 C 64.719 361.596,64.484 361.326,63.854 360.998 C 62.404 360.241,61.966 360.249,62.976 361.013 M80.400 360.878 C 80.400 361.055,80.724 361.200,81.120 361.200 C 81.516 361.200,82.082 361.425,82.379 361.700 C 82.810 362.100,82.861 362.100,82.635 361.700 C 82.480 361.425,82.528 361.200,82.743 361.200 C 82.958 361.200,83.224 361.425,83.335 361.700 C 83.446 361.975,83.551 361.788,83.568 361.284 C 83.597 360.461,83.436 360.377,82.000 360.462 C 81.120 360.514,80.400 360.701,80.400 360.878 M76.212 361.546 C 76.463 361.797,79.280 361.654,79.558 361.376 C 79.661 361.273,78.902 361.220,77.871 361.259 C 76.840 361.298,76.094 361.427,76.212 361.546 M69.907 362.290 C 70.626 362.379,71.706 362.377,72.307 362.286 C 72.908 362.195,72.320 362.122,71.000 362.124 C 69.680 362.126,69.188 362.201,69.907 362.290 M49.081 368.187 C 49.477 368.731,49.966 369.181,50.170 369.187 C 50.373 369.194,50.117 368.750,49.600 368.200 C 48.401 366.923,48.157 366.918,49.081 368.187 M58.211 374.142 C 59.134 374.776,61.273 375.242,60.964 374.742 C 60.848 374.554,60.324 374.400,59.800 374.400 C 59.276 374.400,58.736 374.220,58.600 374.000 C 58.464 373.780,58.143 373.600,57.887 373.600 C 57.631 373.600,57.777 373.844,58.211 374.142 M82.667 373.867 C 82.174 374.359,82.394 374.800,83.133 374.800 C 84.018 374.800,84.460 374.421,84.154 373.925 C 84.029 373.723,83.643 373.792,83.288 374.081 C 82.807 374.470,82.722 374.475,82.947 374.100 C 83.269 373.564,83.105 373.428,82.667 373.867 M78.166 374.856 C 77.985 375.147,80.797 374.936,81.097 374.637 C 81.204 374.529,80.624 374.477,79.808 374.521 C 78.992 374.564,78.253 374.715,78.166 374.856 M73.049 375.521 C 72.944 375.691,73.286 375.866,73.809 375.909 C 74.332 375.952,74.846 375.849,74.951 375.679 C 75.056 375.509,74.714 375.334,74.191 375.291 C 73.668 375.248,73.154 375.351,73.049 375.521 " stroke="none" fill="#4db6c4" fill-rule="evenodd"></path><path id="path2" d="M164.624 32.987 C 165.051 33.310,165.548 33.580,165.729 33.587 C 166.144 33.603,167.244 34.689,167.181 35.019 C 167.155 35.155,167.238 35.372,167.367 35.500 C 167.495 35.628,167.600 35.377,167.600 34.941 C 167.600 34.422,167.034 33.846,165.962 33.274 C 164.069 32.264,163.508 32.143,164.624 32.987 M168.267 35.933 C 168.490 36.786,169.600 36.933,169.600 36.110 C 169.600 35.803,169.420 35.664,169.200 35.800 C 168.980 35.936,168.800 35.857,168.800 35.624 C 168.800 35.391,168.637 35.200,168.437 35.200 C 168.238 35.200,168.161 35.530,168.267 35.933 M170.303 37.692 C 170.131 38.207,171.580 41.302,172.100 41.533 C 172.265 41.607,172.400 42.012,172.400 42.433 C 172.400 42.855,172.580 43.200,172.800 43.200 C 173.020 43.200,173.200 43.009,173.200 42.776 C 173.200 42.543,173.399 42.476,173.643 42.626 C 173.952 42.818,173.922 43.015,173.543 43.280 C 173.121 43.576,173.111 43.706,173.500 43.864 C 173.895 44.024,174.000 51.910,174.000 81.410 L 174.000 118.754 172.300 118.907 C 170.675 119.054,170.692 119.063,172.700 119.130 L 174.800 119.200 174.800 125.000 L 174.800 130.800 172.824 130.800 C 171.737 130.800,170.736 130.980,170.600 131.200 C 170.449 131.444,171.063 131.600,172.176 131.600 L 174.000 131.600 174.000 137.585 L 174.000 143.570 170.300 143.702 L 166.600 143.834 170.700 143.917 L 174.800 144.000 174.800 150.000 L 174.800 156.000 170.700 156.083 L 166.600 156.166 170.300 156.298 L 174.000 156.430 174.000 162.592 L 174.000 168.754 172.300 168.907 C 170.675 169.054,170.692 169.063,172.700 169.130 L 174.800 169.200 174.800 175.000 L 174.800 180.800 172.824 180.800 C 171.737 180.800,170.736 180.980,170.600 181.200 C 170.449 181.444,171.063 181.600,172.176 181.600 L 174.000 181.600 174.000 187.585 L 174.000 193.570 170.300 193.702 L 166.600 193.834 170.700 193.917 L 174.800 194.000 174.800 200.000 L 174.800 206.000 170.700 206.083 L 166.600 206.166 170.300 206.298 L 174.000 206.430 174.000 212.592 L 174.000 218.754 172.300 218.907 C 170.675 219.054,170.692 219.063,172.700 219.130 L 174.800 219.200 174.800 225.000 L 174.800 230.800 172.824 230.800 C 171.737 230.800,170.736 230.980,170.600 231.200 C 170.449 231.444,171.063 231.600,172.176 231.600 L 174.000 231.600 174.000 237.585 L 174.000 243.570 170.300 243.702 L 166.600 243.834 170.700 243.917 L 174.800 244.000 174.800 250.000 L 174.800 256.000 170.700 256.083 L 166.600 256.166 170.300 256.298 L 174.000 256.430 174.000 262.592 L 174.000 268.754 172.300 268.907 C 171.365 268.991,176.801 269.092,184.379 269.130 C 192.046 269.169,200.607 268.995,203.679 268.737 L 209.200 268.275 209.200 262.537 L 209.200 256.800 207.424 256.800 C 206.447 256.800,205.536 256.620,205.400 256.400 C 205.248 256.153,201.863 256.000,196.576 256.000 L 188.000 256.000 188.000 187.600 L 188.000 119.200 193.079 119.200 C 195.873 119.200,200.643 118.992,203.679 118.737 L 209.200 118.275 209.200 112.537 L 209.200 106.800 207.424 106.800 C 206.447 106.800,205.536 106.620,205.400 106.400 C 205.246 106.151,201.487 106.000,195.450 106.000 L 185.748 106.000 182.240 99.100 C 177.485 89.745,177.181 89.200,176.718 89.200 C 176.496 89.200,176.409 88.954,176.525 88.652 C 176.640 88.351,176.389 87.537,175.967 86.843 C 175.248 85.660,175.200 84.669,175.200 70.990 L 175.200 56.400 189.140 56.400 C 196.806 56.400,204.456 56.284,206.140 56.141 L 209.200 55.883 209.200 49.941 L 209.200 44.000 205.500 43.917 C 202.322 43.845,202.618 43.800,207.600 43.596 C 210.790 43.466,204.652 43.368,193.960 43.379 L 174.520 43.400 173.839 42.496 C 173.464 41.999,173.251 41.442,173.365 41.257 C 173.479 41.072,173.219 40.541,172.786 40.077 C 172.354 39.613,172.000 39.057,172.000 38.840 C 172.000 38.624,171.792 38.319,171.538 38.162 C 171.233 37.973,171.186 38.054,171.400 38.400 C 171.610 38.739,171.567 38.827,171.279 38.649 C 171.035 38.498,170.936 38.110,171.060 37.787 C 171.184 37.464,171.101 37.200,170.876 37.200 C 170.651 37.200,170.393 37.421,170.303 37.692 M193.443 69.033 C 193.309 69.381,193.200 72.066,193.200 75.000 C 193.200 82.371,193.010 82.248,202.800 81.243 C 204.450 81.073,205.890 81.068,206.000 81.231 C 206.110 81.394,206.141 78.801,206.070 75.468 C 205.996 72.040,205.758 69.190,205.521 68.904 C 204.836 68.079,193.763 68.197,193.443 69.033 M166.128 97.785 C 166.318 98.354,167.297 98.309,167.492 97.723 C 167.585 97.445,167.306 97.272,166.821 97.308 C 166.364 97.343,166.053 97.558,166.128 97.785 M166.875 99.100 C 168.601 102.751,169.448 103.997,170.183 103.972 C 170.992 103.944,170.992 103.941,170.200 103.632 C 169.760 103.460,169.394 103.158,169.386 102.960 C 169.378 102.762,169.159 102.219,168.900 101.753 C 168.640 101.287,168.542 100.792,168.681 100.653 C 168.820 100.514,168.723 100.400,168.467 100.400 C 168.210 100.400,168.000 100.149,168.000 99.843 C 168.000 99.536,167.715 99.176,167.367 99.043 C 167.018 98.909,166.797 98.935,166.875 99.100 M169.861 105.015 C 170.053 105.514,170.208 105.531,170.747 105.110 C 171.314 104.667,171.335 104.684,170.903 105.237 C 170.630 105.587,170.499 105.966,170.612 106.079 C 170.725 106.192,169.869 106.197,168.709 106.091 C 165.877 105.831,166.391 106.220,169.314 106.550 L 171.629 106.810 171.486 105.741 C 171.388 105.014,171.068 104.629,170.485 104.540 C 169.857 104.444,169.691 104.571,169.861 105.015 " stroke="none" fill="#3aacc4" fill-rule="evenodd"></path><path id="path3" d="M268.600 31.200 C 268.736 31.420,269.647 31.600,270.624 31.600 L 272.400 31.600 272.400 37.584 L 272.400 43.568 269.100 43.702 C 267.285 43.777,275.340 43.873,287.000 43.917 C 298.660 43.961,310.486 43.880,313.281 43.738 L 318.362 43.478 318.481 37.401 L 318.600 31.323 307.600 31.062 C 290.459 30.656,268.312 30.734,268.600 31.200 M268.596 56.393 C 268.734 56.617,269.647 56.800,270.624 56.800 L 272.400 56.800 272.400 62.600 L 272.400 68.400 270.900 68.454 C 259.693 68.859,263.447 69.071,282.900 69.130 L 306.000 69.200 306.000 75.100 L 306.000 81.000 287.163 80.878 C 274.025 80.793,268.405 80.884,268.586 81.178 C 268.730 81.410,269.647 81.600,270.624 81.600 L 272.400 81.600 272.400 87.584 L 272.400 93.568 269.100 93.706 C 267.285 93.781,276.228 93.873,288.974 93.909 C 306.676 93.959,312.291 93.859,312.751 93.487 C 313.163 93.154,313.266 93.146,313.076 93.463 C 312.891 93.772,313.062 93.857,313.595 93.717 C 314.033 93.603,314.292 93.350,314.172 93.155 C 314.051 92.960,314.143 92.800,314.376 92.800 C 314.609 92.800,314.800 93.100,314.800 93.467 C 314.800 94.072,315.353 93.898,315.435 93.267 C 315.589 92.073,316.932 90.265,317.352 90.686 C 317.489 90.822,317.600 90.093,317.600 89.067 C 317.600 88.040,317.780 87.200,318.000 87.200 C 318.260 87.200,318.400 81.877,318.400 72.030 L 318.400 56.861 315.100 56.601 C 309.151 56.131,268.321 55.949,268.596 56.393 M318.980 69.309 C 318.872 69.589,318.833 73.864,318.893 78.809 L 319.002 87.800 319.201 78.300 C 319.396 69.001,319.378 68.271,318.980 69.309 M268.596 106.393 C 268.734 106.617,269.647 106.800,270.624 106.800 L 272.400 106.800 272.400 112.600 L 272.400 118.400 270.900 118.454 C 259.295 118.874,265.087 119.060,289.800 119.063 C 306.300 119.064,318.720 118.946,317.400 118.800 C 315.279 118.565,315.197 118.527,316.700 118.467 L 318.400 118.400 318.400 112.630 L 318.400 106.861 315.100 106.601 C 309.151 106.131,268.321 105.949,268.596 106.393 M268.600 131.200 C 268.736 131.420,269.647 131.600,270.624 131.600 L 272.400 131.600 272.400 137.584 L 272.400 143.568 269.100 143.702 C 267.285 143.777,275.340 143.873,287.000 143.917 C 298.660 143.961,310.486 143.880,313.281 143.738 L 318.362 143.478 318.481 137.401 L 318.600 131.323 307.600 131.062 C 290.459 130.656,268.312 130.734,268.600 131.200 M268.596 156.393 C 268.734 156.617,269.647 156.800,270.624 156.800 L 272.400 156.800 272.400 162.600 L 272.400 168.400 270.900 168.454 C 259.295 168.874,265.087 169.060,289.800 169.063 C 306.300 169.064,318.720 168.946,317.400 168.800 C 315.279 168.565,315.197 168.527,316.700 168.467 L 318.400 168.400 318.400 162.630 L 318.400 156.861 315.100 156.601 C 309.151 156.131,268.321 155.949,268.596 156.393 M268.600 181.200 C 268.736 181.420,269.647 181.600,270.624 181.600 L 272.400 181.600 272.400 187.584 L 272.400 193.568 269.100 193.702 C 267.285 193.777,275.340 193.873,287.000 193.917 C 298.660 193.961,310.486 193.880,313.281 193.738 L 318.362 193.478 318.481 187.401 L 318.600 181.323 307.600 181.062 C 290.459 180.656,268.312 180.734,268.600 181.200 M268.596 206.393 C 268.734 206.617,269.647 206.800,270.624 206.800 L 272.400 206.800 272.400 212.600 L 272.400 218.400 270.900 218.454 C 259.295 218.874,265.087 219.060,289.800 219.063 C 306.300 219.064,318.720 218.946,317.400 218.800 C 315.279 218.565,315.197 218.527,316.700 218.467 L 318.400 218.400 318.400 212.630 L 318.400 206.861 315.100 206.601 C 309.151 206.131,268.321 205.949,268.596 206.393 M268.600 231.200 C 268.736 231.420,269.647 231.600,270.624 231.600 L 272.400 231.600 272.400 237.584 L 272.400 243.568 269.100 243.702 C 267.285 243.777,275.340 243.873,287.000 243.917 C 298.660 243.961,310.486 243.880,313.281 243.738 L 318.362 243.478 318.481 237.401 L 318.600 231.323 307.600 231.062 C 290.459 230.656,268.312 230.734,268.600 231.200 M268.596 256.393 C 268.734 256.617,269.647 256.800,270.624 256.800 L 272.400 256.800 272.400 275.225 L 272.400 293.650 269.187 293.483 C 267.421 293.392,265.883 293.465,265.772 293.646 C 265.528 294.040,305.527 294.124,313.070 293.746 L 318.362 293.480 318.481 287.401 L 318.600 281.323 307.600 281.062 C 301.550 280.919,291.785 280.801,285.900 280.801 L 275.200 280.800 275.200 275.000 L 275.200 269.200 297.500 269.133 C 309.765 269.096,318.720 268.946,317.400 268.800 C 315.279 268.565,315.197 268.527,316.700 268.467 L 318.400 268.400 318.400 262.630 L 318.400 256.861 315.100 256.601 C 309.151 256.131,268.321 255.949,268.596 256.393 M261.093 269.087 C 261.986 269.252,261.987 269.259,262.103 279.326 L 262.220 289.400 262.210 279.200 L 262.200 269.000 261.200 268.961 C 260.344 268.928,260.328 268.946,261.093 269.087 M253.149 297.000 C 253.365 297.440,253.834 298.160,254.193 298.600 L 254.844 299.400 254.451 298.600 C 254.235 298.160,253.766 297.440,253.407 297.000 L 252.756 296.200 253.149 297.000 M265.000 305.655 C 266.832 306.281,268.470 306.366,268.009 305.811 C 267.799 305.558,266.766 305.327,265.714 305.298 C 263.920 305.248,263.875 305.270,265.000 305.655 M268.800 306.393 C 268.800 306.617,269.610 306.800,270.600 306.800 L 272.400 306.800 272.400 334.000 C 272.400 351.867,272.263 361.200,272.000 361.200 C 271.780 361.200,271.600 361.041,271.600 360.847 C 271.600 360.652,271.240 360.399,270.800 360.284 C 270.321 360.159,270.000 359.738,270.000 359.237 C 270.000 358.777,269.730 358.378,269.400 358.350 C 269.070 358.322,268.635 358.278,268.434 358.250 C 267.802 358.164,266.400 356.311,266.400 355.562 C 266.400 355.169,266.217 354.734,265.993 354.596 C 265.770 354.458,265.691 354.176,265.819 353.970 C 265.946 353.763,265.790 353.494,265.472 353.372 C 265.154 353.250,264.586 352.172,264.210 350.975 C 263.488 348.680,263.020 348.040,263.423 349.900 C 263.663 351.002,264.184 352.392,264.847 353.695 C 265.041 354.077,265.200 354.566,265.200 354.782 C 265.200 355.809,270.146 362.204,270.683 361.872 C 270.862 361.762,271.356 361.925,271.781 362.235 C 272.270 362.593,272.355 362.800,272.014 362.800 C 271.625 362.800,271.676 363.021,272.200 363.600 C 272.598 364.040,273.166 364.400,273.462 364.400 C 273.758 364.400,274.000 364.552,274.000 364.737 C 274.000 365.048,276.717 366.501,278.600 367.197 C 279.040 367.360,279.850 367.683,280.400 367.916 C 281.448 368.360,282.857 368.685,285.200 369.025 C 285.970 369.136,286.960 369.322,287.400 369.438 C 287.840 369.553,288.830 369.732,289.600 369.834 C 290.370 369.936,292.080 370.201,293.400 370.422 C 294.720 370.644,297.060 370.990,298.600 371.191 C 300.140 371.393,301.940 371.674,302.600 371.815 C 304.403 372.201,306.310 372.399,309.260 372.505 C 310.723 372.557,311.849 372.716,311.762 372.858 C 311.675 373.000,311.874 373.219,312.202 373.346 C 312.531 373.472,312.800 373.406,312.800 373.200 C 312.800 372.994,313.100 372.940,313.466 373.081 C 313.887 373.242,314.033 373.178,313.865 372.905 C 313.695 372.631,313.891 372.551,314.406 372.686 C 314.849 372.802,315.289 373.020,315.382 373.171 C 315.475 373.322,316.192 373.370,316.976 373.279 L 318.400 373.112 318.400 367.582 L 318.400 362.051 317.100 361.925 C 316.385 361.856,315.833 361.612,315.873 361.382 C 315.915 361.138,315.216 360.985,314.190 361.016 C 313.225 361.044,312.516 360.936,312.615 360.775 C 312.833 360.423,311.824 360.000,310.767 360.000 C 310.345 360.000,310.000 359.850,310.000 359.666 C 310.000 359.482,309.264 359.302,308.364 359.267 C 307.464 359.232,306.547 359.091,306.324 358.953 C 305.927 358.708,302.754 358.167,299.200 357.739 C 298.210 357.620,297.229 357.360,297.020 357.161 C 296.811 356.963,295.697 356.800,294.544 356.800 C 293.391 356.800,292.336 356.620,292.200 356.400 C 292.064 356.180,290.984 356.000,289.800 356.000 C 288.616 356.000,287.536 355.820,287.400 355.600 C 287.264 355.380,286.533 355.200,285.776 355.200 C 285.019 355.200,284.400 355.020,284.400 354.800 C 284.400 354.580,284.085 354.395,283.700 354.389 C 281.661 354.356,276.800 348.776,276.800 346.468 C 276.800 346.079,276.637 345.589,276.438 345.380 C 275.861 344.776,275.523 339.751,275.342 329.100 L 275.173 319.200 281.187 319.200 L 287.200 319.200 287.200 329.800 C 287.200 336.600,287.343 340.400,287.600 340.400 C 287.820 340.400,288.000 340.601,288.000 340.846 C 288.000 341.834,290.938 344.000,292.278 344.000 C 293.005 344.000,293.600 344.146,293.600 344.325 C 293.600 344.504,294.449 344.694,295.487 344.748 C 296.524 344.802,297.559 344.996,297.787 345.180 C 298.014 345.364,299.010 345.610,300.000 345.728 C 300.990 345.846,302.700 346.145,303.800 346.393 C 304.900 346.641,306.430 346.937,307.200 347.050 C 307.970 347.162,308.870 347.354,309.200 347.476 C 309.530 347.598,310.430 347.724,311.200 347.756 C 311.970 347.788,312.841 347.967,313.135 348.152 C 313.452 348.353,313.859 348.300,314.135 348.021 C 314.490 347.664,314.434 347.616,313.900 347.819 C 313.494 347.974,313.200 347.899,313.200 347.643 C 313.200 347.399,313.560 347.200,314.000 347.200 C 314.538 347.200,314.800 347.467,314.800 348.016 C 314.800 348.693,314.894 348.744,315.356 348.316 C 315.758 347.942,315.786 347.719,315.456 347.506 C 315.188 347.334,315.382 347.210,315.924 347.206 C 316.439 347.203,316.738 347.377,316.600 347.600 C 316.464 347.820,316.554 348.000,316.800 348.000 C 317.046 348.000,317.128 348.193,316.982 348.430 C 316.836 348.666,317.095 348.622,317.558 348.333 C 318.343 347.843,318.400 347.459,318.400 342.675 C 318.400 337.322,318.207 336.653,316.572 336.338 C 316.147 336.256,315.800 335.967,315.800 335.695 C 315.800 335.423,315.665 335.200,315.500 335.200 C 315.335 335.200,315.009 335.200,314.776 335.200 C 314.543 335.200,314.464 335.380,314.600 335.600 C 314.736 335.820,314.657 336.000,314.424 336.000 C 314.191 336.000,314.000 335.799,314.000 335.553 C 314.000 335.306,313.649 335.199,313.214 335.312 C 312.697 335.447,312.353 335.281,312.208 334.826 C 312.075 334.405,311.639 334.165,311.094 334.212 C 310.602 334.255,309.840 334.102,309.400 333.873 C 308.960 333.643,308.145 333.404,307.588 333.341 C 307.031 333.278,305.264 332.950,303.662 332.613 C 302.059 332.276,300.669 332.000,300.574 332.000 C 300.478 332.000,300.400 329.120,300.400 325.600 L 300.400 319.200 309.500 319.140 C 314.650 319.106,317.819 318.958,316.800 318.800 L 315.000 318.520 316.700 318.460 L 318.400 318.400 318.400 312.630 L 318.400 306.861 315.100 306.601 C 309.146 306.131,268.800 305.950,268.800 306.393 M262.176 330.000 C 262.176 336.270,262.232 338.835,262.299 335.700 C 262.367 332.565,262.367 327.435,262.299 324.300 C 262.232 321.165,262.176 323.730,262.176 330.000 M262.145 343.185 C 262.145 343.830,262.263 344.285,262.407 344.196 C 262.702 344.013,262.657 342.524,262.348 342.214 C 262.236 342.103,262.145 342.540,262.145 343.185 " stroke="none" fill="#209cc4" fill-rule="evenodd"></path><path id="path4" d="M311.200 31.099 L 318.600 31.216 318.481 37.393 L 318.361 43.569 314.881 43.702 C 312.966 43.776,319.995 43.873,330.500 43.918 L 349.600 44.000 349.600 50.000 L 349.600 56.000 330.500 56.006 C 318.021 56.010,311.608 56.147,312.000 56.400 C 312.330 56.613,313.905 56.791,315.500 56.794 L 318.400 56.800 318.400 72.000 C 318.400 81.867,318.260 87.200,318.000 87.200 C 317.780 87.200,317.600 88.040,317.600 89.067 C 317.600 90.093,317.489 90.822,317.352 90.686 C 317.068 90.402,316.426 91.035,315.697 92.315 C 315.249 93.102,315.283 93.200,315.997 93.200 C 316.438 93.200,316.800 92.942,316.800 92.627 C 316.800 92.312,317.142 91.945,317.560 91.813 C 318.767 91.430,318.913 90.007,318.821 79.515 C 318.773 74.079,318.821 69.489,318.928 69.315 C 319.035 69.142,321.749 69.054,324.961 69.121 L 330.800 69.241 330.800 87.621 L 330.800 106.000 321.100 106.006 C 314.690 106.010,311.603 106.144,312.000 106.400 C 312.330 106.613,313.905 106.791,315.500 106.794 L 318.400 106.800 318.400 112.577 L 318.400 118.354 316.700 118.486 C 315.765 118.559,317.205 118.773,319.900 118.961 L 324.800 119.303 324.800 125.051 L 324.800 130.800 314.300 130.891 C 305.170 130.969,304.766 130.997,311.200 131.099 L 318.600 131.216 318.481 137.393 L 318.361 143.569 314.881 143.702 C 312.966 143.776,316.474 143.873,322.676 143.918 L 333.953 144.000 335.713 142.265 C 337.891 140.117,337.992 139.478,337.997 127.730 L 338.000 119.261 341.247 119.130 C 345.366 118.965,347.821 119.964,349.023 122.294 C 349.761 123.724,349.794 124.615,349.683 139.900 L 349.566 156.000 330.483 156.006 C 318.015 156.010,311.608 156.147,312.000 156.400 C 312.330 156.613,313.905 156.791,315.500 156.794 L 318.400 156.800 318.400 162.600 L 318.400 168.400 316.700 168.461 C 312.319 168.618,320.846 169.110,328.700 169.153 L 337.200 169.200 337.200 175.000 L 337.200 180.800 320.500 180.891 C 311.315 180.940,307.130 181.034,311.200 181.099 L 318.600 181.216 318.481 187.393 L 318.361 193.569 314.881 193.702 C 312.966 193.776,319.097 193.873,328.505 193.918 C 346.281 194.003,346.279 194.003,348.039 192.327 C 350.107 190.358,350.124 190.251,350.034 179.380 L 349.951 169.199 351.001 168.799 C 351.579 168.580,353.300 168.400,354.826 168.400 L 357.600 168.400 357.600 140.782 L 357.600 113.164 356.618 112.182 C 356.078 111.642,355.440 111.200,355.201 111.200 C 354.961 111.200,354.794 110.975,354.830 110.700 C 354.956 109.731,354.795 109.200,354.376 109.200 C 354.143 109.200,354.056 109.368,354.183 109.572 C 354.309 109.777,354.202 110.075,353.945 110.234 C 353.652 110.415,353.584 110.350,353.762 110.062 C 353.937 109.778,353.768 109.598,353.324 109.594 C 352.898 109.590,352.774 109.467,353.022 109.294 C 353.295 109.104,353.165 108.729,352.653 108.231 C 351.872 107.471,351.865 107.471,352.132 108.231 C 352.384 108.950,352.366 108.954,351.857 108.300 C 351.557 107.915,351.107 107.600,350.856 107.600 C 350.605 107.600,350.400 107.420,350.400 107.200 C 350.400 106.980,350.051 106.800,349.624 106.800 C 349.197 106.800,348.736 106.620,348.601 106.401 C 348.465 106.182,347.869 106.027,347.277 106.058 C 346.685 106.088,345.705 106.088,345.100 106.056 L 344.000 106.000 344.000 87.652 L 344.000 69.303 346.300 69.058 C 347.565 68.924,350.265 68.695,352.300 68.549 C 354.335 68.404,356.000 68.131,356.000 67.943 C 356.000 67.754,356.360 67.600,356.800 67.600 C 357.588 67.600,357.600 67.333,357.600 50.000 C 357.600 32.667,357.588 32.400,356.800 32.400 C 356.360 32.400,356.000 32.256,356.000 32.080 C 356.000 31.268,343.377 30.798,324.000 30.888 C 312.890 30.939,307.130 31.034,311.200 31.099 M314.239 93.263 C 314.435 93.580,314.254 93.655,313.663 93.501 C 313.189 93.377,312.723 93.401,312.628 93.555 C 312.533 93.708,312.983 93.874,313.628 93.923 C 314.448 93.986,314.800 93.831,314.800 93.406 C 314.800 93.073,314.609 92.800,314.376 92.800 C 314.143 92.800,314.082 93.008,314.239 93.263 M312.000 206.400 C 312.330 206.613,313.905 206.791,315.500 206.794 L 318.400 206.800 318.400 212.577 L 318.400 218.354 316.700 218.484 C 312.193 218.829,325.616 219.265,336.900 219.140 L 349.600 219.000 349.600 225.000 L 349.600 231.000 326.700 230.978 C 314.105 230.967,307.130 231.015,311.200 231.086 L 318.600 231.216 318.481 237.393 L 318.361 243.569 314.881 243.721 C 312.966 243.805,321.375 243.857,333.567 243.837 C 350.918 243.808,355.770 243.691,355.900 243.300 C 355.992 243.025,356.412 242.800,356.833 242.800 C 357.578 242.800,357.600 242.272,357.600 224.800 L 357.600 206.800 354.824 206.800 C 353.297 206.800,351.936 206.620,351.800 206.400 C 351.640 206.142,344.436 206.002,331.476 206.006 C 318.367 206.010,311.608 206.147,312.000 206.400 M312.000 256.400 C 312.330 256.613,313.905 256.791,315.500 256.794 L 318.400 256.800 318.400 262.600 L 318.400 268.400 316.700 268.461 C 313.343 268.581,319.995 269.105,325.500 269.153 L 330.800 269.200 330.800 275.000 L 330.800 280.800 317.300 280.891 C 309.376 280.944,306.857 281.030,311.200 281.099 L 318.600 281.216 318.481 287.393 L 318.361 293.569 314.881 293.702 C 312.966 293.776,317.835 293.873,325.700 293.918 C 335.022 293.971,340.000 293.861,340.000 293.600 C 340.000 293.380,340.278 293.200,340.618 293.200 C 341.418 293.200,343.200 291.418,343.200 290.618 C 343.200 290.278,343.380 290.000,343.600 290.000 C 343.856 290.000,344.000 286.282,344.000 279.647 L 344.000 269.293 346.589 269.016 C 348.012 268.864,349.337 268.837,349.532 268.958 C 349.727 269.078,350.440 269.018,351.117 268.824 C 352.158 268.525,352.310 268.568,352.104 269.105 C 351.925 269.571,352.035 269.672,352.518 269.487 C 352.879 269.348,353.298 269.435,353.449 269.679 C 353.627 269.967,353.539 270.010,353.200 269.800 C 352.843 269.579,352.773 269.632,352.979 269.965 C 353.145 270.234,353.521 270.362,353.815 270.250 C 354.108 270.137,354.436 270.260,354.543 270.522 C 354.682 270.866,354.746 270.855,354.768 270.482 C 354.787 270.169,355.190 270.354,355.784 270.947 L 356.768 271.931 356.791 287.580 L 356.814 303.229 355.588 304.514 C 354.914 305.221,354.416 305.553,354.481 305.250 C 354.546 304.948,354.356 304.611,354.058 304.503 C 353.678 304.364,353.588 304.532,353.758 305.067 C 354.064 306.031,356.068 305.949,331.800 305.972 C 318.120 305.985,311.598 306.123,312.000 306.390 C 312.330 306.609,313.905 306.791,315.500 306.794 L 318.400 306.800 318.400 312.577 L 318.400 318.354 316.700 318.507 L 315.000 318.660 316.700 318.730 L 318.400 318.800 318.400 327.214 C 318.400 335.103,318.356 335.605,317.700 335.254 C 317.315 335.048,316.347 334.880,315.548 334.880 C 314.750 334.880,313.700 334.667,313.214 334.408 C 312.200 333.865,311.880 334.022,312.216 334.899 C 312.360 335.271,312.755 335.432,313.226 335.309 C 313.652 335.198,314.000 335.308,314.000 335.553 C 314.000 335.799,314.191 336.000,314.424 336.000 C 314.657 336.000,314.736 335.820,314.600 335.600 C 314.209 334.967,315.048 335.135,315.600 335.800 C 315.874 336.130,316.359 336.400,316.678 336.400 C 318.634 336.400,319.429 347.165,317.558 348.333 C 317.095 348.622,316.836 348.666,316.982 348.430 C 317.128 348.193,317.046 348.000,316.800 348.000 C 316.554 348.000,316.464 347.820,316.600 347.600 C 316.738 347.377,316.439 347.203,315.924 347.206 C 315.181 347.211,315.117 347.288,315.600 347.600 C 316.000 347.858,316.033 347.990,315.700 347.994 C 313.545 348.020,316.105 349.221,318.766 349.432 C 319.737 349.509,320.718 349.758,320.946 349.986 C 321.779 350.819,327.157 350.484,328.538 349.513 C 331.677 347.307,331.600 347.731,331.600 332.605 L 331.600 319.200 337.384 319.200 L 343.167 319.200 343.284 336.300 C 343.348 345.705,343.259 353.606,343.086 353.858 C 342.913 354.110,342.818 354.470,342.875 354.658 C 343.020 355.137,341.870 357.600,341.502 357.600 C 341.336 357.600,341.200 357.870,341.200 358.200 C 341.200 358.530,341.020 358.800,340.800 358.800 C 340.580 358.800,340.400 359.070,340.400 359.400 C 340.400 359.730,340.147 360.000,339.838 360.000 C 339.529 360.000,338.584 360.339,337.738 360.754 C 334.594 362.296,327.982 362.940,325.331 361.964 C 324.214 361.552,321.559 361.152,318.924 360.998 C 317.783 360.932,316.613 360.732,316.326 360.554 C 315.564 360.083,312.000 359.686,312.000 360.072 C 312.000 360.252,312.191 360.400,312.424 360.400 C 312.657 360.400,312.754 360.550,312.641 360.734 C 312.528 360.917,313.225 361.044,314.190 361.016 C 315.216 360.985,315.915 361.138,315.873 361.382 C 315.833 361.612,316.385 361.856,317.100 361.925 L 318.400 362.051 318.400 367.582 L 318.400 373.112 316.976 373.279 C 316.192 373.370,315.475 373.322,315.382 373.171 C 315.289 373.020,314.849 372.802,314.406 372.686 C 313.891 372.551,313.695 372.631,313.865 372.905 C 314.033 373.178,313.887 373.242,313.466 373.081 C 313.097 372.939,312.800 373.019,312.800 373.259 C 312.800 373.507,313.230 373.611,313.800 373.502 C 314.350 373.397,314.800 373.458,314.800 373.637 C 314.800 373.943,315.991 374.252,318.661 374.639 C 324.582 375.498,326.392 375.686,330.355 375.855 C 333.294 375.981,335.061 375.899,335.335 375.625 C 335.569 375.391,336.343 375.200,337.056 375.200 C 337.769 375.200,338.464 375.020,338.600 374.800 C 338.736 374.580,339.277 374.400,339.802 374.400 C 340.943 374.400,346.795 371.457,347.485 370.536 C 347.751 370.180,348.381 369.674,348.885 369.412 C 349.388 369.149,349.755 368.724,349.700 368.467 C 349.645 368.210,349.780 368.000,350.000 368.000 C 350.220 368.000,350.400 367.749,350.400 367.443 C 350.400 367.136,350.670 366.782,351.000 366.655 C 351.330 366.529,351.600 366.043,351.600 365.575 C 351.600 365.049,351.919 364.642,352.436 364.507 C 353.064 364.342,353.227 364.051,353.090 363.334 C 352.989 362.810,353.091 362.267,353.315 362.129 C 353.566 361.974,353.599 362.078,353.400 362.400 C 353.190 362.739,353.233 362.827,353.521 362.649 C 353.765 362.498,353.852 362.079,353.713 361.718 C 353.515 361.202,353.624 361.123,354.218 361.352 C 354.635 361.512,354.858 361.524,354.713 361.380 C 354.569 361.236,354.606 360.709,354.796 360.210 C 354.999 359.677,354.988 359.148,354.769 358.929 C 354.540 358.700,354.639 358.259,355.028 357.779 C 355.375 357.350,355.528 357.253,355.368 357.562 C 355.171 357.940,355.233 358.027,355.558 357.826 C 355.854 357.643,355.902 357.350,355.682 357.064 C 355.164 356.390,355.079 352.800,355.582 352.800 C 355.867 352.800,356.000 347.089,356.000 334.888 C 356.000 317.435,356.020 316.962,356.800 316.400 C 357.588 315.832,357.600 315.365,357.600 286.312 L 357.600 256.800 354.824 256.800 C 353.297 256.800,351.936 256.620,351.800 256.400 C 351.640 256.142,344.436 256.002,331.476 256.006 C 318.367 256.010,311.608 256.147,312.000 256.400 M313.200 347.643 C 313.200 347.899,313.494 347.974,313.900 347.819 C 314.448 347.610,314.495 347.658,314.117 348.039 C 313.738 348.422,313.501 348.416,313.017 348.014 C 312.669 347.725,312.400 347.679,312.400 347.908 C 312.400 348.349,313.327 348.800,314.233 348.800 C 314.545 348.800,314.800 348.440,314.800 348.000 C 314.800 347.467,314.533 347.200,314.000 347.200 C 313.560 347.200,313.200 347.399,313.200 347.643 M298.900 371.476 C 299.285 371.576,299.915 371.576,300.300 371.476 C 300.685 371.375,300.370 371.293,299.600 371.293 C 298.830 371.293,298.515 371.375,298.900 371.476 M304.433 372.144 C 304.525 372.223,305.140 372.408,305.800 372.556 C 306.676 372.752,306.838 372.715,306.400 372.418 C 305.860 372.053,304.032 371.798,304.433 372.144 M310.600 372.772 L 309.400 373.050 310.729 373.363 C 311.459 373.535,312.164 373.569,312.295 373.438 C 312.426 373.307,312.313 373.200,312.043 373.200 C 311.773 373.200,311.664 373.020,311.800 372.800 C 311.936 372.580,311.992 372.421,311.924 372.447 C 311.856 372.473,311.260 372.620,310.600 372.772 " stroke="none" fill="#1694c4" fill-rule="evenodd"></path><path id="path5" d="M142.000 31.188 C 141.038 31.508,141.034 31.522,141.900 31.560 C 142.791 31.600,142.800 31.657,142.800 37.577 L 142.800 43.554 141.100 43.707 C 140.165 43.791,143.360 43.913,148.200 43.977 C 153.040 44.042,157.135 44.073,157.300 44.047 C 157.465 44.021,157.600 44.180,157.600 44.400 C 157.600 44.620,157.960 44.800,158.400 44.800 C 158.840 44.800,159.200 44.980,159.200 45.200 C 159.200 45.420,159.560 45.600,160.000 45.600 C 160.453 45.600,160.800 45.867,160.800 46.214 C 160.800 46.552,161.055 47.227,161.367 47.714 C 162.040 48.765,162.107 49.292,162.046 53.100 L 162.000 56.000 151.700 56.047 C 146.035 56.073,140.860 56.232,140.200 56.400 C 139.129 56.673,139.204 56.710,140.900 56.753 L 142.800 56.800 142.800 62.789 L 142.800 68.779 136.900 68.906 C 133.655 68.975,138.020 69.025,146.600 69.016 L 162.200 69.000 162.200 75.000 L 162.200 81.000 152.910 80.886 C 147.801 80.823,143.031 80.942,142.310 81.150 C 141.306 81.439,141.211 81.536,141.900 81.564 C 142.792 81.600,142.800 81.656,142.800 87.577 L 142.800 93.554 141.100 93.707 C 140.165 93.791,144.935 93.892,151.700 93.930 C 164.816 94.005,165.065 94.043,165.533 96.032 C 165.756 96.980,166.428 97.564,167.029 97.333 C 167.718 97.069,167.781 97.659,167.133 98.307 C 166.777 98.663,166.825 98.835,167.333 99.030 C 167.700 99.170,168.000 99.536,168.000 99.843 C 168.000 100.149,168.210 100.400,168.467 100.400 C 168.723 100.400,168.820 100.514,168.681 100.653 C 168.542 100.792,168.640 101.287,168.900 101.753 C 169.159 102.219,169.378 102.762,169.386 102.960 C 169.394 103.158,169.760 103.460,170.200 103.632 C 170.962 103.929,170.964 103.945,170.233 103.972 C 169.334 104.005,169.610 104.414,170.634 104.564 C 171.072 104.628,171.399 105.094,171.491 105.784 C 171.632 106.831,171.571 106.883,170.520 106.607 C 168.741 106.139,142.409 105.900,140.600 106.335 L 139.000 106.720 140.900 106.760 L 142.800 106.800 142.800 112.789 L 142.800 118.779 136.900 118.901 C 133.655 118.968,139.569 119.063,150.041 119.112 C 160.514 119.160,170.189 119.084,171.541 118.943 L 174.000 118.686 174.000 81.376 C 174.000 51.903,173.895 44.024,173.500 43.864 C 173.111 43.706,173.121 43.576,173.543 43.280 C 173.922 43.015,173.952 42.818,173.643 42.626 C 173.399 42.476,173.200 42.543,173.200 42.776 C 173.200 43.009,173.020 43.200,172.800 43.200 C 172.580 43.200,172.400 42.840,172.400 42.400 C 172.400 41.960,172.262 41.600,172.094 41.600 C 171.689 41.600,170.278 38.415,170.235 37.400 C 170.210 36.832,169.939 36.614,169.300 36.648 C 168.487 36.691,168.180 36.190,168.353 35.100 C 168.379 34.935,168.220 34.800,168.000 34.800 C 167.780 34.800,167.600 34.991,167.600 35.224 C 167.600 35.457,167.408 35.529,167.173 35.384 C 166.939 35.239,166.840 35.026,166.954 34.912 C 167.182 34.685,166.219 33.600,165.790 33.600 C 165.644 33.600,164.982 33.214,164.319 32.743 C 163.657 32.271,162.560 31.821,161.881 31.741 C 161.201 31.662,160.545 31.445,160.423 31.258 C 160.133 30.817,143.309 30.753,142.000 31.188 M142.000 131.200 C 141.041 131.507,141.037 131.522,141.900 131.560 C 142.791 131.600,142.800 131.657,142.800 137.577 L 142.800 143.554 141.100 143.707 C 138.068 143.980,162.904 144.008,168.537 143.738 L 174.000 143.476 174.000 137.538 L 174.000 131.600 172.176 131.600 C 171.063 131.600,170.449 131.444,170.600 131.200 C 170.900 130.714,143.517 130.714,142.000 131.200 M140.200 156.400 C 139.129 156.673,139.204 156.710,140.900 156.753 L 142.800 156.800 142.800 162.789 L 142.800 168.779 136.900 168.901 C 133.655 168.968,139.569 169.063,150.041 169.112 C 160.514 169.160,170.189 169.084,171.541 168.943 L 174.000 168.686 174.000 162.605 L 174.000 156.524 168.537 156.262 C 161.331 155.916,141.725 156.012,140.200 156.400 M142.000 181.200 C 141.041 181.507,141.037 181.522,141.900 181.560 C 142.791 181.600,142.800 181.657,142.800 187.577 L 142.800 193.554 141.100 193.707 C 138.068 193.980,162.904 194.008,168.537 193.738 L 174.000 193.476 174.000 187.538 L 174.000 181.600 172.176 181.600 C 171.063 181.600,170.449 181.444,170.600 181.200 C 170.900 180.714,143.517 180.714,142.000 181.200 M140.200 206.400 C 139.129 206.673,139.204 206.710,140.900 206.753 L 142.800 206.800 142.800 212.789 L 142.800 218.779 136.900 218.901 C 133.655 218.968,139.569 219.063,150.041 219.112 C 160.514 219.160,170.189 219.084,171.541 218.943 L 174.000 218.686 174.000 212.605 L 174.000 206.524 168.537 206.262 C 161.331 205.916,141.725 206.012,140.200 206.400 M142.000 231.200 C 141.041 231.507,141.037 231.522,141.900 231.560 C 142.791 231.600,142.800 231.657,142.800 237.577 L 142.800 243.554 141.100 243.707 C 138.068 243.980,162.904 244.008,168.537 243.738 L 174.000 243.476 174.000 237.538 L 174.000 231.600 172.176 231.600 C 171.063 231.600,170.449 231.444,170.600 231.200 C 170.900 230.714,143.517 230.714,142.000 231.200 M140.200 256.400 C 139.129 256.673,139.204 256.710,140.900 256.753 L 142.800 256.800 142.800 262.834 L 142.800 268.868 140.237 268.734 C 138.827 268.660,137.758 268.735,137.861 268.900 C 137.963 269.065,140.652 269.200,143.835 269.200 L 149.623 269.200 149.587 279.592 C 149.566 285.589,149.392 290.081,149.175 290.215 C 148.969 290.343,148.800 290.906,148.800 291.468 C 148.800 294.612,143.875 301.437,140.513 302.950 C 138.662 303.784,137.947 304.800,139.213 304.800 C 139.646 304.800,140.000 304.560,140.000 304.267 C 140.000 303.973,140.225 303.716,140.500 303.696 C 140.775 303.675,141.397 303.536,141.881 303.387 L 142.763 303.116 142.881 309.925 C 142.975 315.300,142.896 316.647,142.505 316.322 C 141.955 315.865,140.800 316.160,140.800 316.758 C 140.800 317.740,144.509 317.118,145.186 316.023 C 145.353 315.753,145.608 315.554,145.752 315.581 C 146.244 315.674,148.800 314.310,148.800 313.954 C 148.800 313.759,149.056 313.600,149.368 313.600 C 150.452 313.600,157.279 306.303,158.349 304.000 C 158.707 303.230,159.090 302.510,159.201 302.400 C 159.311 302.290,159.647 301.660,159.947 301.000 C 160.248 300.340,160.652 299.487,160.847 299.105 C 161.041 298.723,161.200 298.059,161.200 297.629 C 161.200 297.199,161.380 296.736,161.600 296.600 C 161.820 296.464,162.000 295.633,162.000 294.753 C 162.000 293.873,162.147 293.243,162.326 293.354 C 162.693 293.581,162.681 293.967,162.750 279.700 L 162.800 269.200 165.941 269.200 C 167.669 269.200,170.189 269.084,171.541 268.943 L 174.000 268.686 174.000 262.605 L 174.000 256.524 168.537 256.262 C 161.331 255.916,141.725 256.012,140.200 256.400 M137.267 341.642 C 136.978 342.105,136.932 342.366,137.165 342.222 C 137.439 342.052,137.538 342.395,137.446 343.188 C 137.367 343.864,137.431 344.496,137.588 344.593 C 137.745 344.690,137.883 343.876,137.894 342.785 C 137.917 340.491,137.949 340.549,137.267 341.642 M136.814 345.456 C 136.857 345.865,136.854 346.380,136.807 346.600 C 136.760 346.820,136.694 347.450,136.661 348.000 C 136.621 348.661,136.397 348.956,136.000 348.871 C 135.509 348.766,135.494 348.838,135.917 349.268 C 136.545 349.907,137.234 349.092,137.158 347.800 C 137.133 347.360,137.145 346.910,137.186 346.800 C 137.490 345.989,137.466 345.164,137.132 344.958 C 136.914 344.823,136.770 345.047,136.814 345.456 M132.816 357.275 C 132.367 357.757,132.000 358.327,132.000 358.542 C 132.000 358.757,132.045 358.858,132.100 358.767 C 132.155 358.675,132.636 358.105,133.170 357.500 C 134.315 356.201,134.002 356.002,132.816 357.275 " stroke="none" fill="#44acc4" fill-rule="evenodd"></path><path id="path6" d="M235.724 33.773 C 235.462 34.071,235.372 34.469,235.524 34.657 C 235.676 34.846,235.634 34.864,235.432 34.699 C 235.229 34.533,234.650 34.668,234.144 35.000 C 233.327 35.536,233.250 35.536,233.455 35.001 C 233.768 34.185,233.576 34.237,232.000 35.400 C 231.239 35.961,230.898 36.416,231.222 36.436 C 231.540 36.456,231.232 36.637,230.538 36.838 C 229.529 37.130,229.319 37.368,229.491 38.025 C 229.651 38.638,229.477 38.907,228.804 39.083 C 228.217 39.237,227.605 39.987,227.051 41.233 L 226.200 43.148 214.207 43.400 C 207.611 43.539,202.136 43.730,202.041 43.826 C 201.945 43.922,203.517 44.000,205.533 44.000 L 209.200 44.000 209.200 49.979 L 209.200 55.958 207.100 56.105 C 205.945 56.186,209.455 56.285,214.900 56.326 L 224.800 56.400 224.800 71.238 C 224.800 85.977,224.794 86.085,223.902 87.338 C 223.407 88.032,223.051 88.647,223.110 88.704 C 223.168 88.761,222.906 89.391,222.528 90.104 C 222.149 90.817,220.184 94.640,218.160 98.600 L 214.481 105.800 209.825 105.913 C 205.415 106.020,203.303 106.800,207.424 106.800 L 209.200 106.800 209.200 112.556 L 209.200 118.313 204.700 118.696 L 200.200 119.080 206.300 119.140 L 212.400 119.200 212.400 187.600 L 212.400 256.000 208.776 256.000 C 206.463 256.000,205.242 256.145,205.400 256.400 C 205.536 256.620,206.447 256.800,207.424 256.800 L 209.200 256.800 209.200 262.556 L 209.200 268.313 204.700 268.696 C 201.036 269.008,203.563 269.091,218.300 269.140 L 236.400 269.200 236.400 263.000 L 236.400 256.800 234.900 256.743 L 233.400 256.686 235.000 256.400 C 236.034 256.215,234.582 256.093,230.900 256.057 L 225.200 256.000 225.200 250.059 L 225.200 244.117 228.260 243.859 C 229.944 243.716,232.464 243.600,233.860 243.600 L 236.400 243.600 236.400 237.654 L 236.400 231.709 234.544 231.454 C 233.523 231.314,231.003 231.200,228.944 231.200 L 225.200 231.200 225.200 225.200 L 225.200 219.200 230.800 219.200 L 236.400 219.200 236.400 213.000 L 236.400 206.800 234.900 206.743 L 233.400 206.686 235.000 206.400 C 236.034 206.215,234.582 206.093,230.900 206.057 L 225.200 206.000 225.200 200.059 L 225.200 194.117 228.260 193.859 C 229.944 193.716,232.464 193.600,233.860 193.600 L 236.400 193.600 236.400 187.654 L 236.400 181.709 234.544 181.454 C 233.523 181.314,231.003 181.200,228.944 181.200 L 225.200 181.200 225.200 175.200 L 225.200 169.200 230.800 169.200 L 236.400 169.200 236.400 163.000 L 236.400 156.800 234.900 156.743 L 233.400 156.686 235.000 156.400 C 236.034 156.215,234.582 156.093,230.900 156.057 L 225.200 156.000 225.200 150.059 L 225.200 144.117 228.260 143.859 C 229.944 143.716,232.464 143.600,233.860 143.600 L 236.400 143.600 236.400 137.654 L 236.400 131.709 234.544 131.454 C 233.523 131.314,231.003 131.200,228.944 131.200 L 225.200 131.200 225.200 125.200 L 225.200 119.200 230.800 119.200 L 236.400 119.200 236.400 113.000 L 236.400 106.800 234.900 106.743 L 233.400 106.686 235.000 106.378 C 236.169 106.153,235.603 106.087,232.900 106.135 C 230.084 106.184,229.200 106.075,229.200 105.676 C 229.200 105.385,229.403 105.278,229.658 105.436 C 229.982 105.636,230.036 105.399,229.842 104.626 C 229.663 103.910,229.712 103.622,229.984 103.790 C 230.345 104.013,230.592 103.218,230.447 102.300 C 230.421 102.135,230.605 102.045,230.855 102.100 C 231.105 102.155,231.454 101.688,231.630 101.062 C 231.807 100.436,232.277 99.658,232.676 99.332 C 233.074 99.007,233.147 98.872,232.838 99.032 C 232.429 99.244,232.370 99.172,232.622 98.765 C 232.812 98.457,233.025 97.484,233.095 96.603 C 233.165 95.721,233.397 94.940,233.611 94.867 C 233.825 94.793,234.000 94.478,234.000 94.167 C 234.000 93.804,234.431 93.600,235.200 93.600 L 236.400 93.600 236.400 63.400 C 236.400 46.790,236.355 33.207,236.300 33.215 C 236.245 33.224,235.986 33.474,235.724 33.773 M205.520 68.880 C 205.849 69.209,206.000 71.163,206.000 75.072 C 206.000 81.530,206.287 81.032,202.400 81.325 C 201.049 81.426,201.263 81.478,203.257 81.530 C 206.547 81.617,206.400 81.952,206.400 74.367 C 206.400 69.018,206.330 68.400,205.720 68.400 C 205.191 68.400,205.147 68.507,205.520 68.880 " stroke="none" fill="#34a4c4" fill-rule="evenodd"></path><path id="path7" d="M238.446 31.430 C 237.481 31.733,236.491 31.866,236.246 31.726 C 236.001 31.586,235.939 31.624,236.108 31.810 C 236.277 31.997,235.682 32.485,234.786 32.896 C 233.890 33.307,232.761 33.983,232.278 34.397 C 231.795 34.812,230.966 35.524,230.436 35.978 C 229.306 36.947,229.414 37.184,230.800 36.775 C 231.350 36.612,231.540 36.462,231.222 36.440 C 230.895 36.417,231.233 35.966,232.000 35.400 C 233.576 34.237,233.768 34.185,233.455 35.001 C 233.250 35.536,233.327 35.536,234.144 35.000 C 234.650 34.668,235.213 34.533,235.396 34.699 C 235.579 34.864,235.628 34.820,235.506 34.600 C 235.384 34.380,235.535 33.968,235.842 33.684 C 236.319 33.243,236.400 37.556,236.400 63.384 L 236.400 93.600 235.200 93.600 C 234.431 93.600,234.000 93.804,234.000 94.167 C 234.000 94.478,233.825 94.793,233.611 94.867 C 233.397 94.940,233.142 95.810,233.045 96.800 C 232.947 97.790,232.831 98.690,232.786 98.800 C 232.742 98.910,232.727 99.135,232.753 99.300 C 232.779 99.465,232.625 99.600,232.411 99.600 C 232.198 99.600,231.864 100.185,231.669 100.900 C 231.475 101.615,231.109 102.155,230.858 102.100 C 230.606 102.045,230.421 102.135,230.447 102.300 C 230.590 103.204,230.348 104.015,230.000 103.800 C 229.780 103.664,229.600 103.733,229.600 103.953 C 229.600 104.173,229.772 104.459,229.982 104.589 C 230.343 104.812,233.017 99.827,232.734 99.458 C 232.660 99.362,232.881 98.950,233.224 98.542 C 233.568 98.134,234.288 96.945,234.824 95.900 L 235.799 94.000 249.237 94.000 C 256.627 94.000,264.863 93.882,267.537 93.739 L 272.400 93.477 272.400 87.539 L 272.400 81.600 270.680 81.600 C 269.734 81.600,268.776 81.416,268.551 81.191 C 268.282 80.922,262.930 80.819,252.971 80.891 L 237.800 81.000 237.919 75.161 L 238.039 69.321 252.519 69.062 C 260.484 68.920,268.215 68.688,269.700 68.547 L 272.400 68.290 272.400 62.545 L 272.400 56.800 270.624 56.800 C 269.647 56.800,268.736 56.620,268.600 56.400 C 268.442 56.145,262.845 56.000,253.124 56.000 L 237.895 56.000 238.081 51.827 C 238.281 47.326,239.675 44.800,241.960 44.800 C 242.422 44.800,242.800 44.620,242.800 44.400 C 242.800 44.144,246.379 44.000,252.737 44.000 C 258.203 44.000,264.863 43.882,267.537 43.739 L 272.400 43.477 272.400 37.539 L 272.400 31.600 270.624 31.600 C 269.647 31.600,268.736 31.420,268.600 31.200 C 268.192 30.540,240.611 30.750,238.446 31.430 M228.381 38.436 C 227.998 39.151,228.038 39.251,228.662 39.131 C 229.063 39.054,229.451 38.678,229.525 38.295 C 229.711 37.327,228.922 37.424,228.381 38.436 M187.500 56.700 C 194.375 56.761,205.625 56.761,212.500 56.700 C 219.375 56.638,213.750 56.588,200.000 56.588 C 186.250 56.588,180.625 56.638,187.500 56.700 M206.562 75.400 C 206.562 78.920,206.624 80.306,206.698 78.481 C 206.772 76.656,206.772 73.776,206.697 72.081 C 206.622 70.386,206.561 71.880,206.562 75.400 M235.000 106.400 L 233.400 106.686 234.900 106.743 L 236.400 106.800 236.400 113.060 L 236.400 119.319 251.700 119.064 C 260.115 118.924,268.215 118.692,269.700 118.550 L 272.400 118.290 272.400 112.545 L 272.400 106.800 270.624 106.800 C 269.647 106.800,268.736 106.620,268.600 106.400 C 268.315 105.939,237.575 105.939,235.000 106.400 M212.195 187.600 C 212.195 225.330,212.242 240.765,212.300 221.900 C 212.357 203.035,212.357 172.165,212.300 153.300 C 212.242 134.435,212.195 149.870,212.195 187.600 M230.200 131.222 C 233.060 131.380,235.625 131.529,235.900 131.554 C 236.276 131.589,236.400 133.088,236.400 137.585 L 236.400 143.570 232.700 143.702 C 230.665 143.775,236.577 143.871,245.837 143.917 C 255.098 143.963,264.863 143.882,267.537 143.739 L 272.400 143.477 272.400 137.539 L 272.400 131.600 270.624 131.600 C 269.647 131.600,268.736 131.420,268.600 131.200 C 268.439 130.940,260.770 130.824,246.676 130.868 C 232.591 130.912,226.821 131.036,230.200 131.222 M235.000 156.400 L 233.400 156.686 234.900 156.743 L 236.400 156.800 236.400 163.060 L 236.400 169.319 251.700 169.064 C 260.115 168.924,268.215 168.692,269.700 168.550 L 272.400 168.290 272.400 162.545 L 272.400 156.800 270.624 156.800 C 269.647 156.800,268.736 156.620,268.600 156.400 C 268.315 155.939,237.575 155.939,235.000 156.400 M230.200 181.222 C 233.060 181.380,235.625 181.529,235.900 181.554 C 236.276 181.589,236.400 183.088,236.400 187.585 L 236.400 193.570 232.700 193.702 C 230.665 193.775,236.577 193.871,245.837 193.917 C 255.098 193.963,264.863 193.882,267.537 193.739 L 272.400 193.477 272.400 187.539 L 272.400 181.600 270.624 181.600 C 269.647 181.600,268.736 181.420,268.600 181.200 C 268.439 180.940,260.770 180.824,246.676 180.868 C 232.591 180.912,226.821 181.036,230.200 181.222 M235.000 206.400 L 233.400 206.686 234.900 206.743 L 236.400 206.800 236.400 213.060 L 236.400 219.319 251.700 219.064 C 260.115 218.924,268.215 218.692,269.700 218.550 L 272.400 218.290 272.400 212.545 L 272.400 206.800 270.624 206.800 C 269.647 206.800,268.736 206.620,268.600 206.400 C 268.315 205.939,237.575 205.939,235.000 206.400 M230.200 231.222 C 233.060 231.380,235.625 231.529,235.900 231.554 C 236.276 231.589,236.400 233.088,236.400 237.585 L 236.400 243.570 232.700 243.702 C 230.665 243.775,236.577 243.871,245.837 243.917 C 255.098 243.963,264.863 243.882,267.537 243.739 L 272.400 243.477 272.400 237.539 L 272.400 231.600 270.624 231.600 C 269.647 231.600,268.736 231.420,268.600 231.200 C 268.439 230.940,260.770 230.824,246.676 230.868 C 232.591 230.912,226.821 231.036,230.200 231.222 M235.000 256.400 L 233.400 256.686 234.900 256.743 L 236.400 256.800 236.400 263.000 C 236.400 266.867,236.551 269.200,236.800 269.200 C 237.058 269.200,237.200 273.608,237.200 281.624 C 237.200 289.804,237.337 293.963,237.600 293.800 C 237.841 293.651,238.000 294.188,238.000 295.153 C 238.000 296.033,238.180 296.864,238.400 297.000 C 238.620 297.136,238.800 297.676,238.800 298.200 C 238.800 298.724,238.980 299.264,239.200 299.400 C 239.420 299.536,239.600 300.007,239.600 300.447 C 239.600 300.887,239.780 301.136,240.000 301.000 C 240.220 300.864,240.400 301.036,240.400 301.382 C 240.400 301.956,241.114 303.514,241.600 304.000 C 242.191 304.591,242.826 306.063,242.368 305.780 C 242.053 305.585,241.979 305.642,242.162 305.938 C 242.319 306.192,242.707 306.400,243.024 306.400 C 243.341 306.400,243.600 306.536,243.600 306.702 C 243.600 306.869,244.590 308.027,245.800 309.276 C 247.010 310.526,248.000 311.750,248.000 311.997 C 248.000 312.245,248.153 312.353,248.339 312.237 C 248.526 312.122,249.059 312.381,249.523 312.814 C 249.987 313.246,250.474 313.600,250.604 313.600 C 251.037 313.600,253.599 315.467,253.417 315.650 C 253.318 315.748,253.691 315.866,254.245 315.912 C 254.799 315.958,255.525 316.268,255.859 316.601 C 256.192 316.935,256.618 317.112,256.806 316.996 C 256.995 316.880,257.773 317.136,258.537 317.565 C 259.349 318.021,260.290 318.249,260.804 318.115 C 262.293 317.726,262.407 318.611,262.386 330.400 C 262.375 336.670,262.392 341.890,262.423 342.000 C 262.454 342.110,262.510 343.043,262.547 344.074 C 262.584 345.105,262.746 346.080,262.907 346.241 C 263.068 346.402,263.200 346.896,263.200 347.340 C 263.200 348.571,264.841 352.960,265.430 353.306 C 265.717 353.475,265.882 353.975,265.797 354.417 C 265.712 354.859,265.812 355.116,266.021 354.987 C 266.229 354.858,266.400 355.094,266.400 355.512 C 266.400 356.355,268.658 359.200,269.327 359.200 C 269.561 359.200,269.404 358.939,268.976 358.620 C 268.227 358.060,268.231 358.048,269.100 358.267 C 269.653 358.406,270.000 358.798,270.000 359.284 C 270.000 359.738,270.340 360.164,270.800 360.284 C 271.240 360.399,271.600 360.652,271.600 360.847 C 271.600 361.041,271.780 361.200,272.000 361.200 C 272.263 361.200,272.400 351.867,272.400 334.000 L 272.400 306.800 270.557 306.800 C 269.013 306.800,268.755 306.694,268.966 306.143 C 269.150 305.666,269.080 305.585,268.709 305.848 C 267.873 306.442,264.000 305.878,264.000 305.163 C 264.000 304.977,263.730 304.929,263.400 305.055 C 263.070 305.182,262.800 305.086,262.800 304.843 C 262.800 304.599,262.510 304.400,262.154 304.400 C 261.394 304.400,258.400 302.781,258.400 302.370 C 258.400 302.214,257.950 301.974,257.400 301.836 C 256.850 301.698,256.400 301.398,256.400 301.170 C 256.400 300.942,255.884 300.270,255.253 299.677 C 253.666 298.186,252.674 296.527,253.027 295.956 C 253.208 295.664,253.154 295.581,252.891 295.744 C 252.646 295.895,252.347 295.618,252.204 295.106 C 252.064 294.608,251.801 293.840,251.619 293.400 C 250.700 291.178,250.400 287.584,250.400 278.815 L 250.400 269.291 256.100 269.113 C 259.235 269.015,261.935 269.005,262.100 269.091 C 262.265 269.177,262.400 273.924,262.400 279.640 C 262.400 286.091,262.554 290.217,262.806 290.517 C 264.416 292.432,265.149 293.118,265.358 292.909 C 265.491 292.776,265.600 292.887,265.600 293.157 C 265.600 293.427,265.765 293.545,265.966 293.421 C 266.168 293.296,266.779 293.364,267.325 293.572 C 267.871 293.779,268.432 293.835,268.572 293.695 C 268.712 293.555,269.630 293.490,270.613 293.551 L 272.400 293.660 272.400 275.230 L 272.400 256.800 270.624 256.800 C 269.647 256.800,268.736 256.620,268.600 256.400 C 268.315 255.939,237.575 255.939,235.000 256.400 " stroke="none" fill="#2ca3c4" fill-rule="evenodd"></path><path id="path8" d="M351.300 31.324 C 353.885 31.540,356.000 31.871,356.000 32.058 C 356.000 32.246,356.360 32.400,356.800 32.400 C 357.588 32.400,357.600 32.667,357.600 50.000 C 357.600 67.333,357.588 67.600,356.800 67.600 C 356.360 67.600,356.000 67.758,356.000 67.951 C 356.000 68.143,353.885 68.475,351.300 68.688 L 346.600 69.076 353.100 69.138 C 356.675 69.172,359.600 69.063,359.600 68.895 C 359.600 68.727,360.005 68.412,360.500 68.195 C 360.995 67.978,361.578 67.395,361.795 66.900 C 362.012 66.405,362.327 66.000,362.495 66.000 C 362.663 66.000,362.800 58.800,362.800 50.000 C 362.800 39.600,362.660 34.000,362.400 34.000 C 362.180 34.000,362.000 33.717,362.000 33.371 C 362.000 32.563,361.037 31.600,360.229 31.600 C 359.883 31.600,359.600 31.420,359.600 31.200 C 359.600 30.947,357.211 30.824,353.100 30.866 L 346.600 30.932 351.300 31.324 M81.600 91.767 C 81.600 92.188,82.805 93.328,83.021 93.112 C 83.122 93.011,82.844 92.602,82.402 92.202 C 81.961 91.803,81.600 91.607,81.600 91.767 M317.300 92.198 C 316.731 92.845,316.661 93.200,317.104 93.200 C 317.271 93.200,317.632 92.840,317.907 92.400 C 318.478 91.487,318.051 91.345,317.300 92.198 M350.400 107.200 C 350.400 107.420,350.651 107.600,350.957 107.600 C 351.264 107.600,351.619 107.872,351.746 108.204 C 351.873 108.536,352.118 108.784,352.289 108.756 C 353.325 108.586,353.796 108.815,353.200 109.200 C 352.691 109.529,352.710 109.589,353.324 109.594 C 353.768 109.598,353.937 109.778,353.762 110.062 C 353.584 110.350,353.652 110.415,353.945 110.234 C 354.202 110.075,354.309 109.777,354.183 109.572 C 354.056 109.368,354.143 109.200,354.376 109.200 C 354.795 109.200,354.956 109.731,354.830 110.700 C 354.794 110.975,354.961 111.200,355.201 111.200 C 355.440 111.200,356.078 111.642,356.618 112.182 L 357.600 113.164 357.600 140.782 L 357.600 168.400 354.826 168.400 C 353.300 168.400,351.590 168.576,351.026 168.790 L 350.000 169.180 350.092 178.290 L 350.184 187.400 350.300 178.300 L 350.415 169.200 353.208 169.200 C 354.803 169.200,356.000 169.372,356.000 169.600 C 356.000 169.820,356.534 170.000,357.187 170.000 C 359.198 170.000,361.569 172.861,361.247 174.900 C 361.221 175.065,361.380 175.200,361.600 175.200 C 361.860 175.200,362.000 180.600,362.000 190.600 L 362.000 206.000 356.776 206.000 C 353.396 206.000,351.640 206.141,351.800 206.400 C 351.936 206.620,353.297 206.800,354.824 206.800 L 357.600 206.800 357.600 224.800 C 357.600 242.533,357.588 242.800,356.800 242.800 C 356.360 242.800,356.000 242.972,356.000 243.182 C 356.000 243.392,354.785 243.626,353.300 243.703 C 351.582 243.791,352.237 243.860,355.100 243.892 C 357.631 243.920,359.600 243.779,359.600 243.571 C 359.600 243.367,359.883 243.200,360.229 243.200 C 360.574 243.200,361.069 242.968,361.329 242.685 C 362.717 241.166,362.800 240.440,362.800 229.805 L 362.800 219.200 365.600 219.200 C 367.200 219.200,368.400 219.371,368.400 219.600 C 368.400 219.820,368.862 220.000,369.426 220.000 C 371.547 220.000,373.999 222.198,374.000 224.100 C 374.000 224.705,374.180 225.200,374.400 225.200 C 374.658 225.200,374.800 229.533,374.800 237.400 C 374.800 245.267,374.658 249.600,374.400 249.600 C 374.180 249.600,374.000 250.230,374.000 251.000 C 374.000 251.770,373.820 252.400,373.600 252.400 C 373.380 252.400,373.200 252.604,373.200 252.853 C 373.200 253.737,371.019 255.199,369.700 255.200 C 368.985 255.200,368.400 255.380,368.400 255.600 C 368.400 255.854,365.325 256.000,359.976 256.000 C 354.463 256.000,351.638 256.138,351.800 256.400 C 351.936 256.620,353.297 256.800,354.824 256.800 L 357.600 256.800 357.600 286.312 C 357.600 315.365,357.588 315.832,356.800 316.400 C 356.020 316.962,356.000 317.435,356.000 334.888 C 356.000 347.089,355.867 352.800,355.582 352.800 C 355.079 352.800,355.164 356.390,355.682 357.064 C 355.902 357.350,355.854 357.643,355.558 357.826 C 355.233 358.027,355.171 357.940,355.368 357.562 C 355.528 357.253,355.375 357.350,355.028 357.779 C 354.639 358.259,354.540 358.700,354.769 358.929 C 354.988 359.148,354.999 359.677,354.796 360.210 C 354.606 360.709,354.569 361.236,354.713 361.380 C 354.858 361.524,354.635 361.512,354.218 361.352 C 353.624 361.123,353.515 361.202,353.713 361.718 C 353.852 362.079,353.765 362.498,353.521 362.649 C 353.233 362.827,353.190 362.739,353.400 362.400 C 353.599 362.078,353.566 361.974,353.315 362.129 C 353.091 362.267,352.989 362.810,353.090 363.334 C 353.227 364.051,353.064 364.342,352.436 364.507 C 351.919 364.642,351.600 365.049,351.600 365.575 C 351.600 366.043,351.330 366.529,351.000 366.655 C 350.670 366.782,350.400 367.136,350.400 367.443 C 350.400 367.749,350.220 368.000,350.000 368.000 C 349.780 368.000,349.645 368.210,349.700 368.467 C 349.755 368.724,349.388 369.149,348.885 369.412 C 348.381 369.674,347.751 370.180,347.485 370.536 C 346.795 371.457,340.943 374.400,339.802 374.400 C 339.277 374.400,338.721 374.605,338.566 374.855 C 338.254 375.360,341.232 374.959,341.599 374.447 C 341.710 374.292,342.560 373.922,343.490 373.623 C 344.419 373.324,345.536 372.746,345.973 372.339 C 346.409 371.933,346.957 371.600,347.191 371.600 C 347.851 371.600,352.800 366.489,352.800 365.807 C 352.800 365.473,352.947 365.200,353.126 365.200 C 353.592 365.200,355.200 362.069,355.200 361.162 C 355.200 360.743,355.380 360.400,355.600 360.400 C 355.820 360.400,356.000 359.875,356.000 359.233 C 356.000 358.592,356.199 358.000,356.442 357.919 C 356.758 357.814,356.868 352.197,356.827 338.241 C 356.765 317.139,356.716 317.656,358.812 317.613 C 359.148 317.606,359.683 317.240,360.000 316.800 C 360.317 316.360,360.811 316.000,361.097 316.000 C 361.775 316.000,366.000 311.775,366.000 311.097 C 366.000 310.811,366.360 310.317,366.800 310.000 C 367.240 309.683,367.600 309.103,367.600 308.712 C 367.600 308.320,367.780 308.000,368.000 308.000 C 368.220 308.000,368.400 307.561,368.400 307.024 C 368.400 306.487,368.580 305.936,368.800 305.800 C 369.057 305.641,369.200 299.063,369.200 287.376 L 369.200 269.200 371.776 269.200 C 373.193 269.200,374.464 269.020,374.600 268.800 C 374.736 268.580,375.287 268.400,375.824 268.400 C 376.361 268.400,376.800 268.220,376.800 268.000 C 376.800 267.780,377.160 267.600,377.600 267.600 C 378.040 267.600,378.400 267.420,378.400 267.200 C 378.400 266.980,378.682 266.800,379.027 266.800 C 379.797 266.800,385.600 260.936,385.600 260.159 C 385.600 259.852,385.780 259.600,386.000 259.600 C 386.220 259.600,386.400 259.240,386.400 258.800 C 386.400 258.360,386.580 258.000,386.800 258.000 C 387.020 258.000,387.200 257.460,387.200 256.800 C 387.200 256.140,387.380 255.600,387.600 255.600 C 387.861 255.600,388.000 249.341,388.000 237.624 C 388.000 226.071,387.857 219.559,387.600 219.400 C 387.380 219.264,387.200 218.713,387.200 218.176 C 387.200 217.639,387.020 217.200,386.800 217.200 C 386.580 217.200,386.400 216.790,386.400 216.288 C 386.400 215.787,386.040 215.117,385.600 214.800 C 385.160 214.483,384.800 214.002,384.800 213.731 C 384.800 212.973,381.056 209.403,379.650 208.821 C 378.963 208.536,378.400 208.145,378.400 207.951 C 378.400 207.758,378.166 207.600,377.880 207.600 C 377.594 207.600,376.880 207.375,376.295 207.100 L 375.231 206.600 375.115 187.400 L 375.000 168.200 374.020 166.300 C 373.481 165.255,372.896 164.400,372.720 164.400 C 372.544 164.400,372.400 164.154,372.400 163.853 C 372.400 163.070,368.917 159.693,367.336 158.943 C 366.601 158.594,366.000 158.149,366.000 157.954 C 366.000 157.759,365.766 157.600,365.480 157.600 C 365.194 157.600,364.475 157.375,363.883 157.100 L 362.806 156.600 362.803 137.900 C 362.801 125.702,362.661 119.200,362.400 119.200 C 362.180 119.200,362.000 118.660,362.000 118.000 C 362.000 117.340,361.820 116.800,361.600 116.800 C 361.380 116.800,361.200 116.440,361.200 116.000 C 361.200 115.560,361.020 115.200,360.800 115.200 C 360.580 115.200,360.400 114.926,360.400 114.592 C 360.400 113.772,355.062 108.400,354.247 108.400 C 353.891 108.400,353.600 108.220,353.600 108.000 C 353.600 107.424,352.504 107.506,352.265 108.100 C 352.154 108.375,352.049 108.195,352.032 107.700 C 352.000 106.803,350.400 106.313,350.400 107.200 M343.833 119.101 C 343.298 119.636,343.673 120.000,344.760 120.000 C 346.355 120.000,348.800 122.445,348.800 124.040 C 348.800 124.804,349.005 125.200,349.400 125.200 C 350.637 125.200,349.234 121.514,347.612 120.500 C 346.322 119.694,344.072 118.861,343.833 119.101 M337.667 138.858 C 337.621 139.867,337.228 140.714,336.388 141.613 C 335.722 142.326,335.271 143.004,335.386 143.119 C 335.689 143.423,337.200 141.967,337.200 141.371 C 337.200 141.094,337.393 140.802,337.630 140.723 C 337.878 140.641,337.991 139.909,337.897 138.990 L 337.734 137.400 337.667 138.858 M349.885 189.654 C 349.733 190.234,349.159 191.134,348.611 191.654 C 347.541 192.669,347.341 193.200,348.029 193.200 C 348.997 193.200,350.573 190.554,350.321 189.353 C 350.193 188.743,350.110 188.801,349.885 189.654 M347.505 219.083 C 348.002 219.179,348.722 219.175,349.105 219.075 C 349.487 218.975,349.080 218.896,348.200 218.901 C 347.320 218.905,347.007 218.987,347.505 219.083 M347.505 231.083 C 348.002 231.179,348.722 231.175,349.105 231.075 C 349.487 230.975,349.080 230.896,348.200 230.901 C 347.320 230.905,347.007 230.987,347.505 231.083 M38.000 241.767 C 38.000 242.188,39.205 243.328,39.421 243.112 C 39.522 243.011,39.244 242.602,38.802 242.202 C 38.361 241.803,38.000 241.607,38.000 241.767 M351.862 268.671 C 351.713 268.821,350.468 268.938,349.095 268.933 C 347.723 268.927,347.140 268.991,347.800 269.075 C 348.460 269.159,349.360 269.388,349.800 269.583 C 350.240 269.778,351.062 270.037,351.626 270.158 C 352.798 270.410,354.400 271.674,354.400 272.347 C 354.400 272.596,354.580 272.800,354.800 272.800 C 355.020 272.800,355.200 273.340,355.200 274.000 C 355.200 274.660,355.380 275.200,355.600 275.200 C 355.858 275.200,356.000 279.525,356.000 287.376 C 356.000 295.063,355.852 299.644,355.600 299.800 C 355.380 299.936,355.200 300.559,355.200 301.184 C 355.200 302.717,352.814 305.108,351.115 305.276 C 350.426 305.344,349.798 305.595,349.720 305.832 C 349.630 306.106,350.134 306.215,351.089 306.131 C 354.009 305.871,354.013 305.870,353.758 305.067 C 353.588 304.532,353.678 304.364,354.058 304.503 C 354.356 304.611,354.546 304.947,354.481 305.250 C 354.416 305.552,354.914 305.221,355.588 304.514 L 356.814 303.229 356.791 287.580 L 356.768 271.931 355.813 270.977 C 355.169 270.333,354.795 270.182,354.661 270.511 C 354.506 270.894,354.456 270.895,354.432 270.513 C 354.414 270.242,354.126 270.130,353.784 270.262 C 353.391 270.412,353.210 270.298,353.284 269.949 C 353.357 269.605,353.119 269.448,352.646 269.530 C 352.099 269.624,351.958 269.487,352.133 269.030 C 352.392 268.356,352.300 268.234,351.862 268.671 M250.428 287.476 C 250.518 288.515,251.144 289.396,251.172 288.524 C 251.187 288.042,251.020 287.536,250.800 287.400 C 250.580 287.264,250.413 287.298,250.428 287.476 M343.200 290.600 C 343.200 290.930,343.380 291.200,343.600 291.200 C 343.820 291.200,344.000 290.930,344.000 290.600 C 344.000 290.270,343.820 290.000,343.600 290.000 C 343.380 290.000,343.200 290.270,343.200 290.600 M56.800 291.767 C 56.800 292.188,58.005 293.328,58.221 293.112 C 58.322 293.011,58.044 292.602,57.602 292.202 C 57.161 291.803,56.800 291.607,56.800 291.767 M342.060 292.242 C 341.331 293.066,341.800 293.457,342.581 292.676 C 342.921 292.336,343.200 291.954,343.200 291.829 C 343.200 291.409,342.606 291.624,342.060 292.242 M340.000 293.600 C 340.000 293.820,340.270 294.000,340.600 294.000 C 340.930 294.000,341.200 293.820,341.200 293.600 C 341.200 293.380,340.930 293.200,340.600 293.200 C 340.270 293.200,340.000 293.380,340.000 293.600 M256.400 300.700 C 256.400 300.869,256.760 301.232,257.200 301.507 C 257.640 301.782,258.000 301.869,258.000 301.700 C 258.000 301.531,257.640 301.168,257.200 300.893 C 256.760 300.618,256.400 300.531,256.400 300.700 M313.200 334.400 C 313.976 334.901,314.400 334.901,314.400 334.400 C 314.400 334.180,313.995 334.003,313.500 334.006 C 312.772 334.011,312.715 334.086,313.200 334.400 M275.378 337.635 C 275.231 337.874,275.310 338.270,275.555 338.515 C 275.882 338.842,276.000 338.726,276.000 338.080 C 276.000 337.114,275.792 336.965,275.378 337.635 M288.000 341.829 C 288.000 342.253,289.236 343.297,289.467 343.067 C 289.592 342.941,289.417 342.560,289.076 342.219 C 288.441 341.584,288.000 341.424,288.000 341.829 M262.006 345.433 C 262.009 345.855,262.195 346.470,262.418 346.800 C 262.715 347.238,262.752 347.076,262.556 346.200 C 262.227 344.729,261.998 344.410,262.006 345.433 M329.430 348.824 C 328.959 349.298,328.854 349.600,329.159 349.600 C 329.663 349.600,330.800 348.650,330.800 348.229 C 330.800 347.790,330.194 348.053,329.430 348.824 M342.769 352.300 C 342.753 352.465,342.682 352.893,342.612 353.250 C 341.920 356.802,341.924 356.648,342.554 355.861 C 342.879 355.455,343.055 354.888,342.945 354.602 C 342.835 354.315,342.938 353.962,343.173 353.817 C 343.713 353.483,343.735 352.000,343.200 352.000 C 342.980 352.000,342.786 352.135,342.769 352.300 M308.100 359.076 C 308.485 359.176,309.115 359.176,309.500 359.076 C 309.885 358.975,309.570 358.893,308.800 358.893 C 308.030 358.893,307.715 358.975,308.100 359.076 M315.400 360.147 C 317.165 360.777,321.437 361.267,320.924 360.780 C 320.746 360.612,319.700 360.380,318.600 360.265 C 317.500 360.151,315.970 359.949,315.200 359.817 C 313.811 359.578,313.812 359.580,315.400 360.147 M338.000 360.067 C 338.000 360.250,337.640 360.400,337.200 360.400 C 336.760 360.400,336.400 360.580,336.400 360.800 C 336.400 361.020,335.781 361.200,335.024 361.200 C 334.267 361.200,333.536 361.380,333.400 361.600 C 333.264 361.820,331.678 362.035,329.876 362.077 C 326.635 362.153,326.628 362.156,329.200 362.308 C 331.901 362.467,335.272 361.911,337.483 360.941 C 338.932 360.306,339.453 359.733,338.582 359.733 C 338.262 359.733,338.000 359.883,338.000 360.067 M323.400 361.470 C 323.840 361.567,324.715 361.814,325.345 362.018 C 326.334 362.339,326.422 362.309,325.996 361.795 C 325.708 361.448,324.897 361.219,324.051 361.246 C 323.253 361.272,322.960 361.372,323.400 361.470 M295.800 371.200 C 295.936 371.420,296.622 371.582,297.324 371.560 C 298.543 371.522,298.555 371.506,297.600 371.200 C 296.164 370.740,295.516 370.740,295.800 371.200 M301.000 371.981 C 301.768 372.329,303.910 372.556,303.567 372.253 C 303.475 372.172,302.680 371.996,301.800 371.862 C 300.685 371.693,300.442 371.729,301.000 371.981 M305.646 372.837 C 305.951 373.030,307.010 373.176,308.000 373.162 C 310.133 373.132,309.755 372.940,307.046 372.676 C 305.842 372.559,305.305 372.621,305.646 372.837 M312.800 373.997 C 313.790 374.181,315.410 374.431,316.400 374.553 L 318.200 374.774 316.600 374.354 C 315.720 374.123,314.100 373.873,313.000 373.798 L 311.000 373.662 312.800 373.997 M318.800 374.800 C 319.130 375.013,319.670 375.188,320.000 375.188 C 320.533 375.188,320.533 375.145,320.000 374.800 C 319.670 374.587,319.130 374.412,318.800 374.412 C 318.267 374.412,318.267 374.455,318.800 374.800 " stroke="none" fill="#0c90c4" fill-rule="evenodd"></path></g></svg>