<svg id="svg" version="1.1" xmlns="http://www.w3.org/2000/svg" xmlns:xlink="http://www.w3.org/1999/xlink" width="400" height="400" viewBox="0, 0, 400,400"><g id="svgg"><path id="path0" d="M187.200 91.204 C 187.200 132.625,187.159 135.242,186.500 135.788 C 184.748 137.240,180.256 140.400,179.945 140.400 C 179.755 140.400,179.600 135.633,179.600 129.806 C 179.600 123.298,179.425 118.476,179.147 117.306 C 176.134 104.647,164.359 96.545,153.099 99.386 C 149.532 100.286,139.633 104.242,135.400 106.460 C 128.641 110.000,126.795 111.102,122.609 114.093 C 122.138 114.429,117.418 118.099,116.147 119.117 C 110.654 123.515,102.164 133.030,97.335 140.200 C 94.094 145.012,87.600 156.985,87.600 158.149 C 87.600 158.292,87.250 159.172,86.822 160.104 C 84.304 165.592,81.548 175.834,79.368 187.800 C 79.008 189.780,78.569 192.120,78.393 193.000 C 78.218 193.880,77.877 195.635,77.637 196.900 C 77.397 198.165,77.003 200.235,76.763 201.500 C 76.523 202.765,76.163 204.610,75.965 205.600 C 75.766 206.590,75.422 208.390,75.200 209.600 C 74.978 210.810,74.617 212.700,74.398 213.800 C 73.980 215.898,73.491 218.452,72.768 222.300 C 72.531 223.565,72.177 225.410,71.983 226.400 C 71.789 227.390,71.525 228.830,71.396 229.600 C 71.267 230.370,71.002 231.720,70.808 232.600 C 70.613 233.480,70.249 235.370,70.000 236.800 C 69.751 238.230,69.389 240.120,69.197 241.000 C 69.005 241.880,68.480 244.580,68.031 247.000 C 67.582 249.420,66.681 254.190,66.030 257.600 C 65.378 261.010,64.468 265.780,64.008 268.200 C 61.988 278.830,63.377 285.544,68.722 290.981 C 71.291 293.595,73.261 294.888,76.856 296.322 C 80.371 297.723,85.628 297.241,97.600 294.419 C 98.590 294.186,100.300 293.808,101.400 293.580 C 102.500 293.352,104.120 293.001,105.000 292.800 C 105.880 292.599,107.500 292.248,108.600 292.020 C 109.700 291.792,111.410 291.414,112.400 291.181 C 113.390 290.947,114.920 290.606,115.800 290.422 C 117.612 290.043,121.115 289.275,123.200 288.800 C 123.970 288.624,125.567 288.283,126.750 288.041 C 132.785 286.808,145.415 281.264,148.077 278.681 C 148.365 278.402,149.230 277.733,150.000 277.194 C 153.866 274.489,160.531 267.821,163.188 264.000 C 163.723 263.230,164.286 262.510,164.439 262.400 C 165.013 261.986,168.926 255.308,170.176 252.609 C 172.555 247.474,172.819 246.844,173.653 244.314 C 175.014 240.183,175.863 236.914,176.436 233.600 C 177.223 229.046,177.958 215.008,177.974 204.200 C 178.000 187.142,178.690 173.557,179.570 172.800 C 180.393 172.092,181.177 171.506,187.000 167.250 C 189.420 165.481,191.580 163.885,191.800 163.704 C 192.020 163.523,193.369 162.571,194.797 161.588 C 196.226 160.604,197.743 159.487,198.168 159.105 C 199.575 157.839,202.800 158.244,202.800 159.686 C 202.800 159.859,202.978 160.000,203.196 160.000 C 203.413 160.000,204.628 160.775,205.896 161.722 C 207.163 162.668,209.370 164.300,210.800 165.348 C 212.230 166.395,213.850 167.612,214.400 168.051 C 214.950 168.490,215.895 169.147,216.500 169.511 C 217.105 169.875,217.600 170.314,217.600 170.486 C 217.600 170.659,217.793 170.800,218.029 170.800 C 218.264 170.800,218.723 171.066,219.048 171.391 C 219.373 171.716,219.931 172.146,220.288 172.345 C 221.342 172.935,221.565 176.431,222.017 199.400 C 222.498 223.851,223.090 234.382,224.039 235.380 C 224.237 235.589,224.408 236.219,224.418 236.780 C 224.439 238.018,225.317 241.451,225.714 241.847 C 225.871 242.005,226.000 242.466,226.000 242.872 C 226.000 243.278,226.166 243.923,226.368 244.305 C 226.570 244.687,227.141 246.080,227.635 247.400 C 235.288 267.824,253.343 283.638,274.200 288.182 C 274.860 288.325,276.210 288.622,277.200 288.840 C 278.190 289.058,279.810 289.397,280.800 289.593 C 281.790 289.789,283.410 290.152,284.400 290.400 C 286.299 290.875,288.868 291.408,291.200 291.812 C 291.970 291.945,292.960 292.211,293.400 292.402 C 293.840 292.594,294.830 292.842,295.600 292.953 C 296.370 293.064,297.855 293.346,298.900 293.578 C 299.945 293.810,301.610 294.180,302.600 294.400 C 303.590 294.620,305.210 294.980,306.200 295.200 C 311.062 296.280,311.985 296.464,314.400 296.830 C 325.478 298.510,334.987 290.960,336.792 279.053 C 337.231 276.155,337.074 274.109,335.988 268.600 C 335.771 267.500,334.965 263.180,334.197 259.000 C 332.725 250.996,332.156 248.028,331.591 245.400 C 331.402 244.520,331.131 243.080,330.989 242.200 C 330.846 241.320,330.566 239.790,330.365 238.800 C 329.994 236.968,329.543 234.625,328.768 230.500 C 328.531 229.235,328.178 227.390,327.984 226.400 C 327.790 225.410,327.430 223.520,327.184 222.200 C 326.626 219.207,326.113 216.558,325.616 214.100 C 325.404 213.055,325.030 211.120,324.784 209.800 C 324.538 208.480,324.171 206.545,323.968 205.500 C 323.766 204.455,323.438 202.745,323.240 201.700 C 322.897 199.887,322.352 197.124,321.565 193.200 C 321.366 192.210,321.036 190.410,320.830 189.200 C 318.930 178.001,315.804 166.007,313.324 160.400 C 312.984 159.630,312.435 158.370,312.105 157.600 C 311.296 155.713,308.127 149.290,307.270 147.800 C 301.538 137.834,297.645 132.768,289.434 124.588 C 284.806 119.979,275.149 112.000,274.198 112.000 C 274.065 112.000,272.931 111.312,271.678 110.472 C 268.185 108.129,260.046 104.212,252.870 101.421 C 240.734 96.700,231.029 99.297,224.544 109.000 C 220.906 114.444,220.330 117.425,220.475 130.086 C 220.611 141.877,220.822 141.469,216.300 138.124 L 212.800 135.535 212.800 91.367 L 212.800 47.200 200.000 47.200 L 187.200 47.200 187.200 91.204 M266.800 126.000 C 266.800 126.220,267.430 126.400,268.200 126.400 C 268.970 126.400,269.600 126.580,269.600 126.800 C 269.600 127.020,269.951 127.200,270.381 127.200 C 271.284 127.200,275.200 130.954,275.200 131.819 C 275.200 132.139,275.380 132.400,275.600 132.400 C 275.820 132.400,276.000 132.839,276.000 133.376 C 276.000 133.913,276.180 134.464,276.400 134.600 C 276.620 134.736,276.800 136.176,276.800 137.800 C 276.800 139.424,276.620 140.864,276.400 141.000 C 276.180 141.136,276.000 141.687,276.000 142.224 C 276.000 142.761,275.820 143.200,275.600 143.200 C 275.380 143.200,275.200 143.475,275.200 143.811 C 275.200 144.489,271.857 148.000,271.211 148.000 C 270.985 148.000,270.800 148.180,270.800 148.400 C 270.800 148.620,270.476 148.800,270.080 148.800 C 269.684 148.800,269.153 149.007,268.900 149.260 C 266.372 151.788,254.400 147.288,254.400 143.811 C 254.400 143.475,254.220 143.200,254.000 143.200 C 253.780 143.200,253.600 142.761,253.600 142.224 C 253.600 141.687,253.420 141.136,253.200 141.000 C 252.695 140.688,252.673 135.424,253.174 134.495 C 253.379 134.113,253.783 133.215,254.071 132.500 C 254.360 131.785,254.731 131.200,254.898 131.200 C 255.064 131.200,255.202 130.975,255.204 130.700 C 255.206 130.425,255.777 129.750,256.474 129.200 C 257.171 128.650,257.966 127.975,258.242 127.700 C 258.517 127.425,259.026 127.200,259.371 127.200 C 259.717 127.200,260.000 127.020,260.000 126.800 C 260.000 126.580,260.619 126.400,261.376 126.400 C 262.133 126.400,262.864 126.220,263.000 126.000 C 263.136 125.780,264.047 125.600,265.024 125.600 C 266.001 125.600,266.800 125.780,266.800 126.000 M138.818 127.306 C 146.828 130.098,148.863 139.991,142.677 146.062 C 135.865 152.746,124.253 147.640,124.253 137.960 C 124.253 130.166,131.601 124.791,138.818 127.306 M297.000 154.000 C 297.136 154.220,297.543 154.400,297.904 154.400 C 299.162 154.400,301.994 157.889,302.060 159.520 C 302.251 164.198,301.519 165.757,298.288 167.557 C 291.462 171.361,284.283 161.984,289.700 156.340 C 291.932 154.014,296.169 152.656,297.000 154.000 M108.441 155.714 C 113.790 159.310,111.545 167.203,105.175 167.199 C 96.681 167.193,96.549 155.019,105.041 154.842 C 106.553 154.811,107.434 155.037,108.441 155.714 M269.105 186.753 C 269.487 186.948,270.340 187.353,271.000 187.653 C 276.145 189.997,276.961 198.203,272.434 202.078 C 268.203 205.700,262.052 204.479,259.232 199.458 C 258.333 197.857,257.994 192.000,258.800 192.000 C 259.020 192.000,259.200 191.698,259.200 191.328 C 259.200 190.335,262.736 187.200,263.856 187.200 C 264.375 187.200,264.800 187.020,264.800 186.800 C 264.800 186.306,268.154 186.269,269.105 186.753 M137.039 188.602 C 141.585 191.266,142.321 196.792,138.638 200.616 C 134.757 204.646,128.418 203.654,126.065 198.649 C 122.834 191.776,130.492 184.765,137.039 188.602 M304.000 222.800 C 304.000 223.020,304.331 223.200,304.736 223.200 C 305.140 223.200,306.019 223.801,306.688 224.537 C 310.451 228.672,309.199 234.485,304.085 236.622 C 302.491 237.288,300.161 237.385,299.800 236.800 C 299.664 236.580,299.230 236.400,298.836 236.400 C 296.964 236.400,294.400 232.453,294.400 229.570 C 294.400 227.008,296.872 223.200,298.536 223.200 C 298.875 223.200,299.264 223.020,299.400 222.800 C 299.536 222.580,300.627 222.400,301.824 222.400 C 303.021 222.400,304.000 222.580,304.000 222.800 M102.532 224.910 C 105.270 227.493,105.327 231.821,102.654 234.276 C 96.607 239.829,88.247 230.953,94.055 225.145 C 96.259 222.941,100.324 222.828,102.532 224.910 " stroke="none" fill="#fac4ad" fill-rule="evenodd"></path><path id="path1" d="M327.400 44.988 C 328.060 45.529,328.749 45.978,328.931 45.986 C 329.113 45.994,328.727 45.550,328.073 45.000 C 327.419 44.450,326.730 44.001,326.542 44.002 C 326.354 44.003,326.740 44.447,327.400 44.988 M213.600 91.076 L 213.600 134.708 216.700 136.986 L 219.800 139.264 219.919 137.301 C 219.984 136.222,219.878 132.558,219.684 129.160 C 219.084 118.677,220.749 111.726,225.037 106.798 C 233.022 97.622,241.046 95.886,253.370 100.666 C 258.443 102.634,268.681 107.391,269.200 108.021 C 269.310 108.155,269.985 108.519,270.700 108.830 C 271.415 109.141,272.000 109.510,272.000 109.649 C 272.000 109.789,272.540 110.127,273.200 110.400 C 273.860 110.673,274.400 111.055,274.400 111.249 C 274.400 111.442,274.636 111.600,274.925 111.600 C 275.213 111.600,275.798 111.915,276.225 112.300 C 276.651 112.685,277.720 113.491,278.600 114.091 C 279.480 114.691,281.010 115.756,282.000 116.458 C 282.990 117.159,283.710 117.616,283.600 117.473 C 283.361 117.161,217.080 50.806,215.027 48.822 L 213.600 47.443 213.600 91.076 M354.000 70.976 C 354.000 71.140,354.360 71.731,354.800 72.291 C 355.240 72.850,355.600 73.131,355.600 72.915 C 355.600 72.699,355.240 72.107,354.800 71.600 C 354.360 71.093,354.000 70.812,354.000 70.976 M372.801 97.433 C 372.803 97.882,374.313 100.400,374.581 100.400 C 374.686 100.400,374.387 99.725,373.914 98.900 C 372.856 97.052,372.800 96.977,372.801 97.433 M177.600 110.712 C 177.600 111.200,177.780 111.600,178.000 111.600 C 178.220 111.600,178.400 111.949,178.400 112.376 C 178.400 112.803,178.580 113.264,178.800 113.400 C 179.020 113.536,179.200 114.076,179.200 114.600 C 179.200 115.124,179.353 115.648,179.541 115.764 C 180.461 116.332,180.736 122.927,180.261 133.000 C 180.085 136.740,180.089 139.612,180.270 139.382 C 180.452 139.153,181.905 138.003,183.500 136.827 L 186.400 134.690 186.400 126.779 L 186.400 118.869 182.000 114.346 C 178.545 110.795,177.600 110.014,177.600 110.712 M296.813 130.998 C 297.136 131.438,297.580 131.994,297.800 132.235 C 300.341 135.019,306.532 144.453,308.802 149.000 C 309.351 150.100,309.935 151.060,310.100 151.133 C 310.265 151.207,310.400 151.612,310.400 152.033 C 310.400 152.455,310.580 152.800,310.800 152.800 C 311.020 152.800,311.200 153.160,311.200 153.600 C 311.200 154.040,311.380 154.400,311.600 154.400 C 311.820 154.400,312.000 154.642,312.000 154.939 C 312.000 155.235,312.250 156.000,312.556 156.639 C 313.395 158.389,314.250 160.438,314.793 162.000 C 315.393 163.724,315.981 165.180,316.447 166.095 C 316.641 166.477,316.800 167.231,316.800 167.771 C 316.800 168.311,316.959 168.851,317.154 168.971 C 317.349 169.092,317.604 169.687,317.722 170.295 C 317.839 170.903,318.309 172.930,318.766 174.800 C 319.773 178.923,320.618 182.920,321.220 186.400 C 321.467 187.830,321.843 189.900,322.055 191.000 C 322.267 192.100,322.618 193.990,322.836 195.200 C 323.053 196.410,323.411 198.300,323.631 199.400 C 324.356 203.023,324.834 205.774,325.058 207.600 C 325.179 208.590,325.440 209.571,325.639 209.780 C 325.837 209.989,326.000 210.898,326.000 211.800 C 326.000 212.702,326.163 213.611,326.361 213.820 C 326.560 214.029,326.830 215.055,326.961 216.100 C 327.093 217.145,327.307 218.855,327.439 219.900 C 327.570 220.945,327.840 221.971,328.039 222.180 C 328.237 222.389,328.400 223.298,328.400 224.200 C 328.400 225.102,328.563 226.011,328.761 226.220 C 328.960 226.429,329.219 227.410,329.338 228.400 C 329.456 229.390,329.751 231.190,329.992 232.400 C 330.234 233.610,330.597 235.500,330.800 236.600 C 331.003 237.700,331.350 239.500,331.571 240.600 C 332.239 243.914,332.811 246.887,333.188 249.000 C 333.384 250.100,333.653 251.540,333.786 252.200 C 333.918 252.860,334.215 254.390,334.446 255.600 C 334.676 256.810,335.018 258.520,335.206 259.400 C 335.393 260.280,335.739 262.080,335.974 263.400 C 336.209 264.720,336.692 267.308,337.047 269.151 C 339.103 279.817,335.677 290.201,328.751 294.293 C 328.118 294.667,327.600 295.114,327.600 295.286 C 327.600 295.459,327.240 295.600,326.800 295.600 C 326.360 295.600,326.000 295.780,326.000 296.000 C 326.000 296.220,325.651 296.400,325.224 296.400 C 324.797 296.400,324.336 296.580,324.200 296.800 C 324.064 297.020,323.549 297.200,323.056 297.200 C 322.563 297.200,321.968 297.392,321.732 297.628 C 321.208 298.152,314.236 297.894,311.500 297.248 C 310.455 297.002,308.790 296.620,307.800 296.400 C 306.810 296.180,305.145 295.810,304.100 295.578 C 303.055 295.346,301.570 295.064,300.800 294.953 C 300.030 294.842,299.040 294.594,298.600 294.402 C 297.774 294.043,296.171 293.714,293.400 293.336 C 292.520 293.216,291.629 292.956,291.420 292.759 C 291.211 292.562,290.482 292.400,289.800 292.400 C 289.118 292.400,288.389 292.237,288.180 292.039 C 287.971 291.840,286.990 291.576,286.000 291.451 C 282.056 290.956,280.785 290.700,280.574 290.358 C 280.452 290.161,279.760 290.000,279.036 290.000 C 278.312 290.000,277.198 289.842,276.560 289.650 C 275.922 289.457,274.410 289.077,273.200 288.806 C 266.983 287.410,259.156 284.298,255.223 281.658 C 254.660 281.280,253.705 280.722,253.100 280.418 C 252.495 280.114,252.000 279.715,252.000 279.532 C 252.000 279.350,251.809 279.200,251.577 279.200 C 250.061 279.200,240.299 269.922,236.333 264.712 C 232.582 259.785,227.200 250.114,227.200 248.302 C 227.200 247.916,227.020 247.600,226.800 247.600 C 226.580 247.600,226.400 247.150,226.400 246.600 C 226.400 246.050,226.220 245.600,226.000 245.600 C 225.780 245.600,225.600 245.060,225.600 244.400 C 225.600 243.740,225.420 243.200,225.200 243.200 C 224.980 243.200,224.800 242.671,224.800 242.024 C 224.800 241.377,224.620 240.736,224.400 240.600 C 224.180 240.464,224.000 239.769,224.000 239.056 C 224.000 238.343,223.838 237.589,223.641 237.380 C 223.444 237.171,223.169 236.190,223.031 235.200 C 222.893 234.210,222.591 232.230,222.359 230.800 C 221.885 227.873,221.372 212.466,220.987 189.600 C 220.732 174.463,220.712 174.188,219.864 173.489 C 219.389 173.098,217.560 171.757,215.800 170.509 C 214.040 169.260,212.510 168.132,212.400 168.000 C 212.290 167.869,211.570 167.329,210.800 166.800 C 210.030 166.271,209.310 165.731,209.200 165.600 C 209.090 165.469,208.370 164.929,207.600 164.400 C 206.830 163.871,206.110 163.340,206.000 163.219 C 205.890 163.099,204.900 162.375,203.800 161.612 C 202.700 160.848,201.451 159.903,201.025 159.512 C 200.205 158.760,199.600 158.591,199.600 159.114 C 199.600 159.286,199.067 159.743,198.415 160.128 C 197.763 160.513,196.998 161.053,196.715 161.327 C 196.432 161.602,195.570 162.266,194.800 162.802 C 194.030 163.339,193.220 163.927,193.000 164.109 C 192.780 164.291,189.630 166.610,186.000 169.262 L 179.400 174.083 179.106 189.142 C 178.512 219.565,177.929 232.989,177.166 233.780 C 176.965 233.989,176.800 234.934,176.800 235.880 C 176.800 236.826,176.620 237.600,176.400 237.600 C 176.180 237.600,176.000 238.219,176.000 238.976 C 176.000 239.733,175.820 240.464,175.600 240.600 C 175.380 240.736,175.200 241.366,175.200 242.000 C 175.200 242.634,175.020 243.264,174.800 243.400 C 174.580 243.536,174.400 243.999,174.400 244.429 C 174.400 244.859,174.241 245.523,174.047 245.905 C 173.852 246.287,173.525 247.050,173.319 247.600 C 171.758 251.764,165.434 263.203,164.030 264.400 C 163.901 264.510,163.304 265.259,162.704 266.065 C 161.315 267.930,155.098 274.243,153.000 275.919 C 149.422 278.778,146.572 280.792,146.100 280.796 C 145.825 280.798,145.599 280.935,145.597 281.100 C 145.595 281.265,145.190 281.599,144.697 281.841 C 144.204 282.084,142.810 282.813,141.600 283.462 C 139.057 284.824,133.479 287.112,131.416 287.639 C 130.637 287.837,129.325 288.182,128.500 288.405 C 127.036 288.800,124.734 289.324,121.300 290.044 C 120.365 290.240,118.745 290.592,117.700 290.826 C 116.655 291.060,115.080 291.349,114.200 291.467 C 113.320 291.585,112.429 291.844,112.220 292.041 C 112.011 292.238,111.167 292.400,110.344 292.400 C 109.521 292.400,108.748 292.561,108.626 292.758 C 108.414 293.100,107.593 293.276,103.600 293.831 C 102.610 293.969,101.629 294.244,101.420 294.441 C 101.211 294.638,100.392 294.800,99.600 294.800 C 98.808 294.800,97.989 294.962,97.780 295.159 C 97.571 295.356,96.680 295.616,95.800 295.736 C 93.029 296.114,91.426 296.443,90.600 296.802 C 88.537 297.700,78.979 298.339,78.268 297.628 C 78.032 297.392,77.437 297.200,76.944 297.200 C 76.451 297.200,75.936 297.020,75.800 296.800 C 75.664 296.580,75.203 296.400,74.776 296.400 C 74.349 296.400,74.000 296.220,74.000 296.000 C 74.000 295.780,73.764 295.600,73.476 295.600 C 73.188 295.600,95.954 318.595,124.066 346.700 C 152.178 374.805,175.184 398.025,175.190 398.300 C 175.195 398.575,175.425 398.813,175.700 398.828 C 175.975 398.844,175.845 398.995,175.412 399.164 C 174.035 399.703,183.513 399.976,200.800 399.897 C 219.985 399.810,224.957 399.655,223.800 399.183 C 223.028 398.867,223.030 398.855,223.867 398.828 C 224.343 398.813,224.824 399.025,224.935 399.300 C 225.096 399.700,225.143 399.700,225.168 399.300 C 225.190 398.953,226.086 398.788,228.100 398.760 C 230.162 398.732,230.711 398.628,230.000 398.400 C 229.324 398.183,230.133 398.067,232.500 398.040 C 234.540 398.017,236.000 397.833,236.000 397.600 C 236.000 397.380,236.641 397.200,237.424 397.200 C 238.271 397.200,238.747 397.038,238.600 396.800 C 238.464 396.580,238.528 396.400,238.743 396.400 C 238.958 396.400,239.238 396.625,239.367 396.900 C 239.553 397.300,239.647 397.300,239.833 396.900 C 239.968 396.612,240.806 396.400,241.810 396.400 C 242.768 396.400,243.664 396.220,243.800 396.000 C 243.936 395.780,244.757 395.600,245.624 395.600 C 246.491 395.600,247.200 395.420,247.200 395.200 C 247.200 394.980,247.920 394.800,248.800 394.800 C 249.680 394.800,250.400 394.620,250.400 394.400 C 250.400 394.180,251.120 394.000,252.000 394.000 C 252.880 394.000,253.600 393.820,253.600 393.600 C 253.600 393.380,254.140 393.200,254.800 393.200 C 255.460 393.200,256.000 393.020,256.000 392.800 C 256.000 392.580,256.495 392.397,257.100 392.394 C 257.957 392.389,258.068 392.302,257.600 392.000 C 257.087 391.669,257.102 391.611,257.700 391.606 C 258.085 391.603,258.403 391.825,258.406 392.100 C 258.410 392.456,258.497 392.470,258.706 392.148 C 258.868 391.900,259.945 391.568,261.100 391.411 C 262.254 391.254,263.300 390.962,263.423 390.763 C 263.546 390.563,264.076 390.400,264.600 390.400 C 265.124 390.400,265.664 390.220,265.800 390.000 C 265.936 389.780,266.399 389.600,266.829 389.600 C 267.584 389.600,267.974 389.456,269.895 388.462 C 270.387 388.208,271.152 388.000,271.595 388.000 C 272.038 388.000,272.400 387.820,272.400 387.600 C 272.400 387.380,272.850 387.200,273.400 387.200 C 273.950 387.200,274.400 387.020,274.400 386.800 C 274.400 386.580,274.760 386.400,275.200 386.400 C 275.640 386.400,276.000 386.220,276.000 386.000 C 276.000 385.780,276.540 385.600,277.200 385.600 C 277.860 385.600,278.400 385.420,278.400 385.200 C 278.400 384.980,278.760 384.800,279.200 384.800 C 279.640 384.800,280.000 384.620,280.000 384.400 C 280.000 384.180,280.405 383.997,280.900 383.994 C 281.628 383.989,281.685 383.914,281.200 383.600 C 280.745 383.306,280.914 383.211,281.900 383.206 C 282.615 383.203,283.200 383.020,283.200 382.800 C 283.200 382.580,283.740 382.400,284.400 382.400 C 285.060 382.400,285.600 382.220,285.600 382.000 C 285.600 381.780,285.960 381.600,286.400 381.600 C 286.840 381.600,287.200 381.420,287.200 381.200 C 287.200 380.980,287.560 380.800,288.000 380.800 C 288.440 380.800,288.800 380.620,288.800 380.400 C 288.800 380.180,289.068 380.000,289.397 380.000 C 289.725 380.000,290.218 379.640,290.493 379.200 C 290.796 378.714,291.426 378.400,292.096 378.400 C 292.703 378.400,293.200 378.220,293.200 378.000 C 293.200 377.780,293.560 377.600,294.000 377.600 C 294.440 377.600,294.800 377.420,294.800 377.200 C 294.800 376.980,295.036 376.800,295.325 376.800 C 295.613 376.800,296.236 376.440,296.708 376.000 C 297.180 375.560,297.781 375.200,298.043 375.200 C 298.749 375.200,302.800 373.085,302.800 372.716 C 302.800 372.542,303.078 372.400,303.417 372.400 C 303.756 372.400,304.420 372.040,304.892 371.600 C 305.364 371.160,305.987 370.800,306.275 370.800 C 306.564 370.800,306.800 370.620,306.800 370.400 C 306.800 370.180,307.030 370.000,307.312 370.000 C 307.593 370.000,308.083 369.640,308.400 369.200 C 308.717 368.760,309.257 368.400,309.600 368.400 C 309.943 368.400,310.483 368.040,310.800 367.600 C 311.117 367.160,311.742 366.797,312.188 366.794 C 312.859 366.789,312.896 366.720,312.400 366.400 C 311.915 366.086,311.972 366.011,312.700 366.006 C 313.195 366.003,313.600 365.820,313.600 365.600 C 313.600 365.380,313.920 365.200,314.312 365.200 C 314.703 365.200,315.283 364.840,315.600 364.400 C 315.917 363.960,316.425 363.600,316.728 363.600 C 317.031 363.600,317.783 363.060,318.400 362.400 C 319.017 361.740,319.737 361.200,320.000 361.200 C 320.263 361.200,320.983 360.660,321.600 360.000 C 322.217 359.340,322.934 358.800,323.194 358.800 C 323.454 358.800,324.279 358.170,325.026 357.400 C 325.774 356.630,326.545 356.000,326.739 356.000 C 326.934 356.000,328.123 355.010,329.382 353.800 C 330.642 352.590,331.834 351.600,332.032 351.600 C 332.230 351.600,334.445 349.512,336.955 346.959 C 339.464 344.406,341.671 342.162,341.859 341.972 C 342.047 341.783,344.225 339.647,346.700 337.226 C 349.175 334.806,351.200 332.666,351.200 332.472 C 351.200 332.278,351.740 331.554,352.400 330.863 C 353.060 330.172,353.600 329.396,353.600 329.137 C 353.600 328.878,353.717 328.783,353.860 328.926 C 354.127 329.194,355.999 327.241,356.000 326.693 C 356.000 326.524,356.630 325.774,357.400 325.026 C 358.170 324.279,358.800 323.454,358.800 323.194 C 358.800 322.934,359.340 322.217,360.000 321.600 C 360.660 320.983,361.200 320.280,361.200 320.036 C 361.200 319.792,361.740 319.028,362.400 318.337 C 363.060 317.646,363.600 316.878,363.600 316.629 C 363.600 316.380,363.960 315.917,364.400 315.600 C 364.840 315.283,365.200 314.743,365.200 314.400 C 365.200 314.057,365.560 313.517,366.000 313.200 C 366.440 312.883,366.800 312.303,366.800 311.912 C 366.800 311.520,366.980 311.200,367.200 311.200 C 367.420 311.200,367.603 310.795,367.606 310.300 C 367.611 309.572,367.686 309.515,368.000 310.000 C 368.320 310.496,368.389 310.459,368.394 309.788 C 368.397 309.342,368.760 308.717,369.200 308.400 C 369.640 308.083,370.000 307.593,370.000 307.312 C 370.000 307.030,370.180 306.800,370.400 306.800 C 370.620 306.800,370.800 306.564,370.800 306.275 C 370.800 305.987,371.160 305.364,371.600 304.892 C 372.040 304.420,372.400 303.756,372.400 303.417 C 372.400 303.078,372.580 302.800,372.800 302.800 C 373.020 302.800,373.200 302.603,373.200 302.362 C 373.200 302.121,373.548 301.435,373.973 300.837 C 374.399 300.240,374.878 299.222,375.037 298.576 C 375.197 297.929,375.698 297.075,376.151 296.677 C 376.807 296.102,376.864 295.887,376.434 295.621 C 376.021 295.366,376.094 295.224,376.747 295.017 C 377.380 294.816,377.602 294.418,377.606 293.473 C 377.611 292.504,377.705 292.343,378.000 292.800 C 378.314 293.285,378.389 293.228,378.394 292.500 C 378.397 292.005,378.535 291.599,378.700 291.597 C 379.239 291.591,379.988 289.604,379.462 289.573 C 379.208 289.558,379.405 289.351,379.900 289.112 C 380.395 288.873,380.800 288.515,380.800 288.315 C 380.800 288.116,380.620 288.064,380.400 288.200 C 380.180 288.336,380.000 288.269,380.000 288.051 C 380.000 287.832,380.360 287.540,380.800 287.400 C 381.311 287.238,381.600 286.795,381.600 286.173 C 381.600 285.638,381.735 285.199,381.900 285.197 C 382.306 285.193,383.200 283.214,383.200 282.320 C 383.200 281.924,383.380 281.600,383.600 281.600 C 383.820 281.600,384.000 281.240,384.000 280.800 C 384.000 280.360,384.180 280.000,384.400 280.000 C 384.620 280.000,384.800 279.640,384.800 279.200 C 384.800 278.760,385.002 278.400,385.249 278.400 C 385.542 278.400,385.507 278.164,385.149 277.723 C 384.776 277.263,384.760 277.143,385.100 277.347 C 385.435 277.548,385.600 277.376,385.600 276.824 C 385.600 276.371,385.780 276.000,386.000 276.000 C 386.220 276.000,386.400 275.640,386.400 275.200 C 386.400 274.760,386.580 274.400,386.800 274.400 C 387.020 274.400,387.200 273.950,387.200 273.400 C 387.200 272.850,387.380 272.400,387.600 272.400 C 387.820 272.400,388.000 271.961,388.000 271.424 C 388.000 270.887,388.144 270.358,388.321 270.249 C 388.497 270.140,388.893 269.128,389.200 268.000 C 389.507 266.872,389.903 265.860,390.079 265.751 C 390.256 265.642,390.400 265.143,390.400 264.643 C 390.400 264.143,390.525 263.608,390.678 263.455 C 390.966 263.168,391.057 262.777,391.392 260.402 C 391.500 259.633,391.771 258.943,391.994 258.869 C 392.217 258.794,392.400 258.118,392.400 257.367 C 392.400 256.615,392.580 256.000,392.800 256.000 C 393.020 256.000,393.200 255.460,393.200 254.800 C 393.200 254.140,393.380 253.600,393.600 253.600 C 393.820 253.600,394.000 252.880,394.000 252.000 C 394.000 251.120,394.180 250.400,394.400 250.400 C 394.620 250.400,394.800 249.695,394.800 248.833 C 394.800 247.936,395.014 247.195,395.300 247.098 C 395.681 246.970,395.658 246.754,395.200 246.188 C 394.854 245.761,394.812 245.574,395.100 245.747 C 395.447 245.955,395.600 245.741,395.600 245.047 C 395.600 244.497,395.799 243.924,396.043 243.774 C 396.352 243.583,396.322 243.399,395.946 243.167 C 395.516 242.901,395.508 242.732,395.903 242.337 C 396.177 242.063,396.400 241.426,396.400 240.920 C 396.400 240.414,396.580 240.000,396.800 240.000 C 397.020 240.000,397.200 239.136,397.200 238.080 C 397.200 237.024,397.425 235.918,397.700 235.621 C 398.100 235.190,398.100 235.139,397.700 235.365 C 397.390 235.540,397.200 235.402,397.200 235.000 C 397.200 234.644,397.380 234.464,397.600 234.600 C 397.847 234.752,398.000 234.071,398.000 232.824 C 398.000 231.536,397.828 230.800,397.528 230.800 C 397.269 230.800,374.496 208.255,346.922 180.700 C 295.958 129.771,295.784 129.598,296.813 130.998 M44.400 326.983 C 44.400 327.143,44.760 327.731,45.200 328.291 C 45.640 328.850,46.000 329.177,46.000 329.017 C 46.000 328.857,45.640 328.269,45.200 327.709 C 44.760 327.150,44.400 326.823,44.400 326.983 " stroke="none" fill="#2c64f3" fill-rule="evenodd"></path><path id="path2" d="M178.601 0.283 C 176.842 0.368,175.231 0.609,175.021 0.819 C 174.812 1.028,173.517 1.200,172.144 1.200 C 170.771 1.200,169.536 1.380,169.400 1.600 C 169.264 1.820,168.299 2.000,167.256 2.000 C 166.213 2.000,165.189 2.170,164.980 2.377 C 164.771 2.584,163.573 2.795,162.318 2.845 C 161.063 2.895,160.129 3.085,160.242 3.268 C 160.355 3.450,159.547 3.600,158.447 3.600 C 157.347 3.600,156.336 3.780,156.200 4.000 C 156.064 4.220,155.459 4.400,154.856 4.400 C 154.253 4.400,153.589 4.570,153.380 4.779 C 153.171 4.987,152.246 5.201,151.324 5.255 C 150.402 5.309,149.738 5.499,149.847 5.677 C 149.957 5.855,149.407 6.000,148.624 6.000 C 147.841 6.000,147.200 6.180,147.200 6.400 C 147.200 6.620,146.570 6.800,145.800 6.800 C 145.030 6.800,144.400 6.980,144.400 7.200 C 144.400 7.420,143.871 7.600,143.224 7.600 C 142.577 7.600,141.936 7.780,141.800 8.000 C 141.664 8.220,141.124 8.400,140.600 8.400 C 140.076 8.400,139.546 8.564,139.422 8.765 C 139.298 8.965,138.757 9.081,138.219 9.022 C 137.662 8.961,137.148 9.159,137.024 9.483 C 136.904 9.795,136.645 9.951,136.449 9.830 C 136.252 9.709,135.486 9.803,134.746 10.040 C 132.798 10.663,132.426 10.773,132.096 10.823 C 131.933 10.848,131.583 11.048,131.318 11.268 C 131.052 11.489,130.647 11.553,130.418 11.411 C 130.188 11.269,130.000 11.305,130.000 11.490 C 130.000 11.939,126.412 13.255,125.957 12.973 C 125.761 12.852,125.599 12.898,125.597 13.076 C 125.593 13.501,123.639 14.400,122.720 14.400 C 122.324 14.400,122.000 14.580,122.000 14.800 C 122.000 15.020,121.640 15.200,121.200 15.200 C 120.760 15.200,120.400 15.380,120.400 15.600 C 120.400 15.820,120.051 16.000,119.624 16.000 C 119.197 16.000,118.736 16.180,118.600 16.400 C 118.464 16.620,118.003 16.800,117.576 16.800 C 117.149 16.800,116.800 16.980,116.800 17.200 C 116.800 17.420,116.548 17.600,116.241 17.600 C 115.638 17.600,108.049 21.409,107.420 22.026 C 107.211 22.232,106.666 22.400,106.208 22.400 C 105.751 22.400,105.117 22.760,104.800 23.200 C 104.483 23.640,103.903 24.000,103.512 24.000 C 103.120 24.000,102.800 24.180,102.800 24.400 C 102.800 24.620,102.517 24.800,102.171 24.800 C 101.826 24.800,101.273 25.070,100.943 25.400 C 100.613 25.730,100.015 26.000,99.614 26.000 C 99.213 26.000,98.778 26.281,98.646 26.625 C 98.514 26.969,98.224 27.139,98.003 27.002 C 97.781 26.865,97.600 26.948,97.600 27.186 C 97.600 27.425,97.136 27.796,96.570 28.012 C 96.003 28.227,94.756 28.942,93.798 29.602 C 92.840 30.261,91.863 30.800,91.628 30.800 C 91.393 30.800,91.200 30.958,91.200 31.151 C 91.200 31.345,90.660 31.727,90.000 32.000 C 89.340 32.273,88.800 32.655,88.800 32.849 C 88.800 33.042,88.622 33.200,88.405 33.200 C 88.033 33.200,86.985 33.960,85.784 35.100 C 85.494 35.375,85.102 35.600,84.913 35.600 C 84.724 35.600,83.947 36.133,83.185 36.784 C 82.423 37.435,81.564 37.975,81.276 37.984 C 80.988 37.993,80.864 38.180,81.000 38.400 C 81.136 38.620,81.002 38.800,80.702 38.800 C 80.402 38.800,79.471 39.428,78.633 40.196 C 77.795 40.963,76.922 41.475,76.693 41.334 C 76.451 41.184,76.396 41.270,76.562 41.538 C 76.719 41.792,76.698 42.000,76.516 42.000 C 76.334 42.000,75.315 42.719,74.251 43.598 C 73.188 44.477,72.156 45.096,71.959 44.974 C 71.761 44.853,71.600 44.949,71.600 45.189 C 71.600 45.660,69.168 47.937,67.934 48.621 C 67.517 48.852,67.301 49.167,67.454 49.321 C 67.708 49.575,67.039 49.764,66.300 49.647 C 66.135 49.621,66.045 49.735,66.099 49.900 C 66.228 50.288,59.588 56.800,59.064 56.800 C 58.845 56.800,58.775 56.908,58.907 57.041 C 59.219 57.352,57.495 59.149,57.100 58.924 C 56.935 58.830,56.800 58.922,56.800 59.129 C 56.800 59.718,50.068 66.331,49.753 66.050 C 49.598 65.913,49.594 66.014,49.744 66.275 C 49.894 66.537,49.784 66.897,49.499 67.075 C 49.214 67.254,48.684 67.850,48.321 68.400 C 47.195 70.105,45.731 71.600,45.187 71.600 C 44.901 71.600,44.781 71.715,44.922 71.855 C 45.148 72.082,43.843 74.288,43.179 74.800 C 43.036 74.910,42.704 75.410,42.440 75.911 C 42.174 76.416,41.763 76.701,41.518 76.549 C 41.269 76.395,41.188 76.458,41.334 76.693 C 41.475 76.922,40.963 77.795,40.196 78.633 C 39.428 79.471,38.800 80.402,38.800 80.702 C 38.800 81.002,38.620 81.136,38.400 81.000 C 38.180 80.864,38.000 81.033,38.000 81.376 C 38.000 81.719,37.820 82.000,37.600 82.000 C 37.380 82.000,37.200 82.230,37.200 82.512 C 37.200 82.793,36.840 83.283,36.400 83.600 C 35.960 83.917,35.600 84.417,35.600 84.712 C 35.600 85.006,35.416 85.133,35.190 84.994 C 34.965 84.855,34.806 84.889,34.837 85.070 C 34.960 85.778,34.773 86.280,34.100 87.046 C 33.246 88.019,32.669 88.913,31.550 91.000 C 31.079 91.880,30.575 92.690,30.431 92.800 C 30.288 92.910,29.597 93.900,28.896 95.000 C 28.195 96.100,27.429 97.225,27.195 97.500 C 26.960 97.775,26.900 98.000,27.061 98.000 C 27.221 98.000,27.021 98.243,26.615 98.539 C 26.210 98.836,25.989 99.259,26.125 99.479 C 26.261 99.699,26.019 100.259,25.586 100.723 C 25.154 101.187,24.800 101.844,24.800 102.183 C 24.800 102.522,24.620 102.800,24.400 102.800 C 24.180 102.800,24.000 103.160,24.000 103.600 C 24.000 104.040,23.865 104.401,23.700 104.403 C 23.535 104.405,23.205 104.810,22.967 105.303 C 22.729 105.796,21.535 108.090,20.314 110.400 C 19.092 112.710,18.043 114.780,17.983 115.000 C 17.922 115.220,17.790 115.715,17.690 116.100 C 17.589 116.485,17.348 116.800,17.153 116.800 C 16.959 116.800,16.800 117.149,16.800 117.576 C 16.800 118.003,16.620 118.464,16.400 118.600 C 16.180 118.736,16.000 119.197,16.000 119.624 C 16.000 120.051,15.820 120.400,15.600 120.400 C 15.380 120.400,15.200 120.672,15.200 121.005 C 15.200 121.593,15.033 122.018,14.062 123.895 C 13.808 124.387,13.600 125.072,13.600 125.418 C 13.600 125.792,13.412 125.931,13.138 125.762 C 12.862 125.591,12.785 125.651,12.946 125.912 C 13.193 126.312,12.153 129.538,11.628 130.000 C 11.502 130.110,11.350 130.502,11.289 130.871 C 11.228 131.239,10.812 132.589,10.364 133.871 C 9.916 135.152,9.531 136.425,9.508 136.700 C 9.485 136.975,9.353 137.200,9.213 137.200 C 9.074 137.200,8.927 137.605,8.886 138.100 C 8.713 140.215,8.287 142.000,7.956 142.000 C 7.760 142.000,7.600 142.504,7.600 143.120 C 7.600 143.736,7.421 144.419,7.202 144.638 C 6.984 144.856,6.764 145.522,6.715 146.118 C 6.666 146.713,6.485 147.200,6.313 147.200 C 6.141 147.200,6.000 147.819,6.000 148.576 C 6.000 149.333,5.820 150.064,5.600 150.200 C 5.380 150.336,5.200 151.056,5.200 151.800 C 5.200 152.544,5.020 153.264,4.800 153.400 C 4.580 153.536,4.400 154.346,4.400 155.200 C 4.400 156.054,4.220 156.864,4.000 157.000 C 3.780 157.136,3.600 157.946,3.600 158.800 C 3.600 159.654,3.420 160.464,3.200 160.600 C 2.980 160.736,2.800 161.636,2.800 162.600 C 2.800 163.564,2.620 164.464,2.400 164.600 C 2.180 164.736,2.000 165.791,2.000 166.944 C 2.000 168.097,1.833 169.211,1.628 169.420 C 1.424 169.629,1.214 170.970,1.162 172.400 C 1.110 173.830,0.873 175.128,0.634 175.285 C -0.036 175.726,0.029 223.789,0.700 224.460 C 0.999 224.759,1.200 226.021,1.200 227.600 C 1.200 229.052,1.370 230.411,1.577 230.620 C 1.784 230.829,1.995 232.035,2.045 233.300 C 2.096 234.565,2.286 235.600,2.468 235.600 C 2.651 235.600,2.800 236.511,2.800 237.624 C 2.800 238.871,2.953 239.552,3.200 239.400 C 3.447 239.248,3.600 239.929,3.600 241.176 C 3.600 242.289,3.780 243.200,4.000 243.200 C 4.220 243.200,4.400 244.010,4.400 245.000 C 4.400 245.990,4.580 246.800,4.800 246.800 C 5.020 246.800,5.200 247.419,5.200 248.176 C 5.200 248.933,5.380 249.664,5.600 249.800 C 5.820 249.936,6.000 250.667,6.000 251.424 C 6.000 252.181,6.180 252.800,6.400 252.800 C 6.620 252.800,6.800 253.419,6.800 254.176 C 6.800 254.933,6.980 255.664,7.200 255.800 C 7.420 255.936,7.600 256.476,7.600 257.000 C 7.600 257.524,7.761 258.052,7.958 258.174 C 8.155 258.295,8.403 259.071,8.509 259.897 C 8.761 261.843,9.042 262.933,9.534 263.855 C 10.294 265.282,12.811 272.426,12.890 273.381 C 12.934 273.910,13.112 274.255,13.285 274.148 C 13.458 274.040,13.600 274.323,13.600 274.776 C 13.600 275.229,13.780 275.600,14.000 275.600 C 14.220 275.600,14.400 275.853,14.400 276.163 C 14.400 276.472,14.940 277.929,15.600 279.400 C 16.260 280.871,16.800 282.313,16.800 282.604 C 16.800 282.895,16.988 283.196,17.218 283.273 C 17.448 283.349,17.665 283.802,17.701 284.278 C 17.737 284.755,17.909 285.056,18.083 284.949 C 18.257 284.841,18.400 285.043,18.400 285.398 C 18.400 285.966,20.671 290.671,21.200 291.200 C 21.714 291.714,22.400 293.261,22.400 293.906 C 22.400 294.301,22.760 294.883,23.200 295.200 C 23.640 295.517,24.000 296.097,24.000 296.488 C 24.000 296.880,24.160 297.200,24.357 297.200 C 24.553 297.200,24.823 297.636,24.957 298.169 C 25.090 298.702,25.638 299.659,26.174 300.296 C 26.710 300.933,27.265 301.919,27.407 302.487 C 27.550 303.056,28.012 303.891,28.433 304.344 C 28.855 304.796,29.200 305.274,29.200 305.405 C 29.200 305.536,29.920 306.704,30.800 308.000 C 31.680 309.296,32.400 310.546,32.400 310.778 C 32.400 311.010,32.550 311.200,32.732 311.200 C 32.915 311.200,33.319 311.695,33.630 312.300 C 33.940 312.905,34.511 313.691,34.897 314.047 C 35.284 314.403,35.600 314.906,35.600 315.165 C 35.600 315.424,36.037 316.073,36.571 316.607 C 37.105 317.141,37.864 318.123,38.257 318.789 C 38.651 319.455,39.124 320.000,39.310 320.000 C 39.495 320.000,39.543 320.169,39.415 320.375 C 39.288 320.582,39.421 320.897,39.712 321.075 C 40.003 321.254,40.862 322.210,41.619 323.200 C 42.377 324.190,43.497 325.596,44.107 326.324 C 44.718 327.052,45.110 327.822,44.979 328.034 C 44.848 328.246,44.909 328.370,45.116 328.310 C 45.512 328.194,48.800 331.949,48.800 332.516 C 48.800 332.698,48.980 332.736,49.200 332.600 C 49.567 332.373,49.778 332.920,49.637 333.730 C 49.606 333.911,49.739 333.961,49.933 333.842 C 50.127 333.722,50.895 334.383,51.640 335.312 C 52.385 336.240,53.692 337.630,54.543 338.400 C 58.068 341.588,59.151 342.716,58.915 342.951 C 58.779 343.088,58.841 343.200,59.055 343.200 C 59.269 343.200,60.131 343.830,60.972 344.600 C 61.813 345.370,62.387 346.000,62.249 346.000 C 62.111 346.000,62.763 346.675,63.699 347.500 C 64.634 348.325,65.460 349.135,65.533 349.300 C 65.607 349.465,65.818 349.600,66.004 349.600 C 66.189 349.600,67.254 350.504,68.370 351.608 C 69.487 352.713,70.400 353.496,70.400 353.349 C 70.400 353.202,70.940 353.646,71.600 354.337 C 72.260 355.028,72.800 355.497,72.800 355.381 C 72.800 355.159,73.205 355.476,75.258 357.306 C 75.940 357.915,77.016 358.719,77.649 359.093 C 78.282 359.467,78.800 359.914,78.800 360.086 C 78.800 360.259,79.055 360.400,79.367 360.400 C 79.678 360.400,79.993 360.546,80.067 360.724 C 80.245 361.157,84.588 364.400,84.989 364.400 C 85.164 364.400,85.597 364.716,85.953 365.103 C 86.309 365.489,87.095 366.060,87.700 366.370 C 88.305 366.681,88.800 367.085,88.800 367.268 C 88.800 367.450,89.070 367.600,89.400 367.600 C 89.730 367.600,90.000 367.780,90.000 368.000 C 90.000 368.220,90.270 368.400,90.600 368.400 C 90.930 368.400,91.200 368.580,91.200 368.800 C 91.200 369.020,91.367 369.200,91.572 369.200 C 91.908 369.200,96.408 371.899,100.022 374.268 C 100.803 374.781,101.733 375.200,102.088 375.200 C 102.443 375.200,102.793 375.366,102.867 375.570 C 102.940 375.773,103.270 375.998,103.600 376.070 C 103.930 376.141,104.491 376.515,104.847 376.900 C 105.203 377.285,105.878 377.600,106.347 377.600 C 106.816 377.600,107.200 377.780,107.200 378.000 C 107.200 378.220,107.435 378.400,107.722 378.400 C 108.009 378.400,109.060 378.918,110.059 379.551 C 111.058 380.185,112.578 380.946,113.437 381.243 C 114.297 381.540,115.590 382.102,116.312 382.492 C 117.034 382.881,117.889 383.200,118.212 383.200 C 118.535 383.200,118.800 383.380,118.800 383.600 C 118.800 383.820,118.989 384.000,119.219 384.000 C 119.450 384.000,120.384 384.360,121.294 384.800 C 122.205 385.240,123.276 385.600,123.675 385.600 C 124.074 385.600,124.400 385.780,124.400 386.000 C 124.400 386.220,124.749 386.400,125.176 386.400 C 125.603 386.400,126.064 386.580,126.200 386.800 C 126.336 387.020,126.799 387.200,127.229 387.200 C 128.009 387.200,128.296 387.312,130.644 388.532 C 131.328 388.888,131.999 389.068,132.134 388.932 C 132.270 388.797,132.610 388.871,132.890 389.097 C 133.171 389.323,134.024 389.641,134.787 389.805 C 136.173 390.102,136.616 390.270,138.295 391.138 C 138.787 391.392,139.721 391.600,140.371 391.600 C 141.021 391.600,141.664 391.780,141.800 392.000 C 141.936 392.220,142.577 392.400,143.224 392.400 C 143.871 392.400,144.400 392.560,144.400 392.755 C 144.400 393.108,145.658 393.449,148.498 393.864 C 149.322 393.985,149.916 394.212,149.820 394.368 C 149.723 394.525,150.489 394.696,151.522 394.748 C 152.555 394.800,153.460 395.013,153.533 395.221 C 153.607 395.430,154.372 395.600,155.233 395.600 C 156.095 395.600,156.800 395.780,156.800 396.000 C 156.800 396.220,157.700 396.400,158.800 396.400 C 159.900 396.400,160.800 396.580,160.800 396.800 C 160.800 397.020,161.689 397.200,162.776 397.200 C 163.863 397.200,164.864 397.380,165.000 397.600 C 165.136 397.820,165.968 398.000,166.850 398.000 C 167.731 398.000,168.756 398.159,169.126 398.354 C 169.497 398.549,171.126 398.781,172.747 398.870 C 174.368 398.959,175.493 398.964,175.247 398.882 C 175.001 398.800,174.800 398.518,174.800 398.255 C 174.800 397.992,150.309 373.302,120.376 343.388 C 62.274 285.324,64.564 287.757,63.103 282.548 C 62.501 280.402,62.263 272.560,62.741 270.609 C 63.265 268.468,63.738 266.047,65.397 257.000 C 66.164 252.820,66.974 248.500,67.197 247.400 C 68.188 242.511,68.901 238.837,69.252 236.800 C 69.461 235.590,69.811 233.700,70.031 232.600 C 70.251 231.500,70.597 229.700,70.800 228.600 C 71.003 227.500,71.350 225.700,71.571 224.600 C 72.562 219.682,72.854 218.097,73.043 216.600 C 73.154 215.720,73.405 214.640,73.600 214.200 C 73.931 213.453,74.068 212.644,74.651 208.000 C 74.776 207.010,75.040 206.029,75.239 205.820 C 75.437 205.611,75.600 204.677,75.600 203.744 C 75.600 202.811,75.780 201.936,76.000 201.800 C 76.220 201.664,76.400 200.789,76.400 199.856 C 76.400 198.923,76.563 197.989,76.763 197.780 C 76.963 197.571,77.221 196.500,77.337 195.400 C 77.453 194.300,77.739 192.455,77.974 191.300 C 78.453 188.939,78.939 186.445,79.552 183.200 C 79.780 181.990,80.144 180.190,80.361 179.200 C 80.577 178.210,80.945 176.500,81.179 175.400 C 81.816 172.405,83.182 167.651,84.040 165.447 C 84.458 164.372,84.800 163.335,84.800 163.142 C 84.800 162.949,85.178 161.938,85.640 160.896 C 86.102 159.853,86.627 158.640,86.808 158.200 C 87.443 156.651,92.160 146.998,92.379 146.800 C 92.766 146.450,94.041 144.227,94.271 143.500 C 94.393 143.115,94.630 142.800,94.798 142.800 C 94.966 142.800,95.327 142.260,95.600 141.600 C 95.873 140.940,96.243 140.400,96.422 140.400 C 96.600 140.400,96.858 140.048,96.995 139.617 C 97.270 138.749,101.960 132.503,104.300 129.889 C 110.226 123.267,117.404 116.789,122.800 113.193 C 124.230 112.240,125.490 111.357,125.600 111.230 C 125.785 111.017,126.577 110.544,128.600 109.438 C 129.040 109.197,129.490 108.910,129.600 108.800 C 130.333 108.067,141.374 102.664,143.493 102.002 C 144.102 101.812,145.860 101.129,147.400 100.486 C 157.281 96.357,166.229 97.784,172.671 104.514 C 173.952 105.852,177.565 109.542,180.700 112.713 L 186.400 118.480 186.400 82.640 L 186.400 46.800 199.900 46.800 L 213.401 46.800 305.200 138.600 C 355.690 189.090,397.224 230.400,397.500 230.400 C 397.775 230.400,398.000 230.610,398.000 230.867 C 398.000 232.505,398.653 230.208,398.910 227.667 C 399.776 219.087,399.917 215.319,399.932 200.200 C 399.948 184.754,399.736 179.550,398.800 172.400 C 398.584 170.750,398.293 168.362,398.155 167.094 C 398.016 165.825,397.745 164.689,397.551 164.570 C 397.358 164.451,397.200 163.564,397.200 162.600 C 397.200 161.636,397.020 160.736,396.800 160.600 C 396.580 160.464,396.400 159.553,396.400 158.576 C 396.400 157.599,396.220 156.800,396.000 156.800 C 395.780 156.800,395.600 155.990,395.600 155.000 C 395.600 154.010,395.420 153.200,395.200 153.200 C 394.980 153.200,394.800 152.658,394.800 151.995 C 394.800 151.332,394.632 150.477,394.427 150.095 C 394.221 149.713,393.824 148.275,393.544 146.900 C 393.264 145.525,392.892 144.400,392.717 144.400 C 392.543 144.400,392.400 143.948,392.400 143.395 C 392.400 142.842,392.242 142.077,392.049 141.695 C 391.856 141.313,391.206 139.380,390.604 137.400 C 388.515 130.531,387.682 128.131,386.753 126.305 C 386.559 125.923,386.400 125.248,386.400 124.805 C 386.400 124.362,386.220 124.000,386.000 124.000 C 385.780 124.000,385.600 123.728,385.600 123.395 C 385.600 123.062,385.441 122.477,385.246 122.095 C 383.572 118.812,382.400 116.196,382.400 115.744 C 382.400 115.445,382.249 115.200,382.064 115.200 C 381.879 115.200,381.486 114.435,381.189 113.500 C 380.893 112.565,380.324 111.322,379.925 110.738 C 379.526 110.154,379.200 109.389,379.200 109.038 C 379.200 108.687,379.020 108.400,378.800 108.400 C 378.580 108.400,378.400 108.164,378.400 107.875 C 378.400 107.587,378.040 106.964,377.600 106.492 C 377.160 106.020,376.800 105.356,376.800 105.017 C 376.800 104.678,376.609 104.400,376.376 104.400 C 376.143 104.400,376.055 104.235,376.180 104.032 C 376.305 103.830,376.159 103.417,375.856 103.114 C 375.553 102.811,375.166 102.125,374.997 101.589 C 374.827 101.054,374.380 100.162,374.005 99.608 C 372.290 97.075,369.200 91.907,369.200 91.572 C 369.200 91.367,369.020 91.200,368.800 91.200 C 368.580 91.200,368.400 90.975,368.399 90.700 C 368.399 90.425,367.859 89.570,367.200 88.800 C 366.541 88.030,366.001 87.252,366.001 87.071 C 366.000 86.891,365.728 86.471,365.396 86.139 C 365.064 85.807,364.912 85.342,365.058 85.106 C 365.208 84.864,365.137 84.792,364.896 84.940 C 364.658 85.088,364.240 84.686,363.950 84.031 C 363.664 83.386,363.288 82.945,363.115 83.052 C 362.942 83.160,362.800 82.993,362.800 82.683 C 362.800 82.373,362.260 81.554,361.600 80.863 C 360.940 80.172,360.400 79.508,360.400 79.387 C 360.400 79.266,360.040 78.780,359.600 78.308 C 359.160 77.836,358.800 77.202,358.800 76.901 C 358.800 76.599,358.620 76.464,358.400 76.600 C 358.180 76.736,358.000 76.648,358.000 76.405 C 358.000 76.162,357.595 75.530,357.100 75.001 C 356.605 74.472,356.018 73.805,355.796 73.519 C 355.575 73.234,354.765 72.190,353.996 71.200 C 353.228 70.210,351.925 68.732,351.100 67.916 C 350.275 67.100,349.600 66.327,349.600 66.198 C 349.600 66.070,348.925 65.228,348.100 64.327 C 346.001 62.034,345.656 61.690,345.307 61.536 C 345.138 61.461,344.505 60.801,343.900 60.069 C 343.295 59.337,342.800 58.849,342.800 58.983 C 342.800 59.118,342.374 58.817,341.853 58.314 C 341.332 57.811,340.982 57.265,341.076 57.100 C 341.170 56.935,341.012 56.784,340.724 56.764 C 340.436 56.745,339.300 55.701,338.200 54.444 C 337.100 53.187,335.633 51.718,334.939 51.180 C 334.246 50.641,333.779 50.037,333.901 49.838 C 334.023 49.639,333.939 49.591,333.713 49.730 C 333.487 49.870,332.784 49.490,332.151 48.887 C 331.518 48.283,330.327 47.277,329.504 46.650 C 328.681 46.024,328.105 45.353,328.225 45.160 C 328.344 44.967,328.207 44.897,327.921 45.004 C 327.634 45.112,326.680 44.488,325.800 43.619 C 324.920 42.750,324.015 42.030,323.788 42.020 C 323.562 42.009,322.707 41.349,321.888 40.554 C 321.070 39.759,320.400 39.238,320.400 39.397 C 320.400 39.555,319.869 39.117,319.221 38.423 C 318.573 37.728,317.943 37.169,317.821 37.180 C 317.006 37.253,316.784 37.150,317.000 36.800 C 317.136 36.580,316.967 36.400,316.624 36.400 C 316.281 36.400,316.000 36.220,316.000 36.000 C 316.000 35.780,315.719 35.600,315.376 35.600 C 315.007 35.600,314.869 35.412,315.038 35.138 C 315.198 34.880,315.149 34.784,314.929 34.921 C 314.559 35.149,312.016 33.653,310.898 32.548 C 310.621 32.276,310.036 31.938,309.598 31.799 C 309.159 31.660,308.800 31.378,308.800 31.173 C 308.800 30.968,308.519 30.800,308.176 30.800 C 307.791 30.800,307.663 30.609,307.841 30.300 C 307.999 30.025,307.984 29.930,307.808 30.089 C 307.482 30.384,305.459 29.415,304.469 28.491 C 303.606 27.685,301.726 26.807,301.451 27.083 C 301.313 27.221,301.200 27.033,301.200 26.667 C 301.200 26.300,300.945 26.000,300.632 26.000 C 299.965 26.000,297.460 24.735,297.267 24.300 C 297.193 24.135,296.788 24.000,296.367 24.000 C 295.945 24.000,295.600 23.820,295.600 23.600 C 295.600 23.380,295.322 23.200,294.983 23.200 C 294.644 23.200,293.980 22.840,293.508 22.400 C 293.036 21.960,292.413 21.600,292.125 21.600 C 291.836 21.600,291.600 21.420,291.600 21.200 C 291.600 20.980,291.165 20.800,290.633 20.800 C 290.102 20.800,289.607 20.647,289.533 20.461 C 289.378 20.066,284.300 17.600,283.643 17.600 C 283.399 17.600,283.200 17.420,283.200 17.200 C 283.200 16.980,282.851 16.800,282.424 16.800 C 281.997 16.800,281.551 16.645,281.434 16.455 C 281.317 16.265,280.406 15.882,279.410 15.603 C 278.415 15.324,277.600 14.939,277.600 14.748 C 277.600 14.557,277.251 14.400,276.824 14.400 C 276.397 14.400,275.936 14.220,275.800 14.000 C 275.664 13.780,275.193 13.600,274.753 13.600 C 274.313 13.600,274.040 13.458,274.148 13.285 C 274.255 13.112,273.860 12.930,273.271 12.881 C 272.682 12.833,272.140 12.614,272.066 12.394 C 271.992 12.175,271.769 12.095,271.570 12.218 C 271.372 12.341,270.374 12.072,269.354 11.621 C 268.333 11.169,267.249 10.800,266.944 10.800 C 266.639 10.800,266.077 10.639,265.695 10.443 C 264.305 9.729,262.586 9.056,262.000 8.996 C 260.921 8.886,259.015 8.360,258.305 7.976 C 257.923 7.769,257.259 7.600,256.829 7.600 C 256.399 7.600,255.936 7.420,255.800 7.200 C 255.664 6.980,254.933 6.800,254.176 6.800 C 253.419 6.800,252.800 6.640,252.800 6.444 C 252.800 6.109,251.880 5.884,248.300 5.343 C 247.475 5.218,246.800 4.955,246.800 4.758 C 246.800 4.561,245.990 4.400,245.000 4.400 C 244.010 4.400,243.200 4.220,243.200 4.000 C 243.200 3.780,242.401 3.600,241.424 3.600 C 240.447 3.600,239.536 3.420,239.400 3.200 C 239.264 2.980,238.364 2.800,237.400 2.800 C 236.436 2.800,235.536 2.620,235.400 2.400 C 235.264 2.180,234.184 2.000,233.000 2.000 C 231.816 2.000,230.736 1.820,230.600 1.600 C 230.464 1.380,229.229 1.200,227.856 1.200 C 226.408 1.200,225.153 0.993,224.866 0.706 C 224.382 0.222,186.974 -0.119,178.601 0.283 " stroke="none" fill="#4b9bf4" fill-rule="evenodd"></path><path id="path3" d="M263.000 126.000 C 262.864 126.220,262.133 126.400,261.376 126.400 C 260.619 126.400,260.000 126.580,260.000 126.800 C 260.000 127.020,259.717 127.200,259.371 127.200 C 259.026 127.200,258.517 127.425,258.242 127.700 C 257.966 127.975,257.171 128.650,256.474 129.200 C 255.777 129.750,255.206 130.425,255.204 130.700 C 255.202 130.975,255.064 131.200,254.898 131.200 C 254.731 131.200,254.360 131.785,254.071 132.500 C 253.783 133.215,253.379 134.113,253.174 134.495 C 252.673 135.424,252.695 140.688,253.200 141.000 C 253.420 141.136,253.600 141.687,253.600 142.224 C 253.600 142.761,253.780 143.200,254.000 143.200 C 254.220 143.200,254.400 143.475,254.400 143.811 C 254.400 147.288,266.372 151.788,268.900 149.260 C 269.153 149.007,269.684 148.800,270.080 148.800 C 270.476 148.800,270.800 148.620,270.800 148.400 C 270.800 148.180,270.985 148.000,271.211 148.000 C 271.857 148.000,275.200 144.489,275.200 143.811 C 275.200 143.475,275.380 143.200,275.600 143.200 C 275.820 143.200,276.000 142.761,276.000 142.224 C 276.000 141.687,276.180 141.136,276.400 141.000 C 276.620 140.864,276.800 139.424,276.800 137.800 C 276.800 136.176,276.620 134.736,276.400 134.600 C 276.180 134.464,276.000 133.913,276.000 133.376 C 276.000 132.839,275.820 132.400,275.600 132.400 C 275.380 132.400,275.200 132.139,275.200 131.819 C 275.200 130.954,271.284 127.200,270.381 127.200 C 269.951 127.200,269.600 127.020,269.600 126.800 C 269.600 126.580,268.970 126.400,268.200 126.400 C 267.430 126.400,266.800 126.220,266.800 126.000 C 266.800 125.780,266.001 125.600,265.024 125.600 C 264.047 125.600,263.136 125.780,263.000 126.000 M130.600 127.773 C 123.357 131.128,121.877 140.690,127.765 146.098 C 132.045 150.029,138.650 150.014,142.677 146.062 C 151.731 137.177,142.026 122.479,130.600 127.773 M292.600 154.127 C 286.866 156.237,286.265 164.658,291.644 167.529 C 294.347 168.972,297.588 168.513,300.307 166.302 C 301.560 165.284,302.195 162.826,302.060 159.520 C 301.994 157.889,299.162 154.400,297.904 154.400 C 297.543 154.400,297.136 154.220,297.000 154.000 C 296.682 153.485,294.146 153.558,292.600 154.127 M101.918 155.456 C 99.132 156.925,97.889 161.619,99.574 164.304 C 102.232 168.538,108.678 168.194,110.799 163.704 C 113.363 158.277,107.280 152.627,101.918 155.456 M264.800 186.800 C 264.800 187.020,264.375 187.200,263.856 187.200 C 262.736 187.200,259.200 190.335,259.200 191.328 C 259.200 191.698,259.020 192.000,258.800 192.000 C 257.994 192.000,258.333 197.857,259.232 199.458 C 262.052 204.479,268.203 205.700,272.434 202.078 C 276.961 198.203,276.145 189.997,271.000 187.653 C 270.340 187.353,269.487 186.948,269.105 186.753 C 268.154 186.269,264.800 186.306,264.800 186.800 M129.600 188.297 C 124.318 191.755,123.784 198.210,128.498 201.625 C 135.569 206.747,144.456 197.924,139.501 190.702 C 137.601 187.932,132.172 186.613,129.600 188.297 M299.400 222.800 C 299.264 223.020,298.875 223.200,298.536 223.200 C 296.872 223.200,294.400 227.008,294.400 229.570 C 294.400 232.453,296.964 236.400,298.836 236.400 C 299.230 236.400,299.664 236.580,299.800 236.800 C 300.161 237.385,302.491 237.288,304.085 236.622 C 309.199 234.485,310.451 228.672,306.688 224.537 C 306.019 223.801,305.140 223.200,304.736 223.200 C 304.331 223.200,304.000 223.020,304.000 222.800 C 304.000 222.580,303.021 222.400,301.824 222.400 C 300.627 222.400,299.536 222.580,299.400 222.800 M94.055 225.145 C 91.407 227.793,91.381 231.481,93.993 234.070 C 98.649 238.685,106.083 234.252,104.368 227.883 C 103.169 223.429,97.323 221.877,94.055 225.145 " stroke="none" fill="#fc7458" fill-rule="evenodd"></path><path id="path4" d="M179.767 126.800 C 179.767 131.090,179.826 132.845,179.898 130.700 C 179.970 128.555,179.970 125.045,179.898 122.900 C 179.826 120.755,179.767 122.510,179.767 126.800 M178.893 175.200 C 178.893 175.970,178.975 176.285,179.076 175.900 C 179.176 175.515,179.176 174.885,179.076 174.500 C 178.975 174.115,178.893 174.430,178.893 175.200 M178.551 190.000 C 178.551 192.530,178.616 193.565,178.696 192.300 C 178.775 191.035,178.775 188.965,178.696 187.700 C 178.616 186.435,178.551 187.470,178.551 190.000 M178.167 206.000 C 178.167 210.290,178.226 212.045,178.298 209.900 C 178.370 207.755,178.370 204.245,178.298 202.100 C 178.226 199.955,178.167 201.710,178.167 206.000 M177.714 224.200 C 177.717 225.300,177.795 225.703,177.887 225.095 C 177.979 224.486,177.977 223.586,177.882 223.095 C 177.787 222.603,177.711 223.100,177.714 224.200 M177.309 228.400 C 177.309 229.390,177.387 229.795,177.482 229.300 C 177.578 228.805,177.578 227.995,177.482 227.500 C 177.387 227.005,177.309 227.410,177.309 228.400 M154.175 274.100 L 153.000 275.400 154.300 274.225 C 155.512 273.130,155.784 272.800,155.475 272.800 C 155.406 272.800,154.821 273.385,154.175 274.100 M149.000 278.235 L 147.800 279.266 149.100 278.406 C 149.815 277.933,150.400 277.468,150.400 277.373 C 150.400 277.073,150.231 277.178,149.000 278.235 M146.100 280.046 C 144.737 280.919,144.295 281.506,145.500 280.843 C 146.418 280.339,147.856 279.227,147.600 279.219 C 147.490 279.216,146.815 279.588,146.100 280.046 M89.200 296.418 C 88.762 296.715,88.924 296.752,89.800 296.556 C 91.271 296.227,91.590 295.998,90.567 296.006 C 90.145 296.009,89.530 296.195,89.200 296.418 M78.600 297.200 C 79.040 297.389,79.760 297.538,80.200 297.532 C 80.843 297.523,80.804 297.457,80.000 297.200 C 78.632 296.762,77.581 296.762,78.600 297.200 " stroke="none" fill="#8d98d3" fill-rule="evenodd"></path><path id="path5" d="M237.853 99.030 C 236.782 99.322,235.792 99.682,235.653 99.830 C 235.514 99.978,235.760 99.995,236.200 99.867 C 240.643 98.577,245.380 98.713,249.762 100.258 C 250.622 100.561,251.412 100.721,251.520 100.614 C 251.627 100.507,251.419 100.325,251.057 100.209 C 250.696 100.094,250.085 99.891,249.700 99.757 C 245.755 98.386,241.234 98.108,237.853 99.030 M232.771 100.928 C 229.220 103.096,228.800 103.395,228.800 103.748 C 228.800 103.955,229.138 103.819,229.550 103.445 C 229.963 103.072,231.448 102.148,232.850 101.392 C 234.253 100.636,235.130 100.027,234.800 100.037 C 234.470 100.047,233.557 100.448,232.771 100.928 M252.000 100.965 C 252.000 101.056,253.305 101.622,254.900 102.222 C 256.495 102.823,258.019 103.486,258.287 103.695 C 258.554 103.904,258.992 104.003,259.259 103.914 C 259.526 103.825,258.497 103.250,256.973 102.636 C 255.448 102.022,253.887 101.358,253.505 101.160 C 252.779 100.784,252.000 100.683,252.000 100.965 M226.731 105.507 C 225.066 107.262,222.641 110.775,222.910 111.043 C 223.013 111.146,223.702 110.288,224.441 109.136 C 225.180 107.984,226.391 106.435,227.132 105.694 C 227.874 104.953,228.405 104.272,228.314 104.181 C 228.223 104.089,227.510 104.686,226.731 105.507 M260.033 104.164 C 260.125 104.254,262.270 105.367,264.800 106.637 C 267.330 107.908,270.425 109.634,271.678 110.474 C 272.931 111.313,274.065 112.000,274.198 112.000 C 275.149 112.000,284.806 119.979,289.434 124.588 C 297.658 132.781,301.368 137.607,307.275 147.800 C 307.658 148.460,308.715 150.497,309.625 152.327 C 310.535 154.157,311.363 155.571,311.464 155.469 C 311.653 155.280,308.435 148.806,306.589 145.661 C 298.331 131.591,285.016 117.943,271.931 110.135 C 266.683 107.005,258.998 103.147,260.033 104.164 M221.872 113.019 C 221.502 113.793,221.213 114.646,221.228 114.914 C 221.244 115.181,221.608 114.609,222.037 113.642 C 222.971 111.537,222.831 111.008,221.872 113.019 M220.689 116.400 C 220.536 116.950,220.425 117.850,220.442 118.400 C 220.468 119.261,220.526 119.214,220.858 118.060 C 221.070 117.324,221.181 116.424,221.106 116.060 C 221.008 115.594,220.886 115.693,220.689 116.400 M220.155 125.000 C 220.156 127.860,220.220 128.978,220.297 127.483 C 220.374 125.989,220.374 123.649,220.296 122.283 C 220.218 120.918,220.155 122.140,220.155 125.000 M220.501 138.200 C 220.505 139.080,220.587 139.393,220.683 138.895 C 220.779 138.398,220.775 137.678,220.675 137.295 C 220.575 136.913,220.496 137.320,220.501 138.200 M312.418 158.051 C 312.380 158.580,313.657 161.276,313.852 161.081 C 313.965 160.968,313.693 160.184,313.247 159.338 C 312.800 158.492,312.427 157.913,312.418 158.051 M314.812 164.400 C 314.812 164.730,314.987 165.270,315.200 165.600 C 315.545 166.133,315.588 166.133,315.588 165.600 C 315.588 165.270,315.413 164.730,315.200 164.400 C 314.855 163.867,314.812 163.867,314.812 164.400 M315.612 166.800 C 315.612 167.130,315.787 167.670,316.000 168.000 C 316.345 168.533,316.388 168.533,316.388 168.000 C 316.388 167.670,316.213 167.130,316.000 166.800 C 315.655 166.267,315.612 166.267,315.612 166.800 M316.410 169.033 C 316.432 169.835,318.745 177.755,318.772 177.120 C 318.787 176.745,318.514 175.395,318.165 174.120 C 317.816 172.844,317.382 171.201,317.200 170.468 C 316.880 169.179,316.390 168.287,316.410 169.033 M221.318 183.400 C 221.309 187.140,221.426 194.160,221.578 199.000 L 221.854 207.800 221.882 197.400 C 221.897 191.680,221.780 184.660,221.622 181.800 L 221.335 176.600 221.318 183.400 M318.800 178.304 C 318.800 178.544,319.173 180.599,319.629 182.871 C 320.086 185.142,320.626 187.990,320.831 189.200 C 321.036 190.410,321.366 192.210,321.565 193.200 C 323.288 201.788,324.289 207.084,324.759 210.094 C 324.922 211.136,325.178 212.111,325.328 212.261 C 325.727 212.661,325.666 211.903,325.037 208.683 C 324.728 207.097,324.081 203.730,323.599 201.200 C 323.118 198.670,322.217 193.990,321.598 190.800 C 320.979 187.610,320.180 183.478,319.822 181.619 C 319.232 178.556,318.800 177.155,318.800 178.304 M325.653 214.000 C 325.631 214.770,325.787 215.670,326.000 216.000 C 326.477 216.739,326.477 215.676,326.000 213.800 L 325.695 212.600 325.653 214.000 M222.040 219.233 C 222.061 222.405,222.225 225.990,222.402 227.200 C 222.593 228.501,222.638 226.212,222.512 221.600 C 222.261 212.404,221.983 211.013,222.040 219.233 M326.428 218.033 C 326.444 218.785,326.620 219.760,326.820 220.200 C 327.065 220.739,327.105 220.346,326.941 219.000 C 326.651 216.619,326.389 216.124,326.428 218.033 M327.253 222.400 C 327.231 223.170,327.387 224.070,327.600 224.400 C 328.077 225.139,328.077 224.076,327.600 222.200 L 327.295 221.000 327.253 222.400 M328.075 226.400 C 328.065 227.170,328.211 228.160,328.400 228.600 C 328.857 229.664,328.857 227.997,328.400 226.200 L 328.095 225.000 328.075 226.400 M328.853 230.800 C 328.831 231.570,328.987 232.470,329.200 232.800 C 329.677 233.539,329.677 232.476,329.200 230.600 L 328.895 229.400 328.853 230.800 M222.851 231.000 C 222.848 231.440,222.995 232.520,223.177 233.400 L 223.508 235.000 223.526 233.400 C 223.536 232.520,223.389 231.440,223.200 231.000 L 222.856 230.200 222.851 231.000 M329.668 235.000 C 329.662 235.660,329.811 236.560,330.000 237.000 C 330.470 238.094,330.470 236.267,330.000 234.800 C 329.688 233.825,329.679 233.830,329.668 235.000 M223.640 235.676 C 223.759 237.246,224.320 238.216,224.360 236.924 C 224.382 236.222,224.220 235.536,224.000 235.400 C 223.780 235.264,223.618 235.388,223.640 235.676 M330.468 239.000 C 330.462 239.660,330.611 240.560,330.800 241.000 C 331.270 242.094,331.270 240.267,330.800 238.800 C 330.488 237.825,330.479 237.830,330.468 239.000 M224.468 238.800 C 224.488 239.839,225.118 241.546,225.132 240.600 C 225.138 240.160,224.989 239.440,224.800 239.000 C 224.589 238.510,224.461 238.432,224.468 238.800 M225.447 242.666 C 225.601 243.290,226.058 244.580,226.463 245.533 C 226.868 246.486,227.200 247.449,227.200 247.672 C 227.200 249.615,234.186 261.399,238.447 266.642 C 244.408 273.976,259.656 285.337,263.329 285.180 C 263.588 285.169,262.066 284.286,259.948 283.219 C 245.236 275.807,233.336 262.614,227.635 247.400 C 227.141 246.080,226.570 244.687,226.368 244.305 C 226.166 243.923,226.000 243.259,226.000 242.829 C 226.000 242.399,225.813 241.932,225.584 241.790 C 225.310 241.621,225.264 241.921,225.447 242.666 M331.268 243.400 C 331.262 244.060,331.411 244.960,331.600 245.400 C 332.070 246.494,332.070 244.667,331.600 243.200 C 331.288 242.225,331.279 242.230,331.268 243.400 M332.056 247.600 C 332.056 248.150,332.211 248.960,332.400 249.400 C 332.713 250.129,332.744 250.112,332.744 249.200 C 332.744 248.650,332.589 247.840,332.400 247.400 C 332.087 246.671,332.056 246.688,332.056 247.600 M332.887 251.600 C 332.891 252.150,333.032 253.140,333.200 253.800 L 333.505 255.000 333.513 253.800 C 333.517 253.140,333.376 252.150,333.200 251.600 L 332.880 250.600 332.887 251.600 M333.668 256.000 C 333.687 257.650,334.317 259.356,334.332 257.800 C 334.338 257.140,334.189 256.240,334.000 255.800 C 333.687 255.073,333.657 255.091,333.668 256.000 M334.599 260.600 C 334.712 261.480,335.071 263.640,335.396 265.400 C 337.484 276.702,337.487 279.075,335.418 284.355 C 333.741 288.633,329.666 293.328,326.204 294.971 C 325.396 295.355,324.832 295.765,324.949 295.883 C 325.391 296.325,329.081 293.779,331.257 291.531 C 336.142 286.482,338.479 278.906,337.179 272.331 C 336.232 267.546,336.032 266.480,335.578 263.800 C 335.015 260.479,334.272 258.050,334.599 260.600 M264.413 285.583 C 265.294 286.099,272.209 288.222,274.800 288.772 C 276.010 289.029,277.765 289.410,278.700 289.620 C 279.635 289.829,281.165 290.171,282.100 290.380 C 283.035 290.590,284.700 290.948,285.800 291.176 C 286.900 291.405,289.032 291.876,290.538 292.224 C 292.044 292.572,293.375 292.758,293.496 292.638 C 293.754 292.379,293.114 292.149,291.200 291.815 C 288.817 291.398,286.278 290.870,284.400 290.400 C 283.410 290.152,281.790 289.789,280.800 289.593 C 278.953 289.227,276.765 288.755,273.600 288.039 C 271.403 287.542,267.006 286.245,265.474 285.643 C 264.130 285.114,263.557 285.082,264.413 285.583 M294.033 292.944 C 294.125 293.024,295.010 293.206,296.000 293.350 C 297.258 293.533,297.619 293.491,297.200 293.212 C 296.660 292.853,293.632 292.597,294.033 292.944 M298.800 294.000 C 300.330 294.490,301.558 294.490,300.800 294.000 C 300.470 293.787,299.660 293.627,299.000 293.646 C 297.824 293.679,297.820 293.686,298.800 294.000 M302.400 294.800 C 303.930 295.290,305.158 295.290,304.400 294.800 C 304.070 294.587,303.260 294.427,302.600 294.446 C 301.424 294.479,301.420 294.486,302.400 294.800 M306.000 295.600 C 307.530 296.090,308.758 296.090,308.000 295.600 C 307.670 295.387,306.860 295.227,306.200 295.246 C 305.024 295.279,305.020 295.286,306.000 295.600 M310.000 296.400 C 311.542 296.894,312.364 296.894,311.600 296.400 C 311.270 296.187,310.550 296.027,310.000 296.046 L 309.000 296.080 310.000 296.400 M322.800 296.400 C 322.267 296.745,322.267 296.788,322.800 296.788 C 323.130 296.788,323.670 296.613,324.000 296.400 C 324.533 296.055,324.533 296.012,324.000 296.012 C 323.670 296.012,323.130 296.187,322.800 296.400 M313.600 297.240 C 314.150 297.394,315.860 297.520,317.400 297.520 C 318.940 297.520,320.650 297.394,321.200 297.240 C 321.750 297.085,320.040 296.959,317.400 296.959 C 314.760 296.959,313.050 297.085,313.600 297.240 " stroke="none" fill="#9e86b4" fill-rule="evenodd"></path><path id="path6" d="M213.393 90.800 C 213.393 115.110,213.441 125.055,213.500 112.900 C 213.559 100.745,213.559 80.855,213.500 68.700 C 213.441 56.545,213.393 66.490,213.393 90.800 M155.891 98.289 C 156.601 98.377,157.861 98.379,158.691 98.292 C 159.521 98.205,158.940 98.133,157.400 98.131 C 155.860 98.129,155.181 98.200,155.891 98.289 M186.569 126.600 C 186.570 131.220,186.628 133.055,186.699 130.678 C 186.770 128.301,186.769 124.521,186.698 122.278 C 186.627 120.035,186.569 121.980,186.569 126.600 M109.392 124.500 L 105.800 128.200 109.500 124.608 C 112.936 121.272,113.382 120.800,113.092 120.800 C 113.032 120.800,111.367 122.465,109.392 124.500 M180.109 123.600 C 180.109 124.590,180.187 124.995,180.282 124.500 C 180.378 124.005,180.378 123.195,180.282 122.700 C 180.187 122.205,180.109 122.610,180.109 123.600 M289.800 124.000 C 290.659 124.880,291.452 125.600,291.562 125.600 C 291.672 125.600,291.059 124.880,290.200 124.000 C 289.341 123.120,288.548 122.400,288.438 122.400 C 288.328 122.400,288.941 123.120,289.800 124.000 M220.146 135.800 C 220.147 138.000,220.214 138.849,220.295 137.687 C 220.376 136.524,220.376 134.724,220.293 133.687 C 220.211 132.649,220.145 133.600,220.146 135.800 M179.731 137.000 C 179.733 138.540,179.805 139.121,179.892 138.291 C 179.979 137.461,179.977 136.201,179.889 135.491 C 179.800 134.781,179.729 135.460,179.731 137.000 M98.575 137.068 C 97.959 137.876,97.659 138.411,97.909 138.256 C 98.421 137.940,100.153 135.600,99.875 135.600 C 99.776 135.600,99.191 136.261,98.575 137.068 M184.200 136.635 L 183.000 137.666 184.300 136.806 C 185.015 136.333,185.600 135.868,185.600 135.773 C 185.600 135.473,185.431 135.578,184.200 136.635 M214.400 135.746 C 214.400 135.856,214.940 136.330,215.600 136.800 C 216.260 137.270,216.800 137.564,216.800 137.454 C 216.800 137.344,216.260 136.870,215.600 136.400 C 214.940 135.930,214.400 135.636,214.400 135.746 M191.000 165.035 L 189.800 166.066 191.100 165.206 C 191.815 164.733,192.400 164.268,192.400 164.173 C 192.400 163.873,192.231 163.978,191.000 165.035 M220.953 178.600 C 220.953 181.240,221.018 182.268,221.097 180.884 C 221.175 179.501,221.174 177.341,221.095 176.084 C 221.016 174.828,220.952 175.960,220.953 178.600 M178.962 182.600 C 178.962 186.120,179.024 187.506,179.098 185.681 C 179.172 183.856,179.172 180.976,179.097 179.281 C 179.022 177.586,178.961 179.080,178.962 182.600 M221.328 196.400 C 221.328 197.830,221.401 198.415,221.489 197.700 C 221.578 196.985,221.578 195.815,221.489 195.100 C 221.401 194.385,221.328 194.970,221.328 196.400 M178.537 197.400 C 178.539 199.160,178.609 199.830,178.693 198.889 C 178.778 197.949,178.777 196.509,178.691 195.689 C 178.605 194.870,178.536 195.640,178.537 197.400 M221.758 215.000 C 221.758 218.080,221.821 219.287,221.897 217.682 C 221.973 216.078,221.973 213.558,221.896 212.082 C 221.819 210.607,221.757 211.920,221.758 215.000 M178.157 218.800 C 178.157 221.770,178.220 222.985,178.297 221.500 C 178.374 220.015,178.374 217.585,178.297 216.100 C 178.220 214.615,178.157 215.830,178.157 218.800 M71.849 222.615 C 71.712 222.973,71.615 223.566,71.634 223.933 C 71.653 224.300,71.827 224.069,72.021 223.420 C 72.398 222.158,72.265 221.533,71.849 222.615 M71.049 226.615 C 70.912 226.973,70.815 227.566,70.834 227.933 C 70.853 228.300,71.027 228.069,71.221 227.420 C 71.598 226.158,71.465 225.533,71.049 226.615 M70.249 231.015 C 70.112 231.373,70.018 232.056,70.041 232.533 C 70.067 233.081,70.203 232.886,70.410 232.003 C 70.760 230.516,70.665 229.933,70.249 231.015 M69.449 235.015 C 69.312 235.373,69.218 236.056,69.241 236.533 C 69.267 237.081,69.403 236.886,69.610 236.003 C 69.960 234.516,69.865 233.933,69.449 235.015 M63.429 267.029 C 63.281 267.615,63.238 268.172,63.332 268.266 C 63.427 268.360,63.624 267.958,63.771 267.371 C 63.919 266.785,63.962 266.228,63.868 266.134 C 63.773 266.040,63.576 266.442,63.429 267.029 M157.781 270.900 L 156.200 272.600 157.900 271.019 C 159.481 269.548,159.784 269.200,159.481 269.200 C 159.416 269.200,158.651 269.965,157.781 270.900 M62.629 271.029 C 62.481 271.615,62.438 272.172,62.532 272.266 C 62.627 272.360,62.824 271.958,62.971 271.371 C 63.119 270.785,63.162 270.228,63.068 270.134 C 62.973 270.040,62.776 270.442,62.629 271.029 M68.200 291.600 C 69.059 292.480,69.852 293.200,69.962 293.200 C 70.072 293.200,69.459 292.480,68.600 291.600 C 67.741 290.720,66.948 290.000,66.838 290.000 C 66.728 290.000,67.341 290.720,68.200 291.600 M81.705 297.887 C 82.314 297.979,83.214 297.977,83.705 297.882 C 84.197 297.787,83.700 297.711,82.600 297.714 C 81.500 297.717,81.097 297.795,81.705 297.887 M316.705 297.883 C 317.202 297.979,317.922 297.975,318.305 297.875 C 318.687 297.775,318.280 297.696,317.400 297.701 C 316.520 297.705,316.207 297.787,316.705 297.883 " stroke="none" fill="#6c8de4" fill-rule="evenodd"></path><path id="path7" d="M186.533 47.430 C 186.400 47.777,186.375 67.639,186.478 91.568 L 186.664 135.075 183.445 137.437 C 181.674 138.737,180.084 139.755,179.913 139.700 C 179.741 139.645,179.600 139.780,179.600 140.000 C 179.600 140.822,182.728 138.913,186.500 135.788 C 187.159 135.242,187.200 132.625,187.200 91.204 L 187.200 47.200 200.000 47.200 L 212.800 47.200 212.800 91.367 L 212.800 135.535 216.300 138.118 C 218.225 139.539,219.943 140.618,220.117 140.516 C 220.292 140.415,218.807 139.140,216.817 137.683 L 213.200 135.034 213.200 90.917 L 213.200 46.800 199.987 46.800 C 188.328 46.800,186.746 46.874,186.533 47.430 M154.079 98.740 C 153.573 98.883,155.161 99.001,157.608 99.001 C 160.055 99.002,161.640 98.885,161.129 98.741 C 159.930 98.404,155.272 98.403,154.079 98.740 M150.800 99.600 C 150.005 100.114,151.004 100.114,152.200 99.600 L 153.000 99.256 152.200 99.234 C 151.760 99.222,151.130 99.387,150.800 99.600 M163.000 99.600 C 164.101 100.073,164.492 100.073,164.200 99.600 C 164.064 99.380,163.558 99.213,163.076 99.228 C 162.231 99.255,162.229 99.269,163.000 99.600 M165.233 100.149 C 165.645 100.517,168.000 101.600,168.000 101.421 C 168.000 101.190,165.782 100.000,165.353 100.000 C 165.196 100.000,165.142 100.067,165.233 100.149 M170.800 103.264 C 170.800 103.391,171.610 104.305,172.600 105.295 C 173.590 106.285,174.400 106.976,174.400 106.831 C 174.400 106.685,173.590 105.772,172.600 104.800 C 171.610 103.828,170.800 103.137,170.800 103.264 M138.000 104.800 C 137.230 105.222,136.713 105.574,136.851 105.583 C 137.265 105.611,140.000 104.405,140.000 104.195 C 140.000 103.846,139.425 104.020,138.000 104.800 M132.200 107.714 C 129.632 109.101,127.647 110.400,128.097 110.400 C 128.248 110.400,129.224 109.860,130.264 109.200 C 131.305 108.540,132.346 107.996,132.578 107.991 C 132.989 107.982,135.199 106.418,134.800 106.418 C 134.690 106.418,133.520 107.001,132.200 107.714 M124.727 112.187 C 123.262 113.170,121.948 114.160,121.808 114.387 C 121.456 114.956,121.832 114.905,122.471 114.298 C 122.762 114.022,124.035 113.092,125.300 112.232 C 127.325 110.854,127.869 110.400,127.496 110.400 C 127.438 110.400,126.193 111.204,124.727 112.187 M118.700 116.635 C 117.435 117.642,116.400 118.552,116.400 118.660 C 116.400 118.895,118.087 117.658,120.000 116.020 C 122.164 114.167,121.272 114.589,118.700 116.635 M111.348 123.110 C 106.768 127.570,102.446 132.390,100.868 134.800 L 99.951 136.200 101.076 134.854 C 101.694 134.114,102.898 132.674,103.750 131.654 C 105.719 129.299,111.666 123.131,114.155 120.864 C 115.203 119.909,115.992 119.058,115.907 118.974 C 115.823 118.889,113.771 120.751,111.348 123.110 M99.119 137.100 C 97.603 138.854,92.144 147.600,92.565 147.600 C 92.675 147.600,93.479 146.385,94.352 144.900 C 95.224 143.415,96.842 140.895,97.947 139.300 C 99.924 136.445,100.309 135.723,99.119 137.100 M90.618 150.818 C 89.797 152.381,89.210 153.744,89.314 153.848 C 89.418 153.952,90.152 152.736,90.945 151.145 C 92.820 147.388,92.558 147.126,90.618 150.818 M86.655 159.455 C 86.276 160.249,86.053 160.986,86.159 161.093 C 86.266 161.199,86.636 160.609,86.982 159.782 C 87.798 157.829,87.549 157.580,86.655 159.455 M198.789 158.677 C 198.245 159.049,197.710 159.454,197.600 159.577 C 197.490 159.700,196.230 160.604,194.800 161.588 C 193.370 162.571,192.020 163.523,191.800 163.704 C 191.580 163.885,189.420 165.477,187.000 167.241 C 184.580 169.005,182.330 170.665,182.000 170.930 C 181.670 171.195,180.815 171.826,180.100 172.333 C 179.385 172.840,178.800 173.434,178.800 173.654 C 178.800 173.873,179.835 173.260,181.100 172.292 C 182.365 171.323,184.492 169.736,185.827 168.765 C 187.163 167.794,190.403 165.417,193.027 163.481 C 195.652 161.546,198.357 159.611,199.039 159.181 L 200.278 158.399 203.639 160.868 C 205.487 162.226,208.620 164.534,210.600 165.996 C 221.484 174.032,221.290 173.900,220.974 173.077 C 220.855 172.767,220.317 172.277,219.779 171.989 C 219.240 171.701,218.800 171.315,218.800 171.132 C 218.800 170.950,218.530 170.800,218.200 170.800 C 217.870 170.800,217.600 170.659,217.600 170.486 C 217.600 170.314,217.105 169.875,216.500 169.511 C 215.895 169.147,214.950 168.490,214.400 168.051 C 213.850 167.612,212.230 166.395,210.800 165.348 C 209.370 164.300,207.163 162.668,205.896 161.722 C 204.628 160.775,203.413 160.000,203.196 160.000 C 202.978 160.000,202.800 159.859,202.800 159.686 C 202.800 158.500,200.056 157.810,198.789 158.677 M84.600 164.800 C 84.450 165.273,84.417 165.750,84.527 165.860 C 84.637 165.970,84.850 165.673,85.000 165.200 C 85.150 164.727,85.183 164.250,85.073 164.140 C 84.963 164.030,84.750 164.327,84.600 164.800 M83.029 169.829 C 82.881 170.415,82.838 170.972,82.932 171.066 C 83.027 171.160,83.224 170.758,83.371 170.171 C 83.519 169.585,83.562 169.028,83.468 168.934 C 83.373 168.840,83.176 169.242,83.029 169.829 M82.273 172.153 C 82.123 172.545,82.011 173.166,82.025 173.533 C 82.042 173.975,82.181 173.874,82.437 173.234 C 82.649 172.703,82.761 172.082,82.685 171.854 C 82.609 171.627,82.424 171.761,82.273 172.153 M81.378 175.778 C 81.227 176.581,81.194 177.327,81.304 177.437 C 81.414 177.547,81.627 176.981,81.778 176.178 C 81.928 175.375,81.962 174.628,81.852 174.518 C 81.742 174.408,81.528 174.975,81.378 175.778 M80.656 178.884 C 80.521 179.388,80.428 180.250,80.449 180.800 C 80.472 181.389,80.631 181.071,80.836 180.025 C 81.203 178.152,81.073 177.327,80.656 178.884 M178.534 182.800 C 178.534 184.450,178.605 185.125,178.691 184.300 C 178.778 183.475,178.778 182.125,178.691 181.300 C 178.605 180.475,178.534 181.150,178.534 182.800 M79.856 182.884 C 79.721 183.388,79.628 184.250,79.649 184.800 C 79.672 185.389,79.831 185.071,80.036 184.025 C 80.403 182.152,80.273 181.327,79.856 182.884 M79.019 187.673 C 78.775 189.289,78.406 191.161,77.576 195.000 C 77.039 197.484,76.685 200.223,76.931 199.990 C 77.053 199.874,77.360 198.614,77.613 197.190 C 77.866 195.765,78.220 193.880,78.400 193.000 C 79.164 189.268,79.621 186.288,79.456 186.123 C 79.359 186.026,79.162 186.723,79.019 187.673 M178.154 193.600 C 178.154 196.350,178.218 197.475,178.296 196.100 C 178.374 194.725,178.374 192.475,178.296 191.100 C 178.218 189.725,178.154 190.850,178.154 193.600 M76.454 201.200 C 76.419 201.750,76.296 202.650,76.183 203.200 L 75.977 204.200 76.407 203.215 C 76.643 202.674,76.765 201.774,76.678 201.215 L 76.520 200.200 76.454 201.200 M75.654 205.200 C 75.619 205.750,75.496 206.650,75.383 207.200 L 75.177 208.200 75.607 207.215 C 75.843 206.674,75.965 205.774,75.878 205.215 L 75.720 204.200 75.654 205.200 M74.864 209.050 C 74.829 209.518,74.705 210.507,74.589 211.250 C 74.396 212.486,74.415 212.517,74.808 211.614 C 75.045 211.072,75.168 210.082,75.083 209.414 C 74.991 208.697,74.902 208.548,74.864 209.050 M74.049 213.800 C 74.016 214.240,73.896 215.050,73.783 215.600 L 73.577 216.600 74.006 215.619 C 74.242 215.079,74.361 214.269,74.272 213.819 C 74.113 213.021,74.107 213.021,74.049 213.800 M73.254 217.800 C 73.219 218.240,73.089 219.050,72.967 219.600 C 72.775 220.463,72.807 220.503,73.198 219.890 C 73.447 219.499,73.577 218.689,73.486 218.090 C 73.378 217.379,73.297 217.279,73.254 217.800 M177.731 219.800 C 177.733 221.340,177.805 221.921,177.892 221.091 C 177.979 220.261,177.977 219.001,177.889 218.291 C 177.800 217.581,177.729 218.260,177.731 219.800 M72.222 223.022 C 72.072 223.825,72.038 224.572,72.148 224.682 C 72.258 224.792,72.472 224.225,72.622 223.422 C 72.773 222.619,72.806 221.873,72.696 221.763 C 72.586 221.653,72.373 222.219,72.222 223.022 M177.301 225.400 C 177.305 226.280,177.387 226.593,177.483 226.095 C 177.579 225.598,177.575 224.878,177.475 224.495 C 177.375 224.113,177.296 224.520,177.301 225.400 M71.654 226.200 C 71.619 226.640,71.489 227.450,71.367 228.000 C 71.175 228.863,71.207 228.903,71.598 228.290 C 71.847 227.899,71.977 227.089,71.886 226.490 C 71.778 225.779,71.697 225.679,71.654 226.200 M70.622 231.422 C 70.472 232.225,70.438 232.972,70.548 233.082 C 70.658 233.192,70.872 232.625,71.022 231.822 C 71.173 231.019,71.206 230.273,71.096 230.163 C 70.986 230.053,70.773 230.619,70.622 231.422 M69.778 235.778 C 69.627 236.581,69.594 237.327,69.704 237.437 C 69.814 237.547,70.027 236.981,70.178 236.178 C 70.328 235.375,70.362 234.628,70.252 234.518 C 70.142 234.408,69.928 234.975,69.778 235.778 M69.022 239.822 C 68.872 240.625,68.838 241.372,68.948 241.482 C 69.058 241.592,69.272 241.025,69.422 240.222 C 69.573 239.419,69.606 238.673,69.496 238.563 C 69.386 238.453,69.173 239.019,69.022 239.822 M68.178 244.178 C 68.027 244.981,67.994 245.727,68.104 245.837 C 68.214 245.947,68.427 245.381,68.578 244.578 C 68.728 243.775,68.762 243.028,68.652 242.918 C 68.542 242.808,68.328 243.375,68.178 244.178 M67.422 248.222 C 67.272 249.025,67.228 249.762,67.326 249.860 C 67.424 249.957,67.627 249.381,67.778 248.578 C 67.928 247.775,67.972 247.038,67.874 246.940 C 67.776 246.843,67.573 247.419,67.422 248.222 M66.582 252.582 C 66.429 253.602,66.394 254.527,66.504 254.637 C 66.614 254.747,66.829 254.002,66.982 252.982 C 67.135 251.961,67.170 251.037,67.060 250.927 C 66.950 250.817,66.735 251.561,66.582 252.582 M65.800 256.800 C 65.646 257.710,65.604 258.538,65.707 258.640 C 65.810 258.743,66.013 258.077,66.160 257.160 C 66.307 256.243,66.348 255.415,66.253 255.320 C 66.158 255.224,65.954 255.890,65.800 256.800 M65.056 260.484 C 64.921 260.988,64.827 261.760,64.846 262.200 C 64.865 262.640,65.045 262.298,65.246 261.440 C 65.636 259.778,65.470 258.940,65.056 260.484 M64.269 264.756 C 64.121 265.495,64.020 266.483,64.044 266.950 C 64.068 267.418,64.247 266.990,64.442 266.000 C 64.637 265.010,64.738 264.023,64.667 263.806 C 64.596 263.590,64.417 264.017,64.269 264.756 M63.456 268.884 C 63.321 269.388,63.228 270.250,63.249 270.800 C 63.272 271.389,63.431 271.071,63.636 270.025 C 64.003 268.152,63.873 267.327,63.456 268.884 M62.575 274.259 C 62.290 276.543,62.939 281.632,63.665 282.800 C 63.956 283.267,63.996 283.223,63.847 282.600 C 62.999 279.060,62.741 276.695,62.965 274.513 C 63.285 271.388,62.960 271.176,62.575 274.259 M64.000 283.972 C 64.000 285.569,67.532 290.668,70.000 292.634 C 70.799 293.270,70.431 292.757,69.144 291.440 C 67.903 290.170,66.238 287.868,65.444 286.324 C 64.650 284.781,64.000 283.722,64.000 283.972 M81.705 297.487 C 82.314 297.579,83.214 297.577,83.705 297.482 C 84.197 297.387,83.700 297.311,82.600 297.314 C 81.500 297.317,81.097 297.395,81.705 297.487 " stroke="none" fill="#a4bcf4" fill-rule="evenodd"></path><path id="path8" d="M214.800 48.600 C 215.546 49.370,216.247 50.000,216.357 50.000 C 216.467 50.000,215.946 49.370,215.200 48.600 C 214.454 47.830,213.753 47.200,213.643 47.200 C 213.533 47.200,214.054 47.830,214.800 48.600 M220.800 54.510 C 220.800 54.571,222.195 55.966,223.900 57.610 L 227.000 60.600 224.010 57.500 C 221.233 54.621,220.800 54.217,220.800 54.510 M233.000 66.800 C 234.083 67.900,235.060 68.800,235.170 68.800 C 235.280 68.800,234.483 67.900,233.400 66.800 C 232.317 65.700,231.340 64.800,231.230 64.800 C 231.120 64.800,231.917 65.700,233.000 66.800 M243.400 77.200 C 244.483 78.300,245.460 79.200,245.570 79.200 C 245.680 79.200,244.883 78.300,243.800 77.200 C 242.717 76.100,241.740 75.200,241.630 75.200 C 241.520 75.200,242.317 76.100,243.400 77.200 M250.000 83.710 C 250.000 83.771,251.395 85.166,253.100 86.810 L 256.200 89.800 253.210 86.700 C 250.433 83.821,250.000 83.417,250.000 83.710 M260.400 94.110 C 260.400 94.171,261.795 95.566,263.500 97.210 L 266.600 100.200 263.610 97.100 C 260.833 94.221,260.400 93.817,260.400 94.110 M240.700 98.293 C 241.635 98.377,243.165 98.377,244.100 98.293 C 245.035 98.209,244.270 98.140,242.400 98.140 C 240.530 98.140,239.765 98.209,240.700 98.293 M236.800 98.800 C 235.996 99.057,235.957 99.123,236.600 99.132 C 237.040 99.138,237.760 98.989,238.200 98.800 C 239.219 98.362,238.168 98.362,236.800 98.800 M232.178 100.621 C 230.893 101.255,226.911 104.400,227.393 104.400 C 227.547 104.400,228.395 103.782,229.278 103.026 C 230.162 102.270,231.495 101.361,232.242 101.007 C 232.989 100.652,233.600 100.281,233.600 100.181 C 233.600 99.929,233.551 99.944,232.178 100.621 M270.800 104.510 C 270.800 104.571,272.195 105.966,273.900 107.610 L 277.000 110.600 274.010 107.500 C 271.233 104.621,270.800 104.217,270.800 104.510 M223.669 108.439 C 222.910 109.654,223.366 109.816,224.155 108.612 C 224.520 108.056,224.678 107.600,224.505 107.600 C 224.333 107.600,223.957 107.978,223.669 108.439 M176.501 109.032 C 176.886 109.490,177.099 109.967,176.974 110.092 C 176.849 110.218,176.939 110.439,177.173 110.584 C 177.993 111.090,177.592 109.717,176.700 108.962 C 175.801 108.201,175.801 108.201,176.501 109.032 M279.355 114.727 C 279.534 115.016,280.427 115.793,281.340 116.453 C 284.365 118.639,290.567 124.323,292.800 126.956 C 294.010 128.382,295.236 129.561,295.524 129.575 C 295.812 129.589,295.951 129.756,295.833 129.947 C 295.715 130.137,295.957 130.599,296.370 130.973 C 296.783 131.346,297.218 131.494,297.338 131.300 C 297.458 131.107,293.837 127.270,289.292 122.774 C 284.747 118.278,281.458 115.095,281.984 115.700 C 283.284 117.196,282.531 117.087,280.606 115.501 C 279.740 114.787,279.177 114.438,279.355 114.727 M179.228 115.876 C 179.318 116.915,179.944 117.796,179.972 116.924 C 179.987 116.442,179.820 115.936,179.600 115.800 C 179.380 115.664,179.213 115.698,179.228 115.876 M220.249 116.215 C 220.112 116.573,220.018 117.256,220.041 117.733 C 220.067 118.281,220.203 118.086,220.410 117.203 C 220.760 115.716,220.665 115.133,220.249 116.215 M180.156 125.866 L 180.112 132.200 180.470 127.451 C 180.667 124.839,180.686 121.988,180.514 121.116 C 180.303 120.052,180.186 121.613,180.156 125.866 M219.533 121.300 C 219.439 122.235,219.476 124.980,219.615 127.400 L 219.867 131.800 219.896 125.700 C 219.926 119.443,219.833 118.318,219.533 121.300 M297.776 132.038 C 297.627 132.279,297.796 132.730,298.151 133.040 C 298.506 133.349,298.618 133.386,298.399 133.121 C 297.648 132.215,297.999 131.875,298.900 132.638 L 299.800 133.400 299.038 132.500 C 298.159 131.462,298.137 131.454,297.776 132.038 M300.000 133.710 C 300.000 133.771,301.395 135.166,303.100 136.810 L 306.200 139.800 303.210 136.700 C 300.433 133.821,300.000 133.417,300.000 133.710 M299.827 135.400 C 301.200 137.200,301.468 137.203,300.304 135.405 C 299.807 134.638,299.256 134.008,299.080 134.005 C 298.903 134.002,299.240 134.630,299.827 135.400 M307.983 141.700 C 309.641 143.466,310.000 143.784,310.000 143.483 C 310.000 143.419,309.145 142.564,308.100 141.583 L 306.200 139.800 307.983 141.700 M310.400 144.110 C 310.400 144.171,311.795 145.566,313.500 147.210 L 316.600 150.200 313.610 147.100 C 310.833 144.221,310.400 143.817,310.400 144.110 M320.800 154.510 C 320.800 154.571,322.195 155.966,323.900 157.610 L 327.000 160.600 324.010 157.500 C 321.233 154.621,320.800 154.217,320.800 154.510 M333.000 166.800 C 334.083 167.900,335.060 168.800,335.170 168.800 C 335.280 168.800,334.483 167.900,333.400 166.800 C 332.317 165.700,331.340 164.800,331.230 164.800 C 331.120 164.800,331.917 165.700,333.000 166.800 M316.028 166.276 C 316.118 167.315,316.744 168.196,316.772 167.324 C 316.787 166.842,316.620 166.336,316.400 166.200 C 316.180 166.064,316.013 166.098,316.028 166.276 M212.433 168.130 C 212.525 168.201,213.230 168.666,214.000 169.163 L 215.400 170.066 214.200 169.035 C 213.540 168.468,212.835 168.003,212.633 168.002 C 212.432 168.001,212.342 168.058,212.433 168.130 M182.385 171.629 L 181.000 172.858 182.500 171.781 C 183.826 170.830,184.257 170.400,183.885 170.400 C 183.822 170.400,183.147 170.953,182.385 171.629 M317.844 172.200 C 318.173 173.671,318.402 173.990,318.394 172.967 C 318.391 172.545,318.205 171.930,317.982 171.600 C 317.685 171.162,317.648 171.324,317.844 172.200 M343.400 177.200 C 344.483 178.300,345.460 179.200,345.570 179.200 C 345.680 179.200,344.883 178.300,343.800 177.200 C 342.717 176.100,341.740 175.200,341.630 175.200 C 341.520 175.200,342.317 176.100,343.400 177.200 M320.428 183.833 C 320.444 184.475,320.616 185.360,320.810 185.800 C 321.047 186.334,321.086 186.002,320.927 184.800 C 320.646 182.680,320.388 182.180,320.428 183.833 M220.842 191.233 C 220.866 195.725,221.017 201.020,221.179 203.000 C 221.341 204.980,221.387 201.380,221.281 195.000 C 221.176 188.620,221.024 183.325,220.944 183.233 C 220.865 183.142,220.819 186.742,220.842 191.233 M350.000 183.710 C 350.000 183.771,351.395 185.166,353.100 186.810 L 356.200 189.800 353.210 186.700 C 350.433 183.821,350.000 183.417,350.000 183.710 M321.234 188.600 C 321.222 189.040,321.387 189.670,321.600 190.000 C 322.114 190.795,322.114 189.796,321.600 188.600 L 321.256 187.800 321.234 188.600 M178.886 193.000 C 178.837 195.420,178.716 199.470,178.618 202.000 L 178.439 206.600 178.829 203.200 C 179.043 201.330,179.164 197.280,179.097 194.200 C 178.980 188.767,178.974 188.731,178.886 193.000 M322.006 192.633 C 322.009 193.055,322.195 193.670,322.418 194.000 C 322.715 194.438,322.752 194.276,322.556 193.400 C 322.227 191.929,321.998 191.610,322.006 192.633 M360.400 194.110 C 360.400 194.171,361.795 195.566,363.500 197.210 L 366.600 200.200 363.610 197.100 C 360.833 194.221,360.400 193.817,360.400 194.110 M322.812 197.200 C 322.812 197.530,322.987 198.070,323.200 198.400 C 323.545 198.933,323.588 198.933,323.588 198.400 C 323.588 198.070,323.413 197.530,323.200 197.200 C 322.855 196.667,322.812 196.667,322.812 197.200 M323.612 201.200 C 323.612 201.530,323.787 202.070,324.000 202.400 C 324.345 202.933,324.388 202.933,324.388 202.400 C 324.388 202.070,324.213 201.530,324.000 201.200 C 323.655 200.667,323.612 200.667,323.612 201.200 M370.800 204.510 C 370.800 204.571,372.195 205.966,373.900 207.610 L 377.000 210.600 374.010 207.500 C 371.233 204.621,370.800 204.217,370.800 204.510 M325.228 209.876 C 325.318 210.915,325.944 211.796,325.972 210.924 C 325.987 210.442,325.820 209.936,325.600 209.800 C 325.380 209.664,325.213 209.698,325.228 209.876 M326.028 213.876 C 326.118 214.915,326.744 215.796,326.772 214.924 C 326.787 214.442,326.620 213.936,326.400 213.800 C 326.180 213.664,326.013 213.698,326.028 213.876 M383.000 216.800 C 384.083 217.900,385.060 218.800,385.170 218.800 C 385.280 218.800,384.483 217.900,383.400 216.800 C 382.317 215.700,381.340 214.800,381.230 214.800 C 381.120 214.800,381.917 215.700,383.000 216.800 M327.044 218.600 C 327.373 220.071,327.602 220.390,327.594 219.367 C 327.591 218.945,327.405 218.330,327.182 218.000 C 326.885 217.562,326.848 217.724,327.044 218.600 M221.660 223.800 C 221.658 225.780,221.799 227.760,221.973 228.200 C 222.269 228.947,222.099 221.473,221.800 220.600 C 221.725 220.380,221.662 221.820,221.660 223.800 M327.628 222.276 C 327.718 223.315,328.344 224.196,328.372 223.324 C 328.387 222.842,328.220 222.336,328.000 222.200 C 327.780 222.064,327.613 222.098,327.628 222.276 M178.067 225.400 C 178.024 226.280,177.889 227.450,177.767 228.000 C 177.577 228.857,177.609 228.899,177.994 228.297 C 178.241 227.910,178.376 226.740,178.294 225.697 C 178.148 223.853,178.142 223.845,178.067 225.400 M393.400 227.200 C 394.483 228.300,395.460 229.200,395.570 229.200 C 395.680 229.200,394.883 228.300,393.800 227.200 C 392.717 226.100,391.740 225.200,391.630 225.200 C 391.520 225.200,392.317 226.100,393.400 227.200 M328.428 226.276 C 328.518 227.315,329.144 228.196,329.172 227.324 C 329.187 226.842,329.020 226.336,328.800 226.200 C 328.580 226.064,328.413 226.098,328.428 226.276 M329.458 231.200 C 329.775 232.925,330.002 233.251,329.994 231.967 C 329.991 231.435,329.811 230.730,329.594 230.400 C 329.318 229.978,329.277 230.215,329.458 231.200 M222.406 232.033 C 222.409 232.565,222.589 233.270,222.806 233.600 C 223.082 234.022,223.123 233.785,222.942 232.800 C 222.625 231.075,222.398 230.749,222.406 232.033 M330.046 234.400 C 330.065 234.730,330.224 235.450,330.400 236.000 L 330.720 237.000 330.754 236.000 C 330.773 235.450,330.613 234.730,330.400 234.400 C 330.055 233.867,330.016 233.867,330.046 234.400 M331.058 239.600 C 331.375 241.325,331.602 241.651,331.594 240.367 C 331.591 239.835,331.411 239.130,331.194 238.800 C 330.918 238.378,330.877 238.615,331.058 239.600 M331.868 243.800 C 332.171 245.777,332.402 246.114,332.394 244.567 C 332.391 243.925,332.216 243.130,332.005 242.800 C 331.745 242.391,331.701 242.710,331.868 243.800 M332.668 247.800 C 332.971 249.777,333.202 250.114,333.194 248.567 C 333.191 247.925,333.016 247.130,332.805 246.800 C 332.545 246.391,332.501 246.710,332.668 247.800 M333.482 252.421 C 333.608 253.399,333.775 254.275,333.855 254.367 C 334.181 254.742,333.960 251.755,333.621 251.221 C 333.384 250.846,333.335 251.270,333.482 252.421 M334.493 257.200 C 334.493 257.970,334.575 258.285,334.676 257.900 C 334.776 257.515,334.776 256.885,334.676 256.500 C 334.575 256.115,334.493 256.430,334.493 257.200 M167.453 258.900 L 166.733 260.200 167.558 259.200 C 168.289 258.313,168.614 257.600,168.286 257.600 C 168.224 257.600,167.849 258.185,167.453 258.900 M233.371 260.600 C 233.748 261.260,234.602 262.430,235.270 263.200 C 236.249 264.329,236.191 264.174,234.973 262.400 C 233.171 259.777,232.421 258.934,233.371 260.600 M335.293 261.200 C 335.293 261.970,335.375 262.285,335.476 261.900 C 335.576 261.515,335.576 260.885,335.476 260.500 C 335.375 260.115,335.293 260.430,335.293 261.200 M164.784 262.823 C 164.305 263.496,163.979 264.113,164.061 264.194 C 164.143 264.276,164.614 263.726,165.108 262.971 C 166.223 261.271,165.971 261.156,164.784 262.823 M336.093 265.600 C 336.093 266.370,336.175 266.685,336.276 266.300 C 336.376 265.915,336.376 265.285,336.276 264.900 C 336.175 264.515,336.093 264.830,336.093 265.600 M237.596 266.394 C 238.290 267.271,239.067 268.118,239.323 268.276 C 239.578 268.434,239.093 267.716,238.245 266.681 C 237.397 265.647,236.620 264.800,236.518 264.800 C 236.416 264.800,236.901 265.518,237.596 266.394 M161.375 267.300 L 160.200 268.600 161.500 267.425 C 162.712 266.330,162.984 266.000,162.675 266.000 C 162.606 266.000,162.021 266.585,161.375 267.300 M156.981 272.100 L 155.400 273.800 157.100 272.219 C 158.681 270.748,158.984 270.400,158.681 270.400 C 158.616 270.400,157.851 271.165,156.981 272.100 M256.400 282.364 C 256.950 282.814,257.580 283.183,257.800 283.185 C 258.228 283.188,257.505 282.634,256.200 281.960 C 255.669 281.685,255.736 281.821,256.400 282.364 M259.811 284.134 C 260.696 284.732,262.000 285.258,262.000 285.017 C 262.000 284.837,259.598 283.600,259.250 283.600 C 259.124 283.600,259.377 283.840,259.811 284.134 M263.600 285.734 C 263.600 285.837,264.181 286.124,264.891 286.372 C 265.601 286.619,266.006 286.657,265.791 286.456 C 265.335 286.029,263.600 285.458,263.600 285.734 M332.875 289.984 C 332.394 290.635,332.000 291.300,332.000 291.462 C 332.000 291.623,332.450 291.145,333.000 290.400 C 333.550 289.655,334.000 288.990,334.000 288.922 C 334.000 288.595,333.675 288.902,332.875 289.984 M276.600 289.600 C 277.040 289.789,277.670 289.944,278.000 289.944 C 278.378 289.944,278.304 289.817,277.800 289.600 C 277.360 289.411,276.730 289.256,276.400 289.256 C 276.022 289.256,276.096 289.383,276.600 289.600 M298.600 294.400 C 298.736 294.620,299.242 294.787,299.724 294.772 C 300.569 294.745,300.571 294.731,299.800 294.400 C 298.699 293.927,298.308 293.927,298.600 294.400 M306.000 295.982 C 306.330 296.205,306.945 296.391,307.367 296.394 C 308.390 296.402,308.071 296.173,306.600 295.844 C 305.724 295.648,305.562 295.685,306.000 295.982 M89.400 296.800 C 88.629 297.131,88.631 297.145,89.476 297.172 C 89.958 297.187,90.464 297.020,90.600 296.800 C 90.892 296.327,90.501 296.327,89.400 296.800 M309.600 296.782 C 309.930 297.005,310.545 297.191,310.967 297.194 C 311.990 297.202,311.671 296.973,310.200 296.644 C 309.324 296.448,309.162 296.485,309.600 296.782 M78.204 297.606 C 78.338 297.823,79.007 298.000,79.690 298.000 C 81.201 298.000,81.049 297.800,79.280 297.463 C 78.455 297.306,78.052 297.360,78.204 297.606 M85.400 297.600 C 84.293 297.882,84.277 297.909,85.200 297.947 C 85.750 297.969,86.470 297.813,86.800 297.600 C 87.481 297.160,87.129 297.160,85.400 297.600 M313.200 297.605 C 313.530 297.816,314.325 297.991,314.967 297.994 C 316.514 298.002,316.177 297.771,314.200 297.468 C 313.110 297.301,312.791 297.345,313.200 297.605 M320.000 297.600 L 318.600 297.895 320.076 297.947 C 320.888 297.976,321.664 297.820,321.800 297.600 C 322.068 297.166,322.061 297.166,320.000 297.600 M81.400 304.400 C 84.694 307.700,87.480 310.400,87.590 310.400 C 87.700 310.400,85.094 307.700,81.800 304.400 C 78.506 301.100,75.720 298.400,75.610 298.400 C 75.500 298.400,78.106 301.100,81.400 304.400 M97.400 320.400 C 100.915 323.920,103.881 326.800,103.991 326.800 C 104.101 326.800,101.315 323.920,97.800 320.400 C 94.285 316.880,91.319 314.000,91.209 314.000 C 91.099 314.000,93.885 316.880,97.400 320.400 M114.600 337.600 C 118.115 341.120,121.081 344.000,121.191 344.000 C 121.301 344.000,118.515 341.120,115.000 337.600 C 111.485 334.080,108.519 331.200,108.409 331.200 C 108.299 331.200,111.085 334.080,114.600 337.600 M131.000 354.000 C 134.515 357.520,137.481 360.400,137.591 360.400 C 137.701 360.400,134.915 357.520,131.400 354.000 C 127.885 350.480,124.919 347.600,124.809 347.600 C 124.699 347.600,127.485 350.480,131.000 354.000 M147.400 370.400 C 150.915 373.920,153.881 376.800,153.991 376.800 C 154.101 376.800,151.315 373.920,147.800 370.400 C 144.285 366.880,141.319 364.000,141.209 364.000 C 141.099 364.000,143.885 366.880,147.400 370.400 M158.400 381.310 C 158.400 381.371,159.795 382.766,161.500 384.410 L 164.600 387.400 161.610 384.300 C 158.833 381.421,158.400 381.017,158.400 381.310 M167.800 390.800 C 169.550 392.560,171.071 394.000,171.181 394.000 C 171.291 394.000,169.950 392.560,168.200 390.800 C 166.450 389.040,164.929 387.600,164.819 387.600 C 164.709 387.600,166.050 389.040,167.800 390.800 " stroke="none" fill="#4c7ce4" fill-rule="evenodd"></path></g></svg>