<svg xmlns="http://www.w3.org/2000/svg" width="374" height="228.206" viewBox="0 0 374 228.206"><g transform="translate(-24.153 -138.917)"><path d="M344.748,349.365l-.434-.1A98.724,98.724,0,0,1,536.84,349l-.433.1a97.712,97.712,0,0,0-95.8-76.343C395.043,272.762,354.729,304.978,344.748,349.365Z" transform="translate(-229.365 -92.252)" fill="#e6e6e6"/><path d="M821.623,313.113l-.241-.29-90.072,74.7-.29.241,62.41,75.252h.978L732.081,387.86l89.2-73.976,47.439,57.2v-1.181Z" transform="translate(-470.57 -117.531)" fill="#e6e6e6"/><circle cx="23.212" cy="23.212" r="23.212" transform="translate(249.848 187.313)" fill="#a0616a"/><path d="M729.817,444.617,716.9,482.068v0l-6.225,18.057s-.635,28.71-1.274,28.71c-.132,0-.321.414-.533,1.066H647.012l4.964-52.747-.3-2.458-3.883-31.5a15.788,15.788,0,0,1,10.433-16.826l6.489-2.281a51.369,51.369,0,0,1,26.53-2.023h0a51.368,51.368,0,0,1,21.676,9.652Z" transform="translate(-418.17 -185.118)" fill="#7474bf"/><path d="M744.377,282.328s-7.37-15.968-21.5-12.283-22.109,9.212-22.723,14.74.307,13.818.307,13.818S702,287.24,711.827,289.7s25.18.614,25.18.614l2.457,22.109s2.764-3.992,5.834-1.536S754.2,287.241,744.377,282.328Z" transform="translate(-451.188 -90.504)" fill="#2f2e41"/><path d="M854.972,541.533s0,14.578-5.358,27.224H831.2l.162-.427,5.1-22.333-1.913-7.655-4.623-17.418v0a50.919,50.919,0,0,1,.409-27.573l.209-.7a12.831,12.831,0,0,1,12.3-9.174h0s8.294,7.02,7.655,20.417Z" transform="translate(-531.203 -223.971)" fill="#7474bf"/><path d="M477,369.558H103V162.993H477Zm-373.307-.673H476.307V163.666H103.693Z" transform="translate(-78.847 -24.076)" fill="#ccc"/><path d="M257,477.939H129.5a4.5,4.5,0,0,0-4.5,4.5v49.2a4.5,4.5,0,0,0,4.5,4.5H257a4.5,4.5,0,0,0,4.5-4.5v-49.2a4.5,4.5,0,0,0-4.5-4.5Zm3.968,53.7A3.973,3.973,0,0,1,257,535.607H129.5a3.973,3.973,0,0,1-3.968-3.968v-49.2a3.973,3.973,0,0,1,3.968-3.968H257a3.973,3.973,0,0,1,3.968,3.968Z" transform="translate(-92.569 -220.521)" fill="#3f3d56"/><path d="M339.283,515.938H272.489a3.384,3.384,0,0,0-3.609,2.892.817.817,0,0,0-.006.118c0,1.662,1.618,3.008,3.614,3.01h66.794c2,0,3.614-1.348,3.614-3.01S341.279,515.938,339.283,515.938Z" transform="translate(-182.31 -244.223)" fill="#7474bf"/><path d="M339.283,547.939H272.489a3.384,3.384,0,0,0-3.609,2.892.818.818,0,0,0-.006.118c0,1.661,1.618,3.008,3.614,3.01h66.794c2,0,3.614-1.348,3.614-3.01S341.279,547.939,339.283,547.939Z" transform="translate(-182.31 -264.183)" fill="#7474bf"/><path d="M339.283,579.939H272.489a3.384,3.384,0,0,0-3.609,2.892.818.818,0,0,0-.006.118c0,1.661,1.618,3.008,3.614,3.01h66.794c2,0,3.614-1.348,3.614-3.01S341.279,579.939,339.283,579.939Z" transform="translate(-182.31 -284.143)" fill="#7474bf"/><path d="M333.545,671.038H320V657.493h13.545Zm-12.793-.753h12.04v-12.04h-12.04Z" transform="translate(-214.199 -332.517)" fill="#ff6584"/><path d="M486.881,703.7a7.045,7.045,0,0,1,8.631-6.5l13.349-21.179,5.369,11.85-13.5,18.3a7.083,7.083,0,0,1-13.849-2.47Z" transform="translate(-318.282 -344.077)" fill="#a0616a"/><path d="M573.747,441.348l-.737.13a23.686,23.686,0,0,0-18.192,15q-.13.355-.25.714l-5.1,22.968-35.092,66.994,10.848,6.38s29.988-35.092,33.816-47.215l15.414-29.643a9.605,9.605,0,0,0,1.076-4.8l-1.156-30.026a.531.531,0,0,0-.623-.5Z" transform="translate(-335.437 -197.692)" fill="#7474bf"/></g></svg>