<svg xmlns="http://www.w3.org/2000/svg" width="299.483" height="273.254" viewBox="0 0 299.483 273.254"><g transform="translate(0)"><rect width="232.489" height="129.676" transform="translate(41.125 104.574)" fill="#3f3d56"/><path d="M198.022,293.182l15.307-5.753a125.07,125.07,0,0,0-16.534-16L175.678,275l17.433-6.552a326.56,326.56,0,0,0-31.343-21.657s-17.455,48.878-12.324,70.591a41.922,41.922,0,0,0,21.048,27.756l.409-28.057,5.461,30.489a33.815,33.815,0,0,0,18.024.7c19.69-4.653,31.492-26.026,26.361-47.739a29.936,29.936,0,0,0-5.244-10.31Z" transform="translate(-148.5 -177.559)" fill="#d0cde1"/><ellipse cx="10.664" cy="3.638" rx="10.664" ry="3.638" transform="translate(39.04 163.152) rotate(-30)" opacity="0.1"/><path d="M350.63,591.879H329.716a88.186,88.186,0,0,1-8.374-9.041L306.762,558.27l-18.267-30.794-2.033-3.423-1.672-2.819,9.034-5.018,1.92,2.56.375.5,2.2,2.932,14.832,19.757,1.622-14.832H320.8l-4.945,18.427Z" transform="translate(-239.589 -357.629)" fill="#f2f2f2"/><path d="M837.725,274.4,820.4,272.672a133.134,133.134,0,0,1,12.628-20.989l22.7-2.1-19.727-1.969a347.615,347.615,0,0,1,26.315-30.858s31.335,45.5,32,69.243a44.626,44.626,0,0,1-14.055,34.314l-8.1-28.75,2.728,32.858a35.995,35.995,0,0,1-18.349,5.655c-21.528.6-39.52-18.153-40.185-41.893a31.867,31.867,0,0,1,2.573-12.041Z" transform="translate(-594.857 -157.484)" fill="#d0cde1"/><ellipse cx="3.873" cy="11.352" rx="3.873" ry="11.352" transform="matrix(0.261, -0.965, 0.965, 0.261, 242.721, 164.505)" opacity="0.1"/><path d="M853.812,530.406l-.1.368-.846,2.995-1.154,4.076v0l-10.364,36.671-6.991,24.731c-.119.106-.239.209-.362.315H814.12l14.394-35.633-10.129-17.6,6.2-1.648,5.728,14.808,9.85-24.377,0,0,1.459-3.618.249-.617,1.274-3.161,10.338,2.61Z" transform="translate(-593.365 -365.315)" fill="#f2f2f2"/><path d="M518.835,769.658l-8.28,30.611h28.353l3.262-3.011,1.255,3.011h30.36s3.262-19.822-.753-21.328S518.835,769.658,518.835,769.658Z" transform="translate(-390.478 -527.016)" fill="#2f2e41"/><circle cx="17.313" cy="17.313" r="17.313" transform="translate(142.91 87.328)" fill="#a0616a"/><path d="M588.106,379.656s3.262,24.589-1.756,27.349,29.859,3.011,29.859,3.011-7.778-21.328-4.266-27.851Z" transform="translate(-440.805 -266.359)" fill="#a0616a"/><path d="M552.986,438.2s-8.784-1.312-10.665-5.674l-26.47,11.7s4.767,34.877,7.527,41.149l-3.513,62.979s24.589,16.309,57.71,7.527l8.28-69.252,9.033-41.149-28.92-11.615A29.479,29.479,0,0,1,552.986,438.2Z" transform="translate(-394.018 -301.696)" fill="#7474bf"/><path d="M623.152,688.646s-31.866-1-29.608,8.531,31.615-.5,31.615-.5Z" transform="translate(-445.867 -472.851)" fill="#a0616a"/><path d="M578.94,281l-3.237-1.3s6.768-7.452,16.185-6.8l-2.649-2.916s6.474-2.592,12.36,4.212c3.094,3.577,6.674,7.781,8.905,12.516h3.467l-1.447,3.186,5.064,3.186-5.2-.572a17.8,17.8,0,0,1,.141,5.284,6.837,6.837,0,0,1-2.5,4.473h0s-4.014-8.31-4.014-9.606v3.24s-3.237-2.916-3.237-4.86l-1.766,2.268-.883-3.564-10.888,3.564,1.766-2.916-6.768.972,2.649-3.564s-7.651,4.212-7.946,7.776a17.111,17.111,0,0,1-2.534,6.941S570.406,285.861,578.94,281Z" transform="translate(-433.12 -192.738)" fill="#2f2e41"/><path d="M613.392,640.494v4.271a.149.149,0,0,1-.149.149h-.106v22.248a2.321,2.321,0,0,1-2.321,2.321h-13.9a2.321,2.321,0,0,1-2.321-2.321V645.694h-.077a.105.105,0,0,1-.105-.1v-2.431a.105.105,0,0,1,.105-.105h.077v-.915h-.077a.11.11,0,0,1-.11-.111v-2.4a.11.11,0,0,1,.11-.11h.077v-1.25h-.079a.1.1,0,0,1-.1-.1v-1.309a.1.1,0,0,1,.1-.1h.079v-2.649a2.321,2.321,0,0,1,2.321-2.321h13.9a2.321,2.321,0,0,1,2.321,2.321v6.228h.106A.149.149,0,0,1,613.392,640.494Z" transform="translate(-446.52 -434.877)" fill="#3f3d56"/><circle cx="2.276" cy="2.276" r="2.276" transform="translate(155.092 204.555)" fill="#f2f2f2"/><path d="M688.237,471.577h7.778s24.84,54.2,18.818,60.721-42.4,24.338-42.4,24.338-2.76-13.8-5.269-13.8l25.091-15.556-12.295-29.357Z" transform="translate(-495.145 -327.794)" fill="#7474bf"/><path d="M547.588,681.9s28.353,15.055,23.084,21.578-30.611-11.542-30.611-11.542Z" transform="translate(-410.198 -468.362)" fill="#a0616a"/><path d="M475.545,468.551h-3.513s-5.018,4.767-6.524,15.557L450.932,516.59a7.341,7.341,0,0,0,.1,6.229c3.235,6.626,11.75,21.577,24.511,26.024l6.524,5.018s-.753-12.295,9.535-12.295L474.04,522.5l6.775-22.08Z" transform="translate(-350.199 -325.772)" fill="#7474bf"/><rect width="86.403" height="66.653" transform="translate(157.535)" fill="#3f3d56"/><rect width="12.069" height="31.818" transform="translate(172.484 24.001)" fill="#d0cde1"/><rect width="12.069" height="19.475" transform="translate(194.702 36.344)" fill="#d0cde1"/><rect width="12.069" height="44.984" transform="translate(216.92 10.835)" fill="#d0cde1"/><circle cx="6.034" cy="6.034" r="6.034" transform="translate(194.702 17.966)" fill="#7474bf"/><rect width="86.403" height="66.653" transform="translate(50.239 12.819)" fill="#3f3d56"/><path d="M339.677,164.458s.823-22.218,17.281-18.652,40.87-17.006,40.87-17.006" transform="translate(-276.272 -98.7)" fill="#7474bf"/><path d="M180.536,109.288V66.772H175.05v48h70.768v-5.486Z" transform="translate(-116.994 -44.627)" fill="#d0cde1"/><path d="M570.858,547.424l3,3.5c1.116-.213,2.281-.463,3.481-.743l-.862-2.76,2.109,2.46a284.92,284.92,0,0,0,28.47-9.206s-17.012,1.247-29.714-1.528a12.087,12.087,0,0,0-13.709,6.828c-1.34,3.063-1.13,5.717,3.624,5.717a31.392,31.392,0,0,0,4.792-.451Z" transform="translate(-425.479 -372.765)" fill="#2f2e41"/></g></svg>