<svg xmlns="http://www.w3.org/2000/svg" width="418.398" height="240.803" viewBox="0 0 418.398 240.803"><ellipse cx="209.199" cy="12.032" rx="209.199" ry="12.032" transform="translate(0 216.74)" fill="#f2f2f2"/><rect width="314.276" height="9.999" transform="translate(66.626)" fill="#f2f2f2"/><circle cx="2.588" cy="2.588" r="2.588" transform="translate(72.449 2.264)" fill="#7474bf"/><circle cx="2.588" cy="2.588" r="2.588" transform="translate(80.859 2.264)" fill="#7474bf"/><circle cx="2.588" cy="2.588" r="2.588" transform="translate(89.269 2.264)" fill="#7474bf"/><path d="M175.19,332.614l-.223.191v67.448H489.242V281.779l-3.744.284Z" transform="translate(-108.341 -174.479)" fill="#3f3d56"/><rect width="87.762" height="3.539" transform="translate(89.307 66.883)" fill="#3f3d56"/><rect width="87.762" height="3.539" transform="translate(89.307 74.668)" fill="#3f3d56"/><rect width="29.726" height="3.539" transform="translate(89.307 82.454)" fill="#3f3d56"/><rect width="87.762" height="3.539" transform="translate(268.281 165.128)" fill="#fff"/><rect width="87.762" height="3.539" transform="translate(268.281 172.913)" fill="#fff"/><rect width="29.726" height="3.539" transform="translate(268.281 180.699)" fill="#fff"/><circle cx="3.452" cy="3.452" r="3.452" transform="translate(210.301 215.607)" fill="#f2f2f2"/><circle cx="3.452" cy="3.452" r="3.452" transform="translate(220.312 215.952)" fill="#f2f2f2"/><circle cx="3.452" cy="3.452" r="3.452" transform="translate(230.324 216.297)" fill="#f2f2f2"/><circle cx="2.762" cy="2.762" r="2.762" transform="translate(221.035 216.643)" fill="#3f3d56"/><rect width="29.726" height="6.782" transform="translate(118.248 107.389)" fill="#3f3d56"/><rect width="29.726" height="6.782" transform="translate(294.936 199.161)" fill="#fff"/><circle cx="20.563" cy="20.563" r="20.563" transform="translate(112.715 90.254)" fill="#7474bf" opacity="0.3"/><circle cx="13.709" cy="13.709" r="13.709" transform="translate(119.569 97.108)" fill="#7474bf" opacity="0.3"/><circle cx="9.52" cy="9.52" r="9.52" transform="translate(123.758 101.297)" fill="#7474bf"/><circle cx="20.563" cy="20.563" r="20.563" transform="translate(285.739 39.292)" fill="#7474bf" opacity="0.3"/><circle cx="13.709" cy="13.709" r="13.709" transform="translate(292.593 46.147)" fill="#7474bf" opacity="0.3"/><circle cx="9.52" cy="9.52" r="9.52" transform="translate(296.782 50.335)" fill="#7474bf"/><circle cx="20.563" cy="20.563" r="20.563" transform="translate(289.404 182.025)" fill="#7474bf" opacity="0.3"/><circle cx="13.709" cy="13.709" r="13.709" transform="translate(296.258 188.879)" fill="#7474bf" opacity="0.3"/><circle cx="9.52" cy="9.52" r="9.52" transform="translate(300.447 193.068)" fill="#7474bf"/><rect width="8.47" height="10.89" transform="translate(42.705 41.972) rotate(-177.779)" fill="#7474bf"/><path d="M241.458,310.237s11.72-5.6,11.533-.764-11.814,8.018-11.814,8.018Z" transform="translate(-168.615 -241.365)" fill="#ffb9b9"/><path d="M145.949,411.615s5.53,13.534,7.573,23.3,5.154,23.206,1.152,32.738-15.381,37.546-15.5,40.569.975,6.092-1.443,6-15.577-4.237-16.111-6.074,4.49-6.486,4.49-6.486l12.405-38.872-12.943-25.325-9.336,37.78L114.409,522.4s-8.974-2.77-10.277-.4c0,0-4.021-5.6-4.531-8.046s1.9-48.967,1.9-48.967-8.237-52.992-1.588-52.735S132.608,396.567,145.949,411.615Z" transform="translate(-79.538 -301.822)" fill="#2f2e41"/><path d="M173.234,678.466s6.134,13.557,6.715,14.185,4.578,6.837,1.556,6.72-10.16-3.421-15.413-8.468-12.179-13.792-11.551-14.373a35.674,35.674,0,0,1,4.93-2.231Z" transform="translate(-114.945 -468.486)" fill="#2f2e41"/><path d="M120.532,703.221s.37,6.069,1.485,8.534.975,6.092-2.048,5.975-10.835-1.631-10.835-1.631-.464-3.651.164-4.232,3.3-7.137,2.165-9S120.532,703.221,120.532,703.221Z" transform="translate(-86.752 -485.716)" fill="#2f2e41"/><path d="M112.148,187.821s-6.444,10.043-8.956,12.367,4.555,7.442,4.555,7.442l12.648,1.7s-.159-11.509.492-12.7S112.148,187.821,112.148,187.821Z" transform="translate(-82.841 -167.256)" fill="#ffb9b9"/><path d="M116.415,217.83s-2.606,4.742-5.024,4.649-14.926-5.422-15.46-7.259-4.143,13.159-4.143,13.159l30.605,53.86,7.465-5.159-3.617-31.623-2.971-17.067Z" transform="translate(-76.114 -184.125)" fill="#7474bf"/><path d="M79.257,260.117a16.936,16.936,0,0,1,1.878,7.943c0,.121-.009.242-.02.362-.29,5.6-2.351,12.066-3.09,16.772-.537,3.376-.384,5.84,1.592,6.419,4.789,1.4-.7,2.395,17.831,8.562s21.763.844,21.81-.365-2.624-10.394-2-10.975,8.787,7.606,11.252,6.491.281-7.254.281-7.254-5.553-12.93-5.436-15.952-8.412-17.278-8.412-17.278l-5.8-37.762s-2.231-4.93-5.23-5.652a7.43,7.43,0,0,0-5.488,1l5.019,11.093,5.3,19.579-.886,7.231s-6.158-12.953-10.2-17.953-12.667-16.838-12.667-16.838-2.013-6.792-.493-8.822-6.339-2.341-9.69,6.006c-1.776,4.423-4.659,11.02-6.466,17.162-1.61,5.441-2.37,10.527-.775,13.435C70,247.757,76.132,253.6,79.257,260.117Z" transform="translate(-60.569 -178.208)" fill="#575a89"/><path d="M67.564,280.5c2.437,4.442,8.568,10.28,11.693,16.8.816-2.941,1.812-5.984,1.812-5.984s3.82-20.437-7.479-25.718a7.562,7.562,0,0,0-5.252,1.467C66.73,272.511,65.969,277.6,67.564,280.5Z" transform="translate(-60.568 -215.397)" opacity="0.1"/><path d="M185.259,301.411l9.579,2.793,13.3.516,1.368,11.556-21.857,1.574S182.19,302.5,185.259,301.411Z" transform="translate(-133.411 -237.591)" fill="#575a89"/><path d="M138.63,403.451s12.814,2.126,9.89,5.982-14.277-.2-14.277-.2Z" transform="translate(-102.402 -300.775)" fill="#ffb9b9"/><path d="M99.556,370.725c-.29,5.6-2.351,12.066-3.09,16.772,4.082,3.864,7.964,7.271,9.427,7.328,3.023.117,7.882-.3,9.672.375s2.84-10.788,2.84-10.788-1.068-3.674-5.834-5.675A66.408,66.408,0,0,1,99.556,370.725Z" transform="translate(-79.01 -280.511)" opacity="0.1"/><path d="M69.421,256.068s-10.23-1.608-9.677,15.366-1.078,27.808,3.036,31,17.479,17.63,20.5,17.747,7.882-.3,9.672.375,2.84-10.788,2.84-10.788-1.068-3.674-5.834-5.675-15.994-9.1-15.9-11.514,2.84-10.788,2.84-10.788S80.719,261.349,69.421,256.068Z" transform="translate(-56.258 -209.489)" fill="#575a89"/><circle cx="13.31" cy="13.31" r="13.31" transform="translate(25.019 8.816)" fill="#ffb9b9"/><path d="M135.522,137.452a2.57,2.57,0,0,0,1.119.562.8.8,0,0,0,.925-.641,3.318,3.318,0,0,0,1.27,1.629c.622.324,1.583.052,1.673-.643a2.935,2.935,0,0,0,.675,1.426,1.012,1.012,0,0,0,1.422.048,36.547,36.547,0,0,0-.19,4.528,5.765,5.765,0,0,1-1.629,4.1c-1.664,1.448-4.166,1.091-6.355.816a1.929,1.929,0,0,0-1,.054c-.82.349-.782,1.49-.793,2.381A6.615,6.615,0,0,1,126.85,158a3.316,3.316,0,0,1-2.465-.6c-.621-.527-.939-1.385-1.651-1.781-1.158-.644-2.563.3-3.41,1.314s-1.682,2.273-2.994,2.46c-1.735.247-3.057-1.522-3.705-3.15a18.363,18.363,0,0,1,.365-14.268C116.614,134.073,128.99,132.824,135.522,137.452Z" transform="translate(-88.232 -134.402)" fill="#2f2e41"/><path d="M1008.654,668.657c4.687,7.994,14.141,11.159,14.141,11.159s1.854-9.8-2.833-17.789-14.141-11.159-14.141-11.159S1003.967,660.663,1008.654,668.657Z" transform="translate(-641.864 -453.977)" fill="#f2f2f2"/><path d="M992.5,685.569c8.107,4.49,11.5,13.863,11.5,13.863s-9.747,2.094-17.854-2.4-11.5-13.863-11.5-13.863S984.391,681.079,992.5,685.569Z" transform="translate(-622.783 -473.679)" fill="#7474bf"/></svg>