<?xml version="1.0" standalone="no"?>
<!DOCTYPE svg PUBLIC "-//W3C//DTD SVG 20010904//EN"
 "http://www.w3.org/TR/2001/REC-SVG-20010904/DTD/svg10.dtd">
<svg version="1.0" xmlns="http://www.w3.org/2000/svg"
 width="512.000000pt" height="512.000000pt" viewBox="0 0 512.000000 512.000000"
 preserveAspectRatio="xMidYMid meet">

<g transform="translate(0.000000,512.000000) scale(0.100000,-0.100000)"
fill="#000000" stroke="none">
<path d="M1860 5033 c-90 -10 -209 -37 -302 -69 -460 -159 -802 -555 -892
-1032 -9 -46 -18 -87 -21 -91 -2 -5 -25 -11 -50 -14 -68 -10 -182 -61 -257
-117 -310 -229 -345 -685 -73 -955 80 -80 151 -125 257 -163 l73 -27 484 -3
485 -3 -396 -397 c-263 -263 -404 -412 -419 -442 -19 -35 -24 -61 -24 -120 0
-88 21 -135 92 -211 79 -85 185 -120 293 -96 l35 7 62 -524 c66 -560 68 -570
130 -628 15 -15 48 -36 73 -47 44 -20 60 -21 1150 -21 1090 0 1106 1 1150 21
25 11 58 32 73 47 62 58 64 68 130 627 l61 524 26 -7 c14 -4 54 -7 90 -7 52 1
75 6 118 30 61 33 130 104 163 166 33 62 33 175 0 239 -15 30 -156 179 -419
443 l-397 397 455 0 c517 0 543 3 679 72 102 51 207 150 264 248 132 227 109
512 -58 723 -75 94 -166 154 -331 217 -19 7 -20 13 -13 57 38 230 -43 538
-194 739 -53 70 -183 196 -248 241 -373 257 -890 238 -1237 -45 l-54 -44 -68
45 c-216 144 -503 230 -756 225 -55 0 -115 -3 -134 -5z m310 -168 c52 -8 129
-24 170 -35 115 -32 302 -128 401 -208 l86 -69 72 69 c140 134 292 213 473
244 503 88 977 -279 1024 -792 8 -88 -4 -224 -19 -229 -7 -1 -50 -10 -97 -19
-189 -34 -362 -164 -448 -336 -41 -82 -71 -191 -72 -257 l0 -33 78 0 78 0 12
72 c59 387 531 541 808 264 186 -186 190 -469 10 -664 -65 -70 -164 -125 -255
-142 -31 -6 -270 -10 -575 -10 l-520 0 -301 299 c-327 325 -349 341 -478 363
-79 13 -151 2 -236 -37 -46 -22 -107 -77 -356 -326 l-301 -299 -524 0 c-570 0
-596 2 -702 56 -76 39 -172 139 -209 218 -190 407 230 827 637 637 86 -40 183
-137 224 -222 16 -34 35 -96 42 -136 l12 -73 78 0 78 0 0 33 c0 59 -30 171
-63 242 -81 170 -249 305 -429 345 -32 7 -58 16 -58 19 1 30 44 193 69 260
192 525 741 851 1291 766z m495 -1665 c56 -27 1561 -1534 1570 -1572 10 -41
-1 -74 -43 -120 -45 -50 -92 -72 -136 -63 -24 6 -186 161 -746 721 -671 669
-718 714 -750 714 -32 0 -79 -45 -750 -714 -560 -560 -722 -715 -746 -721 -44
-9 -91 13 -136 63 -42 46 -53 78 -44 120 5 18 254 273 779 799 718 717 776
773 822 787 60 19 123 14 180 -14z m530 -1150 l630 -630 -67 -567 c-66 -564
-67 -568 -93 -590 l-26 -23 -1079 0 -1079 0 -26 23 c-26 22 -27 26 -91 567
-35 300 -64 556 -64 570 0 20 133 158 627 652 346 346 630 628 633 628 3 0
288 -283 635 -630z"/>
<path d="M1762 4387 c-19 -6 -55 -30 -82 -54 -72 -65 -80 -97 -80 -333 0 -236
8 -268 80 -333 64 -57 101 -67 264 -67 l136 0 0 80 0 80 -135 0 c-131 0 -137
1 -160 25 -25 24 -25 26 -25 215 0 189 0 191 25 215 23 24 29 25 160 25 l135
0 0 80 0 80 -142 -1 c-79 -1 -158 -6 -176 -12z"/>
<path d="M2402 4387 c-53 -17 -128 -90 -146 -144 -23 -67 -23 -419 0 -486 19
-57 93 -128 152 -145 59 -18 258 -15 315 4 57 19 128 93 145 152 8 24 12 112
12 232 0 120 -4 208 -12 232 -17 59 -88 133 -145 152 -54 19 -267 21 -321 3z
m293 -172 c25 -24 25 -26 25 -215 0 -189 0 -191 -25 -215 -23 -24 -31 -25
-135 -25 -104 0 -112 1 -135 25 -25 24 -25 26 -25 215 0 189 0 191 25 215 23
24 31 25 135 25 104 0 112 -1 135 -25z"/>
<path d="M3040 4001 l0 -81 160 0 160 0 0 -79 0 -79 -109 -4 c-118 -3 -141
-12 -185 -72 -19 -25 -21 -42 -21 -166 0 -124 2 -141 21 -166 49 -66 58 -69
265 -72 l189 -3 0 80 0 81 -160 0 -160 0 0 79 0 79 109 4 c118 3 141 12 185
72 19 25 21 42 21 166 0 124 -2 141 -21 166 -49 66 -58 69 -265 72 l-189 3 0
-80z"/>
<path d="M2275 2124 c-154 -173 -301 -347 -327 -385 -66 -96 -99 -205 -105
-339 -6 -129 11 -210 68 -329 33 -68 58 -101 128 -170 96 -97 142 -124 316
-191 l120 -46 3 -132 3 -132 79 0 79 0 3 131 3 132 110 41 c174 66 230 100
326 196 144 144 205 299 196 500 -5 133 -41 245 -109 345 -42 61 -589 686
-606 692 -4 1 -133 -139 -287 -313z m511 -180 c225 -252 284 -331 309 -419 53
-175 7 -370 -117 -501 -62 -66 -125 -107 -220 -143 -131 -50 -118 -55 -118 41
l0 83 150 150 150 150 -52 52 c-29 29 -57 53 -62 53 -6 0 -50 -39 -98 -87
l-88 -88 0 383 0 382 -80 0 -80 0 0 -262 0 -263 -93 93 -93 92 -57 -58 -57
-57 150 -150 150 -150 0 -202 c0 -112 -2 -203 -4 -203 -2 0 -46 16 -98 36
-116 44 -173 80 -240 153 -155 167 -180 414 -61 608 37 61 467 553 483 553 4
0 106 -111 226 -246z"/>
</g>
</svg>
