<?xml version="1.0" standalone="no"?>
<!DOCTYPE svg PUBLIC "-//W3C//DTD SVG 20010904//EN"
 "http://www.w3.org/TR/2001/REC-SVG-20010904/DTD/svg10.dtd">
<svg version="1.0" xmlns="http://www.w3.org/2000/svg"
 width="512.000000pt" height="512.000000pt" viewBox="0 0 512.000000 512.000000"
 preserveAspectRatio="xMidYMid meet">

<g transform="translate(0.000000,512.000000) scale(0.100000,-0.100000)"
fill="#000000" stroke="none">
<path d="M1725 5114 c-127 -27 -222 -74 -306 -151 -71 -66 -130 -152 -154
-224 l-17 -49 -142 0 c-132 0 -146 -2 -177 -23 -42 -27 -79 -98 -79 -149 l0
-38 -163 0 c-258 0 -378 -41 -512 -175 -81 -81 -127 -161 -155 -271 -19 -75
-20 -116 -20 -1474 0 -1358 1 -1399 20 -1474 28 -110 74 -190 155 -271 81 -81
161 -127 271 -155 74 -19 113 -20 899 -20 l822 0 43 23 c110 58 118 196 16
271 -27 21 -39 21 -859 26 l-832 5 -52 24 c-64 28 -114 81 -139 147 -18 47
-19 99 -19 1424 0 1325 1 1377 19 1424 25 66 75 119 139 147 45 20 73 23 210
27 l157 4 0 -55 c0 -121 64 -243 162 -310 102 -69 89 -68 824 -65 l659 3 67
33 c127 62 203 177 215 326 l6 68 157 -4 c146 -3 160 -5 213 -31 32 -16 69
-45 87 -67 62 -78 60 -47 60 -904 0 -497 4 -794 10 -818 14 -48 76 -104 127
-113 79 -13 161 43 183 126 8 27 10 293 8 842 -3 746 -5 806 -22 857 -48 145
-127 253 -241 329 -121 80 -175 94 -401 99 l-192 4 -4 57 c-5 67 -31 111 -82
135 -26 12 -65 16 -170 16 -121 0 -137 2 -142 18 -3 9 -22 51 -41 92 -44 91
-149 200 -240 248 -106 56 -272 86 -368 66z"/>
<path d="M755 3413 c-32 -8 -84 -51 -101 -85 -11 -22 -15 -49 -12 -90 4 -49 9
-63 37 -92 19 -19 45 -40 60 -45 18 -8 343 -11 1088 -9 1054 3 1062 3 1089 24
48 35 67 70 71 126 5 71 -25 124 -87 156 l-44 22 -1041 -1 c-572 -1 -1049 -4
-1060 -6z"/>
<path d="M755 2773 c-32 -8 -84 -51 -101 -85 -11 -22 -15 -49 -12 -90 4 -49 9
-63 37 -92 19 -19 45 -40 60 -45 18 -8 343 -11 1088 -9 1054 3 1062 3 1089 24
48 35 67 70 71 126 5 71 -25 124 -87 156 l-44 22 -1041 -1 c-572 -1 -1049 -4
-1060 -6z"/>
<path d="M4443 2616 c-23 -7 -64 -26 -90 -41 -67 -39 -1709 -1678 -1722 -1720
-6 -16 -12 -52 -16 -80 -3 -27 -29 -181 -57 -342 l-51 -291 24 -49 c26 -51 83
-93 129 -93 50 0 700 119 727 134 15 8 400 387 854 843 722 724 829 835 848
880 42 101 38 214 -11 320 -31 69 -354 391 -423 423 -61 28 -155 35 -212 16z
m221 -455 c118 -119 138 -142 133 -162 -4 -14 -351 -368 -784 -800 l-778 -777
-179 -31 c-98 -17 -180 -30 -181 -29 -1 2 12 83 29 181 l31 177 790 790 c435
435 792 790 795 790 3 0 68 -63 144 -139z"/>
<path d="M755 2133 c-32 -8 -84 -51 -101 -85 -11 -22 -15 -49 -12 -90 4 -49 9
-63 37 -92 19 -19 45 -40 60 -45 18 -8 343 -11 1088 -9 1054 3 1062 3 1089 24
48 35 67 70 71 126 5 71 -25 124 -87 156 l-44 22 -1041 -1 c-572 -1 -1049 -4
-1060 -6z"/>
</g>
</svg>
