<?xml version="1.0" standalone="no"?>
<!DOCTYPE svg PUBLIC "-//W3C//DTD SVG 20010904//EN"
 "http://www.w3.org/TR/2001/REC-SVG-20010904/DTD/svg10.dtd">
<svg version="1.0" xmlns="http://www.w3.org/2000/svg"
 width="512.000000pt" height="512.000000pt" viewBox="0 0 512.000000 512.000000"
 preserveAspectRatio="xMidYMid meet">

<g transform="translate(0.000000,512.000000) scale(0.100000,-0.100000)"
fill="#000000" stroke="none">
<path d="M1272 4889 c-747 -470 -1223 -1289 -1268 -2179 l-7 -130 796 0 797 0
0 54 c0 178 81 420 202 600 55 82 217 241 301 295 l67 44 -23 41 c-56 99 -751
1303 -761 1317 -10 15 -22 10 -104 -42z"/>
<path d="M3362 4272 c-215 -373 -392 -682 -394 -688 -2 -7 26 -31 62 -55 83
-55 245 -216 298 -295 121 -180 202 -422 202 -600 l0 -54 796 0 797 0 -7 128
c-21 403 -114 752 -297 1112 -225 445 -581 833 -1000 1088 l-66 40 -391 -676z"/>
<path d="M2478 3230 c-78 -14 -143 -39 -205 -79 -294 -192 -338 -587 -94 -832
214 -214 548 -214 762 0 211 211 210 547 -2 759 -119 119 -305 180 -461 152z"/>
<path d="M1966 1887 c-41 -65 -759 -1332 -763 -1346 -3 -13 29 -33 144 -89
296 -143 563 -222 888 -263 128 -16 490 -16 620 0 224 28 483 91 678 167 120
46 377 173 383 189 4 10 -761 1333 -785 1358 -4 4 -45 -10 -92 -32 -315 -148
-686 -146 -992 4 l-68 33 -13 -21z"/>
</g>
</svg>
