<?xml version="1.0" standalone="no"?>
<!DOCTYPE svg PUBLIC "-//W3C//DTD SVG 20010904//EN"
 "http://www.w3.org/TR/2001/REC-SVG-20010904/DTD/svg10.dtd">
<svg version="1.0" xmlns="http://www.w3.org/2000/svg"
 width="512.000000pt" height="512.000000pt" viewBox="0 0 512.000000 512.000000"
 preserveAspectRatio="xMidYMid meet">

<g transform="translate(0.000000,512.000000) scale(0.100000,-0.100000)"
fill="#000000" stroke="none">
<path d="M3910 4710 c-281 -28 -524 -198 -651 -455 l-41 -81 -91 17 c-51 10
-120 21 -154 25 l-63 6 -5 37 c-18 121 -54 192 -132 261 -95 83 -252 109 -375
61 -127 -49 -213 -164 -233 -312 l-6 -46 -55 -7 c-102 -12 -315 -57 -432 -91
-640 -187 -1096 -571 -1271 -1068 -52 -149 -72 -263 -78 -463 l-6 -180 -46
-22 c-106 -48 -189 -153 -237 -298 -26 -81 -29 -101 -28 -224 1 -118 4 -145
27 -216 49 -148 133 -250 252 -306 68 -31 75 -32 226 -36 l157 -4 6 -72 c21
-221 100 -399 245 -550 103 -107 204 -175 327 -222 140 -53 172 -55 678 -54
293 0 475 4 487 11 10 5 22 21 25 34 6 24 8 25 104 25 88 0 99 -2 105 -19 16
-51 6 -50 506 -51 510 -1 539 1 687 61 167 67 345 220 436 376 59 99 103 236
118 364 l12 99 122 0 c188 0 270 24 360 103 64 56 119 144 151 241 23 70 26
98 27 211 0 147 -14 217 -67 324 -38 78 -124 168 -188 199 l-45 22 -12 193
c-12 205 -26 288 -73 432 -26 82 -27 91 -13 100 180 110 286 214 357 352 62
121 87 213 94 353 15 308 -119 576 -370 743 -149 99 -261 127 -542 132 -115 2
-248 0 -295 -5z m608 -182 c106 -38 175 -83 258 -165 57 -57 82 -91 118 -165
168 -344 44 -747 -283 -917 -132 -68 -159 -73 -511 -80 l-315 -7 -97 -41 -98
-42 0 102 c0 84 -4 108 -20 135 -11 17 -24 32 -28 32 -17 0 -121 141 -151 204
-17 34 -37 92 -46 127 -19 83 -19 265 0 348 41 173 183 351 345 429 141 69
159 72 475 69 276 -2 281 -3 353 -29z m-2288 -500 c31 -51 129 -125 187 -141
l43 -11 0 -147 0 -147 -357 -5 c-400 -5 -469 -14 -646 -82 -406 -157 -713
-538 -768 -952 -6 -48 -13 -94 -15 -100 -2 -9 -32 -13 -104 -13 l-100 0 0 108
c1 637 365 1110 1059 1379 183 70 517 150 636 152 36 0 42 -3 65 -41z m826 21
l122 -22 0 -131 c-1 -125 18 -249 44 -298 8 -17 -9 -18 -302 -18 l-310 0 0
148 0 148 45 13 c61 18 144 80 180 135 36 55 43 56 221 25z m1478 -1056 c44
-135 57 -212 63 -391 l6 -173 -104 3 -104 3 -8 69 c-16 151 -83 344 -165 479
l-41 67 87 1 c48 0 110 4 137 9 106 16 100 19 129 -67z m-1887 -343 c6 -17 23
-34 38 -40 16 -6 186 -10 440 -10 394 0 417 -1 470 -21 73 -27 156 -104 192
-177 l28 -57 0 -480 0 -480 -28 -57 c-37 -75 -98 -134 -177 -172 l-65 -31
-1010 0 -1010 0 -67 32 c-81 38 -142 97 -177 172 l-26 56 -3 466 c-3 459 -2
468 19 525 30 81 122 172 202 202 56 21 72 22 477 22 258 0 429 4 445 10 15 6
32 23 38 40 l11 30 96 0 96 0 11 -30z m-1977 -636 l0 -266 -149 4 c-143 4
-151 5 -214 36 -81 40 -147 110 -147 156 0 77 49 197 104 254 63 68 105 80
274 81 l132 1 0 -266z m4065 239 c50 -26 97 -75 123 -128 27 -54 52 -141 52
-180 0 -47 -65 -116 -147 -157 -63 -31 -71 -32 -214 -36 l-149 -4 0 267 0 267
148 -4 c127 -3 152 -6 187 -25z"/>
<path d="M3723 4135 c-40 -28 -37 -89 6 -122 12 -9 106 -12 364 -13 l348 0 24
25 c32 31 33 74 2 103 -23 22 -28 22 -373 22 -292 0 -353 -2 -371 -15z"/>
<path d="M3732 3793 c-7 -3 -19 -18 -28 -35 -13 -25 -13 -35 -3 -59 6 -17 20
-34 30 -39 10 -6 201 -10 474 -10 l456 0 24 25 c32 31 32 69 0 100 l-24 25
-458 -1 c-252 0 -464 -3 -471 -6z"/>
<path d="M1830 2337 c-130 -37 -219 -153 -220 -288 0 -85 22 -147 72 -204 73
-83 172 -120 280 -104 153 23 266 164 255 319 -13 192 -204 329 -387 277z
m139 -197 c28 -66 28 -143 -1 -200 -20 -39 -28 -45 -58 -48 -73 -6 -149 70
-150 148 0 70 52 135 121 149 52 11 66 3 88 -49z"/>
<path d="M3105 2337 c-94 -31 -158 -88 -197 -172 -34 -75 -32 -181 5 -257 92
-186 347 -229 492 -82 145 148 104 400 -81 490 -64 31 -159 40 -219 21z m100
-143 c9 -4 26 -25 38 -48 30 -57 30 -155 -1 -213 -20 -39 -26 -43 -61 -43 -23
0 -51 9 -71 23 -116 77 -89 245 45 278 17 4 31 7 32 8 1 1 9 -2 18 -5z"/>
<path d="M2276 1569 c-40 -32 -36 -82 10 -126 135 -127 352 -132 498 -12 47
39 61 73 46 110 -11 25 -46 49 -73 49 -6 0 -37 -18 -68 -40 -109 -77 -197 -72
-318 15 -41 30 -60 31 -95 4z"/>
</g>
</svg>
