<?xml version="1.0" encoding="utf-8"?>
<!-- Generator: Adobe Illustrator 24.2.1, SVG Export Plug-In . SVG Version: 6.00 Build 0)  -->
<svg version="1.1" id="Layer_1" xmlns="http://www.w3.org/2000/svg" xmlns:xlink="http://www.w3.org/1999/xlink" x="0px" y="0px"
	 viewBox="0 0 500 500" style="enable-background:new 0 0 500 500;" xml:space="preserve">
<style type="text/css">
	.st0{fill:#F9626D;}
	.st1{fill:#F97E85;}
	.st2{fill:#080606;}
	.st3{fill:#DAEFF5;}
	.st4{fill:none;stroke:#F9626D;stroke-width:4;stroke-miterlimit:10;}
	.st5{font-family:'MyriadPro-Regular';}
	.st6{font-size:60.7064px;}
</style>
<path class="st0" d="M223.9,460.9c-1.7,0.1-3.4,0.3-4.6-1.3C221.2,458.7,222.9,458.6,223.9,460.9z"/>
<g>
	<path class="st1" d="M400.4,316.2c-8.2,61.4-51.6,112.1-111.5,127.8c-24.4,6.4-49.1,7.6-73.6,0.2c-1-2.3-2.7-2.2-4.7-1.3l-0.2,0.1
		c0.5-3.5-2.7-3.5-4.6-4.5c-20-11.4-37.6-25.3-51.5-43.8c-21-28-31.7-59.6-33.2-94.2c-0.5-12.8,2.7-25.5,6.5-37.7
		c12.2-39.2,33.2-74.2,54.9-108.6c17.3-27.5,36.6-53.7,56.8-79.1c6-7.6,11.1-16.4,20.2-21.3c6.8,1.7,10.5,7.3,14.5,12.2
		c30.8,37.2,58.8,76.4,83.4,118c3.2,5.4,6.4,9.7,13.5,7.9c2.8,5,5.6,10,8.4,15c-4.4,4-4.7,8.3-2.1,13.7c4.8,9.8,9.4,19.7,13.3,29.8
		C398.8,271.4,403.5,292.9,400.4,316.2z"/>
	<path class="st2" d="M215.3,444.2c24.6,7.4,49.2,6.2,73.6-0.2c59.9-15.7,103.3-66.4,111.5-127.8c3.1-23.2-1.6-44.7-9.8-65.9
		c-3.9-10.1-8.5-20.1-13.3-29.8c-2.7-5.4-2.4-9.7,2.1-13.7c4.9-1.1,8.8,0.2,11.1,5c11.9,24.6,23.7,49.3,25.9,77
		c6,75.9-46,148.7-120.7,169.6c-98,27.4-197.2-37.8-211.1-138.9c-3.3-24.2,0.3-47.5,8.9-70.3c14.2-37.9,34.6-72.5,56.6-106.2
		c21-32,43.7-62.7,68.4-91.9c12.4-14.6,29.3-19.2,46-12.9c6.5,2.5,11.9,6.5,16.4,11.8c33.7,40,64,82.4,90.8,127.3
		c3.2,5.4,4.1,9.9-0.7,14.5c-7.1,1.8-10.3-2.5-13.5-7.9c-24.6-41.6-52.6-80.8-83.4-118c-4.1-4.9-7.7-10.5-14.5-12.2
		c-6.8-4.8-13.5-3.4-20.2,0c-5.7,2.8-9.5,7.7-13.4,12.4c-21.6,26.1-41.5,53.3-60,81.7c-20.7,31.8-39.9,64.4-54.4,99.5
		c-6.9,16.7-13.1,33.9-12.9,52.3c0.4,47.4,20.6,85.5,56.7,115.4c16.1,13.3,34.2,23.7,55.1,28l0.2-0.1
		C211.8,444.5,213.6,444.3,215.3,444.2z"/>
	<path class="st0" d="M210.4,442.9c-20.9-4.3-38.9-14.6-55.1-28C119.2,385.1,99,347,98.6,299.6c-0.2-18.4,6-35.5,12.9-52.3
		c14.5-35.1,33.7-67.7,54.4-99.5c18.5-28.3,38.4-55.6,60-81.7c3.9-4.7,7.7-9.6,13.4-12.4c6.8-3.4,13.5-4.9,20.2,0
		c-9.1,4.9-14.2,13.7-20.2,21.3c-20.2,25.5-39.5,51.6-56.8,79.1c-21.7,34.4-42.6,69.4-54.9,108.6c-3.8,12.3-7.1,25-6.5,37.7
		c1.5,34.6,12.2,66.2,33.2,94.2c13.9,18.5,31.6,32.5,51.5,43.8C207.7,439.4,210.9,439.4,210.4,442.9z"/>
	<path class="st3" d="M337.7,275.9c-0.5-0.6-1-1.2-1.5-1.7C337.7,273.9,338.1,274.6,337.7,275.9z"/>
	<g>
		<path class="st4" d="M349.9,331.6H167.1c-4.7,0-8.5-3.8-8.5-8.5v-80.5c0-4.7,3.8-8.5,8.5-8.5h182.8c4.7,0,8.5,3.8,8.5,8.5v80.5
			C358.4,327.8,354.6,331.6,349.9,331.6z"/>
		<text transform="matrix(1 0 0 1 207.4193 300.742)" class="st0 st5 st6">XXX</text>
	</g>
</g>
</svg>
