<svg xmlns="http://www.w3.org/2000/svg" xmlns:xlink="http://www.w3.org/1999/xlink" width="64" height="104.408" viewBox="0 0 64 104.408">
  <defs>
    <filter id="Ellipse_906" x="0" y="0" width="64" height="65" filterUnits="userSpaceOnUse">
      <feOffset dy="3" input="SourceAlpha"/>
      <feGaussianBlur stdDeviation="3" result="blur"/>
      <feFlood flood-opacity="0.161"/>
      <feComposite operator="in" in2="blur"/>
      <feComposite in="SourceGraphic"/>
    </filter>
  </defs>
  <g id="Group_15906" data-name="Group 15906" transform="translate(-29 -247)">
    <g transform="matrix(1, 0, 0, 1, 29, 247)" filter="url(#Ellipse_906)">
      <ellipse id="Ellipse_906-2" data-name="Ellipse 906" cx="23" cy="23.5" rx="23" ry="23.5" transform="translate(9 6)" fill="#d99e30"/>
    </g>
    <g id="Icon_feather-shopping-cart" data-name="Icon feather-shopping-cart" transform="translate(49.067 264.958)">
      <path id="Path_11891" data-name="Path 11891" d="M14.058,31.029A1.029,1.029,0,1,1,13.029,30,1.029,1.029,0,0,1,14.058,31.029Z" transform="translate(-4.797 -10.449)" fill="none" stroke="#fff" stroke-linecap="round" stroke-linejoin="round" stroke-width="2"/>
      <path id="Path_11892" data-name="Path 11892" d="M30.558,31.029A1.029,1.029,0,1,1,29.529,30,1.029,1.029,0,0,1,30.558,31.029Z" transform="translate(-9.978 -10.449)" fill="none" stroke="#fff" stroke-linecap="round" stroke-linejoin="round" stroke-width="2"/>
      <path id="Path_11893" data-name="Path 11893" d="M1.5,1.5H5.616L8.374,15.278a2.058,2.058,0,0,0,2.058,1.657h10a2.058,2.058,0,0,0,2.058-1.657l1.646-8.633H6.645" transform="translate(-1.5 -1.5)" fill="none" stroke="#fff" stroke-linecap="round" stroke-linejoin="round" stroke-width="2"/>
    </g>
    <line id="Line_41" data-name="Line 41" y2="44.398" transform="translate(59.858 305.009)" fill="none" stroke="#b2b74f" stroke-linecap="round" stroke-width="4"/>
  </g>
</svg>
