<?xml version="1.0" encoding="utf-8"?>
<!-- Generator: Adobe Illustrator 24.2.1, SVG Export Plug-In . SVG Version: 6.00 Build 0)  -->
<svg version="1.1" id="Layer_1" xmlns="http://www.w3.org/2000/svg" xmlns:xlink="http://www.w3.org/1999/xlink" x="0px" y="0px"
	 viewBox="0 0 500 500" style="enable-background:new 0 0 500 500;" xml:space="preserve">
<style type="text/css">
	.st0{fill:#3160BD;}
	.st1{fill:#86C4F0;}
</style>
<path class="st0" d="M233.8,123.1c25.2,0,50.3,0,75.5,0c19.7,0,32.6,12.7,32.7,32.4c0.1,30.3,0.1,60.7,0,91
	c-0.1,20.7-12.7,33.2-33.5,33.2c-5.5,0-11,0.1-16.5,0c-2.5-0.1-3.5,0.7-3.6,3.4c-0.3,9.3,4,13.9,13.4,13.9c3.7,0,7.3-0.1,11,0
	c13.2,0.3,23.6,10.5,23.8,23.4c0.2,13.1-10.1,24-23.4,24.4c-8,0.2-16,0-24,0.1c-1.6,0-3.3-0.3-4.5,1.4c-2.5,3.8-6.3,4.6-10.5,4.3
	c-2.3-0.2-3.4,0.7-4.3,3c-2.7,6.9-13.9,10.1-19.9,6c-1.7-1.2-3-2.8-3-4.9c-0.1-8.7-0.1-17.3,0-26c0-2.1,1.2-3.8,2.9-5
	c6-4.2,17.4-1.1,20,5.7c1,2.5,2.1,3.4,4.7,3.2c3.8-0.3,7.3,0.4,9.9,3.7c1.1,1.4,2.6,1.2,4.1,1.2c7.8,0,15.7,0.1,23.5,0
	c10.1-0.1,17.1-6.8,17.3-16.2c0.2-9.6-6.9-16.5-17.3-16.7c-3.7-0.1-7.3,0-11,0c-12.2-0.3-19.7-7.5-19.8-19.6c0-3.8-1-5.1-5-5.1
	c-28.3,0.2-56.7,0.1-85,0c-3.6,0-4.9,0.7-4.9,4.6c-0.1,12.8-7.6,19.9-20.4,20.1c-3.8,0.1-7.7-0.1-11.5,0.1
	c-9.7,0.5-16.3,7.5-16.1,16.8c0.2,9,7,15.8,16.4,16.1c8.2,0.2,16.3,0.1,24.5,0.1c0.3,0,0.7,0.1,1,0c4.9-3,9.8-5.8,15.9-5.3
	c1.1,0.1,1.1-1.9,1.5-2.9c2.9-6.6,14.4-9.7,20.2-5.4c2,1.5,2.9,3.6,2.9,6.1c0,7.8,0.1,15.7,0,23.5c-0.1,4.8-2.7,7.3-7.5,7.6
	c-7.2,0.4-13.9,0-16.2-8.7c-0.5-2-2.4-1.5-3.8-1.4c-4.2,0.1-8-0.6-10.5-4.5c-1.1-1.7-2.9-1.3-4.5-1.3c-7.5,0-15,0-22.5,0
	c-14-0.1-24.8-10.6-24.8-24c0-13.5,10.7-23.7,24.9-23.8c4,0,8,0.1,12,0c7.9-0.3,13.4-8.1,11.1-15.6c-0.7-2.2-2.3-1.6-3.6-1.6
	c-6.2-0.1-12.3,0-18.5,0c-17.6-0.2-31-12.7-31.2-30.4c-0.4-32-0.4-64,0-96c0.2-17.6,13.6-30.2,31.3-30.2
	C182.5,123,208.1,123.1,233.8,123.1z M233.6,272.1c25.5,0,51,0,76.5,0c15.1,0,24.6-9.6,24.6-24.7c0-30.6,0-61.3,0-91.9
	c0-15.4-9.5-24.9-24.9-24.9c-50.6,0-101.3,0-151.9,0c-15.7,0-25.1,9.5-25.1,25.2c0,30.3,0,60.6,0,90.9c0,16,9.4,25.4,25.4,25.4
	C183.3,272.2,208.5,272.1,233.6,272.1z M253.8,341.1c0,2.7,0.1,5.3,0,8c-0.2,3.4,0.9,4.9,4.5,4.8c3.4-0.1,5.4-1.2,5.4-4.9
	c0-5-0.1-10,0-15c0.1-4-2.2-4.9-5.8-5c-4-0.1-4.2,2.2-4.1,5.2C253.8,336.4,253.8,338.8,253.8,341.1z M213.7,341.4c0-2.7,0-5.3,0-8
	c0.1-2.4-0.2-4.4-3.3-4.4c-2.9,0.1-6.2-0.1-6.4,3.8c-0.3,5.8-0.3,11.6,0,17.4c0.2,3.6,3.2,3.6,6,3.6c2.8,0,3.8-1.3,3.7-4
	C213.6,347,213.7,344.2,213.7,341.4z M193.2,343.8c1.9-0.1,4.2,0.3,4.2-2.4c0-2.6-2.3-2.4-4.1-2.3c-1.9,0-4.6-0.4-4.4,2.6
	C189.1,344.1,191.5,343.6,193.2,343.8z M274,339c-1.6,0.2-3.9-0.3-4,2.3c-0.1,2.7,2.2,2.5,4,2.4c1.9,0,4.6,0.4,4.5-2.5
	C278.4,338.8,276,339.1,274,339z"/>
<path class="st0" d="M213.2,256c-14.7,0-29.3,0-44,0c-12.6,0-20.5-7.9-20.5-20.7c0-22.5,0-45,0.1-67.5c0-13.1,7.8-21,20.7-21
	c29.5,0,59,0,88.5,0.1c12.2,0,20.4,8.1,20.4,20.4c0,22.7,0,45.3-0.2,68c-0.1,13.1-8,20.6-21.1,20.7C242.5,256,227.9,256,213.2,256z
	 M213.5,248.9c14.5,0,29,0,43.4,0c9.7,0,13.9-4.3,13.9-14.1c0-22.1,0-44.3,0-66.4c0-10.3-4.1-14.5-14.4-14.5c-28.6,0-57.3,0-85.9,0
	c-10,0-14.7,4.4-14.7,14.6c-0.1,22.3-0.2,44.6-0.1,66.9c0,8.6,5.2,13.5,13.8,13.5C184.2,248.9,198.8,248.9,213.5,248.9z"/>
<path class="st0" d="M320.6,232.4c-0.1,8.5-7.3,15.6-15.7,15.4c-8.3-0.2-15.2-7.2-15.1-15.5c0-8.5,7.2-15.5,15.7-15.4
	C313.7,217.1,320.7,224.1,320.6,232.4z M305,240.7c4.2,0.2,8.4-3.7,8.6-8c0.2-4.1-3.7-8.5-7.9-8.8c-4.3-0.3-8.7,3.9-8.9,8.3
	C296.7,236.4,300.6,240.6,305,240.7z"/>
<path class="st0" d="M320.6,170.6c-0.1,8.3-7.2,15.2-15.4,15.2c-8.5,0-15.6-7.2-15.4-15.7c0.1-8.5,7.4-15.4,15.9-15.2
	C313.9,155.2,320.7,162.3,320.6,170.6z M305.2,161.9c-4.1,0-8.5,4.3-8.5,8.2c0,4.6,4.2,8.7,8.6,8.6c4.3-0.1,8.3-4.2,8.2-8.5
	C313.5,166.1,309.4,161.9,305.2,161.9z"/>
<path class="st0" d="M305.8,204.9c-2.8,0-5.6,0-8.4,0c-2.4,0-3.8-1.2-3.7-3.7c0.1-2.2,1.4-3.3,3.5-3.3c5.9-0.1,11.9-0.1,17.8,0
	c2.3,0,3.8,1.2,3.7,3.7c-0.1,2.5-1.7,3.4-4,3.4C311.7,204.9,308.7,204.9,305.8,204.9C305.8,204.9,305.8,204.9,305.8,204.9z"/>
<path class="st1" d="M213.5,248.9c-14.6,0-29.3,0-43.9,0c-8.6,0-13.8-4.9-13.8-13.5c-0.1-22.3-0.1-44.6,0.1-66.9
	c0.1-10.1,4.7-14.6,14.7-14.6c28.6,0,57.3,0,85.9,0c10.3,0,14.4,4.2,14.4,14.5c0,22.1,0,44.3,0,66.4c0,9.8-4.2,14-13.9,14.1
	C242.5,248.9,228,248.9,213.5,248.9z M228,187.4c1.7,4.6,3,8,4.2,11.5c1,2.6,2.7,4,5.6,4c4.7-0.1,9.3,0,14,0c2.7,0,4.7-1.1,4.7-4
	c0-2.8-2.3-3.5-4.5-3.7c-2.8-0.2-5.7-0.3-8.5-0.1c-3.5,0.3-5.5-0.7-6.6-4.3c-1.5-5.4-3.6-10.7-5.5-16c-0.7-1.9-1.5-4-4.1-3.7
	c-2.3,0.3-3.2,1.9-3.7,4.1c-1.6,6.3-3.3,12.5-4.9,18.8c-1.5,5.4-3,10.9-4.7,17.2c-0.8-1.6-1.1-2.1-1.3-2.7
	c-3.4-8.8-6.7-17.7-10.2-26.5c-0.9-2.3-1.4-5.3-4.4-5.5c-2.7-0.2-3.7,2.4-4.9,4.4c-1.5,2.4-3.2,4.7-4.4,7.2c-2.7,5.7-6.3,9.7-13.4,8
	c-0.3-0.1-0.7,0-1,0c-2.2,0.4-3.7,1.6-3.6,4c0.1,2.4,1.9,2.9,3.9,2.9c3,0,6-0.2,9,0.1c3.1,0.2,4.8-1.1,6.5-3.6
	c2.2-3.4,3.7-7.4,7.3-10.5c4.3,11.2,8.5,22,12.7,32.8c0.9,2.3,1.3,5.2,4.6,5.1c3.3-0.1,3.4-3,4.1-5.4
	C221.7,210.5,224.7,199.6,228,187.4z"/>
<g>
	<path class="st1" d="M253.8,341.1c0-2.3,0.1-4.7,0-7c-0.1-3,0.1-5.3,4.1-5.2c3.5,0.1,5.8,1,5.8,5c-0.1,5-0.1,10,0,15
		c0,3.7-2,4.8-5.4,4.9c-3.6,0.1-4.7-1.4-4.5-4.8C253.9,346.4,253.8,343.7,253.8,341.1z"/>
	<path class="st1" d="M213.7,341.4c0,2.8-0.1,5.6,0,8.5c0.1,2.7-0.9,4-3.7,4c-2.8,0-5.8,0-6-3.6c-0.3-5.8-0.3-11.6,0-17.4
		c0.2-3.9,3.6-3.7,6.4-3.8c3.1-0.1,3.3,2,3.3,4.4C213.6,336.1,213.7,338.7,213.7,341.4z"/>
	<path class="st1" d="M193.2,343.8c-1.7-0.1-4.2,0.4-4.3-2.1c-0.2-3,2.5-2.5,4.4-2.6c1.8,0,4.1-0.3,4.1,2.3
		C197.4,344,195.1,343.7,193.2,343.8z"/>
	<path class="st1" d="M274,339c2,0.1,4.4-0.3,4.5,2.2c0.1,3-2.6,2.5-4.5,2.5c-1.8,0-4.1,0.3-4-2.4C270.1,338.7,272.5,339.2,274,339z
		"/>
	<path class="st1" d="M305,240.7c-4.3-0.2-8.2-4.3-8.1-8.5c0.1-4.4,4.6-8.6,8.9-8.3c4.2,0.3,8.1,4.7,7.9,8.8
		C313.3,237,309.2,240.9,305,240.7z"/>
	<path class="st1" d="M305.2,161.9c4.2,0,8.2,4.1,8.3,8.4c0.1,4.2-3.9,8.3-8.2,8.5c-4.4,0.1-8.6-4-8.6-8.6
		C296.7,166.2,301.1,161.9,305.2,161.9z"/>
</g>
<path class="st0" d="M228,187.4c-3.3,12.2-6.3,23.1-9.2,33.9c-0.6,2.4-0.8,5.3-4.1,5.4c-3.3,0.1-3.7-2.8-4.6-5.1
	c-4.2-10.8-8.4-21.7-12.7-32.8c-3.7,3.1-5.1,7.1-7.3,10.5c-1.6,2.5-3.4,3.8-6.5,3.6c-3-0.2-6,0-9-0.1c-2,0-3.7-0.5-3.9-2.9
	c-0.1-2.4,1.3-3.6,3.6-4c0.3-0.1,0.7-0.1,1,0c7.1,1.7,10.7-2.3,13.4-8c1.2-2.5,2.9-4.8,4.4-7.2c1.2-1.9,2.2-4.6,4.9-4.4
	c3,0.3,3.5,3.3,4.4,5.5c3.4,8.8,6.8,17.7,10.2,26.5c0.2,0.6,0.6,1.1,1.3,2.7c1.7-6.3,3.2-11.8,4.7-17.2c1.7-6.3,3.4-12.5,4.9-18.8
	c0.5-2.1,1.4-3.8,3.7-4.1c2.6-0.3,3.4,1.8,4.1,3.7c1.9,5.3,3.9,10.6,5.5,16c1,3.6,3.1,4.6,6.6,4.3c2.8-0.2,5.7-0.2,8.5,0.1
	c2.2,0.2,4.5,0.9,4.5,3.7c0,2.9-2,3.9-4.7,4c-4.7,0-9.3-0.1-14,0c-3,0.1-4.7-1.3-5.6-4C230.9,195.4,229.7,192,228,187.4z"/>
</svg>
