<svg xmlns="http://www.w3.org/2000/svg" xmlns:xlink="http://www.w3.org/1999/xlink" width="355.035" height="251.254" viewBox="0 0 355.035 251.254"><defs><linearGradient id="a" x1="0.5" y1="1" x2="0.5" gradientUnits="objectBoundingBox"><stop offset="0" stop-color="gray" stop-opacity="0.251"/><stop offset="0.54" stop-color="gray" stop-opacity="0.122"/><stop offset="1" stop-color="gray" stop-opacity="0.102"/></linearGradient><linearGradient id="b" x1="0.5" y1="1" x2="0.5" y2="0" xlink:href="#a"/></defs><g transform="translate(0.005 0.006)"><ellipse cx="31.277" cy="5.024" rx="31.277" ry="5.024" transform="translate(86.974 241.06)" fill="#7474bf" opacity="0.1"/><ellipse cx="39.029" cy="5.024" rx="39.029" ry="5.024" transform="translate(249.241 241.201)" fill="#7474bf" opacity="0.1"/><path d="M59.668,396.83H92.245v44.4H62.053c-.08.456-.157.915-.241,1.374H92.245v35.81c-.055-.016-.1-.035-.154-.055-.86-.34-1.714-.7-2.568-1.085l-.546-.247q-1.284-.607-2.568-1.284c-.3-.157-.6-.321-.892-.488a53.418,53.418,0,0,1-12.8-10c-.109-.106-.212-.218-.321-.321-.52-.565-1.03-1.136-1.525-1.72l-.546-.642c-.584-.716-1.149-1.451-1.7-2.2-.08-.109-.157-.218-.241-.321a47.789,47.789,0,0,1-5.521-9.983c-.045-.106-.083-.221-.125-.321q-.661-1.7-1.172-3.435c-.148-.485-.289-.963-.411-1.467-.045-.148-.083-.292-.119-.437C59.215,437.3,59,429.9,59,422.564V420c0-2.969.035-5.958.087-8.943,0-.774.032-1.544.048-2.321q.067-2.956.193-5.913c.019-.549.045-1.095.074-1.64a9.29,9.29,0,0,1,.048-.944C59.526,399.093,59.591,397.96,59.668,396.83Z" transform="translate(-54.899 -288.275)" fill="#7474bf" opacity="0.1"/><path d="M124.77,195.035H106.9a135.462,135.462,0,0,1,9.5-13.084c2.655-3.261,5.457-6.439,8.365-9.5Z" transform="translate(-87.424 -135.919)" fill="#7474bf" opacity="0.1"/><path d="M93.875,247.09v46.691H61.4c0-.135.022-.273.032-.408.029-.369.058-.738.09-1.1.035-.43.074-.863.116-1.284s.087-.934.135-1.4.093-.937.148-1.4.1-.931.16-1.393.109-.931.17-1.393c.048-.385.1-.767.151-1.152.074-.542.151-1.088.234-1.627a1.5,1.5,0,0,1,.035-.241,111.028,111.028,0,0,1,2.391-11.723,86.692,86.692,0,0,1,4.028-11.877,89.156,89.156,0,0,1,6.06-11.671Z" transform="translate(-56.529 -186.6)" fill="#7474bf" opacity="0.1"/><path d="M186.8,167.181v44.406h69.581V167.181Zm0,45.776v38.134c.4.083.793.164,1.184.231.533.1,1.062.2,1.6.276.1.016.209.032.321.042.212.035.43.064.642.093.536.074,1.069.135,1.6.183.254.026.51.048.767.067l.62.048h0c.337.026.671.045,1,.055.205,0,.411.019.623.026h2.289c.276,0,.552,0,.825-.026h.019a4.324,4.324,0,0,0,.575-.026,1.341,1.341,0,0,0,.16,0,3.32,3.32,0,0,0,.475-.022h.112l1.075-.083c.353-.032.709-.074,1.069-.112l.732-.087a64.023,64.023,0,0,0,8.811-1.875c6.49-1.81,12.84-4.343,19.327-6.2,8.387-2.391,17.654-3.566,25.759-.642V212.958Zm69.581-95.212V58.629a89.451,89.451,0,0,0-22.607,2.651c-17.619,4.426-33.428,14.027-46.974,26.289v30.173h3.492v1.371H186.8v46.7h69.581V119.116h-51.75v-1.371Zm89.373-19.969a28.821,28.821,0,0,1-12.612-3.666c-7.5-4.077-13.482-10.371-20.171-15.684a92.611,92.611,0,0,0-48.819-19.4v58.716h99.331l.247-.26Zm9.049-1.6L364.4,106.7V93.411a38.067,38.067,0,0,0-9.582,2.748ZM364.4,260.561v-47.6H343.954c-.055-.2-.109-.408-.173-.613.061.205.112.411.17.613H264.165v34.426c.758.562,1.505,1.152,2.247,1.753h0c.8.642,1.589,1.319,2.382,1.984l.8.661c.382.321.767.642,1.156.944q1.156.937,2.334,1.849c.388.321.786.61,1.181.912a160.883,160.883,0,0,0,19.783,12.939q2.321,1.284,4.683,2.507c1.05.536,2.106,1.069,3.165,1.586q2.388,1.165,4.815,2.247h0a176.815,176.815,0,0,0,46.865,13.652q5.389.8,10.821,1.252V260.558h.321ZM264.165,119.116v46.694H364.41V119.116Zm0,48.065v44.406H364.41V167.181ZM372.191,93.354v14.823L384.437,94.74q-6.086-.982-12.246-1.4Zm0,73.844v44.39h97.5V167.181Zm97.145,96.888.343-51.127H372.191v77.221a174.841,174.841,0,0,0,18.842-.225h.109q4.494-.282,8.946-.822h.067a164.746,164.746,0,0,0,45.966-12.265m42.371-102.374c-.366-.863-.748-1.721-1.136-2.568-.725-1.6-1.493-3.165-2.282-4.725h-7.607v44.387H496.7c-.01-12.57-3.191-25.41-8.2-37.11Zm-11.026,38.48V256.95a63,63,0,0,0,13.292-17.927,61.629,61.629,0,0,0,5.925-26.055Zm0-58.716v11.556h6.895a125.2,125.2,0,0,0-6.885-11.572Zm-66.124-52.193c-.507-.193-1.014-.388-1.525-.578a139.185,139.185,0,0,0-16.47-4.95L374.608,117.1h0l-.359.382.241.263h66.7a142.652,142.652,0,0,0-29.833-15.7Zm31.8,17.067H373.559l-1.367,1.252v45.427h97.514v-22a138.925,138.925,0,0,0-26.556-24.691Z" transform="translate(-141.677 -58.63)" fill="#7474bf" opacity="0.1"/><path d="M93.875,320.46V343.6H61.4c0-.135.022-.273.032-.408.029-.369.058-.738.09-1.1.035-.43.074-.863.116-1.284s.087-.934.135-1.4.093-.937.148-1.4.1-.931.16-1.393.109-.931.17-1.393c.048-.385.1-.767.151-1.152.074-.542.151-1.088.234-1.627a1.5,1.5,0,0,1,.035-.241,111.028,111.028,0,0,1,2.391-11.723Z" transform="translate(-56.529 -236.419)" fill="#7474bf" opacity="0.1"/><path d="M59.668,396.83H92.245v44.4H62.053c-.08.456-.157.915-.241,1.374H92.245v35.81c-.055-.016-.1-.035-.154-.055-.86-.34-1.714-.7-2.568-1.085l-.546-.247q-1.284-.607-2.568-1.284c-.3-.157-.6-.321-.892-.488a53.418,53.418,0,0,1-12.8-10c-.109-.106-.212-.218-.321-.321-.52-.565-1.03-1.136-1.525-1.72l-.546-.642c-.584-.716-1.149-1.451-1.7-2.2-.08-.109-.157-.218-.241-.321a47.789,47.789,0,0,1-5.521-9.983c-.045-.106-.083-.221-.125-.321q-.661-1.7-1.172-3.435c-.148-.485-.289-.963-.411-1.467-.045-.148-.083-.292-.119-.437C59.215,437.3,59,429.9,59,422.564V420c0-2.969.035-5.958.087-8.943,0-.774.032-1.544.048-2.321q.067-2.956.193-5.913c.019-.549.045-1.095.074-1.64a9.29,9.29,0,0,1,.048-.944C59.526,399.093,59.591,397.96,59.668,396.83Z" transform="translate(-54.899 -288.275)" fill="#7474bf" opacity="0.1"/><path d="M164.055,180.626v40.008H139.56V180.626h3.492V167.08h14.335v13.546Z" transform="translate(-94.437 -113.453)" fill="#7474bf" opacity="0.1"/><rect width="24.492" height="44.403" transform="translate(45.127 108.551)" fill="#7474bf" opacity="0.1"/><path d="M186.8,539.44h24.495v36.914a63.907,63.907,0,0,1-8.811,1.871l-.732.09c-.36.042-.716.077-1.069.112s-.719.061-1.075.083H199.5c-.154,0-.321.019-.472.022h-.164c-.193,0-.385.019-.578.026h0c-.273.016-.546.019-.825.022h-2.273l-.62-.022c-.321,0-.668-.035-1-.058h0l-.616-.045-.767-.071c-.539-.048-1.075-.109-1.6-.183l-.642-.09-.321-.045c-.536-.083-1.066-.173-1.6-.276-.395-.067-.786-.151-1.184-.231Z" transform="translate(-141.677 -385.109)" fill="#7474bf" opacity="0.1"/><rect width="20.197" height="44.73" transform="translate(202.537 62.448)" fill="#7474bf" opacity="0.1"/><path d="M480.829,338.19V382.6H380.58V363.442h53.4v11.3h26.652V338.19Z" transform="translate(-258.091 -229.639)" fill="#7474bf" opacity="0.1"/><path d="M528.386,585.752h-.321v29.13q-5.425-.459-10.817-1.249a176.823,176.823,0,0,1-46.884-13.681q-6.462-2.908-12.66-6.349a161.549,161.549,0,0,1-19.786-12.939q-2.362-1.81-4.664-3.7c-1.062-.876-2.119-1.775-3.187-2.648-.741-.6-1.489-1.191-2.247-1.756V538.143H507.6c-.055-.205-.109-.411-.167-.613.061.2.119.408.173.613h20.457v47.59C528.174,585.736,528.28,585.746,528.386,585.752Z" transform="translate(-305.332 -383.812)" fill="#7474bf" opacity="0.1"/><path d="M876.381,208.391H863.22V204.3h5.9V192.12q.767.279,1.528.575V204.3h5.733Z" transform="translate(-600.972 -149.275)" fill="#7474bf" opacity="0.1"/><path d="M840.961,293.781H776.352l.022.016-.029-.016H764.36v-44.73h3.4v33.062h15.52v-19.58H796.1V247.09h13.161v15.456h12.82v19.58h18.884Z" transform="translate(-533.845 -186.6)" fill="#7474bf" opacity="0.1"/><path d="M764.36,396.82v44.406h76.6V396.82ZM861.755,493.5l.106-35.148h-20.9V442.619h-76.6v77.2a174.848,174.848,0,0,0,18.842-.225h.109q4.494-.282,8.946-.822h.067a164.745,164.745,0,0,0,45.966-12.265" transform="translate(-533.845 -288.269)" fill="#7474bf" opacity="0.1"/><path d="M1093.718,539.44h17.87a61.823,61.823,0,0,1-5.929,26.052,63.019,63.019,0,0,1-13.289,17.927V555.172h1.348Z" transform="translate(-756.567 -385.109)" fill="#7474bf" opacity="0.1"/><path d="M1114.449,456.66H1096.57V419.55h9.675C1111.252,431.25,1114.433,444.09,1114.449,456.66Z" transform="translate(-759.419 -303.702)" fill="#7474bf" opacity="0.1"/><rect width="10.821" height="14.024" transform="translate(211.916 74.883)" fill="#7474bf" opacity="0.1"/><rect width="10.821" height="3.229" transform="translate(211.916 103.952)" fill="#7474bf" opacity="0.1"/><rect width="10.821" height="9.421" transform="translate(211.916 108.551)" fill="#7474bf" opacity="0.1"/><rect width="10.821" height="14.024" transform="translate(211.916 133.021)" fill="#7474bf" opacity="0.1"/><rect width="10.821" height="14.024" transform="translate(211.916 162.089)" fill="#7474bf" opacity="0.1"/><path d="M717.237,664.933a1.782,1.782,0,0,1,.321.019h-.321v3.258H706.42V654.17h10.817Z" transform="translate(-494.504 -463.012)" fill="#7474bf" opacity="0.1"/><path d="M717.237,744.71v10.833q-5.425-.459-10.817-1.249V744.71Z" transform="translate(-494.504 -524.489)" fill="#7474bf" opacity="0.1"/><rect width="46.374" height="1.03" transform="translate(122.488 151.927)" fill="#7474bf" opacity="0.1"/><rect width="46.374" height="3.948" transform="translate(122.488 154.328)" fill="#7474bf" opacity="0.1"/><rect width="46.374" height="6.349" transform="translate(122.488 171.218)" fill="#7474bf" opacity="0.1"/><path d="M478.937,652.15V658.5H442.665q-2.363-1.8-4.667-3.7c-1.062-.876-2.115-1.775-3.187-2.645Z" transform="translate(-310.078 -461.64)" fill="#7474bf" opacity="0.1"/><path d="M537.406,712.22v6.343h-3.829q-6.455-2.911-12.657-6.352Z" transform="translate(-368.547 -502.421)" fill="#7474bf" opacity="0.1"/><rect width="9.129" height="9.129" transform="translate(249.36 112.856)" fill="#7474bf" opacity="0.1"/><rect width="9.129" height="9.129" transform="translate(51.7 70.321)" fill="#7474bf" opacity="0.1"/><rect width="9.129" height="9.129" transform="translate(51.7 91.526)" fill="#7474bf" opacity="0.1"/><rect width="9.129" height="9.129" transform="translate(51.7 112.731)" fill="#7474bf" opacity="0.1"/><rect width="9.129" height="9.129" transform="translate(51.7 133.932)" fill="#7474bf" opacity="0.1"/><rect width="9.129" height="9.129" transform="translate(51.7 155.137)" fill="#7474bf" opacity="0.1"/><rect width="9.129" height="9.129" transform="translate(51.7 176.341)" fill="#7474bf" opacity="0.1"/><rect width="9.129" height="9.129" transform="translate(284.21 112.856)" fill="#7474bf" opacity="0.1"/><rect width="9.129" height="9.129" transform="translate(249.36 135.373)" fill="#7474bf" opacity="0.1"/><rect width="9.129" height="9.129" transform="translate(284.21 135.373)" fill="#7474bf" opacity="0.1"/><rect width="9.129" height="9.129" transform="translate(249.36 157.888)" fill="#7474bf" opacity="0.1"/><rect width="9.129" height="9.129" transform="translate(284.21 157.888)" fill="#7474bf" opacity="0.1"/><rect width="9.129" height="9.129" transform="translate(249.36 180.405)" fill="#7474bf" opacity="0.1"/><rect width="9.129" height="9.129" transform="translate(284.21 180.405)" fill="#7474bf" opacity="0.1"/><rect width="9.129" height="9.129" transform="translate(249.36 202.923)" fill="#7474bf" opacity="0.1"/><rect width="9.129" height="9.129" transform="translate(284.21 202.923)" fill="#7474bf" opacity="0.1"/><path d="M775.83,708.217V702.33h9.126v5.049Z" transform="translate(-526.47 -476.893)" fill="#7474bf" opacity="0.1"/><path d="M65.24,357v5.223H96.482V357Zm3.114,4.9H65.8v-4.574h2.568Zm3.11,0H68.9v-4.574h2.568Zm3.1,0H72v-4.574h2.568Zm3.11,0H75.114v-4.574h2.568Zm3.107,0H78.218v-4.574h2.568Zm3.11,0H81.328v-4.574H83.9Zm3.11,0H84.438v-4.574h2.568Zm3.107,0H87.546v-4.574h2.568Zm3.107,0H90.653v-4.574h2.568Zm3.107,0H93.76v-4.574h2.568Z" transform="translate(-59.136 -261.23)" fill="#7474bf" opacity="0.1"/><path d="M65.24,404.34v5.223H96.482V404.34Zm3.114,4.892H65.8v-4.561h2.568Zm3.11,0H68.9v-4.561h2.568Zm3.1,0H72v-4.561h2.568Zm3.11,0H75.114v-4.561h2.568Zm3.107,0H78.218v-4.561h2.568Zm3.11,0H81.328v-4.561H83.9Zm3.11,0H84.438v-4.561h2.568Zm3.107,0H87.546v-4.561h2.568Zm3.107,0H90.653v-4.561h2.568Zm3.107,0H93.76v-4.561h2.568Z" transform="translate(-59.136 -293.375)" fill="#7474bf" opacity="0.1"/><path d="M65.24,451.7v5.232H96.482V451.7Zm3.114,4.892H65.8v-4.564h2.568Zm3.11,0H68.9v-4.564h2.568Zm3.1,0H72v-4.564h2.568Zm3.11,0H75.114v-4.564h2.568Zm3.107,0H78.218v-4.564h2.568Zm3.11,0H81.328v-4.564H83.9Zm3.11,0H84.438v-4.564h2.568Zm3.107,0H87.546v-4.564h2.568Zm3.107,0H90.653v-4.564h2.568Zm3.107,0H93.76v-4.564h2.568Z" transform="translate(-59.136 -325.533)" fill="#7474bf" opacity="0.1"/><path d="M65.24,499.06v5.216H96.482V499.06Zm3.114,4.892H65.8v-4.568h2.568Zm3.11,0H68.9v-4.568h2.568Zm3.1,0H72v-4.568h2.568Zm3.11,0H75.114v-4.568h2.568Zm3.107,0H78.218v-4.568h2.568Zm3.11,0H81.328v-4.568H83.9Zm3.11,0H84.438v-4.568h2.568Zm3.107,0H87.546v-4.568h2.568Zm3.107,0H90.653v-4.568h2.568Zm3.107,0H93.76v-4.568h2.568Z" transform="translate(-59.136 -357.69)" fill="#7474bf" opacity="0.1"/><path d="M65.66,546.41c.125.491.266.982.414,1.467v-1.14h2.568V551.3H67.268c.042.106.083.221.125.321H96.767V546.41Zm6.1,4.892H69.191v-4.565h2.568Zm3.1,0H72.295v-4.565h2.568Zm3.11,0H75.4v-4.565h2.568Zm3.107,0H78.512v-4.565H81.08Zm3.11,0H81.623v-4.565h2.568Zm3.11,0H84.733v-4.565H87.3Zm3.107,0H87.84v-4.565h2.568Zm3.107,0H90.948v-4.565h2.568Zm3.107,0H94.055v-4.565h2.568Z" transform="translate(-59.421 -389.842)" fill="#7474bf" opacity="0.1"/><path d="M88.26,593.77c.08.1.157.218.241.321h1.7v2.192c.183.218.363.437.549.642v-2.847h2.568v4.581h-1.04c.1.106.2.218.321.321h19.526v-5.21Zm8.156,4.889H93.848V594.1h2.568Zm3.11,0H96.959V594.1h2.568Zm3.11,0h-2.568V594.1h2.568Zm3.107,0h-2.568V594.1h2.568Zm3.107,0h-2.568V594.1h2.568Zm3.107,0h-2.568V594.1h2.568Z" transform="translate(-74.767 -421.999)" fill="#7474bf" opacity="0.1"/><path d="M141.65,641.12c.292.167.591.321.892.488v-.161h2.568v1.444l.546.254v-1.7h2.568v2.777a.807.807,0,0,0,.154.058V641.12Z" transform="translate(-111.019 -454.151)" fill="#7474bf" opacity="0.1"/><path d="M391.6,290.855Zm-19.773,94.737Zm-20.63-48.2c.061.205.112.411.17.613h0C351.314,337.8,351.259,337.594,351.2,337.389Zm40.4-46.544ZM197.72,242.78v1.371h14.339V242.78ZM371.825,385.592Zm-20.63-48.2c.061.205.112.411.17.613h0C351.314,337.8,351.259,337.594,351.2,337.389Zm40.4-46.544Zm-19.773,94.737ZM351.2,337.389c.061.205.112.411.17.613h0C351.314,337.8,351.259,337.594,351.2,337.389Z" transform="translate(-149.091 -183.674)" fill="#7474bf" opacity="0.1"/><path d="M364.062,288.822s-1.265-.177-1.265-2.019a28.864,28.864,0,0,0-.905-5.284h0c0-.016-.783-5.993-1.865-6.943s-2.472-6.529-2.472-6.529-.238-3.027-.722-3.679a31.251,31.251,0,0,1-2.106-4.523c-.966-2.276-4.995-3.852-4.995-3.852s-7.283-4.224-9.347-5.6h0a3.165,3.165,0,0,1-.523-.395c-.36-.472-1.926-.481-1.926-.481a31.563,31.563,0,0,1-.372-3.3,2.507,2.507,0,0,0-.016-.347,11.106,11.106,0,0,0,4.882-6.041c.039-.122.071-.25.106-.372a1.043,1.043,0,0,0,.626-.565,11.777,11.777,0,0,1,.421-1.284,4.835,4.835,0,0,1,1.188-1.043,4.494,4.494,0,0,0,1.236-3.656c-.032-1.075-.205-2.16-.138-3.229l.019-.27c.019-.16.042-.321.071-.475.157-.8.5-1.547.693-2.337a3.006,3.006,0,0,0-.238-2.359c-.658-1-2.029-1.2-3.232-1.3-1.364-.116-2.584.035-3.457-1.1a12.322,12.322,0,0,0-1.374-1.66c-.18-.167-1.926-1.233-1.926-1.3a7.8,7.8,0,0,0-5.441-.417c-.905.263-1.759.693-2.677.908-1.981.469-4.26-.039-5.942,1.095a6.983,6.983,0,0,0-2.025,2.658q-.642,1.229-1.3,2.456a15.906,15.906,0,0,0-1.73,4.2,6.674,6.674,0,0,0-.116.982h0v.523a1.726,1.726,0,0,0,.019.321c.019.1.016.132.026.2s.026.218.045.321.058.282.1.424c.016.061.039.119.058.177.032.109.071.215.112.321.022.055.045.112.071.167a3,3,0,0,0,.164.321c.026.045.045.087.071.128a4.256,4.256,0,0,0,.3.43c.687.857,1.7,1.4,2.446,2.205v.36a10.987,10.987,0,0,0,5,8.972c0,.122.016.247.022.369a18.368,18.368,0,0,1-.035,2.86,1.348,1.348,0,0,0-1.066-.475,1.538,1.538,0,0,0-.411.035l-.029-.022h0v.029c-.706.173-1.576.908-2.407,3,0,0-2.529,2.85-4.455,2.732s-6.8,2.966-6.8,2.966-4.757,3.088-5.778,6.234a43.937,43.937,0,0,1-2.048,5.226L296.7,280.7h0l-1.085,9.614a44.607,44.607,0,0,1,.481,4.927c-.119.652,2.468,6.529,2.468,6.529s8.548,15.019,12.04,15.79l.25-.177a2.046,2.046,0,0,0,.472.177l.719-.507a7.836,7.836,0,0,1-.055,1.695c-.481,1.483.18,11.161,1.021,13.058s.542,26.771.542,26.771l-.119,2.2a.931.931,0,0,0,.029.193l-.029.52.087.045a6.182,6.182,0,0,1-.087,2.09,23.237,23.237,0,0,0-.424,3.685s-2.4,15.369-1.265,18.457,2.109,6.471,2.109,6.471,1.2,3.852.058,4.51-4.4,1.762-3.733,3.367c.61,1.483,2.924,5.457,3.268,6.038l-.029.3-.472,5.113a6.419,6.419,0,0,0,.542,1.952,3.363,3.363,0,0,0,3.431,2.144c.321-.022.693-.061,1.053-.109a45.5,45.5,0,0,0,7.8-2.029,3.181,3.181,0,0,1-.61-.5h0a1.762,1.762,0,0,1-.536-1.284c.051-.931-1.692-5.367-2.125-6.458-.067-.157-.1-.247-.1-.247s3.974-4.154,3.313-7.835c0,0-4.4-2.568-2.95-3.977a44.84,44.84,0,0,0,4.035-5.457s.119-15.135,0-17.394a18.714,18.714,0,0,1,.221-4.7c.048-.234.106-.462.167-.687a41.9,41.9,0,0,0,6.047.459c.738,0,1.489,0,2.247-.045q0,.321.029.693c.167,3.749.478,10.323.732,12.766.36,3.5,2.346,12.939,2.346,12.939s-3.791,2.433.661,8.429a8.127,8.127,0,0,1-.3,2.488h0a27.2,27.2,0,0,0-.761,3.133,5.523,5.523,0,0,0,.038,2.866c.722,1.419,5.056,1.3,5.056,1.3h0L343.4,410a6.211,6.211,0,0,1,4.587,1.383c1.647,1.323,7.9.742,11.28.321,1.326-.167,2.212-.321,2.212-.321a1.284,1.284,0,0,0,.045-.462h0c-.035-.831-.687-2.655-5.1-4.282,0,0-4.154-2.793-4.1-5.226h-.568a4.521,4.521,0,0,1,.575,0s-1.627-5.938-.963-6.42-1.326-7.062-1.326-7.062-1.14-11.042-1.2-11.816a6.741,6.741,0,0,1,.3-1.958l-.3-6.054s-.058-2.013,0-2.667a13.324,13.324,0,0,0-.138-1.7c-.029-.225-.058-.459-.09-.69,1.557-.395,2.568-.761,2.568-.761L351,341.211c1.322-2.568,1.566-8.2,1.56-12.2,0-2.568-.116-4.468-.116-4.468l1.807-2.95s.417-3.531-.244-4.3a.741.741,0,0,1,.08-1.011,3.363,3.363,0,0,1,.395-.27s-.019-.029-.042-.071a3.187,3.187,0,0,1,.4-.286s-.642-1-.067-1.416c.539.366,1.021.642,1.387.867-.026.234-.051.369-.051.369l.154-.321.568.321s2.831-5.64,2.77-6.471,1.926-4.333,1.926-4.333a4.336,4.336,0,0,1,1.326-2.61c1.085-.77.841-6.352.841-6.352a13.685,13.685,0,0,1,1.024-4.1C365.442,290.424,364.062,288.822,364.062,288.822Zm-54.17-2.475.055,1.345-.552-.889Z" transform="translate(-215.566 -166.956)" fill="url(#a)"/><path d="M470.993,495.862l-.693,2.953s-5.553-2.834-6.555-6.436,1.676-4.969,1.676-4.969L470.6,489.6Z" transform="translate(-329.573 -349.78)" fill="#fff"/><path d="M470.993,495.862l-.693,2.953s-5.553-2.834-6.555-6.436,1.676-4.969,1.676-4.969L470.6,489.6Z" transform="translate(-329.573 -349.78)" opacity="0.1"/><path d="M363.134,802.114a39.907,39.907,0,0,1-8.667,2.125,3.3,3.3,0,0,1-3.367-2.131,6.451,6.451,0,0,1-.53-1.942l.459-5.088.244-2.709,7.5-1.948,1.062,3.248.1.247c.427,1.085,2.138,5.5,2.086,6.42a1.753,1.753,0,0,0,.526,1.268,3.055,3.055,0,0,0,.584.51Z" transform="translate(-252.878 -555.527)" fill="#fff"/><path d="M450.23,798.813a1.283,1.283,0,0,1-.045.459s-10.984,1.833-13.231,0a5.951,5.951,0,0,0-4.622-1.354s-4.25.115-4.959-1.284a5.572,5.572,0,0,1-.035-2.85,27.15,27.15,0,0,1,.745-3.117l.17-.135,1.011-.812,11.838-.35h.09c-.058,2.42,4.019,5.2,4.019,5.2C449.54,796.172,450.179,797.985,450.23,798.813Z" transform="translate(-304.894 -554.814)" fill="#fff"/><path d="M450.234,808.15a1.309,1.309,0,0,1-.048.459s-10.981,1.833-13.228,0a5.951,5.951,0,0,0-4.619-1.354s-4.253.115-4.959-1.284a5.567,5.567,0,0,1-.039-2.85c1.637.164,4.221.571,5.235,1.544,1.534,1.48,4.134,2.956,5.73,3.072C439.555,807.816,447.024,808.054,450.234,808.15Z" transform="translate(-304.897 -564.15)" opacity="0.1"/><path d="M364.261,825.8a39.906,39.906,0,0,1-8.667,2.125,3.289,3.289,0,0,1-3.364-2.135c1.306.44,3.12.9,4.073.478,1.13-.5,5.136-.825,7.383-.963A3.161,3.161,0,0,0,364.261,825.8Z" transform="translate(-254.005 -579.217)" opacity="0.1"/><path d="M395.386,312.259c-4.237-1.647-9.687-7.087-8.327-9.63a5.688,5.688,0,0,0,.53-2.041,18.634,18.634,0,0,0,.039-2.889,39.561,39.561,0,0,0-.568-4.7s13.228.3,12.458,2.247a7.284,7.284,0,0,0-.2,2.674c.061,1.111.221,2.366.388,3.428.231,1.457.462,2.568.462,2.568s-.809,1.133-1.284,1.194S401.466,314.606,395.386,312.259Z" transform="translate(-277.511 -217.774)" fill="#cf6f80"/><path d="M360.877,793.916l-.1.109c-3.955-4.783-8.737,1.178-8.737,1.178l-.071-.125.244-2.709,7.5-1.948,1.062,3.248Z" transform="translate(-253.829 -555.527)" opacity="0.1"/><path d="M443.125,789.68s-2.889-.061-4.43,1.3-8.988.3-8.667,0a1.057,1.057,0,0,0,.167-.488l1.011-.812,11.838-.35C443.09,789.545,443.125,789.68,443.125,789.68Z" transform="translate(-306.824 -554.786)" opacity="0.1"/><path d="M358.887,660a8.93,8.93,0,0,0-.488,1.647,18.844,18.844,0,0,0-.221,4.674c.119,2.247,0,17.3,0,17.3a46.065,46.065,0,0,1-3.955,5.431c-1.416,1.416,2.889,3.958,2.889,3.958.642,3.659-3.248,7.794-3.248,7.794-3.955-4.783-8.737,1.181-8.737,1.181s-2.6-4.494-3.248-6.1,2.539-2.716,3.659-3.367-.055-4.494-.055-4.494-.947-3.367-2.07-6.439,1.239-18.364,1.239-18.364a23.7,23.7,0,0,1,.414-3.662,6.125,6.125,0,0,0,.087-2.08c-.019-.234-.042-.43-.058-.562s-.029-.193-.029-.193l.045-.077,1.6-2.992S359.657,658.115,358.887,660Z" transform="translate(-246.917 -462.665)" fill="#7474bf"/><path d="M435.786,703.846s-2.889-.061-4.43,1.284-8.988.3-8.667,0,.3-2.481.3-2.481c-4.369-5.964-.642-8.384-.642-8.384s-1.952-9.389-2.3-12.872c-.247-2.433-.552-8.972-.716-12.7-.071-1.6-.112-2.709-.112-2.709l3.569-.719.459-.093,8.609-1.727s.238,1.6.4,2.918a13.635,13.635,0,0,1,.135,1.692c-.058.642,0,2.651,0,2.651l.292,6.025a6.843,6.843,0,0,0-.292,1.948c.058.767,1.178,11.751,1.178,11.751s1.948,6.555,1.284,7.026S435.786,703.846,435.786,703.846Z" transform="translate(-299.485 -469.306)" fill="#7474bf"/><path d="M399.968,295.247a7.285,7.285,0,0,0-.2,2.674,10.994,10.994,0,0,1-11.69-.218,39.564,39.564,0,0,0-.568-4.7S400.738,293.292,399.968,295.247Z" transform="translate(-277.961 -217.774)" opacity="0.1"/><path d="M395.792,254.664a10.873,10.873,0,0,1-.539,3.406,10.984,10.984,0,0,1-21.423-3.142v-.263a10.983,10.983,0,1,1,21.967,0Z" transform="translate(-268.672 -184.285)" fill="#cf6f80"/><path d="M395.386,328.311c-4.237-1.647-9.687-7.087-8.327-9.63a5.688,5.688,0,0,0,.53-2.042l5.8,4.767,3.589,2.943,2.728-6.946c.231,1.457.462,2.568.462,2.568s-.809,1.133-1.284,1.194S401.466,330.658,395.386,328.311Z" transform="translate(-277.511 -233.826)" opacity="0.1"/><path d="M354.729,289.668l-4.844,81.371-6.317.414L327.21,324.271l2.684-56.016.565-11.835,7.274,5.974,3.592,2.943,2.809-7.148,5.223,4.552Z" transform="translate(-221.853 -174.116)" fill="#7474bf"/><path d="M365.819,660.054a8.93,8.93,0,0,0-.488,1.647,46.544,46.544,0,0,1-13.244-4.138l-.087-.045.029-.517.016-.27,1.6-2.992S366.589,658.17,365.819,660.054Z" transform="translate(-253.849 -462.72)" opacity="0.1"/><path d="M422.813,672.184a32.506,32.506,0,0,1-3.55.4c-.071-1.6-.112-2.709-.112-2.709l3.569-.719Z" transform="translate(-299.444 -473.19)" opacity="0.1"/><path d="M440.707,666.408a24.916,24.916,0,0,1-8.962.844l-.045-2.035,8.609-1.727S440.547,665.079,440.707,666.408Z" transform="translate(-307.966 -469.34)" opacity="0.1"/><path d="M343.62,431c-13.161,2.247-25.214-4.2-25.214-4.2l.116-2.183s.3-24.745-.53-26.642-1.473-11.517-1-12.994-1.711-23.618-1.711-23.618l-.353-8.988L302,347.143l5.778-12.044a43.458,43.458,0,0,0,2.009-5.2c1-3.126,5.669-6.2,5.669-6.2s4.783-3.069,6.673-2.953,4.369-2.716,4.369-2.716c1.83-4.664,3.486-2.552,3.486-2.552a4.167,4.167,0,0,1-.09.69c-.642,5.12,10.381,21.3,10.538,21.583h0l1.05,25.57,1.063,32.359Z" transform="translate(-219.899 -232.715)" opacity="0.1"/><path d="M342.5,430.958c-13.161,2.247-25.217-4.2-25.217-4.2l.119-2.183s.3-24.745-.533-26.642-1.473-11.517-1-12.994-1.711-23.618-1.711-23.618l-.356-8.988-12.929-5.255,5.778-12.044a44.132,44.132,0,0,0,2.009-5.2c1-3.126,5.669-6.2,5.669-6.2s4.783-3.069,6.67-2.953,4.369-2.716,4.369-2.716c1.833-4.664,3.852-2.552,3.852-2.552,0,.221-.193.321-.09.69,1.412,4.966,10.028,21.3,10.185,21.583h0l1.063,25.57,1.062,32.359Z" transform="translate(-219.131 -232.674)" fill="#fff"/><path d="M393.864,340c-1.416-.591-8.914-9.151-8.914-9.151V328.9c-.273-.642-1.894-.25-3.21.2l.565-11.835.642.533C384.353,322.755,393.7,339.71,393.864,340Z" transform="translate(-274.043 -234.247)" opacity="0.1"/><path d="M394.967,337.786c-1.419-.591-8.917-9.151-8.917-9.151v-1.948c-.273-.642-1.894-.25-3.21.2l.568-11.835.642.533C385.459,320.545,394.81,337.5,394.967,337.786Z" transform="translate(-274.79 -232.746)" fill="#fff"/><path d="M351.582,516.894c.177,0,9.151-.944,9.151-.944s5.434,10.686,5.078,13.286-1,4.9-3.187,4.494-11.764.321-11.764.321Z" transform="translate(-253.075 -369.159)" opacity="0.1"/><path d="M350.472,514.684c.177,0,9.151-.944,9.151-.944s5.431,10.689,5.078,13.286-1,4.9-3.187,4.494-11.764.321-11.764.321Z" transform="translate(-252.321 -367.658)" fill="#fff"/><path d="M362.688,501.05s8.237,4.426,8.413,5.778-4.192-.591-5.136-.825a11.752,11.752,0,0,0-1.891-.3l-6.295.17Z" transform="translate(-257.774 -359.042)" fill="#cf6f80"/><circle cx="0.867" cy="0.867" r="0.867" transform="translate(116.656 104.568)" opacity="0.1"/><circle cx="0.867" cy="0.867" r="0.867" transform="translate(116.656 104.215)" fill="#3f3d56"/><circle cx="0.867" cy="0.867" r="0.867" transform="translate(118.251 142.085)" opacity="0.1"/><circle cx="0.867" cy="0.867" r="0.867" transform="translate(118.251 141.729)" fill="#3f3d56"/><circle cx="0.867" cy="0.867" r="0.867" transform="translate(117.52 123.327)" opacity="0.1"/><circle cx="0.867" cy="0.867" r="0.867" transform="translate(117.52 122.974)" fill="#3f3d56"/><path d="M443.072,381.818s.591.886,0,1.3.058,1.416.058,1.416-1.473.863-.825,1.64.238,4.285.238,4.285l-1.772,2.934s.106,1.891.112,4.446c0,3.987-.234,9.591-1.531,12.146l.18,20.964s-6.2,2.266-11.4,1.576l-.77-33.64s1.123-19.076,1.538-22.736a38.094,38.094,0,0,0,.3-5.73,64.018,64.018,0,0,0-.77-8.384s-.642-11.514-.706-14.7c-.029-1.525.051-5.974.141-10.2.1-4.625.212-8.988.212-8.988l-1.172-9.27s1.172-.119,1.525.353a3.381,3.381,0,0,0,.514.395h0c2.022,1.367,9.168,5.572,9.168,5.572s3.955,1.573,4.9,3.826a33.34,33.34,0,0,0,2.064,4.494c.459.642.709,3.659.709,3.659s1.361,5.553,2.423,6.494,1.839,6.924,1.839,6.924l-9.389,7.383s-.825,12.281-1,12.756S443.072,381.818,443.072,381.818Z" transform="translate(-304.707 -235.332)" fill="#fff"/><path d="M443.38,381.6s.587.886,0,1.3.055,1.416.055,1.416-1.464.873-.822,1.65.238,4.285.238,4.285l-1.772,2.934s.106,1.891.116,4.446c0,3.987-.234,9.591-1.531,12.146l.177,20.964s-6.214,2.266-11.4,1.576l-.767-33.64s1.123-19.076,1.538-22.736a37.75,37.75,0,0,0,.292-5.73,64.41,64.41,0,0,0-.767-8.384s-.642-11.514-.709-14.7c-.029-1.525.055-5.974.141-10.2.1-4.625.212-8.988.212-8.988l-1.547-9.4s1.547,0,1.9.478a3.045,3.045,0,0,0,.514.395h0c2.022,1.367,9.171,5.572,9.171,5.572s3.951,1.573,4.9,3.826a32.814,32.814,0,0,0,2.067,4.494c.462.642.706,3.659.706,3.659s1.361,5.553,2.423,6.494,1.83,6.911,1.83,6.911l-9.389,7.383s-.825,12.281-1,12.756S443.38,381.6,443.38,381.6Z" transform="translate(-304.659 -235.116)" fill="#fff"/><path d="M432.89,332.148l.847,2.472-4.462,4.494c.1-4.622.212-8.988.212-8.988l-1.547-9.4s1.547,0,1.9.478a2.929,2.929,0,0,0,.514.392h0l3.794,10.946Z" transform="translate(-305.413 -236.603)" opacity="0.1"/><path d="M431.78,329.938l.851,2.472-4.462,4.494c.1-4.625.212-8.988.212-8.988l-1.55-9.4s1.55,0,1.9.478a3.211,3.211,0,0,0,.514.395h0l3.8,10.943Z" transform="translate(-304.659 -235.102)" fill="#fff"/><path d="M395.792,254.664a10.871,10.871,0,0,1-.539,3.406.459.459,0,0,1-.347-.087,14.17,14.17,0,0,0-3.255-7.909,8.31,8.31,0,0,0-1.765-1.83,3.454,3.454,0,0,0-2.395-.677c-.963.132-1.814.786-2.786.87-1.284.106-2.433-.783-3.707-.828a3.643,3.643,0,0,0-2.725,1.265,7.476,7.476,0,0,0-1.461,2.709,15.851,15.851,0,0,0-.815,4.674c-.016.9-.1,2.025-.937,2.353a4.8,4.8,0,0,0-1.21-3.663l-.019-.019v-.263a10.983,10.983,0,1,1,21.967,0Z" transform="translate(-268.672 -184.285)" opacity="0.1"/><path d="M382.263,222.048a7.563,7.563,0,0,0-5.335-.417c-.889.263-1.727.69-2.629.905-1.926.465-4.173-.039-5.826,1.088a6.968,6.968,0,0,0-1.984,2.642l-1.284,2.446a15.872,15.872,0,0,0-1.7,4.173,5.328,5.328,0,0,0,.819,4.308c.68.863,1.685,1.406,2.423,2.218a4.815,4.815,0,0,1,1.207,3.659c.838-.321.918-1.451.937-2.35a15.851,15.851,0,0,1,.815-4.674,7.451,7.451,0,0,1,1.461-2.709,3.65,3.65,0,0,1,2.725-1.265c1.284.045,2.436.931,3.707.825.963-.08,1.817-.738,2.786-.867a3.441,3.441,0,0,1,2.395.677,8.225,8.225,0,0,1,1.762,1.83,14.133,14.133,0,0,1,3.258,7.909c.363.266.886-.08,1.066-.491a11.729,11.729,0,0,1,.414-1.284,4.736,4.736,0,0,1,1.162-1.034A4.543,4.543,0,0,0,391.658,236a18.117,18.117,0,0,1-.045-3.955c.151-.8.491-1.541.677-2.327a3.043,3.043,0,0,0-.231-2.346c-.642-1-1.993-1.191-3.171-1.284-1.339-.116-2.536.032-3.39-1.095a12.3,12.3,0,0,0-1.348-1.65C383.98,223.178,382.263,222.119,382.263,222.048Z" transform="translate(-261.575 -169.109)" fill="#512e4e"/><path d="M304.177,421.332l-3.354-6.2L299.76,424.7a44.357,44.357,0,0,1,.472,4.9c-.119.652,2.42,6.494,2.42,6.494s8.387,14.939,11.812,15.709l11.572-8.269-3.069-3.9s-1.062-.414-1.329,0c0,0-5.7-9.8-6.288-10.512a3.541,3.541,0,0,1-.475-2.125s-.886-.944-.591-1.83-1.711-3.958-1.711-3.958l1.83-1.711Z" transform="translate(-218.378 -300.701)" opacity="0.1"/><path d="M299.5,412.93l-.886.706L297.55,423.2a44.358,44.358,0,0,1,.472,4.9c-.119.652,2.423,6.494,2.423,6.494s8.384,14.939,11.809,15.709l11.575-8.269-3.072-3.9s-1.062-.414-1.329,0c0,0-5.7-9.8-6.288-10.512a3.53,3.53,0,0,1-.472-2.125s-.886-.944-.591-1.83-1.714-3.958-1.714-3.958l1.83-1.711Z" transform="translate(-216.877 -299.207)" fill="#fff"/><path d="M460.724,517.617c.642.78.238,4.282.238,4.282l-1.772,2.934s.106,1.894.112,4.446l-2.979.931a1.769,1.769,0,0,1-2.3-1.743l.514-16.566,6.949,2.658c-.591.411.058,1.419.058,1.419S460.076,516.837,460.724,517.617Z" transform="translate(-323.127 -366.409)" opacity="0.1"/><path d="M461.827,516.514c.642.78.238,4.285.238,4.285l-1.772,2.934s.106,1.891.116,4.446l-3.033.947a1.733,1.733,0,0,1-2.247-1.708l.517-16.618,6.953,2.658c-.594.411.055,1.416.055,1.416S461.185,515.737,461.827,516.514Z" transform="translate(-323.874 -365.662)" fill="#fff"/><path d="M471.41,498.532s-.472,3.014-1.653,3.191-1.711,4.876-2.889,4.709-.4-4.369-.356-5.184-1.284-4.192-.292-4.959,4.131,0,4.131,0Z" transform="translate(-331.154 -355.577)" fill="#cf6f80"/><path d="M471.359,422.184l2.228-4.494a29.175,29.175,0,0,1,.886,5.255c0,1.83,1.239,2.009,1.239,2.009s1.358,1.6.642,2.773a13.462,13.462,0,0,0-1,4.077s.234,5.55-.828,6.317a4.3,4.3,0,0,0-1.284,2.6s-1.952,3.483-1.891,4.311-2.716,6.436-2.716,6.436,1.358-6.969-6.555-9.98c0,0-.061-2.366.53-3.014s1.512-.944.934-4.221a38.282,38.282,0,0,1-.167-7.98,50.251,50.251,0,0,1,1.772-5.691Z" transform="translate(-328.591 -302.439)" opacity="0.1"/><path d="M473.742,415.69l1.945.642a29.081,29.081,0,0,1,.889,5.255c0,1.83,1.239,2.009,1.239,2.009s1.358,1.6.642,2.773a13.426,13.426,0,0,0-1,4.077s.234,5.55-.828,6.317a4.358,4.358,0,0,0-1.3,2.6s-1.948,3.483-1.887,4.311-2.719,6.436-2.719,6.436,1.361-6.969-6.555-9.98c0,0-.058-2.366.533-3.014s1.512-.944.934-4.221a38.279,38.279,0,0,1-.167-7.98,50.252,50.252,0,0,1,1.772-5.691Z" transform="translate(-330.01 -301.081)" fill="#fff"/><path d="M360.15,776.342s3.1-1.948,5.136-.533S360.15,776.342,360.15,776.342Z" transform="translate(-259.383 -545.256)" opacity="0.1"/><path d="M435.21,759.753a6.277,6.277,0,0,1,5.049,2.128C442.564,764.363,435.21,759.753,435.21,759.753Z" transform="translate(-310.349 -534.692)" opacity="0.1"/><g transform="translate(101.805 59.273)" opacity="0.1"><path d="M400.162,260.062A4.763,4.763,0,0,0,399,261.1a11.748,11.748,0,0,0-.411,1.284c-.18.417-.7.758-1.066.494a14.193,14.193,0,0,0-3.258-7.912,8.223,8.223,0,0,0-1.762-1.83,3.451,3.451,0,0,0-2.4-.677c-.963.132-1.81.786-2.783.867-1.284.109-2.436-.78-3.711-.825a3.634,3.634,0,0,0-2.722,1.268,7.434,7.434,0,0,0-1.46,2.706,15.869,15.869,0,0,0-.815,4.674c-.019.9-.1,2.013-.931,2.346a4.4,4.4,0,0,1,0,.713c.835-.321.918-1.451.937-2.35a15.851,15.851,0,0,1,.815-4.674,7.45,7.45,0,0,1,1.461-2.709,3.643,3.643,0,0,1,2.722-1.265c1.284.045,2.44.931,3.711.825.963-.08,1.817-.738,2.783-.867a3.451,3.451,0,0,1,2.4.677,8.225,8.225,0,0,1,1.762,1.83,14.156,14.156,0,0,1,3.258,7.909c.363.266.886-.08,1.066-.491a12.445,12.445,0,0,1,.411-1.284,4.749,4.749,0,0,1,1.165-1.034,4.543,4.543,0,0,0,1.213-3.637v-.122A4.214,4.214,0,0,1,400.162,260.062Z" transform="translate(-373.091 -249.508)"/><path d="M366.76,265.224c-.738-.812-1.746-1.355-2.423-2.215a4.7,4.7,0,0,1-.934-2.629,4.943,4.943,0,0,0,.934,3.335c.677.863,1.685,1.406,2.423,2.218a4.815,4.815,0,0,1,1.21,2.863A4.815,4.815,0,0,0,366.76,265.224Z" transform="translate(-363.385 -254.897)"/><path d="M451.8,243.936c-.189.786-.526,1.534-.681,2.327a7.413,7.413,0,0,0-.1,1.6,6.237,6.237,0,0,1,.1-.912c.154-.8.491-1.541.681-2.327a3.949,3.949,0,0,0,.106-1.329A4.465,4.465,0,0,1,451.8,243.936Z" transform="translate(-422.886 -243.3)"/></g><ellipse cx="31.277" cy="5.024" rx="31.277" ry="5.024" transform="translate(11.654 234.091)" fill="#7474bf" opacity="0.1"/><rect width="2.013" height="45.314" transform="translate(41.926 142.881)" fill="#535461"/><path d="M164.75,638.005l-.125,2.042-.18,2.889-.074,1.2-.177,2.889-.077,1.2-.18,2.889-2.029,32.763a5.553,5.553,0,0,1-5.54,5.206H145.822a5.55,5.55,0,0,1-5.537-5.206l-2.019-32.786-.18-2.889-.074-1.2-.18-2.889-.074-1.2-.18-2.889-.128-2.042a2.889,2.889,0,0,1,2.889-3.053h21.574a2.87,2.87,0,0,1,2.838,3.075Z" transform="translate(-108.164 -449.948)" fill="#3f3d56"/><path d="M117.639,592.24l-.18,2.879H90.76l-.18-2.879Z" transform="translate(-61.179 -402.141)" fill="#9d9cb5"/><path d="M117.922,604.95l-.177,2.883H91.55l-.18-2.883Z" transform="translate(-61.715 -410.771)" fill="#9d9cb5"/><path d="M118.205,617.68l-.177,2.879H92.34l-.18-2.879Z" transform="translate(-62.252 -419.415)" fill="#9d9cb5"/><path d="M73.59,537.722C85.309,546.2,90.2,559.466,90.2,559.466s-14.124-.485-25.846-8.965-16.6-21.741-16.6-21.741S61.867,529.241,73.59,537.722Z" transform="translate(-47.26 -377.857)" fill="#7474bf"/><path d="M47.72,528.76s14.663,8.137,19.365,14.875,23.1,15.831,23.1,15.831" transform="translate(-47.24 -377.857)" fill="none" stroke="#535461" stroke-miterlimit="10" stroke-width="2"/><path d="M122.066,493.139a28.5,28.5,0,0,1,9.046,11.832A25.833,25.833,0,0,1,108,488.26,28.421,28.421,0,0,1,122.066,493.139Z" transform="translate(-88.171 -350.357)" fill="#7474bf"/><path d="M108,488.26s7.98,4.43,10.538,8.1,12.573,8.615,12.573,8.615" transform="translate(-88.171 -350.357)" fill="none" stroke="#535461" stroke-miterlimit="10" stroke-width="2"/><path d="M190.069,516.773c-7.328,8.054-8.879,18.579-8.879,18.579s10.333-2.536,17.654-10.593,8.879-18.579,8.879-18.579S197.4,508.719,190.069,516.773Z" transform="translate(-137.867 -362.525)" fill="#7474bf"/><path d="M207.729,506.19s-9.546,8.256-11.973,13.944-14.567,15.225-14.567,15.225" transform="translate(-137.867 -362.532)" fill="none" stroke="#535461" stroke-miterlimit="10" stroke-width="2"/><path d="M894.513,349.286s-5.3-26.366-3.271-29.647c0,0,.074-3.049-.048-6.937v-.446a9.876,9.876,0,0,0,1.114.642,9.013,9.013,0,0,0,6.067.783l-1.6-1.788a2.964,2.964,0,0,1-.87-1.454,3.046,3.046,0,0,1,.347-1.573c1.525-3.852,1.6-8.7-1.332-11.636-2.481-2.472-3.085-5.662-5.778-7.919-1.968-1.653-3.049-4.077-4.07-6.42a36.111,36.111,0,0,1-2.228-6.076c-.385-1.64-.539-3.338-1.069-4.94A6.288,6.288,0,0,0,878.7,268a11.6,11.6,0,0,1-1.669-.735,7.21,7.21,0,0,1-1.537-1.807c-2.43-3.21-10.567-1.319-14.419-.016a8.112,8.112,0,0,0-2.85,1.579l.035-.058c.029-.048.064-.1.1-.144a5.063,5.063,0,0,0-1.078,1.2,28.863,28.863,0,0,0-1.265,2.889c-.565,1.139-3.707,4.321-2.356,5.6a1.14,1.14,0,0,0,.321.205,2.776,2.776,0,0,0,1.6.16l-.058.138a9.382,9.382,0,0,0-.7,3.56,9.634,9.634,0,0,0,9.72,9.549,9.812,9.812,0,0,0,2.976-.459c.022.122.042.244.064.366a1.126,1.126,0,0,0,.022.144h0l-.17.238a.318.318,0,0,0-.029-.042l-5.04,7.043c-.77.542-5.206,3.752-5.457,6.16-.263,2.635-.526,5.72-.526,5.72l-.035.661a1.984,1.984,0,0,1-1.6.433c-1.573-.257-1.573,5.778-1.573,5.778s-1.046.963-1.766.128-2.619,1.993-2.619,1.993l-11.909.514h0l-.273.016-.642-1.987a.838.838,0,0,0-1.05-.536.962.962,0,0,0-.144.061l-.045.026-.083.058-.042.039a.648.648,0,0,0-.064.067l-.039.045-.019.019h0a.809.809,0,0,0-.116.719l.552,1.7c-2.3.462-4.648,1.765-2.732,5.354L822.47,322.6l3.142,2.639,16.223,3.348c-.215.385-.074.944.6,1.73,2.889,3.393,8.153,4.314,10.272,4.552a18.238,18.238,0,0,0,2.083,3.531l-.183,3.38s-5.364,25.763-6.346,27.069a15.266,15.266,0,0,0,1.358-1.788c-1.557,5.293-3.733,12.538-4.3,13.623-.918,1.733-1.769,8.747-.722,9.2a8.8,8.8,0,0,0,2.549-.029v.581l-.058,22.017s.263,13.5-.459,14.791a12.591,12.591,0,0,0-.915,3.987s-2.889,5.325-5.178,7.466a.345.345,0,0,1-.051.045l-.071-.5s-2.751,3.473-8.837,3.277c0,0-3.663,2.382,1.769,2.51s12.368-.193,12.368-.193,4.844-7.383,8.9-6.42V443h1.242v-5.685a5.094,5.094,0,0,0,2.212-3.348,4.07,4.07,0,0,0-1.451-3.765,2.408,2.408,0,0,1-.793-1.759l-.045.038a3.385,3.385,0,0,0-.042-.347c-.356-2.889-.8-8.85.774-13.26,2.16-6.047,2.815-14.47,1.242-19.484a44.8,44.8,0,0,1-1.249-4.882c-.039-.209-.074-.408-.106-.594a25.313,25.313,0,0,1,3.187.642c3.643,1,11.613,1.191,18.418,1.136.016.186.035.382.058.578a21.031,21.031,0,0,0,.758,4.019c.854,2.568,1.245,13.889,1.245,13.889s1.1,9.309.5,13.1c-.321,2.106-.642,4.221-.825,6.346v.042s-1.8,5.136-3.123,7.925c-.032.071-.067.141-.1.209a4.172,4.172,0,0,0-1.03.228s-1.769,3.531-3.531,4.115-1.178,2.507,2.812,1.8,10.015-1.284,10.015-1.284l.26-3.6,1.226-1.534-.321,3.592,1.306-.257-.173-4.369,2.006-2.51s2.423-2.157-1.178-6.4v.093c-.039-.061-.074-.125-.116-.186v-.019c-.6-.924-1.072-2.648-.2-5.707,1.573-5.527,2.488-10.545,2.488-10.545s3.512-13.44-.709-19.8h.186a10.7,10.7,0,0,1-.908-2.825q-.032-.173-.058-.356a23.161,23.161,0,0,0,8.689-1.964C897.264,386.258,895.759,354.365,894.513,349.286Zm-39.652-22.245v.064l-.642.032Zm-2.2.3a.71.71,0,0,0-.289.138,2.85,2.85,0,0,0-.5,1.319l-1-.225s-.7-.151-1.714-.321l-.478-.482C849.989,327.668,851.356,327.507,852.659,327.347Z" transform="translate(-573.303 -197.873)" fill="url(#b)"/><path d="M971.7,742.172l-.382,4.548,1.281-.257-.193-4.934Z" transform="translate(-659.21 -503.51)" fill="#1d2366"/><path d="M891.777,677.28c-1.544,4.4-1.107,10.333-.761,13.215.128,1.066.247,1.714.247,1.714s-2.308,5.258-2.5,5.457-6.792,4.227-6.792,4.227l-4.613,2.693s-4.68-2.051-2.436-2.757a3.405,3.405,0,0,0,1.21-.825c2.247-2.135,5.068-7.441,5.068-7.441a12.8,12.8,0,0,1,.9-3.974c.706-1.281.449-14.74.449-14.74l.055-21.94v-2.86l8.779.064a19.876,19.876,0,0,0,.379,2.889,44.149,44.149,0,0,0,1.223,4.866C894.531,662.874,893.889,671.255,891.777,677.28Z" transform="translate(-608.505 -460.214)" fill="#ffb0b1"/><path d="M891.264,777.778s-2.308,5.258-2.5,5.457-6.792,4.227-6.792,4.227l-4.613,2.693s-4.68-2.051-2.436-2.757a3.405,3.405,0,0,0,1.21-.825l.2,1.4,1.538-.064,13.161-11.841C891.145,777.129,891.264,777.778,891.264,777.778Z" transform="translate(-608.505 -545.783)" opacity="0.1"/><path d="M873.855,777l-13.234,11.922-1.538.064-.321-2.247s-2.69,3.46-8.667,3.268c0,0-3.589,2.372,1.73,2.5s12.111-.193,12.111-.193,4.744-7.383,8.715-6.42v5.576h1.22v-5.627a5.068,5.068,0,0,0,2.163-3.338,4.089,4.089,0,0,0-1.416-3.749,2.417,2.417,0,0,1-.764-1.756Z" transform="translate(-591.257 -546.414)" fill="#1d2366"/><path d="M998.335,683.63c-.854,3.049-.388,4.767.2,5.688v.019a10.512,10.512,0,0,1,1.534,3.746l.051.289-6.022,8.779-3.268,1.284s-5.255-1.794-4.295-2.308a4.917,4.917,0,0,0,1.046-1.714c1.284-2.777,3.056-7.9,3.056-7.9v-.042c.186-2.115.481-4.224.809-6.324.587-3.778-.491-13.051-.491-13.051s-.385-11.276-1.22-13.841a21.168,21.168,0,0,1-.748-3.993c-.173-1.6-.212-2.927-.212-2.927s3.46-4.815,9.8.385a6.978,6.978,0,0,1,1.326,1.438c4.382,6.234.854,19.966.854,19.966S999.873,678.119,998.335,683.63Z" transform="translate(-684.623 -459.708)" fill="#ffb0b1"/><path d="M1000.147,777.851l-6.022,8.779-3.268,1.284s-5.255-1.794-4.295-2.308a4.918,4.918,0,0,0,1.046-1.714,4.153,4.153,0,0,1,3.377,2.1l2.818-.449s3.717-7.306,4.552-7.752.128-3.335.128-3.335v-.735c.022.026.042.055.067.08v.019a10.513,10.513,0,0,1,1.534,3.746Z" transform="translate(-684.643 -544.187)" opacity="0.1"/><path d="M982.014,786.575s-1.6-2.947-4.68-1.859c0,0-1.73,3.531-3.46,4.1s-1.152,2.5,2.757,1.794,9.8-1.284,9.8-1.284l.257-3.592,3.974-5.062s2.369-2.147-1.156-6.375v.735s.706,2.889-.128,3.335-4.539,7.755-4.539,7.755Z" transform="translate(-675.479 -544.581)" fill="#1d2366"/><path d="M908.929,650.094a19.875,19.875,0,0,0,.379,2.889,40.269,40.269,0,0,0-9.167-.093v-2.86Z" transform="translate(-626.041 -460.201)" opacity="0.1"/><path d="M1005.272,653.951s-5.136.25-11.26.3c-.173-1.6-.212-2.927-.212-2.927s3.46-4.815,9.8.385a6.979,6.979,0,0,1,1.326,1.438A7.844,7.844,0,0,0,1005.272,653.951Z" transform="translate(-689.637 -459.702)" opacity="0.1"/><path d="M935.409,534.435s-22.495,1.088-29.351-.835-13.652-.257-14.676-.7-.193-7.434.706-9.164,5.829-19.227,5.829-19.227l4.744-24.736,5-1.377.353-.1,8.708-2.4,6.381-1.762s12.689,49.538,11.6,53.191a9.354,9.354,0,0,0-.186,4.3A10.731,10.731,0,0,0,935.409,534.435Z" transform="translate(-619.774 -340.763)" fill="#1d2366"/><path d="M871,439s-4.494,4.815-1.091,7.5,5.64.257,5.64.257Z" transform="translate(-604.648 -316.909)" fill="#c7daf5"/><path d="M871,439s-4.494,4.815-1.091,7.5,5.64.257,5.64.257Z" transform="translate(-604.648 -316.909)" opacity="0.1"/><path d="M968.774,321.815s-.526.5-1.319,1.239c-1.13,1.056-2.8,2.6-4.285,3.894-2.054,1.788-3.749,3.1-3.143,1.98s.491-3.072.189-4.9c-.022-.122-.042-.244-.064-.363a33.634,33.634,0,0,0-.992-3.967,68.642,68.642,0,0,1,5.155-5.98c.684-.642,1.162-.905,1.191-.459a14.915,14.915,0,0,0,1.04,3.332c.016.045.032.087.051.132.372.963.793,1.952,1.162,2.805C968.324,320.839,968.774,321.815,968.774,321.815Z" transform="translate(-666.116 -231.38)" fill="#ffb0b1"/><path d="M966.6,316.732a9.527,9.527,0,0,1-6.381,7.306,33.413,33.413,0,0,0-1.056-4.33s6.25-8.073,6.346-6.439A15.273,15.273,0,0,0,966.6,316.732Z" transform="translate(-666.116 -231.388)" opacity="0.1"/><path d="M935.088,351.59l.809-1.139s.536,3.268,2.507,1.826,2.067,10.846,2.067,10.846l-2.115,31.627-15.286-.915.433-15.282,1.73-7.7,4.279-11.2,2.545-3.7Z" transform="translate(-641.611 -256.783)" opacity="0.1"/><path d="M940.491,363.7l-1.926,28.6-.2,3.03-8.522-.51-.321-.019-6.42-.385.433-15.286,1.73-7.7,4.279-11.2,2.545-3.7,3.03-4.375.809-1.136s.536,3.268,2.507,1.826l.042-.029h0C940.4,351.588,940.491,363.7,940.491,363.7Z" transform="translate(-641.631 -257.163)" fill="#1d2366"/><path d="M888.608,406.26A2.339,2.339,0,0,1,886.3,407.6c-1.541-.26-1.538,5.778-1.538,5.778s-1.024.963-1.73.128-2.568,1.987-2.568,1.987l-11.665.514s5.19,2.372,4.173,9.549c0,0,17.622-1.091,18.2-2.757S888.608,406.26,888.608,406.26Z" transform="translate(-604.761 -294.678)" fill="#fff"/><path d="M888.608,406.26A2.339,2.339,0,0,1,886.3,407.6c-1.541-.26-1.538,5.778-1.538,5.778s-1.024.963-1.73.128-2.568,1.987-2.568,1.987l-11.665.514s5.19,2.372,4.173,9.549c0,0,17.622-1.091,18.2-2.757S888.608,406.26,888.608,406.26Z" transform="translate(-604.761 -294.678)" opacity="0.03"/><path d="M777.66,389.76l3.075,2.626,25.313,5.319-3.139-3.2Z" transform="translate(-527.713 -264.655)" fill="#fff"/><path d="M921.9,350.8a64.767,64.767,0,0,0-2.629,6.8c-.838,2.391-1.538,4.494-1.538,4.494s-1.634,10.638-2.468,12.56-.382,9.421-.382,9.421l-3.11,18.518s-1.409,9.549-3.585,15.253a27.777,27.777,0,0,1-4.613,8.33c.963-1.3,6.211-26.963,6.211-26.963l1.733-32.362s.254-3.075.51-5.7,5.457-6.218,5.457-6.218L922.5,347.8C923,348.474,922.662,349.649,921.9,350.8Z" transform="translate(-628.37 -254.984)" fill="#fff"/><path d="M895.325,471.7s-7.383-.321-10.959-4.616,8.266-1.714,8.266-1.714l3.078.706Z" transform="translate(-614.874 -334.295)" fill="#ffb0b1"/><path d="M970.133,447.408a9.354,9.354,0,0,0-.186,4.3,61.187,61.187,0,0,1-16.669-1.6,37.444,37.444,0,0,1-5.832,3.653l-2.3-28.568c-1.473-3.852-2.051-24.033-2.051-24.033s.132-1.056.321-2.639a.3.3,0,0,1,.016-.119c.575-4.42,1.714-12.718,2.273-13.838.77-1.541-2.369-5.64-2.369-5.64l1.428-12.182.173-1.47c3.011-1.345,5.319-5.64,5.319-5.64l1.772-3.1h0c1.926-1.236,2.025,10.875,2.025,10.875l-1.926,28.6,6.381-1.762S971.222,443.755,970.133,447.408Z" transform="translate(-655.205 -260.846)" opacity="0.1"/><path d="M979.214,433.2c-8.779,4.359-24.736.321-24.736.321a37.444,37.444,0,0,1-5.832,3.653L946.338,408.6c-1.47-3.852-2.048-24.033-2.048-24.033s1.855-15.058,2.626-16.6a2.472,2.472,0,0,0-.151-1.836,23.233,23.233,0,0,1-1.406-10.75l.616-5.235.17-1.467c3.014-1.348,5.322-5.643,5.322-5.643l1.6-2.812,2.953-5.181,1.4-2.452.237.215,1.814,1.643,1.926,1.6c2.513,2.119,6.856,5.848,9.1,8.131,1.971,2.009,2.594,9.826,2.773,15.709.119,3.874.048,6.911.048,6.911-1.987,3.271,3.21,29.531,3.21,29.531C977.74,401.42,979.214,433.2,979.214,433.2Z" transform="translate(-656.019 -244.663)" fill="#fff"/><path d="M943.446,363.982s-6.025,11.469-5.325,15.828,2.69,9.293,1.73,10.445a3.547,3.547,0,0,1-2.821,1.409,9.276,9.276,0,0,0-3.531,2.051c0,.193-2.372.193-4.494,1.091a27.981,27.981,0,0,1-5.255,1.409s-6.1-.193-6.667.385-1.152,4.035.064,6.792,2.568,4.815,3.589,5.19,7.5-1.794,12.753-2.308,10.959-4.677,10.959-4.677,6.282-2.247,7.383-6.025-1.345-24.543-1.345-24.543S948.637,361.353,943.446,363.982Z" transform="translate(-637.104 -265.664)" opacity="0.03"/><path d="M941.066,360.984s-6.025,11.472-5.319,15.828,2.69,9.293,1.727,10.448a3.531,3.531,0,0,1-2.818,1.409,9.275,9.275,0,0,0-3.531,2.051c0,.193-2.372.193-4.494,1.088a28.254,28.254,0,0,1-5.255,1.409s-6.1-.193-6.664.385-1.156,4.038.064,6.792,2.568,4.815,3.589,5.19,7.5-1.794,12.753-2.3,10.959-4.68,10.959-4.68,6.279-2.247,7.367-6.022-1.345-24.546-1.345-24.546S946.256,358.358,941.066,360.984Z" transform="translate(-635.494 -263.629)" opacity="0.03"/><path d="M942.87,362.192s-6.025,11.472-5.319,15.828,2.69,9.293,1.73,10.445a3.531,3.531,0,0,1-2.821,1.412,9.318,9.318,0,0,0-3.531,2.048c0,.189-2.369.193-4.494,1.091a28.047,28.047,0,0,1-5.255,1.409s-6.1-.193-6.667.385-1.152,4.038.064,6.792,2.568,4.815,3.589,5.19,7.5-1.794,12.753-2.308,10.959-4.677,10.959-4.677,6.282-2.247,7.383-6.025-1.329-24.543-1.329-24.543S948.057,359.579,942.87,362.192Z" transform="translate(-636.717 -264.451)" fill="#fff"/><path d="M992.2,458.394s-4.815-.963-3.139.642,1.666,3.011,3.717,2.947S992.2,458.394,992.2,458.394Z" transform="translate(-686.179 -329.883)" opacity="0.1"/><path d="M1023.737,566.58s-2.176,1.473,1.987,4.869S1023.737,566.58,1023.737,566.58Z" transform="translate(-709.579 -403.537)" opacity="0.1"/><path d="M1011.8,604.31c0,.193-.77,7.062,2.112,8.779S1011.8,604.31,1011.8,604.31Z" transform="translate(-701.798 -429.156)" opacity="0.1"/><path d="M857.847,436.59c-2.324.08-7.344.79-4.741,5.646,2.3,4.3,6.169,1.425,8.346-.754A8.2,8.2,0,0,0,857.847,436.59Z" transform="translate(-593.609 -315.273)" fill="#ffb0b1"/><path d="M881.39,451Z" transform="translate(-613.31 -325.057)" fill="#ffb0b1"/><path d="M880.74,451.5l.1-.1Z" transform="translate(-612.868 -325.329)" fill="#ffb0b1"/><path d="M964.967,336.66c-2.465,1.685-4.532,3.107-4.937,3.4-1.1.819-3.21,5.624-4.568,8.076-1.082,1.974-4.6,2.481-5.922,2.606l.17-1.467c3.014-1.348,5.322-5.643,5.322-5.643l5.958-10.445,2.051,1.865Z" transform="translate(-659.584 -245.063)" opacity="0.1"/><path d="M964.967,336.06c-2.465,1.685-4.532,3.107-4.937,3.406-1.1.815-3.21,5.621-4.568,8.073-1.082,1.974-4.6,2.481-5.922,2.606l.17-1.467c3.014-1.348,5.322-5.643,5.322-5.643l5.958-10.445,2.051,1.859S963.811,335.084,964.967,336.06Z" transform="translate(-659.584 -244.656)" fill="#dce7ff"/><path d="M942.538,297.782a9.521,9.521,0,1,1-8.094-9.411,9.5,9.5,0,0,1,8.094,9.411Z" transform="translate(-641.9 -214.557)" fill="#ffb0b1"/><path d="M960.615,329.8a8.462,8.462,0,0,1-3.072-3.3,8.691,8.691,0,0,0-1.807-3.033,8.025,8.025,0,0,0-2.953-1.14c-3.377-1-6.208-4.08-6.314-7.6-.051-1.656.465-3.309.231-4.95a5.481,5.481,0,0,0-1.072-2.552,8.783,8.783,0,0,0-.928-1c-.449-.424-.921-.835-1.332-1.284a4.987,4.987,0,0,1-.674-.915,4.4,4.4,0,0,1-.369-.851c-.642-1.964-.058-4.295-.764-6.282l-.039-.109a2.044,2.044,0,0,0-1.563-1.467c-.754-.055-1.4.571-2.119.851-1.505.584-3.13-.411-4.385-1.425s-2.671-2.173-4.266-1.948a13.783,13.783,0,0,0-2.863,1.242,4.012,4.012,0,0,1-.677.2A9.517,9.517,0,0,1,944,297.785a9.42,9.42,0,0,1-.209,1.987c.016.045.032.087.051.132.372.963.793,1.952,1.162,2.805l1.814,1.643,1.926,1.6c2.513,2.119,6.856,5.848,9.1,8.131C959.813,316.1,960.429,323.917,960.615,329.8Z" transform="translate(-643.363 -214.557)" opacity="0.1"/><path d="M921.837,272.724c.459-.934.687-1.98,1.236-2.866a6.83,6.83,0,0,1,3.656-2.6c3.772-1.3,11.742-3.187,14.124,0a6.948,6.948,0,0,0,1.505,1.8,11.177,11.177,0,0,0,1.634.735,6.244,6.244,0,0,1,3,3.852c.517,1.586.671,3.287,1.05,4.921a36.181,36.181,0,0,0,2.183,6.057c1,2.33,2.058,4.747,3.983,6.394,2.629,2.247,3.21,5.428,5.649,7.893,2.889,2.927,2.8,7.758,1.306,11.594a3.183,3.183,0,0,0-.34,1.566,3.072,3.072,0,0,0,.851,1.451l1.579,1.781a8.88,8.88,0,0,1-9.7-4.475,8.679,8.679,0,0,0-1.81-3.033,8.006,8.006,0,0,0-2.95-1.136c-3.377-1-6.208-4.086-6.314-7.6-.051-1.653.465-3.306.231-4.943a5.456,5.456,0,0,0-1.075-2.568c-.883-1.152-2.215-1.926-2.934-3.21-1.217-2.147-.292-4.937-1.168-7.242a2.048,2.048,0,0,0-1.563-1.467c-.754-.055-1.4.571-2.122.851-1.5.584-3.126-.408-4.381-1.425s-2.671-2.173-4.269-1.945a13.42,13.42,0,0,0-2.86,1.242c-.719.276-2.176.523-2.805-.083C918.2,277.035,921.281,273.867,921.837,272.724Z" transform="translate(-638.985 -199.103)" fill="#591d4b"/><path d="M954.3,316.368a8.685,8.685,0,0,0-1.81-3.03,8,8,0,0,0-2.953-1.139c-3.374-1-6.2-4.083-6.314-7.6-.051-1.653.465-3.309.234-4.946a5.489,5.489,0,0,0-1.075-2.552c-.886-1.152-2.218-1.926-2.934-3.21-1.217-2.144-.292-4.934-1.172-7.242a2.054,2.054,0,0,0-1.56-1.467c-.751-.058-1.4.575-2.122.854-1.5.584-3.13-.411-4.382-1.425s-2.674-2.173-4.269-1.948a13.681,13.681,0,0,0-2.86,1.242c-.719.276-2.18.526-2.809-.08-1.323-1.284,1.756-4.446,2.308-5.582a30.754,30.754,0,0,1,1.239-2.866c.029-.048.061-.1.093-.144a5.1,5.1,0,0,0-1.056,1.2,31.2,31.2,0,0,0-1.236,2.866c-.555,1.136-3.634,4.308-2.308,5.582.642.61,2.086.359,2.805.083a13.215,13.215,0,0,1,2.86-1.242c1.6-.228,3.017.931,4.269,1.945s2.889,2.009,4.385,1.425c.719-.279,1.348-.908,2.119-.851a2.044,2.044,0,0,1,1.563,1.467c.876,2.3-.048,5.094,1.168,7.242.719,1.262,2.051,2.051,2.934,3.21a5.457,5.457,0,0,1,1.075,2.568c.234,1.637-.283,3.29-.231,4.943.106,3.531,2.937,6.6,6.314,7.6a8.049,8.049,0,0,1,2.95,1.136,8.49,8.49,0,0,1,1.81,3.033,8.88,8.88,0,0,0,9.7,4.475l-.745-.841A8.976,8.976,0,0,1,954.3,316.368Z" transform="translate(-638.838 -205.708)" opacity="0.1"/><path d="M950.7,351.333a64.736,64.736,0,0,0-2.629,6.8c-.941-.366-1.794-2.7-1.794-2.7l5.014-7.132C951.807,349.006,951.47,350.178,950.7,351.333Z" transform="translate(-657.371 -255.323)" opacity="0.1"/><path d="M951.3,350.74a64.75,64.75,0,0,0-2.629,6.8c-.941-.363-1.794-2.7-1.794-2.7l5.014-7.129C952.407,348.413,952.07,349.588,951.3,350.74Z" transform="translate(-657.778 -254.922)" fill="#dce7ff"/><path d="M863.877,438.507l-2.78-8.766a.819.819,0,0,1,.533-1.03h0a.822.822,0,0,1,1.027.533l2.78,8.757-.276,1.833Z" transform="translate(-599.504 -309.897)" fill="#be8b87"/><path d="M861.64,429h0a.822.822,0,0,1,1.03.533l2.78,8.757-.209,1.374.2.212.276-1.833-2.8-8.757a.822.822,0,0,0-1.027-.533h0a.822.822,0,0,0-.427.321,1.118,1.118,0,0,1,.17-.074Z" transform="translate(-599.784 -309.924)" fill="#fff" opacity="0.1"/><path d="M822.6,399.634l1.56-.494-.228,1.5-.048.331-.456-.475Z" transform="translate(-558.227 -271.024)" fill="#efc8c4"/><path d="M872.42,461.777a.32.32,0,0,1,.1-.083.141.141,0,0,1,.151,0,.4.4,0,0,1,.055.087.276.276,0,0,0,.2.132l-.048.321Z" transform="translate(-607.219 -332.304)" fill="#727a9c"/><path d="M861.13,441.7s5.576-.032,4.263,2.34a5.015,5.015,0,0,1-3.364,2.658Z" transform="translate(-599.553 -318.742)" fill="#ffb0b1"/><path d="M597.94,110.05H597.7A27.455,27.455,0,0,0,574.777,122.6a27.455,27.455,0,0,0-22.922-12.548h-.241a27.284,27.284,0,0,0-27.024,27.268c0,8.927,3.91,21.593,11.533,32.016,14.525,19.86,38.654,37.235,38.654,37.235s24.129-17.372,38.651-37.235c7.627-10.423,11.533-23.089,11.533-32.016A27.284,27.284,0,0,0,597.94,110.05ZM594.5,170.862a5.409,5.409,0,0,1-5.03-3.473h-5.727a1.81,1.81,0,0,1-1.7-1.233l-1.759-5.3-5.566,19.449a1.8,1.8,0,0,1-1.727,1.3h-.112a1.778,1.778,0,0,1-1.669-1.489l-5.736-34.5-4.192,20.415a1.788,1.788,0,0,1-1.737,1.358H551.47a1.794,1.794,0,1,1,0-3.585h6.654l5.938-27.448a1.8,1.8,0,0,1,3.531.148l5.858,35.193,4.988-17.4a1.766,1.766,0,0,1,1.679-1.284h.035a1.791,1.791,0,0,1,1.7,1.233l3.181,9.569h4.359a5.38,5.38,0,1,1,5.11,7.062Z" transform="translate(-371.039 -93.549)" fill="#7474bf"/></g></svg>